ISO-10303-21;
HEADER;
FILE_DESCRIPTION (( 'STEP AP214' ),
    '1' );
FILE_NAME ('XH-YJ38-LJ-004-A0-µ×ÅÌ·½Í¨-¶Ì',
    '2026-06-05T05:30:37',
    ( 'Microsoft' ),
    ( 'Microsoft' ),
    'SwSTEP 2.0',
    'SolidWorks 2020',
    '' );
FILE_SCHEMA (( 'AUTOMOTIVE_DESIGN' ));
ENDSEC;

DATA;
#1 = CARTESIAN_POINT ( 'NONE',  ( 1169.794884014999980, -18.96066579499991533, 118.9638762099999809 ) ) ;
#2 = AXIS2_PLACEMENT_3D ( 'NONE', #559, #115, #900 ) ;
#3 = PLANE ( 'NONE',  #23 ) ;
#4 = ORIENTED_EDGE ( 'NONE', *, *, #175, .F. ) ;
#5 = ORIENTED_EDGE ( 'NONE', *, *, #87, .F. ) ;
#6 = DIRECTION ( 'NONE',  ( 0.000000000000000000, 0.000000000000000000, -1.000000000000000000 ) ) ;
#7 = EDGE_CURVE ( 'NONE', #517, #14, #412, .T. ) ;
#8 = CYLINDRICAL_SURFACE ( 'NONE', #66, 3.000000000000002665 ) ;
#9 = VERTEX_POINT ( 'NONE', #42 ) ;
#10 = AXIS2_PLACEMENT_3D ( 'NONE', #81, #534, #167 ) ;
#11 = FACE_OUTER_BOUND ( 'NONE', #899, .T. ) ;
#12 = LINE ( 'NONE', #608, #736 ) ;
#13 = EDGE_CURVE ( 'NONE', #379, #233, #786, .T. ) ;
#14 = VERTEX_POINT ( 'NONE', #333 ) ;
#15 = VERTEX_POINT ( 'NONE', #124 ) ;
#16 = CARTESIAN_POINT ( 'NONE',  ( 1169.794884014999980, -46.96066579500000415, 152.9638762099999951 ) ) ;
#17 = DIRECTION ( 'NONE',  ( -1.000000000000000000, 0.000000000000000000, 0.000000000000000000 ) ) ;
#18 = VERTEX_POINT ( 'NONE', #555 ) ;
#19 = EDGE_CURVE ( 'NONE', #415, #495, #689, .T. ) ;
#20 = CARTESIAN_POINT ( 'NONE',  ( 1169.794884014999980, -24.96066579500000771, 121.9638762100000093 ) ) ;
#21 = LINE ( 'NONE', #814, #283 ) ;
#22 = ORIENTED_EDGE ( 'NONE', *, *, #35, .F. ) ;
#23 = AXIS2_PLACEMENT_3D ( 'NONE', #713, #227, #443 ) ;
#24 = DIRECTION ( 'NONE',  ( -0.000000000000000000, -0.000000000000000000, 1.000000000000000000 ) ) ;
#25 = ORIENTED_EDGE ( 'NONE', *, *, #827, .F. ) ;
#26 = APPLICATION_CONTEXT ( 'automotive_design' ) ;
#27 = ORIENTED_EDGE ( 'NONE', *, *, #513, .F. ) ;
#28 = CARTESIAN_POINT ( 'NONE',  ( 1430.919884014999980, -4.960665795000000600, 123.9638762100000093 ) ) ;
#29 = CIRCLE ( 'NONE', #366, 6.000000000000005329 ) ;
#30 = DIRECTION ( 'NONE',  ( 1.000000000000000000, 0.000000000000000000, 0.000000000000000000 ) ) ;
#31 = ORIENTED_EDGE ( 'NONE', *, *, #913, .T. ) ;
#32 = ORIENTED_EDGE ( 'NONE', *, *, #188, .T. ) ;
#33 = DIRECTION ( 'NONE',  ( -0.000000000000000000, -0.000000000000000000, -1.000000000000000000 ) ) ;
#34 = CARTESIAN_POINT ( 'NONE',  ( 1576.919884014999980, -2.960665794999999711, 152.9638762099999951 ) ) ;
#35 = EDGE_CURVE ( 'NONE', #463, #690, #846, .T. ) ;
#36 =( GEOMETRIC_REPRESENTATION_CONTEXT ( 3 ) GLOBAL_UNCERTAINTY_ASSIGNED_CONTEXT ( ( #85 ) ) GLOBAL_UNIT_ASSIGNED_CONTEXT ( ( #425, #135, #429 ) ) REPRESENTATION_CONTEXT ( 'NONE', 'WORKASPACE' ) );
#37 = EDGE_LOOP ( 'NONE', ( #664, #764, #297, #938, #551, #185, #730, #328, #798 ) ) ;
#38 = VECTOR ( 'NONE', #937, 1000.000000000000000 ) ;
#39 = ORIENTED_EDGE ( 'NONE', *, *, #242, .T. ) ;
#40 = CARTESIAN_POINT ( 'NONE',  ( 1169.794884014999980, -24.96066579500000771, 118.9638762099999809 ) ) ;
#41 = CARTESIAN_POINT ( 'NONE',  ( 883.0448840149999796, -30.96066579499998639, 118.9638762099999809 ) ) ;
#42 = CARTESIAN_POINT ( 'NONE',  ( 883.0448840149999796, -43.96066579499999705, 158.9638762099999951 ) ) ;
#43 = VERTEX_POINT ( 'NONE', #906 ) ;
#44 = MECHANICAL_DESIGN_GEOMETRIC_PRESENTATION_REPRESENTATION (  '', ( #89 ), #637 ) ;
#45 = CARTESIAN_POINT ( 'NONE',  ( 883.0448840149999796, -46.96066579500000415, 152.9638762099999951 ) ) ;
#46 = CARTESIAN_POINT ( 'NONE',  ( 883.0448840149999796, -18.96066579500001126, 118.9638762099999809 ) ) ;
#47 = ADVANCED_FACE ( 'NONE', ( #562 ), #488, .T. ) ;
#48 = CIRCLE ( 'NONE', #202, 3.000000000000002665 ) ;
#49 = VERTEX_POINT ( 'NONE', #912 ) ;
#50 = LINE ( 'NONE', #341, #461 ) ;
#51 = CARTESIAN_POINT ( 'NONE',  ( 1430.919884014999980, -14.96066579499999882, 155.9638762099999951 ) ) ;
#52 = DIRECTION ( 'NONE',  ( 1.000000000000000000, 0.000000000000000000, 0.000000000000000000 ) ) ;
#53 = ORIENTED_EDGE ( 'NONE', *, *, #695, .F. ) ;
#54 = FILL_AREA_STYLE ('',( #282 ) ) ;
#55 = EDGE_CURVE ( 'NONE', #685, #415, #274, .T. ) ;
#56 = VECTOR ( 'NONE', #57, 1000.000000000000000 ) ;
#57 = DIRECTION ( 'NONE',  ( 0.000000000000000000, 1.000000000000000000, 0.000000000000000000 ) ) ;
#58 = DIRECTION ( 'NONE',  ( 0.000000000000000000, 0.000000000000000000, 1.000000000000000000 ) ) ;
#59 = EDGE_LOOP ( 'NONE', ( #383, #665, #547, #27 ) ) ;
#60 = LINE ( 'NONE', #511, #300 ) ;
#61 = DIRECTION ( 'NONE',  ( 0.000000000000000000, 1.000000000000000000, 0.000000000000000000 ) ) ;
#62 = CARTESIAN_POINT ( 'NONE',  ( 1169.794884014999980, -30.96066579500010008, 118.9638762099999809 ) ) ;
#63 = CARTESIAN_POINT ( 'NONE',  ( 883.0448840149999796, 0.03933420500000000403, 152.9638762099999951 ) ) ;
#64 = EDGE_CURVE ( 'NONE', #831, #903, #145, .T. ) ;
#65 = CARTESIAN_POINT ( 'NONE',  ( 1430.919884014999980, -46.96066579500000415, 123.9638762100000093 ) ) ;
#66 = AXIS2_PLACEMENT_3D ( 'NONE', #725, #296, #356 ) ;
#67 = PLANE ( 'NONE',  #484 ) ;
#68 = VECTOR ( 'NONE', #402, 1000.000000000000000 ) ;
#69 = EDGE_CURVE ( 'NONE', #470, #370, #118, .T. ) ;
#70 = CARTESIAN_POINT ( 'NONE',  ( 883.0448840149999796, -18.96066579500001126, 118.9638762099999809 ) ) ;
#71 = LINE ( 'NONE', #290, #392 ) ;
#72 = EDGE_LOOP ( 'NONE', ( #196, #694, #774, #823 ) ) ;
#73 = VECTOR ( 'NONE', #288, 1000.000000000000000 ) ;
#74 = EDGE_CURVE ( 'NONE', #250, #586, #201, .T. ) ;
#75 = EDGE_LOOP ( 'NONE', ( #325, #882, #184, #303 ) ) ;
#76 = LINE ( 'NONE', #62, #73 ) ;
#77 = DIRECTION ( 'NONE',  ( 0.000000000000000000, -1.000000000000000000, 0.000000000000000000 ) ) ;
#78 = VERTEX_POINT ( 'NONE', #636 ) ;
#79 = CYLINDRICAL_SURFACE ( 'NONE', #744, 6.000000000000005329 ) ;
#80 = ADVANCED_FACE ( 'NONE', ( #422 ), #708, .F. ) ;
#81 = CARTESIAN_POINT ( 'NONE',  ( 1580.919884014999980, 0.03933420500000000403, 123.9638762100000093 ) ) ;
#82 = ORIENTED_EDGE ( 'NONE', *, *, #188, .F. ) ;
#83 = CIRCLE ( 'NONE', #721, 6.000000000000005329 ) ;
#84 = DIRECTION ( 'NONE',  ( 0.000000000000000000, 0.000000000000000000, -1.000000000000000000 ) ) ;
#85 = UNCERTAINTY_MEASURE_WITH_UNIT (LENGTH_MEASURE( 1.000000000000000082E-05 ), #425, 'distance_accuracy_value', 'NONE');
#86 = CARTESIAN_POINT ( 'NONE',  ( 1169.794884014999980, -43.96066579499999705, 118.9638762099999809 ) ) ;
#87 = EDGE_CURVE ( 'NONE', #773, #244, #284, .T. ) ;
#88 = ORIENTED_EDGE ( 'NONE', *, *, #935, .F. ) ;
#89 = STYLED_ITEM ( 'NONE', ( #241 ), #816 ) ;
#90 = VERTEX_POINT ( 'NONE', #112 ) ;
#91 = CARTESIAN_POINT ( 'NONE',  ( 1169.794884014999980, -24.96066579500000771, 118.9638762099999809 ) ) ;
#92 = DIRECTION ( 'NONE',  ( 1.000000000000000000, -0.000000000000000000, -0.000000000000000000 ) ) ;
#93 = ORIENTED_EDGE ( 'NONE', *, *, #180, .T. ) ;
#94 = EDGE_CURVE ( 'NONE', #9, #890, #647, .T. ) ;
#95 = DIRECTION ( 'NONE',  ( 0.000000000000000000, -1.000000000000000000, 0.000000000000000000 ) ) ;
#96 = DIRECTION ( 'NONE',  ( 0.000000000000000000, 0.000000000000000000, -1.000000000000000000 ) ) ;
#97 = VERTEX_POINT ( 'NONE', #878 ) ;
#98 = CIRCLE ( 'NONE', #390, 6.000000000000005329 ) ;
#99 = AXIS2_PLACEMENT_3D ( 'NONE', #927, #58, #565 ) ;
#100 = EDGE_LOOP ( 'NONE', ( #267, #741, #397, #458 ) ) ;
#101 = DIRECTION ( 'NONE',  ( -0.000000000000000000, -0.000000000000000000, 1.000000000000000000 ) ) ;
#102 = CARTESIAN_POINT ( 'NONE',  ( 883.0448840149999796, -43.96066579499999705, 124.9638762100000093 ) ) ;
#103 = ORIENTED_EDGE ( 'NONE', *, *, #69, .F. ) ;
#104 = VERTEX_POINT ( 'NONE', #933 ) ;
#105 =( NAMED_UNIT ( * ) SI_UNIT ( $, .STERADIAN. ) SOLID_ANGLE_UNIT ( ) );
#106 = ADVANCED_FACE ( 'NONE', ( #516 ), #3, .T. ) ;
#107 = CARTESIAN_POINT ( 'NONE',  ( 883.0448840149999796, -43.96066579499999705, 155.9638762099999951 ) ) ;
#108 = ORIENTED_EDGE ( 'NONE', *, *, #808, .F. ) ;
#109 = ORIENTED_EDGE ( 'NONE', *, *, #868, .T. ) ;
#110 = DIRECTION ( 'NONE',  ( 1.000000000000000000, 0.000000000000000000, 0.000000000000000000 ) ) ;
#111 = CARTESIAN_POINT ( 'NONE',  ( 883.0448840149999796, -43.96066579499999705, 121.9638762100000093 ) ) ;
#112 = CARTESIAN_POINT ( 'NONE',  ( 1169.794884014999980, -30.96066579500010363, 121.9638762100000093 ) ) ;
#113 = CIRCLE ( 'NONE', #660, 6.000000000000005329 ) ;
#114 = ORIENTED_EDGE ( 'NONE', *, *, #921, .F. ) ;
#115 = DIRECTION ( 'NONE',  ( -1.000000000000000000, -0.000000000000000000, 0.000000000000000000 ) ) ;
#116 = VECTOR ( 'NONE', #507, 1000.000000000000000 ) ;
#117 = DIRECTION ( 'NONE',  ( -1.000000000000000000, 0.000000000000000000, 0.000000000000000000 ) ) ;
#118 = LINE ( 'NONE', #850, #510 ) ;
#119 = EDGE_CURVE ( 'NONE', #540, #424, #557, .T. ) ;
#120 = ORIENTED_EDGE ( 'NONE', *, *, #119, .T. ) ;
#121 = CARTESIAN_POINT ( 'NONE',  ( 883.0448840149999796, -30.96066579499998639, 158.9638762099999951 ) ) ;
#122 = AXIS2_PLACEMENT_3D ( 'NONE', #299, #893, #95 ) ;
#123 = DIRECTION ( 'NONE',  ( 0.000000000000000000, -0.000000000000000000, 1.000000000000000000 ) ) ;
#124 = CARTESIAN_POINT ( 'NONE',  ( 1169.794884014999980, -43.96066579499999705, 158.9638762099999951 ) ) ;
#125 = EDGE_CURVE ( 'NONE', #540, #685, #71, .T. ) ;
#126 = ORIENTED_EDGE ( 'NONE', *, *, #281, .T. ) ;
#127 = APPLICATION_CONTEXT ( 'automotive_design' ) ;
#128 = DIRECTION ( 'NONE',  ( -0.000000000000000000, 0.000000000000000000, -1.000000000000000000 ) ) ;
#129 = DIRECTION ( 'NONE',  ( -0.000000000000000000, -0.000000000000000000, 1.000000000000000000 ) ) ;
#130 = STYLED_ITEM ( 'NONE', ( #292 ), #715 ) ;
#131 = ORIENTED_EDGE ( 'NONE', *, *, #255, .F. ) ;
#132 = CARTESIAN_POINT ( 'NONE',  ( 1169.794884014999980, -30.96066579500010008, 118.9638762099999809 ) ) ;
#133 = DIRECTION ( 'NONE',  ( -1.000000000000000000, 0.000000000000000000, 0.000000000000000000 ) ) ;
#134 = CARTESIAN_POINT ( 'NONE',  ( 1169.794884014999980, -49.96066579499999705, 158.9638762099999951 ) ) ;
#135 =( NAMED_UNIT ( * ) PLANE_ANGLE_UNIT ( ) SI_UNIT ( $, .RADIAN. ) );
#136 = DIRECTION ( 'NONE',  ( -0.000000000000000000, 0.000000000000000000, -1.000000000000000000 ) ) ;
#137 = EDGE_CURVE ( 'NONE', #15, #244, #639, .T. ) ;
#138 = CARTESIAN_POINT ( 'NONE',  ( 1169.794884014999980, -18.96066579499991533, 118.9638762099999809 ) ) ;
#139 = APPLICATION_PROTOCOL_DEFINITION ( 'draft international standard', 'automotive_design', 1998, #127 ) ;
#140 = CARTESIAN_POINT ( 'NONE',  ( 883.0448840149999796, -49.96066579499999705, 158.9638762099999951 ) ) ;
#141 = CARTESIAN_POINT ( 'NONE',  ( 1169.794884014999980, -30.96066579500010363, 158.9638762099999951 ) ) ;
#142 = DIRECTION ( 'NONE',  ( 0.000000000000000000, -1.000000000000000000, 0.000000000000000000 ) ) ;
#143 = AXIS2_PLACEMENT_3D ( 'NONE', #806, #318, #604 ) ;
#144 = CARTESIAN_POINT ( 'NONE',  ( 1430.919884014999980, -14.96066579499999882, 121.9638762100000093 ) ) ;
#145 = CIRCLE ( 'NONE', #771, 6.000000000000005329 ) ;
#146 = ORIENTED_EDGE ( 'NONE', *, *, #926, .T. ) ;
#147 = EDGE_CURVE ( 'NONE', #14, #250, #428, .T. ) ;
#148 = CARTESIAN_POINT ( 'NONE',  ( 1430.919884014999980, -5.960665795000000600, 152.9638762099999951 ) ) ;
#149 = CARTESIAN_POINT ( 'NONE',  ( 883.0448840149999796, -24.96066579500000060, 121.9638762100000093 ) ) ;
#150 = ORIENTED_EDGE ( 'NONE', *, *, #926, .F. ) ;
#151 = AXIS2_PLACEMENT_3D ( 'NONE', #235, #533, #603 ) ;
#152 = DIRECTION ( 'NONE',  ( 0.000000000000000000, 0.000000000000000000, 1.000000000000000000 ) ) ;
#153 = DIRECTION ( 'NONE',  ( 1.000000000000000000, 0.000000000000000000, 0.000000000000000000 ) ) ;
#154 = ORIENTED_EDGE ( 'NONE', *, *, #376, .T. ) ;
#155 = DIRECTION ( 'NONE',  ( 0.000000000000000000, 0.000000000000000000, 1.000000000000000000 ) ) ;
#156 = DIRECTION ( 'NONE',  ( -0.000000000000000000, 1.000000000000000000, -0.000000000000000000 ) ) ;
#157 = AXIS2_PLACEMENT_3D ( 'NONE', #672, #519, #452 ) ;
#158 = ORIENTED_EDGE ( 'NONE', *, *, #13, .F. ) ;
#159 = ORIENTED_EDGE ( 'NONE', *, *, #317, .T. ) ;
#160 = FILL_AREA_STYLE ('',( #595 ) ) ;
#161 = ADVANCED_FACE ( 'NONE', ( #873 ), #67, .T. ) ;
#162 = CARTESIAN_POINT ( 'NONE',  ( 883.0448840149999796, -14.96066579499999882, 121.9638762100000093 ) ) ;
#163 = ORIENTED_EDGE ( 'NONE', *, *, #656, .F. ) ;
#164 = VECTOR ( 'NONE', #607, 1000.000000000000000 ) ;
#165 = ORIENTED_EDGE ( 'NONE', *, *, #137, .T. ) ;
#166 = DIRECTION ( 'NONE',  ( 0.000000000000000000, 0.000000000000000000, -1.000000000000000000 ) ) ;
#167 = DIRECTION ( 'NONE',  ( 0.000000000000000000, 0.000000000000000000, 1.000000000000000000 ) ) ;
#168 = VECTOR ( 'NONE', #566, 1000.000000000000000 ) ;
#169 = ORIENTED_EDGE ( 'NONE', *, *, #598, .T. ) ;
#170 = EDGE_LOOP ( 'NONE', ( #584, #777, #871, #525 ) ) ;
#171 = CARTESIAN_POINT ( 'NONE',  ( 1580.919884014999980, -43.96066579499999705, 152.9638762099999951 ) ) ;
#172 = CYLINDRICAL_SURFACE ( 'NONE', #157, 6.000000000000005329 ) ;
#173 = ORIENTED_EDGE ( 'NONE', *, *, #821, .F. ) ;
#174 = AXIS2_PLACEMENT_3D ( 'NONE', #920, #624, #472 ) ;
#175 = EDGE_CURVE ( 'NONE', #104, #807, #354, .T. ) ;
#176 = ORIENTED_EDGE ( 'NONE', *, *, #13, .T. ) ;
#177 = LINE ( 'NONE', #491, #866 ) ;
#178 = CARTESIAN_POINT ( 'NONE',  ( 1169.794884014999980, -5.960665795000000600, 155.9638762099999951 ) ) ;
#179 = ORIENTED_EDGE ( 'NONE', *, *, #147, .F. ) ;
#180 = EDGE_CURVE ( 'NONE', #902, #586, #677, .T. ) ;
#181 = VERTEX_POINT ( 'NONE', #362 ) ;
#182 = DIRECTION ( 'NONE',  ( 0.000000000000000000, 0.000000000000000000, -1.000000000000000000 ) ) ;
#183 = DIRECTION ( 'NONE',  ( -0.000000000000000000, 0.000000000000000000, -1.000000000000000000 ) ) ;
#184 = ORIENTED_EDGE ( 'NONE', *, *, #629, .T. ) ;
#185 = ORIENTED_EDGE ( 'NONE', *, *, #357, .F. ) ;
#186 = FACE_OUTER_BOUND ( 'NONE', #170, .T. ) ;
#187 = FACE_OUTER_BOUND ( 'NONE', #469, .T. ) ;
#188 = EDGE_CURVE ( 'NONE', #49, #485, #344, .T. ) ;
#189 = DIRECTION ( 'NONE',  ( 0.000000000000000000, 0.000000000000000000, -1.000000000000000000 ) ) ;
#190 = VECTOR ( 'NONE', #668, 1000.000000000000000 ) ;
#191 = ORIENTED_EDGE ( 'NONE', *, *, #528, .T. ) ;
#192 = DIRECTION ( 'NONE',  ( 0.000000000000000000, 0.000000000000000000, 1.000000000000000000 ) ) ;
#193 = VECTOR ( 'NONE', #574, 1000.000000000000000 ) ;
#194 = CARTESIAN_POINT ( 'NONE',  ( 883.0448840149999796, -24.96066579500000060, 118.9638762099999809 ) ) ;
#195 = PRODUCT_DEFINITION ( 'Î´', '', #658, #667 ) ;
#196 = ORIENTED_EDGE ( 'NONE', *, *, #180, .F. ) ;
#197 = ORIENTED_EDGE ( 'NONE', *, *, #348, .F. ) ;
#198 = FACE_OUTER_BOUND ( 'NONE', #749, .T. ) ;
#199 = AXIS2_PLACEMENT_3D ( 'NONE', #931, #567, #711 ) ;
#200 = CARTESIAN_POINT ( 'NONE',  ( 883.0448840149999796, -18.96066579500001126, 158.9638762099999951 ) ) ;
#201 = LINE ( 'NONE', #46, #645 ) ;
#202 = AXIS2_PLACEMENT_3D ( 'NONE', #904, #833, #182 ) ;
#203 = ORIENTED_EDGE ( 'NONE', *, *, #457, .F. ) ;
#204 = CARTESIAN_POINT ( 'NONE',  ( 883.0448840149999796, -24.96066579500000060, 158.9638762099999951 ) ) ;
#205 = VERTEX_POINT ( 'NONE', #865 ) ;
#206 = EDGE_CURVE ( 'NONE', #828, #205, #501, .T. ) ;
#207 =( LENGTH_UNIT ( ) NAMED_UNIT ( * ) SI_UNIT ( .MILLI., .METRE. ) );
#208 = AXIS2_PLACEMENT_3D ( 'NONE', #732, #810, #901 ) ;
#209 = DIRECTION ( 'NONE',  ( -0.000000000000000000, 1.000000000000000000, -0.000000000000000000 ) ) ;
#210 = CARTESIAN_POINT ( 'NONE',  ( 883.0448840149999796, -49.96066579499999705, 118.9638762099999951 ) ) ;
#211 = DIRECTION ( 'NONE',  ( -0.000000000000000000, -0.000000000000000000, 1.000000000000000000 ) ) ;
#212 = CARTESIAN_POINT ( 'NONE',  ( 883.0448840149999796, -24.96066579500000060, 158.9638762099999951 ) ) ;
#213 = PRODUCT ( 'XH-YJ38-LJ-004-A0-ï¿½ï¿½ï¿½Ì·ï¿½Í¨-ï¿½ï¿½', 'XH-YJ38-LJ-004-A0-ï¿½ï¿½ï¿½Ì·ï¿½Í¨-ï¿½ï¿½', '', ( #502 ) ) ;
#214 = AXIS2_PLACEMENT_3D ( 'NONE', #481, #768, #272 ) ;
#215 = DIRECTION ( 'NONE',  ( 0.000000000000000000, 0.000000000000000000, -1.000000000000000000 ) ) ;
#216 = EDGE_CURVE ( 'NONE', #690, #508, #859, .T. ) ;
#217 = DIRECTION ( 'NONE',  ( 0.000000000000000000, 0.000000000000000000, 1.000000000000000000 ) ) ;
#218 = ORIENTED_EDGE ( 'NONE', *, *, #598, .F. ) ;
#219 = LINE ( 'NONE', #132, #704 ) ;
#220 = DIRECTION ( 'NONE',  ( 1.000000000000000000, 0.000000000000000000, 0.000000000000000000 ) ) ;
#221 = CIRCLE ( 'NONE', #208, 6.000000000000005329 ) ;
#222 = CARTESIAN_POINT ( 'NONE',  ( 1430.919884014999980, -2.960665794999999711, 123.9638762100000093 ) ) ;
#223 = EDGE_CURVE ( 'NONE', #463, #43, #113, .T. ) ;
#224 = VERTEX_POINT ( 'NONE', #717 ) ;
#225 = ORIENTED_EDGE ( 'NONE', *, *, #759, .F. ) ;
#226 = CARTESIAN_POINT ( 'NONE',  ( 889.0448840149999796, -24.96066579500000060, 118.9638762099999809 ) ) ;
#227 = DIRECTION ( 'NONE',  ( -1.000000000000000000, 0.000000000000000000, 0.000000000000000000 ) ) ;
#228 = ORIENTED_EDGE ( 'NONE', *, *, #216, .F. ) ;
#229 = VECTOR ( 'NONE', #361, 1000.000000000000000 ) ;
#230 = ORIENTED_EDGE ( 'NONE', *, *, #759, .T. ) ;
#231 = DIRECTION ( 'NONE',  ( -1.000000000000000000, -0.000000000000000000, 0.000000000000000000 ) ) ;
#232 = FACE_OUTER_BOUND ( 'NONE', #100, .T. ) ;
#233 = VERTEX_POINT ( 'NONE', #63 ) ;
#234 = ADVANCED_FACE ( 'NONE', ( #439 ), #8, .F. ) ;
#235 = CARTESIAN_POINT ( 'NONE',  ( 1169.794884014999980, -43.96066579499999705, 124.9638762100000093 ) ) ;
#236 = DIRECTION ( 'NONE',  ( 1.000000000000000000, -0.000000000000000000, -0.000000000000000000 ) ) ;
#237 = AXIS2_PLACEMENT_3D ( 'NONE', #825, #678, #323 ) ;
#238 = ORIENTED_EDGE ( 'NONE', *, *, #87, .T. ) ;
#239 = AXIS2_PLACEMENT_3D ( 'NONE', #367, #729, #280 ) ;
#240 = ORIENTED_EDGE ( 'NONE', *, *, #528, .F. ) ;
#241 = PRESENTATION_STYLE_ASSIGNMENT (( #599 ) ) ;
#242 = EDGE_CURVE ( 'NONE', #181, #470, #423, .T. ) ;
#243 = DIRECTION ( 'NONE',  ( 0.000000000000000000, 0.000000000000000000, 1.000000000000000000 ) ) ;
#244 = VERTEX_POINT ( 'NONE', #141 ) ;
#245 = ORIENTED_EDGE ( 'NONE', *, *, #935, .T. ) ;
#246 = CARTESIAN_POINT ( 'NONE',  ( 1169.794884014999980, -49.96066579499999705, 118.9638762099999809 ) ) ;
#247 = CARTESIAN_POINT ( 'NONE',  ( 883.0448840149999796, 0.03933420499999812359, 124.9638762100000093 ) ) ;
#248 = ADVANCED_FACE ( 'NONE', ( #435 ), #583, .T. ) ;
#249 = AXIS2_PLACEMENT_3D ( 'NONE', #28, #486, #775 ) ;
#250 = VERTEX_POINT ( 'NONE', #657 ) ;
#251 = ORIENTED_EDGE ( 'NONE', *, *, #137, .F. ) ;
#252 = CYLINDRICAL_SURFACE ( 'NONE', #249, 2.000000000000001776 ) ;
#253 = CARTESIAN_POINT ( 'NONE',  ( 1169.794884014999980, -14.96066579499999882, 155.9638762099999951 ) ) ;
#254 = ORIENTED_EDGE ( 'NONE', *, *, #464, .F. ) ;
#255 = EDGE_CURVE ( 'NONE', #97, #104, #787, .T. ) ;
#256 = AXIS2_PLACEMENT_3D ( 'NONE', #212, #217, #860 ) ;
#257 = ORIENTED_EDGE ( 'NONE', *, *, #431, .T. ) ;
#258 = FACE_OUTER_BOUND ( 'NONE', #817, .T. ) ;
#259 = CARTESIAN_POINT ( 'NONE',  ( 883.0448840149999796, -2.960665795000000156, 152.9638762099999951 ) ) ;
#260 = CARTESIAN_POINT ( 'NONE',  ( 1169.794884014999980, -24.96066579500000771, 155.9638762099999951 ) ) ;
#261 = EDGE_CURVE ( 'NONE', #419, #826, #596, .T. ) ;
#262 = ORIENTED_EDGE ( 'NONE', *, *, #281, .F. ) ;
#263 = CARTESIAN_POINT ( 'NONE',  ( 1576.919884014999980, -49.96066579499999705, 152.9638762099999951 ) ) ;
#264 = PRODUCT_DEFINITION_SHAPE ( 'NONE', 'NONE',  #195 ) ;
#265 = CARTESIAN_POINT ( 'NONE',  ( 889.0448840149999796, -24.96066579500000060, 121.9638762100000093 ) ) ;
#266 = EDGE_LOOP ( 'NONE', ( #302, #407, #465, #710, #319, #82, #669, #440, #409 ) ) ;
#267 = ORIENTED_EDGE ( 'NONE', *, *, #357, .T. ) ;
#268 = CARTESIAN_POINT ( 'NONE',  ( 883.0448840149999796, -24.96066579500000060, 121.9638762100000093 ) ) ;
#269 = DIRECTION ( 'NONE',  ( 1.000000000000000000, 0.000000000000000000, 0.000000000000000000 ) ) ;
#270 = ORIENTED_EDGE ( 'NONE', *, *, #582, .F. ) ;
#271 = ORIENTED_EDGE ( 'NONE', *, *, #307, .F. ) ;
#272 = DIRECTION ( 'NONE',  ( 0.000000000000000000, 0.000000000000000000, -1.000000000000000000 ) ) ;
#273 = CARTESIAN_POINT ( 'NONE',  ( 1576.919884014999980, -43.96066579499999705, 118.9638762099999951 ) ) ;
#274 = LINE ( 'NONE', #615, #861 ) ;
#275 = ORIENTED_EDGE ( 'NONE', *, *, #852, .T. ) ;
#276 = VECTOR ( 'NONE', #854, 1000.000000000000000 ) ;
#277 = LINE ( 'NONE', #365, #229 ) ;
#278 = VERTEX_POINT ( 'NONE', #86 ) ;
#279 = EDGE_CURVE ( 'NONE', #97, #224, #21, .T. ) ;
#280 = DIRECTION ( 'NONE',  ( 0.000000000000000000, 0.000000000000000000, 1.000000000000000000 ) ) ;
#281 = EDGE_CURVE ( 'NONE', #648, #532, #593, .T. ) ;
#282 = FILL_AREA_STYLE_COLOUR ( '', #448 ) ;
#283 = VECTOR ( 'NONE', #243, 1000.000000000000000 ) ;
#284 = CIRCLE ( 'NONE', #934, 6.000000000000005329 ) ;
#285 = FACE_OUTER_BOUND ( 'NONE', #634, .T. ) ;
#286 = DIRECTION ( 'NONE',  ( 0.000000000000000000, 0.000000000000000000, -1.000000000000000000 ) ) ;
#287 = ADVANCED_FACE ( 'NONE', ( #745 ), #683, .F. ) ;
#288 = DIRECTION ( 'NONE',  ( 0.000000000000000000, 0.000000000000000000, -1.000000000000000000 ) ) ;
#289 = AXIS2_PLACEMENT_3D ( 'NONE', #20, #152, #675 ) ;
#290 = CARTESIAN_POINT ( 'NONE',  ( 883.0448840149999796, -2.960665794999999711, 123.9638762100000093 ) ) ;
#291 = ORIENTED_EDGE ( 'NONE', *, *, #746, .T. ) ;
#292 = PRESENTATION_STYLE_ASSIGNMENT (( #940 ) ) ;
#293 = VECTOR ( 'NONE', #857, 1000.000000000000000 ) ;
#294 = CARTESIAN_POINT ( 'NONE',  ( 1169.794884014999980, -14.96066579499999882, 155.9638762099999951 ) ) ;
#295 = ADVANCED_FACE ( 'NONE', ( #751 ), #467, .F. ) ;
#296 = DIRECTION ( 'NONE',  ( 1.000000000000000000, 0.000000000000000000, 0.000000000000000000 ) ) ;
#297 = ORIENTED_EDGE ( 'NONE', *, *, #393, .T. ) ;
#298 = ORIENTED_EDGE ( 'NONE', *, *, #739, .F. ) ;
#299 = CARTESIAN_POINT ( 'NONE',  ( 1580.919884014999980, -14.96066579499999882, 158.9638762099999951 ) ) ;
#300 = VECTOR ( 'NONE', #352, 1000.000000000000000 ) ;
#301 = DIRECTION ( 'NONE',  ( -0.000000000000000000, 1.000000000000000000, -0.000000000000000000 ) ) ;
#302 = ORIENTED_EDGE ( 'NONE', *, *, #792, .F. ) ;
#303 = ORIENTED_EDGE ( 'NONE', *, *, #413, .T. ) ;
#304 = DIRECTION ( 'NONE',  ( 1.000000000000000000, 0.000000000000000000, 0.000000000000000000 ) ) ;
#305 = DIRECTION ( 'NONE',  ( -1.000000000000000000, -0.000000000000000000, 0.000000000000000000 ) ) ;
#306 = ORIENTED_EDGE ( 'NONE', *, *, #589, .T. ) ;
#307 = EDGE_CURVE ( 'NONE', #586, #742, #12, .T. ) ;
#308 = CARTESIAN_POINT ( 'NONE',  ( 883.0448840149999796, -5.960665795000013922, 118.9638762099999951 ) ) ;
#309 = CYLINDRICAL_SURFACE ( 'NONE', #735, 6.000000000000005329 ) ;
#310 = ORIENTED_EDGE ( 'NONE', *, *, #457, .T. ) ;
#311 = EDGE_CURVE ( 'NONE', #807, #902, #408, .T. ) ;
#312 = CARTESIAN_POINT ( 'NONE',  ( 1169.794884014999980, -43.96066579499999705, 152.9638762099999951 ) ) ;
#313 = DIRECTION ( 'NONE',  ( 1.000000000000000000, 0.000000000000000000, 0.000000000000000000 ) ) ;
#314 = AXIS2_PLACEMENT_3D ( 'NONE', #65, #430, #133 ) ;
#315 = ORIENTED_EDGE ( 'NONE', *, *, #554, .T. ) ;
#316 = CARTESIAN_POINT ( 'NONE',  ( 883.0448840149999796, -2.960665794999999711, 123.9638762100000093 ) ) ;
#317 = EDGE_CURVE ( 'NONE', #233, #532, #221, .T. ) ;
#318 = DIRECTION ( 'NONE',  ( 1.000000000000000000, -0.000000000000000000, -0.000000000000000000 ) ) ;
#319 = ORIENTED_EDGE ( 'NONE', *, *, #838, .F. ) ;
#320 = CIRCLE ( 'NONE', #151, 3.000000000000002665 ) ;
#321 = ORIENTED_EDGE ( 'NONE', *, *, #317, .F. ) ;
#322 = CARTESIAN_POINT ( 'NONE',  ( 1169.794884014999980, -18.96066579499991178, 155.9638762099999951 ) ) ;
#323 = DIRECTION ( 'NONE',  ( 1.000000000000000000, 0.000000000000000000, 0.000000000000000000 ) ) ;
#324 = EDGE_LOOP ( 'NONE', ( #701, #154, #686, #403 ) ) ;
#325 = ORIENTED_EDGE ( 'NONE', *, *, #261, .T. ) ;
#326 = DIRECTION ( 'NONE',  ( 1.000000000000000000, 0.000000000000000000, 0.000000000000000000 ) ) ;
#327 = PLANE ( 'NONE',  #522 ) ;
#328 = ORIENTED_EDGE ( 'NONE', *, *, #894, .T. ) ;
#329 = VECTOR ( 'NONE', #123, 1000.000000000000000 ) ;
#330 = AXIS2_PLACEMENT_3D ( 'NONE', #455, #92, #925 ) ;
#331 = ORIENTED_EDGE ( 'NONE', *, *, #621, .F. ) ;
#332 = FACE_OUTER_BOUND ( 'NONE', #373, .T. ) ;
#333 = CARTESIAN_POINT ( 'NONE',  ( 883.0448840149999796, -4.960665795000000600, 121.9638762100000093 ) ) ;
#334 = EDGE_CURVE ( 'NONE', #49, #470, #385, .T. ) ;
#335 = ORIENTED_EDGE ( 'NONE', *, *, #55, .T. ) ;
#336 = CYLINDRICAL_SURFACE ( 'NONE', #748, 6.000000000000005329 ) ;
#337 = CARTESIAN_POINT ( 'NONE',  ( 1169.794884014999980, -49.96066579499999705, 118.9638762099999809 ) ) ;
#338 = ORIENTED_EDGE ( 'NONE', *, *, #783, .F. ) ;
#339 = CIRCLE ( 'NONE', #869, 6.000000000000005329 ) ;
#340 = ORIENTED_EDGE ( 'NONE', *, *, #554, .F. ) ;
#341 = CARTESIAN_POINT ( 'NONE',  ( 475.9198840150000365, -5.960665795000000600, 155.9638762099999951 ) ) ;
#342 = DIRECTION ( 'NONE',  ( -1.000000000000000000, 0.000000000000000000, 0.000000000000000000 ) ) ;
#343 = DIRECTION ( 'NONE',  ( -1.000000000000000000, 0.000000000000000000, 0.000000000000000000 ) ) ;
#344 = CIRCLE ( 'NONE', #919, 6.000000000000005329 ) ;
#345 = ORIENTED_EDGE ( 'NONE', *, *, #589, .F. ) ;
#346 = CARTESIAN_POINT ( 'NONE',  ( 883.0448840149999796, -14.96066579499999882, 155.9638762099999951 ) ) ;
#347 = CARTESIAN_POINT ( 'NONE',  ( 1169.794884014999980, -2.960665794999999711, 123.9638762100000093 ) ) ;
#348 = EDGE_CURVE ( 'NONE', #742, #379, #570, .T. ) ;
#349 = ORIENTED_EDGE ( 'NONE', *, *, #55, .F. ) ;
#350 = ORIENTED_EDGE ( 'NONE', *, *, #348, .T. ) ;
#351 = VECTOR ( 'NONE', #380, 1000.000000000000000 ) ;
#352 = DIRECTION ( 'NONE',  ( -0.000000000000000000, 1.000000000000000000, -0.000000000000000000 ) ) ;
#353 = EDGE_CURVE ( 'NONE', #459, #903, #895, .T. ) ;
#354 = LINE ( 'NONE', #210, #193 ) ;
#355 = DIRECTION ( 'NONE',  ( 1.000000000000000000, 0.000000000000000000, 0.000000000000000000 ) ) ;
#356 = DIRECTION ( 'NONE',  ( 0.000000000000000000, 0.000000000000000000, -1.000000000000000000 ) ) ;
#357 = EDGE_CURVE ( 'NONE', #610, #463, #83, .T. ) ;
#358 = CARTESIAN_POINT ( 'NONE',  ( 0.000000000000000000, 0.000000000000000000, 0.000000000000000000 ) ) ;
#359 = VECTOR ( 'NONE', #269, 1000.000000000000000 ) ;
#360 = VECTOR ( 'NONE', #301, 1000.000000000000000 ) ;
#361 = DIRECTION ( 'NONE',  ( -0.000000000000000000, 1.000000000000000000, -0.000000000000000000 ) ) ;
#362 = CARTESIAN_POINT ( 'NONE',  ( 883.0448840149999796, -46.96066579500000415, 124.9638762100000093 ) ) ;
#363 = ADVANCED_FACE ( 'NONE', ( #757 ), #309, .T. ) ;
#364 = DIRECTION ( 'NONE',  ( 0.000000000000000000, 0.000000000000000000, -1.000000000000000000 ) ) ;
#365 = CARTESIAN_POINT ( 'NONE',  ( 1169.794884014999980, -49.96066579499999705, 158.9638762099999951 ) ) ;
#366 = AXIS2_PLACEMENT_3D ( 'NONE', #466, #231, #662 ) ;
#367 = CARTESIAN_POINT ( 'NONE',  ( 883.0448840149999796, -5.960665795000000600, 152.9638762099999951 ) ) ;
#368 = EDGE_LOOP ( 'NONE', ( #876, #726, #306, #32 ) ) ;
#369 = VECTOR ( 'NONE', #915, 1000.000000000000000 ) ;
#370 = VERTEX_POINT ( 'NONE', #389 ) ;
#371 = LINE ( 'NONE', #872, #414 ) ;
#372 = DIRECTION ( 'NONE',  ( -1.000000000000000000, 0.000000000000000000, 0.000000000000000000 ) ) ;
#373 = EDGE_LOOP ( 'NONE', ( #150, #251, #760, #291, #550, #914, #218, #535, #908, #847, #31, #270 ) ) ;
#374 = CARTESIAN_POINT ( 'NONE',  ( 1169.794884014999980, -49.96066579499999705, 118.9638762099999809 ) ) ;
#375 = AXIS2_PLACEMENT_3D ( 'NONE', #102, #236, #529 ) ;
#376 = EDGE_CURVE ( 'NONE', #278, #558, #509, .T. ) ;
#377 = DIRECTION ( 'NONE',  ( -1.000000000000000000, 0.000000000000000000, 0.000000000000000000 ) ) ;
#378 = ORIENTED_EDGE ( 'NONE', *, *, #513, .T. ) ;
#379 = VERTEX_POINT ( 'NONE', #247 ) ;
#380 = DIRECTION ( 'NONE',  ( -0.000000000000000000, 1.000000000000000000, 0.000000000000000000 ) ) ;
#381 = CARTESIAN_POINT ( 'NONE',  ( 1576.919884014999980, -43.96066579499999705, 155.9638762099999951 ) ) ;
#382 = AXIS2_PLACEMENT_3D ( 'NONE', #887, #587, #6 ) ;
#383 = ORIENTED_EDGE ( 'NONE', *, *, #852, .F. ) ;
#384 = SURFACE_STYLE_FILL_AREA ( #160 ) ;
#385 = LINE ( 'NONE', #162, #499 ) ;
#386 = EDGE_LOOP ( 'NONE', ( #874, #898, #321, #158, #197, #271, #803, #179, #310, #885, #120, #612 ) ) ;
#387 = ADVANCED_FACE ( 'NONE', ( #232 ), #172, .F. ) ;
#388 = DIRECTION ( 'NONE',  ( 1.000000000000000000, -0.000000000000000000, -0.000000000000000000 ) ) ;
#389 = CARTESIAN_POINT ( 'NONE',  ( 1169.794884014999980, -43.96066579499999705, 121.9638762100000093 ) ) ;
#390 = AXIS2_PLACEMENT_3D ( 'NONE', #204, #438, #506 ) ;
#391 = ORIENTED_EDGE ( 'NONE', *, *, #406, .T. ) ;
#392 = VECTOR ( 'NONE', #286, 1000.000000000000000 ) ;
#393 = EDGE_CURVE ( 'NONE', #832, #498, #740, .T. ) ;
#394 = ORIENTED_EDGE ( 'NONE', *, *, #656, .T. ) ;
#395 = CARTESIAN_POINT ( 'NONE',  ( 1169.794884014999980, -18.96066579499991178, 158.9638762099999951 ) ) ;
#396 = CARTESIAN_POINT ( 'NONE',  ( 1576.919884014999980, -5.960665795000000600, 158.9638762099999951 ) ) ;
#397 = ORIENTED_EDGE ( 'NONE', *, *, #216, .T. ) ;
#398 = AXIS2_PLACEMENT_3D ( 'NONE', #877, #388, #805 ) ;
#399 = ORIENTED_EDGE ( 'NONE', *, *, #279, .F. ) ;
#400 = CYLINDRICAL_SURFACE ( 'NONE', #781, 6.000000000000005329 ) ;
#401 = DIRECTION ( 'NONE',  ( 1.000000000000000000, 0.000000000000000000, 0.000000000000000000 ) ) ;
#402 = DIRECTION ( 'NONE',  ( 0.000000000000000000, 0.000000000000000000, 1.000000000000000000 ) ) ;
#403 = ORIENTED_EDGE ( 'NONE', *, *, #255, .T. ) ;
#404 = DIRECTION ( 'NONE',  ( 1.000000000000000000, 0.000000000000000000, 0.000000000000000000 ) ) ;
#405 = CARTESIAN_POINT ( 'NONE',  ( 1169.794884014999980, -4.960665795000000600, 121.9638762100000093 ) ) ;
#406 = EDGE_CURVE ( 'NONE', #498, #419, #468, .T. ) ;
#407 = ORIENTED_EDGE ( 'NONE', *, *, #808, .T. ) ;
#408 = CIRCLE ( 'NONE', #237, 6.000000000000005329 ) ;
#409 = ORIENTED_EDGE ( 'NONE', *, *, #576, .T. ) ;
#410 = DIRECTION ( 'NONE',  ( 0.000000000000000000, 0.000000000000000000, 1.000000000000000000 ) ) ;
#411 = CARTESIAN_POINT ( 'NONE',  ( 1169.794884014999980, -49.96066579499999705, 152.9638762099999951 ) ) ;
#412 = LINE ( 'NONE', #619, #437 ) ;
#413 = EDGE_CURVE ( 'NONE', #181, #419, #544, .T. ) ;
#414 = VECTOR ( 'NONE', #716, 1000.000000000000000 ) ;
#415 = VERTEX_POINT ( 'NONE', #347 ) ;
#416 = CARTESIAN_POINT ( 'NONE',  ( 883.0448840149999796, -46.96066579500000415, 123.9638762100000093 ) ) ;
#417 = CARTESIAN_POINT ( 'NONE',  ( 889.0448840149999796, -24.96066579500000060, 118.9638762099999809 ) ) ;
#418 = EDGE_CURVE ( 'NONE', #43, #890, #482, .T. ) ;
#419 = VERTEX_POINT ( 'NONE', #45 ) ;
#420 = LINE ( 'NONE', #496, #293 ) ;
#421 = FACE_OUTER_BOUND ( 'NONE', #37, .T. ) ;
#422 = FACE_OUTER_BOUND ( 'NONE', #473, .T. ) ;
#423 = CIRCLE ( 'NONE', #692, 2.999999999999988898 ) ;
#424 = VERTEX_POINT ( 'NONE', #538 ) ;
#425 =( LENGTH_UNIT ( ) NAMED_UNIT ( * ) SI_UNIT ( .MILLI., .METRE. ) );
#426 = EDGE_CURVE ( 'NONE', #610, #424, #560, .T. ) ;
#427 = CARTESIAN_POINT ( 'NONE',  ( 883.0448840149999796, -24.96066579500000060, 118.9638762099999809 ) ) ;
#428 = LINE ( 'NONE', #579, #892 ) ;
#429 =( NAMED_UNIT ( * ) SI_UNIT ( $, .STERADIAN. ) SOLID_ANGLE_UNIT ( ) );
#430 = DIRECTION ( 'NONE',  ( 0.000000000000000000, 1.000000000000000000, 0.000000000000000000 ) ) ;
#431 = EDGE_CURVE ( 'NONE', #278, #104, #839, .T. ) ;
#432 = DIRECTION ( 'NONE',  ( 0.000000000000000000, 0.000000000000000000, -1.000000000000000000 ) ) ;
#433 = SHAPE_DEFINITION_REPRESENTATION ( #264, #715 ) ;
#434 = DIRECTION ( 'NONE',  ( 1.000000000000000000, 0.000000000000000000, 0.000000000000000000 ) ) ;
#435 = FACE_OUTER_BOUND ( 'NONE', #747, .T. ) ;
#436 = ADVANCED_FACE ( 'NONE', ( #332 ), #693, .T. ) ;
#437 = VECTOR ( 'NONE', #840, 1000.000000000000000 ) ;
#438 = DIRECTION ( 'NONE',  ( 0.000000000000000000, 0.000000000000000000, 1.000000000000000000 ) ) ;
#439 = FACE_OUTER_BOUND ( 'NONE', #661, .T. ) ;
#440 = ORIENTED_EDGE ( 'NONE', *, *, #69, .T. ) ;
#441 = PLANE ( 'NONE',  #314 ) ;
#442 = VECTOR ( 'NONE', #801, 1000.000000000000000 ) ;
#443 = DIRECTION ( 'NONE',  ( 0.000000000000000000, 0.000000000000000000, 1.000000000000000000 ) ) ;
#444 = ORIENTED_EDGE ( 'NONE', *, *, #94, .F. ) ;
#445 = FACE_OUTER_BOUND ( 'NONE', #767, .T. ) ;
#446 = DIRECTION ( 'NONE',  ( 0.000000000000000000, -1.000000000000000000, 0.000000000000000000 ) ) ;
#447 = ORIENTED_EDGE ( 'NONE', *, *, #561, .T. ) ;
#448 = COLOUR_RGB ( '',0.6509803921568627638, 0.6196078431372549211, 0.5882352941176470784 ) ;
#449 = CYLINDRICAL_SURFACE ( 'NONE', #804, 6.000000000000005329 ) ;
#450 = UNCERTAINTY_MEASURE_WITH_UNIT (LENGTH_MEASURE( 1.000000000000000082E-05 ), #207, 'distance_accuracy_value', 'NONE');
#451 = CIRCLE ( 'NONE', #756, 1.999999999999988010 ) ;
#452 = DIRECTION ( 'NONE',  ( 1.000000000000000000, 0.000000000000000000, 0.000000000000000000 ) ) ;
#453 = VERTEX_POINT ( 'NONE', #411 ) ;
#454 = PLANE ( 'NONE',  #122 ) ;
#455 = CARTESIAN_POINT ( 'NONE',  ( 883.0448840149999796, -43.96066579499999705, 152.9638762099999951 ) ) ;
#456 = VECTOR ( 'NONE', #514, 1000.000000000000000 ) ;
#457 = EDGE_CURVE ( 'NONE', #14, #685, #451, .T. ) ;
#458 = ORIENTED_EDGE ( 'NONE', *, *, #609, .T. ) ;
#459 = VERTEX_POINT ( 'NONE', #178 ) ;
#460 = DIRECTION ( 'NONE',  ( -0.000000000000000000, -0.000000000000000000, -1.000000000000000000 ) ) ;
#461 = VECTOR ( 'NONE', #628, 1000.000000000000000 ) ;
#462 = CARTESIAN_POINT ( 'NONE',  ( 883.0448840149999796, -24.96066579500000060, 155.9638762099999951 ) ) ;
#463 = VERTEX_POINT ( 'NONE', #618 ) ;
#464 = EDGE_CURVE ( 'NONE', #9, #15, #776, .T. ) ;
#465 = ORIENTED_EDGE ( 'NONE', *, *, #7, .T. ) ;
#466 = CARTESIAN_POINT ( 'NONE',  ( 1169.794884014999980, -5.960665795000000600, 124.9638762100000093 ) ) ;
#467 = PLANE ( 'NONE',  #10 ) ;
#468 = CIRCLE ( 'NONE', #330, 3.000000000000002665 ) ;
#469 = EDGE_LOOP ( 'NONE', ( #836, #622, #673, #173, #298, #331, #616, #563, #275, #606, #394, #108 ) ) ;
#470 = VERTEX_POINT ( 'NONE', #111 ) ;
#471 =( NAMED_UNIT ( * ) PLANE_ANGLE_UNIT ( ) SI_UNIT ( $, .RADIAN. ) );
#472 = DIRECTION ( 'NONE',  ( 0.000000000000000000, 0.000000000000000000, -1.000000000000000000 ) ) ;
#473 = EDGE_LOOP ( 'NONE', ( #659, #758, #53, #257, #815, #594, #93, #526, #191 ) ) ;
#474 = AXIS2_PLACEMENT_3D ( 'NONE', #148, #355, #215 ) ;
#475 = ORIENTED_EDGE ( 'NONE', *, *, #125, .T. ) ;
#476 = LINE ( 'NONE', #346, #168 ) ;
#477 = ADVANCED_FACE ( 'NONE', ( #421 ), #849, .T. ) ;
#478 = FACE_OUTER_BOUND ( 'NONE', #368, .T. ) ;
#479 = DIRECTION ( 'NONE',  ( 1.000000000000000000, 0.000000000000000000, 0.000000000000000000 ) ) ;
#480 = VERTEX_POINT ( 'NONE', #911 ) ;
#481 = CARTESIAN_POINT ( 'NONE',  ( 1430.919884014999980, -43.96066579499999705, 152.9638762099999951 ) ) ;
#482 = LINE ( 'NONE', #41, #539 ) ;
#483 = DIRECTION ( 'NONE',  ( 0.000000000000000000, 0.000000000000000000, -1.000000000000000000 ) ) ;
#484 = AXIS2_PLACEMENT_3D ( 'NONE', #144, #796, #61 ) ;
#485 = VERTEX_POINT ( 'NONE', #265 ) ;
#486 = DIRECTION ( 'NONE',  ( 1.000000000000000000, 0.000000000000000000, 0.000000000000000000 ) ) ;
#487 = DIRECTION ( 'NONE',  ( -0.000000000000000000, -0.000000000000000000, 1.000000000000000000 ) ) ;
#488 = CYLINDRICAL_SURFACE ( 'NONE', #922, 6.000000000000005329 ) ;
#489 = ADVANCED_FACE ( 'NONE', ( #688 ), #697, .F. ) ;
#490 = VECTOR ( 'NONE', #209, 1000.000000000000000 ) ;
#491 = CARTESIAN_POINT ( 'NONE',  ( 1169.794884014999980, 0.03933420500000000403, 118.9638762099999809 ) ) ;
#492 = DIRECTION ( 'NONE',  ( -1.000000000000000000, 0.000000000000000000, 0.000000000000000000 ) ) ;
#493 = DIRECTION ( 'NONE',  ( 1.000000000000000000, 0.000000000000000000, 0.000000000000000000 ) ) ;
#494 =( GEOMETRIC_REPRESENTATION_CONTEXT ( 3 ) GLOBAL_UNCERTAINTY_ASSIGNED_CONTEXT ( ( #450 ) ) GLOBAL_UNIT_ASSIGNED_CONTEXT ( ( #207, #718, #794 ) ) REPRESENTATION_CONTEXT ( 'NONE', 'WORKASPACE' ) );
#495 = VERTEX_POINT ( 'NONE', #761 ) ;
#496 = CARTESIAN_POINT ( 'NONE',  ( 475.9198840150000365, 0.03933420499999990688, 152.9638762099999951 ) ) ;
#497 = CARTESIAN_POINT ( 'NONE',  ( 1169.794884014999980, -46.96066579500000415, 123.9638762100000093 ) ) ;
#498 = VERTEX_POINT ( 'NONE', #107 ) ;
#499 = VECTOR ( 'NONE', #446, 1000.000000000000000 ) ;
#500 = FACE_OUTER_BOUND ( 'NONE', #841, .T. ) ;
#501 = LINE ( 'NONE', #138, #38 ) ;
#502 = PRODUCT_CONTEXT ( 'NONE', #26, 'mechanical' ) ;
#503 = AXIS2_PLACEMENT_3D ( 'NONE', #788, #824, #155 ) ;
#504 = LINE ( 'NONE', #140, #490 ) ;
#505 = CARTESIAN_POINT ( 'NONE',  ( 883.0448840149999796, -43.96066579499999705, 124.9638762100000093 ) ) ;
#506 = DIRECTION ( 'NONE',  ( 1.000000000000000000, 0.000000000000000000, 0.000000000000000000 ) ) ;
#507 = DIRECTION ( 'NONE',  ( -0.000000000000000000, 1.000000000000000000, -0.000000000000000000 ) ) ;
#508 = VERTEX_POINT ( 'NONE', #200 ) ;
#509 = CIRCLE ( 'NONE', #632, 6.000000000000005329 ) ;
#510 = VECTOR ( 'NONE', #698, 1000.000000000000000 ) ;
#511 = CARTESIAN_POINT ( 'NONE',  ( 1169.794884014999980, -49.96066579499999705, 118.9638762099999809 ) ) ;
#512 = DIRECTION ( 'NONE',  ( 0.000000000000000000, -1.000000000000000000, 0.000000000000000000 ) ) ;
#513 = EDGE_CURVE ( 'NONE', #495, #540, #916, .T. ) ;
#514 = DIRECTION ( 'NONE',  ( -0.000000000000000000, 1.000000000000000000, -0.000000000000000000 ) ) ;
#515 = PRESENTATION_LAYER_ASSIGNMENT (  '', '', ( #89 ) ) ;
#516 = FACE_OUTER_BOUND ( 'NONE', #386, .T. ) ;
#517 = VERTEX_POINT ( 'NONE', #405 ) ;
#518 = DIRECTION ( 'NONE',  ( -1.000000000000000000, 0.000000000000000000, 0.000000000000000000 ) ) ;
#519 = DIRECTION ( 'NONE',  ( -0.000000000000000000, -0.000000000000000000, 1.000000000000000000 ) ) ;
#520 = ORIENTED_EDGE ( 'NONE', *, *, #279, .T. ) ;
#521 = CARTESIAN_POINT ( 'NONE',  ( 1576.919884014999980, 0.03933420499999990688, 124.9638762100000093 ) ) ;
#522 = AXIS2_PLACEMENT_3D ( 'NONE', #614, #780, #128 ) ;
#523 = ADVANCED_FACE ( 'NONE', ( #187 ), #327, .T. ) ;
#524 = DIRECTION ( 'NONE',  ( -1.000000000000000000, 0.000000000000000000, 0.000000000000000000 ) ) ;
#525 = ORIENTED_EDGE ( 'NONE', *, *, #393, .F. ) ;
#526 = ORIENTED_EDGE ( 'NONE', *, *, #307, .T. ) ;
#527 = LINE ( 'NONE', #521, #530 ) ;
#528 = EDGE_CURVE ( 'NONE', #742, #626, #834, .T. ) ;
#529 = DIRECTION ( 'NONE',  ( 0.000000000000000000, 0.000000000000000000, 1.000000000000000000 ) ) ;
#530 = VECTOR ( 'NONE', #518, 1000.000000000000000 ) ;
#531 = ORIENTED_EDGE ( 'NONE', *, *, #64, .T. ) ;
#532 = VERTEX_POINT ( 'NONE', #553 ) ;
#533 = DIRECTION ( 'NONE',  ( -1.000000000000000000, -0.000000000000000000, 0.000000000000000000 ) ) ;
#534 = DIRECTION ( 'NONE',  ( 0.000000000000000000, -1.000000000000000000, 0.000000000000000000 ) ) ;
#535 = ORIENTED_EDGE ( 'NONE', *, *, #576, .F. ) ;
#536 = ORIENTED_EDGE ( 'NONE', *, *, #827, .T. ) ;
#537 = CARTESIAN_POINT ( 'NONE',  ( 889.0448840149999796, -24.96066579500000060, 118.9638762099999809 ) ) ;
#538 = CARTESIAN_POINT ( 'NONE',  ( 883.0448840149999796, -5.960665795000000600, 155.9638762099999951 ) ) ;
#539 = VECTOR ( 'NONE', #765, 1000.000000000000000 ) ;
#540 = VERTEX_POINT ( 'NONE', #259 ) ;
#541 = ADVANCED_FACE ( 'NONE', ( #478 ), #844, .F. ) ;
#542 = ORIENTED_EDGE ( 'NONE', *, *, #880, .F. ) ;
#543 = CARTESIAN_POINT ( 'NONE',  ( 1169.794884014999980, -43.96066579499999705, 155.9638762099999951 ) ) ;
#544 = LINE ( 'NONE', #416, #329 ) ;
#545 = CARTESIAN_POINT ( 'NONE',  ( 1169.794884014999980, -24.96066579500000771, 158.9638762099999951 ) ) ;
#546 = ADVANCED_FACE ( 'NONE', ( #581 ), #441, .T. ) ;
#547 = ORIENTED_EDGE ( 'NONE', *, *, #119, .F. ) ;
#548 = CYLINDRICAL_SURFACE ( 'NONE', #214, 3.000000000000002665 ) ;
#549 = CARTESIAN_POINT ( 'NONE',  ( 883.0448840149999796, -14.96066579499999882, 155.9638762099999951 ) ) ;
#550 = ORIENTED_EDGE ( 'NONE', *, *, #376, .F. ) ;
#551 = ORIENTED_EDGE ( 'NONE', *, *, #223, .F. ) ;
#552 = CARTESIAN_POINT ( 'NONE',  ( 883.0448840149999796, -24.96066579500000060, 118.9638762099999809 ) ) ;
#553 = CARTESIAN_POINT ( 'NONE',  ( 883.0448840149999796, -5.960665795000000600, 158.9638762099999951 ) ) ;
#554 = EDGE_CURVE ( 'NONE', #890, #690, #98, .T. ) ;
#555 = CARTESIAN_POINT ( 'NONE',  ( 1169.794884014999980, 0.03933420499999812359, 124.9638762100000093 ) ) ;
#556 = AXIS2_PLACEMENT_3D ( 'NONE', #194, #487, #434 ) ;
#557 = CIRCLE ( 'NONE', #239, 3.000000000000002665 ) ;
#558 = VERTEX_POINT ( 'NONE', #795 ) ;
#559 = CARTESIAN_POINT ( 'NONE',  ( 1169.794884014999980, -5.960665795000000600, 152.9638762099999951 ) ) ;
#560 = LINE ( 'NONE', #549, #56 ) ;
#561 = EDGE_CURVE ( 'NONE', #903, #773, #791, .T. ) ;
#562 = FACE_OUTER_BOUND ( 'NONE', #763, .T. ) ;
#563 = ORIENTED_EDGE ( 'NONE', *, *, #353, .F. ) ;
#564 = CYLINDRICAL_SURFACE ( 'NONE', #474, 3.000000000000002665 ) ;
#565 = DIRECTION ( 'NONE',  ( 1.000000000000000000, 0.000000000000000000, 0.000000000000000000 ) ) ;
#566 = DIRECTION ( 'NONE',  ( 0.000000000000000000, 1.000000000000000000, 0.000000000000000000 ) ) ;
#567 = DIRECTION ( 'NONE',  ( -1.000000000000000000, -0.000000000000000000, 0.000000000000000000 ) ) ;
#568 = PRESENTATION_LAYER_ASSIGNMENT (  '', '', ( #130 ) ) ;
#569 = DIRECTION ( 'NONE',  ( 1.000000000000000000, 0.000000000000000000, 0.000000000000000000 ) ) ;
#570 = CIRCLE ( 'NONE', #143, 5.999999999999991118 ) ;
#571 = VECTOR ( 'NONE', #129, 1000.000000000000000 ) ;
#572 = EDGE_CURVE ( 'NONE', #828, #626, #60, .T. ) ;
#573 = DIRECTION ( 'NONE',  ( -0.000000000000000000, -0.000000000000000000, 1.000000000000000000 ) ) ;
#574 = DIRECTION ( 'NONE',  ( -0.000000000000000000, 1.000000000000000000, -0.000000000000000000 ) ) ;
#575 = DIRECTION ( 'NONE',  ( 1.000000000000000000, 0.000000000000000000, 0.000000000000000000 ) ) ;
#576 = EDGE_CURVE ( 'NONE', #370, #90, #578, .T. ) ;
#577 = CIRCLE ( 'NONE', #699, 6.000000000000005329 ) ;
#578 = LINE ( 'NONE', #728, #829 ) ;
#579 = CARTESIAN_POINT ( 'NONE',  ( 883.0448840149999796, -14.96066579499999882, 121.9638762100000093 ) ) ;
#580 = EDGE_LOOP ( 'NONE', ( #754, #784, #169, #542 ) ) ;
#581 = FACE_OUTER_BOUND ( 'NONE', #75, .T. ) ;
#582 = EDGE_CURVE ( 'NONE', #831, #832, #719, .T. ) ;
#583 = PLANE ( 'NONE',  #875 ) ;
#584 = ORIENTED_EDGE ( 'NONE', *, *, #913, .F. ) ;
#585 = VECTOR ( 'NONE', #117, 1000.000000000000000 ) ;
#586 = VERTEX_POINT ( 'NONE', #70 ) ;
#587 = DIRECTION ( 'NONE',  ( -1.000000000000000000, -0.000000000000000000, 0.000000000000000000 ) ) ;
#588 = DIRECTION ( 'NONE',  ( 0.000000000000000000, 0.000000000000000000, 1.000000000000000000 ) ) ;
#589 = EDGE_CURVE ( 'NONE', #807, #49, #371, .T. ) ;
#590 = ORIENTED_EDGE ( 'NONE', *, *, #700, .F. ) ;
#591 = ORIENTED_EDGE ( 'NONE', *, *, #418, .T. ) ;
#592 = DIRECTION ( 'NONE',  ( -0.000000000000000000, -0.000000000000000000, 1.000000000000000000 ) ) ;
#593 = LINE ( 'NONE', #396, #644 ) ;
#594 = ORIENTED_EDGE ( 'NONE', *, *, #311, .T. ) ;
#595 = FILL_AREA_STYLE_COLOUR ( '', #928 ) ;
#596 = LINE ( 'NONE', #601, #812 ) ;
#597 = ORIENTED_EDGE ( 'NONE', *, *, #19, .T. ) ;
#598 = EDGE_CURVE ( 'NONE', #90, #78, #76, .T. ) ;
#599 = SURFACE_STYLE_USAGE ( .BOTH. , #671 ) ;
#600 = AXIS2_PLACEMENT_3D ( 'NONE', #820, #24, #30 ) ;
#601 = CARTESIAN_POINT ( 'NONE',  ( 475.9198840150000365, -46.96066579500000415, 152.9638762099999951 ) ) ;
#602 = EDGE_LOOP ( 'NONE', ( #853, #230, #176, #245 ) ) ;
#603 = DIRECTION ( 'NONE',  ( 0.000000000000000000, 0.000000000000000000, -1.000000000000000000 ) ) ;
#604 = DIRECTION ( 'NONE',  ( 0.000000000000000000, 0.000000000000000000, 1.000000000000000000 ) ) ;
#605 = ORIENTED_EDGE ( 'NONE', *, *, #7, .F. ) ;
#606 = ORIENTED_EDGE ( 'NONE', *, *, #19, .F. ) ;
#607 = DIRECTION ( 'NONE',  ( -1.000000000000000000, 0.000000000000000000, 0.000000000000000000 ) ) ;
#608 = CARTESIAN_POINT ( 'NONE',  ( 883.0448840149999796, -49.96066579499999705, 118.9638762099999951 ) ) ;
#609 = EDGE_CURVE ( 'NONE', #508, #610, #641, .T. ) ;
#610 = VERTEX_POINT ( 'NONE', #638 ) ;
#611 = MECHANICAL_DESIGN_GEOMETRIC_PRESENTATION_REPRESENTATION (  '', ( #130 ), #36 ) ;
#612 = ORIENTED_EDGE ( 'NONE', *, *, #426, .F. ) ;
#613 = DIRECTION ( 'NONE',  ( 0.000000000000000000, 0.000000000000000000, -1.000000000000000000 ) ) ;
#614 = CARTESIAN_POINT ( 'NONE',  ( 1169.794884014999980, -49.96066579499999705, 118.9638762099999809 ) ) ;
#615 = CARTESIAN_POINT ( 'NONE',  ( 475.9198840150000365, -2.960665794999999711, 123.9638762100000093 ) ) ;
#616 = ORIENTED_EDGE ( 'NONE', *, *, #561, .F. ) ;
#617 =( LENGTH_UNIT ( ) NAMED_UNIT ( * ) SI_UNIT ( .MILLI., .METRE. ) );
#618 = CARTESIAN_POINT ( 'NONE',  ( 889.0448840149999796, -24.96066579500000060, 155.9638762099999951 ) ) ;
#619 = CARTESIAN_POINT ( 'NONE',  ( 1576.919884014999980, -4.960665795000000600, 121.9638762100000093 ) ) ;
#620 = CIRCLE ( 'NONE', #199, 2.000000000000001776 ) ;
#621 = EDGE_CURVE ( 'NONE', #773, #648, #277, .T. ) ;
#622 = ORIENTED_EDGE ( 'NONE', *, *, #572, .T. ) ;
#623 = DIRECTION ( 'NONE',  ( -0.000000000000000000, -0.000000000000000000, 1.000000000000000000 ) ) ;
#624 = DIRECTION ( 'NONE',  ( 0.000000000000000000, 1.000000000000000000, 0.000000000000000000 ) ) ;
#625 = CIRCLE ( 'NONE', #2, 3.000000000000002665 ) ;
#626 = VERTEX_POINT ( 'NONE', #867 ) ;
#627 = EDGE_LOOP ( 'NONE', ( #25, #679, #254, #855 ) ) ;
#628 = DIRECTION ( 'NONE',  ( 1.000000000000000000, 0.000000000000000000, 0.000000000000000000 ) ) ;
#629 = EDGE_CURVE ( 'NONE', #480, #181, #646, .T. ) ;
#630 = CARTESIAN_POINT ( 'NONE',  ( 883.0448840149999796, -4.960665795000000600, 123.9638762100000093 ) ) ;
#631 = CARTESIAN_POINT ( 'NONE',  ( 883.0448840149999796, 0.03933420500000000403, 118.9638762099999951 ) ) ;
#632 = AXIS2_PLACEMENT_3D ( 'NONE', #889, #305, #897 ) ;
#633 = AXIS2_PLACEMENT_3D ( 'NONE', #870, #720, #930 ) ;
#634 = EDGE_LOOP ( 'NONE', ( #22, #706, #591, #315 ) ) ;
#635 = DIRECTION ( 'NONE',  ( 0.000000000000000000, 0.000000000000000000, 1.000000000000000000 ) ) ;
#636 = CARTESIAN_POINT ( 'NONE',  ( 1169.794884014999980, -30.96066579500010363, 118.9638762099999809 ) ) ;
#637 =( GEOMETRIC_REPRESENTATION_CONTEXT ( 3 ) GLOBAL_UNCERTAINTY_ASSIGNED_CONTEXT ( ( #888 ) ) GLOBAL_UNIT_ASSIGNED_CONTEXT ( ( #617, #471, #105 ) ) REPRESENTATION_CONTEXT ( 'NONE', 'WORKASPACE' ) );
#638 = CARTESIAN_POINT ( 'NONE',  ( 883.0448840149999796, -18.96066579500001126, 155.9638762099999951 ) ) ;
#639 = LINE ( 'NONE', #134, #360 ) ;
#640 = ADVANCED_FACE ( 'NONE', ( #285 ), #858, .F. ) ;
#641 = LINE ( 'NONE', #655, #276 ) ;
#642 = CARTESIAN_POINT ( 'NONE',  ( 883.0448840149999796, -49.96066579499999705, 158.9638762099999951 ) ) ;
#643 = ADVANCED_FACE ( 'NONE', ( #864 ), #564, .F. ) ;
#644 = VECTOR ( 'NONE', #377, 1000.000000000000000 ) ;
#645 = VECTOR ( 'NONE', #782, 1000.000000000000000 ) ;
#646 = LINE ( 'NONE', #652, #442 ) ;
#647 = LINE ( 'NONE', #642, #116 ) ;
#648 = VERTEX_POINT ( 'NONE', #929 ) ;
#649 = SURFACE_STYLE_FILL_AREA ( #54 ) ;
#650 = VECTOR ( 'NONE', #136, 1000.000000000000000 ) ;
#651 = EDGE_CURVE ( 'NONE', #826, #480, #785, .T. ) ;
#652 = CARTESIAN_POINT ( 'NONE',  ( 1576.919884014999980, -46.96066579500000415, 124.9638762100000093 ) ) ;
#653 = DIRECTION ( 'NONE',  ( 0.000000000000000000, 0.000000000000000000, 1.000000000000000000 ) ) ;
#654 = ORIENTED_EDGE ( 'NONE', *, *, #334, .F. ) ;
#655 = CARTESIAN_POINT ( 'NONE',  ( 883.0448840149999796, -18.96066579500001126, 118.9638762099999809 ) ) ;
#656 = EDGE_CURVE ( 'NONE', #415, #517, #620, .T. ) ;
#657 = CARTESIAN_POINT ( 'NONE',  ( 883.0448840149999796, -18.96066579500001126, 121.9638762100000093 ) ) ;
#658 = PRODUCT_DEFINITION_FORMATION_WITH_SPECIFIED_SOURCE ( 'ÈÎ', '', #213, .NOT_KNOWN. ) ;
#659 = ORIENTED_EDGE ( 'NONE', *, *, #572, .F. ) ;
#660 = AXIS2_PLACEMENT_3D ( 'NONE', #789, #432, #372 ) ;
#661 = EDGE_LOOP ( 'NONE', ( #590, #103, #734, #680 ) ) ;
#662 = DIRECTION ( 'NONE',  ( 0.000000000000000000, 7.950815931560359013E-15, -1.000000000000000000 ) ) ;
#663 = DIRECTION ( 'NONE',  ( 0.000000000000000000, 0.000000000000000000, -1.000000000000000000 ) ) ;
#664 = ORIENTED_EDGE ( 'NONE', *, *, #64, .F. ) ;
#665 = ORIENTED_EDGE ( 'NONE', *, *, #894, .F. ) ;
#666 = DIRECTION ( 'NONE',  ( -1.000000000000000000, -0.000000000000000000, 0.000000000000000000 ) ) ;
#667 = PRODUCT_DEFINITION_CONTEXT ( 'detailed design', #127, 'design' ) ;
#668 = DIRECTION ( 'NONE',  ( 0.000000000000000000, -1.000000000000000000, 0.000000000000000000 ) ) ;
#669 = ORIENTED_EDGE ( 'NONE', *, *, #334, .T. ) ;
#670 = EDGE_CURVE ( 'NONE', #508, #532, #504, .T. ) ;
#671 = SURFACE_SIDE_STYLE ('',( #384 ) ) ;
#672 = CARTESIAN_POINT ( 'NONE',  ( 883.0448840149999796, -24.96066579500000060, 118.9638762099999809 ) ) ;
#673 = ORIENTED_EDGE ( 'NONE', *, *, #682, .F. ) ;
#674 = ADVANCED_FACE ( 'NONE', ( #500 ), #936, .T. ) ;
#675 = DIRECTION ( 'NONE',  ( 1.000000000000000000, 0.000000000000000000, 0.000000000000000000 ) ) ;
#676 = AXIS2_PLACEMENT_3D ( 'NONE', #337, #830, #183 ) ;
#677 = CIRCLE ( 'NONE', #633, 6.000000000000005329 ) ;
#678 = DIRECTION ( 'NONE',  ( 0.000000000000000000, 0.000000000000000000, 1.000000000000000000 ) ) ;
#679 = ORIENTED_EDGE ( 'NONE', *, *, #722, .T. ) ;
#680 = ORIENTED_EDGE ( 'NONE', *, *, #629, .F. ) ;
#681 = CARTESIAN_POINT ( 'NONE',  ( 475.9198840150000365, -49.96066579499999705, 124.9638762100000093 ) ) ;
#682 = EDGE_CURVE ( 'NONE', #18, #626, #29, .T. ) ;
#683 = CYLINDRICAL_SURFACE ( 'NONE', #600, 6.000000000000005329 ) ;
#684 = AXIS2_PLACEMENT_3D ( 'NONE', #312, #666, #166 ) ;
#685 = VERTEX_POINT ( 'NONE', #316 ) ;
#686 = ORIENTED_EDGE ( 'NONE', *, *, #868, .F. ) ;
#687 = CARTESIAN_POINT ( 'NONE',  ( 1580.919884014999980, -5.960665795000000600, 152.9638762099999951 ) ) ;
#688 = FACE_OUTER_BOUND ( 'NONE', #918, .T. ) ;
#689 = LINE ( 'NONE', #923, #800 ) ;
#690 = VERTEX_POINT ( 'NONE', #818 ) ;
#691 = LINE ( 'NONE', #681, #369 ) ;
#692 = AXIS2_PLACEMENT_3D ( 'NONE', #505, #793, #653 ) ;
#693 = PLANE ( 'NONE',  #676 ) ;
#694 = ORIENTED_EDGE ( 'NONE', *, *, #753, .T. ) ;
#695 = EDGE_CURVE ( 'NONE', #278, #78, #731, .T. ) ;
#696 = ORIENTED_EDGE ( 'NONE', *, *, #670, .F. ) ;
#697 = PLANE ( 'NONE',  #174 ) ;
#698 = DIRECTION ( 'NONE',  ( 1.000000000000000000, 0.000000000000000000, 0.000000000000000000 ) ) ;
#699 = AXIS2_PLACEMENT_3D ( 'NONE', #268, #410, #110 ) ;
#700 = EDGE_CURVE ( 'NONE', #370, #480, #320, .T. ) ;
#701 = ORIENTED_EDGE ( 'NONE', *, *, #431, .F. ) ;
#702 = DIRECTION ( 'NONE',  ( 1.000000000000000000, 0.000000000000000000, 0.000000000000000000 ) ) ;
#703 = DIRECTION ( 'NONE',  ( 1.000000000000000000, -0.000000000000000000, -0.000000000000000000 ) ) ;
#704 = VECTOR ( 'NONE', #364, 1000.000000000000000 ) ;
#705 = CARTESIAN_POINT ( 'NONE',  ( 1580.919884014999980, -5.960665795000000600, 124.9638762100000093 ) ) ;
#706 = ORIENTED_EDGE ( 'NONE', *, *, #223, .T. ) ;
#707 = DIRECTION ( 'NONE',  ( 0.000000000000000000, 0.000000000000000000, -1.000000000000000000 ) ) ;
#708 = PLANE ( 'NONE',  #99 ) ;
#709 = VECTOR ( 'NONE', #211, 1000.000000000000000 ) ;
#710 = ORIENTED_EDGE ( 'NONE', *, *, #147, .T. ) ;
#711 = DIRECTION ( 'NONE',  ( 0.000000000000000000, 0.000000000000000000, -1.000000000000000000 ) ) ;
#712 = ADVANCED_FACE ( 'NONE', ( #755 ), #79, .T. ) ;
#713 = CARTESIAN_POINT ( 'NONE',  ( 883.0448840149999796, -49.96066579499999705, 118.9638762099999951 ) ) ;
#714 = DIRECTION ( 'NONE',  ( 0.000000000000000000, 0.000000000000000000, 1.000000000000000000 ) ) ;
#715 = ADVANCED_BREP_SHAPE_REPRESENTATION ( 'XH-YJ38-LJ-004-A0-??????-??', ( #816, #733 ), #494 ) ;
#716 = DIRECTION ( 'NONE',  ( -0.000000000000000000, -0.000000000000000000, 1.000000000000000000 ) ) ;
#717 = CARTESIAN_POINT ( 'NONE',  ( 883.0448840149999796, -49.96066579499999705, 152.9638762099999951 ) ) ;
#718 =( NAMED_UNIT ( * ) PLANE_ANGLE_UNIT ( ) SI_UNIT ( $, .RADIAN. ) );
#719 = LINE ( 'NONE', #294, #762 ) ;
#720 = DIRECTION ( 'NONE',  ( 0.000000000000000000, 0.000000000000000000, 1.000000000000000000 ) ) ;
#721 = AXIS2_PLACEMENT_3D ( 'NONE', #462, #96, #17 ) ;
#722 = EDGE_CURVE ( 'NONE', #453, #15, #939, .T. ) ;
#723 = SURFACE_SIDE_STYLE ('',( #649 ) ) ;
#724 = DIRECTION ( 'NONE',  ( -0.000000000000000000, 1.000000000000000000, 0.000000000000000000 ) ) ;
#725 = CARTESIAN_POINT ( 'NONE',  ( 1430.919884014999980, -43.96066579499999705, 124.9638762100000093 ) ) ;
#726 = ORIENTED_EDGE ( 'NONE', *, *, #311, .F. ) ;
#727 = AXIS2_PLACEMENT_3D ( 'NONE', #427, #573, #220 ) ;
#728 = CARTESIAN_POINT ( 'NONE',  ( 1169.794884014999980, -14.96066579499999882, 121.9638762100000093 ) ) ;
#729 = DIRECTION ( 'NONE',  ( 1.000000000000000000, -0.000000000000000000, -0.000000000000000000 ) ) ;
#730 = ORIENTED_EDGE ( 'NONE', *, *, #426, .T. ) ;
#731 = LINE ( 'NONE', #246, #456 ) ;
#732 = CARTESIAN_POINT ( 'NONE',  ( 883.0448840149999796, -5.960665795000000600, 152.9638762099999951 ) ) ;
#733 = AXIS2_PLACEMENT_3D ( 'NONE', #358, #714, #575 ) ;
#734 = ORIENTED_EDGE ( 'NONE', *, *, #242, .F. ) ;
#735 = AXIS2_PLACEMENT_3D ( 'NONE', #884, #153, #663 ) ;
#736 = VECTOR ( 'NONE', #156, 1000.000000000000000 ) ;
#737 = ORIENTED_EDGE ( 'NONE', *, *, #413, .F. ) ;
#738 = CARTESIAN_POINT ( 'NONE',  ( 1169.794884014999980, -14.96066579499999882, 121.9638762100000093 ) ) ;
#739 = EDGE_CURVE ( 'NONE', #648, #879, #910, .T. ) ;
#740 = LINE ( 'NONE', #381, #891 ) ;
#741 = ORIENTED_EDGE ( 'NONE', *, *, #35, .T. ) ;
#742 = VERTEX_POINT ( 'NONE', #308 ) ;
#743 = LINE ( 'NONE', #226, #851 ) ;
#744 = AXIS2_PLACEMENT_3D ( 'NONE', #171, #304, #84 ) ;
#745 = FACE_OUTER_BOUND ( 'NONE', #580, .T. ) ;
#746 = EDGE_CURVE ( 'NONE', #453, #558, #750, .T. ) ;
#747 = EDGE_LOOP ( 'NONE', ( #335, #597, #378, #475 ) ) ;
#748 = AXIS2_PLACEMENT_3D ( 'NONE', #552, #623, #404 ) ;
#749 = EDGE_LOOP ( 'NONE', ( #262, #896, #88, #159 ) ) ;
#750 = LINE ( 'NONE', #374, #881 ) ;
#751 = FACE_OUTER_BOUND ( 'NONE', #602, .T. ) ;
#752 = ORIENTED_EDGE ( 'NONE', *, *, #94, .T. ) ;
#753 = EDGE_CURVE ( 'NONE', #902, #485, #743, .T. ) ;
#754 = ORIENTED_EDGE ( 'NONE', *, *, #206, .T. ) ;
#755 = FACE_OUTER_BOUND ( 'NONE', #627, .T. ) ;
#756 = AXIS2_PLACEMENT_3D ( 'NONE', #630, #703, #635 ) ;
#757 = FACE_OUTER_BOUND ( 'NONE', #324, .T. ) ;
#758 = ORIENTED_EDGE ( 'NONE', *, *, #880, .T. ) ;
#759 = EDGE_CURVE ( 'NONE', #18, #379, #527, .T. ) ;
#760 = ORIENTED_EDGE ( 'NONE', *, *, #722, .F. ) ;
#761 = CARTESIAN_POINT ( 'NONE',  ( 1169.794884014999980, -2.960665795000000156, 152.9638762099999951 ) ) ;
#762 = VECTOR ( 'NONE', #142, 1000.000000000000000 ) ;
#763 = EDGE_LOOP ( 'NONE', ( #225, #811, #240, #350 ) ) ;
#764 = ORIENTED_EDGE ( 'NONE', *, *, #582, .T. ) ;
#765 = DIRECTION ( 'NONE',  ( -0.000000000000000000, -0.000000000000000000, 1.000000000000000000 ) ) ;
#766 = DIRECTION ( 'NONE',  ( 0.000000000000000000, 0.000000000000000000, 1.000000000000000000 ) ) ;
#767 = EDGE_LOOP ( 'NONE', ( #447, #238, #146, #531 ) ) ;
#768 = DIRECTION ( 'NONE',  ( 1.000000000000000000, 0.000000000000000000, 0.000000000000000000 ) ) ;
#769 = AXIS2_PLACEMENT_3D ( 'NONE', #51, #707, #342 ) ;
#770 = CARTESIAN_POINT ( 'NONE',  ( 475.9198840150000365, -43.96066579499999705, 158.9638762099999951 ) ) ;
#771 = AXIS2_PLACEMENT_3D ( 'NONE', #260, #483, #343 ) ;
#772 = ADVANCED_FACE ( 'NONE', ( #11 ), #454, .F. ) ;
#773 = VERTEX_POINT ( 'NONE', #395 ) ;
#774 = ORIENTED_EDGE ( 'NONE', *, *, #838, .T. ) ;
#775 = DIRECTION ( 'NONE',  ( 0.000000000000000000, 0.000000000000000000, -1.000000000000000000 ) ) ;
#776 = LINE ( 'NONE', #770, #932 ) ;
#777 = ORIENTED_EDGE ( 'NONE', *, *, #261, .F. ) ;
#778 = ORIENTED_EDGE ( 'NONE', *, *, #621, .T. ) ;
#779 = CARTESIAN_POINT ( 'NONE',  ( 1169.794884014999980, -18.96066579499991178, 118.9638762099999809 ) ) ;
#780 = DIRECTION ( 'NONE',  ( 1.000000000000000000, 0.000000000000000000, -0.000000000000000000 ) ) ;
#781 = AXIS2_PLACEMENT_3D ( 'NONE', #687, #326, #613 ) ;
#782 = DIRECTION ( 'NONE',  ( 0.000000000000000000, 0.000000000000000000, -1.000000000000000000 ) ) ;
#783 = EDGE_CURVE ( 'NONE', #9, #224, #790, .T. ) ;
#784 = ORIENTED_EDGE ( 'NONE', *, *, #792, .T. ) ;
#785 = LINE ( 'NONE', #497, #650 ) ;
#786 = LINE ( 'NONE', #631, #68 ) ;
#787 = CIRCLE ( 'NONE', #375, 5.999999999999991118 ) ;
#788 = CARTESIAN_POINT ( 'NONE',  ( 883.0448840149999796, -49.96066579499999705, 118.9638762099999951 ) ) ;
#789 = CARTESIAN_POINT ( 'NONE',  ( 883.0448840149999796, -24.96066579500000060, 155.9638762099999951 ) ) ;
#790 = CIRCLE ( 'NONE', #398, 6.000000000000005329 ) ;
#791 = LINE ( 'NONE', #1, #709 ) ;
#792 = EDGE_CURVE ( 'NONE', #205, #90, #819, .T. ) ;
#793 = DIRECTION ( 'NONE',  ( 1.000000000000000000, -0.000000000000000000, -0.000000000000000000 ) ) ;
#794 =( NAMED_UNIT ( * ) SI_UNIT ( $, .STERADIAN. ) SOLID_ANGLE_UNIT ( ) );
#795 = CARTESIAN_POINT ( 'NONE',  ( 1169.794884014999980, -49.96066579499999705, 124.9638762100000093 ) ) ;
#796 = DIRECTION ( 'NONE',  ( 0.000000000000000000, -0.000000000000000000, 1.000000000000000000 ) ) ;
#797 = ADVANCED_FACE ( 'NONE', ( #445 ), #449, .F. ) ;
#798 = ORIENTED_EDGE ( 'NONE', *, *, #353, .T. ) ;
#799 = VECTOR ( 'NONE', #492, 1000.000000000000000 ) ;
#800 = VECTOR ( 'NONE', #766, 1000.000000000000000 ) ;
#801 = DIRECTION ( 'NONE',  ( -1.000000000000000000, 0.000000000000000000, 0.000000000000000000 ) ) ;
#802 = DIRECTION ( 'NONE',  ( 0.000000000000000000, 0.000000000000000000, 1.000000000000000000 ) ) ;
#803 = ORIENTED_EDGE ( 'NONE', *, *, #74, .F. ) ;
#804 = AXIS2_PLACEMENT_3D ( 'NONE', #91, #592, #883 ) ;
#805 = DIRECTION ( 'NONE',  ( 0.000000000000000000, 0.000000000000000000, 1.000000000000000000 ) ) ;
#806 = CARTESIAN_POINT ( 'NONE',  ( 883.0448840149999796, -5.960665795000000600, 124.9638762100000093 ) ) ;
#807 = VERTEX_POINT ( 'NONE', #809 ) ;
#808 = EDGE_CURVE ( 'NONE', #205, #517, #813, .T. ) ;
#809 = CARTESIAN_POINT ( 'NONE',  ( 883.0448840149999796, -30.96066579499998639, 118.9638762099999809 ) ) ;
#810 = DIRECTION ( 'NONE',  ( 1.000000000000000000, -0.000000000000000000, -0.000000000000000000 ) ) ;
#811 = ORIENTED_EDGE ( 'NONE', *, *, #682, .T. ) ;
#812 = VECTOR ( 'NONE', #313, 1000.000000000000000 ) ;
#813 = LINE ( 'NONE', #738, #351 ) ;
#814 = CARTESIAN_POINT ( 'NONE',  ( 883.0448840149999796, -49.96066579499999705, 118.9638762099999951 ) ) ;
#815 = ORIENTED_EDGE ( 'NONE', *, *, #175, .T. ) ;
#816 = MANIFOLD_SOLID_BREP ( 'ÇÐ³ý-À', #845 ) ;
#817 = EDGE_LOOP ( 'NONE', ( #163, #349, #203, #605 ) ) ;
#818 = CARTESIAN_POINT ( 'NONE',  ( 889.0448840149999796, -24.96066579500000060, 158.9638762099999951 ) ) ;
#819 = CIRCLE ( 'NONE', #289, 6.000000000000005329 ) ;
#820 = CARTESIAN_POINT ( 'NONE',  ( 1169.794884014999980, -24.96066579500000771, 118.9638762099999809 ) ) ;
#821 = EDGE_CURVE ( 'NONE', #879, #18, #177, .T. ) ;
#822 = ORIENTED_EDGE ( 'NONE', *, *, #418, .F. ) ;
#823 = ORIENTED_EDGE ( 'NONE', *, *, #74, .T. ) ;
#824 = DIRECTION ( 'NONE',  ( -1.000000000000000000, 0.000000000000000000, 0.000000000000000000 ) ) ;
#825 = CARTESIAN_POINT ( 'NONE',  ( 883.0448840149999796, -24.96066579500000060, 118.9638762099999809 ) ) ;
#826 = VERTEX_POINT ( 'NONE', #16 ) ;
#827 = EDGE_CURVE ( 'NONE', #453, #224, #909, .T. ) ;
#828 = VERTEX_POINT ( 'NONE', #779 ) ;
#829 = VECTOR ( 'NONE', #724, 1000.000000000000000 ) ;
#830 = DIRECTION ( 'NONE',  ( 1.000000000000000000, 0.000000000000000000, -0.000000000000000000 ) ) ;
#831 = VERTEX_POINT ( 'NONE', #837 ) ;
#832 = VERTEX_POINT ( 'NONE', #543 ) ;
#833 = DIRECTION ( 'NONE',  ( -1.000000000000000000, -0.000000000000000000, 0.000000000000000000 ) ) ;
#834 = LINE ( 'NONE', #905, #359 ) ;
#835 = DIRECTION ( 'NONE',  ( 0.000000000000000000, 0.000000000000000000, 1.000000000000000000 ) ) ;
#836 = ORIENTED_EDGE ( 'NONE', *, *, #206, .F. ) ;
#837 = CARTESIAN_POINT ( 'NONE',  ( 1169.794884014999980, -30.96066579500010363, 155.9638762099999951 ) ) ;
#838 = EDGE_CURVE ( 'NONE', #485, #250, #577, .T. ) ;
#839 = LINE ( 'NONE', #273, #585 ) ;
#840 = DIRECTION ( 'NONE',  ( -1.000000000000000000, 0.000000000000000000, 0.000000000000000000 ) ) ;
#841 = EDGE_LOOP ( 'NONE', ( #345, #4, #131, #520, #338, #752, #822, #114, #391, #737, #39, #654 ) ) ;
#842 = CARTESIAN_POINT ( 'NONE',  ( 1169.794884014999980, 0.03933420500000000403, 152.9638762099999951 ) ) ;
#843 = ADVANCED_FACE ( 'NONE', ( #186 ), #548, .F. ) ;
#844 = CYLINDRICAL_SURFACE ( 'NONE', #556, 6.000000000000005329 ) ;
#845 = CLOSED_SHELL ( 'NONE', ( #863, #387, #674, #523, #80, #47, #295, #907, #772, #489, #712, #363, #106, #436, #234, #161, #886, #248, #643, #477, #843, #546, #640, #797, #541, #287 ) ) ;
#846 = LINE ( 'NONE', #417, #571 ) ;
#847 = ORIENTED_EDGE ( 'NONE', *, *, #651, .F. ) ;
#848 = FACE_OUTER_BOUND ( 'NONE', #72, .T. ) ;
#849 = PLANE ( 'NONE',  #769 ) ;
#850 = CARTESIAN_POINT ( 'NONE',  ( 475.9198840150000365, -43.96066579499999705, 121.9638762100000093 ) ) ;
#851 = VECTOR ( 'NONE', #101, 1000.000000000000000 ) ;
#852 = EDGE_CURVE ( 'NONE', #459, #495, #625, .T. ) ;
#853 = ORIENTED_EDGE ( 'NONE', *, *, #821, .T. ) ;
#854 = DIRECTION ( 'NONE',  ( 0.000000000000000000, 0.000000000000000000, -1.000000000000000000 ) ) ;
#855 = ORIENTED_EDGE ( 'NONE', *, *, #783, .T. ) ;
#856 = PRODUCT_RELATED_PRODUCT_CATEGORY ( 'part', '', ( #213 ) ) ;
#857 = DIRECTION ( 'NONE',  ( 1.000000000000000000, 0.000000000000000000, 0.000000000000000000 ) ) ;
#858 = CYLINDRICAL_SURFACE ( 'NONE', #727, 6.000000000000005329 ) ;
#859 = CIRCLE ( 'NONE', #256, 6.000000000000005329 ) ;
#860 = DIRECTION ( 'NONE',  ( 1.000000000000000000, 0.000000000000000000, 0.000000000000000000 ) ) ;
#861 = VECTOR ( 'NONE', #52, 1000.000000000000000 ) ;
#862 = APPLICATION_PROTOCOL_DEFINITION ( 'draft international standard', 'automotive_design', 1998, #26 ) ;
#863 = ADVANCED_FACE ( 'NONE', ( #848 ), #336, .F. ) ;
#864 = FACE_OUTER_BOUND ( 'NONE', #59, .T. ) ;
#865 = CARTESIAN_POINT ( 'NONE',  ( 1169.794884014999980, -18.96066579499991178, 121.9638762100000093 ) ) ;
#866 = VECTOR ( 'NONE', #33, 1000.000000000000000 ) ;
#867 = CARTESIAN_POINT ( 'NONE',  ( 1169.794884014999980, -5.960665795000013922, 118.9638762099999809 ) ) ;
#868 = EDGE_CURVE ( 'NONE', #97, #558, #691, .T. ) ;
#869 = AXIS2_PLACEMENT_3D ( 'NONE', #40, #192, #702 ) ;
#870 = CARTESIAN_POINT ( 'NONE',  ( 883.0448840149999796, -24.96066579500000060, 118.9638762099999809 ) ) ;
#871 = ORIENTED_EDGE ( 'NONE', *, *, #406, .F. ) ;
#872 = CARTESIAN_POINT ( 'NONE',  ( 883.0448840149999796, -30.96066579499998639, 118.9638762099999809 ) ) ;
#873 = FACE_OUTER_BOUND ( 'NONE', #266, .T. ) ;
#874 = ORIENTED_EDGE ( 'NONE', *, *, #609, .F. ) ;
#875 = AXIS2_PLACEMENT_3D ( 'NONE', #222, #512, #802 ) ;
#876 = ORIENTED_EDGE ( 'NONE', *, *, #753, .F. ) ;
#877 = CARTESIAN_POINT ( 'NONE',  ( 883.0448840149999796, -43.96066579499999705, 152.9638762099999951 ) ) ;
#878 = CARTESIAN_POINT ( 'NONE',  ( 883.0448840149999796, -49.96066579499999705, 124.9638762100000093 ) ) ;
#879 = VERTEX_POINT ( 'NONE', #842 ) ;
#880 = EDGE_CURVE ( 'NONE', #828, #78, #339, .T. ) ;
#881 = VECTOR ( 'NONE', #460, 1000.000000000000000 ) ;
#882 = ORIENTED_EDGE ( 'NONE', *, *, #651, .T. ) ;
#883 = DIRECTION ( 'NONE',  ( 1.000000000000000000, 0.000000000000000000, 0.000000000000000000 ) ) ;
#884 = CARTESIAN_POINT ( 'NONE',  ( 1580.919884014999980, -43.96066579499999705, 124.9638762100000093 ) ) ;
#885 = ORIENTED_EDGE ( 'NONE', *, *, #125, .F. ) ;
#886 = ADVANCED_FACE ( 'NONE', ( #258 ), #252, .F. ) ;
#887 = CARTESIAN_POINT ( 'NONE',  ( 1169.794884014999980, -5.960665795000000600, 152.9638762099999951 ) ) ;
#888 = UNCERTAINTY_MEASURE_WITH_UNIT (LENGTH_MEASURE( 1.000000000000000082E-05 ), #617, 'distance_accuracy_value', 'NONE');
#889 = CARTESIAN_POINT ( 'NONE',  ( 1169.794884014999980, -43.96066579499999705, 124.9638762100000093 ) ) ;
#890 = VERTEX_POINT ( 'NONE', #121 ) ;
#891 = VECTOR ( 'NONE', #524, 1000.000000000000000 ) ;
#892 = VECTOR ( 'NONE', #77, 1000.000000000000000 ) ;
#893 = DIRECTION ( 'NONE',  ( 0.000000000000000000, 0.000000000000000000, -1.000000000000000000 ) ) ;
#894 = EDGE_CURVE ( 'NONE', #424, #459, #50, .T. ) ;
#895 = LINE ( 'NONE', #253, #190 ) ;
#896 = ORIENTED_EDGE ( 'NONE', *, *, #739, .T. ) ;
#897 = DIRECTION ( 'NONE',  ( 0.000000000000000000, 0.000000000000000000, -1.000000000000000000 ) ) ;
#898 = ORIENTED_EDGE ( 'NONE', *, *, #670, .T. ) ;
#899 = EDGE_LOOP ( 'NONE', ( #165, #5, #778, #126, #696, #228, #340, #444, #924 ) ) ;
#900 = DIRECTION ( 'NONE',  ( 0.000000000000000000, 0.000000000000000000, -1.000000000000000000 ) ) ;
#901 = DIRECTION ( 'NONE',  ( 0.000000000000000000, 0.000000000000000000, 1.000000000000000000 ) ) ;
#902 = VERTEX_POINT ( 'NONE', #537 ) ;
#903 = VERTEX_POINT ( 'NONE', #322 ) ;
#904 = CARTESIAN_POINT ( 'NONE',  ( 1169.794884014999980, -43.96066579499999705, 152.9638762099999951 ) ) ;
#905 = CARTESIAN_POINT ( 'NONE',  ( 475.9198840150000365, -5.960665795000000600, 118.9638762099999951 ) ) ;
#906 = CARTESIAN_POINT ( 'NONE',  ( 883.0448840149999796, -30.96066579499998639, 155.9638762099999951 ) ) ;
#907 = ADVANCED_FACE ( 'NONE', ( #198 ), #400, .T. ) ;
#908 = ORIENTED_EDGE ( 'NONE', *, *, #700, .T. ) ;
#909 = LINE ( 'NONE', #263, #164 ) ;
#910 = CIRCLE ( 'NONE', #382, 6.000000000000005329 ) ;
#911 = CARTESIAN_POINT ( 'NONE',  ( 1169.794884014999980, -46.96066579500000415, 124.9638762100000093 ) ) ;
#912 = CARTESIAN_POINT ( 'NONE',  ( 883.0448840149999796, -30.96066579499998639, 121.9638762100000093 ) ) ;
#913 = EDGE_CURVE ( 'NONE', #826, #832, #48, .T. ) ;
#914 = ORIENTED_EDGE ( 'NONE', *, *, #695, .T. ) ;
#915 = DIRECTION ( 'NONE',  ( 1.000000000000000000, 0.000000000000000000, 0.000000000000000000 ) ) ;
#916 = LINE ( 'NONE', #34, #799 ) ;
#917 = ORIENTED_EDGE ( 'NONE', *, *, #746, .F. ) ;
#918 = EDGE_LOOP ( 'NONE', ( #917, #536, #399, #109 ) ) ;
#919 = AXIS2_PLACEMENT_3D ( 'NONE', #149, #588, #569 ) ;
#920 = CARTESIAN_POINT ( 'NONE',  ( 1580.919884014999980, -49.96066579499999705, 123.9638762100000093 ) ) ;
#921 = EDGE_CURVE ( 'NONE', #498, #43, #476, .T. ) ;
#922 = AXIS2_PLACEMENT_3D ( 'NONE', #705, #493, #189 ) ;
#923 = CARTESIAN_POINT ( 'NONE',  ( 1169.794884014999980, -2.960665794999999711, 123.9638762100000093 ) ) ;
#924 = ORIENTED_EDGE ( 'NONE', *, *, #464, .T. ) ;
#925 = DIRECTION ( 'NONE',  ( 0.000000000000000000, 0.000000000000000000, 1.000000000000000000 ) ) ;
#926 = EDGE_CURVE ( 'NONE', #244, #831, #219, .T. ) ;
#927 = CARTESIAN_POINT ( 'NONE',  ( 1580.919884014999980, -14.96066579499999882, 118.9638762099999951 ) ) ;
#928 = COLOUR_RGB ( '',0.6509803921568627638, 0.6196078431372549211, 0.5882352941176470784 ) ;
#929 = CARTESIAN_POINT ( 'NONE',  ( 1169.794884014999980, -5.960665795000013922, 158.9638762099999951 ) ) ;
#930 = DIRECTION ( 'NONE',  ( 1.000000000000000000, 0.000000000000000000, 0.000000000000000000 ) ) ;
#931 = CARTESIAN_POINT ( 'NONE',  ( 1169.794884014999980, -4.960665795000000600, 123.9638762100000093 ) ) ;
#932 = VECTOR ( 'NONE', #401, 1000.000000000000000 ) ;
#933 = CARTESIAN_POINT ( 'NONE',  ( 883.0448840149999796, -43.96066579499999705, 118.9638762099999951 ) ) ;
#934 = AXIS2_PLACEMENT_3D ( 'NONE', #545, #835, #479 ) ;
#935 = EDGE_CURVE ( 'NONE', #233, #879, #420, .T. ) ;
#936 = PLANE ( 'NONE',  #503 ) ;
#937 = DIRECTION ( 'NONE',  ( -0.000000000000000000, -0.000000000000000000, 1.000000000000000000 ) ) ;
#938 = ORIENTED_EDGE ( 'NONE', *, *, #921, .T. ) ;
#939 = CIRCLE ( 'NONE', #684, 6.000000000000005329 ) ;
#940 = SURFACE_STYLE_USAGE ( .BOTH. , #723 ) ;
ENDSEC;
END-ISO-10303-21;
