ISO-10303-21;
HEADER;
FILE_DESCRIPTION (( 'STEP AP214' ),
    '1' );
FILE_NAME ('XH-YJ38-LJ-003-A0-底盘方通-右.STEP',
    '2026-06-04T09:58:37',
    ( 'Microsoft' ),
    ( 'Microsoft' ),
    'SwSTEP 2.0',
    'SolidWorks 2020',
    '' );
FILE_SCHEMA (( 'AUTOMOTIVE_DESIGN' ));
ENDSEC;

DATA;
#1 = VERTEX_POINT ( 'NONE', #708 ) ;
#2 = EDGE_CURVE ( 'NONE', #163, #423, #1119, .T. ) ;
#3 = EDGE_CURVE ( 'NONE', #1295, #1114, #608, .T. ) ;
#4 = VERTEX_POINT ( 'NONE', #1262 ) ;
#5 = CARTESIAN_POINT ( 'NONE',  ( 469.9473067929999957, -50.02175833399991234, 152.9638762099999951 ) ) ;
#6 = VERTEX_POINT ( 'NONE', #358 ) ;
#7 = DIRECTION ( 'NONE',  ( -1.000000000000000000, 0.000000000000000000, 0.000000000000000000 ) ) ;
#8 = CARTESIAN_POINT ( 'NONE',  ( 425.9473067930000525, -1346.978241665999803, 182.9638762099999951 ) ) ;
#9 = CYLINDRICAL_SURFACE ( 'NONE', #329, 2.749999999999974687 ) ;
#10 = ORIENTED_EDGE ( 'NONE', *, *, #716, .T. ) ;
#11 = LINE ( 'NONE', #244, #615 ) ;
#12 = CARTESIAN_POINT ( 'NONE',  ( 431.9473067929999957, -1346.978241665999803, 124.9638762100000093 ) ) ;
#13 = LINE ( 'NONE', #1083, #400 ) ;
#14 = SURFACE_STYLE_FILL_AREA ( #1242 ) ;
#15 = AXIS2_PLACEMENT_3D ( 'NONE', #819, #306, #527 ) ;
#16 = CIRCLE ( 'NONE', #788, 6.000000000000005329 ) ;
#17 = AXIS2_PLACEMENT_3D ( 'NONE', #217, #757, #543 ) ;
#18 = ORIENTED_EDGE ( 'NONE', *, *, #728, .T. ) ;
#19 = CARTESIAN_POINT ( 'NONE',  ( 444.9473055166499762, -50.02175833399991234, 121.9638762100000093 ) ) ;
#20 = VECTOR ( 'NONE', #1222, 1000.000000000000000 ) ;
#21 = EDGE_CURVE ( 'NONE', #1344, #1224, #770, .T. ) ;
#22 = PLANE ( 'NONE',  #933 ) ;
#23 = ADVANCED_FACE ( 'NONE', ( #1257 ), #1068, .T. ) ;
#24 = DIRECTION ( 'NONE',  ( 0.000000000000000000, -1.000000000000000000, 0.000000000000000000 ) ) ;
#25 = CARTESIAN_POINT ( 'NONE',  ( 469.9473067929999957, -1224.121758333999878, 152.9638762099999951 ) ) ;
#26 = ORIENTED_EDGE ( 'NONE', *, *, #76, .T. ) ;
#27 = FACE_BOUND ( 'NONE', #638, .T. ) ;
#28 = DIRECTION ( 'NONE',  ( 0.000000000000000000, 0.000000000000000000, -1.000000000000000000 ) ) ;
#29 = SHAPE_DEFINITION_REPRESENTATION ( #623, #1173 ) ;
#30 = CARTESIAN_POINT ( 'NONE',  ( 444.9473055166499762, -1346.978241665999803, 118.9638762099999951 ) ) ;
#31 = EDGE_CURVE ( 'NONE', #887, #1096, #1172, .T. ) ;
#32 = LINE ( 'NONE', #551, #1301 ) ;
#33 = PLANE ( 'NONE',  #1025 ) ;
#34 = ORIENTED_EDGE ( 'NONE', *, *, #805, .T. ) ;
#35 = DIRECTION ( 'NONE',  ( -0.000000000000000000, -0.000000000000000000, 1.000000000000000000 ) ) ;
#36 = MANIFOLD_SOLID_BREP ( '切除-拉伸2', #91 ) ;
#37 = CARTESIAN_POINT ( 'NONE',  ( 460.9473067929999957, -1224.121758333999878, 121.9638762100000093 ) ) ;
#38 = STYLED_ITEM ( 'NONE', ( #1337 ), #1173 ) ;
#39 = EDGE_CURVE ( 'NONE', #101, #487, #1248, .T. ) ;
#40 = DIRECTION ( 'NONE',  ( 1.000000000000000000, 0.000000000000000000, 0.000000000000000000 ) ) ;
#41 = AXIS2_PLACEMENT_3D ( 'NONE', #672, #815, #502 ) ;
#42 = ORIENTED_EDGE ( 'NONE', *, *, #330, .T. ) ;
#43 = AXIS2_PLACEMENT_3D ( 'NONE', #517, #1225, #614 ) ;
#44 = DIRECTION ( 'NONE',  ( 1.000000000000000000, 0.000000000000000000, 0.000000000000000000 ) ) ;
#45 = VECTOR ( 'NONE', #276, 1000.000000000000000 ) ;
#46 = AXIS2_PLACEMENT_3D ( 'NONE', #119, #862, #952 ) ;
#47 = DIRECTION ( 'NONE',  ( 1.000000000000000000, 0.000000000000000000, 0.000000000000000000 ) ) ;
#48 = DIRECTION ( 'NONE',  ( 0.000000000000000000, 1.000000000000000000, 0.000000000000000000 ) ) ;
#49 = CARTESIAN_POINT ( 'NONE',  ( 432.9473043839999491, -533.0000000000000000, 158.9638762099999951 ) ) ;
#50 = EDGE_CURVE ( 'NONE', #436, #503, #562, .T. ) ;
#51 = ORIENTED_EDGE ( 'NONE', *, *, #1186, .F. ) ;
#52 = DIRECTION ( 'NONE',  ( -1.000000000000000000, 0.000000000000000000, 0.000000000000000000 ) ) ;
#53 = LINE ( 'NONE', #469, #488 ) ;
#54 = CARTESIAN_POINT ( 'NONE',  ( 428.9473067929999957, -50.02175833399999050, 152.9638762099999951 ) ) ;
#55 = ORIENTED_EDGE ( 'NONE', *, *, #1210, .T. ) ;
#56 = CARTESIAN_POINT ( 'NONE',  ( 431.9473061213000165, -1346.878241665999894, 155.9638762099999951 ) ) ;
#57 = ORIENTED_EDGE ( 'NONE', *, *, #498, .T. ) ;
#58 = DIRECTION ( 'NONE',  ( -0.000000000000000000, -0.000000000000000000, 1.000000000000000000 ) ) ;
#59 = LINE ( 'NONE', #877, #936 ) ;
#60 = CARTESIAN_POINT ( 'NONE',  ( 456.9473055166499762, -1346.978241665999803, 118.9638762099999951 ) ) ;
#61 = VERTEX_POINT ( 'NONE', #125 ) ;
#62 = AXIS2_PLACEMENT_3D ( 'NONE', #296, #411, #203 ) ;
#63 = ORIENTED_EDGE ( 'NONE', *, *, #463, .T. ) ;
#64 = DIRECTION ( 'NONE',  ( 0.000000000000000000, 0.000000000000000000, -1.000000000000000000 ) ) ;
#65 = CIRCLE ( 'NONE', #178, 3.000000000000002665 ) ;
#66 = CIRCLE ( 'NONE', #1006, 2.749999999999974687 ) ;
#67 = CARTESIAN_POINT ( 'NONE',  ( 475.9473067929999957, -50.02175833399999050, 182.9638762099999951 ) ) ;
#68 = CIRCLE ( 'NONE', #828, 6.000000000000005329 ) ;
#69 = DIRECTION ( 'NONE',  ( -1.000000000000000000, 0.000000000000000000, 0.000000000000000000 ) ) ;
#70 = ORIENTED_EDGE ( 'NONE', *, *, #1283, .T. ) ;
#71 = ORIENTED_EDGE ( 'NONE', *, *, #397, .T. ) ;
#72 = CARTESIAN_POINT ( 'NONE',  ( 450.9473067930000525, -168.4999999999999716, 155.9638762099999951 ) ) ;
#73 = CARTESIAN_POINT ( 'NONE',  ( 460.9473067929999957, -1346.978241665999803, 121.9638762100000093 ) ) ;
#74 =( NAMED_UNIT ( * ) SI_UNIT ( $, .STERADIAN. ) SOLID_ANGLE_UNIT ( ) );
#75 = EDGE_LOOP ( 'NONE', ( #909, #1253, #859, #365 ) ) ;
#76 = EDGE_CURVE ( 'NONE', #1075, #762, #152, .T. ) ;
#77 = VERTEX_POINT ( 'NONE', #1179 ) ;
#78 = CARTESIAN_POINT ( 'NONE',  ( 450.9473067930000525, -1228.500000000000000, 155.9638762099999951 ) ) ;
#79 = CARTESIAN_POINT ( 'NONE',  ( 428.9473067929999957, -1224.121758333999878, 123.9638762100000093 ) ) ;
#80 = CYLINDRICAL_SURFACE ( 'NONE', #243, 2.749999999999974687 ) ;
#81 = EDGE_LOOP ( 'NONE', ( #283, #1140, #89, #600 ) ) ;
#82 = EDGE_CURVE ( 'NONE', #832, #487, #666, .T. ) ;
#83 = ORIENTED_EDGE ( 'NONE', *, *, #839, .T. ) ;
#84 = DIRECTION ( 'NONE',  ( 0.000000000000000000, 1.000000000000000000, 0.000000000000000000 ) ) ;
#85 = PRESENTATION_LAYER_ASSIGNMENT (  '', '', ( #38 ) ) ;
#86 = DIRECTION ( 'NONE',  ( 0.000000000000000000, 0.000000000000000000, 1.000000000000000000 ) ) ;
#87 = AXIS2_PLACEMENT_3D ( 'NONE', #299, #633, #451 ) ;
#88 = DIRECTION ( 'NONE',  ( 0.000000000000000000, 1.000000000000000000, 0.000000000000000000 ) ) ;
#89 = ORIENTED_EDGE ( 'NONE', *, *, #673, .F. ) ;
#90 = VECTOR ( 'NONE', #1033, 1000.000000000000000 ) ;
#91 = CLOSED_SHELL ( 'NONE', ( #1309, #339, #481, #572, #734, #1341, #493, #991, #1057, #1105, #302, #1202, #1014, #337, #940, #864, #381, #214, #975, #23, #438, #598, #737, #275, #474, #422, #1058, #197, #700, #919, #831, #1095, #872, #294, #657, #609 ) ) ;
#92 = ORIENTED_EDGE ( 'NONE', *, *, #959, .F. ) ;
#93 = FACE_OUTER_BOUND ( 'NONE', #692, .T. ) ;
#94 = EDGE_CURVE ( 'NONE', #210, #142, #246, .T. ) ;
#95 = DIRECTION ( 'NONE',  ( 1.000000000000000000, 0.000000000000000000, 0.000000000000000000 ) ) ;
#96 = LINE ( 'NONE', #1131, #697 ) ;
#97 = VERTEX_POINT ( 'NONE', #1268 ) ;
#98 = ORIENTED_EDGE ( 'NONE', *, *, #715, .T. ) ;
#99 = CARTESIAN_POINT ( 'NONE',  ( 450.9473055166499762, -50.02175833399995497, 121.9638762100000093 ) ) ;
#100 = CARTESIAN_POINT ( 'NONE',  ( 431.9473067929999957, -50.02175833399991234, 124.9638762100000093 ) ) ;
#101 = VERTEX_POINT ( 'NONE', #342 ) ;
#102 = ORIENTED_EDGE ( 'NONE', *, *, #535, .T. ) ;
#103 = DIRECTION ( 'NONE',  ( 0.000000000000000000, 0.000000000000000000, 1.000000000000000000 ) ) ;
#104 = APPLICATION_CONTEXT ( 'automotive_design' ) ;
#105 = ORIENTED_EDGE ( 'NONE', *, *, #1167, .F. ) ;
#106 = CARTESIAN_POINT ( 'NONE',  ( 431.9473067929999957, -1346.978241665999803, 152.9638762099999951 ) ) ;
#107 = VECTOR ( 'NONE', #1050, 1000.000000000000000 ) ;
#108 = EDGE_LOOP ( 'NONE', ( #590, #115, #70, #818 ) ) ;
#109 = AXIS2_PLACEMENT_3D ( 'NONE', #213, #86, #712 ) ;
#110 = AXIS2_PLACEMENT_3D ( 'NONE', #241, #1067, #1144 ) ;
#111 = EDGE_CURVE ( 'NONE', #77, #423, #158, .T. ) ;
#112 = VECTOR ( 'NONE', #711, 1000.000000000000000 ) ;
#113 = AXIS2_PLACEMENT_3D ( 'NONE', #1094, #990, #1074 ) ;
#114 = AXIS2_PLACEMENT_3D ( 'NONE', #390, #987, #1300 ) ;
#115 = ORIENTED_EDGE ( 'NONE', *, *, #1155, .T. ) ;
#116 = DIRECTION ( 'NONE',  ( -1.000000000000000000, 0.000000000000000000, 0.000000000000000000 ) ) ;
#117 = FACE_OUTER_BOUND ( 'NONE', #81, .T. ) ;
#118 = UNCERTAINTY_MEASURE_WITH_UNIT (LENGTH_MEASURE( 1.000000000000000082E-05 ), #518, 'distance_accuracy_value', 'NONE');
#119 = CARTESIAN_POINT ( 'NONE',  ( 450.9473067930000525, -1228.500000000000000, 155.9638762099999951 ) ) ;
#120 = CARTESIAN_POINT ( 'NONE',  ( 456.9473055166499762, -1346.978241665999803, 158.9638762099999951 ) ) ;
#121 = ORIENTED_EDGE ( 'NONE', *, *, #641, .F. ) ;
#122 = CARTESIAN_POINT ( 'NONE',  ( 460.9473067929999957, -1224.121758333999878, 155.9638762099999951 ) ) ;
#123 = EDGE_LOOP ( 'NONE', ( #992, #658, #930, #714 ) ) ;
#124 = LINE ( 'NONE', #659, #1297 ) ;
#125 = CARTESIAN_POINT ( 'NONE',  ( 441.9473043840000059, -580.7799999999999727, 155.9638762099999951 ) ) ;
#126 = CARTESIAN_POINT ( 'NONE',  ( 448.1973067930000525, -448.5000000000000000, 155.9638762099999951 ) ) ;
#127 = EDGE_LOOP ( 'NONE', ( #1026, #1087, #896, #985 ) ) ;
#128 = CARTESIAN_POINT ( 'NONE',  ( 469.9473067929999957, -1346.878241665999894, 158.9638762099999951 ) ) ;
#129 = EDGE_CURVE ( 'NONE', #542, #1224, #250, .T. ) ;
#130 = DIRECTION ( 'NONE',  ( -1.000000000000000000, 0.000000000000000000, 0.000000000000000000 ) ) ;
#131 = CIRCLE ( 'NONE', #1317, 6.000000000000005329 ) ;
#132 = CARTESIAN_POINT ( 'NONE',  ( 453.6973067929999957, -168.4999999999999716, 158.9638762099999951 ) ) ;
#133 = VECTOR ( 'NONE', #926, 1000.000000000000000 ) ;
#134 = PRESENTATION_LAYER_ASSIGNMENT (  '', '', ( #721 ) ) ;
#135 = ORIENTED_EDGE ( 'NONE', *, *, #1020, .F. ) ;
#136 = DIRECTION ( 'NONE',  ( 0.000000000000000000, 0.000000000000000000, -1.000000000000000000 ) ) ;
#137 = ORIENTED_EDGE ( 'NONE', *, *, #563, .T. ) ;
#138 = CARTESIAN_POINT ( 'NONE',  ( 475.9473067929999957, -1346.978241665999803, 152.9638762099999951 ) ) ;
#139 = EDGE_CURVE ( 'NONE', #1075, #1070, #144, .T. ) ;
#140 = DIRECTION ( 'NONE',  ( 0.000000000000000000, 0.000000000000000000, 1.000000000000000000 ) ) ;
#141 = CYLINDRICAL_SURFACE ( 'NONE', #269, 6.000000000000005329 ) ;
#142 = VERTEX_POINT ( 'NONE', #434 ) ;
#143 = DIRECTION ( 'NONE',  ( 1.000000000000000000, 0.000000000000000000, 0.000000000000000000 ) ) ;
#144 = LINE ( 'NONE', #331, #328 ) ;
#145 = EDGE_CURVE ( 'NONE', #372, #1162, #230, .T. ) ;
#146 = FACE_OUTER_BOUND ( 'NONE', #127, .T. ) ;
#147 = ORIENTED_EDGE ( 'NONE', *, *, #190, .F. ) ;
#148 = CARTESIAN_POINT ( 'NONE',  ( 444.9473055166499762, -50.02175833399999050, 118.9638762099999951 ) ) ;
#149 = LINE ( 'NONE', #73, #813 ) ;
#150 = CARTESIAN_POINT ( 'NONE',  ( 444.9473055166499762, -50.02175833399999050, 158.9638762099999951 ) ) ;
#151 = EDGE_CURVE ( 'NONE', #210, #963, #13, .T. ) ;
#152 = CIRCLE ( 'NONE', #1086, 6.000000000000005329 ) ;
#153 = LINE ( 'NONE', #56, #1109 ) ;
#154 = CIRCLE ( 'NONE', #892, 3.000000000000002665 ) ;
#155 = EDGE_LOOP ( 'NONE', ( #340, #1287, #844, #1308, #1089, #1108, #216, #731 ) ) ;
#156 = AXIS2_PLACEMENT_3D ( 'NONE', #404, #389, #1037 ) ;
#157 = CARTESIAN_POINT ( 'NONE',  ( 453.6973067929999957, -168.4999999999999716, 155.9638762099999951 ) ) ;
#158 = CIRCLE ( 'NONE', #913, 3.000000000000002665 ) ;
#159 = CARTESIAN_POINT ( 'NONE',  ( 469.9473067929999957, -50.02175833399999050, 155.9638762099999951 ) ) ;
#160 = DIRECTION ( 'NONE',  ( -1.000000000000000000, 0.000000000000000000, 0.000000000000000000 ) ) ;
#161 = ORIENTED_EDGE ( 'NONE', *, *, #1332, .F. ) ;
#162 = CARTESIAN_POINT ( 'NONE',  ( 448.1973067930000525, -168.4999999999999716, 153.9638762099999951 ) ) ;
#163 = VERTEX_POINT ( 'NONE', #159 ) ;
#164 = DIRECTION ( 'NONE',  ( -0.000000000000000000, -0.000000000000000000, 1.000000000000000000 ) ) ;
#165 = DIRECTION ( 'NONE',  ( 0.000000000000000000, 0.000000000000000000, 1.000000000000000000 ) ) ;
#166 = CARTESIAN_POINT ( 'NONE',  ( 456.9473055166499762, -50.02175833399999050, 118.9638762099999951 ) ) ;
#167 = EDGE_LOOP ( 'NONE', ( #380, #102, #620, #426, #289, #161, #687, #1333 ) ) ;
#168 = CARTESIAN_POINT ( 'NONE',  ( 431.9473067929999957, -1346.978241665999803, 152.9638762099999951 ) ) ;
#169 = ORIENTED_EDGE ( 'NONE', *, *, #612, .T. ) ;
#170 = CARTESIAN_POINT ( 'NONE',  ( 441.9473043840000059, -533.0000000000000000, 155.9638762099999951 ) ) ;
#171 = EDGE_CURVE ( 'NONE', #97, #619, #149, .T. ) ;
#172 = DIRECTION ( 'NONE',  ( -1.000000000000000000, 0.000000000000000000, 0.000000000000000000 ) ) ;
#173 = CARTESIAN_POINT ( 'NONE',  ( 450.9473067930000525, -948.5000000000000000, 158.9638762099999951 ) ) ;
#174 = ORIENTED_EDGE ( 'NONE', *, *, #641, .T. ) ;
#175 = AXIS2_PLACEMENT_3D ( 'NONE', #173, #273, #1307 ) ;
#176 = EDGE_LOOP ( 'NONE', ( #226, #1201, #1053, #772, #494, #1005, #1080, #881 ) ) ;
#177 = CARTESIAN_POINT ( 'NONE',  ( 444.9473055166499762, -50.02175833399999050, 118.9638762099999951 ) ) ;
#178 = AXIS2_PLACEMENT_3D ( 'NONE', #432, #248, #538 ) ;
#179 = CIRCLE ( 'NONE', #1321, 2.749999999999974687 ) ;
#180 = EDGE_CURVE ( 'NONE', #4, #1224, #53, .T. ) ;
#181 = DIRECTION ( 'NONE',  ( 0.000000000000000000, 0.000000000000000000, 1.000000000000000000 ) ) ;
#182 = AXIS2_PLACEMENT_3D ( 'NONE', #576, #583, #47 ) ;
#183 = CARTESIAN_POINT ( 'NONE',  ( 441.9473043840000059, -580.7799999999999727, 158.9638762099999951 ) ) ;
#184 = VERTEX_POINT ( 'NONE', #1312 ) ;
#185 = EDGE_LOOP ( 'NONE', ( #505, #147 ) ) ;
#186 = CYLINDRICAL_SURFACE ( 'NONE', #1084, 2.749999999999974687 ) ;
#187 = FACE_BOUND ( 'NONE', #738, .T. ) ;
#188 = DIRECTION ( 'NONE',  ( -0.000000000000000000, -1.000000000000000000, -0.000000000000000000 ) ) ;
#189 = ORIENTED_EDGE ( 'NONE', *, *, #1231, .T. ) ;
#190 = EDGE_CURVE ( 'NONE', #403, #963, #1008, .T. ) ;
#191 = ORIENTED_EDGE ( 'NONE', *, *, #973, .T. ) ;
#192 = PLANE ( 'NONE',  #1255 ) ;
#193 = DIRECTION ( 'NONE',  ( 0.000000000000000000, 1.000000000000000000, 0.000000000000000000 ) ) ;
#194 = LINE ( 'NONE', #1018, #825 ) ;
#195 = CARTESIAN_POINT ( 'NONE',  ( 469.9473067929999957, -50.12175833400009850, 155.9638762099999951 ) ) ;
#196 = EDGE_CURVE ( 'NONE', #142, #403, #808, .T. ) ;
#197 = ADVANCED_FACE ( 'NONE', ( #1077 ), #369, .F. ) ;
#198 = EDGE_LOOP ( 'NONE', ( #402, #287, #1243, #189 ) ) ;
#199 = DIRECTION ( 'NONE',  ( 0.000000000000000000, 0.000000000000000000, 1.000000000000000000 ) ) ;
#200 = VECTOR ( 'NONE', #1325, 1000.000000000000000 ) ;
#201 = SURFACE_SIDE_STYLE ('',( #416 ) ) ;
#202 = VECTOR ( 'NONE', #116, 1000.000000000000000 ) ;
#203 = DIRECTION ( 'NONE',  ( 1.000000000000000000, 0.000000000000000000, 0.000000000000000000 ) ) ;
#204 = VERTEX_POINT ( 'NONE', #482 ) ;
#205 = AXIS2_PLACEMENT_3D ( 'NONE', #656, #962, #648 ) ;
#206 = EDGE_CURVE ( 'NONE', #1203, #1295, #378, .T. ) ;
#207 = EDGE_LOOP ( 'NONE', ( #939, #912, #645, #1315 ) ) ;
#208 = CARTESIAN_POINT ( 'NONE',  ( 444.9473055166499762, -1346.978241665999803, 158.9638762099999951 ) ) ;
#209 = FACE_BOUND ( 'NONE', #1304, .T. ) ;
#210 = VERTEX_POINT ( 'NONE', #883 ) ;
#211 = ORIENTED_EDGE ( 'NONE', *, *, #1289, .T. ) ;
#212 = DIRECTION ( 'NONE',  ( 0.000000000000000000, 0.000000000000000000, 1.000000000000000000 ) ) ;
#213 = CARTESIAN_POINT ( 'NONE',  ( 450.9473067930000525, -448.5000000000000000, 158.9638762099999951 ) ) ;
#214 = ADVANCED_FACE ( 'NONE', ( #786 ), #568, .F. ) ;
#215 = ORIENTED_EDGE ( 'NONE', *, *, #668, .F. ) ;
#216 = ORIENTED_EDGE ( 'NONE', *, *, #858, .F. ) ;
#217 = CARTESIAN_POINT ( 'NONE',  ( 450.9473067930000525, -448.5000000000000000, 153.9638762099999951 ) ) ;
#218 = DIRECTION ( 'NONE',  ( 0.000000000000000000, 0.000000000000000000, 1.000000000000000000 ) ) ;
#219 = EDGE_CURVE ( 'NONE', #61, #497, #272, .T. ) ;
#220 = ORIENTED_EDGE ( 'NONE', *, *, #931, .F. ) ;
#221 = VECTOR ( 'NONE', #1169, 1000.000000000000000 ) ;
#222 = CARTESIAN_POINT ( 'NONE',  ( 441.9473043840000059, -533.0000000000000000, 155.9638762099999951 ) ) ;
#223 = CIRCLE ( 'NONE', #398, 6.000000000000005329 ) ;
#224 = VECTOR ( 'NONE', #942, 1000.000000000000000 ) ;
#225 = VECTOR ( 'NONE', #1211, 1000.000000000000000 ) ;
#226 = ORIENTED_EDGE ( 'NONE', *, *, #779, .F. ) ;
#227 = LINE ( 'NONE', #955, #202 ) ;
#228 = DIRECTION ( 'NONE',  ( 0.000000000000000000, 1.000000000000000000, 0.000000000000000000 ) ) ;
#229 = PRODUCT_DEFINITION_CONTEXT ( 'detailed design', #104, 'design' ) ;
#230 = LINE ( 'NONE', #852, #1082 ) ;
#231 = FACE_OUTER_BOUND ( 'NONE', #1120, .T. ) ;
#232 = VERTEX_POINT ( 'NONE', #262 ) ;
#233 = PLANE ( 'NONE',  #769 ) ;
#234 = CARTESIAN_POINT ( 'NONE',  ( 450.9473067930000525, -168.4999999999999716, 158.9638762099999951 ) ) ;
#235 = CARTESIAN_POINT ( 'NONE',  ( 431.9473067929999957, -1346.978241665999803, 124.9638762100000093 ) ) ;
#236 = CYLINDRICAL_SURFACE ( 'NONE', #722, 3.000000000000002665 ) ;
#237 = EDGE_CURVE ( 'NONE', #388, #1295, #796, .T. ) ;
#238 = EDGE_LOOP ( 'NONE', ( #1128, #1043, #840, #63 ) ) ;
#239 =( NAMED_UNIT ( * ) PLANE_ANGLE_UNIT ( ) SI_UNIT ( $, .RADIAN. ) );
#240 = DIRECTION ( 'NONE',  ( 0.000000000000000000, 0.000000000000000000, 1.000000000000000000 ) ) ;
#241 = CARTESIAN_POINT ( 'NONE',  ( 0.000000000000000000, 0.000000000000000000, 0.000000000000000000 ) ) ;
#242 = FILL_AREA_STYLE_COLOUR ( '', #569 ) ;
#243 = AXIS2_PLACEMENT_3D ( 'NONE', #713, #401, #1123 ) ;
#244 = CARTESIAN_POINT ( 'NONE',  ( 425.9473067930000525, -50.02175833399999050, 182.9638762099999951 ) ) ;
#245 = VECTOR ( 'NONE', #457, 1000.000000000000000 ) ;
#246 = CIRCLE ( 'NONE', #46, 2.749999999999974687 ) ;
#247 = ORIENTED_EDGE ( 'NONE', *, *, #320, .T. ) ;
#248 = DIRECTION ( 'NONE',  ( 0.000000000000000000, 1.000000000000000000, 0.000000000000000000 ) ) ;
#249 = EDGE_CURVE ( 'NONE', #619, #1096, #917, .T. ) ;
#250 = LINE ( 'NONE', #8, #983 ) ;
#251 = FILL_AREA_STYLE_COLOUR ( '', #288 ) ;
#252 = CARTESIAN_POINT ( 'NONE',  ( 340.9473067929999957, -1346.978241665999803, 118.9638762099999951 ) ) ;
#253 = VERTEX_POINT ( 'NONE', #597 ) ;
#254 = EDGE_CURVE ( 'NONE', #1323, #812, #59, .T. ) ;
#255 = LINE ( 'NONE', #693, #592 ) ;
#256 = EDGE_CURVE ( 'NONE', #903, #392, #1011, .T. ) ;
#257 = DIRECTION ( 'NONE',  ( 0.000000000000000000, -1.000000000000000000, 0.000000000000000000 ) ) ;
#258 = CARTESIAN_POINT ( 'NONE',  ( 340.9473067929999957, -1346.978241665999803, 118.9638762099999951 ) ) ;
#259 = DIRECTION ( 'NONE',  ( 0.000000000000000000, -1.000000000000000000, 0.000000000000000000 ) ) ;
#260 = ORIENTED_EDGE ( 'NONE', *, *, #774, .F. ) ;
#261 = DIRECTION ( 'NONE',  ( 1.000000000000000000, 0.000000000000000000, 0.000000000000000000 ) ) ;
#262 = CARTESIAN_POINT ( 'NONE',  ( 469.9473067929999957, -50.02175833399991234, 158.9638762099999951 ) ) ;
#263 = CARTESIAN_POINT ( 'NONE',  ( 472.9473067929999957, -1224.121758333999878, 123.9638762100000093 ) ) ;
#264 = ORIENTED_EDGE ( 'NONE', *, *, #1000, .T. ) ;
#265 = VECTOR ( 'NONE', #193, 1000.000000000000000 ) ;
#266 = CARTESIAN_POINT ( 'NONE',  ( 450.9473067930000525, -168.4999999999999716, 158.9638762099999951 ) ) ;
#267 = VECTOR ( 'NONE', #341, 1000.000000000000000 ) ;
#268 = ORIENTED_EDGE ( 'NONE', *, *, #668, .T. ) ;
#269 = AXIS2_PLACEMENT_3D ( 'NONE', #559, #259, #565 ) ;
#270 = DIRECTION ( 'NONE',  ( 1.000000000000000000, 0.000000000000000000, 0.000000000000000000 ) ) ;
#271 = AXIS2_PLACEMENT_3D ( 'NONE', #235, #1160, #1278 ) ;
#272 = LINE ( 'NONE', #981, #595 ) ;
#273 = DIRECTION ( 'NONE',  ( 0.000000000000000000, 0.000000000000000000, 1.000000000000000000 ) ) ;
#274 = ORIENTED_EDGE ( 'NONE', *, *, #1072, .F. ) ;
#275 = ADVANCED_FACE ( 'NONE', ( #1284 ), #1199, .F. ) ;
#276 = DIRECTION ( 'NONE',  ( -0.000000000000000000, -0.000000000000000000, 1.000000000000000000 ) ) ;
#277 = EDGE_LOOP ( 'NONE', ( #34, #57, #137, #854 ) ) ;
#278 = CARTESIAN_POINT ( 'NONE',  ( 431.9473042402999567, -1346.978241665999803, 158.9638762099990004 ) ) ;
#279 = CARTESIAN_POINT ( 'NONE',  ( 460.9473067929999957, -1374.121758333999878, 118.9638762099999951 ) ) ;
#280 = DIRECTION ( 'NONE',  ( -0.000000000000000000, -0.000000000000000000, 1.000000000000000000 ) ) ;
#281 = ORIENTED_EDGE ( 'NONE', *, *, #21, .F. ) ;
#282 = EDGE_CURVE ( 'NONE', #1, #832, #490, .T. ) ;
#283 = ORIENTED_EDGE ( 'NONE', *, *, #237, .T. ) ;
#284 = CARTESIAN_POINT ( 'NONE',  ( 470.9473067929999957, -50.02175833399991234, 121.9638762100000093 ) ) ;
#285 = DIRECTION ( 'NONE',  ( 1.000000000000000000, 0.000000000000000000, 0.000000000000000000 ) ) ;
#286 = DIRECTION ( 'NONE',  ( 1.000000000000000000, 0.000000000000000000, 0.000000000000000000 ) ) ;
#287 = ORIENTED_EDGE ( 'NONE', *, *, #753, .T. ) ;
#288 = COLOUR_RGB ( '',0.6274509803921568540, 0.6274509803921568540, 0.6431372549019607199 ) ;
#289 = ORIENTED_EDGE ( 'NONE', *, *, #622, .F. ) ;
#290 = CARTESIAN_POINT ( 'NONE',  ( 456.9473055166499762, -50.02175833399999050, 158.9638762099999951 ) ) ;
#291 = AXIS2_PLACEMENT_3D ( 'NONE', #646, #1071, #28 ) ;
#292 = AXIS2_PLACEMENT_3D ( 'NONE', #480, #270, #785 ) ;
#293 = DIRECTION ( 'NONE',  ( 0.000000000000000000, -1.000000000000000000, 0.000000000000000000 ) ) ;
#294 = ADVANCED_FACE ( 'NONE', ( #1002 ), #780, .F. ) ;
#295 = CIRCLE ( 'NONE', #465, 3.000000000000002665 ) ;
#296 = CARTESIAN_POINT ( 'NONE',  ( 450.9473055166499762, -1346.978241665999803, 118.9638762099999951 ) ) ;
#297 = EDGE_LOOP ( 'NONE', ( #264, #1182, #977, #593 ) ) ;
#298 = ORIENTED_EDGE ( 'NONE', *, *, #563, .F. ) ;
#299 = CARTESIAN_POINT ( 'NONE',  ( 450.9473067930000525, -448.5000000000000000, 155.9638762099999951 ) ) ;
#300 = DIRECTION ( 'NONE',  ( 0.000000000000000000, 0.000000000000000000, 1.000000000000000000 ) ) ;
#301 = CARTESIAN_POINT ( 'NONE',  ( 431.9473067929999957, -1346.978241665999803, 118.9638762099999951 ) ) ;
#302 = ADVANCED_FACE ( 'NONE', ( #694 ), #1184, .F. ) ;
#303 = VERTEX_POINT ( 'NONE', #1240 ) ;
#304 = ORIENTED_EDGE ( 'NONE', *, *, #1283, .F. ) ;
#305 = LINE ( 'NONE', #1330, #528 ) ;
#306 = DIRECTION ( 'NONE',  ( 0.000000000000000000, -1.000000000000000000, 0.000000000000000000 ) ) ;
#307 = ORIENTED_EDGE ( 'NONE', *, *, #653, .T. ) ;
#308 = EDGE_LOOP ( 'NONE', ( #585, #92 ) ) ;
#309 = DIRECTION ( 'NONE',  ( -1.000000000000000000, 0.000000000000000000, 0.000000000000000000 ) ) ;
#310 = VECTOR ( 'NONE', #921, 1000.000000000000000 ) ;
#311 =( GEOMETRIC_REPRESENTATION_CONTEXT ( 3 ) GLOBAL_UNCERTAINTY_ASSIGNED_CONTEXT ( ( #118 ) ) GLOBAL_UNIT_ASSIGNED_CONTEXT ( ( #518, #829, #448 ) ) REPRESENTATION_CONTEXT ( 'NONE', 'WORKASPACE' ) );
#312 = FACE_OUTER_BOUND ( 'NONE', #75, .T. ) ;
#313 = EDGE_LOOP ( 'NONE', ( #560, #1019, #934, #492, #524, #875, #135, #817, #1303, #413, #790, #529 ) ) ;
#314 = ORIENTED_EDGE ( 'NONE', *, *, #456, .F. ) ;
#315 = CARTESIAN_POINT ( 'NONE',  ( 431.9473067929999957, -50.12175833400009850, 121.9638762100000093 ) ) ;
#316 = DIRECTION ( 'NONE',  ( 0.000000000000000000, 1.000000000000000000, 0.000000000000000000 ) ) ;
#317 = FACE_OUTER_BOUND ( 'NONE', #1100, .T. ) ;
#318 = ORIENTED_EDGE ( 'NONE', *, *, #915, .T. ) ;
#319 = ORIENTED_EDGE ( 'NONE', *, *, #1332, .T. ) ;
#320 = EDGE_CURVE ( 'NONE', #101, #1, #938, .T. ) ;
#321 = CARTESIAN_POINT ( 'NONE',  ( 450.9473067930000525, -948.5000000000000000, 158.9638762099999951 ) ) ;
#322 = ORIENTED_EDGE ( 'NONE', *, *, #111, .F. ) ;
#323 = DIRECTION ( 'NONE',  ( 0.000000000000000000, -1.000000000000000000, 0.000000000000000000 ) ) ;
#324 = EDGE_LOOP ( 'NONE', ( #10, #901, #809, #806 ) ) ;
#325 = DIRECTION ( 'NONE',  ( 0.000000000000000000, 0.000000000000000000, 1.000000000000000000 ) ) ;
#326 = EDGE_LOOP ( 'NONE', ( #382, #386, #1146, #1292 ) ) ;
#327 = FACE_OUTER_BOUND ( 'NONE', #297, .T. ) ;
#328 = VECTOR ( 'NONE', #338, 1000.000000000000000 ) ;
#329 = AXIS2_PLACEMENT_3D ( 'NONE', #748, #1161, #435 ) ;
#330 = EDGE_CURVE ( 'NONE', #1162, #798, #154, .T. ) ;
#331 = CARTESIAN_POINT ( 'NONE',  ( 456.9473055166499762, -1346.978241665999803, 118.9638762099999951 ) ) ;
#332 = LINE ( 'NONE', #222, #616 ) ;
#333 = AXIS2_PLACEMENT_3D ( 'NONE', #807, #1116, #309 ) ;
#334 = ORIENTED_EDGE ( 'NONE', *, *, #1210, .F. ) ;
#335 = CARTESIAN_POINT ( 'NONE',  ( 472.9473067929999957, -1346.978241665999803, 123.9638762100000093 ) ) ;
#336 = FACE_OUTER_BOUND ( 'NONE', #521, .T. ) ;
#337 = ADVANCED_FACE ( 'NONE', ( #823 ), #729, .T. ) ;
#338 = DIRECTION ( 'NONE',  ( 0.000000000000000000, 0.000000000000000000, -1.000000000000000000 ) ) ;
#339 = ADVANCED_FACE ( 'NONE', ( #1137 ), #723, .F. ) ;
#340 = ORIENTED_EDGE ( 'NONE', *, *, #387, .T. ) ;
#341 = DIRECTION ( 'NONE',  ( 0.000000000000000000, 1.000000000000000000, 0.000000000000000000 ) ) ;
#342 = CARTESIAN_POINT ( 'NONE',  ( 475.9473067929999957, -1346.978241665999803, 124.9638762100000093 ) ) ;
#343 = APPLICATION_CONTEXT ( 'automotive_design' ) ;
#344 = DIRECTION ( 'NONE',  ( 0.000000000000000000, 0.000000000000000000, 1.000000000000000000 ) ) ;
#345 = FILL_AREA_STYLE ('',( #1152 ) ) ;
#346 = DIRECTION ( 'NONE',  ( -0.000000000000000000, -0.000000000000000000, 1.000000000000000000 ) ) ;
#347 = SURFACE_STYLE_FILL_AREA ( #1073 ) ;
#348 = PRESENTATION_LAYER_ASSIGNMENT (  '', '', ( #1338 ) ) ;
#349 = CARTESIAN_POINT ( 'NONE',  ( 431.9473067929999957, -1224.121758333999878, 124.9638762100000093 ) ) ;
#350 = STYLED_ITEM ( 'NONE', ( #514 ), #422 ) ;
#351 = VECTOR ( 'NONE', #1022, 1000.000000000000000 ) ;
#352 = DIRECTION ( 'NONE',  ( -0.000000000000000000, -0.000000000000000000, 1.000000000000000000 ) ) ;
#353 =( GEOMETRIC_REPRESENTATION_CONTEXT ( 3 ) GLOBAL_UNCERTAINTY_ASSIGNED_CONTEXT ( ( #433 ) ) GLOBAL_UNIT_ASSIGNED_CONTEXT ( ( #437, #239, #447 ) ) REPRESENTATION_CONTEXT ( 'NONE', 'WORKASPACE' ) );
#354 = PRESENTATION_LAYER_ASSIGNMENT (  '', '', ( #1322 ) ) ;
#355 = EDGE_CURVE ( 'NONE', #542, #586, #396, .T. ) ;
#356 = ORIENTED_EDGE ( 'NONE', *, *, #630, .T. ) ;
#357 = CARTESIAN_POINT ( 'NONE',  ( 425.9473067930000525, -1346.978241665999803, 152.9638762099999951 ) ) ;
#358 = CARTESIAN_POINT ( 'NONE',  ( 432.9473043839999491, -533.0000000000000000, 155.9638762099999951 ) ) ;
#359 = CARTESIAN_POINT ( 'NONE',  ( 448.1973067930000525, -948.5000000000000000, 158.9638762099999951 ) ) ;
#360 = CARTESIAN_POINT ( 'NONE',  ( 450.9473067930000525, -948.5000000000000000, 153.9638762099999951 ) ) ;
#361 = EDGE_LOOP ( 'NONE', ( #71, #928, #1059, #531 ) ) ;
#362 = DIRECTION ( 'NONE',  ( 1.000000000000000000, 0.000000000000000000, 0.000000000000000000 ) ) ;
#363 = DIRECTION ( 'NONE',  ( 0.000000000000000000, -0.000000000000000000, 1.000000000000000000 ) ) ;
#364 = CARTESIAN_POINT ( 'NONE',  ( 450.9473055166499762, -50.02175833399995497, 118.9638762099999951 ) ) ;
#365 = ORIENTED_EDGE ( 'NONE', *, *, #1186, .T. ) ;
#366 = DIRECTION ( 'NONE',  ( 0.000000000000000000, -1.000000000000000000, 0.000000000000000000 ) ) ;
#367 = ORIENTED_EDGE ( 'NONE', *, *, #39, .T. ) ;
#368 = FACE_OUTER_BOUND ( 'NONE', #777, .T. ) ;
#369 = PLANE ( 'NONE',  #747 ) ;
#370 = LINE ( 'NONE', #60, #717 ) ;
#371 = EDGE_CURVE ( 'NONE', #798, #253, #606, .T. ) ;
#372 = VERTEX_POINT ( 'NONE', #1023 ) ;
#373 = CIRCLE ( 'NONE', #979, 5.999999999999991118 ) ;
#374 = DIRECTION ( 'NONE',  ( 0.000000000000000000, 1.000000000000000000, 0.000000000000000000 ) ) ;
#375 = COLOUR_RGB ( '',0.6274509803921568540, 0.6274509803921568540, 0.6431372549019607199 ) ;
#376 = ORIENTED_EDGE ( 'NONE', *, *, #839, .F. ) ;
#377 = CARTESIAN_POINT ( 'NONE',  ( 444.9473055166499762, -1346.978241665999803, 155.9638762099999951 ) ) ;
#378 = LINE ( 'NONE', #1290, #421 ) ;
#379 = PLANE ( 'NONE',  #545 ) ;
#380 = ORIENTED_EDGE ( 'NONE', *, *, #709, .F. ) ;
#381 = ADVANCED_FACE ( 'NONE', ( #312 ), #1029, .T. ) ;
#382 = ORIENTED_EDGE ( 'NONE', *, *, #180, .F. ) ;
#383 = CARTESIAN_POINT ( 'NONE',  ( 340.9473067929999957, -1346.978241665999803, 158.9638762099999951 ) ) ;
#384 = CARTESIAN_POINT ( 'NONE',  ( 450.9473055166499762, -50.02175833399995497, 118.9638762099999951 ) ) ;
#385 = LINE ( 'NONE', #893, #914 ) ;
#386 = ORIENTED_EDGE ( 'NONE', *, *, #1314, .T. ) ;
#387 = EDGE_CURVE ( 'NONE', #232, #794, #1318, .T. ) ;
#388 = VERTEX_POINT ( 'NONE', #1346 ) ;
#389 = DIRECTION ( 'NONE',  ( -0.000000000000000000, -1.000000000000000000, -0.000000000000000000 ) ) ;
#390 = CARTESIAN_POINT ( 'NONE',  ( 450.9473067930000525, -1228.500000000000000, 158.9638762099999951 ) ) ;
#391 = CARTESIAN_POINT ( 'NONE',  ( 472.9473067929999957, -50.02175833399999050, 123.9638762100000093 ) ) ;
#392 = VERTEX_POINT ( 'NONE', #911 ) ;
#393 = AXIS2_PLACEMENT_3D ( 'NONE', #100, #188, #816 ) ;
#394 = ORIENTED_EDGE ( 'NONE', *, *, #994, .F. ) ;
#395 = CARTESIAN_POINT ( 'NONE',  ( 431.9473061213000165, -50.02175833399991234, 155.9638762099999951 ) ) ;
#396 = CIRCLE ( 'NONE', #826, 6.000000000000005329 ) ;
#397 = EDGE_CURVE ( 'NONE', #419, #372, #1234, .T. ) ;
#398 = AXIS2_PLACEMENT_3D ( 'NONE', #99, #103, #904 ) ;
#399 = FILL_AREA_STYLE_COLOUR ( '', #525 ) ;
#400 = VECTOR ( 'NONE', #1098, 1000.000000000000000 ) ;
#401 = DIRECTION ( 'NONE',  ( -0.000000000000000000, -0.000000000000000000, 1.000000000000000000 ) ) ;
#402 = ORIENTED_EDGE ( 'NONE', *, *, #1113, .F. ) ;
#403 = VERTEX_POINT ( 'NONE', #835 ) ;
#404 = CARTESIAN_POINT ( 'NONE',  ( 470.9473067929999957, -1346.978241665999803, 123.9638762100000093 ) ) ;
#405 = DIRECTION ( 'NONE',  ( -0.000000000000000000, -0.000000000000000000, 1.000000000000000000 ) ) ;
#406 = ORIENTED_EDGE ( 'NONE', *, *, #949, .T. ) ;
#407 = EDGE_LOOP ( 'NONE', ( #574, #681, #916, #516 ) ) ;
#408 = CARTESIAN_POINT ( 'NONE',  ( 460.9473067929999957, -1346.978241665999803, 121.9638762100000093 ) ) ;
#409 = DIRECTION ( 'NONE',  ( 0.000000000000000000, 1.000000000000000000, 0.000000000000000000 ) ) ;
#410 = EDGE_CURVE ( 'NONE', #392, #827, #485, .T. ) ;
#411 = DIRECTION ( 'NONE',  ( 0.000000000000000000, 0.000000000000000000, 1.000000000000000000 ) ) ;
#412 = VERTEX_POINT ( 'NONE', #425 ) ;
#413 = ORIENTED_EDGE ( 'NONE', *, *, #1263, .F. ) ;
#414 = CARTESIAN_POINT ( 'NONE',  ( 432.9473043839999491, -533.0000000000000000, 155.9638762099999951 ) ) ;
#415 = CIRCLE ( 'NONE', #175, 2.749999999999974687 ) ;
#416 = SURFACE_STYLE_FILL_AREA ( #617 ) ;
#417 = VECTOR ( 'NONE', #1275, 1000.000000000000000 ) ;
#418 = DIRECTION ( 'NONE',  ( 0.000000000000000000, 0.000000000000000000, 1.000000000000000000 ) ) ;
#419 = VERTEX_POINT ( 'NONE', #1226 ) ;
#420 = VECTOR ( 'NONE', #865, 1000.000000000000000 ) ;
#421 = VECTOR ( 'NONE', #995, 1000.000000000000000 ) ;
#422 = ADVANCED_FACE ( 'NONE', ( #187, #1130, #209, #1336, #509, #602 ), #1122, .F. ) ;
#423 = VERTEX_POINT ( 'NONE', #544 ) ;
#424 = DIRECTION ( 'NONE',  ( 1.000000000000000000, 0.000000000000000000, 0.000000000000000000 ) ) ;
#425 = CARTESIAN_POINT ( 'NONE',  ( 448.1973067930000525, -168.4999999999999716, 158.9638762099999951 ) ) ;
#426 = ORIENTED_EDGE ( 'NONE', *, *, #1178, .F. ) ;
#427 = PRODUCT ( 'XH-YJ38-LJ-003-A0-底盘方通-右', 'XH-YJ38-LJ-003-A0-底盘方通-右', '', ( #836 ) ) ;
#428 =( NAMED_UNIT ( * ) SI_UNIT ( $, .STERADIAN. ) SOLID_ANGLE_UNIT ( ) );
#429 = ORIENTED_EDGE ( 'NONE', *, *, #499, .T. ) ;
#430 = PRESENTATION_STYLE_ASSIGNMENT (( #1158 ) ) ;
#431 = EDGE_CURVE ( 'NONE', #419, #467, #1106, .T. ) ;
#432 = CARTESIAN_POINT ( 'NONE',  ( 469.9473067929999957, -50.02175833399991234, 152.9638762099999951 ) ) ;
#433 = UNCERTAINTY_MEASURE_WITH_UNIT (LENGTH_MEASURE( 1.000000000000000082E-05 ), #437, 'distance_accuracy_value', 'NONE');
#434 = CARTESIAN_POINT ( 'NONE',  ( 448.1973067930000525, -1228.500000000000000, 155.9638762099999951 ) ) ;
#435 = DIRECTION ( 'NONE',  ( 1.000000000000000000, 0.000000000000000000, 0.000000000000000000 ) ) ;
#436 = VERTEX_POINT ( 'NONE', #1256 ) ;
#437 =( LENGTH_UNIT ( ) NAMED_UNIT ( * ) SI_UNIT ( .MILLI., .METRE. ) );
#438 = ADVANCED_FACE ( 'NONE', ( #336 ), #867, .T. ) ;
#439 = DIRECTION ( 'NONE',  ( 0.000000000000000000, 0.000000000000000000, -1.000000000000000000 ) ) ;
#440 = EDGE_CURVE ( 'NONE', #998, #412, #810, .T. ) ;
#441 = CIRCLE ( 'NONE', #393, 5.999999999999991118 ) ;
#442 = DIRECTION ( 'NONE',  ( 0.000000000000000000, -0.000000000000000000, 1.000000000000000000 ) ) ;
#443 = VECTOR ( 'NONE', #52, 1000.000000000000000 ) ;
#444 = SURFACE_SIDE_STYLE ('',( #14 ) ) ;
#445 = CIRCLE ( 'NONE', #113, 2.999999999999988898 ) ;
#446 = ORIENTED_EDGE ( 'NONE', *, *, #541, .T. ) ;
#447 =( NAMED_UNIT ( * ) SI_UNIT ( $, .STERADIAN. ) SOLID_ANGLE_UNIT ( ) );
#448 =( NAMED_UNIT ( * ) SI_UNIT ( $, .STERADIAN. ) SOLID_ANGLE_UNIT ( ) );
#449 =( NAMED_UNIT ( * ) SI_UNIT ( $, .STERADIAN. ) SOLID_ANGLE_UNIT ( ) );
#450 = VERTEX_POINT ( 'NONE', #555 ) ;
#451 = DIRECTION ( 'NONE',  ( -1.000000000000000000, 0.000000000000000000, 0.000000000000000000 ) ) ;
#452 = ORIENTED_EDGE ( 'NONE', *, *, #799, .F. ) ;
#453 = CARTESIAN_POINT ( 'NONE',  ( 448.1973067930000525, -168.4999999999999716, 155.9638762099999951 ) ) ;
#454 = SURFACE_STYLE_USAGE ( .BOTH. , #1055 ) ;
#455 = FACE_OUTER_BOUND ( 'NONE', #238, .T. ) ;
#456 = EDGE_CURVE ( 'NONE', #458, #487, #1340, .T. ) ;
#457 = DIRECTION ( 'NONE',  ( 0.000000000000000000, 0.000000000000000000, 1.000000000000000000 ) ) ;
#458 = VERTEX_POINT ( 'NONE', #972 ) ;
#459 = CARTESIAN_POINT ( 'NONE',  ( 469.9473067929999957, -1346.978241665999803, 118.9638762099999951 ) ) ;
#460 = CARTESIAN_POINT ( 'NONE',  ( 470.9473067929999957, -1346.878241665999894, 121.9638762100000093 ) ) ;
#461 = PRESENTATION_LAYER_ASSIGNMENT (  '', '', ( #350 ) ) ;
#462 = VECTOR ( 'NONE', #501, 1000.000000000000000 ) ;
#463 = EDGE_CURVE ( 'NONE', #163, #303, #65, .T. ) ;
#464 = DIRECTION ( 'NONE',  ( 0.000000000000000000, 0.000000000000000000, 1.000000000000000000 ) ) ;
#465 = AXIS2_PLACEMENT_3D ( 'NONE', #168, #663, #1181 ) ;
#466 = VECTOR ( 'NONE', #257, 1000.000000000000000 ) ;
#467 = VERTEX_POINT ( 'NONE', #1066 ) ;
#468 = LINE ( 'NONE', #876, #870 ) ;
#469 = CARTESIAN_POINT ( 'NONE',  ( 425.9473067930000525, -50.12175833400009850, 124.9638762100000093 ) ) ;
#470 = CARTESIAN_POINT ( 'NONE',  ( 472.9473067929999957, -50.02175833399991234, 123.9638762100000093 ) ) ;
#471 = CARTESIAN_POINT ( 'NONE',  ( 432.9473043839999491, -580.7799999999999727, 155.9638762099999951 ) ) ;
#472 = VERTEX_POINT ( 'NONE', #453 ) ;
#473 = DIRECTION ( 'NONE',  ( 1.000000000000000000, -0.000000000000000000, 0.000000000000000000 ) ) ;
#474 = ADVANCED_FACE ( 'NONE', ( #751 ), #1142, .T. ) ;
#475 = DIRECTION ( 'NONE',  ( 0.000000000000000000, 0.000000000000000000, -1.000000000000000000 ) ) ;
#476 = CARTESIAN_POINT ( 'NONE',  ( 469.9473067929999957, -1346.978241665999803, 124.9638762100000093 ) ) ;
#477 = ORIENTED_EDGE ( 'NONE', *, *, #851, .T. ) ;
#478 = CARTESIAN_POINT ( 'NONE',  ( 453.6973067929999957, -448.5000000000000000, 155.9638762099999951 ) ) ;
#479 = EDGE_LOOP ( 'NONE', ( #735, #566, #1189, #1216 ) ) ;
#480 = CARTESIAN_POINT ( 'NONE',  ( 425.9473067930000525, -1374.121758333999878, 123.9638762100000093 ) ) ;
#481 = ADVANCED_FACE ( 'NONE', ( #327 ), #744, .F. ) ;
#482 = CARTESIAN_POINT ( 'NONE',  ( 453.6973067929999957, -948.5000000000000000, 158.9638762099999951 ) ) ;
#483 = DIRECTION ( 'NONE',  ( 0.000000000000000000, 0.000000000000000000, -1.000000000000000000 ) ) ;
#484 = VERTEX_POINT ( 'NONE', #958 ) ;
#485 = CIRCLE ( 'NONE', #109, 2.749999999999974687 ) ;
#486 = AXIS2_PLACEMENT_3D ( 'NONE', #882, #58, #1288 ) ;
#487 = VERTEX_POINT ( 'NONE', #138 ) ;
#488 = VECTOR ( 'NONE', #905, 1000.000000000000000 ) ;
#489 = DIRECTION ( 'NONE',  ( -1.000000000000000000, 0.000000000000000000, 0.000000000000000000 ) ) ;
#490 = LINE ( 'NONE', #67, #1250 ) ;
#491 = DIRECTION ( 'NONE',  ( 0.000000000000000000, 0.000000000000000000, 1.000000000000000000 ) ) ;
#492 = ORIENTED_EDGE ( 'NONE', *, *, #282, .F. ) ;
#493 = ADVANCED_FACE ( 'NONE', ( #117 ), #22, .T. ) ;
#494 = ORIENTED_EDGE ( 'NONE', *, *, #249, .F. ) ;
#495 = DIRECTION ( 'NONE',  ( 0.000000000000000000, 0.000000000000000000, -1.000000000000000000 ) ) ;
#496 = CARTESIAN_POINT ( 'NONE',  ( 453.6973067929999957, -448.5000000000000000, 153.9638762099999951 ) ) ;
#497 = VERTEX_POINT ( 'NONE', #861 ) ;
#498 = EDGE_CURVE ( 'NONE', #1036, #827, #966, .T. ) ;
#499 = EDGE_CURVE ( 'NONE', #484, #204, #124, .T. ) ;
#500 = ORIENTED_EDGE ( 'NONE', *, *, #355, .F. ) ;
#501 = DIRECTION ( 'NONE',  ( -1.000000000000000000, 0.000000000000000000, 0.000000000000000000 ) ) ;
#502 = DIRECTION ( 'NONE',  ( 0.000000000000000000, 0.000000000000000000, -1.000000000000000000 ) ) ;
#503 = VERTEX_POINT ( 'NONE', #459 ) ;
#504 = CIRCLE ( 'NONE', #548, 2.749999999999974687 ) ;
#505 = ORIENTED_EDGE ( 'NONE', *, *, #755, .F. ) ;
#506 = DIRECTION ( 'NONE',  ( -0.000000000000000000, -0.000000000000000000, 1.000000000000000000 ) ) ;
#507 = AXIS2_PLACEMENT_3D ( 'NONE', #279, #1205, #588 ) ;
#508 = CIRCLE ( 'NONE', #333, 6.000000000000005329 ) ;
#509 = FACE_BOUND ( 'NONE', #1187, .T. ) ;
#510 =( LENGTH_UNIT ( ) NAMED_UNIT ( * ) SI_UNIT ( .MILLI., .METRE. ) );
#511 = DIRECTION ( 'NONE',  ( 0.000000000000000000, -1.000000000000000000, 0.000000000000000000 ) ) ;
#512 = ORIENTED_EDGE ( 'NONE', *, *, #1239, .F. ) ;
#513 = LINE ( 'NONE', #1129, #811 ) ;
#514 = PRESENTATION_STYLE_ASSIGNMENT (( #624 ) ) ;
#515 = ORIENTED_EDGE ( 'NONE', *, *, #249, .T. ) ;
#516 = ORIENTED_EDGE ( 'NONE', *, *, #410, .T. ) ;
#517 = CARTESIAN_POINT ( 'NONE',  ( 450.9473067930000525, -1228.500000000000000, 158.9638762099999951 ) ) ;
#518 =( LENGTH_UNIT ( ) NAMED_UNIT ( * ) SI_UNIT ( .MILLI., .METRE. ) );
#519 = EDGE_CURVE ( 'NONE', #1115, #204, #546, .T. ) ;
#520 = ORIENTED_EDGE ( 'NONE', *, *, #371, .F. ) ;
#521 = EDGE_LOOP ( 'NONE', ( #552, #950, #1241, #536 ) ) ;
#522 = FACE_BOUND ( 'NONE', #308, .T. ) ;
#523 = VECTOR ( 'NONE', #878, 1000.000000000000000 ) ;
#524 = ORIENTED_EDGE ( 'NONE', *, *, #1127, .F. ) ;
#525 = COLOUR_RGB ( '',0.6274509803921568540, 0.6274509803921568540, 0.6431372549019607199 ) ;
#526 =( GEOMETRIC_REPRESENTATION_CONTEXT ( 3 ) GLOBAL_UNCERTAINTY_ASSIGNED_CONTEXT ( ( #849 ) ) GLOBAL_UNIT_ASSIGNED_CONTEXT ( ( #1235, #906, #702 ) ) REPRESENTATION_CONTEXT ( 'NONE', 'WORKASPACE' ) );
#527 = DIRECTION ( 'NONE',  ( 0.000000000000000000, 0.000000000000000000, -1.000000000000000000 ) ) ;
#528 = VECTOR ( 'NONE', #727, 1000.000000000000000 ) ;
#529 = ORIENTED_EDGE ( 'NONE', *, *, #535, .F. ) ;
#530 = EDGE_CURVE ( 'NONE', #542, #1334, #842, .T. ) ;
#531 = ORIENTED_EDGE ( 'NONE', *, *, #1136, .F. ) ;
#532 = CARTESIAN_POINT ( 'NONE',  ( 441.9473043840000059, -580.7799999999999727, 155.9638762099999951 ) ) ;
#533 = DIRECTION ( 'NONE',  ( 0.000000000000000000, 0.000000000000000000, 1.000000000000000000 ) ) ;
#534 = FACE_OUTER_BOUND ( 'NONE', #108, .T. ) ;
#535 = EDGE_CURVE ( 'NONE', #643, #163, #1054, .T. ) ;
#536 = ORIENTED_EDGE ( 'NONE', *, *, #355, .T. ) ;
#537 = CARTESIAN_POINT ( 'NONE',  ( 444.9473055166499762, -1346.978241665999803, 118.9638762099999951 ) ) ;
#538 = DIRECTION ( 'NONE',  ( 0.000000000000000000, 0.000000000000000000, 1.000000000000000000 ) ) ;
#539 = DIRECTION ( 'NONE',  ( 0.000000000000000000, 0.000000000000000000, 1.000000000000000000 ) ) ;
#540 = DIRECTION ( 'NONE',  ( 0.000000000000000000, -1.000000000000000000, 0.000000000000000000 ) ) ;
#541 = EDGE_CURVE ( 'NONE', #782, #484, #179, .T. ) ;
#542 = VERTEX_POINT ( 'NONE', #357 ) ;
#543 = DIRECTION ( 'NONE',  ( 1.000000000000000000, 0.000000000000000000, 0.000000000000000000 ) ) ;
#544 = CARTESIAN_POINT ( 'NONE',  ( 469.9473067929999957, -1346.978241665999803, 155.9638762099999951 ) ) ;
#545 = AXIS2_PLACEMENT_3D ( 'NONE', #37, #1206, #286 ) ;
#546 = CIRCLE ( 'NONE', #718, 2.749999999999974687 ) ;
#547 = APPLICATION_PROTOCOL_DEFINITION ( 'draft international standard', 'automotive_design', 1998, #104 ) ;
#548 = AXIS2_PLACEMENT_3D ( 'NONE', #1200, #584, #160 ) ;
#549 = DIRECTION ( 'NONE',  ( 0.000000000000000000, 0.000000000000000000, -1.000000000000000000 ) ) ;
#550 = VECTOR ( 'NONE', #1121, 1000.000000000000000 ) ;
#551 = CARTESIAN_POINT ( 'NONE',  ( 456.9473055166499762, -50.02175833399999050, 118.9638762099999951 ) ) ;
#552 = ORIENTED_EDGE ( 'NONE', *, *, #760, .F. ) ;
#553 = CYLINDRICAL_SURFACE ( 'NONE', #1046, 6.000000000000005329 ) ;
#554 = VERTEX_POINT ( 'NONE', #377 ) ;
#555 = CARTESIAN_POINT ( 'NONE',  ( 431.9473067929999957, -50.02175833399991234, 118.9638762099999951 ) ) ;
#556 = EDGE_CURVE ( 'NONE', #632, #1041, #795, .T. ) ;
#557 = CARTESIAN_POINT ( 'NONE',  ( 475.9473067929999957, -50.12175833400009850, 152.9638762099999951 ) ) ;
#558 = DIRECTION ( 'NONE',  ( -1.000000000000000000, 0.000000000000000000, 0.000000000000000000 ) ) ;
#559 = CARTESIAN_POINT ( 'NONE',  ( 469.9473067929999957, -1374.121758333999878, 152.9638762099999951 ) ) ;
#560 = ORIENTED_EDGE ( 'NONE', *, *, #1145, .F. ) ;
#561 = CARTESIAN_POINT ( 'NONE',  ( 460.9473067929999957, -1374.121758333999878, 158.9638762099999951 ) ) ;
#562 = LINE ( 'NONE', #869, #1047 ) ;
#563 = EDGE_CURVE ( 'NONE', #827, #392, #66, .T. ) ;
#564 =( NAMED_UNIT ( * ) PLANE_ANGLE_UNIT ( ) SI_UNIT ( $, .RADIAN. ) );
#565 = DIRECTION ( 'NONE',  ( 0.000000000000000000, 0.000000000000000000, -1.000000000000000000 ) ) ;
#566 = ORIENTED_EDGE ( 'NONE', *, *, #779, .T. ) ;
#567 = CYLINDRICAL_SURFACE ( 'NONE', #486, 2.749999999999974687 ) ;
#568 = PLANE ( 'NONE',  #1171 ) ;
#569 = COLOUR_RGB ( '',0.4901960784313725283, 0.4901960784313725283, 0.5254901960784313930 ) ;
#570 = AXIS2_PLACEMENT_3D ( 'NONE', #263, #1279, #491 ) ;
#571 = CARTESIAN_POINT ( 'NONE',  ( 460.9473067929999957, -1346.978241665999803, 155.9638762099999951 ) ) ;
#572 = ADVANCED_FACE ( 'NONE', ( #1090 ), #567, .F. ) ;
#573 = DIRECTION ( 'NONE',  ( -1.000000000000000000, 0.000000000000000000, 0.000000000000000000 ) ) ;
#574 = ORIENTED_EDGE ( 'NONE', *, *, #498, .F. ) ;
#575 = DIRECTION ( 'NONE',  ( -1.000000000000000000, 0.000000000000000000, 0.000000000000000000 ) ) ;
#576 = CARTESIAN_POINT ( 'NONE',  ( 450.9473055166499762, -1346.978241665999803, 121.9638762100000093 ) ) ;
#577 = CARTESIAN_POINT ( 'NONE',  ( 456.9473055166499762, -50.02175833399999050, 118.9638762099999951 ) ) ;
#578 = VERTEX_POINT ( 'NONE', #148 ) ;
#579 = CARTESIAN_POINT ( 'NONE',  ( 450.9473067930000525, -448.5000000000000000, 155.9638762099999951 ) ) ;
#580 = EDGE_CURVE ( 'NONE', #578, #821, #1081, .T. ) ;
#581 = ORIENTED_EDGE ( 'NONE', *, *, #1314, .F. ) ;
#582 = DIRECTION ( 'NONE',  ( 1.000000000000000000, 0.000000000000000000, 0.000000000000000000 ) ) ;
#583 = DIRECTION ( 'NONE',  ( 0.000000000000000000, 0.000000000000000000, 1.000000000000000000 ) ) ;
#584 = DIRECTION ( 'NONE',  ( 0.000000000000000000, 0.000000000000000000, -1.000000000000000000 ) ) ;
#585 = ORIENTED_EDGE ( 'NONE', *, *, #805, .F. ) ;
#586 = VERTEX_POINT ( 'NONE', #278 ) ;
#587 = CARTESIAN_POINT ( 'NONE',  ( 450.9473067930000525, -948.5000000000000000, 155.9638762099999951 ) ) ;
#588 = DIRECTION ( 'NONE',  ( 0.000000000000000000, -1.000000000000000000, 0.000000000000000000 ) ) ;
#589 = DIRECTION ( 'NONE',  ( 0.000000000000000000, 0.000000000000000000, 1.000000000000000000 ) ) ;
#590 = ORIENTED_EDGE ( 'NONE', *, *, #902, .F. ) ;
#591 =( GEOMETRIC_REPRESENTATION_CONTEXT ( 3 ) GLOBAL_UNCERTAINTY_ASSIGNED_CONTEXT ( ( #1143 ) ) GLOBAL_UNIT_ASSIGNED_CONTEXT ( ( #510, #1327, #74 ) ) REPRESENTATION_CONTEXT ( 'NONE', 'WORKASPACE' ) );
#592 = VECTOR ( 'NONE', #1102, 1000.000000000000000 ) ;
#593 = ORIENTED_EDGE ( 'NONE', *, *, #499, .F. ) ;
#594 = AXIS2_PLACEMENT_3D ( 'NONE', #1280, #366, #873 ) ;
#595 = VECTOR ( 'NONE', #1091, 1000.000000000000000 ) ;
#596 = CARTESIAN_POINT ( 'NONE',  ( 450.9473055166499762, -1346.978241665999803, 155.9638762099999951 ) ) ;
#597 = CARTESIAN_POINT ( 'NONE',  ( 444.9473055166499762, -50.02175833399991234, 155.9638762099999951 ) ) ;
#598 = ADVANCED_FACE ( 'NONE', ( #368 ), #688, .F. ) ;
#599 = ORIENTED_EDGE ( 'NONE', *, *, #1040, .F. ) ;
#600 = ORIENTED_EDGE ( 'NONE', *, *, #612, .F. ) ;
#601 = PLANE ( 'NONE',  #637 ) ;
#602 = FACE_OUTER_BOUND ( 'NONE', #155, .T. ) ;
#603 = ORIENTED_EDGE ( 'NONE', *, *, #206, .T. ) ;
#604 = VERTEX_POINT ( 'NONE', #157 ) ;
#605 = LINE ( 'NONE', #408, #462 ) ;
#606 = LINE ( 'NONE', #629, #133 ) ;
#607 = CARTESIAN_POINT ( 'NONE',  ( 425.9473067930000525, -50.02175833399991234, 152.9638762099999951 ) ) ;
#608 = LINE ( 'NONE', #922, #20 ) ;
#609 = ADVANCED_FACE ( 'NONE', ( #1190 ), #682, .F. ) ;
#610 = AXIS2_PLACEMENT_3D ( 'NONE', #384, #802, #285 ) ;
#611 = CIRCLE ( 'NONE', #1251, 5.999999999999991118 ) ;
#612 = EDGE_CURVE ( 'NONE', #388, #6, #1282, .T. ) ;
#613 = ORIENTED_EDGE ( 'NONE', *, *, #753, .F. ) ;
#614 = DIRECTION ( 'NONE',  ( -1.000000000000000000, 0.000000000000000000, 0.000000000000000000 ) ) ;
#615 = VECTOR ( 'NONE', #136, 1000.000000000000000 ) ;
#616 = VECTOR ( 'NONE', #651, 1000.000000000000000 ) ;
#617 = FILL_AREA_STYLE ('',( #399 ) ) ;
#618 = FACE_OUTER_BOUND ( 'NONE', #824, .T. ) ;
#619 = VERTEX_POINT ( 'NONE', #993 ) ;
#620 = ORIENTED_EDGE ( 'NONE', *, *, #2, .T. ) ;
#621 = CARTESIAN_POINT ( 'NONE',  ( 444.9473055166499762, -50.02175833399999050, 118.9638762099999951 ) ) ;
#622 = EDGE_CURVE ( 'NONE', #554, #1070, #1045, .T. ) ;
#623 = PRODUCT_DEFINITION_SHAPE ( 'NONE', 'NONE',  #1133 ) ;
#624 = SURFACE_STYLE_USAGE ( .BOTH. , #201 ) ;
#625 = SURFACE_STYLE_FILL_AREA ( #1138 ) ;
#626 = ORIENTED_EDGE ( 'NONE', *, *, #908, .F. ) ;
#627 = ORIENTED_EDGE ( 'NONE', *, *, #196, .T. ) ;
#628 = FACE_OUTER_BOUND ( 'NONE', #1038, .T. ) ;
#629 = CARTESIAN_POINT ( 'NONE',  ( 460.9473067929999957, -50.02175833399991234, 155.9638762099999951 ) ) ;
#630 = EDGE_CURVE ( 'NONE', #762, #586, #897, .T. ) ;
#631 = ORIENTED_EDGE ( 'NONE', *, *, #1136, .T. ) ;
#632 = VERTEX_POINT ( 'NONE', #284 ) ;
#633 = DIRECTION ( 'NONE',  ( 0.000000000000000000, 0.000000000000000000, -1.000000000000000000 ) ) ;
#634 = COLOUR_RGB ( '',0.6509803921568627638, 0.6196078431372549211, 0.5882352941176470784 ) ;
#635 = ORIENTED_EDGE ( 'NONE', *, *, #678, .F. ) ;
#636 = AXIS2_PLACEMENT_3D ( 'NONE', #1061, #346, #1048 ) ;
#637 = AXIS2_PLACEMENT_3D ( 'NONE', #1324, #910, #199 ) ;
#638 = EDGE_LOOP ( 'NONE', ( #1197, #676 ) ) ;
#639 = CIRCLE ( 'NONE', #1276, 2.749999999999974687 ) ;
#640 = MECHANICAL_DESIGN_GEOMETRIC_PRESENTATION_REPRESENTATION (  '', ( #1322 ), #742 ) ;
#641 = EDGE_CURVE ( 'NONE', #907, #1114, #255, .T. ) ;
#642 = DIRECTION ( 'NONE',  ( 0.000000000000000000, 0.000000000000000000, -1.000000000000000000 ) ) ;
#643 = VERTEX_POINT ( 'NONE', #1010 ) ;
#644 = CARTESIAN_POINT ( 'NONE',  ( 431.9473042402999567, -50.02175833399999050, 158.9638762099990004 ) ) ;
#645 = ORIENTED_EDGE ( 'NONE', *, *, #874, .T. ) ;
#646 = CARTESIAN_POINT ( 'NONE',  ( 431.9473067929999957, -1374.121758333999878, 152.9638762099999951 ) ) ;
#647 = DIRECTION ( 'NONE',  ( 1.000000000000000000, 0.000000000000000000, 0.000000000000000000 ) ) ;
#648 = DIRECTION ( 'NONE',  ( -1.000000000000000000, 0.000000000000000000, 0.000000000000000000 ) ) ;
#649 = ORIENTED_EDGE ( 'NONE', *, *, #94, .T. ) ;
#650 =( LENGTH_UNIT ( ) NAMED_UNIT ( * ) SI_UNIT ( .MILLI., .METRE. ) );
#651 = DIRECTION ( 'NONE',  ( 0.000000000000000000, -1.000000000000000000, 0.000000000000000000 ) ) ;
#652 = ORIENTED_EDGE ( 'NONE', *, *, #530, .T. ) ;
#653 = EDGE_CURVE ( 'NONE', #604, #472, #1126, .T. ) ;
#654 = CARTESIAN_POINT ( 'NONE',  ( 469.9473067929999957, -1346.978241665999803, 152.9638762099999951 ) ) ;
#655 = VECTOR ( 'NONE', #871, 1000.000000000000000 ) ;
#656 = CARTESIAN_POINT ( 'NONE',  ( 450.9473067930000525, -948.5000000000000000, 155.9638762099999951 ) ) ;
#657 = ADVANCED_FACE ( 'NONE', ( #773 ), #978, .F. ) ;
#658 = ORIENTED_EDGE ( 'NONE', *, *, #1246, .F. ) ;
#659 = CARTESIAN_POINT ( 'NONE',  ( 453.6973067929999957, -948.5000000000000000, 153.9638762099999951 ) ) ;
#660 = EDGE_CURVE ( 'NONE', #1213, #436, #468, .T. ) ;
#661 = DIRECTION ( 'NONE',  ( 0.000000000000000000, 0.000000000000000000, -1.000000000000000000 ) ) ;
#662 = SURFACE_STYLE_USAGE ( .BOTH. , #444 ) ;
#663 = DIRECTION ( 'NONE',  ( -0.000000000000000000, -1.000000000000000000, -0.000000000000000000 ) ) ;
#664 = EDGE_LOOP ( 'NONE', ( #670, #927, #26, #334 ) ) ;
#665 = DIRECTION ( 'NONE',  ( -1.000000000000000000, 0.000000000000000000, 0.000000000000000000 ) ) ;
#666 = LINE ( 'NONE', #557, #466 ) ;
#667 = DIRECTION ( 'NONE',  ( 0.000000000000000000, 1.000000000000000000, 0.000000000000000000 ) ) ;
#668 = EDGE_CURVE ( 'NONE', #450, #578, #778, .T. ) ;
#669 = LINE ( 'NONE', #1272, #1170 ) ;
#670 = ORIENTED_EDGE ( 'NONE', *, *, #622, .T. ) ;
#671 = LINE ( 'NONE', #414, #550 ) ;
#672 = CARTESIAN_POINT ( 'NONE',  ( 470.9473067929999957, -1224.121758333999878, 123.9638762100000093 ) ) ;
#673 = EDGE_CURVE ( 'NONE', #6, #1203, #671, .T. ) ;
#674 = AXIS2_PLACEMENT_3D ( 'NONE', #1285, #789, #1099 ) ;
#675 = CARTESIAN_POINT ( 'NONE',  ( 428.9473067929999957, -1346.978241665999803, 152.9638762099999951 ) ) ;
#676 = ORIENTED_EDGE ( 'NONE', *, *, #541, .F. ) ;
#677 = PRODUCT_DEFINITION_FORMATION_WITH_SPECIFIED_SOURCE ( '任何', '', #427, .NOT_KNOWN. ) ;
#678 = EDGE_CURVE ( 'NONE', #691, #467, #1233, .T. ) ;
#679 = CIRCLE ( 'NONE', #43, 2.749999999999974687 ) ;
#680 = DIRECTION ( 'NONE',  ( -1.000000000000000000, 0.000000000000000000, 0.000000000000000000 ) ) ;
#681 = ORIENTED_EDGE ( 'NONE', *, *, #959, .T. ) ;
#682 = CYLINDRICAL_SURFACE ( 'NONE', #745, 6.000000000000005329 ) ;
#683 = CARTESIAN_POINT ( 'NONE',  ( 441.9473043840000059, -533.0000000000000000, 155.9638762099999951 ) ) ;
#684 = DIRECTION ( 'NONE',  ( 1.000000000000000000, -0.000000000000000000, 0.000000000000000000 ) ) ;
#685 = ORIENTED_EDGE ( 'NONE', *, *, #82, .T. ) ;
#686 = DIRECTION ( 'NONE',  ( 1.000000000000000000, 0.000000000000000000, 0.000000000000000000 ) ) ;
#687 = ORIENTED_EDGE ( 'NONE', *, *, #908, .T. ) ;
#688 = PLANE ( 'NONE',  #292 ) ;
#689 = DIRECTION ( 'NONE',  ( -1.000000000000000000, 0.000000000000000000, 0.000000000000000000 ) ) ;
#690 = LINE ( 'NONE', #460, #957 ) ;
#691 = VERTEX_POINT ( 'NONE', #918 ) ;
#692 = EDGE_LOOP ( 'NONE', ( #1168, #1237, #947, #725 ) ) ;
#693 = CARTESIAN_POINT ( 'NONE',  ( 432.9473043839999491, -580.7799999999999727, 158.9638762099999951 ) ) ;
#694 = FACE_OUTER_BOUND ( 'NONE', #198, .T. ) ;
#695 = CARTESIAN_POINT ( 'NONE',  ( 432.9473043839999491, -533.0000000000000000, 158.9638762099999951 ) ) ;
#696 = VERTEX_POINT ( 'NONE', #1016 ) ;
#697 = VECTOR ( 'NONE', #730, 1000.000000000000000 ) ;
#698 = VECTOR ( 'NONE', #1204, 1000.000000000000000 ) ;
#699 = ORIENTED_EDGE ( 'NONE', *, *, #1195, .F. ) ;
#700 = ADVANCED_FACE ( 'NONE', ( #93 ), #186, .F. ) ;
#701 = CARTESIAN_POINT ( 'NONE',  ( 475.9473067929999957, -1346.878241665999894, 124.9638762100000093 ) ) ;
#702 =( NAMED_UNIT ( * ) SI_UNIT ( $, .STERADIAN. ) SOLID_ANGLE_UNIT ( ) );
#703 = ORIENTED_EDGE ( 'NONE', *, *, #31, .T. ) ;
#704 = ORIENTED_EDGE ( 'NONE', *, *, #858, .T. ) ;
#705 = FACE_OUTER_BOUND ( 'NONE', #749, .T. ) ;
#706 = DIRECTION ( 'NONE',  ( 0.000000000000000000, 0.000000000000000000, 1.000000000000000000 ) ) ;
#707 = LINE ( 'NONE', #1218, #310 ) ;
#708 = CARTESIAN_POINT ( 'NONE',  ( 475.9473067929999957, -50.02175833399991234, 124.9638762100000093 ) ) ;
#709 = EDGE_CURVE ( 'NONE', #643, #253, #508, .T. ) ;
#710 = ORIENTED_EDGE ( 'NONE', *, *, #190, .T. ) ;
#711 = DIRECTION ( 'NONE',  ( 0.000000000000000000, 1.000000000000000000, 0.000000000000000000 ) ) ;
#712 = DIRECTION ( 'NONE',  ( 1.000000000000000000, 0.000000000000000000, 0.000000000000000000 ) ) ;
#713 = CARTESIAN_POINT ( 'NONE',  ( 450.9473067930000525, -168.4999999999999716, 153.9638762099999951 ) ) ;
#714 = ORIENTED_EDGE ( 'NONE', *, *, #709, .T. ) ;
#715 = EDGE_CURVE ( 'NONE', #6, #497, #305, .T. ) ;
#716 = EDGE_CURVE ( 'NONE', #77, #303, #1335, .T. ) ;
#717 = VECTOR ( 'NONE', #483, 1000.000000000000000 ) ;
#718 = AXIS2_PLACEMENT_3D ( 'NONE', #321, #533, #7 ) ;
#719 = ORIENTED_EDGE ( 'NONE', *, *, #282, .T. ) ;
#720 = CARTESIAN_POINT ( 'NONE',  ( 340.9473067929999957, -1346.978241665999803, 182.9638762099999951 ) ) ;
#721 = STYLED_ITEM ( 'NONE', ( #430 ), #864 ) ;
#722 = AXIS2_PLACEMENT_3D ( 'NONE', #349, #323, #968 ) ;
#723 = CYLINDRICAL_SURFACE ( 'NONE', #1150, 2.749999999999974687 ) ;
#724 = FILL_AREA_STYLE_COLOUR ( '', #634 ) ;
#725 = ORIENTED_EDGE ( 'NONE', *, *, #755, .T. ) ;
#726 = ORIENTED_EDGE ( 'NONE', *, *, #180, .T. ) ;
#727 = DIRECTION ( 'NONE',  ( 0.000000000000000000, -1.000000000000000000, 0.000000000000000000 ) ) ;
#728 = EDGE_CURVE ( 'NONE', #1096, #467, #605, .T. ) ;
#729 = PLANE ( 'NONE',  #1252 ) ;
#730 = DIRECTION ( 'NONE',  ( 1.000000000000000000, -0.000000000000000000, 0.000000000000000000 ) ) ;
#731 = ORIENTED_EDGE ( 'NONE', *, *, #820, .T. ) ;
#732 = ORIENTED_EDGE ( 'NONE', *, *, #874, .F. ) ;
#733 = LINE ( 'NONE', #532, #224 ) ;
#734 = ADVANCED_FACE ( 'NONE', ( #705 ), #192, .F. ) ;
#735 = ORIENTED_EDGE ( 'NONE', *, *, #580, .T. ) ;
#736 = DIRECTION ( 'NONE',  ( 0.000000000000000000, 1.000000000000000000, 0.000000000000000000 ) ) ;
#737 = ADVANCED_FACE ( 'NONE', ( #628 ), #601, .F. ) ;
#738 = EDGE_LOOP ( 'NONE', ( #1093, #1032 ) ) ;
#739 = CARTESIAN_POINT ( 'NONE',  ( 460.9473067929999957, -50.02175833399991234, 121.9638762100000093 ) ) ;
#740 = ORIENTED_EDGE ( 'NONE', *, *, #397, .F. ) ;
#741 = CARTESIAN_POINT ( 'NONE',  ( 475.9473067929999957, -50.02175833399999050, 152.9638762099999951 ) ) ;
#742 =( GEOMETRIC_REPRESENTATION_CONTEXT ( 3 ) GLOBAL_UNCERTAINTY_ASSIGNED_CONTEXT ( ( #1247 ) ) GLOBAL_UNIT_ASSIGNED_CONTEXT ( ( #650, #1062, #449 ) ) REPRESENTATION_CONTEXT ( 'NONE', 'WORKASPACE' ) );
#743 = CIRCLE ( 'NONE', #846, 6.000000000000005329 ) ;
#744 = CYLINDRICAL_SURFACE ( 'NONE', #636, 2.749999999999974687 ) ;
#745 = AXIS2_PLACEMENT_3D ( 'NONE', #1097, #164, #582 ) ;
#746 = PRESENTATION_STYLE_ASSIGNMENT (( #454 ) ) ;
#747 = AXIS2_PLACEMENT_3D ( 'NONE', #1104, #293, #475 ) ;
#748 = CARTESIAN_POINT ( 'NONE',  ( 450.9473067930000525, -168.4999999999999716, 153.9638762099999951 ) ) ;
#749 = EDGE_LOOP ( 'NONE', ( #784, #703, #18, #1021, #631, #1313, #319, #55, #356, #500, #954, #281 ) ) ;
#750 = FACE_BOUND ( 'NONE', #1310, .T. ) ;
#751 = FACE_OUTER_BOUND ( 'NONE', #313, .T. ) ;
#752 = CARTESIAN_POINT ( 'NONE',  ( 431.9473067929999957, -1374.121758333999878, 124.9638762100000093 ) ) ;
#753 = EDGE_CURVE ( 'NONE', #97, #812, #1299, .T. ) ;
#754 = DIRECTION ( 'NONE',  ( -0.000000000000000000, -1.000000000000000000, -0.000000000000000000 ) ) ;
#755 = EDGE_CURVE ( 'NONE', #963, #403, #679, .T. ) ;
#756 = ORIENTED_EDGE ( 'NONE', *, *, #410, .F. ) ;
#757 = DIRECTION ( 'NONE',  ( -0.000000000000000000, -0.000000000000000000, 1.000000000000000000 ) ) ;
#758 = CARTESIAN_POINT ( 'NONE',  ( 450.9473055166499762, -1346.978241665999803, 158.9638762099999951 ) ) ;
#759 = PRESENTATION_STYLE_ASSIGNMENT (( #662 ) ) ;
#760 = EDGE_CURVE ( 'NONE', #822, #586, #513, .T. ) ;
#761 = FACE_BOUND ( 'NONE', #1024, .T. ) ;
#762 = VERTEX_POINT ( 'NONE', #208 ) ;
#763 = DIRECTION ( 'NONE',  ( -0.000000000000000000, -1.000000000000000000, -0.000000000000000000 ) ) ;
#764 = MECHANICAL_DESIGN_GEOMETRIC_PRESENTATION_REPRESENTATION (  '', ( #38 ), #526 ) ;
#765 = VECTOR ( 'NONE', #1117, 1000.000000000000000 ) ;
#766 = CARTESIAN_POINT ( 'NONE',  ( 469.9473067929999957, -1346.978241665999803, 152.9638762099999951 ) ) ;
#767 = VECTOR ( 'NONE', #261, 1000.000000000000000 ) ;
#768 = FACE_OUTER_BOUND ( 'NONE', #207, .T. ) ;
#769 = AXIS2_PLACEMENT_3D ( 'NONE', #122, #1238, #1266 ) ;
#770 = CIRCLE ( 'NONE', #271, 5.999999999999991118 ) ;
#771 = CYLINDRICAL_SURFACE ( 'NONE', #594, 3.000000000000002665 ) ;
#772 = ORIENTED_EDGE ( 'NONE', *, *, #728, .F. ) ;
#773 = FACE_OUTER_BOUND ( 'NONE', #479, .T. ) ;
#774 = EDGE_CURVE ( 'NONE', #253, #1236, #1209, .T. ) ;
#775 = DIRECTION ( 'NONE',  ( 0.000000000000000000, 0.000000000000000000, -1.000000000000000000 ) ) ;
#776 = LINE ( 'NONE', #162, #45 ) ;
#777 = EDGE_LOOP ( 'NONE', ( #726, #1015, #652, #83 ) ) ;
#778 = LINE ( 'NONE', #1183, #767 ) ;
#779 = EDGE_CURVE ( 'NONE', #821, #1041, #223, .T. ) ;
#780 = CYLINDRICAL_SURFACE ( 'NONE', #610, 6.000000000000005329 ) ;
#781 = DIRECTION ( 'NONE',  ( 0.000000000000000000, 0.000000000000000000, 1.000000000000000000 ) ) ;
#782 = VERTEX_POINT ( 'NONE', #1311 ) ;
#783 = LINE ( 'NONE', #49, #420 ) ;
#784 = ORIENTED_EDGE ( 'NONE', *, *, #1195, .T. ) ;
#785 = DIRECTION ( 'NONE',  ( 0.000000000000000000, 0.000000000000000000, -1.000000000000000000 ) ) ;
#786 = FACE_OUTER_BOUND ( 'NONE', #989, .T. ) ;
#787 = AXIS2_PLACEMENT_3D ( 'NONE', #561, #439, #130 ) ;
#788 = AXIS2_PLACEMENT_3D ( 'NONE', #1056, #754, #1258 ) ;
#789 = DIRECTION ( 'NONE',  ( 0.000000000000000000, 1.000000000000000000, 0.000000000000000000 ) ) ;
#790 = ORIENTED_EDGE ( 'NONE', *, *, #463, .F. ) ;
#791 = VECTOR ( 'NONE', #1141, 1000.000000000000000 ) ;
#792 = CIRCLE ( 'NONE', #205, 2.749999999999974687 ) ;
#793 = FACE_OUTER_BOUND ( 'NONE', #894, .T. ) ;
#794 = VERTEX_POINT ( 'NONE', #290 ) ;
#795 = LINE ( 'NONE', #986, #443 ) ;
#796 = LINE ( 'NONE', #683, #1343 ) ;
#797 = CARTESIAN_POINT ( 'NONE',  ( 450.9473055166499762, -50.02175833399995497, 158.9638762099999951 ) ) ;
#798 = VERTEX_POINT ( 'NONE', #395 ) ;
#799 = EDGE_CURVE ( 'NONE', #142, #210, #1153, .T. ) ;
#800 = ORIENTED_EDGE ( 'NONE', *, *, #1239, .T. ) ;
#801 = DIRECTION ( 'NONE',  ( 1.000000000000000000, 0.000000000000000000, 0.000000000000000000 ) ) ;
#802 = DIRECTION ( 'NONE',  ( -0.000000000000000000, -0.000000000000000000, 1.000000000000000000 ) ) ;
#803 = CARTESIAN_POINT ( 'NONE',  ( 469.9473067929999957, -50.02175833399991234, 124.9638762100000093 ) ) ;
#804 = ORIENTED_EDGE ( 'NONE', *, *, #1326, .F. ) ;
#805 = EDGE_CURVE ( 'NONE', #903, #1036, #850, .T. ) ;
#806 = ORIENTED_EDGE ( 'NONE', *, *, #851, .F. ) ;
#807 = CARTESIAN_POINT ( 'NONE',  ( 450.9473055166499762, -50.02175833399995497, 155.9638762099999951 ) ) ;
#808 = LINE ( 'NONE', #898, #225 ) ;
#809 = ORIENTED_EDGE ( 'NONE', *, *, #254, .T. ) ;
#810 = CIRCLE ( 'NONE', #1042, 2.749999999999974687 ) ;
#811 = VECTOR ( 'NONE', #1217, 1000.000000000000000 ) ;
#812 = VERTEX_POINT ( 'NONE', #855 ) ;
#813 = VECTOR ( 'NONE', #689, 1000.000000000000000 ) ;
#814 = DIRECTION ( 'NONE',  ( -1.000000000000000000, 0.000000000000000000, 0.000000000000000000 ) ) ;
#815 = DIRECTION ( 'NONE',  ( 0.000000000000000000, -1.000000000000000000, 0.000000000000000000 ) ) ;
#816 = DIRECTION ( 'NONE',  ( 0.000000000000000000, 0.000000000000000000, 1.000000000000000000 ) ) ;
#817 = ORIENTED_EDGE ( 'NONE', *, *, #556, .F. ) ;
#818 = ORIENTED_EDGE ( 'NONE', *, *, #440, .T. ) ;
#819 = CARTESIAN_POINT ( 'NONE',  ( 469.9473067929999957, -1374.121758333999878, 124.9638762100000093 ) ) ;
#820 = EDGE_CURVE ( 'NONE', #458, #232, #948, .T. ) ;
#821 = VERTEX_POINT ( 'NONE', #19 ) ;
#822 = VERTEX_POINT ( 'NONE', #644 ) ;
#823 = FACE_OUTER_BOUND ( 'NONE', #361, .T. ) ;
#824 = EDGE_LOOP ( 'NONE', ( #1031, #215, #581, #376, #1065, #804, #260, #520, #834, #1208, #1052, #599 ) ) ;
#825 = VECTOR ( 'NONE', #1012, 1000.000000000000000 ) ;
#826 = AXIS2_PLACEMENT_3D ( 'NONE', #106, #920, #706 ) ;
#827 = VERTEX_POINT ( 'NONE', #845 ) ;
#828 = AXIS2_PLACEMENT_3D ( 'NONE', #5, #1244, #325 ) ;
#829 =( NAMED_UNIT ( * ) PLANE_ANGLE_UNIT ( ) SI_UNIT ( $, .RADIAN. ) );
#830 = ORIENTED_EDGE ( 'NONE', *, *, #902, .T. ) ;
#831 = ADVANCED_FACE ( 'NONE', ( #833 ), #1166, .F. ) ;
#832 = VERTEX_POINT ( 'NONE', #741 ) ;
#833 = FACE_OUTER_BOUND ( 'NONE', #407, .T. ) ;
#834 = ORIENTED_EDGE ( 'NONE', *, *, #330, .F. ) ;
#835 = CARTESIAN_POINT ( 'NONE',  ( 448.1973067930000525, -1228.500000000000000, 158.9638762099999951 ) ) ;
#836 = PRODUCT_CONTEXT ( 'NONE', #343, 'mechanical' ) ;
#837 = ORIENTED_EDGE ( 'NONE', *, *, #969, .T. ) ;
#838 = LINE ( 'NONE', #1147, #107 ) ;
#839 = EDGE_CURVE ( 'NONE', #1334, #4, #11, .T. ) ;
#840 = ORIENTED_EDGE ( 'NONE', *, *, #2, .F. ) ;
#841 = SURFACE_SIDE_STYLE ('',( #1260 ) ) ;
#842 = LINE ( 'NONE', #1154, #980 ) ;
#843 = CARTESIAN_POINT ( 'NONE',  ( 444.9473055166499762, -1346.978241665999803, 121.9638762100000093 ) ) ;
#844 = ORIENTED_EDGE ( 'NONE', *, *, #1326, .T. ) ;
#845 = CARTESIAN_POINT ( 'NONE',  ( 448.1973067930000525, -448.5000000000000000, 158.9638762099999951 ) ) ;
#846 = AXIS2_PLACEMENT_3D ( 'NONE', #797, #775, #69 ) ;
#847 = AXIS2_PLACEMENT_3D ( 'NONE', #78, #1316, #814 ) ;
#848 = DIRECTION ( 'NONE',  ( 0.000000000000000000, 0.000000000000000000, 1.000000000000000000 ) ) ;
#849 = UNCERTAINTY_MEASURE_WITH_UNIT (LENGTH_MEASURE( 1.000000000000000082E-05 ), #1235, 'distance_accuracy_value', 'NONE');
#850 = CIRCLE ( 'NONE', #87, 2.749999999999974687 ) ;
#851 = EDGE_CURVE ( 'NONE', #77, #812, #1254, .T. ) ;
#852 = CARTESIAN_POINT ( 'NONE',  ( 428.9473067929999957, -50.02175833399991234, 123.9638762100000093 ) ) ;
#853 = VECTOR ( 'NONE', #511, 1000.000000000000000 ) ;
#854 = ORIENTED_EDGE ( 'NONE', *, *, #256, .F. ) ;
#855 = CARTESIAN_POINT ( 'NONE',  ( 472.9473067929999957, -1346.978241665999803, 123.9638762100000093 ) ) ;
#856 = CARTESIAN_POINT ( 'NONE',  ( 439.7929353050000145, -533.0000000000000000, 154.9638762099999951 ) ) ;
#857 = DIRECTION ( 'NONE',  ( 0.000000000000000000, -1.000000000000000000, 0.000000000000000000 ) ) ;
#858 = EDGE_CURVE ( 'NONE', #458, #1075, #227, .T. ) ;
#859 = ORIENTED_EDGE ( 'NONE', *, *, #320, .F. ) ;
#860 = FACE_BOUND ( 'NONE', #1329, .T. ) ;
#861 = CARTESIAN_POINT ( 'NONE',  ( 432.9473043839999491, -580.7799999999999727, 155.9638762099999951 ) ) ;
#862 = DIRECTION ( 'NONE',  ( 0.000000000000000000, 0.000000000000000000, -1.000000000000000000 ) ) ;
#863 = DIRECTION ( 'NONE',  ( -1.000000000000000000, 0.000000000000000000, 0.000000000000000000 ) ) ;
#864 = ADVANCED_FACE ( 'NONE', ( #1044, #761, #522, #27, #860, #750 ), #233, .T. ) ;
#865 = DIRECTION ( 'NONE',  ( 0.000000000000000000, -1.000000000000000000, 0.000000000000000000 ) ) ;
#866 = ORIENTED_EDGE ( 'NONE', *, *, #715, .F. ) ;
#867 = CYLINDRICAL_SURFACE ( 'NONE', #291, 6.000000000000005329 ) ;
#868 = AXIS2_PLACEMENT_3D ( 'NONE', #12, #763, #1245 ) ;
#869 = CARTESIAN_POINT ( 'NONE',  ( 469.9473067929999957, -50.12175833400009850, 118.9638762099999951 ) ) ;
#870 = VECTOR ( 'NONE', #362, 1000.000000000000000 ) ;
#871 = DIRECTION ( 'NONE',  ( -0.000000000000000000, -0.000000000000000000, 1.000000000000000000 ) ) ;
#872 = ADVANCED_FACE ( 'NONE', ( #1060 ), #553, .F. ) ;
#873 = DIRECTION ( 'NONE',  ( 0.000000000000000000, 0.000000000000000000, -1.000000000000000000 ) ) ;
#874 = EDGE_CURVE ( 'NONE', #61, #1114, #733, .T. ) ;
#875 = ORIENTED_EDGE ( 'NONE', *, *, #660, .F. ) ;
#876 = CARTESIAN_POINT ( 'NONE',  ( 340.9473067929999957, -50.02175833399999050, 118.9638762099999951 ) ) ;
#877 = CARTESIAN_POINT ( 'NONE',  ( 472.9473067929999957, -50.12175833400009850, 123.9638762100000093 ) ) ;
#878 = DIRECTION ( 'NONE',  ( 0.000000000000000000, 0.000000000000000000, -1.000000000000000000 ) ) ;
#879 = LINE ( 'NONE', #471, #245 ) ;
#880 = EDGE_CURVE ( 'NONE', #832, #232, #68, .T. ) ;
#881 = ORIENTED_EDGE ( 'NONE', *, *, #556, .T. ) ;
#882 = CARTESIAN_POINT ( 'NONE',  ( 450.9473067930000525, -1228.500000000000000, 153.9638762099999951 ) ) ;
#883 = CARTESIAN_POINT ( 'NONE',  ( 453.6973067929999957, -1228.500000000000000, 155.9638762099999951 ) ) ;
#884 = CARTESIAN_POINT ( 'NONE',  ( 448.1973067930000525, -948.5000000000000000, 153.9638762099999951 ) ) ;
#885 = EDGE_LOOP ( 'NONE', ( #1273, #1328, #174, #732 ) ) ;
#886 = DIRECTION ( 'NONE',  ( 1.000000000000000000, 0.000000000000000000, 0.000000000000000000 ) ) ;
#887 = VERTEX_POINT ( 'NONE', #537 ) ;
#888 = CARTESIAN_POINT ( 'NONE',  ( 460.9473067929999957, -50.02175833399991234, 155.9638762099999951 ) ) ;
#889 = EDGE_CURVE ( 'NONE', #497, #907, #879, .T. ) ;
#890 = AXIS2_PLACEMENT_3D ( 'NONE', #1264, #558, #344 ) ;
#891 = DIRECTION ( 'NONE',  ( -0.000000000000000000, -0.000000000000000000, 1.000000000000000000 ) ) ;
#892 = AXIS2_PLACEMENT_3D ( 'NONE', #1017, #316, #300 ) ;
#893 = CARTESIAN_POINT ( 'NONE',  ( 444.9473055166499762, -1346.978241665999803, 118.9638762099999951 ) ) ;
#894 = EDGE_LOOP ( 'NONE', ( #1013, #446, #429, #923 ) ) ;
#895 = MECHANICAL_DESIGN_GEOMETRIC_PRESENTATION_REPRESENTATION (  '', ( #721 ), #353 ) ;
#896 = ORIENTED_EDGE ( 'NONE', *, *, #820, .F. ) ;
#897 = LINE ( 'NONE', #383, #698 ) ;
#898 = CARTESIAN_POINT ( 'NONE',  ( 448.1973067930000525, -1228.500000000000000, 153.9638762099999951 ) ) ;
#899 = PRODUCT_RELATED_PRODUCT_CATEGORY ( 'part', '', ( #427 ) ) ;
#900 = DIRECTION ( 'NONE',  ( 1.000000000000000000, 0.000000000000000000, 0.000000000000000000 ) ) ;
#901 = ORIENTED_EDGE ( 'NONE', *, *, #1263, .T. ) ;
#902 = EDGE_CURVE ( 'NONE', #472, #412, #776, .T. ) ;
#903 = VERTEX_POINT ( 'NONE', #478 ) ;
#904 = DIRECTION ( 'NONE',  ( 1.000000000000000000, 0.000000000000000000, 0.000000000000000000 ) ) ;
#905 = DIRECTION ( 'NONE',  ( 0.000000000000000000, -1.000000000000000000, 0.000000000000000000 ) ) ;
#906 =( NAMED_UNIT ( * ) PLANE_ANGLE_UNIT ( ) SI_UNIT ( $, .RADIAN. ) );
#907 = VERTEX_POINT ( 'NONE', #1293 ) ;
#908 = EDGE_CURVE ( 'NONE', #184, #798, #153, .T. ) ;
#909 = ORIENTED_EDGE ( 'NONE', *, *, #50, .F. ) ;
#910 = DIRECTION ( 'NONE',  ( 0.000000000000000000, 1.000000000000000000, 0.000000000000000000 ) ) ;
#911 = CARTESIAN_POINT ( 'NONE',  ( 453.6973067929999957, -448.5000000000000000, 158.9638762099999951 ) ) ;
#912 = ORIENTED_EDGE ( 'NONE', *, *, #994, .T. ) ;
#913 = AXIS2_PLACEMENT_3D ( 'NONE', #766, #1163, #945 ) ;
#914 = VECTOR ( 'NONE', #280, 1000.000000000000000 ) ;
#915 = EDGE_CURVE ( 'NONE', #1344, #450, #669, .T. ) ;
#916 = ORIENTED_EDGE ( 'NONE', *, *, #256, .T. ) ;
#917 = CIRCLE ( 'NONE', #182, 6.000000000000005329 ) ;
#918 = CARTESIAN_POINT ( 'NONE',  ( 431.9473067929999957, -50.02175833399999050, 121.9638762100000093 ) ) ;
#919 = ADVANCED_FACE ( 'NONE', ( #793 ), #1286, .F. ) ;
#920 = DIRECTION ( 'NONE',  ( 0.000000000000000000, 1.000000000000000000, 0.000000000000000000 ) ) ;
#921 = DIRECTION ( 'NONE',  ( -0.000000000000000000, -0.000000000000000000, 1.000000000000000000 ) ) ;
#922 = CARTESIAN_POINT ( 'NONE',  ( 441.9473043840000059, -533.0000000000000000, 158.9638762099999951 ) ) ;
#923 = ORIENTED_EDGE ( 'NONE', *, *, #1167, .T. ) ;
#924 = EDGE_CURVE ( 'NONE', #412, #998, #1007, .T. ) ;
#925 = CARTESIAN_POINT ( 'NONE',  ( 450.9473067930000525, -1228.500000000000000, 153.9638762099999951 ) ) ;
#926 = DIRECTION ( 'NONE',  ( 1.000000000000000000, -0.000000000000000000, 0.000000000000000000 ) ) ;
#927 = ORIENTED_EDGE ( 'NONE', *, *, #139, .F. ) ;
#928 = ORIENTED_EDGE ( 'NONE', *, *, #145, .T. ) ;
#929 = APPLICATION_PROTOCOL_DEFINITION ( 'draft international standard', 'automotive_design', 1998, #343 ) ;
#930 = ORIENTED_EDGE ( 'NONE', *, *, #1145, .T. ) ;
#931 = EDGE_CURVE ( 'NONE', #1203, #907, #783, .T. ) ;
#932 = VECTOR ( 'NONE', #684, 1000.000000000000000 ) ;
#933 = AXIS2_PLACEMENT_3D ( 'NONE', #856, #944, #1261 ) ;
#934 = ORIENTED_EDGE ( 'NONE', *, *, #880, .F. ) ;
#935 = AXIS2_PLACEMENT_3D ( 'NONE', #72, #495, #665 ) ;
#936 = VECTOR ( 'NONE', #1306, 1000.000000000000000 ) ;
#937 = EDGE_LOOP ( 'NONE', ( #1176, #512, #515, #1035 ) ) ;
#938 = LINE ( 'NONE', #701, #200 ) ;
#939 = ORIENTED_EDGE ( 'NONE', *, *, #237, .F. ) ;
#940 = ADVANCED_FACE ( 'NONE', ( #1079 ), #771, .F. ) ;
#941 = EDGE_LOOP ( 'NONE', ( #268, #1229, #1124, #1111, #971, #211, #699, #318 ) ) ;
#942 = DIRECTION ( 'NONE',  ( 0.000000000000000000, 0.000000000000000000, 1.000000000000000000 ) ) ;
#943 = ORIENTED_EDGE ( 'NONE', *, *, #924, .T. ) ;
#944 = DIRECTION ( 'NONE',  ( 0.000000000000000000, -1.000000000000000000, 0.000000000000000000 ) ) ;
#945 = DIRECTION ( 'NONE',  ( 0.000000000000000000, 0.000000000000000000, 1.000000000000000000 ) ) ;
#946 = DIRECTION ( 'NONE',  ( 0.000000000000000000, 0.000000000000000000, -1.000000000000000000 ) ) ;
#947 = ORIENTED_EDGE ( 'NONE', *, *, #151, .T. ) ;
#948 = LINE ( 'NONE', #128, #267 ) ;
#949 = EDGE_CURVE ( 'NONE', #696, #503, #1175, .T. ) ;
#950 = ORIENTED_EDGE ( 'NONE', *, *, #1051, .T. ) ;
#951 = CARTESIAN_POINT ( 'NONE',  ( 340.9473067929999957, -50.02175833399999050, 182.9638762099999951 ) ) ;
#952 = DIRECTION ( 'NONE',  ( -1.000000000000000000, 0.000000000000000000, 0.000000000000000000 ) ) ;
#953 = CYLINDRICAL_SURFACE ( 'NONE', #1149, 3.000000000000002665 ) ;
#954 = ORIENTED_EDGE ( 'NONE', *, *, #129, .T. ) ;
#955 = CARTESIAN_POINT ( 'NONE',  ( 340.9473067929999957, -1346.978241665999803, 158.9638762099999951 ) ) ;
#956 = AXIS2_PLACEMENT_3D ( 'NONE', #951, #1159, #218 ) ;
#957 = VECTOR ( 'NONE', #667, 1000.000000000000000 ) ;
#958 = CARTESIAN_POINT ( 'NONE',  ( 453.6973067929999957, -948.5000000000000000, 155.9638762099999951 ) ) ;
#959 = EDGE_CURVE ( 'NONE', #1036, #903, #639, .T. ) ;
#960 = AXIS2_PLACEMENT_3D ( 'NONE', #360, #352, #40 ) ;
#961 = CARTESIAN_POINT ( 'NONE',  ( 475.9473067929999957, -1346.978241665999803, 182.9638762099999951 ) ) ;
#962 = DIRECTION ( 'NONE',  ( 0.000000000000000000, 0.000000000000000000, -1.000000000000000000 ) ) ;
#963 = VERTEX_POINT ( 'NONE', #1088 ) ;
#964 = CARTESIAN_POINT ( 'NONE',  ( 450.9473055166499762, -1346.978241665999803, 118.9638762099999951 ) ) ;
#965 = EDGE_LOOP ( 'NONE', ( #1151, #866, #1259, #1009 ) ) ;
#966 = LINE ( 'NONE', #1267, #221 ) ;
#967 = DIRECTION ( 'NONE',  ( -0.000000000000000000, -0.000000000000000000, 1.000000000000000000 ) ) ;
#968 = DIRECTION ( 'NONE',  ( 0.000000000000000000, 0.000000000000000000, -1.000000000000000000 ) ) ;
#969 = EDGE_CURVE ( 'NONE', #691, #372, #445, .T. ) ;
#970 = FACE_OUTER_BOUND ( 'NONE', #965, .T. ) ;
#971 = ORIENTED_EDGE ( 'NONE', *, *, #949, .F. ) ;
#972 = CARTESIAN_POINT ( 'NONE',  ( 469.9473067929999957, -1346.978241665999803, 158.9638762099999951 ) ) ;
#973 = EDGE_CURVE ( 'NONE', #184, #1134, #295, .T. ) ;
#974 = LINE ( 'NONE', #577, #1191 ) ;
#975 = ADVANCED_FACE ( 'NONE', ( #146 ), #141, .T. ) ;
#976 = CARTESIAN_POINT ( 'NONE',  ( 432.9473043839999491, -555.5000000000000000, 155.9638762099999951 ) ) ;
#977 = ORIENTED_EDGE ( 'NONE', *, *, #519, .T. ) ;
#978 = CYLINDRICAL_SURFACE ( 'NONE', #1274, 6.000000000000005329 ) ;
#979 = AXIS2_PLACEMENT_3D ( 'NONE', #803, #1185, #1078 ) ;
#980 = VECTOR ( 'NONE', #228, 1000.000000000000000 ) ;
#981 = CARTESIAN_POINT ( 'NONE',  ( 441.9473043840000059, -580.7799999999999727, 155.9638762099999951 ) ) ;
#982 = FACE_OUTER_BOUND ( 'NONE', #176, .T. ) ;
#983 = VECTOR ( 'NONE', #661, 1000.000000000000000 ) ;
#984 = DIRECTION ( 'NONE',  ( 0.000000000000000000, 0.000000000000000000, 1.000000000000000000 ) ) ;
#985 = ORIENTED_EDGE ( 'NONE', *, *, #456, .T. ) ;
#986 = CARTESIAN_POINT ( 'NONE',  ( 460.9473067929999957, -50.02175833399991234, 121.9638762100000093 ) ) ;
#987 = DIRECTION ( 'NONE',  ( 0.000000000000000000, 0.000000000000000000, 1.000000000000000000 ) ) ;
#988 = CARTESIAN_POINT ( 'NONE',  ( 428.9473067929999957, -1346.978241665999803, 123.9638762100000093 ) ) ;
#989 = EDGE_LOOP ( 'NONE', ( #685, #1281, #247, #719 ) ) ;
#990 = DIRECTION ( 'NONE',  ( 0.000000000000000000, 1.000000000000000000, 0.000000000000000000 ) ) ;
#991 = ADVANCED_FACE ( 'NONE', ( #970 ), #33, .F. ) ;
#992 = ORIENTED_EDGE ( 'NONE', *, *, #774, .T. ) ;
#993 = CARTESIAN_POINT ( 'NONE',  ( 456.9473055166499762, -1346.978241665999803, 121.9638762100000093 ) ) ;
#994 = EDGE_CURVE ( 'NONE', #388, #61, #332, .T. ) ;
#995 = DIRECTION ( 'NONE',  ( 1.000000000000000000, 0.000000000000000000, 0.000000000000000000 ) ) ;
#996 = CARTESIAN_POINT ( 'NONE',  ( 425.9473067930000525, -1346.978241665999803, 124.9638762100000093 ) ) ;
#997 = ORIENTED_EDGE ( 'NONE', *, *, #139, .T. ) ;
#998 = VERTEX_POINT ( 'NONE', #132 ) ;
#999 = DIRECTION ( 'NONE',  ( -1.000000000000000000, 0.000000000000000000, 0.000000000000000000 ) ) ;
#1000 = EDGE_CURVE ( 'NONE', #484, #782, #792, .T. ) ;
#1001 = AXIS2_PLACEMENT_3D ( 'NONE', #1227, #88, #418 ) ;
#1002 = FACE_OUTER_BOUND ( 'NONE', #123, .T. ) ;
#1003 = VECTOR ( 'NONE', #473, 1000.000000000000000 ) ;
#1004 = LINE ( 'NONE', #988, #1228 ) ;
#1005 = ORIENTED_EDGE ( 'NONE', *, *, #171, .F. ) ;
#1006 = AXIS2_PLACEMENT_3D ( 'NONE', #1198, #1305, #801 ) ;
#1007 = CIRCLE ( 'NONE', #1215, 2.749999999999974687 ) ;
#1008 = CIRCLE ( 'NONE', #114, 2.749999999999974687 ) ;
#1009 = ORIENTED_EDGE ( 'NONE', *, *, #931, .T. ) ;
#1010 = CARTESIAN_POINT ( 'NONE',  ( 456.9473055166499762, -50.02175833399999050, 155.9638762099999951 ) ) ;
#1011 = LINE ( 'NONE', #496, #1110 ) ;
#1012 = DIRECTION ( 'NONE',  ( -1.000000000000000000, 0.000000000000000000, 0.000000000000000000 ) ) ;
#1013 = ORIENTED_EDGE ( 'NONE', *, *, #1223, .F. ) ;
#1014 = ADVANCED_FACE ( 'NONE', ( #231 ), #236, .F. ) ;
#1015 = ORIENTED_EDGE ( 'NONE', *, *, #129, .F. ) ;
#1016 = CARTESIAN_POINT ( 'NONE',  ( 456.9473055166499762, -1346.978241665999803, 118.9638762099999951 ) ) ;
#1017 = CARTESIAN_POINT ( 'NONE',  ( 431.9473067929999957, -50.02175833399991234, 152.9638762099999951 ) ) ;
#1018 = CARTESIAN_POINT ( 'NONE',  ( 340.9473067929999957, -50.02175833399999050, 158.9638762099999951 ) ) ;
#1019 = ORIENTED_EDGE ( 'NONE', *, *, #387, .F. ) ;
#1020 = EDGE_CURVE ( 'NONE', #1041, #1213, #32, .T. ) ;
#1021 = ORIENTED_EDGE ( 'NONE', *, *, #431, .F. ) ;
#1022 = DIRECTION ( 'NONE',  ( 0.000000000000000000, -1.000000000000000000, 0.000000000000000000 ) ) ;
#1023 = CARTESIAN_POINT ( 'NONE',  ( 428.9473067929999957, -50.02175833399991234, 124.9638762100000093 ) ) ;
#1024 = EDGE_LOOP ( 'NONE', ( #1320, #1132 ) ) ;
#1025 = AXIS2_PLACEMENT_3D ( 'NONE', #976, #573, #984 ) ;
#1026 = ORIENTED_EDGE ( 'NONE', *, *, #82, .F. ) ;
#1027 = VECTOR ( 'NONE', #967, 1000.000000000000000 ) ;
#1028 = DIRECTION ( 'NONE',  ( 1.000000000000000000, 0.000000000000000000, 0.000000000000000000 ) ) ;
#1029 = CYLINDRICAL_SURFACE ( 'NONE', #15, 6.000000000000005329 ) ;
#1030 = PLANE ( 'NONE',  #1001 ) ;
#1031 = ORIENTED_EDGE ( 'NONE', *, *, #580, .F. ) ;
#1032 = ORIENTED_EDGE ( 'NONE', *, *, #924, .F. ) ;
#1033 = DIRECTION ( 'NONE',  ( -0.000000000000000000, -0.000000000000000000, 1.000000000000000000 ) ) ;
#1034 = SURFACE_STYLE_USAGE ( .BOTH. , #1319 ) ;
#1035 = ORIENTED_EDGE ( 'NONE', *, *, #31, .F. ) ;
#1036 = VERTEX_POINT ( 'NONE', #126 ) ;
#1037 = DIRECTION ( 'NONE',  ( 0.000000000000000000, 0.000000000000000000, 1.000000000000000000 ) ) ;
#1038 = EDGE_LOOP ( 'NONE', ( #704, #997, #1232, #322, #477, #613, #1194, #800, #406, #51, #367, #314 ) ) ;
#1039 = CARTESIAN_POINT ( 'NONE',  ( 450.9473067930000525, -448.5000000000000000, 153.9638762099999951 ) ) ;
#1040 = EDGE_CURVE ( 'NONE', #821, #691, #1269, .T. ) ;
#1041 = VERTEX_POINT ( 'NONE', #1174 ) ;
#1042 = AXIS2_PLACEMENT_3D ( 'NONE', #234, #240, #143 ) ;
#1043 = ORIENTED_EDGE ( 'NONE', *, *, #111, .T. ) ;
#1044 = FACE_OUTER_BOUND ( 'NONE', #167, .T. ) ;
#1045 = CIRCLE ( 'NONE', #1230, 6.000000000000005329 ) ;
#1046 = AXIS2_PLACEMENT_3D ( 'NONE', #964, #1345, #424 ) ;
#1047 = VECTOR ( 'NONE', #857, 1000.000000000000000 ) ;
#1048 = DIRECTION ( 'NONE',  ( 1.000000000000000000, 0.000000000000000000, 0.000000000000000000 ) ) ;
#1049 = ORIENTED_EDGE ( 'NONE', *, *, #151, .F. ) ;
#1050 = DIRECTION ( 'NONE',  ( 0.000000000000000000, -1.000000000000000000, 0.000000000000000000 ) ) ;
#1051 = EDGE_CURVE ( 'NONE', #822, #1334, #16, .T. ) ;
#1052 = ORIENTED_EDGE ( 'NONE', *, *, #969, .F. ) ;
#1053 = ORIENTED_EDGE ( 'NONE', *, *, #678, .T. ) ;
#1054 = LINE ( 'NONE', #888, #1003 ) ;
#1055 = SURFACE_SIDE_STYLE ('',( #347 ) ) ;
#1056 = CARTESIAN_POINT ( 'NONE',  ( 431.9473067929999957, -50.02175833399991234, 152.9638762099999951 ) ) ;
#1057 = ADVANCED_FACE ( 'NONE', ( #455 ), #953, .F. ) ;
#1058 = ADVANCED_FACE ( 'NONE', ( #768 ), #1156, .T. ) ;
#1059 = ORIENTED_EDGE ( 'NONE', *, *, #1072, .T. ) ;
#1060 = FACE_OUTER_BOUND ( 'NONE', #664, .T. ) ;
#1061 = CARTESIAN_POINT ( 'NONE',  ( 450.9473067930000525, -948.5000000000000000, 153.9638762099999951 ) ) ;
#1062 =( NAMED_UNIT ( * ) PLANE_ANGLE_UNIT ( ) SI_UNIT ( $, .RADIAN. ) );
#1063 = CARTESIAN_POINT ( 'NONE',  ( 456.9473055166499762, -1346.978241665999803, 155.9638762099999951 ) ) ;
#1064 = CIRCLE ( 'NONE', #62, 6.000000000000005329 ) ;
#1065 = ORIENTED_EDGE ( 'NONE', *, *, #1051, .F. ) ;
#1066 = CARTESIAN_POINT ( 'NONE',  ( 431.9473067929999957, -1346.978241665999803, 121.9638762100000093 ) ) ;
#1067 = DIRECTION ( 'NONE',  ( 0.000000000000000000, 0.000000000000000000, 1.000000000000000000 ) ) ;
#1068 = CYLINDRICAL_SURFACE ( 'NONE', #1277, 6.000000000000005329 ) ;
#1069 =( LENGTH_UNIT ( ) NAMED_UNIT ( * ) SI_UNIT ( .MILLI., .METRE. ) );
#1070 = VERTEX_POINT ( 'NONE', #1063 ) ;
#1071 = DIRECTION ( 'NONE',  ( 0.000000000000000000, -1.000000000000000000, 0.000000000000000000 ) ) ;
#1072 = EDGE_CURVE ( 'NONE', #1162, #1134, #838, .T. ) ;
#1073 = FILL_AREA_STYLE ('',( #242 ) ) ;
#1074 = DIRECTION ( 'NONE',  ( 0.000000000000000000, 0.000000000000000000, 1.000000000000000000 ) ) ;
#1075 = VERTEX_POINT ( 'NONE', #120 ) ;
#1076 = DIRECTION ( 'NONE',  ( -0.000000000000000000, -0.000000000000000000, 1.000000000000000000 ) ) ;
#1077 = FACE_OUTER_BOUND ( 'NONE', #885, .T. ) ;
#1078 = DIRECTION ( 'NONE',  ( 0.000000000000000000, 0.000000000000000000, 1.000000000000000000 ) ) ;
#1079 = FACE_OUTER_BOUND ( 'NONE', #1220, .T. ) ;
#1080 = ORIENTED_EDGE ( 'NONE', *, *, #1113, .T. ) ;
#1081 = LINE ( 'NONE', #177, #417 ) ;
#1082 = VECTOR ( 'NONE', #539, 1000.000000000000000 ) ;
#1083 = CARTESIAN_POINT ( 'NONE',  ( 453.6973067929999957, -1228.500000000000000, 153.9638762099999951 ) ) ;
#1084 = AXIS2_PLACEMENT_3D ( 'NONE', #925, #506, #1028 ) ;
#1085 = DIRECTION ( 'NONE',  ( 0.000000000000000000, 0.000000000000000000, 1.000000000000000000 ) ) ;
#1086 = AXIS2_PLACEMENT_3D ( 'NONE', #758, #140, #647 ) ;
#1087 = ORIENTED_EDGE ( 'NONE', *, *, #880, .T. ) ;
#1088 = CARTESIAN_POINT ( 'NONE',  ( 453.6973067929999957, -1228.500000000000000, 158.9638762099999951 ) ) ;
#1089 = ORIENTED_EDGE ( 'NONE', *, *, #630, .F. ) ;
#1090 = FACE_OUTER_BOUND ( 'NONE', #1157, .T. ) ;
#1091 = DIRECTION ( 'NONE',  ( -1.000000000000000000, 0.000000000000000000, 0.000000000000000000 ) ) ;
#1092 = DIRECTION ( 'NONE',  ( 1.000000000000000000, 0.000000000000000000, 0.000000000000000000 ) ) ;
#1093 = ORIENTED_EDGE ( 'NONE', *, *, #440, .F. ) ;
#1094 = CARTESIAN_POINT ( 'NONE',  ( 431.9473067929999957, -50.02175833399991234, 124.9638762100000093 ) ) ;
#1095 = ADVANCED_FACE ( 'NONE', ( #534 ), #9, .F. ) ;
#1096 = VERTEX_POINT ( 'NONE', #843 ) ;
#1097 = CARTESIAN_POINT ( 'NONE',  ( 450.9473055166499762, -1346.978241665999803, 118.9638762099999951 ) ) ;
#1098 = DIRECTION ( 'NONE',  ( -0.000000000000000000, -0.000000000000000000, 1.000000000000000000 ) ) ;
#1099 = DIRECTION ( 'NONE',  ( 0.000000000000000000, 0.000000000000000000, 1.000000000000000000 ) ) ;
#1100 = EDGE_LOOP ( 'NONE', ( #307, #830, #943, #304 ) ) ;
#1101 = ORIENTED_EDGE ( 'NONE', *, *, #519, .F. ) ;
#1102 = DIRECTION ( 'NONE',  ( 1.000000000000000000, 0.000000000000000000, 0.000000000000000000 ) ) ;
#1103 =( GEOMETRIC_REPRESENTATION_CONTEXT ( 3 ) GLOBAL_UNCERTAINTY_ASSIGNED_CONTEXT ( ( #1347 ) ) GLOBAL_UNIT_ASSIGNED_CONTEXT ( ( #1069, #564, #428 ) ) REPRESENTATION_CONTEXT ( 'NONE', 'WORKASPACE' ) );
#1104 = CARTESIAN_POINT ( 'NONE',  ( 439.7929353050000145, -580.7799999999999727, 154.9638762099999951 ) ) ;
#1105 = ADVANCED_FACE ( 'NONE', ( #1249 ), #1164, .T. ) ;
#1106 = CIRCLE ( 'NONE', #868, 2.999999999999988898 ) ;
#1107 = LINE ( 'NONE', #884, #655 ) ;
#1108 = ORIENTED_EDGE ( 'NONE', *, *, #76, .F. ) ;
#1109 = VECTOR ( 'NONE', #1196, 1000.000000000000000 ) ;
#1110 = VECTOR ( 'NONE', #891, 1000.000000000000000 ) ;
#1111 = ORIENTED_EDGE ( 'NONE', *, *, #50, .T. ) ;
#1112 = CARTESIAN_POINT ( 'NONE',  ( 428.9473067929999957, -1346.878241665999894, 124.9638762100000093 ) ) ;
#1113 = EDGE_CURVE ( 'NONE', #97, #632, #690, .T. ) ;
#1114 = VERTEX_POINT ( 'NONE', #183 ) ;
#1115 = VERTEX_POINT ( 'NONE', #359 ) ;
#1116 = DIRECTION ( 'NONE',  ( 0.000000000000000000, 0.000000000000000000, -1.000000000000000000 ) ) ;
#1117 = DIRECTION ( 'NONE',  ( -1.000000000000000000, 0.000000000000000000, 0.000000000000000000 ) ) ;
#1118 = CARTESIAN_POINT ( 'NONE',  ( 441.9473043840000059, -533.0000000000000000, 158.9638762099999951 ) ) ;
#1119 = LINE ( 'NONE', #195, #853 ) ;
#1120 = EDGE_LOOP ( 'NONE', ( #740, #1219, #635, #837 ) ) ;
#1121 = DIRECTION ( 'NONE',  ( 0.000000000000000000, 0.000000000000000000, 1.000000000000000000 ) ) ;
#1122 = PLANE ( 'NONE',  #787 ) ;
#1123 = DIRECTION ( 'NONE',  ( 1.000000000000000000, 0.000000000000000000, 0.000000000000000000 ) ) ;
#1124 = ORIENTED_EDGE ( 'NONE', *, *, #660, .T. ) ;
#1125 = MECHANICAL_DESIGN_GEOMETRIC_PRESENTATION_REPRESENTATION (  '', ( #350 ), #311 ) ;
#1126 = CIRCLE ( 'NONE', #935, 2.749999999999974687 ) ;
#1127 = EDGE_CURVE ( 'NONE', #436, #1, #373, .T. ) ;
#1128 = ORIENTED_EDGE ( 'NONE', *, *, #716, .F. ) ;
#1129 = CARTESIAN_POINT ( 'NONE',  ( 431.9473042402999567, -50.12175833400009850, 158.9638762099990004 ) ) ;
#1130 = FACE_BOUND ( 'NONE', #1265, .T. ) ;
#1131 = CARTESIAN_POINT ( 'NONE',  ( 460.9473067929999957, -1346.978241665999803, 155.9638762099999951 ) ) ;
#1132 = ORIENTED_EDGE ( 'NONE', *, *, #1155, .F. ) ;
#1133 = PRODUCT_DEFINITION ( '未知', '', #677, #229 ) ;
#1134 = VERTEX_POINT ( 'NONE', #675 ) ;
#1135 = CARTESIAN_POINT ( 'NONE',  ( 472.9473067929999957, -1346.878241665999894, 152.9638762099999951 ) ) ;
#1136 = EDGE_CURVE ( 'NONE', #419, #1134, #1004, .T. ) ;
#1137 = FACE_OUTER_BOUND ( 'NONE', #277, .T. ) ;
#1138 = FILL_AREA_STYLE ('',( #724 ) ) ;
#1139 = ORIENTED_EDGE ( 'NONE', *, *, #94, .F. ) ;
#1140 = ORIENTED_EDGE ( 'NONE', *, *, #206, .F. ) ;
#1141 = DIRECTION ( 'NONE',  ( 0.000000000000000000, 0.000000000000000000, -1.000000000000000000 ) ) ;
#1142 = PLANE ( 'NONE',  #956 ) ;
#1143 = UNCERTAINTY_MEASURE_WITH_UNIT (LENGTH_MEASURE( 1.000000000000000082E-05 ), #510, 'distance_accuracy_value', 'NONE');
#1144 = DIRECTION ( 'NONE',  ( 1.000000000000000000, 0.000000000000000000, 0.000000000000000000 ) ) ;
#1145 = EDGE_CURVE ( 'NONE', #794, #643, #974, .T. ) ;
#1146 = ORIENTED_EDGE ( 'NONE', *, *, #915, .F. ) ;
#1147 = CARTESIAN_POINT ( 'NONE',  ( 428.9473067929999957, -50.12175833400009850, 152.9638762099999951 ) ) ;
#1148 = VECTOR ( 'NONE', #442, 1000.000000000000000 ) ;
#1149 = AXIS2_PLACEMENT_3D ( 'NONE', #25, #540, #642 ) ;
#1150 = AXIS2_PLACEMENT_3D ( 'NONE', #1039, #405, #95 ) ;
#1151 = ORIENTED_EDGE ( 'NONE', *, *, #889, .F. ) ;
#1152 = FILL_AREA_STYLE_COLOUR ( '', #375 ) ;
#1153 = CIRCLE ( 'NONE', #847, 2.749999999999974687 ) ;
#1154 = CARTESIAN_POINT ( 'NONE',  ( 425.9473067930000525, -1346.878241665999894, 152.9638762099999951 ) ) ;
#1155 = EDGE_CURVE ( 'NONE', #472, #604, #504, .T. ) ;
#1156 = PLANE ( 'NONE',  #890 ) ;
#1157 = EDGE_LOOP ( 'NONE', ( #649, #627, #710, #1049 ) ) ;
#1158 = SURFACE_STYLE_USAGE ( .BOTH. , #841 ) ;
#1159 = DIRECTION ( 'NONE',  ( 0.000000000000000000, 1.000000000000000000, 0.000000000000000000 ) ) ;
#1160 = DIRECTION ( 'NONE',  ( 0.000000000000000000, 1.000000000000000000, 0.000000000000000000 ) ) ;
#1161 = DIRECTION ( 'NONE',  ( -0.000000000000000000, -0.000000000000000000, 1.000000000000000000 ) ) ;
#1162 = VERTEX_POINT ( 'NONE', #54 ) ;
#1163 = DIRECTION ( 'NONE',  ( -0.000000000000000000, -1.000000000000000000, -0.000000000000000000 ) ) ;
#1164 = PLANE ( 'NONE',  #570 ) ;
#1165 = VECTOR ( 'NONE', #1092, 1000.000000000000000 ) ;
#1166 = CYLINDRICAL_SURFACE ( 'NONE', #17, 2.749999999999974687 ) ;
#1167 = EDGE_CURVE ( 'NONE', #204, #1115, #415, .T. ) ;
#1168 = ORIENTED_EDGE ( 'NONE', *, *, #196, .F. ) ;
#1169 = DIRECTION ( 'NONE',  ( -0.000000000000000000, -0.000000000000000000, 1.000000000000000000 ) ) ;
#1170 = VECTOR ( 'NONE', #374, 1000.000000000000000 ) ;
#1171 = AXIS2_PLACEMENT_3D ( 'NONE', #1192, #172, #181 ) ;
#1172 = LINE ( 'NONE', #30, #1027 ) ;
#1173 = ADVANCED_BREP_SHAPE_REPRESENTATION ( 'XH-YJ38-LJ-003-A0-底盘方通-右', ( #36, #110 ), #591 ) ;
#1174 = CARTESIAN_POINT ( 'NONE',  ( 456.9473055166499762, -50.02175833399991234, 121.9638762100000093 ) ) ;
#1175 = LINE ( 'NONE', #252, #1342 ) ;
#1176 = ORIENTED_EDGE ( 'NONE', *, *, #1289, .F. ) ;
#1177 = CARTESIAN_POINT ( 'NONE',  ( 450.9473055166499762, -50.02175833399995497, 118.9638762099999951 ) ) ;
#1178 = EDGE_CURVE ( 'NONE', #1070, #423, #1291, .T. ) ;
#1179 = CARTESIAN_POINT ( 'NONE',  ( 472.9473067929999957, -1346.978241665999803, 152.9638762099999951 ) ) ;
#1180 = LINE ( 'NONE', #470, #523 ) ;
#1181 = DIRECTION ( 'NONE',  ( 0.000000000000000000, 0.000000000000000000, 1.000000000000000000 ) ) ;
#1182 = ORIENTED_EDGE ( 'NONE', *, *, #1223, .T. ) ;
#1183 = CARTESIAN_POINT ( 'NONE',  ( 340.9473067929999957, -50.02175833399999050, 118.9638762099999951 ) ) ;
#1184 = CYLINDRICAL_SURFACE ( 'NONE', #41, 2.000000000000001776 ) ;
#1185 = DIRECTION ( 'NONE',  ( -0.000000000000000000, -1.000000000000000000, -0.000000000000000000 ) ) ;
#1186 = EDGE_CURVE ( 'NONE', #101, #503, #611, .T. ) ;
#1187 = EDGE_LOOP ( 'NONE', ( #220, #603, #1207, #121 ) ) ;
#1188 = DIRECTION ( 'NONE',  ( 0.000000000000000000, 0.000000000000000000, -1.000000000000000000 ) ) ;
#1189 = ORIENTED_EDGE ( 'NONE', *, *, #1020, .T. ) ;
#1190 = FACE_OUTER_BOUND ( 'NONE', #937, .T. ) ;
#1191 = VECTOR ( 'NONE', #1193, 1000.000000000000000 ) ;
#1192 = CARTESIAN_POINT ( 'NONE',  ( 475.9473067929999957, -1374.121758333999878, 123.9638762100000093 ) ) ;
#1193 = DIRECTION ( 'NONE',  ( 0.000000000000000000, 0.000000000000000000, -1.000000000000000000 ) ) ;
#1194 = ORIENTED_EDGE ( 'NONE', *, *, #171, .T. ) ;
#1195 = EDGE_CURVE ( 'NONE', #1344, #887, #1302, .T. ) ;
#1196 = DIRECTION ( 'NONE',  ( 0.000000000000000000, 1.000000000000000000, 0.000000000000000000 ) ) ;
#1197 = ORIENTED_EDGE ( 'NONE', *, *, #1000, .F. ) ;
#1198 = CARTESIAN_POINT ( 'NONE',  ( 450.9473067930000525, -448.5000000000000000, 158.9638762099999951 ) ) ;
#1199 = PLANE ( 'NONE',  #507 ) ;
#1200 = CARTESIAN_POINT ( 'NONE',  ( 450.9473067930000525, -168.4999999999999716, 155.9638762099999951 ) ) ;
#1201 = ORIENTED_EDGE ( 'NONE', *, *, #1040, .T. ) ;
#1202 = ADVANCED_FACE ( 'NONE', ( #982 ), #379, .T. ) ;
#1203 = VERTEX_POINT ( 'NONE', #695 ) ;
#1204 = DIRECTION ( 'NONE',  ( -1.000000000000000000, 0.000000000000000000, 0.000000000000000000 ) ) ;
#1205 = DIRECTION ( 'NONE',  ( 0.000000000000000000, 0.000000000000000000, 1.000000000000000000 ) ) ;
#1206 = DIRECTION ( 'NONE',  ( 0.000000000000000000, 0.000000000000000000, 1.000000000000000000 ) ) ;
#1207 = ORIENTED_EDGE ( 'NONE', *, *, #3, .T. ) ;
#1208 = ORIENTED_EDGE ( 'NONE', *, *, #145, .F. ) ;
#1209 = LINE ( 'NONE', #621, #90 ) ;
#1210 = EDGE_CURVE ( 'NONE', #554, #762, #385, .T. ) ;
#1211 = DIRECTION ( 'NONE',  ( -0.000000000000000000, -0.000000000000000000, 1.000000000000000000 ) ) ;
#1212 = AXIS2_PLACEMENT_3D ( 'NONE', #654, #736, #848 ) ;
#1213 = VERTEX_POINT ( 'NONE', #166 ) ;
#1214 = VECTOR ( 'NONE', #999, 1000.000000000000000 ) ;
#1215 = AXIS2_PLACEMENT_3D ( 'NONE', #266, #464, #886 ) ;
#1216 = ORIENTED_EDGE ( 'NONE', *, *, #1270, .F. ) ;
#1217 = DIRECTION ( 'NONE',  ( 0.000000000000000000, -1.000000000000000000, 0.000000000000000000 ) ) ;
#1218 = CARTESIAN_POINT ( 'NONE',  ( 453.6973067929999957, -168.4999999999999716, 153.9638762099999951 ) ) ;
#1219 = ORIENTED_EDGE ( 'NONE', *, *, #431, .T. ) ;
#1220 = EDGE_LOOP ( 'NONE', ( #626, #191, #274, #42 ) ) ;
#1221 = DIRECTION ( 'NONE',  ( 1.000000000000000000, 0.000000000000000000, 0.000000000000000000 ) ) ;
#1222 = DIRECTION ( 'NONE',  ( 0.000000000000000000, -1.000000000000000000, 0.000000000000000000 ) ) ;
#1223 = EDGE_CURVE ( 'NONE', #782, #1115, #1107, .T. ) ;
#1224 = VERTEX_POINT ( 'NONE', #996 ) ;
#1225 = DIRECTION ( 'NONE',  ( 0.000000000000000000, 0.000000000000000000, 1.000000000000000000 ) ) ;
#1226 = CARTESIAN_POINT ( 'NONE',  ( 428.9473067929999957, -1346.978241665999803, 124.9638762100000093 ) ) ;
#1227 = CARTESIAN_POINT ( 'NONE',  ( 340.9473067929999957, -50.02175833399999050, 182.9638762099999951 ) ) ;
#1228 = VECTOR ( 'NONE', #1085, 1000.000000000000000 ) ;
#1229 = ORIENTED_EDGE ( 'NONE', *, *, #1270, .T. ) ;
#1230 = AXIS2_PLACEMENT_3D ( 'NONE', #596, #64, #489 ) ;
#1231 = EDGE_CURVE ( 'NONE', #1323, #632, #1294, .T. ) ;
#1232 = ORIENTED_EDGE ( 'NONE', *, *, #1178, .T. ) ;
#1233 = LINE ( 'NONE', #315, #351 ) ;
#1234 = LINE ( 'NONE', #1112, #265 ) ;
#1235 =( LENGTH_UNIT ( ) NAMED_UNIT ( * ) SI_UNIT ( .MILLI., .METRE. ) );
#1236 = VERTEX_POINT ( 'NONE', #150 ) ;
#1237 = ORIENTED_EDGE ( 'NONE', *, *, #799, .T. ) ;
#1238 = DIRECTION ( 'NONE',  ( 0.000000000000000000, 0.000000000000000000, -1.000000000000000000 ) ) ;
#1239 = EDGE_CURVE ( 'NONE', #619, #696, #370, .T. ) ;
#1240 = CARTESIAN_POINT ( 'NONE',  ( 472.9473067929999957, -50.02175833399991234, 152.9638762099999951 ) ) ;
#1241 = ORIENTED_EDGE ( 'NONE', *, *, #530, .F. ) ;
#1242 = FILL_AREA_STYLE ('',( #251 ) ) ;
#1243 = ORIENTED_EDGE ( 'NONE', *, *, #254, .F. ) ;
#1244 = DIRECTION ( 'NONE',  ( -0.000000000000000000, -1.000000000000000000, -0.000000000000000000 ) ) ;
#1245 = DIRECTION ( 'NONE',  ( 0.000000000000000000, 0.000000000000000000, 1.000000000000000000 ) ) ;
#1246 = EDGE_CURVE ( 'NONE', #794, #1236, #743, .T. ) ;
#1247 = UNCERTAINTY_MEASURE_WITH_UNIT (LENGTH_MEASURE( 1.000000000000000082E-05 ), #650, 'distance_accuracy_value', 'NONE');
#1248 = LINE ( 'NONE', #961, #1148 ) ;
#1249 = FACE_OUTER_BOUND ( 'NONE', #324, .T. ) ;
#1250 = VECTOR ( 'NONE', #363, 1000.000000000000000 ) ;
#1251 = AXIS2_PLACEMENT_3D ( 'NONE', #476, #48, #589 ) ;
#1252 = AXIS2_PLACEMENT_3D ( 'NONE', #79, #1221, #409 ) ;
#1253 = ORIENTED_EDGE ( 'NONE', *, *, #1127, .T. ) ;
#1254 = LINE ( 'NONE', #335, #791 ) ;
#1255 = AXIS2_PLACEMENT_3D ( 'NONE', #720, #84, #212 ) ;
#1256 = CARTESIAN_POINT ( 'NONE',  ( 469.9473067929999957, -50.02175833399999050, 118.9638762099999951 ) ) ;
#1257 = FACE_OUTER_BOUND ( 'NONE', #326, .T. ) ;
#1258 = DIRECTION ( 'NONE',  ( 0.000000000000000000, 0.000000000000000000, 1.000000000000000000 ) ) ;
#1259 = ORIENTED_EDGE ( 'NONE', *, *, #673, .T. ) ;
#1260 = SURFACE_STYLE_FILL_AREA ( #345 ) ;
#1261 = DIRECTION ( 'NONE',  ( 0.000000000000000000, 0.000000000000000000, -1.000000000000000000 ) ) ;
#1262 = CARTESIAN_POINT ( 'NONE',  ( 425.9473067930000525, -50.02175833399999050, 124.9638762100000093 ) ) ;
#1263 = EDGE_CURVE ( 'NONE', #303, #1323, #1180, .T. ) ;
#1264 = CARTESIAN_POINT ( 'NONE',  ( 441.9473043840000059, -555.5000000000000000, 155.9638762099999951 ) ) ;
#1265 = EDGE_LOOP ( 'NONE', ( #756, #298 ) ) ;
#1266 = DIRECTION ( 'NONE',  ( 0.000000000000000000, 1.000000000000000000, 0.000000000000000000 ) ) ;
#1267 = CARTESIAN_POINT ( 'NONE',  ( 448.1973067930000525, -448.5000000000000000, 153.9638762099999951 ) ) ;
#1268 = CARTESIAN_POINT ( 'NONE',  ( 470.9473067929999957, -1346.978241665999803, 121.9638762100000093 ) ) ;
#1269 = LINE ( 'NONE', #739, #1271 ) ;
#1270 = EDGE_CURVE ( 'NONE', #578, #1213, #131, .T. ) ;
#1271 = VECTOR ( 'NONE', #863, 1000.000000000000000 ) ;
#1272 = CARTESIAN_POINT ( 'NONE',  ( 431.9473067929999957, -1346.878241665999894, 118.9638762099999951 ) ) ;
#1273 = ORIENTED_EDGE ( 'NONE', *, *, #219, .T. ) ;
#1274 = AXIS2_PLACEMENT_3D ( 'NONE', #1177, #1076, #44 ) ;
#1275 = DIRECTION ( 'NONE',  ( -0.000000000000000000, -0.000000000000000000, 1.000000000000000000 ) ) ;
#1276 = AXIS2_PLACEMENT_3D ( 'NONE', #579, #1188, #680 ) ;
#1277 = AXIS2_PLACEMENT_3D ( 'NONE', #752, #24, #549 ) ;
#1278 = DIRECTION ( 'NONE',  ( 0.000000000000000000, 0.000000000000000000, 1.000000000000000000 ) ) ;
#1279 = DIRECTION ( 'NONE',  ( -1.000000000000000000, 0.000000000000000000, 0.000000000000000000 ) ) ;
#1280 = CARTESIAN_POINT ( 'NONE',  ( 431.9473067929999957, -1224.121758333999878, 152.9638762099999951 ) ) ;
#1281 = ORIENTED_EDGE ( 'NONE', *, *, #39, .F. ) ;
#1282 = LINE ( 'NONE', #170, #1214 ) ;
#1283 = EDGE_CURVE ( 'NONE', #604, #998, #707, .T. ) ;
#1284 = FACE_OUTER_BOUND ( 'NONE', #941, .T. ) ;
#1285 = CARTESIAN_POINT ( 'NONE',  ( 470.9473067929999957, -50.02175833399991234, 123.9638762100000093 ) ) ;
#1286 = CYLINDRICAL_SURFACE ( 'NONE', #960, 2.749999999999974687 ) ;
#1287 = ORIENTED_EDGE ( 'NONE', *, *, #1246, .T. ) ;
#1288 = DIRECTION ( 'NONE',  ( 1.000000000000000000, 0.000000000000000000, 0.000000000000000000 ) ) ;
#1289 = EDGE_CURVE ( 'NONE', #696, #887, #1064, .T. ) ;
#1290 = CARTESIAN_POINT ( 'NONE',  ( 432.9473043839999491, -533.0000000000000000, 158.9638762099999951 ) ) ;
#1291 = LINE ( 'NONE', #571, #932 ) ;
#1292 = ORIENTED_EDGE ( 'NONE', *, *, #21, .T. ) ;
#1293 = CARTESIAN_POINT ( 'NONE',  ( 432.9473043839999491, -580.7799999999999727, 158.9638762099999951 ) ) ;
#1294 = CIRCLE ( 'NONE', #674, 1.999999999999988010 ) ;
#1295 = VERTEX_POINT ( 'NONE', #1118 ) ;
#1296 = DIRECTION ( 'NONE',  ( 0.000000000000000000, 0.000000000000000000, -1.000000000000000000 ) ) ;
#1297 = VECTOR ( 'NONE', #35, 1000.000000000000000 ) ;
#1298 = MECHANICAL_DESIGN_GEOMETRIC_PRESENTATION_REPRESENTATION (  '', ( #1338 ), #1103 ) ;
#1299 = CIRCLE ( 'NONE', #156, 1.999999999999988010 ) ;
#1300 = DIRECTION ( 'NONE',  ( -1.000000000000000000, 0.000000000000000000, 0.000000000000000000 ) ) ;
#1301 = VECTOR ( 'NONE', #946, 1000.000000000000000 ) ;
#1302 = LINE ( 'NONE', #258, #1165 ) ;
#1303 = ORIENTED_EDGE ( 'NONE', *, *, #1231, .F. ) ;
#1304 = EDGE_LOOP ( 'NONE', ( #105, #1101 ) ) ;
#1305 = DIRECTION ( 'NONE',  ( 0.000000000000000000, 0.000000000000000000, 1.000000000000000000 ) ) ;
#1306 = DIRECTION ( 'NONE',  ( 0.000000000000000000, -1.000000000000000000, 0.000000000000000000 ) ) ;
#1307 = DIRECTION ( 'NONE',  ( -1.000000000000000000, 0.000000000000000000, 0.000000000000000000 ) ) ;
#1308 = ORIENTED_EDGE ( 'NONE', *, *, #760, .T. ) ;
#1309 = ADVANCED_FACE ( 'NONE', ( #317 ), #80, .F. ) ;
#1310 = EDGE_LOOP ( 'NONE', ( #394, #169, #98, #1339 ) ) ;
#1311 = CARTESIAN_POINT ( 'NONE',  ( 448.1973067930000525, -948.5000000000000000, 155.9638762099999951 ) ) ;
#1312 = CARTESIAN_POINT ( 'NONE',  ( 431.9473061213000165, -1346.978241665999803, 155.9638762099999951 ) ) ;
#1313 = ORIENTED_EDGE ( 'NONE', *, *, #973, .F. ) ;
#1314 = EDGE_CURVE ( 'NONE', #4, #450, #441, .T. ) ;
#1315 = ORIENTED_EDGE ( 'NONE', *, *, #3, .F. ) ;
#1316 = DIRECTION ( 'NONE',  ( 0.000000000000000000, 0.000000000000000000, -1.000000000000000000 ) ) ;
#1317 = AXIS2_PLACEMENT_3D ( 'NONE', #364, #781, #900 ) ;
#1318 = LINE ( 'NONE', #1331, #765 ) ;
#1319 = SURFACE_SIDE_STYLE ('',( #625 ) ) ;
#1320 = ORIENTED_EDGE ( 'NONE', *, *, #653, .F. ) ;
#1321 = AXIS2_PLACEMENT_3D ( 'NONE', #587, #1296, #575 ) ;
#1322 = STYLED_ITEM ( 'NONE', ( #746 ), #36 ) ;
#1323 = VERTEX_POINT ( 'NONE', #391 ) ;
#1324 = CARTESIAN_POINT ( 'NONE',  ( 340.9473067929999957, -1346.978241665999803, 182.9638762099999951 ) ) ;
#1325 = DIRECTION ( 'NONE',  ( 0.000000000000000000, 1.000000000000000000, 0.000000000000000000 ) ) ;
#1326 = EDGE_CURVE ( 'NONE', #1236, #822, #194, .T. ) ;
#1327 =( NAMED_UNIT ( * ) PLANE_ANGLE_UNIT ( ) SI_UNIT ( $, .RADIAN. ) );
#1328 = ORIENTED_EDGE ( 'NONE', *, *, #889, .T. ) ;
#1329 = EDGE_LOOP ( 'NONE', ( #1139, #452 ) ) ;
#1330 = CARTESIAN_POINT ( 'NONE',  ( 432.9473043839999491, -533.0000000000000000, 155.9638762099999951 ) ) ;
#1331 = CARTESIAN_POINT ( 'NONE',  ( 340.9473067929999957, -50.02175833399999050, 158.9638762099999951 ) ) ;
#1332 = EDGE_CURVE ( 'NONE', #184, #554, #96, .T. ) ;
#1333 = ORIENTED_EDGE ( 'NONE', *, *, #371, .T. ) ;
#1334 = VERTEX_POINT ( 'NONE', #607 ) ;
#1335 = LINE ( 'NONE', #1135, #112 ) ;
#1336 = FACE_BOUND ( 'NONE', #185, .T. ) ;
#1337 = PRESENTATION_STYLE_ASSIGNMENT (( #1034 ) ) ;
#1338 = STYLED_ITEM ( 'NONE', ( #759 ), #1058 ) ;
#1339 = ORIENTED_EDGE ( 'NONE', *, *, #219, .F. ) ;
#1340 = CIRCLE ( 'NONE', #1212, 6.000000000000005329 ) ;
#1341 = ADVANCED_FACE ( 'NONE', ( #618 ), #1030, .T. ) ;
#1342 = VECTOR ( 'NONE', #686, 1000.000000000000000 ) ;
#1343 = VECTOR ( 'NONE', #165, 1000.000000000000000 ) ;
#1344 = VERTEX_POINT ( 'NONE', #301 ) ;
#1345 = DIRECTION ( 'NONE',  ( -0.000000000000000000, -0.000000000000000000, 1.000000000000000000 ) ) ;
#1346 = CARTESIAN_POINT ( 'NONE',  ( 441.9473043840000059, -533.0000000000000000, 155.9638762099999951 ) ) ;
#1347 = UNCERTAINTY_MEASURE_WITH_UNIT (LENGTH_MEASURE( 1.000000000000000082E-05 ), #1069, 'distance_accuracy_value', 'NONE');
ENDSEC;
END-ISO-10303-21;
