ISO-10303-21;
HEADER;
FILE_DESCRIPTION (( 'STEP AP214' ),
    '1' );
FILE_NAME ('XH-YJ38-LJ-005-A0-µ×ÅÌ·½Í¨-²å×ù.STEP',
    '2026-06-04T10:07:05',
    ( 'Microsoft' ),
    ( 'Microsoft' ),
    'SwSTEP 2.0',
    'SolidWorks 2020',
    '' );
FILE_SCHEMA (( 'AUTOMOTIVE_DESIGN' ));
ENDSEC;

DATA;
#1 = DIRECTION ( 'NONE',  ( 0.000000000000000000, 0.000000000000000000, -1.000000000000000000 ) ) ;
#2 = CARTESIAN_POINT ( 'NONE',  ( 431.9700000000000273, 0.000000000000000000, 167.0000000000000000 ) ) ;
#3 = EDGE_CURVE ( 'NONE', #702, #89, #319, .T. ) ;
#4 = ORIENTED_EDGE ( 'NONE', *, *, #653, .F. ) ;
#5 = AXIS2_PLACEMENT_3D ( 'NONE', #333, #730, #261 ) ;
#6 = DIRECTION ( 'NONE',  ( 1.000000000000000000, 0.000000000000000000, 0.000000000000000000 ) ) ;
#7 = CIRCLE ( 'NONE', #485, 3.000000000000002665 ) ;
#8 = CARTESIAN_POINT ( 'NONE',  ( 460.2033939754595622, -47.00000000000000000, 165.2442014510175170 ) ) ;
#9 = AXIS2_PLACEMENT_3D ( 'NONE', #180, #532, #586 ) ;
#10 = ORIENTED_EDGE ( 'NONE', *, *, #735, .F. ) ;
#11 = EDGE_CURVE ( 'NONE', #237, #176, #404, .T. ) ;
#12 = CARTESIAN_POINT ( 'NONE',  ( 441.7337341423820476, -47.00000000000000000, 165.2234606212148549 ) ) ;
#13 = DIRECTION ( 'NONE',  ( -1.000000000000000000, 0.000000000000000000, 0.000000000000000000 ) ) ;
#14 = ORIENTED_EDGE ( 'NONE', *, *, #407, .T. ) ;
#15 = AXIS2_PLACEMENT_3D ( 'NONE', #518, #254, #328 ) ;
#16 = EDGE_CURVE ( 'NONE', #240, #814, #52, .T. ) ;
#17 = CARTESIAN_POINT ( 'NONE',  ( 431.9700000000000273, 0.000000000000000000, 167.0000000000000000 ) ) ;
#18 = DIRECTION ( 'NONE',  ( -0.000000000000000000, 1.000000000000000000, -0.000000000000000000 ) ) ;
#19 = B_SPLINE_CURVE_WITH_KNOTS ( 'NONE', 3,
 ( #70, #474, #613, #740 ),
 .UNSPECIFIED., .F., .F.,
 ( 4, 4 ),
 ( 0.03802702495547353317, 0.9615050456242113519 ),
 .UNSPECIFIED. ) ;
#20 = VERTEX_POINT ( 'NONE', #396 ) ;
#21 = ORIENTED_EDGE ( 'NONE', *, *, #437, .T. ) ;
#22 = DIRECTION ( 'NONE',  ( 0.000000000000000000, 0.000000000000000000, 1.000000000000000000 ) ) ;
#23 = AXIS2_PLACEMENT_3D ( 'NONE', #244, #375, #389 ) ;
#24 = CIRCLE ( 'NONE', #323, 6.000000000000005329 ) ;
#25 = LINE ( 'NONE', #699, #528 ) ;
#26 = EDGE_CURVE ( 'NONE', #108, #636, #184, .T. ) ;
#27 = ORIENTED_EDGE ( 'NONE', *, *, #503, .T. ) ;
#28 = VECTOR ( 'NONE', #162, 1000.000000000000000 ) ;
#29 = VERTEX_POINT ( 'NONE', #102 ) ;
#30 = DIRECTION ( 'NONE',  ( -0.000000000000000000, -1.000000000000000000, -0.000000000000000000 ) ) ;
#31 = DIRECTION ( 'NONE',  ( 0.000000000000000000, -1.000000000000000000, 0.000000000000000000 ) ) ;
#32 = ADVANCED_FACE ( 'NONE', ( #335, #860 ), #112, .F. ) ;
#33 = CARTESIAN_POINT ( 'NONE',  ( 440.9723503110000138, -3.000000000000000000, 167.0000000000000000 ) ) ;
#34 = ORIENTED_EDGE ( 'NONE', *, *, #648, .T. ) ;
#35 = VECTOR ( 'NONE', #172, 1000.000000000000000 ) ;
#36 = CARTESIAN_POINT ( 'NONE',  ( 441.7337341477676205, 0.000000000000000000, 165.2234606091575984 ) ) ;
#37 = LINE ( 'NONE', #710, #697 ) ;
#38 = ORIENTED_EDGE ( 'NONE', *, *, #205, .F. ) ;
#39 = CARTESIAN_POINT ( 'NONE',  ( 440.9699999999999704, -3.000000000000000000, 160.0000000000000000 ) ) ;
#40 = LINE ( 'NONE', #849, #97 ) ;
#41 = B_SPLINE_SURFACE_WITH_KNOTS ( 'NONE', 3, 1, ( 
 ( #682, #344 ),
 ( #671, #281 ),
 ( #55, #476 ),
 ( #353, #200 ) ),
 .UNSPECIFIED., .F., .F., .F.,
 ( 4, 4 ),
 ( 2, 2 ),
 ( 0.04420574077273334290, 0.9562109335957853506 ),
 ( 0.000000000000000000, 1.000000000000000000 ),
 .UNSPECIFIED. ) ;
#42 = DIRECTION ( 'NONE',  ( -1.000000000000000000, 0.000000000000000000, 0.000000000000000000 ) ) ;
#43 = AXIS2_PLACEMENT_3D ( 'NONE', #449, #238, #248 ) ;
#44 = EDGE_CURVE ( 'NONE', #702, #185, #37, .T. ) ;
#45 = EDGE_LOOP ( 'NONE', ( #463, #164, #314, #545 ) ) ;
#46 = LINE ( 'NONE', #515, #339 ) ;
#47 = DIRECTION ( 'NONE',  ( -1.000000000000000000, 0.000000000000000000, 0.000000000000000000 ) ) ;
#48 = CARTESIAN_POINT ( 'NONE',  ( 441.7337341477677342, -47.00000000000000000, 165.2234606091577120 ) ) ;
#49 = VERTEX_POINT ( 'NONE', #48 ) ;
#50 = ADVANCED_FACE ( 'NONE', ( #330 ), #99, .T. ) ;
#51 = LINE ( 'NONE', #776, #610 ) ;
#52 = LINE ( 'NONE', #106, #729 ) ;
#53 = APPLICATION_CONTEXT ( 'automotive_design' ) ;
#54 = DIRECTION ( 'NONE',  ( 0.000000000000000000, 0.000000000000000000, 1.000000000000000000 ) ) ;
#55 = CARTESIAN_POINT ( 'NONE',  ( 453.9814412751596819, 0.000000000000000000, 151.5929854141057262 ) ) ;
#56 = DIRECTION ( 'NONE',  ( 1.000000000000000000, 0.000000000000000000, 0.000000000000000000 ) ) ;
#57 = CLOSED_SHELL ( 'NONE', ( #95, #889, #582, #838, #755, #267, #119, #337, #749, #778, #32, #402, #706, #50, #124, #675, #731, #846, #425, #84, #346, #717, #315, #342, #308 ) ) ;
#58 = DIRECTION ( 'NONE',  ( 0.000000000000000000, 0.000000000000000000, -1.000000000000000000 ) ) ;
#59 = EDGE_CURVE ( 'NONE', #638, #514, #391, .T. ) ;
#60 = DIRECTION ( 'NONE',  ( -1.000000000000000000, 0.000000000000000000, 0.000000000000000000 ) ) ;
#61 = MANIFOLD_SOLID_BREP ( 'Ô²½Ç1', #57 ) ;
#62 = FACE_OUTER_BOUND ( 'NONE', #373, .T. ) ;
#63 = VERTEX_POINT ( 'NONE', #413 ) ;
#64 = APPLICATION_CONTEXT ( 'automotive_design' ) ;
#65 = DIRECTION ( 'NONE',  ( 0.000000000000000000, -1.000000000000000000, 0.000000000000000000 ) ) ;
#66 = CARTESIAN_POINT ( 'NONE',  ( 431.9700000000000273, -50.00000000000000711, 167.0000000000000000 ) ) ;
#67 = VERTEX_POINT ( 'NONE', #747 ) ;
#68 = AXIS2_PLACEMENT_3D ( 'NONE', #829, #223, #155 ) ;
#69 = DIRECTION ( 'NONE',  ( 0.000000000000000000, -1.000000000000000000, 0.000000000000000000 ) ) ;
#70 = CARTESIAN_POINT ( 'NONE',  ( 460.2033939754595622, -50.00000000000000000, 165.2442014510176023 ) ) ;
#71 = ORIENTED_EDGE ( 'NONE', *, *, #16, .F. ) ;
#72 = CARTESIAN_POINT ( 'NONE',  ( 428.9700000000000273, -6.000000000000010658, 167.0000000000000000 ) ) ;
#73 = DIRECTION ( 'NONE',  ( 0.000000000000000000, 0.000000000000000000, 1.000000000000000000 ) ) ;
#74 = ORIENTED_EDGE ( 'NONE', *, *, #467, .T. ) ;
#75 = DIRECTION ( 'NONE',  ( -1.000000000000000000, 0.000000000000000000, 0.000000000000000000 ) ) ;
#76 = LINE ( 'NONE', #421, #401 ) ;
#77 = EDGE_CURVE ( 'NONE', #20, #29, #511, .T. ) ;
#78 = ORIENTED_EDGE ( 'NONE', *, *, #879, .F. ) ;
#79 = CIRCLE ( 'NONE', #201, 3.000000000000002665 ) ;
#80 = DIRECTION ( 'NONE',  ( 0.000000000000000000, 1.000000000000000000, 0.000000000000000000 ) ) ;
#81 = CIRCLE ( 'NONE', #43, 3.000000000000002665 ) ;
#82 = CARTESIAN_POINT ( 'NONE',  ( 431.9700000000000273, -6.000000000000000000, 69.00000000000000000 ) ) ;
#83 = VERTEX_POINT ( 'NONE', #130 ) ;
#84 = ADVANCED_FACE ( 'NONE', ( #809 ), #479, .T. ) ;
#85 = CARTESIAN_POINT ( 'NONE',  ( 460.2033939754595622, -50.00000000000000000, 165.2442014510176023 ) ) ;
#86 = DIRECTION ( 'NONE',  ( -1.000000000000000000, 0.000000000000000000, 0.000000000000000000 ) ) ;
#87 = VERTEX_POINT ( 'NONE', #666 ) ;
#88 = UNCERTAINTY_MEASURE_WITH_UNIT (LENGTH_MEASURE( 1.000000000000000082E-05 ), #457, 'distance_accuracy_value', 'NONE');
#89 = VERTEX_POINT ( 'NONE', #66 ) ;
#90 = DIRECTION ( 'NONE',  ( 1.000000000000000000, 0.000000000000000000, 0.000000000000000000 ) ) ;
#91 = CARTESIAN_POINT ( 'NONE',  ( 447.8248879979003050, -47.00000000000000000, 151.5860718042107464 ) ) ;
#92 = ORIENTED_EDGE ( 'NONE', *, *, #807, .F. ) ;
#93 = VERTEX_POINT ( 'NONE', #140 ) ;
#94 = AXIS2_PLACEMENT_3D ( 'NONE', #746, #733, #120 ) ;
#95 = ADVANCED_FACE ( 'NONE', ( #62 ), #41, .F. ) ;
#96 = VECTOR ( 'NONE', #65, 1000.000000000000000 ) ;
#97 = VECTOR ( 'NONE', #256, 1000.000000000000000 ) ;
#98 = FACE_OUTER_BOUND ( 'NONE', #796, .T. ) ;
#99 = CYLINDRICAL_SURFACE ( 'NONE', #428, 6.000000000000005329 ) ;
#100 = ORIENTED_EDGE ( 'NONE', *, *, #59, .T. ) ;
#101 = DIRECTION ( 'NONE',  ( -0.000000000000000000, 1.000000000000000000, -0.000000000000000000 ) ) ;
#102 = CARTESIAN_POINT ( 'NONE',  ( 425.9700000000000273, -6.000000000000000000, 69.00000000000000000 ) ) ;
#103 = ORIENTED_EDGE ( 'NONE', *, *, #607, .F. ) ;
#104 = DIRECTION ( 'NONE',  ( -1.850371707708592551E-14, -1.000000000000000000, 0.000000000000000000 ) ) ;
#105 = DIRECTION ( 'NONE',  ( -1.000000000000000000, 0.000000000000000000, 0.000000000000000000 ) ) ;
#106 = CARTESIAN_POINT ( 'NONE',  ( 475.9700000000000273, -44.00000000000000000, 167.0000000000000000 ) ) ;
#107 = EDGE_CURVE ( 'NONE', #695, #619, #19, .T. ) ;
#108 = VERTEX_POINT ( 'NONE', #341 ) ;
#109 = CARTESIAN_POINT ( 'NONE',  ( 440.9699999999999704, 0.000000000000000000, 10.00000000000000000 ) ) ;
#110 = CARTESIAN_POINT ( 'NONE',  ( 431.9700000000000273, -50.00000000000000711, 69.00000000000000000 ) ) ;
#111 = VECTOR ( 'NONE', #537, 1000.000000000000000 ) ;
#112 = PLANE ( 'NONE',  #128 ) ;
#113 = AXIS2_PLACEMENT_3D ( 'NONE', #287, #231, #828 ) ;
#114 = PRESENTATION_LAYER_ASSIGNMENT (  '', '', ( #392 ) ) ;
#115 = ORIENTED_EDGE ( 'NONE', *, *, #701, .T. ) ;
#116 = DIRECTION ( 'NONE',  ( 0.000000000000000000, 0.000000000000000000, -1.000000000000000000 ) ) ;
#117 = ORIENTED_EDGE ( 'NONE', *, *, #142, .T. ) ;
#118 = FILL_AREA_STYLE_COLOUR ( '', #591 ) ;
#119 = ADVANCED_FACE ( 'NONE', ( #406 ), #338, .T. ) ;
#120 = DIRECTION ( 'NONE',  ( 0.000000000000000000, 1.000000000000000000, 0.000000000000000000 ) ) ;
#121 = LINE ( 'NONE', #544, #459 ) ;
#122 =( NAMED_UNIT ( * ) SI_UNIT ( $, .STERADIAN. ) SOLID_ANGLE_UNIT ( ) );
#123 = CYLINDRICAL_SURFACE ( 'NONE', #711, 6.000000000000005329 ) ;
#124 = ADVANCED_FACE ( 'NONE', ( #547 ), #134, .T. ) ;
#125 = CARTESIAN_POINT ( 'NONE',  ( 472.9700000000000273, -44.00000000000000000, 167.0000000000000000 ) ) ;
#126 =( GEOMETRIC_REPRESENTATION_CONTEXT ( 3 ) GLOBAL_UNCERTAINTY_ASSIGNED_CONTEXT ( ( #842 ) ) GLOBAL_UNIT_ASSIGNED_CONTEXT ( ( #251, #795, #866 ) ) REPRESENTATION_CONTEXT ( 'NONE', 'WORKASPACE' ) );
#127 = AXIS2_PLACEMENT_3D ( 'NONE', #500, #771, #487 ) ;
#128 = AXIS2_PLACEMENT_3D ( 'NONE', #382, #455, #850 ) ;
#129 = CARTESIAN_POINT ( 'NONE',  ( 441.7337341477676205, -50.00000000000000000, 165.2234606091576552 ) ) ;
#130 = CARTESIAN_POINT ( 'NONE',  ( 428.9700000000000273, -6.000000000000000000, 69.00000000000000000 ) ) ;
#131 = VERTEX_POINT ( 'NONE', #878 ) ;
#132 = FILL_AREA_STYLE ('',( #118 ) ) ;
#133 = DIRECTION ( 'NONE',  ( 0.000000000000000000, 0.000000000000000000, 1.000000000000000000 ) ) ;
#134 = CYLINDRICAL_SURFACE ( 'NONE', #856, 6.000000000000005329 ) ;
#135 = AXIS2_PLACEMENT_3D ( 'NONE', #786, #90, #780 ) ;
#136 = EDGE_LOOP ( 'NONE', ( #296, #725, #354, #622 ) ) ;
#137 = EDGE_CURVE ( 'NONE', #67, #108, #79, .T. ) ;
#138 = EDGE_LOOP ( 'NONE', ( #78, #153, #663, #718 ) ) ;
#139 = CARTESIAN_POINT ( 'NONE',  ( 428.9700000000000273, -44.00000000000000000, 69.00000000000000000 ) ) ;
#140 = CARTESIAN_POINT ( 'NONE',  ( 431.9700000000000273, -3.000000000000000444, 69.00000000000000000 ) ) ;
#141 = VERTEX_POINT ( 'NONE', #609 ) ;
#142 = EDGE_CURVE ( 'NONE', #632, #29, #534, .T. ) ;
#143 = AXIS2_PLACEMENT_3D ( 'NONE', #743, #890, #285 ) ;
#144 = AXIS2_PLACEMENT_3D ( 'NONE', #490, #756, #75 ) ;
#145 = FACE_OUTER_BOUND ( 'NONE', #523, .T. ) ;
#146 = CYLINDRICAL_SURFACE ( 'NONE', #292, 3.000000000000002665 ) ;
#147 = ORIENTED_EDGE ( 'NONE', *, *, #205, .T. ) ;
#148 = DIRECTION ( 'NONE',  ( 0.000000000000000000, 0.000000000000000000, -1.000000000000000000 ) ) ;
#149 = EDGE_CURVE ( 'NONE', #691, #576, #410, .T. ) ;
#150 = FACE_OUTER_BOUND ( 'NONE', #387, .T. ) ;
#151 = CIRCLE ( 'NONE', #676, 3.000000000000002665 ) ;
#152 = ORIENTED_EDGE ( 'NONE', *, *, #594, .F. ) ;
#153 = ORIENTED_EDGE ( 'NONE', *, *, #648, .F. ) ;
#154 = DIRECTION ( 'NONE',  ( 1.000000000000000000, 0.000000000000000000, 0.000000000000000000 ) ) ;
#155 = DIRECTION ( 'NONE',  ( 0.000000000000000000, 0.000000000000000000, -1.000000000000000000 ) ) ;
#156 = ORIENTED_EDGE ( 'NONE', *, *, #416, .F. ) ;
#157 = VECTOR ( 'NONE', #403, 1000.000000000000000 ) ;
#158 = DIRECTION ( 'NONE',  ( -1.000000000000000000, 0.000000000000000000, 0.000000000000000000 ) ) ;
#159 = DIRECTION ( 'NONE',  ( 0.000000000000000000, 0.000000000000000000, 1.000000000000000000 ) ) ;
#160 = ORIENTED_EDGE ( 'NONE', *, *, #376, .T. ) ;
#161 = ORIENTED_EDGE ( 'NONE', *, *, #352, .T. ) ;
#162 = DIRECTION ( 'NONE',  ( -1.000000000000000000, 0.000000000000000000, 0.000000000000000000 ) ) ;
#163 = DIRECTION ( 'NONE',  ( 1.000000000000000000, 0.000000000000000000, 0.000000000000000000 ) ) ;
#164 = ORIENTED_EDGE ( 'NONE', *, *, #543, .T. ) ;
#165 = EDGE_CURVE ( 'NONE', #691, #845, #121, .T. ) ;
#166 = ORIENTED_EDGE ( 'NONE', *, *, #437, .F. ) ;
#167 = DIRECTION ( 'NONE',  ( 0.000000000000000000, 0.000000000000000000, -1.000000000000000000 ) ) ;
#168 = CYLINDRICAL_SURFACE ( 'NONE', #349, 3.000000000000002665 ) ;
#169 = VERTEX_POINT ( 'NONE', #805 ) ;
#170 = EDGE_CURVE ( 'NONE', #636, #93, #881, .T. ) ;
#171 = VERTEX_POINT ( 'NONE', #125 ) ;
#172 = DIRECTION ( 'NONE',  ( 0.000000000000000000, -1.000000000000000000, 0.000000000000000000 ) ) ;
#173 = AXIS2_PLACEMENT_3D ( 'NONE', #309, #484, #73 ) ;
#174 = PLANE ( 'NONE',  #5 ) ;
#175 = SURFACE_SIDE_STYLE ('',( #647 ) ) ;
#176 = VERTEX_POINT ( 'NONE', #602 ) ;
#177 = DIRECTION ( 'NONE',  ( 0.000000000000000000, -1.000000000000000000, 0.000000000000000000 ) ) ;
#178 = CYLINDRICAL_SURFACE ( 'NONE', #531, 3.000000000000002665 ) ;
#179 = EDGE_CURVE ( 'NONE', #87, #176, #271, .T. ) ;
#180 = CARTESIAN_POINT ( 'NONE',  ( 469.9700000000000273, -6.000000000000000000, 69.00000000000000000 ) ) ;
#181 = VERTEX_POINT ( 'NONE', #540 ) ;
#182 = AXIS2_PLACEMENT_3D ( 'NONE', #109, #509, #439 ) ;
#183 = PLANE ( 'NONE',  #461 ) ;
#184 = LINE ( 'NONE', #33, #769 ) ;
#185 = VERTEX_POINT ( 'NONE', #812 ) ;
#186 = DIRECTION ( 'NONE',  ( 0.000000000000000000, 0.000000000000000000, -1.000000000000000000 ) ) ;
#187 = LINE ( 'NONE', #854, #884 ) ;
#188 = CIRCLE ( 'NONE', #512, 3.000000000000002665 ) ;
#189 = CARTESIAN_POINT ( 'NONE',  ( 431.9700000000000273, -44.00000000000000000, 10.00000000000000000 ) ) ;
#190 = EDGE_CURVE ( 'NONE', #169, #207, #551, .T. ) ;
#191 = ORIENTED_EDGE ( 'NONE', *, *, #107, .F. ) ;
#192 = CARTESIAN_POINT ( 'NONE',  ( 441.7337341477676205, -3.000000000000000000, 165.2234606091576552 ) ) ;
#193 = ORIENTED_EDGE ( 'NONE', *, *, #803, .T. ) ;
#194 = EDGE_CURVE ( 'NONE', #882, #695, #513, .T. ) ;
#195 = APPLICATION_PROTOCOL_DEFINITION ( 'draft international standard', 'automotive_design', 1998, #64 ) ;
#196 = CARTESIAN_POINT ( 'NONE',  ( 431.9700000000000273, -3.000000000000000444, 167.0000000000000000 ) ) ;
#197 = CARTESIAN_POINT ( 'NONE',  ( 425.9700000000000273, -44.00000000000000000, 69.00000000000000000 ) ) ;
#198 = SURFACE_SIDE_STYLE ('',( #661 ) ) ;
#199 = FACE_OUTER_BOUND ( 'NONE', #242, .T. ) ;
#200 = CARTESIAN_POINT ( 'NONE',  ( 460.2033939803238809, -3.000000000000000000, 165.2442014616894141 ) ) ;
#201 = AXIS2_PLACEMENT_3D ( 'NONE', #819, #465, #816 ) ;
#202 = CIRCLE ( 'NONE', #15, 3.000000000000002665 ) ;
#203 = CARTESIAN_POINT ( 'NONE',  ( 0.000000000000000000, 0.000000000000000000, 0.000000000000000000 ) ) ;
#204 = DIRECTION ( 'NONE',  ( -1.000000000000000000, 0.000000000000000000, 0.000000000000000000 ) ) ;
#205 = EDGE_CURVE ( 'NONE', #705, #800, #288, .T. ) ;
#206 = DIRECTION ( 'NONE',  ( -1.000000000000000000, 0.000000000000000000, 0.000000000000000000 ) ) ;
#207 = VERTEX_POINT ( 'NONE', #303 ) ;
#208 = CARTESIAN_POINT ( 'NONE',  ( 469.9700000000000273, -44.00000000000000000, 167.0000000000000000 ) ) ;
#209 = DIRECTION ( 'NONE',  ( 0.000000000000000000, 0.000000000000000000, -1.000000000000000000 ) ) ;
#210 = EDGE_CURVE ( 'NONE', #845, #185, #418, .T. ) ;
#211 = ORIENTED_EDGE ( 'NONE', *, *, #179, .F. ) ;
#212 = ORIENTED_EDGE ( 'NONE', *, *, #16, .T. ) ;
#213 = CARTESIAN_POINT ( 'NONE',  ( 428.9700000000000273, -15.00000000000000000, 160.0000000000000000 ) ) ;
#214 = CARTESIAN_POINT ( 'NONE',  ( 469.9700000000000273, -50.00000000000000711, 167.0000000000000000 ) ) ;
#215 = VERTEX_POINT ( 'NONE', #563 ) ;
#216 = VECTOR ( 'NONE', #483, 1000.000000000000000 ) ;
#217 = AXIS2_PLACEMENT_3D ( 'NONE', #762, #1, #158 ) ;
#218 = CARTESIAN_POINT ( 'NONE',  ( 431.9700000000000273, -44.00000000000000000, 167.0000000000000000 ) ) ;
#219 = CARTESIAN_POINT ( 'NONE',  ( 475.9700000000000273, -44.00000000000000000, 167.0000000000000000 ) ) ;
#220 = ORIENTED_EDGE ( 'NONE', *, *, #26, .F. ) ;
#221 = EDGE_CURVE ( 'NONE', #438, #207, #76, .T. ) ;
#222 = LINE ( 'NONE', #429, #216 ) ;
#223 = DIRECTION ( 'NONE',  ( 0.000000000000000000, -1.000000000000000000, 0.000000000000000000 ) ) ;
#224 = EDGE_LOOP ( 'NONE', ( #486, #117, #847, #311, #605, #74, #419, #564 ) ) ;
#225 = CYLINDRICAL_SURFACE ( 'NONE', #144, 3.000000000000002665 ) ;
#226 = DIRECTION ( 'NONE',  ( 0.000000000000000000, 1.000000000000000000, 0.000000000000000000 ) ) ;
#227 = ORIENTED_EDGE ( 'NONE', *, *, #221, .T. ) ;
#228 = VECTOR ( 'NONE', #60, 1000.000000000000000 ) ;
#229 = VECTOR ( 'NONE', #159, 1000.000000000000000 ) ;
#230 = ORIENTED_EDGE ( 'NONE', *, *, #77, .T. ) ;
#231 = DIRECTION ( 'NONE',  ( 0.000000000000000000, 0.000000000000000000, -1.000000000000000000 ) ) ;
#232 = AXIS2_PLACEMENT_3D ( 'NONE', #213, #6, #80 ) ;
#233 = DIRECTION ( 'NONE',  ( 1.000000000000000000, 0.000000000000000000, 0.000000000000000000 ) ) ;
#234 = MECHANICAL_DESIGN_GEOMETRIC_PRESENTATION_REPRESENTATION (  '', ( #392 ), #126 ) ;
#235 = EDGE_CURVE ( 'NONE', #49, #131, #792, .T. ) ;
#236 = VERTEX_POINT ( 'NONE', #214 ) ;
#237 = VERTEX_POINT ( 'NONE', #424 ) ;
#238 = DIRECTION ( 'NONE',  ( -0.000000000000000000, 1.000000000000000000, -0.000000000000000000 ) ) ;
#239 = LINE ( 'NONE', #506, #293 ) ;
#240 = VERTEX_POINT ( 'NONE', #219 ) ;
#241 = EDGE_CURVE ( 'NONE', #438, #171, #435, .T. ) ;
#242 = EDGE_LOOP ( 'NONE', ( #448, #840, #161, #843, #489, #592, #583, #304 ) ) ;
#243 = CARTESIAN_POINT ( 'NONE',  ( 431.9700000000000273, 0.000000000000000000, 69.00000000000000000 ) ) ;
#244 = CARTESIAN_POINT ( 'NONE',  ( 469.9700000000000273, -44.00000000000000000, 69.00000000000000000 ) ) ;
#245 = DIRECTION ( 'NONE',  ( 0.000000000000000000, 0.000000000000000000, -1.000000000000000000 ) ) ;
#246 = EDGE_CURVE ( 'NONE', #131, #687, #427, .T. ) ;
#247 = ORIENTED_EDGE ( 'NONE', *, *, #869, .T. ) ;
#248 = DIRECTION ( 'NONE',  ( 0.000000000000000000, 0.000000000000000000, -1.000000000000000000 ) ) ;
#249 = FACE_OUTER_BOUND ( 'NONE', #773, .T. ) ;
#250 = AXIS2_PLACEMENT_3D ( 'NONE', #781, #101, #116 ) ;
#251 =( LENGTH_UNIT ( ) NAMED_UNIT ( * ) SI_UNIT ( .MILLI., .METRE. ) );
#252 = PRODUCT_DEFINITION_CONTEXT ( 'detailed design', #64, 'design' ) ;
#253 = ORIENTED_EDGE ( 'NONE', *, *, #832, .T. ) ;
#254 = DIRECTION ( 'NONE',  ( 0.000000000000000000, -1.000000000000000000, 0.000000000000000000 ) ) ;
#255 = EDGE_CURVE ( 'NONE', #20, #705, #24, .T. ) ;
#256 = DIRECTION ( 'NONE',  ( 1.000000000000000000, 0.000000000000000000, 0.000000000000000000 ) ) ;
#257 = B_SPLINE_CURVE_WITH_KNOTS ( 'NONE', 3,
 ( #36, #664, #801, #873 ),
 .UNSPECIFIED., .F., .F.,
 ( 4, 4 ),
 ( 0.03849495437578973750, 0.9619729750445240590 ),
 .UNSPECIFIED. ) ;
#258 = DIRECTION ( 'NONE',  ( 0.000000000000000000, 0.000000000000000000, -1.000000000000000000 ) ) ;
#259 = ORIENTED_EDGE ( 'NONE', *, *, #44, .T. ) ;
#260 = DIRECTION ( 'NONE',  ( 1.000000000000000000, 0.000000000000000000, 0.000000000000000000 ) ) ;
#261 = DIRECTION ( 'NONE',  ( -1.000000000000000000, 0.000000000000000000, 0.000000000000000000 ) ) ;
#262 = ORIENTED_EDGE ( 'NONE', *, *, #381, .T. ) ;
#263 = DIRECTION ( 'NONE',  ( 0.000000000000000000, 0.000000000000000000, -1.000000000000000000 ) ) ;
#264 = VECTOR ( 'NONE', #446, 1000.000000000000000 ) ;
#265 = DIRECTION ( 'NONE',  ( 0.000000000000000000, 0.000000000000000000, -1.000000000000000000 ) ) ;
#266 = CIRCLE ( 'NONE', #597, 6.000000000000005329 ) ;
#267 = ADVANCED_FACE ( 'NONE', ( #826 ), #357, .T. ) ;
#268 = CARTESIAN_POINT ( 'NONE',  ( 441.7337341477673363, -47.00000000000002132, 165.2234606091575415 ) ) ;
#269 = AXIS2_PLACEMENT_3D ( 'NONE', #203, #600, #56 ) ;
#270 = CARTESIAN_POINT ( 'NONE',  ( 469.9700000000000273, -6.000000000000000000, 10.00000000000000000 ) ) ;
#271 = LINE ( 'NONE', #275, #111 ) ;
#272 = APPLICATION_PROTOCOL_DEFINITION ( 'draft international standard', 'automotive_design', 1998, #53 ) ;
#273 = EDGE_CURVE ( 'NONE', #171, #169, #25, .T. ) ;
#274 = CARTESIAN_POINT ( 'NONE',  ( 462.9332223124226857, -50.00000000000000000, 167.0000000000000000 ) ) ;
#275 = CARTESIAN_POINT ( 'NONE',  ( 469.9700000000000273, 0.000000000000000000, 167.0000000000000000 ) ) ;
#276 = EDGE_LOOP ( 'NONE', ( #191, #21, #422, #34 ) ) ;
#277 = VECTOR ( 'NONE', #405, 1000.000000000000000 ) ;
#278 = COLOUR_RGB ( '',0.6509803921568627638, 0.6196078431372549211, 0.5882352941176470784 ) ;
#279 = CARTESIAN_POINT ( 'NONE',  ( 469.9700000000000273, -47.00000000000000711, 69.00000000000000000 ) ) ;
#280 = EDGE_CURVE ( 'NONE', #813, #426, #630, .T. ) ;
#281 = CARTESIAN_POINT ( 'NONE',  ( 447.8248879958712223, -3.000000000000000000, 151.5860718006139507 ) ) ;
#282 = ORIENTED_EDGE ( 'NONE', *, *, #241, .F. ) ;
#283 = CARTESIAN_POINT ( 'NONE',  ( 460.2033939803238241, -50.00000000000000000, 165.2442014616894994 ) ) ;
#284 = AXIS2_PLACEMENT_3D ( 'NONE', #656, #22, #104 ) ;
#285 = DIRECTION ( 'NONE',  ( 1.000000000000000000, 0.000000000000000000, 0.000000000000000000 ) ) ;
#286 = EDGE_LOOP ( 'NONE', ( #861, #414, #595, #320 ) ) ;
#287 = CARTESIAN_POINT ( 'NONE',  ( 431.9700000000000273, -44.00000000000000000, 160.0000000000000000 ) ) ;
#288 = LINE ( 'NONE', #2, #654 ) ;
#289 = ORIENTED_EDGE ( 'NONE', *, *, #194, .F. ) ;
#290 = VECTOR ( 'NONE', #738, 1000.000000000000000 ) ;
#291 = EDGE_CURVE ( 'NONE', #185, #49, #473, .T. ) ;
#292 = AXIS2_PLACEMENT_3D ( 'NONE', #617, #360, #621 ) ;
#293 = VECTOR ( 'NONE', #585, 1000.000000000000000 ) ;
#294 = LINE ( 'NONE', #685, #28 ) ;
#295 = FACE_OUTER_BOUND ( 'NONE', #779, .T. ) ;
#296 = ORIENTED_EDGE ( 'NONE', *, *, #520, .F. ) ;
#297 = ORIENTED_EDGE ( 'NONE', *, *, #851, .F. ) ;
#298 = CARTESIAN_POINT ( 'NONE',  ( 441.7337341423820476, -50.00000000000000000, 165.2234606212148549 ) ) ;
#299 = FACE_OUTER_BOUND ( 'NONE', #431, .T. ) ;
#300 = EDGE_LOOP ( 'NONE', ( #411, #627, #820, #830 ) ) ;
#301 = CARTESIAN_POINT ( 'NONE',  ( 469.9700000000000273, -3.000000000000000444, 69.00000000000000000 ) ) ;
#302 = EDGE_CURVE ( 'NONE', #761, #215, #568, .T. ) ;
#303 = CARTESIAN_POINT ( 'NONE',  ( 472.9700000000000273, -6.000000000000000000, 69.00000000000000000 ) ) ;
#304 = ORIENTED_EDGE ( 'NONE', *, *, #291, .T. ) ;
#305 = ORIENTED_EDGE ( 'NONE', *, *, #879, .T. ) ;
#306 = LINE ( 'NONE', #567, #35 ) ;
#307 = VECTOR ( 'NONE', #31, 1000.000000000000000 ) ;
#308 = ADVANCED_FACE ( 'NONE', ( #150 ), #146, .T. ) ;
#309 = CARTESIAN_POINT ( 'NONE',  ( 438.9945473819845461, -47.00000000000000000, 164.0000000000001137 ) ) ;
#310 = ORIENTED_EDGE ( 'NONE', *, *, #618, .F. ) ;
#311 = ORIENTED_EDGE ( 'NONE', *, *, #821, .T. ) ;
#312 = CARTESIAN_POINT ( 'NONE',  ( 431.9700000000000273, -47.00000000000000711, 167.0000000000000000 ) ) ;
#313 = DIRECTION ( 'NONE',  ( 0.000000000000000000, 0.000000000000000000, 1.000000000000000000 ) ) ;
#314 = ORIENTED_EDGE ( 'NONE', *, *, #59, .F. ) ;
#315 = ADVANCED_FACE ( 'NONE', ( #295 ), #554, .T. ) ;
#316 = ORIENTED_EDGE ( 'NONE', *, *, #735, .T. ) ;
#317 = DIRECTION ( 'NONE',  ( 1.000000000000000000, 0.000000000000000000, 0.000000000000000000 ) ) ;
#318 = CARTESIAN_POINT ( 'NONE',  ( 460.2033939754598464, -50.00000000000000000, 165.2442014510174317 ) ) ;
#319 = LINE ( 'NONE', #870, #841 ) ;
#320 = ORIENTED_EDGE ( 'NONE', *, *, #273, .T. ) ;
#321 = CARTESIAN_POINT ( 'NONE',  ( 469.9700000000000273, -6.000000000000000000, 69.00000000000000000 ) ) ;
#322 = CIRCLE ( 'NONE', #872, 3.000000000000002665 ) ;
#323 = AXIS2_PLACEMENT_3D ( 'NONE', #372, #430, #86 ) ;
#324 = DIRECTION ( 'NONE',  ( -1.000000000000000000, 0.000000000000000000, 0.000000000000000000 ) ) ;
#325 = AXIS2_PLACEMENT_3D ( 'NONE', #434, #624, #367 ) ;
#326 = ORIENTED_EDGE ( 'NONE', *, *, #481, .T. ) ;
#327 = EDGE_LOOP ( 'NONE', ( #92, #571, #690, #160 ) ) ;
#328 = DIRECTION ( 'NONE',  ( 0.000000000000000000, 0.000000000000000000, -1.000000000000000000 ) ) ;
#329 = LINE ( 'NONE', #590, #750 ) ;
#330 = FACE_OUTER_BOUND ( 'NONE', #327, .T. ) ;
#331 = ORIENTED_EDGE ( 'NONE', *, *, #640, .F. ) ;
#332 =( LENGTH_UNIT ( ) NAMED_UNIT ( * ) SI_UNIT ( .MILLI., .METRE. ) );
#333 = CARTESIAN_POINT ( 'NONE',  ( 440.9699999999999704, -50.00000000000000000, 10.00000000000000000 ) ) ;
#334 = EDGE_CURVE ( 'NONE', #83, #93, #7, .T. ) ;
#335 = FACE_BOUND ( 'NONE', #751, .T. ) ;
#336 = LINE ( 'NONE', #268, #96 ) ;
#337 = ADVANCED_FACE ( 'NONE', ( #299 ), #168, .F. ) ;
#338 = PLANE ( 'NONE',  #143 ) ;
#339 = VECTOR ( 'NONE', #633, 1000.000000000000000 ) ;
#340 = CARTESIAN_POINT ( 'NONE',  ( 431.9700000000000273, -44.00000000000000000, 167.0000000000000000 ) ) ;
#341 = CARTESIAN_POINT ( 'NONE',  ( 438.9945473819845461, -3.000000000000000000, 167.0000000000000000 ) ) ;
#342 = ADVANCED_FACE ( 'NONE', ( #844 ), #450, .T. ) ;
#343 = CARTESIAN_POINT ( 'NONE',  ( 447.8248879979002481, -3.000000000000000000, 151.5860718042106612 ) ) ;
#344 = CARTESIAN_POINT ( 'NONE',  ( 441.7337341423820476, -3.000000000000000000, 165.2234606212148265 ) ) ;
#345 = EDGE_LOOP ( 'NONE', ( #758, #631, #674, #152, #482, #310, #493, #436, #331, #566, #655, #378 ) ) ;
#346 = ADVANCED_FACE ( 'NONE', ( #249 ), #174, .F. ) ;
#347 = CARTESIAN_POINT ( 'NONE',  ( 465.4711751554935404, -50.00000000000000000, 167.0000000000000000 ) ) ;
#348 = CARTESIAN_POINT ( 'NONE',  ( 431.9700000000000273, -6.000000000000000000, 10.00000000000000000 ) ) ;
#349 = AXIS2_PLACEMENT_3D ( 'NONE', #662, #651, #47 ) ;
#350 = ORIENTED_EDGE ( 'NONE', *, *, #495, .T. ) ;
#351 = FACE_OUTER_BOUND ( 'NONE', #276, .T. ) ;
#352 = EDGE_CURVE ( 'NONE', #687, #181, #40, .T. ) ;
#353 = CARTESIAN_POINT ( 'NONE',  ( 460.2033939803238809, 0.000000000000000000, 165.2442014616894141 ) ) ;
#354 = ORIENTED_EDGE ( 'NONE', *, *, #170, .F. ) ;
#355 = CYLINDRICAL_SURFACE ( 'NONE', #217, 6.000000000000005329 ) ;
#356 = EDGE_CURVE ( 'NONE', #237, #626, #187, .T. ) ;
#357 = PLANE ( 'NONE',  #726 ) ;
#358 = ORIENTED_EDGE ( 'NONE', *, *, #634, .F. ) ;
#359 = CARTESIAN_POINT ( 'NONE',  ( 438.9945473819845461, 0.000000000000000000, 167.0000000000000000 ) ) ;
#360 = DIRECTION ( 'NONE',  ( 0.000000000000000000, -1.000000000000000000, 0.000000000000000000 ) ) ;
#361 = ORIENTED_EDGE ( 'NONE', *, *, #495, .F. ) ;
#362 = EDGE_LOOP ( 'NONE', ( #504, #166, #289, #892 ) ) ;
#363 = DIRECTION ( 'NONE',  ( 0.000000000000000000, 0.000000000000000000, -1.000000000000000000 ) ) ;
#364 = CARTESIAN_POINT ( 'NONE',  ( 499.9700000000000273, -135.0000000000000000, 167.0000000000000000 ) ) ;
#365 = ORIENTED_EDGE ( 'NONE', *, *, #393, .F. ) ;
#366 = EDGE_LOOP ( 'NONE', ( #211, #727, #785, #451 ) ) ;
#367 = DIRECTION ( 'NONE',  ( 0.000000000000000000, 1.000000000000000000, 0.000000000000000000 ) ) ;
#368 = DIRECTION ( 'NONE',  ( 0.000000000000000000, 1.000000000000000000, 0.000000000000000000 ) ) ;
#369 = ORIENTED_EDGE ( 'NONE', *, *, #137, .T. ) ;
#370 = ORIENTED_EDGE ( 'NONE', *, *, #548, .T. ) ;
#371 = LINE ( 'NONE', #505, #522 ) ;
#372 = CARTESIAN_POINT ( 'NONE',  ( 431.9700000000000273, -6.000000000000000000, 167.0000000000000000 ) ) ;
#373 = EDGE_LOOP ( 'NONE', ( #383, #377, #361, #247 ) ) ;
#374 = ORIENTED_EDGE ( 'NONE', *, *, #543, .F. ) ;
#375 = DIRECTION ( 'NONE',  ( 0.000000000000000000, 0.000000000000000000, 1.000000000000000000 ) ) ;
#376 = EDGE_CURVE ( 'NONE', #632, #426, #266, .T. ) ;
#377 = ORIENTED_EDGE ( 'NONE', *, *, #302, .T. ) ;
#378 = ORIENTED_EDGE ( 'NONE', *, *, #864, .F. ) ;
#379 = LINE ( 'NONE', #719, #713 ) ;
#380 = CARTESIAN_POINT ( 'NONE',  ( 441.7337341477676205, 0.000000000000000000, 165.2234606091575984 ) ) ;
#381 = EDGE_CURVE ( 'NONE', #626, #240, #239, .T. ) ;
#382 = CARTESIAN_POINT ( 'NONE',  ( 499.9700000000000273, -135.0000000000000000, 69.00000000000000000 ) ) ;
#383 = ORIENTED_EDGE ( 'NONE', *, *, #548, .F. ) ;
#384 = CARTESIAN_POINT ( 'NONE',  ( 438.9945473819845461, -50.00000000000000000, 164.0000000000001137 ) ) ;
#385 = DIRECTION ( 'NONE',  ( -1.000000000000000000, 0.000000000000000000, 0.000000000000000000 ) ) ;
#386 = CIRCLE ( 'NONE', #250, 3.000000000000002665 ) ;
#387 = EDGE_LOOP ( 'NONE', ( #408, #790, #679, #156 ) ) ;
#388 = DIRECTION ( 'NONE',  ( -1.850371707708594129E-14, 1.000000000000000000, 0.000000000000000000 ) ) ;
#389 = DIRECTION ( 'NONE',  ( 0.000000000000000000, -1.000000000000000000, 0.000000000000000000 ) ) ;
#390 = VECTOR ( 'NONE', #420, 1000.000000000000000 ) ;
#391 = LINE ( 'NONE', #575, #657 ) ;
#392 = STYLED_ITEM ( 'NONE', ( #447 ), #61 ) ;
#393 = EDGE_CURVE ( 'NONE', #141, #20, #51, .T. ) ;
#394 = ORIENTED_EDGE ( 'NONE', *, *, #491, .T. ) ;
#395 = CARTESIAN_POINT ( 'NONE',  ( 431.9700000000000273, -44.00000000000000000, 69.00000000000000000 ) ) ;
#396 = CARTESIAN_POINT ( 'NONE',  ( 425.9700000000000273, -6.000000000000000000, 167.0000000000000000 ) ) ;
#397 = PRODUCT_DEFINITION ( 'Î´Öª', '', #891, #252 ) ;
#398 = LINE ( 'NONE', #475, #277 ) ;
#399 = DIRECTION ( 'NONE',  ( 0.000000000000000000, 0.000000000000000000, 1.000000000000000000 ) ) ;
#400 = CARTESIAN_POINT ( 'NONE',  ( 475.9700000000000273, -6.000000000000000000, 167.0000000000000000 ) ) ;
#401 = VECTOR ( 'NONE', #226, 1000.000000000000000 ) ;
#402 = ADVANCED_FACE ( 'NONE', ( #516 ), #178, .F. ) ;
#403 = DIRECTION ( 'NONE',  ( 0.000000000000000000, 0.000000000000000000, -1.000000000000000000 ) ) ;
#404 = CIRCLE ( 'NONE', #9, 6.000000000000005329 ) ;
#405 = DIRECTION ( 'NONE',  ( -1.000000000000000000, 0.000000000000000000, 0.000000000000000000 ) ) ;
#406 = FACE_OUTER_BOUND ( 'NONE', #441, .T. ) ;
#407 = EDGE_CURVE ( 'NONE', #782, #87, #859, .T. ) ;
#408 = ORIENTED_EDGE ( 'NONE', *, *, #137, .F. ) ;
#409 = DIRECTION ( 'NONE',  ( 1.000000000000000000, 0.000000000000000000, 0.000000000000000000 ) ) ;
#410 = LINE ( 'NONE', #678, #580 ) ;
#411 = ORIENTED_EDGE ( 'NONE', *, *, #77, .F. ) ;
#412 = CARTESIAN_POINT ( 'NONE',  ( 425.9700000000000273, -44.00000000000000000, 69.00000000000000000 ) ) ;
#413 = CARTESIAN_POINT ( 'NONE',  ( 462.9332223124226857, -3.000000000000000000, 167.0000000000000000 ) ) ;
#414 = ORIENTED_EDGE ( 'NONE', *, *, #221, .F. ) ;
#415 = CIRCLE ( 'NONE', #768, 3.000000000000002665 ) ;
#416 = EDGE_CURVE ( 'NONE', #108, #800, #793, .T. ) ;
#417 = CYLINDRICAL_SURFACE ( 'NONE', #127, 3.000000000000002665 ) ;
#418 = LINE ( 'NONE', #772, #443 ) ;
#419 = ORIENTED_EDGE ( 'NONE', *, *, #432, .F. ) ;
#420 = DIRECTION ( 'NONE',  ( 0.000000000000000000, -1.000000000000000000, 0.000000000000000000 ) ) ;
#421 = CARTESIAN_POINT ( 'NONE',  ( 472.9700000000000273, -44.00000000000000000, 69.00000000000000000 ) ) ;
#422 = ORIENTED_EDGE ( 'NONE', *, *, #235, .F. ) ;
#423 = PLANE ( 'NONE',  #232 ) ;
#424 = CARTESIAN_POINT ( 'NONE',  ( 475.9700000000000273, -6.000000000000000000, 69.00000000000000000 ) ) ;
#425 = ADVANCED_FACE ( 'NONE', ( #98 ), #183, .F. ) ;
#426 = VERTEX_POINT ( 'NONE', #110 ) ;
#427 = CIRCLE ( 'NONE', #763, 3.000000000000002665 ) ;
#428 = AXIS2_PLACEMENT_3D ( 'NONE', #189, #258, #642 ) ;
#429 = CARTESIAN_POINT ( 'NONE',  ( 425.9700000000000273, -44.00000000000000000, 69.00000000000000000 ) ) ;
#430 = DIRECTION ( 'NONE',  ( 0.000000000000000000, 0.000000000000000000, -1.000000000000000000 ) ) ;
#431 = EDGE_LOOP ( 'NONE', ( #480, #774, #754, #115 ) ) ;
#432 = EDGE_CURVE ( 'NONE', #813, #814, #683, .T. ) ;
#433 = ORIENTED_EDGE ( 'NONE', *, *, #569, .F. ) ;
#434 = CARTESIAN_POINT ( 'NONE',  ( 431.9700000000000273, -6.000000000000000000, 69.00000000000000000 ) ) ;
#435 = LINE ( 'NONE', #757, #229 ) ;
#436 = ORIENTED_EDGE ( 'NONE', *, *, #653, .T. ) ;
#437 = EDGE_CURVE ( 'NONE', #695, #131, #524, .T. ) ;
#438 = VERTEX_POINT ( 'NONE', #658 ) ;
#439 = DIRECTION ( 'NONE',  ( 1.000000000000000000, 0.000000000000000000, 0.000000000000000000 ) ) ;
#440 = CARTESIAN_POINT ( 'NONE',  ( 438.9945473819845461, -48.50000000000000000, 164.0000000000001137 ) ) ;
#441 = EDGE_LOOP ( 'NONE', ( #497, #259, #614, #103, #541, #858, #220, #835, #38, #798, #365, #549 ) ) ;
#442 = VECTOR ( 'NONE', #58, 1000.000000000000000 ) ;
#443 = VECTOR ( 'NONE', #233, 1000.000000000000000 ) ;
#444 = ORIENTED_EDGE ( 'NONE', *, *, #640, .T. ) ;
#445 = PLANE ( 'NONE',  #182 ) ;
#446 = DIRECTION ( 'NONE',  ( 1.000000000000000000, 0.000000000000000000, 0.000000000000000000 ) ) ;
#447 = PRESENTATION_STYLE_ASSIGNMENT (( #579 ) ) ;
#448 = ORIENTED_EDGE ( 'NONE', *, *, #235, .T. ) ;
#449 = CARTESIAN_POINT ( 'NONE',  ( 462.9332223124226857, 0.000000000000000000, 164.0000000000000568 ) ) ;
#450 = CYLINDRICAL_SURFACE ( 'NONE', #565, 3.000000000000002665 ) ;
#451 = ORIENTED_EDGE ( 'NONE', *, *, #11, .T. ) ;
#452 = ORIENTED_EDGE ( 'NONE', *, *, #739, .F. ) ;
#453 =( NAMED_UNIT ( * ) PLANE_ANGLE_UNIT ( ) SI_UNIT ( $, .RADIAN. ) );
#454 = DIRECTION ( 'NONE',  ( 0.000000000000000000, -1.000000000000000000, 0.000000000000000000 ) ) ;
#455 = DIRECTION ( 'NONE',  ( 0.000000000000000000, 0.000000000000000000, 1.000000000000000000 ) ) ;
#456 = EDGE_LOOP ( 'NONE', ( #444, #253, #370, #369, #517, #507, #10, #326 ) ) ;
#457 =( LENGTH_UNIT ( ) NAMED_UNIT ( * ) SI_UNIT ( .MILLI., .METRE. ) );
#458 = AXIS2_PLACEMENT_3D ( 'NONE', #208, #464, #409 ) ;
#459 = VECTOR ( 'NONE', #599, 1000.000000000000000 ) ;
#460 = DIRECTION ( 'NONE',  ( 0.000000000000000000, 0.000000000000000000, -1.000000000000000000 ) ) ;
#461 = AXIS2_PLACEMENT_3D ( 'NONE', #645, #385, #454 ) ;
#462 = FILL_AREA_STYLE ('',( #722 ) ) ;
#463 = ORIENTED_EDGE ( 'NONE', *, *, #165, .F. ) ;
#464 = DIRECTION ( 'NONE',  ( 0.000000000000000000, 0.000000000000000000, -1.000000000000000000 ) ) ;
#465 = DIRECTION ( 'NONE',  ( 0.000000000000000000, -1.000000000000000000, 0.000000000000000000 ) ) ;
#466 = AXIS2_PLACEMENT_3D ( 'NONE', #39, #708, #260 ) ;
#467 = EDGE_CURVE ( 'NONE', #237, #814, #641, .T. ) ;
#468 = DIRECTION ( 'NONE',  ( -0.000000000000000000, -1.000000000000000000, 0.000000000000000000 ) ) ;
#469 = CARTESIAN_POINT ( 'NONE',  ( 431.9700000000000273, -3.000000000000000000, 167.0000000000000000 ) ) ;
#470 = SURFACE_STYLE_USAGE ( .BOTH. , #198 ) ;
#471 = DIRECTION ( 'NONE',  ( 0.000000000000000000, 0.000000000000000000, 1.000000000000000000 ) ) ;
#472 = VECTOR ( 'NONE', #133, 1000.000000000000000 ) ;
#473 = CIRCLE ( 'NONE', #173, 3.000000000000002665 ) ;
#474 = CARTESIAN_POINT ( 'NONE',  ( 453.9814412737975999, -50.00000000000000000, 151.5929854181639200 ) ) ;
#475 = CARTESIAN_POINT ( 'NONE',  ( 469.9700000000000273, -3.000000000000000000, 167.0000000000000000 ) ) ;
#476 = CARTESIAN_POINT ( 'NONE',  ( 453.9814412751596819, -3.000000000000000000, 151.5929854141057262 ) ) ;
#477 = ORIENTED_EDGE ( 'NONE', *, *, #3, .T. ) ;
#478 = LINE ( 'NONE', #672, #290 ) ;
#479 = PLANE ( 'NONE',  #712 ) ;
#480 = ORIENTED_EDGE ( 'NONE', *, *, #481, .F. ) ;
#481 = EDGE_CURVE ( 'NONE', #684, #587, #329, .T. ) ;
#482 = ORIENTED_EDGE ( 'NONE', *, *, #381, .F. ) ;
#483 = DIRECTION ( 'NONE',  ( 0.000000000000000000, 0.000000000000000000, 1.000000000000000000 ) ) ;
#484 = DIRECTION ( 'NONE',  ( 0.000000000000000000, 1.000000000000000000, 0.000000000000000000 ) ) ;
#485 = AXIS2_PLACEMENT_3D ( 'NONE', #82, #625, #13 ) ;
#486 = ORIENTED_EDGE ( 'NONE', *, *, #376, .F. ) ;
#487 = DIRECTION ( 'NONE',  ( 0.000000000000000000, 0.000000000000000000, -1.000000000000000000 ) ) ;
#488 = CARTESIAN_POINT ( 'NONE',  ( 450.9699999999999704, -50.00000000000000000, 69.00000000000000000 ) ) ;
#489 = ORIENTED_EDGE ( 'NONE', *, *, #149, .F. ) ;
#490 = CARTESIAN_POINT ( 'NONE',  ( 469.9700000000000273, -44.00000000000000000, 160.0000000000000000 ) ) ;
#491 = EDGE_CURVE ( 'NONE', #800, #502, #386, .T. ) ;
#492 = DIRECTION ( 'NONE',  ( 0.000000000000000000, 0.000000000000000000, 1.000000000000000000 ) ) ;
#493 = ORIENTED_EDGE ( 'NONE', *, *, #407, .F. ) ;
#494 = CARTESIAN_POINT ( 'NONE',  ( 447.8248879958712791, -47.00000000000000000, 151.5860718006138939 ) ) ;
#495 = EDGE_CURVE ( 'NONE', #502, #215, #257, .T. ) ;
#496 = CARTESIAN_POINT ( 'NONE',  ( 441.7337341477677342, -47.00000000000000000, 165.2234606091577120 ) ) ;
#497 = ORIENTED_EDGE ( 'NONE', *, *, #3, .F. ) ;
#498 = AXIS2_PLACEMENT_3D ( 'NONE', #818, #620, #154 ) ;
#499 = ORIENTED_EDGE ( 'NONE', *, *, #811, .T. ) ;
#500 = CARTESIAN_POINT ( 'NONE',  ( 462.9332223124226857, -48.50000000000000000, 164.0000000000000568 ) ) ;
#501 = CARTESIAN_POINT ( 'NONE',  ( 472.9700000000000273, -6.000000000000000000, 167.0000000000000000 ) ) ;
#502 = VERTEX_POINT ( 'NONE', #380 ) ;
#503 = EDGE_CURVE ( 'NONE', #236, #882, #880, .T. ) ;
#504 = ORIENTED_EDGE ( 'NONE', *, *, #246, .F. ) ;
#505 = CARTESIAN_POINT ( 'NONE',  ( 428.9700000000000273, -6.000000000000000000, 69.00000000000000000 ) ) ;
#506 = CARTESIAN_POINT ( 'NONE',  ( 475.9700000000000273, -6.000000000000010658, 167.0000000000000000 ) ) ;
#507 = ORIENTED_EDGE ( 'NONE', *, *, #170, .T. ) ;
#508 = ORIENTED_EDGE ( 'NONE', *, *, #393, .T. ) ;
#509 = DIRECTION ( 'NONE',  ( 0.000000000000000000, -1.000000000000000000, 0.000000000000000000 ) ) ;
#510 = DIRECTION ( 'NONE',  ( -0.000000000000000000, 1.000000000000000000, -0.000000000000000000 ) ) ;
#511 = LINE ( 'NONE', #874, #539 ) ;
#512 = AXIS2_PLACEMENT_3D ( 'NONE', #680, #263, #69 ) ;
#513 = CIRCLE ( 'NONE', #784, 3.000000000000002665 ) ;
#514 = VERTEX_POINT ( 'NONE', #139 ) ;
#515 = CARTESIAN_POINT ( 'NONE',  ( 431.9700000000000273, 0.000000000000000000, 69.00000000000000000 ) ) ;
#516 = FACE_OUTER_BOUND ( 'NONE', #136, .T. ) ;
#517 = ORIENTED_EDGE ( 'NONE', *, *, #26, .T. ) ;
#518 = CARTESIAN_POINT ( 'NONE',  ( 462.9332223124226857, -3.000000000000000000, 164.0000000000000568 ) ) ;
#519 = CARTESIAN_POINT ( 'NONE',  ( 460.9723503109999569, 0.000000000000000000, 167.0000000000000000 ) ) ;
#520 = EDGE_CURVE ( 'NONE', #83, #852, #478, .T. ) ;
#521 = B_SPLINE_SURFACE_WITH_KNOTS ( 'NONE', 3, 1, ( 
 ( #12, #298 ),
 ( #494, #550 ),
 ( #612, #557 ),
 ( #888, #283 ) ),
 .UNSPECIFIED., .F., .F., .F.,
 ( 4, 4 ),
 ( 2, 2 ),
 ( 0.04420574077273220492, 0.9562109335957873490 ),
 ( 0.000000000000000000, 1.000000000000000000 ),
 .UNSPECIFIED. ) ;
#522 = VECTOR ( 'NONE', #177, 1000.000000000000000 ) ;
#523 = EDGE_LOOP ( 'NONE', ( #732, #867, #100, #297 ) ) ;
#524 = LINE ( 'NONE', #318, #526 ) ;
#525 = EDGE_LOOP ( 'NONE', ( #770, #508, #230, #611 ) ) ;
#526 = VECTOR ( 'NONE', #510, 1000.000000000000000 ) ;
#527 = ORIENTED_EDGE ( 'NONE', *, *, #864, .T. ) ;
#528 = VECTOR ( 'NONE', #368, 1000.000000000000000 ) ;
#529 = CARTESIAN_POINT ( 'NONE',  ( 469.9700000000000273, -47.00000000000000000, 167.0000000000000000 ) ) ;
#530 = CIRCLE ( 'NONE', #596, 5.999999999999998224 ) ;
#531 = AXIS2_PLACEMENT_3D ( 'NONE', #724, #720, #105 ) ;
#532 = DIRECTION ( 'NONE',  ( 0.000000000000000000, 0.000000000000000000, 1.000000000000000000 ) ) ;
#533 = CARTESIAN_POINT ( 'NONE',  ( 431.9700000000000273, -6.000000000000000000, 167.0000000000000000 ) ) ;
#534 = LINE ( 'NONE', #197, #681 ) ;
#535 =( GEOMETRIC_REPRESENTATION_CONTEXT ( 3 ) GLOBAL_UNCERTAINTY_ASSIGNED_CONTEXT ( ( #822 ) ) GLOBAL_UNIT_ASSIGNED_CONTEXT ( ( #332, #806, #122 ) ) REPRESENTATION_CONTEXT ( 'NONE', 'WORKASPACE' ) );
#536 = LINE ( 'NONE', #274, #693 ) ;
#537 = DIRECTION ( 'NONE',  ( 0.000000000000000000, 0.000000000000000000, -1.000000000000000000 ) ) ;
#538 = DIRECTION ( 'NONE',  ( -0.000000000000000000, -1.000000000000000000, 0.000000000000000000 ) ) ;
#539 = VECTOR ( 'NONE', #209, 1000.000000000000000 ) ;
#540 = CARTESIAN_POINT ( 'NONE',  ( 469.9700000000000273, -47.00000000000000711, 167.0000000000000000 ) ) ;
#541 = ORIENTED_EDGE ( 'NONE', *, *, #766, .F. ) ;
#542 = CARTESIAN_POINT ( 'NONE',  ( 469.9700000000000273, -3.000000000000000444, 167.0000000000000000 ) ) ;
#543 = EDGE_CURVE ( 'NONE', #691, #514, #188, .T. ) ;
#544 = CARTESIAN_POINT ( 'NONE',  ( 431.9700000000000273, -47.00000000000000000, 69.00000000000000000 ) ) ;
#545 = ORIENTED_EDGE ( 'NONE', *, *, #607, .T. ) ;
#546 = LINE ( 'NONE', #72, #390 ) ;
#547 = FACE_OUTER_BOUND ( 'NONE', #300, .T. ) ;
#548 = EDGE_CURVE ( 'NONE', #761, #67, #789, .T. ) ;
#549 = ORIENTED_EDGE ( 'NONE', *, *, #799, .F. ) ;
#550 = CARTESIAN_POINT ( 'NONE',  ( 447.8248879958712791, -50.00000000000000000, 151.5860718006138939 ) ) ;
#551 = LINE ( 'NONE', #501, #825 ) ;
#552 = ORIENTED_EDGE ( 'NONE', *, *, #832, .F. ) ;
#553 = CYLINDRICAL_SURFACE ( 'NONE', #113, 3.000000000000002665 ) ;
#554 = CYLINDRICAL_SURFACE ( 'NONE', #68, 3.000000000000002665 ) ;
#555 = EDGE_LOOP ( 'NONE', ( #71, #707, #433, #817 ) ) ;
#556 = EDGE_CURVE ( 'NONE', #636, #852, #837, .T. ) ;
#557 = CARTESIAN_POINT ( 'NONE',  ( 453.9814412751597388, -50.00000000000000000, 151.5929854141056978 ) ) ;
#558 = CIRCLE ( 'NONE', #284, 3.000000000000002665 ) ;
#559 = CARTESIAN_POINT ( 'NONE',  ( 462.9332223124226857, -50.00000000000000000, 164.0000000000000568 ) ) ;
#560 = ORIENTED_EDGE ( 'NONE', *, *, #334, .F. ) ;
#561 = ORIENTED_EDGE ( 'NONE', *, *, #194, .T. ) ;
#562 = CARTESIAN_POINT ( 'NONE',  ( 438.9945473819845461, -50.00000000000000000, 167.0000000000000000 ) ) ;
#563 = CARTESIAN_POINT ( 'NONE',  ( 460.2033939754595053, 0.000000000000000000, 165.2442014510175454 ) ) ;
#564 = ORIENTED_EDGE ( 'NONE', *, *, #280, .T. ) ;
#565 = AXIS2_PLACEMENT_3D ( 'NONE', #440, #709, #460 ) ;
#566 = ORIENTED_EDGE ( 'NONE', *, *, #701, .F. ) ;
#567 = CARTESIAN_POINT ( 'NONE',  ( 441.7337341477674499, 0.000000000000000000, 165.2234606091575415 ) ) ;
#568 = LINE ( 'NONE', #753, #637 ) ;
#569 = EDGE_CURVE ( 'NONE', #813, #236, #808, .T. ) ;
#570 = ORIENTED_EDGE ( 'NONE', *, *, #280, .F. ) ;
#571 = ORIENTED_EDGE ( 'NONE', *, *, #799, .T. ) ;
#572 = PLANE ( 'NONE',  #135 ) ;
#573 = DIRECTION ( 'NONE',  ( 0.000000000000000000, 0.000000000000000000, 1.000000000000000000 ) ) ;
#574 = PRESENTATION_LAYER_ASSIGNMENT (  '', '', ( #629 ) ) ;
#575 = CARTESIAN_POINT ( 'NONE',  ( 428.9700000000000273, -44.00000000000000000, 167.0000000000000000 ) ) ;
#576 = VERTEX_POINT ( 'NONE', #279 ) ;
#577 = CARTESIAN_POINT ( 'NONE',  ( 475.9700000000000273, -44.00000000000000000, 69.00000000000000000 ) ) ;
#578 = CARTESIAN_POINT ( 'NONE',  ( 475.9700000000000273, -6.000000000000000000, 69.00000000000000000 ) ) ;
#579 = SURFACE_STYLE_USAGE ( .BOTH. , #175 ) ;
#580 = VECTOR ( 'NONE', #734, 1000.000000000000000 ) ;
#581 = PRODUCT ( 'XH-YJ38-LJ-005-A0-µ×ÅÌ·½Í¨-²å×ù', 'XH-YJ38-LJ-005-A0-µ×ÅÌ·½Í¨-²å×ù', '', ( #667 ) ) ;
#582 = ADVANCED_FACE ( 'NONE', ( #199 ), #741, .T. ) ;
#583 = ORIENTED_EDGE ( 'NONE', *, *, #210, .T. ) ;
#584 = PLANE ( 'NONE',  #466 ) ;
#585 = DIRECTION ( 'NONE',  ( 0.000000000000000000, -1.000000000000000000, 0.000000000000000000 ) ) ;
#586 = DIRECTION ( 'NONE',  ( 1.000000000000000000, 0.000000000000000000, 0.000000000000000000 ) ) ;
#587 = VERTEX_POINT ( 'NONE', #542 ) ;
#588 = CARTESIAN_POINT ( 'NONE',  ( 469.9700000000000273, -50.00000000000000711, 69.00000000000000000 ) ) ;
#589 = EDGE_CURVE ( 'NONE', #687, #882, #536, .T. ) ;
#590 = CARTESIAN_POINT ( 'NONE',  ( 469.9700000000000273, -3.000000000000000000, 69.00000000000000000 ) ) ;
#591 = COLOUR_RGB ( '',0.6509803921568627638, 0.6196078431372549211, 0.5882352941176470784 ) ;
#592 = ORIENTED_EDGE ( 'NONE', *, *, #165, .T. ) ;
#593 = DIRECTION ( 'NONE',  ( -1.000000000000000000, 0.000000000000000000, 0.000000000000000000 ) ) ;
#594 = EDGE_CURVE ( 'NONE', #240, #236, #871, .T. ) ;
#595 = ORIENTED_EDGE ( 'NONE', *, *, #241, .T. ) ;
#596 = AXIS2_PLACEMENT_3D ( 'NONE', #218, #148, #688 ) ;
#597 = AXIS2_PLACEMENT_3D ( 'NONE', #395, #787, #324 ) ;
#598 = CARTESIAN_POINT ( 'NONE',  ( 453.9814412737975431, -3.000000000000000000, 151.5929854181639485 ) ) ;
#599 = DIRECTION ( 'NONE',  ( 0.000000000000000000, 0.000000000000000000, 1.000000000000000000 ) ) ;
#600 = DIRECTION ( 'NONE',  ( 0.000000000000000000, 0.000000000000000000, 1.000000000000000000 ) ) ;
#601 = DIRECTION ( 'NONE',  ( 0.000000000000000000, 1.000000000000000000, 0.000000000000000000 ) ) ;
#602 = CARTESIAN_POINT ( 'NONE',  ( 469.9700000000000273, 0.000000000000000000, 69.00000000000000000 ) ) ;
#603 = CARTESIAN_POINT ( 'NONE',  ( 460.2033939754595053, -3.000000000000000000, 165.2442014510175170 ) ) ;
#604 = DIRECTION ( 'NONE',  ( -1.000000000000000000, 0.000000000000000000, 0.000000000000000000 ) ) ;
#605 = ORIENTED_EDGE ( 'NONE', *, *, #11, .F. ) ;
#606 = PRESENTATION_STYLE_ASSIGNMENT (( #470 ) ) ;
#607 = EDGE_CURVE ( 'NONE', #638, #845, #322, .T. ) ;
#608 = CARTESIAN_POINT ( 'NONE',  ( 440.9699999999999704, -47.00000000000000000, 160.0000000000000000 ) ) ;
#609 = CARTESIAN_POINT ( 'NONE',  ( 425.9700000000000273, -44.00000000000000000, 167.0000000000000000 ) ) ;
#610 = VECTOR ( 'NONE', #797, 1000.000000000000000 ) ;
#611 = ORIENTED_EDGE ( 'NONE', *, *, #142, .F. ) ;
#612 = CARTESIAN_POINT ( 'NONE',  ( 453.9814412751597388, -47.00000000000000000, 151.5929854141056978 ) ) ;
#613 = CARTESIAN_POINT ( 'NONE',  ( 447.8248879979002481, -50.00000000000000000, 151.5860718042106043 ) ) ;
#614 = ORIENTED_EDGE ( 'NONE', *, *, #210, .F. ) ;
#615 =( GEOMETRIC_REPRESENTATION_CONTEXT ( 3 ) GLOBAL_UNCERTAINTY_ASSIGNED_CONTEXT ( ( #88 ) ) GLOBAL_UNIT_ASSIGNED_CONTEXT ( ( #457, #453, #715 ) ) REPRESENTATION_CONTEXT ( 'NONE', 'WORKASPACE' ) );
#616 = FACE_OUTER_BOUND ( 'NONE', #555, .T. ) ;
#617 = CARTESIAN_POINT ( 'NONE',  ( 438.9945473819845461, -1.500000000000001332, 164.0000000000001137 ) ) ;
#618 = EDGE_CURVE ( 'NONE', #87, #626, #823, .T. ) ;
#619 = VERTEX_POINT ( 'NONE', #129 ) ;
#620 = DIRECTION ( 'NONE',  ( 0.000000000000000000, 0.000000000000000000, 1.000000000000000000 ) ) ;
#621 = DIRECTION ( 'NONE',  ( 0.000000000000000000, 0.000000000000000000, -1.000000000000000000 ) ) ;
#622 = ORIENTED_EDGE ( 'NONE', *, *, #556, .T. ) ;
#623 = CIRCLE ( 'NONE', #325, 6.000000000000000000 ) ;
#624 = DIRECTION ( 'NONE',  ( 0.000000000000000000, 0.000000000000000000, 1.000000000000000000 ) ) ;
#625 = DIRECTION ( 'NONE',  ( 0.000000000000000000, 0.000000000000000000, -1.000000000000000000 ) ) ;
#626 = VERTEX_POINT ( 'NONE', #400 ) ;
#627 = ORIENTED_EDGE ( 'NONE', *, *, #255, .T. ) ;
#628 = CARTESIAN_POINT ( 'NONE',  ( 462.9332223124226857, -47.00000000000000000, 167.0000000000000000 ) ) ;
#629 = STYLED_ITEM ( 'NONE', ( #606 ), #742 ) ;
#630 = LINE ( 'NONE', #488, #668 ) ;
#631 = ORIENTED_EDGE ( 'NONE', *, *, #589, .T. ) ;
#632 = VERTEX_POINT ( 'NONE', #412 ) ;
#633 = DIRECTION ( 'NONE',  ( 0.000000000000000000, 0.000000000000000000, 1.000000000000000000 ) ) ;
#634 = EDGE_CURVE ( 'NONE', #181, #576, #868, .T. ) ;
#635 = DIRECTION ( 'NONE',  ( 0.000000000000000000, 0.000000000000000000, 1.000000000000000000 ) ) ;
#636 = VERTEX_POINT ( 'NONE', #196 ) ;
#637 = VECTOR ( 'NONE', #18, 1000.000000000000000 ) ;
#638 = VERTEX_POINT ( 'NONE', #877 ) ;
#639 = FACE_OUTER_BOUND ( 'NONE', #525, .T. ) ;
#640 = EDGE_CURVE ( 'NONE', #587, #63, #398, .T. ) ;
#641 = LINE ( 'NONE', #578, #307 ) ;
#642 = DIRECTION ( 'NONE',  ( -1.000000000000000000, 0.000000000000000000, 0.000000000000000000 ) ) ;
#643 = ORIENTED_EDGE ( 'NONE', *, *, #302, .F. ) ;
#644 = FACE_OUTER_BOUND ( 'NONE', #456, .T. ) ;
#645 = CARTESIAN_POINT ( 'NONE',  ( 475.9700000000000273, -15.00000000000000000, 10.00000000000000000 ) ) ;
#646 = AXIS2_PLACEMENT_3D ( 'NONE', #321, #167, #388 ) ;
#647 = SURFACE_STYLE_FILL_AREA ( #462 ) ;
#648 = EDGE_CURVE ( 'NONE', #49, #619, #336, .T. ) ;
#649 = EDGE_LOOP ( 'NONE', ( #282, #700, #358, #527 ) ) ;
#650 = CARTESIAN_POINT ( 'NONE',  ( 431.9700000000000273, 0.000000000000000000, 69.00000000000000000 ) ) ;
#651 = DIRECTION ( 'NONE',  ( 0.000000000000000000, 0.000000000000000000, -1.000000000000000000 ) ) ;
#652 = DIRECTION ( 'NONE',  ( 0.000000000000000000, 1.000000000000000000, -0.000000000000000000 ) ) ;
#653 = EDGE_CURVE ( 'NONE', #782, #63, #804, .T. ) ;
#654 = VECTOR ( 'NONE', #163, 1000.000000000000000 ) ;
#655 = ORIENTED_EDGE ( 'NONE', *, *, #273, .F. ) ;
#656 = CARTESIAN_POINT ( 'NONE',  ( 469.9700000000000273, -44.00000000000000000, 167.0000000000000000 ) ) ;
#657 = VECTOR ( 'NONE', #245, 1000.000000000000000 ) ;
#658 = CARTESIAN_POINT ( 'NONE',  ( 472.9700000000000273, -44.00000000000000000, 69.00000000000000000 ) ) ;
#659 = ORIENTED_EDGE ( 'NONE', *, *, #107, .T. ) ;
#660 = ORIENTED_EDGE ( 'NONE', *, *, #807, .T. ) ;
#661 = SURFACE_STYLE_FILL_AREA ( #132 ) ;
#662 = CARTESIAN_POINT ( 'NONE',  ( 469.9700000000000273, -6.000000000000000000, 160.0000000000000000 ) ) ;
#663 = ORIENTED_EDGE ( 'NONE', *, *, #291, .F. ) ;
#664 = CARTESIAN_POINT ( 'NONE',  ( 447.8248879979002481, 0.000000000000000000, 151.5860718042106328 ) ) ;
#665 = PRODUCT_RELATED_PRODUCT_CATEGORY ( 'part', '', ( #581 ) ) ;
#666 = CARTESIAN_POINT ( 'NONE',  ( 469.9700000000000273, 0.000000000000000000, 167.0000000000000000 ) ) ;
#667 = PRODUCT_CONTEXT ( 'NONE', #53, 'mechanical' ) ;
#668 = VECTOR ( 'NONE', #689, 1000.000000000000000 ) ;
#669 = PRODUCT_DEFINITION_SHAPE ( 'NONE', 'NONE',  #397 ) ;
#670 = CARTESIAN_POINT ( 'NONE',  ( 469.9700000000000273, -50.00000000000000000, 118.0000000000000142 ) ) ;
#671 = CARTESIAN_POINT ( 'NONE',  ( 447.8248879958712223, 0.000000000000000000, 151.5860718006139507 ) ) ;
#672 = CARTESIAN_POINT ( 'NONE',  ( 428.9700000000000273, -6.000000000000000000, 69.00000000000000000 ) ) ;
#673 = DIRECTION ( 'NONE',  ( 0.000000000000000000, 0.000000000000000000, -1.000000000000000000 ) ) ;
#674 = ORIENTED_EDGE ( 'NONE', *, *, #503, .F. ) ;
#675 = ADVANCED_FACE ( 'NONE', ( #736 ), #123, .T. ) ;
#676 = AXIS2_PLACEMENT_3D ( 'NONE', #384, #30, #862 ) ;
#677 = DIRECTION ( 'NONE',  ( 0.000000000000000000, 0.000000000000000000, -1.000000000000000000 ) ) ;
#678 = CARTESIAN_POINT ( 'NONE',  ( 431.9700000000000273, -47.00000000000000000, 69.00000000000000000 ) ) ;
#679 = ORIENTED_EDGE ( 'NONE', *, *, #491, .F. ) ;
#680 = CARTESIAN_POINT ( 'NONE',  ( 431.9700000000000273, -44.00000000000000000, 69.00000000000000000 ) ) ;
#681 = VECTOR ( 'NONE', #737, 1000.000000000000000 ) ;
#682 = CARTESIAN_POINT ( 'NONE',  ( 441.7337341423820476, 0.000000000000000000, 165.2234606212148265 ) ) ;
#683 = CIRCLE ( 'NONE', #23, 5.999999999999998224 ) ;
#684 = VERTEX_POINT ( 'NONE', #301 ) ;
#685 = CARTESIAN_POINT ( 'NONE',  ( 469.9700000000000273, -3.000000000000000000, 69.00000000000000000 ) ) ;
#686 = DIRECTION ( 'NONE',  ( 0.000000000000000000, 0.000000000000000000, 1.000000000000000000 ) ) ;
#687 = VERTEX_POINT ( 'NONE', #628 ) ;
#688 = DIRECTION ( 'NONE',  ( 0.000000000000000000, -1.000000000000000000, 0.000000000000000000 ) ) ;
#689 = DIRECTION ( 'NONE',  ( -1.000000000000000000, 0.000000000000000000, 0.000000000000000000 ) ) ;
#690 = ORIENTED_EDGE ( 'NONE', *, *, #721, .F. ) ;
#691 = VERTEX_POINT ( 'NONE', #752 ) ;
#692 = FACE_OUTER_BOUND ( 'NONE', #362, .T. ) ;
#693 = VECTOR ( 'NONE', #538, 1000.000000000000000 ) ;
#694 = DIRECTION ( 'NONE',  ( 0.000000000000000000, 1.000000000000000000, 0.000000000000000000 ) ) ;
#695 = VERTEX_POINT ( 'NONE', #85 ) ;
#696 = VECTOR ( 'NONE', #317, 1000.000000000000000 ) ;
#697 = VECTOR ( 'NONE', #652, 1000.000000000000000 ) ;
#698 = CARTESIAN_POINT ( 'NONE',  ( 469.9700000000000273, -44.00000000000000000, 69.00000000000000000 ) ) ;
#699 = CARTESIAN_POINT ( 'NONE',  ( 472.9700000000000273, -44.00000000000000000, 167.0000000000000000 ) ) ;
#700 = ORIENTED_EDGE ( 'NONE', *, *, #739, .T. ) ;
#701 = EDGE_CURVE ( 'NONE', #169, #587, #765, .T. ) ;
#702 = VERTEX_POINT ( 'NONE', #562 ) ;
#703 = FACE_OUTER_BOUND ( 'NONE', #649, .T. ) ;
#704 = CARTESIAN_POINT ( 'NONE',  ( 462.9332223124226857, -47.00000000000000000, 164.0000000000000568 ) ) ;
#705 = VERTEX_POINT ( 'NONE', #17 ) ;
#706 = ADVANCED_FACE ( 'NONE', ( #836 ), #553, .F. ) ;
#707 = ORIENTED_EDGE ( 'NONE', *, *, #594, .T. ) ;
#708 = DIRECTION ( 'NONE',  ( 0.000000000000000000, -1.000000000000000000, 0.000000000000000000 ) ) ;
#709 = DIRECTION ( 'NONE',  ( 0.000000000000000000, -1.000000000000000000, 0.000000000000000000 ) ) ;
#710 = CARTESIAN_POINT ( 'NONE',  ( 438.9945473819845461, -47.00000000000000000, 167.0000000000000000 ) ) ;
#711 = AXIS2_PLACEMENT_3D ( 'NONE', #270, #677, #204 ) ;
#712 = AXIS2_PLACEMENT_3D ( 'NONE', #886, #206, #399 ) ;
#713 = VECTOR ( 'NONE', #186, 1000.000000000000000 ) ;
#714 = ORIENTED_EDGE ( 'NONE', *, *, #467, .F. ) ;
#715 =( NAMED_UNIT ( * ) SI_UNIT ( $, .STERADIAN. ) SOLID_ANGLE_UNIT ( ) );
#716 = DIRECTION ( 'NONE',  ( 0.000000000000000000, 1.000000000000000000, -0.000000000000000000 ) ) ;
#717 = ADVANCED_FACE ( 'NONE', ( #692 ), #417, .T. ) ;
#718 = ORIENTED_EDGE ( 'NONE', *, *, #44, .F. ) ;
#719 = CARTESIAN_POINT ( 'NONE',  ( 431.9700000000000273, -50.00000000000000000, 118.0000000000000142 ) ) ;
#720 = DIRECTION ( 'NONE',  ( 0.000000000000000000, 0.000000000000000000, -1.000000000000000000 ) ) ;
#721 = EDGE_CURVE ( 'NONE', #632, #141, #222, .T. ) ;
#722 = FILL_AREA_STYLE_COLOUR ( '', #278 ) ;
#723 = ORIENTED_EDGE ( 'NONE', *, *, #851, .T. ) ;
#724 = CARTESIAN_POINT ( 'NONE',  ( 431.9700000000000273, -6.000000000000000000, 160.0000000000000000 ) ) ;
#725 = ORIENTED_EDGE ( 'NONE', *, *, #334, .T. ) ;
#726 = AXIS2_PLACEMENT_3D ( 'NONE', #364, #686, #760 ) ;
#727 = ORIENTED_EDGE ( 'NONE', *, *, #618, .T. ) ;
#728 = VECTOR ( 'NONE', #716, 1000.000000000000000 ) ;
#729 = VECTOR ( 'NONE', #265, 1000.000000000000000 ) ;
#730 = DIRECTION ( 'NONE',  ( 0.000000000000000000, 1.000000000000000000, 0.000000000000000000 ) ) ;
#731 = ADVANCED_FACE ( 'NONE', ( #145 ), #423, .T. ) ;
#732 = ORIENTED_EDGE ( 'NONE', *, *, #520, .T. ) ;
#733 = DIRECTION ( 'NONE',  ( 0.000000000000000000, 0.000000000000000000, -1.000000000000000000 ) ) ;
#734 = DIRECTION ( 'NONE',  ( 1.000000000000000000, 0.000000000000000000, 0.000000000000000000 ) ) ;
#735 = EDGE_CURVE ( 'NONE', #684, #93, #294, .T. ) ;
#736 = FACE_OUTER_BOUND ( 'NONE', #366, .T. ) ;
#737 = DIRECTION ( 'NONE',  ( 0.000000000000000000, 1.000000000000000000, 0.000000000000000000 ) ) ;
#738 = DIRECTION ( 'NONE',  ( 0.000000000000000000, 0.000000000000000000, 1.000000000000000000 ) ) ;
#739 = EDGE_CURVE ( 'NONE', #438, #576, #415, .T. ) ;
#740 = CARTESIAN_POINT ( 'NONE',  ( 441.7337341477676205, -50.00000000000000000, 165.2234606091576552 ) ) ;
#741 = PLANE ( 'NONE',  #883 ) ;
#742 = ADVANCED_BREP_SHAPE_REPRESENTATION ( 'XH-YJ38-LJ-005-A0-µ×ÅÌ·½Í¨-²å×ù', ( #61, #269 ), #615 ) ;
#743 = CARTESIAN_POINT ( 'NONE',  ( 499.9700000000000273, -135.0000000000000000, 167.0000000000000000 ) ) ;
#744 = EDGE_CURVE ( 'NONE', #887, #29, #623, .T. ) ;
#745 = ORIENTED_EDGE ( 'NONE', *, *, #179, .T. ) ;
#746 = CARTESIAN_POINT ( 'NONE',  ( 469.9700000000000273, -6.000000000000000000, 167.0000000000000000 ) ) ;
#747 = CARTESIAN_POINT ( 'NONE',  ( 441.7337341477676205, -3.000000000000000000, 165.2234606091576552 ) ) ;
#748 = ORIENTED_EDGE ( 'NONE', *, *, #569, .T. ) ;
#749 = ADVANCED_FACE ( 'NONE', ( #703 ), #225, .F. ) ;
#750 = VECTOR ( 'NONE', #573, 1000.000000000000000 ) ;
#751 = EDGE_LOOP ( 'NONE', ( #777, #316, #560, #723, #374, #827, #452, #227 ) ) ;
#752 = CARTESIAN_POINT ( 'NONE',  ( 431.9700000000000273, -47.00000000000000711, 69.00000000000000000 ) ) ;
#753 = CARTESIAN_POINT ( 'NONE',  ( 460.2033939754597895, -3.000000000000000000, 165.2442014510174033 ) ) ;
#754 = ORIENTED_EDGE ( 'NONE', *, *, #190, .F. ) ;
#755 = ADVANCED_FACE ( 'NONE', ( #351 ), #521, .F. ) ;
#756 = DIRECTION ( 'NONE',  ( 0.000000000000000000, 0.000000000000000000, -1.000000000000000000 ) ) ;
#757 = CARTESIAN_POINT ( 'NONE',  ( 472.9700000000000273, -44.00000000000000000, 69.00000000000000000 ) ) ;
#758 = ORIENTED_EDGE ( 'NONE', *, *, #352, .F. ) ;
#759 = DIRECTION ( 'NONE',  ( 1.000000000000000000, 0.000000000000000000, 0.000000000000000000 ) ) ;
#760 = DIRECTION ( 'NONE',  ( 1.000000000000000000, 0.000000000000000000, 0.000000000000000000 ) ) ;
#761 = VERTEX_POINT ( 'NONE', #831 ) ;
#762 = CARTESIAN_POINT ( 'NONE',  ( 469.9700000000000273, -44.00000000000000000, 10.00000000000000000 ) ) ;
#763 = AXIS2_PLACEMENT_3D ( 'NONE', #704, #694, #635 ) ;
#764 = CARTESIAN_POINT ( 'NONE',  ( 453.9814412737975999, -47.00000000000000000, 151.5929854181640053 ) ) ;
#765 = CIRCLE ( 'NONE', #498, 3.000000000000002665 ) ;
#766 = EDGE_CURVE ( 'NONE', #852, #638, #546, .T. ) ;
#767 = ORIENTED_EDGE ( 'NONE', *, *, #356, .T. ) ;
#768 = AXIS2_PLACEMENT_3D ( 'NONE', #698, #363, #759 ) ;
#769 = VECTOR ( 'NONE', #42, 1000.000000000000000 ) ;
#770 = ORIENTED_EDGE ( 'NONE', *, *, #721, .T. ) ;
#771 = DIRECTION ( 'NONE',  ( 0.000000000000000000, -1.000000000000000000, 0.000000000000000000 ) ) ;
#772 = CARTESIAN_POINT ( 'NONE',  ( 431.9700000000000273, -47.00000000000000000, 167.0000000000000000 ) ) ;
#773 = EDGE_LOOP ( 'NONE', ( #27, #561, #659, #305, #477, #660, #570, #748 ) ) ;
#774 = ORIENTED_EDGE ( 'NONE', *, *, #875, .T. ) ;
#775 = CARTESIAN_POINT ( 'NONE',  ( 428.9700000000000273, -6.000000000000000000, 167.0000000000000000 ) ) ;
#776 = CARTESIAN_POINT ( 'NONE',  ( 425.9700000000000273, -44.00000000000000000, 167.0000000000000000 ) ) ;
#777 = ORIENTED_EDGE ( 'NONE', *, *, #875, .F. ) ;
#778 = ADVANCED_FACE ( 'NONE', ( #616 ), #355, .T. ) ;
#779 = EDGE_LOOP ( 'NONE', ( #857, #643, #552, #4 ) ) ;
#780 = DIRECTION ( 'NONE',  ( 0.000000000000000000, 0.000000000000000000, -1.000000000000000000 ) ) ;
#781 = CARTESIAN_POINT ( 'NONE',  ( 438.9945473819845461, 0.000000000000000000, 164.0000000000001137 ) ) ;
#782 = VERTEX_POINT ( 'NONE', #824 ) ;
#783 = VECTOR ( 'NONE', #468, 1000.000000000000000 ) ;
#784 = AXIS2_PLACEMENT_3D ( 'NONE', #559, #833, #492 ) ;
#785 = ORIENTED_EDGE ( 'NONE', *, *, #356, .F. ) ;
#786 = CARTESIAN_POINT ( 'NONE',  ( 425.9700000000000273, -15.00000000000000000, 10.00000000000000000 ) ) ;
#787 = DIRECTION ( 'NONE',  ( 0.000000000000000000, 0.000000000000000000, 1.000000000000000000 ) ) ;
#788 = DIRECTION ( 'NONE',  ( -1.000000000000000000, 0.000000000000000000, 0.000000000000000000 ) ) ;
#789 = B_SPLINE_CURVE_WITH_KNOTS ( 'NONE', 3,
 ( #603, #598, #343, #192 ),
 .UNSPECIFIED., .F., .F.,
 ( 4, 4 ),
 ( 0.03802702495547648914, 0.9615050456242113519 ),
 .UNSPECIFIED. ) ;
#790 = ORIENTED_EDGE ( 'NONE', *, *, #869, .F. ) ;
#791 = LINE ( 'NONE', #243, #696 ) ;
#792 = B_SPLINE_CURVE_WITH_KNOTS ( 'NONE', 3,
 ( #496, #91, #764, #8 ),
 .UNSPECIFIED., .F., .F.,
 ( 4, 4 ),
 ( 0.03849495437579426860, 0.9619729750445277228 ),
 .UNSPECIFIED. ) ;
#793 = LINE ( 'NONE', #863, #728 ) ;
#794 = MECHANICAL_DESIGN_GEOMETRIC_PRESENTATION_REPRESENTATION (  '', ( #629 ), #535 ) ;
#795 =( NAMED_UNIT ( * ) PLANE_ANGLE_UNIT ( ) SI_UNIT ( $, .RADIAN. ) );
#796 = EDGE_LOOP ( 'NONE', ( #212, #714, #767, #262 ) ) ;
#797 = DIRECTION ( 'NONE',  ( 0.000000000000000000, 1.000000000000000000, 0.000000000000000000 ) ) ;
#798 = ORIENTED_EDGE ( 'NONE', *, *, #255, .F. ) ;
#799 = EDGE_CURVE ( 'NONE', #89, #141, #530, .T. ) ;
#800 = VERTEX_POINT ( 'NONE', #359 ) ;
#801 = CARTESIAN_POINT ( 'NONE',  ( 453.9814412737975431, 0.000000000000000000, 151.5929854181639485 ) ) ;
#802 = ORIENTED_EDGE ( 'NONE', *, *, #821, .F. ) ;
#803 = EDGE_CURVE ( 'NONE', #215, #782, #81, .T. ) ;
#804 = LINE ( 'NONE', #810, #783 ) ;
#805 = CARTESIAN_POINT ( 'NONE',  ( 472.9700000000000273, -6.000000000000000000, 167.0000000000000000 ) ) ;
#806 =( NAMED_UNIT ( * ) PLANE_ANGLE_UNIT ( ) SI_UNIT ( $, .RADIAN. ) );
#807 = EDGE_CURVE ( 'NONE', #89, #426, #379, .T. ) ;
#808 = LINE ( 'NONE', #670, #472 ) ;
#809 = FACE_OUTER_BOUND ( 'NONE', #286, .T. ) ;
#810 = CARTESIAN_POINT ( 'NONE',  ( 462.9332223124226857, -3.000000000000001332, 167.0000000000000000 ) ) ;
#811 = EDGE_CURVE ( 'NONE', #887, #705, #46, .T. ) ;
#812 = CARTESIAN_POINT ( 'NONE',  ( 438.9945473819845461, -47.00000000000000000, 167.0000000000000000 ) ) ;
#813 = VERTEX_POINT ( 'NONE', #588 ) ;
#814 = VERTEX_POINT ( 'NONE', #577 ) ;
#815 = DIRECTION ( 'NONE',  ( 0.000000000000000000, 1.000000000000000000, 0.000000000000000000 ) ) ;
#816 = DIRECTION ( 'NONE',  ( 0.000000000000000000, 0.000000000000000000, -1.000000000000000000 ) ) ;
#817 = ORIENTED_EDGE ( 'NONE', *, *, #432, .T. ) ;
#818 = CARTESIAN_POINT ( 'NONE',  ( 469.9700000000000273, -6.000000000000000000, 167.0000000000000000 ) ) ;
#819 = CARTESIAN_POINT ( 'NONE',  ( 438.9945473819845461, -3.000000000000000000, 164.0000000000001137 ) ) ;
#820 = ORIENTED_EDGE ( 'NONE', *, *, #811, .F. ) ;
#821 = EDGE_CURVE ( 'NONE', #887, #176, #791, .T. ) ;
#822 = UNCERTAINTY_MEASURE_WITH_UNIT (LENGTH_MEASURE( 1.000000000000000082E-05 ), #332, 'distance_accuracy_value', 'NONE');
#823 = CIRCLE ( 'NONE', #94, 6.000000000000000000 ) ;
#824 = CARTESIAN_POINT ( 'NONE',  ( 462.9332223124226857, 0.000000000000000000, 167.0000000000000000 ) ) ;
#825 = VECTOR ( 'NONE', #839, 1000.000000000000000 ) ;
#826 = FACE_OUTER_BOUND ( 'NONE', #345, .T. ) ;
#827 = ORIENTED_EDGE ( 'NONE', *, *, #149, .T. ) ;
#828 = DIRECTION ( 'NONE',  ( -1.000000000000000000, 0.000000000000000000, 0.000000000000000000 ) ) ;
#829 = CARTESIAN_POINT ( 'NONE',  ( 462.9332223124226857, -1.500000000000001332, 164.0000000000000568 ) ) ;
#830 = ORIENTED_EDGE ( 'NONE', *, *, #744, .T. ) ;
#831 = CARTESIAN_POINT ( 'NONE',  ( 460.2033939754595053, -3.000000000000000000, 165.2442014510175170 ) ) ;
#832 = EDGE_CURVE ( 'NONE', #63, #761, #202, .T. ) ;
#833 = DIRECTION ( 'NONE',  ( -0.000000000000000000, -1.000000000000000000, -0.000000000000000000 ) ) ;
#834 = EDGE_LOOP ( 'NONE', ( #350, #193, #14, #745, #802, #499, #147, #394 ) ) ;
#835 = ORIENTED_EDGE ( 'NONE', *, *, #416, .T. ) ;
#836 = FACE_OUTER_BOUND ( 'NONE', #45, .T. ) ;
#837 = CIRCLE ( 'NONE', #855, 3.000000000000000000 ) ;
#838 = ADVANCED_FACE ( 'NONE', ( #853 ), #445, .F. ) ;
#839 = DIRECTION ( 'NONE',  ( 0.000000000000000000, 0.000000000000000000, -1.000000000000000000 ) ) ;
#840 = ORIENTED_EDGE ( 'NONE', *, *, #246, .T. ) ;
#841 = VECTOR ( 'NONE', #788, 1000.000000000000000 ) ;
#842 = UNCERTAINTY_MEASURE_WITH_UNIT (LENGTH_MEASURE( 1.000000000000000082E-05 ), #251, 'distance_accuracy_value', 'NONE');
#843 = ORIENTED_EDGE ( 'NONE', *, *, #634, .T. ) ;
#844 = FACE_OUTER_BOUND ( 'NONE', #138, .T. ) ;
#845 = VERTEX_POINT ( 'NONE', #312 ) ;
#846 = ADVANCED_FACE ( 'NONE', ( #639 ), #572, .F. ) ;
#847 = ORIENTED_EDGE ( 'NONE', *, *, #744, .F. ) ;
#848 = CARTESIAN_POINT ( 'NONE',  ( 462.9332223124226857, -50.00000000000000000, 167.0000000000000000 ) ) ;
#849 = CARTESIAN_POINT ( 'NONE',  ( 460.9723503109999569, -47.00000000000000000, 167.0000000000000000 ) ) ;
#850 = DIRECTION ( 'NONE',  ( 1.000000000000000000, 0.000000000000000000, 0.000000000000000000 ) ) ;
#851 = EDGE_CURVE ( 'NONE', #83, #514, #371, .T. ) ;
#852 = VERTEX_POINT ( 'NONE', #775 ) ;
#853 = FACE_OUTER_BOUND ( 'NONE', #834, .T. ) ;
#854 = CARTESIAN_POINT ( 'NONE',  ( 475.9700000000000273, -6.000000000000000000, 69.00000000000000000 ) ) ;
#855 = AXIS2_PLACEMENT_3D ( 'NONE', #533, #54, #815 ) ;
#856 = AXIS2_PLACEMENT_3D ( 'NONE', #348, #673, #604 ) ;
#857 = ORIENTED_EDGE ( 'NONE', *, *, #803, .F. ) ;
#858 = ORIENTED_EDGE ( 'NONE', *, *, #556, .F. ) ;
#859 = LINE ( 'NONE', #519, #264 ) ;
#860 = FACE_OUTER_BOUND ( 'NONE', #224, .T. ) ;
#861 = ORIENTED_EDGE ( 'NONE', *, *, #190, .T. ) ;
#862 = DIRECTION ( 'NONE',  ( -1.850371707708592551E-14, 0.000000000000000000, 1.000000000000000000 ) ) ;
#863 = CARTESIAN_POINT ( 'NONE',  ( 438.9945473819845461, 0.000000000000000000, 167.0000000000000000 ) ) ;
#864 = EDGE_CURVE ( 'NONE', #181, #171, #558, .T. ) ;
#865 = CIRCLE ( 'NONE', #646, 3.000000000000000000 ) ;
#866 =( NAMED_UNIT ( * ) SI_UNIT ( $, .STERADIAN. ) SOLID_ANGLE_UNIT ( ) );
#867 = ORIENTED_EDGE ( 'NONE', *, *, #766, .T. ) ;
#868 = LINE ( 'NONE', #529, #442 ) ;
#869 = EDGE_CURVE ( 'NONE', #502, #67, #306, .T. ) ;
#870 = CARTESIAN_POINT ( 'NONE',  ( 436.4711751554954731, -50.00000000000000000, 167.0000000000000000 ) ) ;
#871 = CIRCLE ( 'NONE', #458, 6.000000000000005329 ) ;
#872 = AXIS2_PLACEMENT_3D ( 'NONE', #340, #471, #593 ) ;
#873 = CARTESIAN_POINT ( 'NONE',  ( 460.2033939754595053, 0.000000000000000000, 165.2442014510175454 ) ) ;
#874 = CARTESIAN_POINT ( 'NONE',  ( 425.9700000000000273, -6.000000000000000000, 167.0000000000000000 ) ) ;
#875 = EDGE_CURVE ( 'NONE', #684, #207, #865, .T. ) ;
#876 = SHAPE_DEFINITION_REPRESENTATION ( #669, #742 ) ;
#877 = CARTESIAN_POINT ( 'NONE',  ( 428.9700000000000273, -44.00000000000000000, 167.0000000000000000 ) ) ;
#878 = CARTESIAN_POINT ( 'NONE',  ( 460.2033939754595622, -47.00000000000000000, 165.2442014510175170 ) ) ;
#879 = EDGE_CURVE ( 'NONE', #619, #702, #151, .T. ) ;
#880 = LINE ( 'NONE', #347, #228 ) ;
#881 = LINE ( 'NONE', #469, #157 ) ;
#882 = VERTEX_POINT ( 'NONE', #848 ) ;
#883 = AXIS2_PLACEMENT_3D ( 'NONE', #608, #601, #885 ) ;
#884 = VECTOR ( 'NONE', #313, 1000.000000000000000 ) ;
#885 = DIRECTION ( 'NONE',  ( 0.000000000000000000, 0.000000000000000000, 1.000000000000000000 ) ) ;
#886 = CARTESIAN_POINT ( 'NONE',  ( 472.9700000000000273, -15.00000000000000000, 160.0000000000000000 ) ) ;
#887 = VERTEX_POINT ( 'NONE', #650 ) ;
#888 = CARTESIAN_POINT ( 'NONE',  ( 460.2033939803238241, -47.00000000000000000, 165.2442014616894994 ) ) ;
#889 = ADVANCED_FACE ( 'NONE', ( #644 ), #584, .T. ) ;
#890 = DIRECTION ( 'NONE',  ( 0.000000000000000000, 0.000000000000000000, 1.000000000000000000 ) ) ;
#891 = PRODUCT_DEFINITION_FORMATION_WITH_SPECIFIED_SOURCE ( 'ÈÎºÎ', '', #581, .NOT_KNOWN. ) ;
#892 = ORIENTED_EDGE ( 'NONE', *, *, #589, .F. ) ;
ENDSEC;
END-ISO-10303-21;
