ISO-10303-21;
HEADER;
FILE_DESCRIPTION (( 'STEP AP214' ),
    '1' );
FILE_NAME ('XH-YJ38-LJ-014-A0-斜拉加强筋.STEP',
    '2026-06-04T11:27:01',
    ( 'Microsoft' ),
    ( 'Microsoft' ),
    'SwSTEP 2.0',
    'SolidWorks 2020',
    '' );
FILE_SCHEMA (( 'AUTOMOTIVE_DESIGN' ));
ENDSEC;

DATA;
#1 = VERTEX_POINT ( 'NONE', #535 ) ;
#2 = EDGE_CURVE ( 'NONE', #268, #32, #649, .T. ) ;
#3 = PRODUCT_CONTEXT ( 'NONE', #264, 'mechanical' ) ;
#4 = ORIENTED_EDGE ( 'NONE', *, *, #122, .T. ) ;
#5 = EDGE_CURVE ( 'NONE', #415, #403, #712, .T. ) ;
#6 = COLOUR_RGB ( '',0.6509803921568627638, 0.6196078431372549211, 0.5882352941176470784 ) ;
#7 = CARTESIAN_POINT ( 'NONE',  ( 30.00000000000000711, 505.1564120792185690, 8.499999999999975131 ) ) ;
#8 = ORIENTED_EDGE ( 'NONE', *, *, #64, .F. ) ;
#9 = FACE_OUTER_BOUND ( 'NONE', #573, .T. ) ;
#10 = ORIENTED_EDGE ( 'NONE', *, *, #131, .F. ) ;
#11 = CARTESIAN_POINT ( 'NONE',  ( 27.00000000000000000, -587.6925623952961359, 8.499999999999976907 ) ) ;
#12 = SURFACE_SIDE_STYLE ('',( #637 ) ) ;
#13 = ADVANCED_FACE ( 'NONE', ( #598 ), #500, .T. ) ;
#14 = ORIENTED_EDGE ( 'NONE', *, *, #36, .T. ) ;
#15 = CARTESIAN_POINT ( 'NONE',  ( -25.99999999999999645, 618.0000000000000000, 8.500000000000005329 ) ) ;
#16 =( NAMED_UNIT ( * ) SI_UNIT ( $, .STERADIAN. ) SOLID_ANGLE_UNIT ( ) );
#17 = VECTOR ( 'NONE', #39, 1000.000000000000000 ) ;
#18 = ORIENTED_EDGE ( 'NONE', *, *, #5, .F. ) ;
#19 = CARTESIAN_POINT ( 'NONE',  ( 30.00000000000000711, 505.1564120792185690, -12.49999999999999467 ) ) ;
#20 = CARTESIAN_POINT ( 'NONE',  ( 27.00000000000000000, 510.7985914752575809, -9.085786437626923728 ) ) ;
#21 = ORIENTED_EDGE ( 'NONE', *, *, #537, .T. ) ;
#22 = ADVANCED_FACE ( 'NONE', ( #316 ), #648, .T. ) ;
#23 = CARTESIAN_POINT ( 'NONE',  ( -27.00000000000000000, 612.3578206039609313, -8.499999999999968026 ) ) ;
#24 = CARTESIAN_POINT ( 'NONE',  ( -25.99999999999996803, 610.4770941386144614, -9.499999999999994671 ) ) ;
#25 = CARTESIAN_POINT ( 'NONE',  ( -25.99999999999996803, -615.8731622733541826, -12.49999999999999467 ) ) ;
#26 = EDGE_LOOP ( 'NONE', ( #10, #94, #401, #329 ) ) ;
#27 = PLANE ( 'NONE',  #519 ) ;
#28 = VECTOR ( 'NONE', #360, 1000.000000000000000 ) ;
#29 = CARTESIAN_POINT ( 'NONE',  ( 27.00000000000000000, 510.7985914752576377, 8.499999999999976907 ) ) ;
#30 = MECHANICAL_DESIGN_GEOMETRIC_PRESENTATION_REPRESENTATION (  '', ( #52 ), #124 ) ;
#31 = CARTESIAN_POINT ( 'NONE',  ( 27.00000000000000000, 510.7985914752576377, -7.500000000000009770 ) ) ;
#32 = VERTEX_POINT ( 'NONE', #547 ) ;
#33 = CARTESIAN_POINT ( 'NONE',  ( -29.99999999999999645, 618.0000000000000000, 10.84314575050764873 ) ) ;
#34 = CARTESIAN_POINT ( 'NONE',  ( 26.00000000000001421, -588.2242718269575334, 12.50000000000000533 ) ) ;
#35 = PLANE ( 'NONE',  #536 ) ;
#36 = EDGE_CURVE ( 'NONE', #403, #399, #201, .T. ) ;
#37 = LINE ( 'NONE', #253, #710 ) ;
#38 = ORIENTED_EDGE ( 'NONE', *, *, #477, .T. ) ;
#39 = DIRECTION ( 'NONE',  ( -0.000000000000000000, -1.000000000000000000, -0.000000000000000000 ) ) ;
#40 = DIRECTION ( 'NONE',  ( -0.8829475928589294309, -0.4694715627858861429, -0.000000000000000000 ) ) ;
#41 = VERTEX_POINT ( 'NONE', #202 ) ;
#42 = DIRECTION ( 'NONE',  ( 0.4694715627858858653, -0.8829475928589295419, 0.000000000000000000 ) ) ;
#43 = CARTESIAN_POINT ( 'NONE',  ( -29.99999999999999645, 618.0000000000000000, -8.499999999999966249 ) ) ;
#44 = ORIENTED_EDGE ( 'NONE', *, *, #563, .F. ) ;
#45 = LINE ( 'NONE', #273, #51 ) ;
#46 = EDGE_CURVE ( 'NONE', #284, #144, #590, .T. ) ;
#47 = SURFACE_STYLE_USAGE ( .BOTH. , #346 ) ;
#48 = ORIENTED_EDGE ( 'NONE', *, *, #471, .T. ) ;
#49 =( BOUNDED_CURVE ( )  B_SPLINE_CURVE ( 3, ( #240, #699, #526, #691 ),
 .UNSPECIFIED., .F., .T. ) 
 B_SPLINE_CURVE_WITH_KNOTS ( ( 4, 4 ),
 ( 4.712388980384690562, 4.981479417076545957 ),
 .UNSPECIFIED. ) 
 CURVE ( )  GEOMETRIC_REPRESENTATION_ITEM ( )  RATIONAL_B_SPLINE_CURVE ( ( 1.000000000000000000, 0.9939749586229649214, 0.9939749586229649214, 1.000000000000000000 ) ) 
 REPRESENTATION_ITEM ( '' )  );
#50 = VERTEX_POINT ( 'NONE', #34 ) ;
#51 = VECTOR ( 'NONE', #213, 1000.000000000000000 ) ;
#52 = STYLED_ITEM ( 'NONE', ( #396 ), #625 ) ;
#53 = CARTESIAN_POINT ( 'NONE',  ( 25.99999999999999645, -588.2242718269576471, -9.499999999999994671 ) ) ;
#54 = ORIENTED_EDGE ( 'NONE', *, *, #660, .T. ) ;
#55 =( NAMED_UNIT ( * ) SI_UNIT ( $, .STERADIAN. ) SOLID_ANGLE_UNIT ( ) );
#56 = ORIENTED_EDGE ( 'NONE', *, *, #69, .F. ) ;
#57 =( NAMED_UNIT ( * ) PLANE_ANGLE_UNIT ( ) SI_UNIT ( $, .RADIAN. ) );
#58 = VERTEX_POINT ( 'NONE', #495 ) ;
#59 = MECHANICAL_DESIGN_GEOMETRIC_PRESENTATION_REPRESENTATION (  '', ( #628 ), #476 ) ;
#60 = AXIS2_PLACEMENT_3D ( 'NONE', #302, #295, #485 ) ;
#61 = LINE ( 'NONE', #529, #314 ) ;
#62 = ORIENTED_EDGE ( 'NONE', *, *, #379, .T. ) ;
#63 = CARTESIAN_POINT ( 'NONE',  ( -26.99999999999999645, -616.4048717050158075, 8.499999999999998224 ) ) ;
#64 = EDGE_CURVE ( 'NONE', #58, #634, #645, .T. ) ;
#65 =( NAMED_UNIT ( * ) PLANE_ANGLE_UNIT ( ) SI_UNIT ( $, .RADIAN. ) );
#66 = ORIENTED_EDGE ( 'NONE', *, *, #5, .T. ) ;
#67 = CARTESIAN_POINT ( 'NONE',  ( 30.00000000000000711, -586.0974341003117161, -8.499999999999996447 ) ) ;
#68 = LINE ( 'NONE', #127, #507 ) ;
#69 = EDGE_CURVE ( 'NONE', #107, #688, #327, .T. ) ;
#70 = EDGE_LOOP ( 'NONE', ( #674, #527, #261, #480 ) ) ;
#71 = DIRECTION ( 'NONE',  ( 0.000000000000000000, 0.000000000000000000, -1.000000000000000000 ) ) ;
#72 = CYLINDRICAL_SURFACE ( 'NONE', #147, 4.000000000000000000 ) ;
#73 = AXIS2_PLACEMENT_3D ( 'NONE', #689, #186, #647 ) ;
#74 = COLOUR_RGB ( '',0.6509803921568627638, 0.6196078431372549211, 0.5882352941176470784 ) ;
#75 = FACE_OUTER_BOUND ( 'NONE', #517, .T. ) ;
#76 = ADVANCED_FACE ( 'NONE', ( #75 ), #703, .F. ) ;
#77 = CARTESIAN_POINT ( 'NONE',  ( -29.99999999999999645, -618.0000000000002274, 10.84314575050766116 ) ) ;
#78 = CARTESIAN_POINT ( 'NONE',  ( 27.00000000000000000, 510.7985914752576377, 7.499999999999993783 ) ) ;
#79 = CARTESIAN_POINT ( 'NONE',  ( 29.02129839093212738, -586.6178189766353626, -5.927589939980212996 ) ) ;
#80 = DIRECTION ( 'NONE',  ( 0.000000000000000000, 0.000000000000000000, -1.000000000000000000 ) ) ;
#81 = ORIENTED_EDGE ( 'NONE', *, *, #640, .T. ) ;
#82 = PRODUCT_DEFINITION_SHAPE ( 'NONE', 'NONE',  #433 ) ;
#83 = CARTESIAN_POINT ( 'NONE',  ( -27.00000000000000000, -616.4048717050155801, -8.499999999999833022 ) ) ;
#84 = LINE ( 'NONE', #311, #582 ) ;
#85 = CARTESIAN_POINT ( 'NONE',  ( 25.99999999999997513, 512.6793179406040508, -9.499999999999994671 ) ) ;
#86 = ORIENTED_EDGE ( 'NONE', *, *, #520, .F. ) ;
#87 = CARTESIAN_POINT ( 'NONE',  ( 485.4636056459537485, -343.9231391998170011, 9.500000000000023093 ) ) ;
#88 = VECTOR ( 'NONE', #651, 1000.000000000000114 ) ;
#89 = CARTESIAN_POINT ( 'NONE',  ( -27.00000000000001421, 612.3578206039609313, -9.085786437626909517 ) ) ;
#90 = CARTESIAN_POINT ( 'NONE',  ( 26.00000000000000711, 618.0000000000000000, 8.500000000000007105 ) ) ;
#91 = ORIENTED_EDGE ( 'NONE', *, *, #528, .F. ) ;
#92 = CARTESIAN_POINT ( 'NONE',  ( 29.23080259329534059, 506.6030619990837636, 6.593101617623923438 ) ) ;
#93 = LINE ( 'NONE', #106, #425 ) ;
#94 = ORIENTED_EDGE ( 'NONE', *, *, #735, .F. ) ;
#95 = CARTESIAN_POINT ( 'NONE',  ( -25.99999999999996803, 610.4770941386144614, 12.50000000000000533 ) ) ;
#96 = CYLINDRICAL_SURFACE ( 'NONE', #161, 0.9999999999999965583 ) ;
#97 = VERTEX_POINT ( 'NONE', #241 ) ;
#98 = CARTESIAN_POINT ( 'NONE',  ( 30.00000000000000711, -586.0974341003117161, -12.49999999999999467 ) ) ;
#99 = VECTOR ( 'NONE', #701, 1000.000000000000000 ) ;
#100 = CARTESIAN_POINT ( 'NONE',  ( 27.00000000000000000, 618.0000000000000000, -8.499999999999989342 ) ) ;
#101 = ORIENTED_EDGE ( 'NONE', *, *, #520, .T. ) ;
#102 = VECTOR ( 'NONE', #162, 1000.000000000000000 ) ;
#103 = ADVANCED_FACE ( 'NONE', ( #662 ), #427, .F. ) ;
#104 = CARTESIAN_POINT ( 'NONE',  ( 26.00000000000000355, 618.0000000000000000, -8.499999999999996447 ) ) ;
#105 =( BOUNDED_CURVE ( )  B_SPLINE_CURVE ( 3, ( #454, #216, #457, #676 ),
 .UNSPECIFIED., .F., .T. ) 
 B_SPLINE_CURVE_WITH_KNOTS ( ( 4, 4 ),
 ( 4.712388980384677239, 6.283185307179586232 ),
 .UNSPECIFIED. ) 
 CURVE ( )  GEOMETRIC_REPRESENTATION_ITEM ( )  RATIONAL_B_SPLINE_CURVE ( ( 1.000000000000000000, 0.8047378541243619399, 0.8047378541243619399, 1.000000000000000000 ) ) 
 REPRESENTATION_ITEM ( '' )  );
#106 = CARTESIAN_POINT ( 'NONE',  ( -25.99999999999996803, 618.0000000000000000, 12.50000000000000533 ) ) ;
#107 = VERTEX_POINT ( 'NONE', #301 ) ;
#108 = EDGE_CURVE ( 'NONE', #268, #688, #333, .T. ) ;
#109 = DIRECTION ( 'NONE',  ( -0.000000000000000000, -1.000000000000000000, -0.000000000000000000 ) ) ;
#110 = APPLICATION_PROTOCOL_DEFINITION ( 'draft international standard', 'automotive_design', 1998, #264 ) ;
#111 = EDGE_LOOP ( 'NONE', ( #313, #101, #700, #385 ) ) ;
#112 = DIRECTION ( 'NONE',  ( 0.000000000000000000, 0.000000000000000000, -1.000000000000000000 ) ) ;
#113 = EDGE_CURVE ( 'NONE', #642, #521, #84, .T. ) ;
#114 = ORIENTED_EDGE ( 'NONE', *, *, #262, .F. ) ;
#115 = AXIS2_PLACEMENT_3D ( 'NONE', #515, #734, #220 ) ;
#116 = VECTOR ( 'NONE', #481, 1000.000000000000114 ) ;
#117 = ADVANCED_FACE ( 'NONE', ( #9 ), #289, .F. ) ;
#118 = ORIENTED_EDGE ( 'NONE', *, *, #707, .T. ) ;
#119 = EDGE_LOOP ( 'NONE', ( #584, #668, #367, #81 ) ) ;
#120 = ORIENTED_EDGE ( 'NONE', *, *, #660, .F. ) ;
#121 = CARTESIAN_POINT ( 'NONE',  ( 26.58578643762692195, -587.9128036531321868, 9.500000000000008882 ) ) ;
#122 = EDGE_CURVE ( 'NONE', #174, #50, #68, .T. ) ;
#123 = VECTOR ( 'NONE', #263, 1000.000000000000000 ) ;
#124 =( GEOMETRIC_REPRESENTATION_CONTEXT ( 3 ) GLOBAL_UNCERTAINTY_ASSIGNED_CONTEXT ( ( #506 ) ) GLOBAL_UNIT_ASSIGNED_CONTEXT ( ( #626, #57, #461 ) ) REPRESENTATION_CONTEXT ( 'NONE', 'WORKASPACE' ) );
#125 = ORIENTED_EDGE ( 'NONE', *, *, #730, .T. ) ;
#126 = DIRECTION ( 'NONE',  ( -0.000000000000000000, -0.000000000000000000, 1.000000000000000000 ) ) ;
#127 = CARTESIAN_POINT ( 'NONE',  ( 25.99999999999997868, 618.0000000000000000, 12.50000000000000711 ) ) ;
#128 = ORIENTED_EDGE ( 'NONE', *, *, #285, .F. ) ;
#129 = LINE ( 'NONE', #711, #99 ) ;
#130 = FACE_OUTER_BOUND ( 'NONE', #405, .T. ) ;
#131 = EDGE_CURVE ( 'NONE', #453, #638, #292, .T. ) ;
#132 = DIRECTION ( 'NONE',  ( 0.000000000000000000, 0.000000000000000000, 1.000000000000000000 ) ) ;
#133 = CARTESIAN_POINT ( 'NONE',  ( 30.00000000000000711, 505.1564120792185690, 4.941235843684462559 ) ) ;
#134 = CARTESIAN_POINT ( 'NONE',  ( -26.00000000000000000, 618.0000000000000000, -8.499999999999996447 ) ) ;
#135 = CARTESIAN_POINT ( 'NONE',  ( -26.00000000000001421, -615.8731622733540689, 12.50000000000000533 ) ) ;
#136 = EDGE_LOOP ( 'NONE', ( #212, #600, #530, #510 ) ) ;
#137 = CARTESIAN_POINT ( 'NONE',  ( -29.99999999999999645, 618.0000000000000000, 8.500000000000005329 ) ) ;
#138 = CARTESIAN_POINT ( 'NONE',  ( 27.00000000000000000, -587.6925623952961359, -6.000000000000009770 ) ) ;
#139 = CARTESIAN_POINT ( 'NONE',  ( 27.00000000000000000, 510.7985914752576377, -7.500000000000009770 ) ) ;
#140 = VERTEX_POINT ( 'NONE', #696 ) ;
#141 = DIRECTION ( 'NONE',  ( 3.336006684570785197E-17, 0.000000000000000000, -1.000000000000000000 ) ) ;
#142 = DIRECTION ( 'NONE',  ( -1.000000000000000000, 0.000000000000000000, -0.000000000000000000 ) ) ;
#143 = FACE_OUTER_BOUND ( 'NONE', #544, .T. ) ;
#144 = VERTEX_POINT ( 'NONE', #182 ) ;
#145 = MANIFOLD_SOLID_BREP ( '切除-拉伸5', #675 ) ;
#146 = CARTESIAN_POINT ( 'NONE',  ( 30.00000000000000711, 618.0000000000000000, 8.499999999999976907 ) ) ;
#147 = AXIS2_PLACEMENT_3D ( 'NONE', #413, #300, #532 ) ;
#148 = CARTESIAN_POINT ( 'NONE',  ( -26.99999999999999645, 612.3578206039609313, 8.499999999999998224 ) ) ;
#149 = ORIENTED_EDGE ( 'NONE', *, *, #339, .F. ) ;
#150 = CARTESIAN_POINT ( 'NONE',  ( -26.58578643762686511, -616.1846304471799840, 9.500000000000044409 ) ) ;
#151 = CARTESIAN_POINT ( 'NONE',  ( 26.00000000000001421, -588.2242718269575334, 12.50000000000000533 ) ) ;
#152 = DIRECTION ( 'NONE',  ( -0.000000000000000000, -1.000000000000000000, -0.000000000000000000 ) ) ;
#153 =( BOUNDED_CURVE ( )  B_SPLINE_CURVE ( 3, ( #727, #381, #206, #673 ),
 .UNSPECIFIED., .F., .T. ) 
 B_SPLINE_CURVE_WITH_KNOTS ( ( 4, 4 ),
 ( 4.712388980384671910, 6.283185307179586232 ),
 .UNSPECIFIED. ) 
 CURVE ( )  GEOMETRIC_REPRESENTATION_ITEM ( )  RATIONAL_B_SPLINE_CURVE ( ( 1.000000000000000000, 0.8047378541243608296, 0.8047378541243608296, 1.000000000000000000 ) ) 
 REPRESENTATION_ITEM ( '' )  );
#154 = EDGE_CURVE ( 'NONE', #190, #221, #417, .T. ) ;
#155 = LINE ( 'NONE', #387, #391 ) ;
#156 = VERTEX_POINT ( 'NONE', #237 ) ;
#157 = CARTESIAN_POINT ( 'NONE',  ( -30.00000000000000000, 618.0000000000000000, -8.499999999999966249 ) ) ;
#158 = AXIS2_PLACEMENT_3D ( 'NONE', #418, #196, #431 ) ;
#159 = CARTESIAN_POINT ( 'NONE',  ( -28.34314575050760254, 614.8839103637581047, -12.50000000000002842 ) ) ;
#160 = ORIENTED_EDGE ( 'NONE', *, *, #398, .F. ) ;
#161 = AXIS2_PLACEMENT_3D ( 'NONE', #90, #509, #658 ) ;
#162 = DIRECTION ( 'NONE',  ( -0.000000000000000000, -1.000000000000000000, -0.000000000000000000 ) ) ;
#163 = APPLICATION_CONTEXT ( 'automotive_design' ) ;
#164 = ORIENTED_EDGE ( 'NONE', *, *, #653, .T. ) ;
#165 = EDGE_CURVE ( 'NONE', #144, #638, #229, .T. ) ;
#166 = DIRECTION ( 'NONE',  ( -4.625929269271484928E-16, 0.000000000000000000, -1.000000000000000000 ) ) ;
#167 = ORIENTED_EDGE ( 'NONE', *, *, #168, .T. ) ;
#168 = EDGE_CURVE ( 'NONE', #107, #32, #49, .T. ) ;
#169 = CARTESIAN_POINT ( 'NONE',  ( -29.99999999999999645, -618.0000000000000000, -12.49999999999999467 ) ) ;
#170 = ORIENTED_EDGE ( 'NONE', *, *, #296, .T. ) ;
#171 = VECTOR ( 'NONE', #426, 1000.000000000000000 ) ;
#172 = PRODUCT_DEFINITION_FORMATION_WITH_SPECIFIED_SOURCE ( '任何', '', #432, .NOT_KNOWN. ) ;
#173 = SHAPE_DEFINITION_REPRESENTATION ( #82, #625 ) ;
#174 = VERTEX_POINT ( 'NONE', #641 ) ;
#175 = CARTESIAN_POINT ( 'NONE',  ( 28.34314575050764162, 508.2725017154603506, 12.50000000000001066 ) ) ;
#176 = EDGE_CURVE ( 'NONE', #579, #207, #466, .T. ) ;
#177 = ORIENTED_EDGE ( 'NONE', *, *, #168, .F. ) ;
#178 = CARTESIAN_POINT ( 'NONE',  ( -26.99999999999999645, 618.0000000000000000, 8.499999999999998224 ) ) ;
#179 = FILL_AREA_STYLE_COLOUR ( '', #6 ) ;
#180 = ORIENTED_EDGE ( 'NONE', *, *, #707, .F. ) ;
#181 = CARTESIAN_POINT ( 'NONE',  ( -27.00000000000000000, -616.4048717050155801, -8.499999999999966249 ) ) ;
#182 = CARTESIAN_POINT ( 'NONE',  ( -25.99999999999996803, 610.4770941386144614, -9.499999999999994671 ) ) ;
#183 = VERTEX_POINT ( 'NONE', #483 ) ;
#184 = LINE ( 'NONE', #654, #116 ) ;
#185 = ADVANCED_FACE ( 'NONE', ( #130 ), #72, .T. ) ;
#186 = DIRECTION ( 'NONE',  ( 0.000000000000000000, 0.000000000000000000, 1.000000000000000000 ) ) ;
#187 = ORIENTED_EDGE ( 'NONE', *, *, #108, .F. ) ;
#188 = CARTESIAN_POINT ( 'NONE',  ( -25.99999999999996803, 618.0000000000000000, 12.50000000000000533 ) ) ;
#189 = CARTESIAN_POINT ( 'NONE',  ( -26.00000000000001421, -615.8731622733540689, 12.50000000000000533 ) ) ;
#190 = VERTEX_POINT ( 'NONE', #469 ) ;
#191 = CARTESIAN_POINT ( 'NONE',  ( -29.99999999999999645, 618.0000000000000000, 8.499999999999976907 ) ) ;
#192 = CIRCLE ( 'NONE', #299, 7.500000000000001776 ) ;
#193 = DIRECTION ( 'NONE',  ( 0.000000000000000000, 0.000000000000000000, 1.000000000000000000 ) ) ;
#194 = CYLINDRICAL_SURFACE ( 'NONE', #60, 4.000000000000000000 ) ;
#195 = DIRECTION ( 'NONE',  ( 0.000000000000000000, 0.000000000000000000, -1.000000000000000000 ) ) ;
#196 = DIRECTION ( 'NONE',  ( 0.000000000000000000, 0.000000000000000000, 1.000000000000000000 ) ) ;
#197 = EDGE_CURVE ( 'NONE', #156, #174, #279, .T. ) ;
#198 = LINE ( 'NONE', #555, #583 ) ;
#199 = ORIENTED_EDGE ( 'NONE', *, *, #459, .F. ) ;
#200 = CARTESIAN_POINT ( 'NONE',  ( -25.99999999999996803, 610.4770941386144614, 12.50000000000000533 ) ) ;
#201 =( BOUNDED_CURVE ( )  B_SPLINE_CURVE ( 3, ( #29, #554, #602, #252 ),
 .UNSPECIFIED., .F., .T. ) 
 B_SPLINE_CURVE_WITH_KNOTS ( ( 4, 4 ),
 ( -3.108624468950438313E-14, 1.570796326794898112 ),
 .UNSPECIFIED. ) 
 CURVE ( )  GEOMETRIC_REPRESENTATION_ITEM ( )  RATIONAL_B_SPLINE_CURVE ( ( 1.000000000000000000, 0.8047378541243572769, 0.8047378541243572769, 1.000000000000000000 ) ) 
 REPRESENTATION_ITEM ( '' )  );
#202 = CARTESIAN_POINT ( 'NONE',  ( 30.00000000000000711, -586.0974341003117161, 8.499999999999975131 ) ) ;
#203 = ORIENTED_EDGE ( 'NONE', *, *, #482, .F. ) ;
#204 = FACE_OUTER_BOUND ( 'NONE', #498, .T. ) ;
#205 = VECTOR ( 'NONE', #334, 1000.000000000000000 ) ;
#206 = CARTESIAN_POINT ( 'NONE',  ( -29.99999999999999645, -618.0000000000002274, -10.84314575050764695 ) ) ;
#207 = VERTEX_POINT ( 'NONE', #341 ) ;
#208 = PRODUCT_DEFINITION_CONTEXT ( 'detailed design', #163, 'design' ) ;
#209 = CARTESIAN_POINT ( 'NONE',  ( 20.00000000000000355, -587.6925623952961359, -4.693957640878446204E-15 ) ) ;
#210 = EDGE_CURVE ( 'NONE', #642, #1, #61, .T. ) ;
#211 = CARTESIAN_POINT ( 'NONE',  ( 30.00000000000000355, 510.7985914752576377, -8.775659937294477189E-15 ) ) ;
#212 = ORIENTED_EDGE ( 'NONE', *, *, #335, .F. ) ;
#213 = DIRECTION ( 'NONE',  ( -0.000000000000000000, -1.000000000000000000, -0.000000000000000000 ) ) ;
#214 = CARTESIAN_POINT ( 'NONE',  ( 28.34314575050769136, -586.9783991316553511, 12.49999999999994849 ) ) ;
#215 = VERTEX_POINT ( 'NONE', #137 ) ;
#216 = CARTESIAN_POINT ( 'NONE',  ( 28.34314575050759188, 508.2725017154604643, -12.50000000000002309 ) ) ;
#217 = VECTOR ( 'NONE', #42, 1000.000000000000114 ) ;
#218 = EDGE_CURVE ( 'NONE', #604, #284, #611, .T. ) ;
#219 = VERTEX_POINT ( 'NONE', #95 ) ;
#220 = DIRECTION ( 'NONE',  ( 0.4694715627858859208, -0.8829475928589295419, 0.000000000000000000 ) ) ;
#221 = VERTEX_POINT ( 'NONE', #255 ) ;
#222 = EDGE_LOOP ( 'NONE', ( #199, #462, #659, #223 ) ) ;
#223 = ORIENTED_EDGE ( 'NONE', *, *, #351, .T. ) ;
#224 =( BOUNDED_CURVE ( )  B_SPLINE_CURVE ( 3, ( #665, #372, #150, #383 ),
 .UNSPECIFIED., .F., .F. ) 
 B_SPLINE_CURVE_WITH_KNOTS ( ( 4, 4 ),
 ( -7.105427357601001859E-15, 1.570796326794964282 ),
 .UNSPECIFIED. ) 
 CURVE ( )  GEOMETRIC_REPRESENTATION_ITEM ( )  RATIONAL_B_SPLINE_CURVE ( ( 1.000000000000000000, 0.8047378541243472849, 0.8047378541243472849, 1.000000000000000000 ) ) 
 REPRESENTATION_ITEM ( '' )  );
#225 = VECTOR ( 'NONE', #408, 1000.000000000000000 ) ;
#226 = EDGE_CURVE ( 'NONE', #144, #524, #378, .T. ) ;
#227 = DIRECTION ( 'NONE',  ( -0.000000000000000000, -1.000000000000000000, -0.000000000000000000 ) ) ;
#228 = ORIENTED_EDGE ( 'NONE', *, *, #398, .T. ) ;
#229 = LINE ( 'NONE', #479, #28 ) ;
#230 = ORIENTED_EDGE ( 'NONE', *, *, #735, .T. ) ;
#231 = CARTESIAN_POINT ( 'NONE',  ( 27.00000000000000000, 510.7985914752576377, 7.499999999999993783 ) ) ;
#232 = CARTESIAN_POINT ( 'NONE',  ( 30.00000000000002487, 505.1564120792186827, 10.84314575050760787 ) ) ;
#233 = ORIENTED_EDGE ( 'NONE', *, *, #210, .F. ) ;
#234 = EDGE_CURVE ( 'NONE', #97, #415, #738, .T. ) ;
#235 = CARTESIAN_POINT ( 'NONE',  ( -29.99999999999999645, -618.0000000000002274, 8.500000000000005329 ) ) ;
#236 = AXIS2_PLACEMENT_3D ( 'NONE', #188, #437, #142 ) ;
#237 = CARTESIAN_POINT ( 'NONE',  ( 30.00000000000000711, 505.1564120792185690, 8.499999999999975131 ) ) ;
#238 = ORIENTED_EDGE ( 'NONE', *, *, #679, .F. ) ;
#239 = CARTESIAN_POINT ( 'NONE',  ( -26.99999999999999645, 612.3578206039609313, 8.499999999999998224 ) ) ;
#240 = CARTESIAN_POINT ( 'NONE',  ( 27.00000000000000000, -587.6925623952961359, 5.999999999999994671 ) ) ;
#241 = CARTESIAN_POINT ( 'NONE',  ( 30.00000000000000711, 505.1564120792185690, 4.941235843684462559 ) ) ;
#242 = LINE ( 'NONE', #366, #538 ) ;
#243 = EDGE_LOOP ( 'NONE', ( #238, #614, #297, #586, #56, #322, #456, #18 ) ) ;
#244 = LINE ( 'NONE', #323, #17 ) ;
#245 = CARTESIAN_POINT ( 'NONE',  ( -27.00000000000000000, 618.0000000000000000, -8.499999999999966249 ) ) ;
#246 = CARTESIAN_POINT ( 'NONE',  ( 26.58578643762687932, 511.5776138843181116, -9.500000000000026645 ) ) ;
#247 = EDGE_LOOP ( 'NONE', ( #91, #464, #66, #14, #343, #164, #332, #525, #338, #21, #347, #475, #397, #549, #160, #678, #375, #429, #282, #340 ) ) ;
#248 = VECTOR ( 'NONE', #132, 1000.000000000000000 ) ;
#249 = FACE_OUTER_BOUND ( 'NONE', #449, .T. ) ;
#250 = VECTOR ( 'NONE', #274, 1000.000000000000000 ) ;
#251 = EDGE_CURVE ( 'NONE', #286, #486, #244, .T. ) ;
#252 = CARTESIAN_POINT ( 'NONE',  ( 26.00000000000000000, 512.6793179406039371, 9.500000000000005329 ) ) ;
#253 = CARTESIAN_POINT ( 'NONE',  ( -29.99999999999999645, -618.0000000000000000, 12.50000000000000533 ) ) ;
#254 = EDGE_LOOP ( 'NONE', ( #717, #177, #533, #187 ) ) ;
#255 = CARTESIAN_POINT ( 'NONE',  ( 30.00000000000000711, -586.0974341003117161, -8.499999999999996447 ) ) ;
#256 = EDGE_CURVE ( 'NONE', #617, #388, #488, .T. ) ;
#257 = DIRECTION ( 'NONE',  ( -5.782411586589355667E-16, 0.000000000000000000, -1.000000000000000000 ) ) ;
#258 = CARTESIAN_POINT ( 'NONE',  ( -26.58578643762687221, 611.5787981949005143, 9.500000000000035527 ) ) ;
#259 = CARTESIAN_POINT ( 'NONE',  ( 30.00000000000000000, 618.0000000000000000, -8.499999999999969802 ) ) ;
#260 = DIRECTION ( 'NONE',  ( -0.000000000000000000, -1.000000000000000000, -0.000000000000000000 ) ) ;
#261 = ORIENTED_EDGE ( 'NONE', *, *, #679, .T. ) ;
#262 = EDGE_CURVE ( 'NONE', #156, #41, #315, .T. ) ;
#263 = DIRECTION ( 'NONE',  ( 2.040851148208012189E-16, 1.085139804119344729E-16, 1.000000000000000000 ) ) ;
#264 = APPLICATION_CONTEXT ( 'automotive_design' ) ;
#265 = AXIS2_PLACEMENT_3D ( 'NONE', #489, #484, #193 ) ;
#266 = AXIS2_PLACEMENT_3D ( 'NONE', #321, #719, #566 ) ;
#267 = CARTESIAN_POINT ( 'NONE',  ( -25.99999999999996803, 610.4770941386144614, 9.500000000000005329 ) ) ;
#268 = VERTEX_POINT ( 'NONE', #723 ) ;
#269 = EDGE_CURVE ( 'NONE', #215, #503, #557, .T. ) ;
#270 = CARTESIAN_POINT ( 'NONE',  ( 26.00000000000000000, 512.6793179406039371, 9.500000000000005329 ) ) ;
#271 = PLANE ( 'NONE',  #402 ) ;
#272 = ORIENTED_EDGE ( 'NONE', *, *, #631, .F. ) ;
#273 = CARTESIAN_POINT ( 'NONE',  ( 26.00000000000000000, 618.0000000000000000, 9.500000000000005329 ) ) ;
#274 = DIRECTION ( 'NONE',  ( -0.8829475928589294309, -0.4694715627858861429, -0.000000000000000000 ) ) ;
#275 = ORIENTED_EDGE ( 'NONE', *, *, #356, .F. ) ;
#276 = CARTESIAN_POINT ( 'NONE',  ( -29.99999999999999645, 618.0000000000000000, -12.49999999999999467 ) ) ;
#277 = VECTOR ( 'NONE', #657, 1000.000000000000000 ) ;
#278 = ORIENTED_EDGE ( 'NONE', *, *, #256, .F. ) ;
#279 =( BOUNDED_CURVE ( )  B_SPLINE_CURVE ( 3, ( #7, #232, #175, #581 ),
 .UNSPECIFIED., .F., .T. ) 
 B_SPLINE_CURVE_WITH_KNOTS ( ( 4, 4 ),
 ( -7.993605777301127091E-15, 1.570796326794896558 ),
 .UNSPECIFIED. ) 
 CURVE ( )  GEOMETRIC_REPRESENTATION_ITEM ( )  RATIONAL_B_SPLINE_CURVE ( ( 1.000000000000000000, 0.8047378541243631611, 0.8047378541243631611, 1.000000000000000000 ) ) 
 REPRESENTATION_ITEM ( '' )  );
#280 = CARTESIAN_POINT ( 'NONE',  ( 27.00000000000000000, 618.0000000000000000, 8.499999999999976907 ) ) ;
#281 = LINE ( 'NONE', #342, #493 ) ;
#282 = ORIENTED_EDGE ( 'NONE', *, *, #563, .T. ) ;
#283 = DIRECTION ( 'NONE',  ( 1.000000000000000000, 0.000000000000000000, 0.000000000000000000 ) ) ;
#284 = VERTEX_POINT ( 'NONE', #499 ) ;
#285 = EDGE_CURVE ( 'NONE', #371, #736, #368, .T. ) ;
#286 = VERTEX_POINT ( 'NONE', #319 ) ;
#287 = VECTOR ( 'NONE', #560, 1000.000000000000000 ) ;
#288 = ADVANCED_FACE ( 'NONE', ( #309 ), #508, .F. ) ;
#289 = PLANE ( 'NONE',  #73 ) ;
#290 = ORIENTED_EDGE ( 'NONE', *, *, #621, .F. ) ;
#291 = FACE_OUTER_BOUND ( 'NONE', #247, .T. ) ;
#292 = LINE ( 'NONE', #588, #455 ) ;
#293 = ADVANCED_FACE ( 'NONE', ( #601 ), #35, .F. ) ;
#294 = ORIENTED_EDGE ( 'NONE', *, *, #477, .F. ) ;
#295 = DIRECTION ( 'NONE',  ( -0.000000000000000000, -1.000000000000000000, -0.000000000000000000 ) ) ;
#296 = EDGE_CURVE ( 'NONE', #219, #215, #355, .T. ) ;
#297 = ORIENTED_EDGE ( 'NONE', *, *, #210, .T. ) ;
#298 = AXIS2_PLACEMENT_3D ( 'NONE', #690, #630, #257 ) ;
#299 = AXIS2_PLACEMENT_3D ( 'NONE', #211, #570, #670 ) ;
#300 = DIRECTION ( 'NONE',  ( -0.000000000000000000, -1.000000000000000000, -0.000000000000000000 ) ) ;
#301 = CARTESIAN_POINT ( 'NONE',  ( 27.00000000000000000, -587.6925623952961359, 5.999999999999994671 ) ) ;
#302 = CARTESIAN_POINT ( 'NONE',  ( -26.00000000000000000, 618.0000000000000000, -8.499999999999996447 ) ) ;
#303 = ORIENTED_EDGE ( 'NONE', *, *, #131, .T. ) ;
#304 = DIRECTION ( 'NONE',  ( -0.000000000000000000, -1.000000000000000000, -0.000000000000000000 ) ) ;
#305 = CARTESIAN_POINT ( 'NONE',  ( 28.01523682838996976, -587.1527513982712208, -6.000000000000009770 ) ) ;
#306 = DIRECTION ( 'NONE',  ( 0.000000000000000000, 0.000000000000000000, -1.000000000000000000 ) ) ;
#307 = ORIENTED_EDGE ( 'NONE', *, *, #269, .T. ) ;
#308 = ADVANCED_FACE ( 'NONE', ( #204 ), #27, .T. ) ;
#309 = FACE_OUTER_BOUND ( 'NONE', #254, .T. ) ;
#310 =( BOUNDED_CURVE ( )  B_SPLINE_CURVE ( 3, ( #636, #121, #531, #11 ),
 .UNSPECIFIED., .F., .F. ) 
 B_SPLINE_CURVE_WITH_KNOTS ( ( 4, 4 ),
 ( 1.570796326794891229, 3.141592653589824202 ),
 .UNSPECIFIED. ) 
 CURVE ( )  GEOMETRIC_REPRESENTATION_ITEM ( )  RATIONAL_B_SPLINE_CURVE ( ( 1.000000000000000000, 0.8047378541243563888, 0.8047378541243563888, 1.000000000000000000 ) ) 
 REPRESENTATION_ITEM ( '' )  );
#311 = CARTESIAN_POINT ( 'NONE',  ( 27.00000000000000000, 510.7985914752576377, -8.499999999999989342 ) ) ;
#312 = CARTESIAN_POINT ( 'NONE',  ( 29.23080259329533703, 506.6030619990837636, -6.593101617623946531 ) ) ;
#313 = ORIENTED_EDGE ( 'NONE', *, *, #154, .T. ) ;
#314 = VECTOR ( 'NONE', #304, 1000.000000000000000 ) ;
#315 = LINE ( 'NONE', #146, #287 ) ;
#316 = FACE_OUTER_BOUND ( 'NONE', #26, .T. ) ;
#317 = CARTESIAN_POINT ( 'NONE',  ( 30.00000000000000711, -586.0974341003117161, 8.499999999999975131 ) ) ;
#318 = ORIENTED_EDGE ( 'NONE', *, *, #612, .F. ) ;
#319 = CARTESIAN_POINT ( 'NONE',  ( -25.99999999999996803, 610.4770941386144614, -12.49999999999999467 ) ) ;
#320 = ADVANCED_FACE ( 'NONE', ( #249 ), #661, .T. ) ;
#321 = CARTESIAN_POINT ( 'NONE',  ( 27.00000000000000000, 510.7985914752576377, -7.551149248369665684E-15 ) ) ;
#322 = ORIENTED_EDGE ( 'NONE', *, *, #344, .F. ) ;
#323 = CARTESIAN_POINT ( 'NONE',  ( -25.99999999999997158, 618.0000000000000000, -12.49999999999999467 ) ) ;
#324 = CARTESIAN_POINT ( 'NONE',  ( -29.99999999999999645, -618.0000000000000000, -12.49999999999999467 ) ) ;
#325 = ORIENTED_EDGE ( 'NONE', *, *, #694, .F. ) ;
#326 = CARTESIAN_POINT ( 'NONE',  ( 27.00000000000000000, 510.7985914752576377, 8.499999999999976907 ) ) ;
#327 = CIRCLE ( 'NONE', #265, 6.000000000000001776 ) ;
#328 = DIRECTION ( 'NONE',  ( -1.000000000000000000, 0.000000000000000000, 0.000000000000000000 ) ) ;
#329 = ORIENTED_EDGE ( 'NONE', *, *, #165, .T. ) ;
#330 = LINE ( 'NONE', #178, #102 ) ;
#331 = FACE_OUTER_BOUND ( 'NONE', #222, .T. ) ;
#332 = ORIENTED_EDGE ( 'NONE', *, *, #218, .T. ) ;
#333 =( BOUNDED_CURVE ( )  B_SPLINE_CURVE ( 3, ( #421, #79, #305, #138 ),
 .UNSPECIFIED., .F., .T. ) 
 B_SPLINE_CURVE_WITH_KNOTS ( ( 4, 4 ),
 ( 1.301705890103040275, 1.570796326794895004 ),
 .UNSPECIFIED. ) 
 CURVE ( )  GEOMETRIC_REPRESENTATION_ITEM ( )  RATIONAL_B_SPLINE_CURVE ( ( 1.000000000000000000, 0.9939749586229649214, 0.9939749586229649214, 1.000000000000000000 ) ) 
 REPRESENTATION_ITEM ( '' )  );
#334 = DIRECTION ( 'NONE',  ( 0.000000000000000000, 0.000000000000000000, -1.000000000000000000 ) ) ;
#335 = EDGE_CURVE ( 'NONE', #388, #371, #224, .T. ) ;
#336 = ORIENTED_EDGE ( 'NONE', *, *, #108, .T. ) ;
#337 = PLANE ( 'NONE',  #684 ) ;
#338 = ORIENTED_EDGE ( 'NONE', *, *, #226, .T. ) ;
#339 = EDGE_CURVE ( 'NONE', #681, #371, #430, .T. ) ;
#340 = ORIENTED_EDGE ( 'NONE', *, *, #197, .F. ) ;
#341 = CARTESIAN_POINT ( 'NONE',  ( 25.99999999999987921, -588.2242718269575334, -12.49999999999999467 ) ) ;
#342 = CARTESIAN_POINT ( 'NONE',  ( 25.99999999999997158, 618.0000000000000000, -9.499999999999994671 ) ) ;
#343 = ORIENTED_EDGE ( 'NONE', *, *, #631, .T. ) ;
#344 = EDGE_CURVE ( 'NONE', #140, #107, #585, .T. ) ;
#345 = CARTESIAN_POINT ( 'NONE',  ( 30.00000000000000000, 618.0000000000000000, -8.499999999999969802 ) ) ;
#346 = SURFACE_SIDE_STYLE ('',( #687 ) ) ;
#347 = ORIENTED_EDGE ( 'NONE', *, *, #113, .T. ) ;
#348 = AXIS2_PLACEMENT_3D ( 'NONE', #134, #607, #652 ) ;
#349 = CARTESIAN_POINT ( 'NONE',  ( 27.00000000000000355, -587.6925623952963633, -9.085786437626877543 ) ) ;
#350 =( GEOMETRIC_REPRESENTATION_CONTEXT ( 3 ) GLOBAL_UNCERTAINTY_ASSIGNED_CONTEXT ( ( #545 ) ) GLOBAL_UNIT_ASSIGNED_CONTEXT ( ( #677, #463, #55 ) ) REPRESENTATION_CONTEXT ( 'NONE', 'WORKASPACE' ) );
#351 = EDGE_CURVE ( 'NONE', #403, #140, #619, .T. ) ;
#352 = PRESENTATION_STYLE_ASSIGNMENT (( #404 ) ) ;
#353 = EDGE_LOOP ( 'NONE', ( #275, #233, #393, #230 ) ) ;
#354 = FACE_OUTER_BOUND ( 'NONE', #671, .T. ) ;
#355 =( BOUNDED_CURVE ( )  B_SPLINE_CURVE ( 3, ( #200, #436, #33, #546 ),
 .UNSPECIFIED., .F., .T. ) 
 B_SPLINE_CURVE_WITH_KNOTS ( ( 4, 4 ),
 ( 1.570796326794883679, 3.141592653589793116 ),
 .UNSPECIFIED. ) 
 CURVE ( )  GEOMETRIC_REPRESENTATION_ITEM ( )  RATIONAL_B_SPLINE_CURVE ( ( 1.000000000000000000, 0.8047378541243619399, 0.8047378541243619399, 1.000000000000000000 ) ) 
 REPRESENTATION_ITEM ( '' )  );
#356 = EDGE_CURVE ( 'NONE', #1, #453, #438, .T. ) ;
#357 = DIRECTION ( 'NONE',  ( -0.8829475928589294309, -0.4694715627858861429, 0.000000000000000000 ) ) ;
#358 = ORIENTED_EDGE ( 'NONE', *, *, #122, .F. ) ;
#359 = CARTESIAN_POINT ( 'NONE',  ( 28.16751774915954698, 508.6028099456516429, -7.500000000000012434 ) ) ;
#360 = DIRECTION ( 'NONE',  ( -0.000000000000000000, -1.000000000000000000, -0.000000000000000000 ) ) ;
#361 = CARTESIAN_POINT ( 'NONE',  ( 27.00000000000000000, 510.7985914752576377, -8.499999999999989342 ) ) ;
#362 = AXIS2_PLACEMENT_3D ( 'NONE', #245, #373, #369 ) ;
#363 = AXIS2_PLACEMENT_3D ( 'NONE', #592, #643, #71 ) ;
#364 = DIRECTION ( 'NONE',  ( -1.000000000000000000, 0.000000000000000000, 4.081702296416030295E-16 ) ) ;
#365 = ADVANCED_FACE ( 'NONE', ( #511 ), #726, .F. ) ;
#366 = CARTESIAN_POINT ( 'NONE',  ( 27.00000000000000000, -587.6925623952961359, -8.499999999999989342 ) ) ;
#367 = ORIENTED_EDGE ( 'NONE', *, *, #46, .F. ) ;
#368 = LINE ( 'NONE', #87, #618 ) ;
#369 = DIRECTION ( 'NONE',  ( -2.040851148208012436E-16, 0.000000000000000000, -1.000000000000000000 ) ) ;
#370 = CARTESIAN_POINT ( 'NONE',  ( 25.99999999999997513, 512.6793179406040508, -9.499999999999994671 ) ) ;
#371 = VERTEX_POINT ( 'NONE', #729 ) ;
#372 = CARTESIAN_POINT ( 'NONE',  ( -27.00000000000000000, -616.4048717050158075, 9.085786437626937939 ) ) ;
#373 = DIRECTION ( 'NONE',  ( 1.000000000000000000, 0.000000000000000000, -2.040851148208012436E-16 ) ) ;
#374 = DIRECTION ( 'NONE',  ( -0.8829475928589294309, -0.4694715627858861429, 0.000000000000000000 ) ) ;
#375 = ORIENTED_EDGE ( 'NONE', *, *, #482, .T. ) ;
#376 = PRODUCT_RELATED_PRODUCT_CATEGORY ( 'part', '', ( #432 ) ) ;
#377 = AXIS2_PLACEMENT_3D ( 'NONE', #494, #656, #195 ) ;
#378 = LINE ( 'NONE', #542, #88 ) ;
#379 = EDGE_CURVE ( 'NONE', #604, #388, #330, .T. ) ;
#380 = VECTOR ( 'NONE', #452, 1000.000000000000000 ) ;
#381 = CARTESIAN_POINT ( 'NONE',  ( -28.34314575050758123, -617.1190349686567060, -12.50000000000003730 ) ) ;
#382 = ORIENTED_EDGE ( 'NONE', *, *, #356, .T. ) ;
#383 = CARTESIAN_POINT ( 'NONE',  ( -25.99999999999996803, -615.8731622733541826, 9.500000000000005329 ) ) ;
#384 = CARTESIAN_POINT ( 'NONE',  ( -27.00000000000000000, 612.3578206039609313, 9.085786437626930834 ) ) ;
#385 = ORIENTED_EDGE ( 'NONE', *, *, #394, .T. ) ;
#386 = DIRECTION ( 'NONE',  ( 2.040851148208015394E-16, 0.000000000000000000, 1.000000000000000000 ) ) ;
#387 = CARTESIAN_POINT ( 'NONE',  ( 30.00000000000000711, -586.0974341003117161, -12.49999999999999467 ) ) ;
#388 = VERTEX_POINT ( 'NONE', #63 ) ;
#389 = DIRECTION ( 'NONE',  ( 1.000000000000000000, -0.000000000000000000, -4.081702296416030788E-16 ) ) ;
#390 = VECTOR ( 'NONE', #126, 1000.000000000000000 ) ;
#391 = VECTOR ( 'NONE', #497, 1000.000000000000000 ) ;
#392 = DIRECTION ( 'NONE',  ( -0.4694715627858859208, 0.8829475928589295419, -1.566160271669608729E-17 ) ) ;
#393 = ORIENTED_EDGE ( 'NONE', *, *, #537, .F. ) ;
#394 = EDGE_CURVE ( 'NONE', #579, #190, #105, .T. ) ;
#395 = DIRECTION ( 'NONE',  ( -2.040851148208015640E-16, 0.000000000000000000, -1.000000000000000000 ) ) ;
#396 = PRESENTATION_STYLE_ASSIGNMENT (( #47 ) ) ;
#397 = ORIENTED_EDGE ( 'NONE', *, *, #487, .F. ) ;
#398 = EDGE_CURVE ( 'NONE', #286, #579, #624, .T. ) ;
#399 = VERTEX_POINT ( 'NONE', #270 ) ;
#400 = AXIS2_PLACEMENT_3D ( 'NONE', #104, #152, #112 ) ;
#401 = ORIENTED_EDGE ( 'NONE', *, *, #226, .F. ) ;
#402 = AXIS2_PLACEMENT_3D ( 'NONE', #324, #561, #374 ) ;
#403 = VERTEX_POINT ( 'NONE', #326 ) ;
#404 = SURFACE_STYLE_USAGE ( .BOTH. , #12 ) ;
#405 = EDGE_LOOP ( 'NONE', ( #307, #591, #120, #170 ) ) ;
#406 = LINE ( 'NONE', #669, #423 ) ;
#407 =( BOUNDED_CURVE ( )  B_SPLINE_CURVE ( 3, ( #139, #359, #312, #490 ),
 .UNSPECIFIED., .F., .F. ) 
 B_SPLINE_CURVE_WITH_KNOTS ( ( 4, 4 ),
 ( 4.712388980384689674, 5.563920933105012345 ),
 .UNSPECIFIED. ) 
 CURVE ( )  GEOMETRIC_REPRESENTATION_ITEM ( )  RATIONAL_B_SPLINE_CURVE ( ( 1.000000000000000000, 0.9404817585007247960, 0.9404817585007247960, 1.000000000000000000 ) ) 
 REPRESENTATION_ITEM ( '' )  );
#408 = DIRECTION ( 'NONE',  ( -0.000000000000000000, -1.000000000000000000, -0.000000000000000000 ) ) ;
#409 = ORIENTED_EDGE ( 'NONE', *, *, #176, .T. ) ;
#410 = AXIS2_PLACEMENT_3D ( 'NONE', #209, #447, #552 ) ;
#411 = CYLINDRICAL_SURFACE ( 'NONE', #363, 3.999999999999996447 ) ;
#412 = ADVANCED_FACE ( 'NONE', ( #737 ), #337, .F. ) ;
#413 = CARTESIAN_POINT ( 'NONE',  ( -25.99999999999999645, 618.0000000000000000, 8.500000000000005329 ) ) ;
#414 =( BOUNDED_CURVE ( )  B_SPLINE_CURVE ( 3, ( #151, #214, #434, #317 ),
 .UNSPECIFIED., .F., .T. ) 
 B_SPLINE_CURVE_WITH_KNOTS ( ( 4, 4 ),
 ( 1.570796326794920983, 3.141592653589801110 ),
 .UNSPECIFIED. ) 
 CURVE ( )  GEOMETRIC_REPRESENTATION_ITEM ( )  RATIONAL_B_SPLINE_CURVE ( ( 1.000000000000000000, 0.8047378541243688232, 0.8047378541243688232, 1.000000000000000000 ) ) 
 REPRESENTATION_ITEM ( '' )  );
#415 = VERTEX_POINT ( 'NONE', #231 ) ;
#416 = CARTESIAN_POINT ( 'NONE',  ( 25.99999999999998224, 512.6793179406040508, -12.49999999999999467 ) ) ;
#417 = LINE ( 'NONE', #345, #551 ) ;
#418 = CARTESIAN_POINT ( 'NONE',  ( -25.99999999999997158, 618.0000000000000000, -9.499999999999994671 ) ) ;
#419 = CARTESIAN_POINT ( 'NONE',  ( 28.34314575050762031, -586.9783991316553511, -12.49999999999999289 ) ) ;
#420 = EDGE_CURVE ( 'NONE', #399, #736, #45, .T. ) ;
#421 = CARTESIAN_POINT ( 'NONE',  ( 30.00000000000000000, -586.0974341003117161, -5.784078640763816281 ) ) ;
#422 = ORIENTED_EDGE ( 'NONE', *, *, #197, .T. ) ;
#423 = VECTOR ( 'NONE', #386, 1000.000000000000000 ) ;
#424 = VECTOR ( 'NONE', #522, 1000.000000000000000 ) ;
#425 = VECTOR ( 'NONE', #260, 1000.000000000000000 ) ;
#426 = DIRECTION ( 'NONE',  ( -0.000000000000000000, -1.000000000000000000, -0.000000000000000000 ) ) ;
#427 = CYLINDRICAL_SURFACE ( 'NONE', #348, 0.9999999999999991118 ) ;
#428 = DIRECTION ( 'NONE',  ( -0.000000000000000000, -0.000000000000000000, 1.000000000000000000 ) ) ;
#429 = ORIENTED_EDGE ( 'NONE', *, *, #296, .F. ) ;
#430 = LINE ( 'NONE', #460, #442 ) ;
#431 = DIRECTION ( 'NONE',  ( 1.000000000000000000, 0.000000000000000000, -0.000000000000000000 ) ) ;
#432 = PRODUCT ( 'XH-YJ38-LJ-014-A0-斜拉加强筋', 'XH-YJ38-LJ-014-A0-斜拉加强筋', '', ( #3 ) ) ;
#433 = PRODUCT_DEFINITION ( '未知', '', #172, #208 ) ;
#434 = CARTESIAN_POINT ( 'NONE',  ( 30.00000000000002132, -586.0974341003119434, 10.84314575050756346 ) ) ;
#435 = ORIENTED_EDGE ( 'NONE', *, *, #154, .F. ) ;
#436 = CARTESIAN_POINT ( 'NONE',  ( -28.34314575050758833, 614.8839103637581047, 12.50000000000003553 ) ) ;
#437 = DIRECTION ( 'NONE',  ( 0.000000000000000000, 0.000000000000000000, -1.000000000000000000 ) ) ;
#438 =( BOUNDED_CURVE ( )  B_SPLINE_CURVE ( 3, ( #622, #349, #680, #569 ),
 .UNSPECIFIED., .F., .T. ) 
 B_SPLINE_CURVE_WITH_KNOTS ( ( 4, 4 ),
 ( 3.141592653589786455, 4.712388980384648818 ),
 .UNSPECIFIED. ) 
 CURVE ( )  GEOMETRIC_REPRESENTATION_ITEM ( )  RATIONAL_B_SPLINE_CURVE ( ( 1.000000000000000000, 0.8047378541243730421, 0.8047378541243730421, 1.000000000000000000 ) ) 
 REPRESENTATION_ITEM ( '' )  );
#439 = CARTESIAN_POINT ( 'NONE',  ( -30.00000000000001776, 618.0000000000000000, -10.84314575050762564 ) ) ;
#440 = ORIENTED_EDGE ( 'NONE', *, *, #251, .T. ) ;
#441 = ADVANCED_FACE ( 'NONE', ( #672 ), #518, .F. ) ;
#442 = VECTOR ( 'NONE', #109, 1000.000000000000000 ) ;
#443 = DIRECTION ( 'NONE',  ( -1.000000000000000000, 0.000000000000000000, -3.336006684570785197E-17 ) ) ;
#444 = AXIS2_PLACEMENT_3D ( 'NONE', #15, #698, #80 ) ;
#445 = CARTESIAN_POINT ( 'NONE',  ( 27.00000000000000000, -587.6925623952961359, -6.000000000000009770 ) ) ;
#446 = ORIENTED_EDGE ( 'NONE', *, *, #256, .T. ) ;
#447 = DIRECTION ( 'NONE',  ( 1.000000000000000000, -0.000000000000000000, -4.081702296416030788E-16 ) ) ;
#448 = CARTESIAN_POINT ( 'NONE',  ( -29.99999999999999645, -618.0000000000000000, -8.499999999999966249 ) ) ;
#449 = EDGE_LOOP ( 'NONE', ( #4, #627, #114, #422 ) ) ;
#450 = CARTESIAN_POINT ( 'NONE',  ( 20.00000000000000355, 510.7985914752576377, -4.693957640878446204E-15 ) ) ;
#451 = ADVANCED_FACE ( 'NONE', ( #291 ), #682, .F. ) ;
#452 = DIRECTION ( 'NONE',  ( -0.000000000000000000, -1.000000000000000000, -0.000000000000000000 ) ) ;
#453 = VERTEX_POINT ( 'NONE', #53 ) ;
#454 = CARTESIAN_POINT ( 'NONE',  ( 25.99999999999998224, 512.6793179406040508, -12.49999999999999467 ) ) ;
#455 = VECTOR ( 'NONE', #357, 1000.000000000000000 ) ;
#456 = ORIENTED_EDGE ( 'NONE', *, *, #351, .F. ) ;
#457 = CARTESIAN_POINT ( 'NONE',  ( 30.00000000000000000, 505.1564120792186259, -10.84314575050763985 ) ) ;
#458 = ORIENTED_EDGE ( 'NONE', *, *, #640, .F. ) ;
#459 = EDGE_CURVE ( 'NONE', #736, #140, #310, .T. ) ;
#460 = CARTESIAN_POINT ( 'NONE',  ( -25.99999999999996803, 618.0000000000000000, 9.500000000000005329 ) ) ;
#461 =( NAMED_UNIT ( * ) SI_UNIT ( $, .STERADIAN. ) SOLID_ANGLE_UNIT ( ) );
#462 = ORIENTED_EDGE ( 'NONE', *, *, #420, .F. ) ;
#463 =( NAMED_UNIT ( * ) PLANE_ANGLE_UNIT ( ) SI_UNIT ( $, .RADIAN. ) );
#464 = ORIENTED_EDGE ( 'NONE', *, *, #234, .T. ) ;
#465 =( BOUNDED_CURVE ( )  B_SPLINE_CURVE ( 3, ( #558, #258, #384, #148 ),
 .UNSPECIFIED., .F., .F. ) 
 B_SPLINE_CURVE_WITH_KNOTS ( ( 4, 4 ),
 ( 1.570796326794844378, 3.141592653589799777 ),
 .UNSPECIFIED. ) 
 CURVE ( )  GEOMETRIC_REPRESENTATION_ITEM ( )  RATIONAL_B_SPLINE_CURVE ( ( 1.000000000000000000, 0.8047378541243510597, 0.8047378541243510597, 1.000000000000000000 ) ) 
 REPRESENTATION_ITEM ( '' )  );
#466 = LINE ( 'NONE', #644, #225 ) ;
#467 = CARTESIAN_POINT ( 'NONE',  ( 26.00000000000000000, -588.2242718269577608, 9.500000000000005329 ) ) ;
#468 = EDGE_LOOP ( 'NONE', ( #278, #458, #664, #62 ) ) ;
#469 = CARTESIAN_POINT ( 'NONE',  ( 30.00000000000000000, 505.1564120792185690, -8.499999999999996447 ) ) ;
#470 =( BOUNDED_CURVE ( )  B_SPLINE_CURVE ( 3, ( #67, #478, #419, #603 ),
 .UNSPECIFIED., .F., .F. ) 
 B_SPLINE_CURVE_WITH_KNOTS ( ( 4, 4 ),
 ( 3.141592653589793116, 4.712388980384690562 ),
 .UNSPECIFIED. ) 
 CURVE ( )  GEOMETRIC_REPRESENTATION_ITEM ( )  RATIONAL_B_SPLINE_CURVE ( ( 1.000000000000000000, 0.8047378541243648264, 0.8047378541243648264, 1.000000000000000000 ) ) 
 REPRESENTATION_ITEM ( '' )  );
#471 = EDGE_CURVE ( 'NONE', #634, #503, #406, .T. ) ;
#472 = ORIENTED_EDGE ( 'NONE', *, *, #608, .T. ) ;
#473 = LINE ( 'NONE', #599, #629 ) ;
#474 = DIRECTION ( 'NONE',  ( -0.000000000000000000, -1.000000000000000000, -0.000000000000000000 ) ) ;
#475 = ORIENTED_EDGE ( 'NONE', *, *, #568, .T. ) ;
#476 =( GEOMETRIC_REPRESENTATION_CONTEXT ( 3 ) GLOBAL_UNCERTAINTY_ASSIGNED_CONTEXT ( ( #514 ) ) GLOBAL_UNIT_ASSIGNED_CONTEXT ( ( #633, #65, #16 ) ) REPRESENTATION_CONTEXT ( 'NONE', 'WORKASPACE' ) );
#477 = EDGE_CURVE ( 'NONE', #32, #41, #615, .T. ) ;
#478 = CARTESIAN_POINT ( 'NONE',  ( 30.00000000000000000, -586.0974341003119434, -10.84314575050761675 ) ) ;
#479 = CARTESIAN_POINT ( 'NONE',  ( -25.99999999999997158, 618.0000000000000000, -9.499999999999994671 ) ) ;
#480 = ORIENTED_EDGE ( 'NONE', *, *, #234, .F. ) ;
#481 = DIRECTION ( 'NONE',  ( 0.4694715627858858653, -0.8829475928589295419, 0.000000000000000000 ) ) ;
#482 = EDGE_CURVE ( 'NONE', #58, #215, #129, .T. ) ;
#483 = CARTESIAN_POINT ( 'NONE',  ( 30.00000000000000711, 505.1564120792185690, -4.941235843684488316 ) ) ;
#484 = DIRECTION ( 'NONE',  ( -1.000000000000000000, 0.000000000000000000, 0.000000000000000000 ) ) ;
#485 = DIRECTION ( 'NONE',  ( 0.000000000000000000, 0.000000000000000000, -1.000000000000000000 ) ) ;
#486 = VERTEX_POINT ( 'NONE', #25 ) ;
#487 = EDGE_CURVE ( 'NONE', #190, #183, #639, .T. ) ;
#488 = LINE ( 'NONE', #83, #123 ) ;
#489 = CARTESIAN_POINT ( 'NONE',  ( 27.00000000000000000, -587.6925623952961359, -7.551149248369665684E-15 ) ) ;
#490 = CARTESIAN_POINT ( 'NONE',  ( 30.00000000000000711, 505.1564120792185690, -4.941235843684488316 ) ) ;
#491 = EDGE_LOOP ( 'NONE', ( #48, #692, #203, #541 ) ) ;
#492 = VECTOR ( 'NONE', #706, 1000.000000000000000 ) ;
#493 = VECTOR ( 'NONE', #227, 1000.000000000000000 ) ;
#494 = CARTESIAN_POINT ( 'NONE',  ( 26.00000000000000711, 618.0000000000000000, 8.500000000000007105 ) ) ;
#495 = CARTESIAN_POINT ( 'NONE',  ( -29.99999999999999645, 618.0000000000000000, -8.499999999999966249 ) ) ;
#496 =( BOUNDED_CURVE ( )  B_SPLINE_CURVE ( 3, ( #43, #439, #159, #505 ),
 .UNSPECIFIED., .F., .T. ) 
 B_SPLINE_CURVE_WITH_KNOTS ( ( 4, 4 ),
 ( 3.141592653589785566, 4.712388980384702997 ),
 .UNSPECIFIED. ) 
 CURVE ( )  GEOMETRIC_REPRESENTATION_ITEM ( )  RATIONAL_B_SPLINE_CURVE ( ( 1.000000000000000000, 0.8047378541243600525, 0.8047378541243600525, 1.000000000000000000 ) ) 
 REPRESENTATION_ITEM ( '' )  );
#497 = DIRECTION ( 'NONE',  ( -0.000000000000000000, -0.000000000000000000, 1.000000000000000000 ) ) ;
#498 = EDGE_LOOP ( 'NONE', ( #128, #149, #272, #610 ) ) ;
#499 = CARTESIAN_POINT ( 'NONE',  ( -27.00000000000000000, 612.3578206039609313, -8.499999999999966249 ) ) ;
#500 = PLANE ( 'NONE',  #362 ) ;
#501 = ADVANCED_FACE ( 'NONE', ( #354 ), #194, .T. ) ;
#502 = CARTESIAN_POINT ( 'NONE',  ( -27.00000000000000000, -616.4048717050155801, -8.499999999999966249 ) ) ;
#503 = VERTEX_POINT ( 'NONE', #235 ) ;
#504 = DIRECTION ( 'NONE',  ( 0.8829475928589294309, 0.4694715627858861429, 2.945519071903072731E-17 ) ) ;
#505 = CARTESIAN_POINT ( 'NONE',  ( -25.99999999999996803, 610.4770941386144614, -12.49999999999999467 ) ) ;
#506 = UNCERTAINTY_MEASURE_WITH_UNIT (LENGTH_MEASURE( 1.000000000000000082E-05 ), #626, 'distance_accuracy_value', 'NONE');
#507 = VECTOR ( 'NONE', #474, 1000.000000000000000 ) ;
#508 = CYLINDRICAL_SURFACE ( 'NONE', #410, 6.000000000000001776 ) ;
#509 = DIRECTION ( 'NONE',  ( -0.000000000000000000, -1.000000000000000000, -0.000000000000000000 ) ) ;
#510 = ORIENTED_EDGE ( 'NONE', *, *, #339, .T. ) ;
#511 = FACE_OUTER_BOUND ( 'NONE', #353, .T. ) ;
#512 = LINE ( 'NONE', #169, #250 ) ;
#513 = ORIENTED_EDGE ( 'NONE', *, *, #344, .T. ) ;
#514 = UNCERTAINTY_MEASURE_WITH_UNIT (LENGTH_MEASURE( 1.000000000000000082E-05 ), #633, 'distance_accuracy_value', 'NONE');
#515 = CARTESIAN_POINT ( 'NONE',  ( -29.99999999999999645, 618.0000000000000000, -12.49999999999999467 ) ) ;
#516 = APPLICATION_PROTOCOL_DEFINITION ( 'draft international standard', 'automotive_design', 1998, #163 ) ;
#517 = EDGE_LOOP ( 'NONE', ( #54, #683, #358, #44 ) ) ;
#518 = CYLINDRICAL_SURFACE ( 'NONE', #708, 7.500000000000001776 ) ;
#519 = AXIS2_PLACEMENT_3D ( 'NONE', #715, #141, #443 ) ;
#520 = EDGE_CURVE ( 'NONE', #221, #207, #470, .T. ) ;
#521 = VERTEX_POINT ( 'NONE', #31 ) ;
#522 = DIRECTION ( 'NONE',  ( -0.000000000000000000, -1.000000000000000000, -0.000000000000000000 ) ) ;
#523 = DIRECTION ( 'NONE',  ( 0.000000000000000000, 0.000000000000000000, 1.000000000000000000 ) ) ;
#524 = VERTEX_POINT ( 'NONE', #370 ) ;
#525 = ORIENTED_EDGE ( 'NONE', *, *, #46, .T. ) ;
#526 = CARTESIAN_POINT ( 'NONE',  ( 29.02129839093212738, -586.6178189766353626, 5.927589939980196121 ) ) ;
#527 = ORIENTED_EDGE ( 'NONE', *, *, #568, .F. ) ;
#528 = EDGE_CURVE ( 'NONE', #97, #156, #473, .T. ) ;
#529 = CARTESIAN_POINT ( 'NONE',  ( 27.00000000000000000, 618.0000000000000000, -8.499999999999989342 ) ) ;
#530 = ORIENTED_EDGE ( 'NONE', *, *, #653, .F. ) ;
#531 = CARTESIAN_POINT ( 'NONE',  ( 27.00000000000002132, -587.6925623952963633, 9.085786437626897083 ) ) ;
#532 = DIRECTION ( 'NONE',  ( 0.000000000000000000, 0.000000000000000000, -1.000000000000000000 ) ) ;
#533 = ORIENTED_EDGE ( 'NONE', *, *, #69, .T. ) ;
#534 = DIRECTION ( 'NONE',  ( -0.000000000000000000, -0.000000000000000000, 1.000000000000000000 ) ) ;
#535 = CARTESIAN_POINT ( 'NONE',  ( 27.00000000000000000, -587.6925623952961359, -8.499999999999989342 ) ) ;
#536 = AXIS2_PLACEMENT_3D ( 'NONE', #259, #364, #597 ) ;
#537 = EDGE_CURVE ( 'NONE', #524, #642, #550, .T. ) ;
#538 = VECTOR ( 'NONE', #306, 1000.000000000000000 ) ;
#539 = DIRECTION ( 'NONE',  ( 0.000000000000000000, 0.000000000000000000, 1.000000000000000000 ) ) ;
#540 = CARTESIAN_POINT ( 'NONE',  ( -26.58578643762686866, -616.1846304471799840, -9.500000000000037303 ) ) ;
#541 = ORIENTED_EDGE ( 'NONE', *, *, #64, .T. ) ;
#542 = CARTESIAN_POINT ( 'NONE',  ( -29.11838580694150380, 616.3419248548899532, -9.499999999999994671 ) ) ;
#543 = CARTESIAN_POINT ( 'NONE',  ( -26.58578643762688998, 611.5787981949004006, -9.500000000000026645 ) ) ;
#544 = EDGE_LOOP ( 'NONE', ( #118, #336, #472, #382, #303, #623, #446, #714, #567, #576, #513, #167, #38, #318, #725, #728, #577, #290, #697, #86 ) ) ;
#545 = UNCERTAINTY_MEASURE_WITH_UNIT (LENGTH_MEASURE( 1.000000000000000082E-05 ), #677, 'distance_accuracy_value', 'NONE');
#546 = CARTESIAN_POINT ( 'NONE',  ( -29.99999999999999645, 618.0000000000000000, 8.500000000000005329 ) ) ;
#547 = CARTESIAN_POINT ( 'NONE',  ( 30.00000000000000711, -586.0974341003117161, 5.784078640763795853 ) ) ;
#548 = CARTESIAN_POINT ( 'NONE',  ( -25.99999999999996803, -615.8731622733541826, -9.499999999999994671 ) ) ;
#549 = ORIENTED_EDGE ( 'NONE', *, *, #394, .F. ) ;
#550 =( BOUNDED_CURVE ( )  B_SPLINE_CURVE ( 3, ( #85, #246, #20, #361 ),
 .UNSPECIFIED., .F., .T. ) 
 B_SPLINE_CURVE_WITH_KNOTS ( ( 4, 4 ),
 ( 4.712388980384637271, 6.283185307179586232 ),
 .UNSPECIFIED. ) 
 CURVE ( )  GEOMETRIC_REPRESENTATION_ITEM ( )  RATIONAL_B_SPLINE_CURVE ( ( 1.000000000000000000, 0.8047378541243526140, 0.8047378541243526140, 1.000000000000000000 ) ) 
 REPRESENTATION_ITEM ( '' )  );
#551 = VECTOR ( 'NONE', #593, 1000.000000000000000 ) ;
#552 = DIRECTION ( 'NONE',  ( -5.782411586589355667E-16, 0.000000000000000000, -1.000000000000000000 ) ) ;
#553 = ADVANCED_FACE ( 'NONE', ( #587 ), #704, .F. ) ;
#554 = CARTESIAN_POINT ( 'NONE',  ( 27.00000000000002132, 510.7985914752577514, 9.085786437626897083 ) ) ;
#555 = CARTESIAN_POINT ( 'NONE',  ( -29.11838580694150025, 616.3419248548899532, 9.500000000000005329 ) ) ;
#556 = VERTEX_POINT ( 'NONE', #189 ) ;
#557 = LINE ( 'NONE', #191, #171 ) ;
#558 = CARTESIAN_POINT ( 'NONE',  ( -25.99999999999996803, 610.4770941386144614, 9.500000000000005329 ) ) ;
#559 = EDGE_LOOP ( 'NONE', ( #732, #325, #571, #632, #294, #705, #180, #435 ) ) ;
#560 = DIRECTION ( 'NONE',  ( -0.000000000000000000, -1.000000000000000000, -0.000000000000000000 ) ) ;
#561 = DIRECTION ( 'NONE',  ( -0.4694715627858861429, 0.8829475928589294309, 0.000000000000000000 ) ) ;
#562 = ORIENTED_EDGE ( 'NONE', *, *, #621, .T. ) ;
#563 = EDGE_CURVE ( 'NONE', #219, #174, #184, .T. ) ;
#564 = VECTOR ( 'NONE', #534, 1000.000000000000000 ) ;
#565 = CARTESIAN_POINT ( 'NONE',  ( 27.00000000000000000, -587.6925623952961359, -8.499999999999989342 ) ) ;
#566 = DIRECTION ( 'NONE',  ( 0.000000000000000000, 0.000000000000000000, 1.000000000000000000 ) ) ;
#567 = ORIENTED_EDGE ( 'NONE', *, *, #285, .T. ) ;
#568 = EDGE_CURVE ( 'NONE', #521, #183, #407, .T. ) ;
#569 = CARTESIAN_POINT ( 'NONE',  ( 25.99999999999999645, -588.2242718269576471, -9.499999999999994671 ) ) ;
#570 = DIRECTION ( 'NONE',  ( 1.000000000000000000, 0.000000000000000000, -4.081702296416030295E-16 ) ) ;
#571 = ORIENTED_EDGE ( 'NONE', *, *, #528, .T. ) ;
#572 = FILL_AREA_STYLE_COLOUR ( '', #74 ) ;
#573 = EDGE_LOOP ( 'NONE', ( #409, #125, #620, #228 ) ) ;
#574 = DIRECTION ( 'NONE',  ( 1.000000000000000000, 0.000000000000000000, -2.040851148208015640E-16 ) ) ;
#575 = CIRCLE ( 'NONE', #266, 7.500000000000001776 ) ;
#576 = ORIENTED_EDGE ( 'NONE', *, *, #459, .T. ) ;
#577 = ORIENTED_EDGE ( 'NONE', *, *, #471, .F. ) ;
#578 = CARTESIAN_POINT ( 'NONE',  ( 0.000000000000000000, 0.000000000000000000, 0.000000000000000000 ) ) ;
#579 = VERTEX_POINT ( 'NONE', #416 ) ;
#580 = EDGE_CURVE ( 'NONE', #638, #617, #693, .T. ) ;
#581 = CARTESIAN_POINT ( 'NONE',  ( 26.00000000000000711, 512.6793179406039371, 12.50000000000000533 ) ) ;
#582 = VECTOR ( 'NONE', #539, 1000.000000000000000 ) ;
#583 = VECTOR ( 'NONE', #392, 1000.000000000000114 ) ;
#584 = ORIENTED_EDGE ( 'NONE', *, *, #580, .F. ) ;
#585 = LINE ( 'NONE', #565, #205 ) ;
#586 = ORIENTED_EDGE ( 'NONE', *, *, #608, .F. ) ;
#587 = FACE_OUTER_BOUND ( 'NONE', #136, .T. ) ;
#588 = CARTESIAN_POINT ( 'NONE',  ( 485.4636056459537485, -343.9231391998170011, -9.499999999999994671 ) ) ;
#589 = ADVANCED_FACE ( 'NONE', ( #596 ), #411, .T. ) ;
#590 =( BOUNDED_CURVE ( )  B_SPLINE_CURVE ( 3, ( #716, #89, #543, #24 ),
 .UNSPECIFIED., .F., .F. ) 
 B_SPLINE_CURVE_WITH_KNOTS ( ( 4, 4 ),
 ( 3.141592653589762030, 4.712388980384742965 ),
 .UNSPECIFIED. ) 
 CURVE ( )  GEOMETRIC_REPRESENTATION_ITEM ( )  RATIONAL_B_SPLINE_CURVE ( ( 1.000000000000000000, 0.8047378541243450645, 0.8047378541243450645, 1.000000000000000000 ) ) 
 REPRESENTATION_ITEM ( '' )  );
#591 = ORIENTED_EDGE ( 'NONE', *, *, #605, .T. ) ;
#592 = CARTESIAN_POINT ( 'NONE',  ( 26.00000000000000355, 618.0000000000000000, -8.499999999999996447 ) ) ;
#593 = DIRECTION ( 'NONE',  ( -0.000000000000000000, -1.000000000000000000, -0.000000000000000000 ) ) ;
#594 = CARTESIAN_POINT ( 'NONE',  ( -30.00000000000000000, 618.0000000000000000, -8.499999999999966249 ) ) ;
#595 =( BOUNDED_CURVE ( )  B_SPLINE_CURVE ( 3, ( #646, #77, #650, #135 ),
 .UNSPECIFIED., .F., .T. ) 
 B_SPLINE_CURVE_WITH_KNOTS ( ( 4, 4 ),
 ( 0.000000000000000000, 1.570796326794916320 ),
 .UNSPECIFIED. ) 
 CURVE ( )  GEOMETRIC_REPRESENTATION_ITEM ( )  RATIONAL_B_SPLINE_CURVE ( ( 1.000000000000000000, 0.8047378541243603856, 0.8047378541243603856, 1.000000000000000000 ) ) 
 REPRESENTATION_ITEM ( '' )  );
#596 = FACE_OUTER_BOUND ( 'NONE', #111, .T. ) ;
#597 = DIRECTION ( 'NONE',  ( 4.081702296416030295E-16, 0.000000000000000000, 1.000000000000000000 ) ) ;
#598 = FACE_OUTER_BOUND ( 'NONE', #468, .T. ) ;
#599 = CARTESIAN_POINT ( 'NONE',  ( 30.00000000000000711, 505.1564120792185690, -12.49999999999999467 ) ) ;
#600 = ORIENTED_EDGE ( 'NONE', *, *, #379, .F. ) ;
#601 = FACE_OUTER_BOUND ( 'NONE', #559, .T. ) ;
#602 = CARTESIAN_POINT ( 'NONE',  ( 26.58578643762692195, 511.5776138843179979, 9.500000000000008882 ) ) ;
#603 = CARTESIAN_POINT ( 'NONE',  ( 25.99999999999987921, -588.2242718269575334, -12.49999999999999467 ) ) ;
#604 = VERTEX_POINT ( 'NONE', #239 ) ;
#605 = EDGE_CURVE ( 'NONE', #503, #556, #595, .T. ) ;
#606 = CARTESIAN_POINT ( 'NONE',  ( 28.16751774915955053, 508.6028099456516429, 7.499999999999993783 ) ) ;
#607 = DIRECTION ( 'NONE',  ( -0.000000000000000000, -1.000000000000000000, -0.000000000000000000 ) ) ;
#608 = EDGE_CURVE ( 'NONE', #688, #1, #242, .T. ) ;
#609 = CARTESIAN_POINT ( 'NONE',  ( -27.00000000000000000, 618.0000000000000000, -8.499999999999966249 ) ) ;
#610 = ORIENTED_EDGE ( 'NONE', *, *, #420, .T. ) ;
#611 = LINE ( 'NONE', #23, #492 ) ;
#612 = EDGE_CURVE ( 'NONE', #50, #41, #414, .T. ) ;
#613 = PLANE ( 'NONE',  #733 ) ;
#614 = ORIENTED_EDGE ( 'NONE', *, *, #113, .F. ) ;
#615 = LINE ( 'NONE', #98, #564 ) ;
#616 = FACE_OUTER_BOUND ( 'NONE', #243, .T. ) ;
#617 = VERTEX_POINT ( 'NONE', #502 ) ;
#618 = VECTOR ( 'NONE', #504, 1000.000000000000000 ) ;
#619 = LINE ( 'NONE', #280, #424 ) ;
#620 = ORIENTED_EDGE ( 'NONE', *, *, #251, .F. ) ;
#621 = EDGE_CURVE ( 'NONE', #486, #634, #153, .T. ) ;
#622 = CARTESIAN_POINT ( 'NONE',  ( 27.00000000000000000, -587.6925623952961359, -8.499999999999989342 ) ) ;
#623 = ORIENTED_EDGE ( 'NONE', *, *, #580, .T. ) ;
#624 = LINE ( 'NONE', #276, #217 ) ;
#625 = ADVANCED_BREP_SHAPE_REPRESENTATION ( 'XH-YJ38-LJ-014-A0-斜拉加强筋', ( #145, #686 ), #350 ) ;
#626 =( LENGTH_UNIT ( ) NAMED_UNIT ( * ) SI_UNIT ( .MILLI., .METRE. ) );
#627 = ORIENTED_EDGE ( 'NONE', *, *, #612, .T. ) ;
#628 = STYLED_ITEM ( 'NONE', ( #352 ), #145 ) ;
#629 = VECTOR ( 'NONE', #428, 1000.000000000000000 ) ;
#630 = DIRECTION ( 'NONE',  ( 1.000000000000000000, 0.000000000000000000, -4.081702296416030295E-16 ) ) ;
#631 = EDGE_CURVE ( 'NONE', #399, #681, #198, .T. ) ;
#632 = ORIENTED_EDGE ( 'NONE', *, *, #262, .T. ) ;
#633 =( LENGTH_UNIT ( ) NAMED_UNIT ( * ) SI_UNIT ( .MILLI., .METRE. ) );
#634 = VERTEX_POINT ( 'NONE', #448 ) ;
#635 = EDGE_CURVE ( 'NONE', #50, #556, #37, .T. ) ;
#636 = CARTESIAN_POINT ( 'NONE',  ( 26.00000000000000000, -588.2242718269577608, 9.500000000000005329 ) ) ;
#637 = SURFACE_STYLE_FILL_AREA ( #702 ) ;
#638 = VERTEX_POINT ( 'NONE', #663 ) ;
#639 = LINE ( 'NONE', #19, #390 ) ;
#640 = EDGE_CURVE ( 'NONE', #284, #617, #724, .T. ) ;
#641 = CARTESIAN_POINT ( 'NONE',  ( 26.00000000000000711, 512.6793179406039371, 12.50000000000000533 ) ) ;
#642 = VERTEX_POINT ( 'NONE', #713 ) ;
#643 = DIRECTION ( 'NONE',  ( -0.000000000000000000, -1.000000000000000000, -0.000000000000000000 ) ) ;
#644 = CARTESIAN_POINT ( 'NONE',  ( 25.99999999999997158, 618.0000000000000000, -12.49999999999999467 ) ) ;
#645 = LINE ( 'NONE', #594, #277 ) ;
#646 = CARTESIAN_POINT ( 'NONE',  ( -29.99999999999999645, -618.0000000000002274, 8.500000000000005329 ) ) ;
#647 = DIRECTION ( 'NONE',  ( 1.000000000000000000, 0.000000000000000000, -0.000000000000000000 ) ) ;
#648 = PLANE ( 'NONE',  #158 ) ;
#649 = CIRCLE ( 'NONE', #298, 6.000000000000001776 ) ;
#650 = CARTESIAN_POINT ( 'NONE',  ( -28.34314575050757412, -617.1190349686567060, 12.50000000000005329 ) ) ;
#651 = DIRECTION ( 'NONE',  ( 0.4694715627858859208, -0.8829475928589295419, 0.000000000000000000 ) ) ;
#652 = DIRECTION ( 'NONE',  ( 0.000000000000000000, 0.000000000000000000, -1.000000000000000000 ) ) ;
#653 = EDGE_CURVE ( 'NONE', #681, #604, #465, .T. ) ;
#654 = CARTESIAN_POINT ( 'NONE',  ( -29.99999999999999645, 618.0000000000000000, 12.50000000000000533 ) ) ;
#655 = ORIENTED_EDGE ( 'NONE', *, *, #666, .T. ) ;
#656 = DIRECTION ( 'NONE',  ( -0.000000000000000000, -1.000000000000000000, -0.000000000000000000 ) ) ;
#657 = DIRECTION ( 'NONE',  ( -0.000000000000000000, -1.000000000000000000, -0.000000000000000000 ) ) ;
#658 = DIRECTION ( 'NONE',  ( 0.000000000000000000, 0.000000000000000000, -1.000000000000000000 ) ) ;
#659 = ORIENTED_EDGE ( 'NONE', *, *, #36, .F. ) ;
#660 = EDGE_CURVE ( 'NONE', #219, #556, #93, .T. ) ;
#661 = CYLINDRICAL_SURFACE ( 'NONE', #377, 3.999999999999999112 ) ;
#662 = FACE_OUTER_BOUND ( 'NONE', #119, .T. ) ;
#663 = CARTESIAN_POINT ( 'NONE',  ( -25.99999999999996803, -615.8731622733541826, -9.499999999999994671 ) ) ;
#664 = ORIENTED_EDGE ( 'NONE', *, *, #218, .F. ) ;
#665 = CARTESIAN_POINT ( 'NONE',  ( -26.99999999999999645, -616.4048717050158075, 8.499999999999998224 ) ) ;
#666 = EDGE_CURVE ( 'NONE', #58, #286, #496, .T. ) ;
#667 = DIRECTION ( 'NONE',  ( 0.000000000000000000, 0.000000000000000000, 1.000000000000000000 ) ) ;
#668 = ORIENTED_EDGE ( 'NONE', *, *, #165, .F. ) ;
#669 = CARTESIAN_POINT ( 'NONE',  ( -30.00000000000000000, -618.0000000000000000, -8.499999999999966249 ) ) ;
#670 = DIRECTION ( 'NONE',  ( -4.625929269271484928E-16, 0.000000000000000000, -1.000000000000000000 ) ) ;
#671 = EDGE_LOOP ( 'NONE', ( #440, #562, #8, #655 ) ) ;
#672 = FACE_OUTER_BOUND ( 'NONE', #70, .T. ) ;
#673 = CARTESIAN_POINT ( 'NONE',  ( -29.99999999999999645, -618.0000000000000000, -8.499999999999966249 ) ) ;
#674 = ORIENTED_EDGE ( 'NONE', *, *, #694, .T. ) ;
#675 = CLOSED_SHELL ( 'NONE', ( #501, #412, #185, #76, #320, #293, #589, #117, #103, #13, #553, #308, #685, #718, #365, #22, #451, #722, #288, #441 ) ) ;
#676 = CARTESIAN_POINT ( 'NONE',  ( 30.00000000000000000, 505.1564120792185690, -8.499999999999996447 ) ) ;
#677 =( LENGTH_UNIT ( ) NAMED_UNIT ( * ) SI_UNIT ( .MILLI., .METRE. ) );
#678 = ORIENTED_EDGE ( 'NONE', *, *, #666, .F. ) ;
#679 = EDGE_CURVE ( 'NONE', #521, #415, #575, .T. ) ;
#680 = CARTESIAN_POINT ( 'NONE',  ( 26.58578643762693261, -587.9128036531323005, -9.499999999999969802 ) ) ;
#681 = VERTEX_POINT ( 'NONE', #267 ) ;
#682 = PLANE ( 'NONE',  #115 ) ;
#683 = ORIENTED_EDGE ( 'NONE', *, *, #635, .F. ) ;
#684 = AXIS2_PLACEMENT_3D ( 'NONE', #157, #574, #395 ) ;
#685 = ADVANCED_FACE ( 'NONE', ( #331 ), #96, .F. ) ;
#686 = AXIS2_PLACEMENT_3D ( 'NONE', #578, #523, #283 ) ;
#687 = SURFACE_STYLE_FILL_AREA ( #731 ) ;
#688 = VERTEX_POINT ( 'NONE', #445 ) ;
#689 = CARTESIAN_POINT ( 'NONE',  ( -25.99999999999997158, 618.0000000000000000, -12.49999999999999467 ) ) ;
#690 = CARTESIAN_POINT ( 'NONE',  ( 30.00000000000000355, -587.6925623952961359, -8.775659937294477189E-15 ) ) ;
#691 = CARTESIAN_POINT ( 'NONE',  ( 30.00000000000000711, -586.0974341003117161, 5.784078640763795853 ) ) ;
#692 = ORIENTED_EDGE ( 'NONE', *, *, #269, .F. ) ;
#693 =( BOUNDED_CURVE ( )  B_SPLINE_CURVE ( 3, ( #548, #540, #695, #181 ),
 .UNSPECIFIED., .F., .T. ) 
 B_SPLINE_CURVE_WITH_KNOTS ( ( 4, 4 ),
 ( 4.712388980384619508, 6.283185307179586232 ),
 .UNSPECIFIED. ) 
 CURVE ( )  GEOMETRIC_REPRESENTATION_ITEM ( )  RATIONAL_B_SPLINE_CURVE ( ( 1.000000000000000000, 0.8047378541243483951, 0.8047378541243483951, 1.000000000000000000 ) ) 
 REPRESENTATION_ITEM ( '' )  );
#694 = EDGE_CURVE ( 'NONE', #97, #183, #192, .T. ) ;
#695 = CARTESIAN_POINT ( 'NONE',  ( -26.99999999999999289, -616.4048717050158075, -9.085786437626934386 ) ) ;
#696 = CARTESIAN_POINT ( 'NONE',  ( 27.00000000000000000, -587.6925623952961359, 8.499999999999976907 ) ) ;
#697 = ORIENTED_EDGE ( 'NONE', *, *, #730, .F. ) ;
#698 = DIRECTION ( 'NONE',  ( -0.000000000000000000, -1.000000000000000000, -0.000000000000000000 ) ) ;
#699 = CARTESIAN_POINT ( 'NONE',  ( 28.01523682838996621, -587.1527513982712208, 5.999999999999992895 ) ) ;
#700 = ORIENTED_EDGE ( 'NONE', *, *, #176, .F. ) ;
#701 = DIRECTION ( 'NONE',  ( 2.040851148208015394E-16, 0.000000000000000000, 1.000000000000000000 ) ) ;
#702 = FILL_AREA_STYLE ('',( #179 ) ) ;
#703 = PLANE ( 'NONE',  #236 ) ;
#704 = CYLINDRICAL_SURFACE ( 'NONE', #444, 1.000000000000000000 ) ;
#705 = ORIENTED_EDGE ( 'NONE', *, *, #2, .F. ) ;
#706 = DIRECTION ( 'NONE',  ( -2.040851148208012436E-16, 3.838282766267309104E-16, -1.000000000000000000 ) ) ;
#707 = EDGE_CURVE ( 'NONE', #221, #268, #155, .T. ) ;
#708 = AXIS2_PLACEMENT_3D ( 'NONE', #450, #389, #166 ) ;
#709 = CARTESIAN_POINT ( 'NONE',  ( 27.00000000000000000, 510.7985914752576377, -8.499999999999989342 ) ) ;
#710 = VECTOR ( 'NONE', #40, 1000.000000000000000 ) ;
#711 = CARTESIAN_POINT ( 'NONE',  ( -30.00000000000000000, 618.0000000000000000, -8.499999999999966249 ) ) ;
#712 = LINE ( 'NONE', #709, #248 ) ;
#713 = CARTESIAN_POINT ( 'NONE',  ( 27.00000000000000000, 510.7985914752576377, -8.499999999999989342 ) ) ;
#714 = ORIENTED_EDGE ( 'NONE', *, *, #335, .T. ) ;
#715 = CARTESIAN_POINT ( 'NONE',  ( -25.99999999999996803, 618.0000000000000000, 9.500000000000005329 ) ) ;
#716 = CARTESIAN_POINT ( 'NONE',  ( -27.00000000000000000, 612.3578206039609313, -8.499999999999966249 ) ) ;
#717 = ORIENTED_EDGE ( 'NONE', *, *, #2, .T. ) ;
#718 = ADVANCED_FACE ( 'NONE', ( #616 ), #613, .T. ) ;
#719 = DIRECTION ( 'NONE',  ( -1.000000000000000000, 0.000000000000000000, 0.000000000000000000 ) ) ;
#720 = PRESENTATION_LAYER_ASSIGNMENT (  '', '', ( #628 ) ) ;
#721 = PRESENTATION_LAYER_ASSIGNMENT (  '', '', ( #52 ) ) ;
#722 = ADVANCED_FACE ( 'NONE', ( #143 ), #271, .F. ) ;
#723 = CARTESIAN_POINT ( 'NONE',  ( 30.00000000000000000, -586.0974341003117161, -5.784078640763816281 ) ) ;
#724 = LINE ( 'NONE', #609, #380 ) ;
#725 = ORIENTED_EDGE ( 'NONE', *, *, #635, .T. ) ;
#726 = CYLINDRICAL_SURFACE ( 'NONE', #400, 0.9999999999999974465 ) ;
#727 = CARTESIAN_POINT ( 'NONE',  ( -25.99999999999996803, -615.8731622733541826, -12.49999999999999467 ) ) ;
#728 = ORIENTED_EDGE ( 'NONE', *, *, #605, .F. ) ;
#729 = CARTESIAN_POINT ( 'NONE',  ( -25.99999999999996803, -615.8731622733541826, 9.500000000000005329 ) ) ;
#730 = EDGE_CURVE ( 'NONE', #207, #486, #512, .T. ) ;
#731 = FILL_AREA_STYLE ('',( #572 ) ) ;
#732 = ORIENTED_EDGE ( 'NONE', *, *, #487, .T. ) ;
#733 = AXIS2_PLACEMENT_3D ( 'NONE', #100, #328, #667 ) ;
#734 = DIRECTION ( 'NONE',  ( -0.8829475928589295419, -0.4694715627858859208, 0.000000000000000000 ) ) ;
#735 = EDGE_CURVE ( 'NONE', #524, #453, #281, .T. ) ;
#736 = VERTEX_POINT ( 'NONE', #467 ) ;
#737 = FACE_OUTER_BOUND ( 'NONE', #491, .T. ) ;
#738 =( BOUNDED_CURVE ( )  B_SPLINE_CURVE ( 3, ( #133, #92, #606, #78 ),
 .UNSPECIFIED., .F., .F. ) 
 B_SPLINE_CURVE_WITH_KNOTS ( ( 4, 4 ),
 ( 0.7192643740745748859, 1.570796326794897668 ),
 .UNSPECIFIED. ) 
 CURVE ( )  GEOMETRIC_REPRESENTATION_ITEM ( )  RATIONAL_B_SPLINE_CURVE ( ( 1.000000000000000000, 0.9404817585007247960, 0.9404817585007247960, 1.000000000000000000 ) ) 
 REPRESENTATION_ITEM ( '' )  );
ENDSEC;
END-ISO-10303-21;
