ISO-10303-21;
HEADER;
FILE_DESCRIPTION (( 'STEP AP214' ),
    '1' );
FILE_NAME ('XH-YJ38-LJ-002-A0-底盘方通-左.STEP',
    '2026-06-04T09:57:56',
    ( 'Microsoft' ),
    ( 'Microsoft' ),
    'SwSTEP 2.0',
    'SolidWorks 2020',
    '' );
FILE_SCHEMA (( 'AUTOMOTIVE_DESIGN' ));
ENDSEC;

DATA;
#1 = DIRECTION ( 'NONE',  ( 1.000000000000000000, 0.000000000000000000, 0.000000000000000000 ) ) ;
#2 = DIRECTION ( 'NONE',  ( 1.000000000000000000, 0.000000000000000000, 0.000000000000000000 ) ) ;
#3 = LINE ( 'NONE', #839, #954 ) ;
#4 = CYLINDRICAL_SURFACE ( 'NONE', #1027, 2.750000000000030198 ) ;
#5 = APPLICATION_CONTEXT ( 'automotive_design' ) ;
#6 = VERTEX_POINT ( 'NONE', #903 ) ;
#7 = ADVANCED_FACE ( 'NONE', ( #153 ), #356, .T. ) ;
#8 = LINE ( 'NONE', #326, #427 ) ;
#9 = DIRECTION ( 'NONE',  ( 0.000000000000000000, 0.000000000000000000, -1.000000000000000000 ) ) ;
#10 = CARTESIAN_POINT ( 'NONE',  ( 1576.047306793000189, -1347.000000000000000, 152.9638762099999951 ) ) ;
#11 = VERTEX_POINT ( 'NONE', #1090 ) ;
#12 = DIRECTION ( 'NONE',  ( 0.000000000000000000, 1.000000000000000000, 0.000000000000000000 ) ) ;
#13 = AXIS2_PLACEMENT_3D ( 'NONE', #109, #418, #946 ) ;
#14 = VECTOR ( 'NONE', #1238, 1000.000000000000000 ) ;
#15 = EDGE_CURVE ( 'NONE', #743, #917, #276, .T. ) ;
#16 = LINE ( 'NONE', #860, #630 ) ;
#17 = FACE_OUTER_BOUND ( 'NONE', #556, .T. ) ;
#18 = ORIENTED_EDGE ( 'NONE', *, *, #22, .F. ) ;
#19 = ORIENTED_EDGE ( 'NONE', *, *, #1251, .F. ) ;
#20 = DIRECTION ( 'NONE',  ( 0.000000000000000000, 0.000000000000000000, 1.000000000000000000 ) ) ;
#21 = CARTESIAN_POINT ( 'NONE',  ( 1576.047306793000189, -1374.000000000000000, 123.9638762100000093 ) ) ;
#22 = EDGE_CURVE ( 'NONE', #961, #1146, #692, .T. ) ;
#23 = CARTESIAN_POINT ( 'NONE',  ( 1491.047306793000189, -1347.000000000000000, 182.9638762099999951 ) ) ;
#24 = ORIENTED_EDGE ( 'NONE', *, *, #564, .T. ) ;
#25 = ORIENTED_EDGE ( 'NONE', *, *, #754, .F. ) ;
#26 = LINE ( 'NONE', #1261, #1314 ) ;
#27 = CARTESIAN_POINT ( 'NONE',  ( 1598.297306793000189, -1228.500000000000227, 158.9638762099999951 ) ) ;
#28 = PLANE ( 'NONE',  #647 ) ;
#29 = ORIENTED_EDGE ( 'NONE', *, *, #22, .T. ) ;
#30 = ORIENTED_EDGE ( 'NONE', *, *, #530, .T. ) ;
#31 = CARTESIAN_POINT ( 'NONE',  ( 1576.047306793000189, -50.00000000000000000, 124.9638762100000093 ) ) ;
#32 = DIRECTION ( 'NONE',  ( -1.000000000000000000, 0.000000000000000000, 0.000000000000000000 ) ) ;
#33 = AXIS2_PLACEMENT_3D ( 'NONE', #199, #1233, #178 ) ;
#34 = VECTOR ( 'NONE', #136, 1000.000000000000227 ) ;
#35 = CIRCLE ( 'NONE', #913, 6.000000000000005329 ) ;
#36 = CARTESIAN_POINT ( 'NONE',  ( 1619.047303445000125, -555.5000000919999366, 158.0638762100000179 ) ) ;
#37 = AXIS2_PLACEMENT_3D ( 'NONE', #1345, #1264, #207 ) ;
#38 = EDGE_LOOP ( 'NONE', ( #488, #656, #319, #45 ) ) ;
#39 = EDGE_CURVE ( 'NONE', #1070, #950, #494, .T. ) ;
#40 = ORIENTED_EDGE ( 'NONE', *, *, #270, .T. ) ;
#41 = CARTESIAN_POINT ( 'NONE',  ( 1620.047306793000189, -50.00000000000000000, 124.9638762100000093 ) ) ;
#42 = DIRECTION ( 'NONE',  ( -0.000000000000000000, -0.000000000000000000, 1.000000000000000000 ) ) ;
#43 = LINE ( 'NONE', #462, #78 ) ;
#44 = VERTEX_POINT ( 'NONE', #772 ) ;
#45 = ORIENTED_EDGE ( 'NONE', *, *, #270, .F. ) ;
#46 = PLANE ( 'NONE',  #1354 ) ;
#47 = EDGE_CURVE ( 'NONE', #565, #331, #407, .T. ) ;
#48 = PRESENTATION_STYLE_ASSIGNMENT (( #683 ) ) ;
#49 = CARTESIAN_POINT ( 'NONE',  ( 1621.047306792999962, -1224.000000000000000, 123.9638762100000093 ) ) ;
#50 = ORIENTED_EDGE ( 'NONE', *, *, #371, .T. ) ;
#51 = ORIENTED_EDGE ( 'NONE', *, *, #379, .F. ) ;
#52 = FACE_OUTER_BOUND ( 'NONE', #338, .T. ) ;
#53 =( LENGTH_UNIT ( ) NAMED_UNIT ( * ) SI_UNIT ( .MILLI., .METRE. ) );
#54 = EDGE_CURVE ( 'NONE', #510, #204, #845, .T. ) ;
#55 = PRESENTATION_LAYER_ASSIGNMENT (  '', '', ( #731 ) ) ;
#56 = LINE ( 'NONE', #370, #1021 ) ;
#57 = VECTOR ( 'NONE', #426, 1000.000000000000000 ) ;
#58 = CARTESIAN_POINT ( 'NONE',  ( 1601.047306792999962, -1228.500000000000227, 155.9638762099999951 ) ) ;
#59 = AXIS2_PLACEMENT_3D ( 'NONE', #947, #110, #434 ) ;
#60 = VERTEX_POINT ( 'NONE', #679 ) ;
#61 = CARTESIAN_POINT ( 'NONE',  ( 1582.047306793000189, -1347.000000000000000, 118.9638762099999951 ) ) ;
#62 = CARTESIAN_POINT ( 'NONE',  ( 1601.047306792999962, -948.5000000000001137, 153.9638762099999951 ) ) ;
#63 = ORIENTED_EDGE ( 'NONE', *, *, #1253, .F. ) ;
#64 = VERTEX_POINT ( 'NONE', #1095 ) ;
#65 = CARTESIAN_POINT ( 'NONE',  ( 1582.047306793000189, -50.00000000000000000, 118.9638762099999951 ) ) ;
#66 = ORIENTED_EDGE ( 'NONE', *, *, #79, .F. ) ;
#67 = CARTESIAN_POINT ( 'NONE',  ( 1601.047306792999962, -1228.500000000000227, 153.9638762099999951 ) ) ;
#68 = ORIENTED_EDGE ( 'NONE', *, *, #861, .T. ) ;
#69 = ORIENTED_EDGE ( 'NONE', *, *, #54, .F. ) ;
#70 = DIRECTION ( 'NONE',  ( -0.000000000000000000, -0.000000000000000000, 1.000000000000000000 ) ) ;
#71 = ORIENTED_EDGE ( 'NONE', *, *, #1278, .T. ) ;
#72 = LINE ( 'NONE', #710, #385 ) ;
#73 = CARTESIAN_POINT ( 'NONE',  ( 1601.047306792999962, -168.5000000000000853, 155.9638762099999951 ) ) ;
#74 = MECHANICAL_DESIGN_GEOMETRIC_PRESENTATION_REPRESENTATION (  '', ( #731 ), #932 ) ;
#75 = PLANE ( 'NONE',  #1001 ) ;
#76 = COLOUR_RGB ( '',0.4901960784313725283, 0.4901960784313725283, 0.5254901960784313930 ) ;
#77 = ORIENTED_EDGE ( 'NONE', *, *, #722, .T. ) ;
#78 = VECTOR ( 'NONE', #355, 1000.000000000000000 ) ;
#79 = EDGE_CURVE ( 'NONE', #613, #325, #569, .T. ) ;
#80 = VECTOR ( 'NONE', #502, 1000.000000000000000 ) ;
#81 = FACE_OUTER_BOUND ( 'NONE', #436, .T. ) ;
#82 = EDGE_LOOP ( 'NONE', ( #69, #1295 ) ) ;
#83 = DIRECTION ( 'NONE',  ( 0.000000000000000000, 1.000000000000000000, 0.000000000000000000 ) ) ;
#84 = CARTESIAN_POINT ( 'NONE',  ( 1619.047304431700013, -533.0000000000000000, 158.9638762099999951 ) ) ;
#85 = DIRECTION ( 'NONE',  ( 0.000000000000000000, -1.000000000000000000, 0.000000000000000000 ) ) ;
#86 = ORIENTED_EDGE ( 'NONE', *, *, #754, .T. ) ;
#87 = CARTESIAN_POINT ( 'NONE',  ( 1620.047306793000189, -1374.000000000000000, 152.9638762099999951 ) ) ;
#88 = EDGE_CURVE ( 'NONE', #64, #470, #1306, .T. ) ;
#89 = ORIENTED_EDGE ( 'NONE', *, *, #1145, .F. ) ;
#90 = DIRECTION ( 'NONE',  ( 1.000000000000000000, 0.000000000000000000, 0.000000000000000000 ) ) ;
#91 = DIRECTION ( 'NONE',  ( 1.000000000000000000, 0.000000000000000000, 0.000000000000000000 ) ) ;
#92 = ORIENTED_EDGE ( 'NONE', *, *, #963, .T. ) ;
#93 = DIRECTION ( 'NONE',  ( -0.000000000000000000, -0.000000000000000000, 1.000000000000000000 ) ) ;
#94 = ORIENTED_EDGE ( 'NONE', *, *, #263, .T. ) ;
#95 = CARTESIAN_POINT ( 'NONE',  ( 1619.047302798230021, -580.7799999999999727, 158.9638762099999951 ) ) ;
#96 = EDGE_CURVE ( 'NONE', #648, #822, #1000, .T. ) ;
#97 = LINE ( 'NONE', #521, #933 ) ;
#98 = CARTESIAN_POINT ( 'NONE',  ( 1620.047306793000189, -1347.000000000000000, 124.9638762100000093 ) ) ;
#99 = ORIENTED_EDGE ( 'NONE', *, *, #622, .T. ) ;
#100 = UNCERTAINTY_MEASURE_WITH_UNIT (LENGTH_MEASURE( 1.000000000000000082E-05 ), #1351, 'distance_accuracy_value', 'NONE');
#101 = CIRCLE ( 'NONE', #1329, 2.749999999999808153 ) ;
#102 = VECTOR ( 'NONE', #493, 1000.000000000000000 ) ;
#103 = DIRECTION ( 'NONE',  ( -0.000000000000000000, -0.000000000000000000, 1.000000000000000000 ) ) ;
#104 = CARTESIAN_POINT ( 'NONE',  ( 1610.000000000000000, -580.7799999999999727, 155.9638762099999951 ) ) ;
#105 = EDGE_CURVE ( 'NONE', #961, #783, #1196, .T. ) ;
#106 =( NAMED_UNIT ( * ) SI_UNIT ( $, .STERADIAN. ) SOLID_ANGLE_UNIT ( ) );
#107 = CARTESIAN_POINT ( 'NONE',  ( 1610.000000000000000, -533.0000000000000000, 155.9638762099999951 ) ) ;
#108 = ORIENTED_EDGE ( 'NONE', *, *, #1155, .T. ) ;
#109 = CARTESIAN_POINT ( 'NONE',  ( 1601.047306792999962, -948.5000000000001137, 158.9638762099999951 ) ) ;
#110 = DIRECTION ( 'NONE',  ( 0.000000000000000000, 0.000000000000000000, 1.000000000000000000 ) ) ;
#111 = PLANE ( 'NONE',  #582 ) ;
#112 = CARTESIAN_POINT ( 'NONE',  ( 1582.047306793000189, -50.00000000000000000, 121.9638762100000093 ) ) ;
#113 = EDGE_LOOP ( 'NONE', ( #1200, #831 ) ) ;
#114 = EDGE_CURVE ( 'NONE', #159, #497, #372, .T. ) ;
#115 = CARTESIAN_POINT ( 'NONE',  ( 1601.047306792999962, -448.5000000000001137, 158.9638762099999951 ) ) ;
#116 = CARTESIAN_POINT ( 'NONE',  ( 1603.797306792999962, -168.5000000000000853, 155.9638762099999951 ) ) ;
#117 = DIRECTION ( 'NONE',  ( 1.000000000000000000, 0.000000000000000000, 0.000000000000000000 ) ) ;
#118 =( NAMED_UNIT ( * ) SI_UNIT ( $, .STERADIAN. ) SOLID_ANGLE_UNIT ( ) );
#119 = ORIENTED_EDGE ( 'NONE', *, *, #1223, .T. ) ;
#120 = COLOUR_RGB ( '',0.6274509803921568540, 0.6274509803921568540, 0.6431372549019607199 ) ;
#121 = EDGE_CURVE ( 'NONE', #1170, #546, #791, .T. ) ;
#122 = VERTEX_POINT ( 'NONE', #206 ) ;
#123 = DIRECTION ( 'NONE',  ( 0.000000000000000000, 0.000000000000000000, -1.000000000000000000 ) ) ;
#124 = AXIS2_PLACEMENT_3D ( 'NONE', #1231, #404, #390 ) ;
#125 = CARTESIAN_POINT ( 'NONE',  ( 1607.047305942000094, -50.00000000000000000, 158.9638762099999951 ) ) ;
#126 = CARTESIAN_POINT ( 'NONE',  ( 1620.047306793000189, -50.00000000000000000, 152.9638762099999951 ) ) ;
#127 = ORIENTED_EDGE ( 'NONE', *, *, #417, .F. ) ;
#128 = ORIENTED_EDGE ( 'NONE', *, *, #1088, .T. ) ;
#129 = DIRECTION ( 'NONE',  ( 1.000000000000000000, 0.000000000000000000, 0.000000000000000000 ) ) ;
#130 = CARTESIAN_POINT ( 'NONE',  ( 1619.047304435000115, -533.0000000000000000, 155.9638762099999951 ) ) ;
#131 = ADVANCED_FACE ( 'NONE', ( #304 ), #391, .F. ) ;
#132 = DIRECTION ( 'NONE',  ( 0.000000000000000000, 0.000000000000000000, -1.000000000000000000 ) ) ;
#133 =( NAMED_UNIT ( * ) PLANE_ANGLE_UNIT ( ) SI_UNIT ( $, .RADIAN. ) );
#134 = ORIENTED_EDGE ( 'NONE', *, *, #1155, .F. ) ;
#135 = ORIENTED_EDGE ( 'NONE', *, *, #843, .F. ) ;
#136 = DIRECTION ( 'NONE',  ( 2.328133241746789384E-07, 0.000000000000000000, 0.9999999999999727995 ) ) ;
#137 = CARTESIAN_POINT ( 'NONE',  ( 1595.047305942000094, -1347.000000000000000, 121.9638762100000093 ) ) ;
#138 = ADVANCED_FACE ( 'NONE', ( #310, #1249, #1141, #183, #1257, #295 ), #1148, .F. ) ;
#139 = ORIENTED_EDGE ( 'NONE', *, *, #482, .F. ) ;
#140 = EDGE_LOOP ( 'NONE', ( #1225, #1043, #119, #1217 ) ) ;
#141 = DIRECTION ( 'NONE',  ( 0.000000000000000000, -1.000000000000000000, 0.000000000000000000 ) ) ;
#142 = VECTOR ( 'NONE', #271, 1000.000000000000227 ) ;
#143 = DIRECTION ( 'NONE',  ( -0.000000000000000000, -0.000000000000000000, 1.000000000000000000 ) ) ;
#144 = AXIS2_PLACEMENT_3D ( 'NONE', #833, #712, #1135 ) ;
#145 = AXIS2_PLACEMENT_3D ( 'NONE', #98, #734, #1157 ) ;
#146 = AXIS2_PLACEMENT_3D ( 'NONE', #889, #898, #1318 ) ;
#147 = CARTESIAN_POINT ( 'NONE',  ( 1621.047306792999962, -1347.000000000000000, 121.9638762100000093 ) ) ;
#148 = ADVANCED_FACE ( 'NONE', ( #726 ), #704, .F. ) ;
#149 = DIRECTION ( 'NONE',  ( 0.000000000000000000, 1.000000000000000000, 0.000000000000000000 ) ) ;
#150 = VERTEX_POINT ( 'NONE', #420 ) ;
#151 = DIRECTION ( 'NONE',  ( 0.000000000000000000, 0.000000000000000000, 1.000000000000000000 ) ) ;
#152 = LINE ( 'NONE', #684, #1355 ) ;
#153 = FACE_OUTER_BOUND ( 'NONE', #586, .T. ) ;
#154 = ORIENTED_EDGE ( 'NONE', *, *, #1057, .F. ) ;
#155 = EDGE_CURVE ( 'NONE', #1118, #1286, #101, .T. ) ;
#156 = CARTESIAN_POINT ( 'NONE',  ( 1623.047306792999962, -1347.000000000000000, 152.9638762099999951 ) ) ;
#157 = CARTESIAN_POINT ( 'NONE',  ( 1579.047306793000189, -50.00000000000000000, 124.9638762100000093 ) ) ;
#158 = DIRECTION ( 'NONE',  ( 0.000000000000000000, 1.000000000000000000, 0.000000000000000000 ) ) ;
#159 = VERTEX_POINT ( 'NONE', #84 ) ;
#160 = ORIENTED_EDGE ( 'NONE', *, *, #904, .F. ) ;
#161 = LINE ( 'NONE', #566, #1130 ) ;
#162 = EDGE_CURVE ( 'NONE', #204, #510, #165, .T. ) ;
#163 = AXIS2_PLACEMENT_3D ( 'NONE', #197, #804, #388 ) ;
#164 = LINE ( 'NONE', #366, #751 ) ;
#165 = CIRCLE ( 'NONE', #513, 2.749999999999808153 ) ;
#166 = VECTOR ( 'NONE', #834, 1000.000000000000000 ) ;
#167 = ORIENTED_EDGE ( 'NONE', *, *, #583, .F. ) ;
#168 = AXIS2_PLACEMENT_3D ( 'NONE', #816, #1250, #1242 ) ;
#169 = ORIENTED_EDGE ( 'NONE', *, *, #697, .F. ) ;
#170 = FILL_AREA_STYLE_COLOUR ( '', #579 ) ;
#171 = ORIENTED_EDGE ( 'NONE', *, *, #1096, .F. ) ;
#172 = FACE_OUTER_BOUND ( 'NONE', #1281, .T. ) ;
#173 = EDGE_CURVE ( 'NONE', #1127, #809, #97, .T. ) ;
#174 = DIRECTION ( 'NONE',  ( 0.000000000000000000, 1.000000000000000000, 0.000000000000000000 ) ) ;
#175 = ORIENTED_EDGE ( 'NONE', *, *, #1310, .T. ) ;
#176 = CARTESIAN_POINT ( 'NONE',  ( 1601.047305942000094, -50.00000000000000000, 118.9638762099999951 ) ) ;
#177 = ADVANCED_FACE ( 'NONE', ( #625 ), #1241, .T. ) ;
#178 = DIRECTION ( 'NONE',  ( -1.000000000000000000, 0.000000000000000000, 0.000000000000000000 ) ) ;
#179 = ORIENTED_EDGE ( 'NONE', *, *, #1232, .T. ) ;
#180 = LINE ( 'NONE', #1122, #1109 ) ;
#181 = ORIENTED_EDGE ( 'NONE', *, *, #1269, .F. ) ;
#182 = LINE ( 'NONE', #617, #1129 ) ;
#183 = FACE_BOUND ( 'NONE', #550, .T. ) ;
#184 = PLANE ( 'NONE',  #1201 ) ;
#185 = EDGE_CURVE ( 'NONE', #246, #851, #943, .T. ) ;
#186 = CIRCLE ( 'NONE', #454, 2.750000000000030198 ) ;
#187 = EDGE_LOOP ( 'NONE', ( #25, #191 ) ) ;
#188 = VECTOR ( 'NONE', #737, 1000.000000000000000 ) ;
#189 = EDGE_CURVE ( 'NONE', #709, #6, #3, .T. ) ;
#190 = CYLINDRICAL_SURFACE ( 'NONE', #450, 6.000000000000005329 ) ;
#191 = ORIENTED_EDGE ( 'NONE', *, *, #979, .F. ) ;
#192 = DIRECTION ( 'NONE',  ( 0.000000000000000000, 1.000000000000000000, 0.000000000000000000 ) ) ;
#193 =( LENGTH_UNIT ( ) NAMED_UNIT ( * ) SI_UNIT ( .MILLI., .METRE. ) );
#194 = FACE_OUTER_BOUND ( 'NONE', #760, .T. ) ;
#195 = ORIENTED_EDGE ( 'NONE', *, *, #1049, .T. ) ;
#196 = EDGE_CURVE ( 'NONE', #331, #565, #275, .T. ) ;
#197 = CARTESIAN_POINT ( 'NONE',  ( 1582.047306793000189, -1224.000000000000000, 152.9638762099999951 ) ) ;
#198 = CARTESIAN_POINT ( 'NONE',  ( 1623.047306792999962, -50.00000000000000000, 123.9638762100000093 ) ) ;
#199 = CARTESIAN_POINT ( 'NONE',  ( 1611.047306792999962, -1374.000000000000000, 158.9638762099999951 ) ) ;
#200 = FACE_OUTER_BOUND ( 'NONE', #437, .T. ) ;
#201 = VERTEX_POINT ( 'NONE', #324 ) ;
#202 = CARTESIAN_POINT ( 'NONE',  ( 1603.797306792999962, -448.5000000000001137, 155.9638762099999951 ) ) ;
#203 = ADVANCED_FACE ( 'NONE', ( #1274 ), #28, .F. ) ;
#204 = VERTEX_POINT ( 'NONE', #533 ) ;
#205 = SURFACE_STYLE_FILL_AREA ( #511 ) ;
#206 = CARTESIAN_POINT ( 'NONE',  ( 1623.047306792999962, -1347.000000000000000, 152.9638762099999951 ) ) ;
#207 = DIRECTION ( 'NONE',  ( -1.000000000000000000, 0.000000000000000000, 0.000000000000000000 ) ) ;
#208 = VECTOR ( 'NONE', #480, 1000.000000000000000 ) ;
#209 = ORIENTED_EDGE ( 'NONE', *, *, #79, .T. ) ;
#210 = VECTOR ( 'NONE', #698, 1000.000000000000000 ) ;
#211 = AXIS2_PLACEMENT_3D ( 'NONE', #605, #217, #1142 ) ;
#212 = AXIS2_PLACEMENT_3D ( 'NONE', #67, #1006, #997 ) ;
#213 = VECTOR ( 'NONE', #567, 1000.000000000000000 ) ;
#214 = CIRCLE ( 'NONE', #168, 2.749999999999808153 ) ;
#215 = DIRECTION ( 'NONE',  ( 0.000000000000000000, 0.000000000000000000, -1.000000000000000000 ) ) ;
#216 = FILL_AREA_STYLE_COLOUR ( '', #339 ) ;
#217 = DIRECTION ( 'NONE',  ( 0.000000000000000000, 0.000000000000000000, -1.000000000000000000 ) ) ;
#218 = VERTEX_POINT ( 'NONE', #1279 ) ;
#219 = DIRECTION ( 'NONE',  ( 0.000000000000000000, -1.000000000000000000, 0.000000000000000000 ) ) ;
#220 = EDGE_CURVE ( 'NONE', #246, #64, #747, .T. ) ;
#221 = ORIENTED_EDGE ( 'NONE', *, *, #529, .F. ) ;
#222 = DIRECTION ( 'NONE',  ( 0.000000000000000000, 0.000000000000000000, 1.000000000000000000 ) ) ;
#223 = DIRECTION ( 'NONE',  ( -0.000000000000000000, -0.000000000000000000, 1.000000000000000000 ) ) ;
#224 = LINE ( 'NONE', #654, #560 ) ;
#225 = ORIENTED_EDGE ( 'NONE', *, *, #1260, .T. ) ;
#226 = VECTOR ( 'NONE', #876, 1000.000000000000000 ) ;
#227 = ORIENTED_EDGE ( 'NONE', *, *, #244, .T. ) ;
#228 = ADVANCED_FACE ( 'NONE', ( #17 ), #639, .F. ) ;
#229 = DIRECTION ( 'NONE',  ( 0.000000000000000000, 0.000000000000000000, 1.000000000000000000 ) ) ;
#230 = VECTOR ( 'NONE', #103, 1000.000000000000000 ) ;
#231 = AXIS2_PLACEMENT_3D ( 'NONE', #487, #83, #501 ) ;
#232 = CARTESIAN_POINT ( 'NONE',  ( 1582.047305090999998, -50.00000000000000000, 158.9638762099999951 ) ) ;
#233 = FILL_AREA_STYLE ('',( #216 ) ) ;
#234 = VERTEX_POINT ( 'NONE', #848 ) ;
#235 = VERTEX_POINT ( 'NONE', #440 ) ;
#236 = FACE_OUTER_BOUND ( 'NONE', #312, .T. ) ;
#237 = ADVANCED_FACE ( 'NONE', ( #446 ), #1074, .T. ) ;
#238 = CYLINDRICAL_SURFACE ( 'NONE', #456, 2.750000000000030198 ) ;
#239 =( NAMED_UNIT ( * ) PLANE_ANGLE_UNIT ( ) SI_UNIT ( $, .RADIAN. ) );
#240 = ORIENTED_EDGE ( 'NONE', *, *, #951, .F. ) ;
#241 = ORIENTED_EDGE ( 'NONE', *, *, #854, .T. ) ;
#242 = LINE ( 'NONE', #776, #253 ) ;
#243 = DIRECTION ( 'NONE',  ( 1.000000000000000000, 0.000000000000000000, 0.000000000000000000 ) ) ;
#244 = EDGE_CURVE ( 'NONE', #1118, #1315, #224, .T. ) ;
#245 = DIRECTION ( 'NONE',  ( 0.000000000000000000, 1.000000000000000000, 0.000000000000000000 ) ) ;
#246 = VERTEX_POINT ( 'NONE', #977 ) ;
#247 = ORIENTED_EDGE ( 'NONE', *, *, #548, .F. ) ;
#248 = CARTESIAN_POINT ( 'NONE',  ( 1620.047306793000189, -1347.000000000000000, 158.9638762099999951 ) ) ;
#249 = AXIS2_PLACEMENT_3D ( 'NONE', #899, #377, #993 ) ;
#250 = AXIS2_PLACEMENT_3D ( 'NONE', #810, #796, #1224 ) ;
#251 = DIRECTION ( 'NONE',  ( 0.000000000000000000, 1.000000000000000000, 0.000000000000000000 ) ) ;
#252 = CIRCLE ( 'NONE', #602, 6.000000000000005329 ) ;
#253 = VECTOR ( 'NONE', #1202, 1000.000000000000000 ) ;
#254 = VECTOR ( 'NONE', #251, 1000.000000000000000 ) ;
#255 = CARTESIAN_POINT ( 'NONE',  ( 1601.047306792999962, -168.5000000000000853, 158.9638762099999951 ) ) ;
#256 = CIRCLE ( 'NONE', #37, 6.000000000000005329 ) ;
#257 = DIRECTION ( 'NONE',  ( -1.000000000000000000, 0.000000000000000000, 0.000000000000000000 ) ) ;
#258 = ORIENTED_EDGE ( 'NONE', *, *, #1115, .F. ) ;
#259 = CYLINDRICAL_SURFACE ( 'NONE', #893, 6.000000000000005329 ) ;
#260 = FILL_AREA_STYLE_COLOUR ( '', #120 ) ;
#261 = DIRECTION ( 'NONE',  ( 0.000000000000000000, 0.000000000000000000, 1.000000000000000000 ) ) ;
#262 = CARTESIAN_POINT ( 'NONE',  ( 1582.047306136999850, -50.00000000000000000, 155.9638762099999951 ) ) ;
#263 = EDGE_CURVE ( 'NONE', #1146, #806, #872, .T. ) ;
#264 = VERTEX_POINT ( 'NONE', #316 ) ;
#265 = DIRECTION ( 'NONE',  ( -1.000000000000000000, 0.000000000000000000, 0.000000000000000000 ) ) ;
#266 = SURFACE_STYLE_FILL_AREA ( #574 ) ;
#267 = FACE_OUTER_BOUND ( 'NONE', #669, .T. ) ;
#268 = CARTESIAN_POINT ( 'NONE',  ( 1619.047304435000115, -533.0000000000000000, 158.9638762099999951 ) ) ;
#269 = ORIENTED_EDGE ( 'NONE', *, *, #1115, .T. ) ;
#270 = EDGE_CURVE ( 'NONE', #510, #1338, #1156, .T. ) ;
#271 = DIRECTION ( 'NONE',  ( -4.394893825173960021E-08, -0.9999999999999990008, 0.000000000000000000 ) ) ;
#272 = CIRCLE ( 'NONE', #1128, 2.750000000000030198 ) ;
#273 = ORIENTED_EDGE ( 'NONE', *, *, #564, .F. ) ;
#274 = CARTESIAN_POINT ( 'NONE',  ( 1582.047306793000189, -50.00000000000000000, 121.9638762100000093 ) ) ;
#275 = CIRCLE ( 'NONE', #359, 2.750000000000030198 ) ;
#276 = LINE ( 'NONE', #576, #1219 ) ;
#277 = AXIS2_PLACEMENT_3D ( 'NONE', #1060, #532, #547 ) ;
#278 = EDGE_LOOP ( 'NONE', ( #1287, #1328, #661, #195 ) ) ;
#279 = DIRECTION ( 'NONE',  ( 1.000000000000000000, 0.000000000000000000, 0.000000000000000000 ) ) ;
#280 = ADVANCED_FACE ( 'NONE', ( #1162 ), #111, .F. ) ;
#281 = ORIENTED_EDGE ( 'NONE', *, *, #681, .T. ) ;
#282 = CARTESIAN_POINT ( 'NONE',  ( 1582.047304240000130, -50.00000000000000000, 158.9638762099990004 ) ) ;
#283 = DIRECTION ( 'NONE',  ( -1.000000000000000000, 0.000000000000000000, 0.000000000000000000 ) ) ;
#284 = EDGE_LOOP ( 'NONE', ( #636, #29, #484, #66, #160, #258, #77, #1137 ) ) ;
#285 = DIRECTION ( 'NONE',  ( 0.000000000000000000, 0.000000000000000000, -1.000000000000000000 ) ) ;
#286 = EDGE_LOOP ( 'NONE', ( #167, #281, #1080, #545 ) ) ;
#287 = DIRECTION ( 'NONE',  ( 0.000000000000000000, 1.000000000000000000, 0.000000000000000000 ) ) ;
#288 = EDGE_CURVE ( 'NONE', #1097, #449, #735, .T. ) ;
#289 = FILL_AREA_STYLE ('',( #915 ) ) ;
#290 = CARTESIAN_POINT ( 'NONE',  ( 1601.047306792999962, -448.5000000000001137, 153.9638762099999951 ) ) ;
#291 = ORIENTED_EDGE ( 'NONE', *, *, #196, .F. ) ;
#292 = DIRECTION ( 'NONE',  ( 0.000000000000000000, 0.000000000000000000, -1.000000000000000000 ) ) ;
#293 = ORIENTED_EDGE ( 'NONE', *, *, #47, .T. ) ;
#294 = CIRCLE ( 'NONE', #250, 6.000000000000005329 ) ;
#295 = FACE_OUTER_BOUND ( 'NONE', #1211, .T. ) ;
#296 = VECTOR ( 'NONE', #353, 1000.000000000000000 ) ;
#297 = CARTESIAN_POINT ( 'NONE',  ( 1610.000000000000000, -580.7799999999999727, 158.9638762099999951 ) ) ;
#298 = VECTOR ( 'NONE', #902, 1000.000000000000000 ) ;
#299 = EDGE_CURVE ( 'NONE', #667, #1139, #35, .T. ) ;
#300 = EDGE_LOOP ( 'NONE', ( #51, #346, #593, #134, #968, #415, #1185, #92 ) ) ;
#301 = CIRCLE ( 'NONE', #59, 6.000000000000005329 ) ;
#302 = CARTESIAN_POINT ( 'NONE',  ( 1576.047306793000189, -1347.000000000000000, 124.9638762100000093 ) ) ;
#303 = ORIENTED_EDGE ( 'NONE', *, *, #805, .T. ) ;
#304 = FACE_OUTER_BOUND ( 'NONE', #914, .T. ) ;
#305 = EDGE_LOOP ( 'NONE', ( #518, #1058, #787, #601 ) ) ;
#306 = UNCERTAINTY_MEASURE_WITH_UNIT (LENGTH_MEASURE( 1.000000000000000082E-05 ), #1040, 'distance_accuracy_value', 'NONE');
#307 = CARTESIAN_POINT ( 'NONE',  ( 1621.047307068000009, -1347.000000000000000, 121.9638762100000093 ) ) ;
#308 = ORIENTED_EDGE ( 'NONE', *, *, #1161, .T. ) ;
#309 = SURFACE_SIDE_STYLE ('',( #205 ) ) ;
#310 = FACE_BOUND ( 'NONE', #113, .T. ) ;
#311 = DIRECTION ( 'NONE',  ( -0.000000000000000000, -0.000000000000000000, 1.000000000000000000 ) ) ;
#312 = EDGE_LOOP ( 'NONE', ( #1227, #1215, #1316, #919 ) ) ;
#313 = FILL_AREA_STYLE ('',( #170 ) ) ;
#314 = ADVANCED_FACE ( 'NONE', ( #267 ), #691, .T. ) ;
#315 = DIRECTION ( 'NONE',  ( -0.000000000000000000, -0.000000000000000000, 1.000000000000000000 ) ) ;
#316 = CARTESIAN_POINT ( 'NONE',  ( 1598.297306793000189, -948.5000000000001137, 158.9638762099999951 ) ) ;
#317 = LINE ( 'NONE', #1361, #80 ) ;
#318 = STYLED_ITEM ( 'NONE', ( #1053 ), #971 ) ;
#319 = ORIENTED_EDGE ( 'NONE', *, *, #1007, .T. ) ;
#320 = VECTOR ( 'NONE', #720, 1000.000000000000000 ) ;
#321 = AXIS2_PLACEMENT_3D ( 'NONE', #786, #1100, #467 ) ;
#322 = LINE ( 'NONE', #327, #1199 ) ;
#323 = EDGE_CURVE ( 'NONE', #1300, #44, #152, .T. ) ;
#324 = CARTESIAN_POINT ( 'NONE',  ( 1607.047305942000094, -50.00000000000000000, 121.9638762100000093 ) ) ;
#325 = VERTEX_POINT ( 'NONE', #674 ) ;
#326 = CARTESIAN_POINT ( 'NONE',  ( 1582.047306793000189, -50.00000000000000000, 118.9638762099999951 ) ) ;
#327 = CARTESIAN_POINT ( 'NONE',  ( 1607.047305942000094, -1347.000000000000000, 118.9638762099999951 ) ) ;
#328 = EDGE_CURVE ( 'NONE', #201, #967, #1216, .T. ) ;
#329 = DIRECTION ( 'NONE',  ( -0.000000000000000000, -0.000000000000000000, 1.000000000000000000 ) ) ;
#330 = EDGE_CURVE ( 'NONE', #1064, #449, #164, .T. ) ;
#331 = VERTEX_POINT ( 'NONE', #1323 ) ;
#332 = ADVANCED_BREP_SHAPE_REPRESENTATION ( 'XH-YJ38-LJ-002-A0-底盘方通-左', ( #448, #1239 ), #433 ) ;
#333 = ORIENTED_EDGE ( 'NONE', *, *, #687, .F. ) ;
#334 = LINE ( 'NONE', #969, #819 ) ;
#335 = CARTESIAN_POINT ( 'NONE',  ( 1582.047306793000189, -1224.000000000000000, 124.9638762100000093 ) ) ;
#336 = ORIENTED_EDGE ( 'NONE', *, *, #703, .T. ) ;
#337 = ADVANCED_FACE ( 'NONE', ( #1305 ), #1084, .F. ) ;
#338 = EDGE_LOOP ( 'NONE', ( #68, #537, #701, #490 ) ) ;
#339 = COLOUR_RGB ( '',0.6274509803921568540, 0.6274509803921568540, 0.6431372549019607199 ) ;
#340 = CARTESIAN_POINT ( 'NONE',  ( 1619.047302332560093, -580.7799999999999727, 155.9638762099999951 ) ) ;
#341 = CIRCLE ( 'NONE', #231, 3.000000000000002665 ) ;
#342 = DIRECTION ( 'NONE',  ( 0.000000000000000000, 1.000000000000000000, 0.000000000000000000 ) ) ;
#343 = AXIS2_PLACEMENT_3D ( 'NONE', #853, #543, #1173 ) ;
#344 = DIRECTION ( 'NONE',  ( 0.000000000000000000, 0.000000000000000000, 1.000000000000000000 ) ) ;
#345 = FILL_AREA_STYLE_COLOUR ( '', #983 ) ;
#346 = ORIENTED_EDGE ( 'NONE', *, *, #529, .T. ) ;
#347 = ORIENTED_EDGE ( 'NONE', *, *, #1240, .F. ) ;
#348 = CARTESIAN_POINT ( 'NONE',  ( 1604.971767865999936, -533.0000000000000000, 151.9638762099999951 ) ) ;
#349 = FACE_OUTER_BOUND ( 'NONE', #284, .T. ) ;
#350 = DIRECTION ( 'NONE',  ( 1.000000000000000000, 0.000000000000000000, 0.000000000000000000 ) ) ;
#351 = ORIENTED_EDGE ( 'NONE', *, *, #963, .F. ) ;
#352 = ORIENTED_EDGE ( 'NONE', *, *, #1253, .T. ) ;
#353 = DIRECTION ( 'NONE',  ( 1.000000000000000000, 0.000000000000000000, 0.000000000000000000 ) ) ;
#354 = FACE_BOUND ( 'NONE', #1280, .T. ) ;
#355 = DIRECTION ( 'NONE',  ( 0.000000000000000000, 0.000000000000000000, -1.000000000000000000 ) ) ;
#356 = PLANE ( 'NONE',  #1266 ) ;
#357 = ORIENTED_EDGE ( 'NONE', *, *, #989, .F. ) ;
#358 = DIRECTION ( 'NONE',  ( 1.000000000000000000, 0.000000000000000000, 0.000000000000000000 ) ) ;
#359 = AXIS2_PLACEMENT_3D ( 'NONE', #73, #132, #1291 ) ;
#360 = AXIS2_PLACEMENT_3D ( 'NONE', #1254, #1131, #279 ) ;
#361 = CARTESIAN_POINT ( 'NONE',  ( 1579.047306793000189, -1347.000000000000000, 152.9638762099999951 ) ) ;
#362 = PRODUCT_DEFINITION_SHAPE ( 'NONE', 'NONE',  #812 ) ;
#363 = VECTOR ( 'NONE', #287, 1000.000000000000000 ) ;
#364 = AXIS2_PLACEMENT_3D ( 'NONE', #335, #219, #215 ) ;
#365 = EDGE_CURVE ( 'NONE', #508, #1133, #56, .T. ) ;
#366 = CARTESIAN_POINT ( 'NONE',  ( 1620.047306793000189, -1347.000000000000000, 158.9638762099999951 ) ) ;
#367 = CARTESIAN_POINT ( 'NONE',  ( 1601.047305942000094, -50.00000000000000000, 155.9638762099999951 ) ) ;
#368 = ORIENTED_EDGE ( 'NONE', *, *, #904, .T. ) ;
#369 = CARTESIAN_POINT ( 'NONE',  ( 1582.047306793000189, -50.00000000000000000, 118.9638762099999951 ) ) ;
#370 = CARTESIAN_POINT ( 'NONE',  ( 1623.047306792999962, -50.00000000000000000, 123.9638762100000093 ) ) ;
#371 = EDGE_CURVE ( 'NONE', #597, #1033, #186, .T. ) ;
#372 = LINE ( 'NONE', #268, #624 ) ;
#373 = ADVANCED_FACE ( 'NONE', ( #678 ), #568, .T. ) ;
#374 = ORIENTED_EDGE ( 'NONE', *, *, #665, .F. ) ;
#375 = CARTESIAN_POINT ( 'NONE',  ( 1579.047306793000189, -1347.000000000000000, 124.9638762100000093 ) ) ;
#376 = DIRECTION ( 'NONE',  ( 1.000000000000000000, 0.000000000000000000, 0.000000000000000000 ) ) ;
#377 = DIRECTION ( 'NONE',  ( 0.000000000000000000, -1.000000000000000000, 0.000000000000000000 ) ) ;
#378 = ORIENTED_EDGE ( 'NONE', *, *, #815, .F. ) ;
#379 = EDGE_CURVE ( 'NONE', #234, #201, #936, .T. ) ;
#380 = CARTESIAN_POINT ( 'NONE',  ( 1619.047304430109989, -533.0000000000000000, 158.9638762099999951 ) ) ;
#381 = EDGE_LOOP ( 'NONE', ( #387, #291 ) ) ;
#382 = DIRECTION ( 'NONE',  ( -3.700743415417185102E-14, 0.000000000000000000, -1.000000000000000000 ) ) ;
#383 = AXIS2_PLACEMENT_3D ( 'NONE', #58, #1198, #257 ) ;
#384 = CIRCLE ( 'NONE', #911, 6.000000000000005329 ) ;
#385 = VECTOR ( 'NONE', #1343, 1000.000000000000000 ) ;
#386 = DIRECTION ( 'NONE',  ( 0.000000000000000000, 0.000000000000000000, 1.000000000000000000 ) ) ;
#387 = ORIENTED_EDGE ( 'NONE', *, *, #47, .F. ) ;
#388 = DIRECTION ( 'NONE',  ( 0.000000000000000000, 0.000000000000000000, -1.000000000000000000 ) ) ;
#389 = ORIENTED_EDGE ( 'NONE', *, *, #263, .F. ) ;
#390 = DIRECTION ( 'NONE',  ( 0.000000000000000000, 0.000000000000000000, -1.000000000000000000 ) ) ;
#391 = CYLINDRICAL_SURFACE ( 'NONE', #473, 3.000000000000002665 ) ;
#392 = CARTESIAN_POINT ( 'NONE',  ( 1603.797306792999734, -1228.500000000000227, 158.9638762099999951 ) ) ;
#393 = ORIENTED_EDGE ( 'NONE', *, *, #1240, .T. ) ;
#394 = LINE ( 'NONE', #615, #1289 ) ;
#395 = PRODUCT ( 'XH-YJ38-LJ-002-A0-底盘方通-左', 'XH-YJ38-LJ-002-A0-底盘方通-左', '', ( #868 ) ) ;
#396 = VERTEX_POINT ( 'NONE', #790 ) ;
#397 = FACE_OUTER_BOUND ( 'NONE', #1150, .T. ) ;
#398 = EDGE_CURVE ( 'NONE', #1255, #591, #1012, .T. ) ;
#399 = DIRECTION ( 'NONE',  ( 0.000000000000000000, -1.000000000000000000, 0.000000000000000000 ) ) ;
#400 = LINE ( 'NONE', #1149, #539 ) ;
#401 = ORIENTED_EDGE ( 'NONE', *, *, #1063, .T. ) ;
#402 = FACE_OUTER_BOUND ( 'NONE', #1181, .T. ) ;
#403 = ORIENTED_EDGE ( 'NONE', *, *, #861, .F. ) ;
#404 = DIRECTION ( 'NONE',  ( 0.000000000000000000, -1.000000000000000000, 0.000000000000000000 ) ) ;
#405 = MECHANICAL_DESIGN_GEOMETRIC_PRESENTATION_REPRESENTATION (  '', ( #318 ), #646 ) ;
#406 = ADVANCED_FACE ( 'NONE', ( #172 ), #877, .F. ) ;
#407 = CIRCLE ( 'NONE', #535, 2.750000000000030198 ) ;
#408 = CIRCLE ( 'NONE', #517, 6.000000000000005329 ) ;
#409 = EDGE_LOOP ( 'NONE', ( #706, #945, #401, #1325 ) ) ;
#410 = VECTOR ( 'NONE', #342, 1000.000000000000000 ) ;
#411 = LINE ( 'NONE', #931, #1218 ) ;
#412 = ORIENTED_EDGE ( 'NONE', *, *, #489, .T. ) ;
#413 = CARTESIAN_POINT ( 'NONE',  ( 1620.047306793000189, -50.00000000000000000, 155.9638762099999951 ) ) ;
#414 = CARTESIAN_POINT ( 'NONE',  ( 1598.297306793000189, -948.5000000000001137, 155.9638762099999951 ) ) ;
#415 = ORIENTED_EDGE ( 'NONE', *, *, #1065, .F. ) ;
#416 = PRODUCT_DEFINITION_CONTEXT ( 'detailed design', #5, 'design' ) ;
#417 = EDGE_CURVE ( 'NONE', #551, #60, #780, .T. ) ;
#418 = DIRECTION ( 'NONE',  ( 0.000000000000000000, 0.000000000000000000, 1.000000000000000000 ) ) ;
#419 = DIRECTION ( 'NONE',  ( 0.000000000000000000, 1.000000000000000000, 0.000000000000000000 ) ) ;
#420 = CARTESIAN_POINT ( 'NONE',  ( 1595.047305942000094, -50.00000000000000000, 118.9638762099999951 ) ) ;
#421 = CARTESIAN_POINT ( 'NONE',  ( 1598.297306793000189, -1228.500000000000227, 153.9638762099999951 ) ) ;
#422 = ORIENTED_EDGE ( 'NONE', *, *, #555, .T. ) ;
#423 = ADVANCED_FACE ( 'NONE', ( #992 ), #1189, .F. ) ;
#424 = DIRECTION ( 'NONE',  ( 1.000000000000000000, 0.000000000000000000, 0.000000000000000000 ) ) ;
#425 = CARTESIAN_POINT ( 'NONE',  ( 1620.047306793000189, -1347.000000000000000, 152.9638762099999951 ) ) ;
#426 = DIRECTION ( 'NONE',  ( 0.000000000000000000, 1.000000000000000000, 0.000000000000000000 ) ) ;
#427 = VECTOR ( 'NONE', #424, 1000.000000000000000 ) ;
#428 = ORIENTED_EDGE ( 'NONE', *, *, #1303, .T. ) ;
#429 = VECTOR ( 'NONE', #939, 1000.000000000000000 ) ;
#430 = VECTOR ( 'NONE', #315, 1000.000000000000000 ) ;
#431 = PLANE ( 'NONE',  #1067 ) ;
#432 = EDGE_CURVE ( 'NONE', #246, #1307, #775, .T. ) ;
#433 =( GEOMETRIC_REPRESENTATION_CONTEXT ( 3 ) GLOBAL_UNCERTAINTY_ASSIGNED_CONTEXT ( ( #100 ) ) GLOBAL_UNIT_ASSIGNED_CONTEXT ( ( #1351, #966, #118 ) ) REPRESENTATION_CONTEXT ( 'NONE', 'WORKASPACE' ) );
#434 = DIRECTION ( 'NONE',  ( 1.000000000000000000, 0.000000000000000000, 0.000000000000000000 ) ) ;
#435 = CARTESIAN_POINT ( 'NONE',  ( 1601.047306792999962, -168.5000000000000853, 153.9638762099999951 ) ) ;
#436 = EDGE_LOOP ( 'NONE', ( #443, #175, #458, #422 ) ) ;
#437 = EDGE_LOOP ( 'NONE', ( #798, #1348, #1220, #1252 ) ) ;
#438 = FACE_OUTER_BOUND ( 'NONE', #286, .T. ) ;
#439 = EDGE_CURVE ( 'NONE', #714, #809, #895, .T. ) ;
#440 = CARTESIAN_POINT ( 'NONE',  ( 1579.047306793000189, -50.00000000000000000, 124.9638762100000093 ) ) ;
#441 = SURFACE_STYLE_FILL_AREA ( #1079 ) ;
#442 = ORIENTED_EDGE ( 'NONE', *, *, #729, .F. ) ;
#443 = ORIENTED_EDGE ( 'NONE', *, *, #1232, .F. ) ;
#444 = CARTESIAN_POINT ( 'NONE',  ( 1598.297306792999962, -168.5000000000000853, 158.9638762099999951 ) ) ;
#445 = CARTESIAN_POINT ( 'NONE',  ( 1620.047306793000189, -1347.000000000000000, 152.9638762099999951 ) ) ;
#446 = FACE_OUTER_BOUND ( 'NONE', #140, .T. ) ;
#447 = EDGE_CURVE ( 'NONE', #1301, #613, #43, .T. ) ;
#448 = MANIFOLD_SOLID_BREP ( '切除-拉伸2', #892 ) ;
#449 = VERTEX_POINT ( 'NONE', #702 ) ;
#450 = AXIS2_PLACEMENT_3D ( 'NONE', #87, #716, #292 ) ;
#451 = EDGE_LOOP ( 'NONE', ( #374, #629, #1247, #1212 ) ) ;
#452 = VECTOR ( 'NONE', #1324, 1000.000000000000000 ) ;
#453 = DIRECTION ( 'NONE',  ( 0.000000000000000000, -1.000000000000000000, 0.000000000000000000 ) ) ;
#454 = AXIS2_PLACEMENT_3D ( 'NONE', #255, #584, #1094 ) ;
#455 = DIRECTION ( 'NONE',  ( -1.000000000000000000, 0.000000000000000000, -1.022573838470730172E-14 ) ) ;
#456 = AXIS2_PLACEMENT_3D ( 'NONE', #638, #1277, #953 ) ;
#457 = CARTESIAN_POINT ( 'NONE',  ( 1620.047306793000189, -50.00000000000029843, 152.9638762099999951 ) ) ;
#458 = ORIENTED_EDGE ( 'NONE', *, *, #15, .F. ) ;
#459 = ORIENTED_EDGE ( 'NONE', *, *, #815, .T. ) ;
#460 = CARTESIAN_POINT ( 'NONE',  ( 1595.047305942000094, -50.00000000000000000, 118.9638762099999951 ) ) ;
#461 = CARTESIAN_POINT ( 'NONE',  ( 1623.047306792999962, -50.00000000000000000, 152.9638762099999951 ) ) ;
#462 = CARTESIAN_POINT ( 'NONE',  ( 1607.047305942000094, -1347.000000000000000, 118.9638762099999951 ) ) ;
#463 = DIRECTION ( 'NONE',  ( -1.000000000000000000, 0.000000000000000000, 0.000000000000000000 ) ) ;
#464 = ORIENTED_EDGE ( 'NONE', *, *, #155, .F. ) ;
#465 = DIRECTION ( 'NONE',  ( 0.000000000000000000, 0.000000000000000000, 1.000000000000000000 ) ) ;
#466 = CARTESIAN_POINT ( 'NONE',  ( 1626.047306793000189, -1347.000000000000000, 124.9638762100000093 ) ) ;
#467 = DIRECTION ( 'NONE',  ( 0.000000000000000000, 0.000000000000000000, -1.000000000000000000 ) ) ;
#468 = PRODUCT_DEFINITION_FORMATION_WITH_SPECIFIED_SOURCE ( '任何', '', #395, .NOT_KNOWN. ) ;
#469 = CARTESIAN_POINT ( 'NONE',  ( 1491.047306793000189, -50.00000000000000000, 182.9638762099999951 ) ) ;
#470 = VERTEX_POINT ( 'NONE', #770 ) ;
#471 = CARTESIAN_POINT ( 'NONE',  ( 1620.047306793000189, -50.00000000000000000, 155.9638762099999951 ) ) ;
#472 = VECTOR ( 'NONE', #455, 1000.000000000000000 ) ;
#473 = AXIS2_PLACEMENT_3D ( 'NONE', #1050, #399, #719 ) ;
#474 = CYLINDRICAL_SURFACE ( 'NONE', #492, 2.750000000000030198 ) ;
#475 =( GEOMETRIC_REPRESENTATION_CONTEXT ( 3 ) GLOBAL_UNCERTAINTY_ASSIGNED_CONTEXT ( ( #306 ) ) GLOBAL_UNIT_ASSIGNED_CONTEXT ( ( #1040, #1017, #927 ) ) REPRESENTATION_CONTEXT ( 'NONE', 'WORKASPACE' ) );
#476 = DIRECTION ( 'NONE',  ( 0.000000000000000000, 1.000000000000000000, 0.000000000000000000 ) ) ;
#477 = ADVANCED_FACE ( 'NONE', ( #397 ), #507, .T. ) ;
#478 = CARTESIAN_POINT ( 'NONE',  ( 1582.047305699999924, -1347.000000000000000, 155.9638762099999951 ) ) ;
#479 = ORIENTED_EDGE ( 'NONE', *, *, #1260, .F. ) ;
#480 = DIRECTION ( 'NONE',  ( 0.000000000000000000, 0.000000000000000000, 1.000000000000000000 ) ) ;
#481 = DIRECTION ( 'NONE',  ( 0.000000000000000000, -1.000000000000000000, 0.000000000000000000 ) ) ;
#482 = EDGE_CURVE ( 'NONE', #709, #11, #696, .T. ) ;
#483 = ORIENTED_EDGE ( 'NONE', *, *, #39, .F. ) ;
#484 = ORIENTED_EDGE ( 'NONE', *, *, #523, .T. ) ;
#485 = FACE_OUTER_BOUND ( 'NONE', #1039, .T. ) ;
#486 = ORIENTED_EDGE ( 'NONE', *, *, #220, .F. ) ;
#487 = CARTESIAN_POINT ( 'NONE',  ( 1582.047306793000189, -50.00000000000029843, 124.9638762100000093 ) ) ;
#488 = ORIENTED_EDGE ( 'NONE', *, *, #54, .T. ) ;
#489 = EDGE_CURVE ( 'NONE', #122, #806, #807, .T. ) ;
#490 = ORIENTED_EDGE ( 'NONE', *, *, #1223, .F. ) ;
#491 =( NAMED_UNIT ( * ) SI_UNIT ( $, .STERADIAN. ) SOLID_ANGLE_UNIT ( ) );
#492 = AXIS2_PLACEMENT_3D ( 'NONE', #789, #143, #243 ) ;
#493 = DIRECTION ( 'NONE',  ( 0.000000000000000000, -1.000000000000000000, 0.000000000000000000 ) ) ;
#494 = CIRCLE ( 'NONE', #1152, 2.750000000000030198 ) ;
#495 = SURFACE_STYLE_FILL_AREA ( #289 ) ;
#496 = DIRECTION ( 'NONE',  ( 0.000000000000000000, 0.000000000000000000, -1.000000000000000000 ) ) ;
#497 = VERTEX_POINT ( 'NONE', #95 ) ;
#498 = UNCERTAINTY_MEASURE_WITH_UNIT (LENGTH_MEASURE( 1.000000000000000082E-05 ), #745, 'distance_accuracy_value', 'NONE');
#499 = CYLINDRICAL_SURFACE ( 'NONE', #512, 6.000000000000005329 ) ;
#500 = ORIENTED_EDGE ( 'NONE', *, *, #439, .T. ) ;
#501 = DIRECTION ( 'NONE',  ( -7.401486830834370205E-14, 0.000000000000000000, -1.000000000000000000 ) ) ;
#502 = DIRECTION ( 'NONE',  ( -1.000000000000000000, 0.000000000000000000, -1.022573838470730172E-14 ) ) ;
#503 = ORIENTED_EDGE ( 'NONE', *, *, #836, .F. ) ;
#504 = CARTESIAN_POINT ( 'NONE',  ( 1582.047306793000189, -1374.000000000000000, 124.9638762100000093 ) ) ;
#505 = EDGE_CURVE ( 'NONE', #1301, #546, #252, .T. ) ;
#506 = ORIENTED_EDGE ( 'NONE', *, *, #121, .F. ) ;
#507 = CYLINDRICAL_SURFACE ( 'NONE', #124, 6.000000000000005329 ) ;
#508 = VERTEX_POINT ( 'NONE', #198 ) ;
#509 = CARTESIAN_POINT ( 'NONE',  ( 1607.047305942000094, -50.00000000000000000, 155.9638762099999951 ) ) ;
#510 = VERTEX_POINT ( 'NONE', #1248 ) ;
#511 = FILL_AREA_STYLE ('',( #575 ) ) ;
#512 = AXIS2_PLACEMENT_3D ( 'NONE', #504, #918, #1347 ) ;
#513 = AXIS2_PLACEMENT_3D ( 'NONE', #1041, #921, #938 ) ;
#514 = EDGE_CURVE ( 'NONE', #524, #1228, #72, .T. ) ;
#515 = CARTESIAN_POINT ( 'NONE',  ( 1601.047305942000094, -1347.000000000000000, 118.9638762099999951 ) ) ;
#516 = CARTESIAN_POINT ( 'NONE',  ( 1582.047305845669825, -50.00000000000000000, 155.9638762099999951 ) ) ;
#517 = AXIS2_PLACEMENT_3D ( 'NONE', #1147, #192, #382 ) ;
#518 = ORIENTED_EDGE ( 'NONE', *, *, #39, .T. ) ;
#519 = VECTOR ( 'NONE', #985, 1000.000000000000000 ) ;
#520 = DIRECTION ( 'NONE',  ( 1.000000000000000000, 0.000000000000000000, 0.000000000000000000 ) ) ;
#521 = CARTESIAN_POINT ( 'NONE',  ( 1595.047305942000094, -1347.000000000000000, 118.9638762099999951 ) ) ;
#522 = LINE ( 'NONE', #297, #429 ) ;
#523 = EDGE_CURVE ( 'NONE', #1146, #325, #1047, .T. ) ;
#524 = VERTEX_POINT ( 'NONE', #832 ) ;
#525 = LINE ( 'NONE', #130, #188 ) ;
#526 = DIRECTION ( 'NONE',  ( -1.000000000000000000, 0.000000000000000000, 0.000000000000000000 ) ) ;
#527 = CARTESIAN_POINT ( 'NONE',  ( 0.000000000000000000, 0.000000000000000000, 0.000000000000000000 ) ) ;
#528 = ORIENTED_EDGE ( 'NONE', *, *, #1161, .F. ) ;
#529 = EDGE_CURVE ( 'NONE', #234, #1255, #182, .T. ) ;
#530 = EDGE_CURVE ( 'NONE', #686, #1307, #1026, .T. ) ;
#531 = CARTESIAN_POINT ( 'NONE',  ( 1611.047306792999962, -1224.000000000000000, 121.9638762100000093 ) ) ;
#532 = DIRECTION ( 'NONE',  ( 0.000000000000000000, 0.000000000000000000, 1.000000000000000000 ) ) ;
#533 = CARTESIAN_POINT ( 'NONE',  ( 1598.297306793000189, -1228.500000000000227, 155.9638762099999951 ) ) ;
#534 = CIRCLE ( 'NONE', #1311, 2.999999999999891642 ) ;
#535 = AXIS2_PLACEMENT_3D ( 'NONE', #590, #885, #1206 ) ;
#536 = AXIS2_PLACEMENT_3D ( 'NONE', #1010, #70, #1326 ) ;
#537 = ORIENTED_EDGE ( 'NONE', *, *, #665, .T. ) ;
#538 = VECTOR ( 'NONE', #1167, 1000.000000000000000 ) ;
#539 = VECTOR ( 'NONE', #922, 1000.000000000000000 ) ;
#540 = ORIENTED_EDGE ( 'NONE', *, *, #482, .T. ) ;
#541 = CARTESIAN_POINT ( 'NONE',  ( 1620.047306793000189, -50.00000000000000000, 118.9638762099999951 ) ) ;
#542 = ADVANCED_FACE ( 'NONE', ( #1034 ), #907, .F. ) ;
#543 = DIRECTION ( 'NONE',  ( 0.000000000000000000, -1.000000000000000000, 0.000000000000000000 ) ) ;
#544 = DIRECTION ( 'NONE',  ( 1.000000000000000000, 0.000000000000000000, 0.000000000000000000 ) ) ;
#545 = ORIENTED_EDGE ( 'NONE', *, *, #548, .T. ) ;
#546 = VERTEX_POINT ( 'NONE', #725 ) ;
#547 = DIRECTION ( 'NONE',  ( 1.000000000000000000, 0.000000000000000000, 0.000000000000000000 ) ) ;
#548 = EDGE_CURVE ( 'NONE', #1255, #235, #341, .T. ) ;
#549 = SURFACE_SIDE_STYLE ('',( #757 ) ) ;
#550 = EDGE_LOOP ( 'NONE', ( #1230, #1037 ) ) ;
#551 = VERTEX_POINT ( 'NONE', #1120 ) ;
#552 = LINE ( 'NONE', #340, #34 ) ;
#553 = CARTESIAN_POINT ( 'NONE',  ( 1623.047306792999962, -50.00000000000000000, 152.9638762099999951 ) ) ;
#554 =( NAMED_UNIT ( * ) SI_UNIT ( $, .STERADIAN. ) SOLID_ANGLE_UNIT ( ) );
#555 = EDGE_CURVE ( 'NONE', #743, #851, #408, .T. ) ;
#556 = EDGE_LOOP ( 'NONE', ( #563, #817, #128, #50 ) ) ;
#557 = VECTOR ( 'NONE', #42, 1000.000000000000000 ) ;
#558 = EDGE_LOOP ( 'NONE', ( #464, #19 ) ) ;
#559 = DIRECTION ( 'NONE',  ( 0.000000000000000000, 0.000000000000000000, -1.000000000000000000 ) ) ;
#560 = VECTOR ( 'NONE', #1061, 1000.000000000000000 ) ;
#561 = LINE ( 'NONE', #553, #519 ) ;
#562 = CARTESIAN_POINT ( 'NONE',  ( 1601.047305942000094, -1347.000000000000000, 121.9638762100000093 ) ) ;
#563 = ORIENTED_EDGE ( 'NONE', *, *, #703, .F. ) ;
#564 = EDGE_CURVE ( 'NONE', #150, #967, #649, .T. ) ;
#565 = VERTEX_POINT ( 'NONE', #116 ) ;
#566 = CARTESIAN_POINT ( 'NONE',  ( 1582.047305699999924, -1347.000000000000000, 155.9638762099999951 ) ) ;
#567 = DIRECTION ( 'NONE',  ( 0.000000000000000000, 1.000000000000000000, 0.000000000000000000 ) ) ;
#568 = CYLINDRICAL_SURFACE ( 'NONE', #321, 6.000000000000005329 ) ;
#569 = LINE ( 'NONE', #478, #452 ) ;
#570 = PRODUCT_RELATED_PRODUCT_CATEGORY ( 'part', '', ( #395 ) ) ;
#571 = ORIENTED_EDGE ( 'NONE', *, *, #729, .T. ) ;
#572 = DIRECTION ( 'NONE',  ( 0.000000000000000000, 0.000000000000000000, -1.000000000000000000 ) ) ;
#573 = ADVANCED_FACE ( 'NONE', ( #730 ), #1054, .F. ) ;
#574 = FILL_AREA_STYLE ('',( #260 ) ) ;
#575 = FILL_AREA_STYLE_COLOUR ( '', #76 ) ;
#576 = CARTESIAN_POINT ( 'NONE',  ( 1582.047306793000189, -1347.000000000000000, 118.9638762099999951 ) ) ;
#577 = ORIENTED_EDGE ( 'NONE', *, *, #1163, .T. ) ;
#578 = LINE ( 'NONE', #248, #1330 ) ;
#579 = COLOUR_RGB ( '',0.6274509803921568540, 0.6274509803921568540, 0.6431372549019607199 ) ;
#580 = STYLED_ITEM ( 'NONE', ( #595 ), #138 ) ;
#581 = CARTESIAN_POINT ( 'NONE',  ( 1619.047304432879855, -533.0000000000000000, 155.9638762099999951 ) ) ;
#582 = AXIS2_PLACEMENT_3D ( 'NONE', #645, #526, #948 ) ;
#583 = EDGE_CURVE ( 'NONE', #750, #235, #644, .T. ) ;
#584 = DIRECTION ( 'NONE',  ( 0.000000000000000000, 0.000000000000000000, 1.000000000000000000 ) ) ;
#585 = DIRECTION ( 'NONE',  ( -4.400000200475170022E-08, -0.9999999999999990008, 0.000000000000000000 ) ) ;
#586 = EDGE_LOOP ( 'NONE', ( #357, #1143, #858, #1191, #171, #828, #736, #351, #894, #442, #389, #18 ) ) ;
#587 = ORIENTED_EDGE ( 'NONE', *, *, #330, .F. ) ;
#588 = EDGE_CURVE ( 'NONE', #714, #524, #322, .T. ) ;
#589 = DIRECTION ( 'NONE',  ( 0.000000000000000000, 0.000000000000000000, -1.000000000000000000 ) ) ;
#590 = CARTESIAN_POINT ( 'NONE',  ( 1601.047306792999962, -168.5000000000000853, 155.9638762099999951 ) ) ;
#591 = VERTEX_POINT ( 'NONE', #844 ) ;
#592 = CARTESIAN_POINT ( 'NONE',  ( 1611.047306792999962, -1224.000000000000000, 155.9638762099999951 ) ) ;
#593 = ORIENTED_EDGE ( 'NONE', *, *, #398, .T. ) ;
#594 = DIRECTION ( 'NONE',  ( -1.000000000000000000, 0.000000000000000000, 0.000000000000000000 ) ) ;
#595 = PRESENTATION_STYLE_ASSIGNMENT (( #1336 ) ) ;
#596 = EDGE_CURVE ( 'NONE', #1243, #159, #525, .T. ) ;
#597 = VERTEX_POINT ( 'NONE', #1068 ) ;
#598 = DIRECTION ( 'NONE',  ( -1.000000000000000000, 0.000000000000000000, 0.000000000000000000 ) ) ;
#599 = PRESENTATION_LAYER_ASSIGNMENT (  '', '', ( #580 ) ) ;
#600 = CIRCLE ( 'NONE', #1045, 2.750000000000030198 ) ;
#601 = ORIENTED_EDGE ( 'NONE', *, *, #1063, .F. ) ;
#602 = AXIS2_PLACEMENT_3D ( 'NONE', #718, #1359, #1140 ) ;
#603 = AXIS2_PLACEMENT_3D ( 'NONE', #21, #867, #1290 ) ;
#604 = DIRECTION ( 'NONE',  ( 0.000000000000000000, 0.000000000000000000, -1.000000000000000000 ) ) ;
#605 = CARTESIAN_POINT ( 'NONE',  ( 1601.047306792999962, -948.5000000000001137, 155.9638762099999951 ) ) ;
#606 = ORIENTED_EDGE ( 'NONE', *, *, #299, .F. ) ;
#607 = EDGE_CURVE ( 'NONE', #524, #1127, #301, .T. ) ;
#608 = LINE ( 'NONE', #1229, #748 ) ;
#609 = ORIENTED_EDGE ( 'NONE', *, *, #15, .T. ) ;
#610 = DIRECTION ( 'NONE',  ( 1.000000000000000000, 0.000000000000000000, 0.000000000000000000 ) ) ;
#611 = SURFACE_SIDE_STYLE ('',( #495 ) ) ;
#612 = CARTESIAN_POINT ( 'NONE',  ( 1610.000000000000000, -580.7799999999999727, 158.9638762099999951 ) ) ;
#613 = VERTEX_POINT ( 'NONE', #756 ) ;
#614 = EDGE_CURVE ( 'NONE', #122, #325, #958, .T. ) ;
#615 = CARTESIAN_POINT ( 'NONE',  ( 1620.047306793000189, -50.00000000000000000, 118.9638762099999951 ) ) ;
#616 = EDGE_CURVE ( 'NONE', #743, #1127, #16, .T. ) ;
#617 = CARTESIAN_POINT ( 'NONE',  ( 1621.047306792999962, -50.00000000000000000, 121.9638762100000093 ) ) ;
#618 = CARTESIAN_POINT ( 'NONE',  ( 1601.047306792999962, -948.5000000000001137, 155.9638762099999951 ) ) ;
#619 = ORIENTED_EDGE ( 'NONE', *, *, #854, .F. ) ;
#620 = LINE ( 'NONE', #1044, #230 ) ;
#621 = DIRECTION ( 'NONE',  ( 0.000000000000000000, 0.000000000000000000, 1.000000000000000000 ) ) ;
#622 = EDGE_CURVE ( 'NONE', #1033, #597, #1132, .T. ) ;
#623 = AXIS2_PLACEMENT_3D ( 'NONE', #592, #285, #700 ) ;
#624 = VECTOR ( 'NONE', #585, 1000.000000000000227 ) ;
#625 = FACE_OUTER_BOUND ( 'NONE', #835, .T. ) ;
#626 = VECTOR ( 'NONE', #990, 1000.000000000000000 ) ;
#627 = CARTESIAN_POINT ( 'NONE',  ( 1619.047304433399859, -533.0000000000000000, 155.9638762099999951 ) ) ;
#628 =( GEOMETRIC_REPRESENTATION_CONTEXT ( 3 ) GLOBAL_UNCERTAINTY_ASSIGNED_CONTEXT ( ( #1339 ) ) GLOBAL_UNIT_ASSIGNED_CONTEXT ( ( #741, #239, #1184 ) ) REPRESENTATION_CONTEXT ( 'NONE', 'WORKASPACE' ) );
#629 = ORIENTED_EDGE ( 'NONE', *, *, #836, .T. ) ;
#630 = VECTOR ( 'NONE', #2, 1000.000000000000000 ) ;
#631 = CARTESIAN_POINT ( 'NONE',  ( 1610.000000000000000, -555.5000000000000000, 155.9638762099999951 ) ) ;
#632 = DIRECTION ( 'NONE',  ( -1.184237892933499233E-12, 0.000000000000000000, 1.000000000000000000 ) ) ;
#633 = ADVANCED_FACE ( 'NONE', ( #1183 ), #1166, .F. ) ;
#634 = PRESENTATION_STYLE_ASSIGNMENT (( #1284 ) ) ;
#635 = CYLINDRICAL_SURFACE ( 'NONE', #801, 2.749999999999808153 ) ;
#636 = ORIENTED_EDGE ( 'NONE', *, *, #105, .F. ) ;
#637 =( NAMED_UNIT ( * ) SI_UNIT ( $, .STERADIAN. ) SOLID_ANGLE_UNIT ( ) );
#638 = CARTESIAN_POINT ( 'NONE',  ( 1601.047306792999962, -168.5000000000000853, 153.9638762099999951 ) ) ;
#639 = CYLINDRICAL_SURFACE ( 'NONE', #1110, 2.750000000000030198 ) ;
#640 =( LENGTH_UNIT ( ) NAMED_UNIT ( * ) SI_UNIT ( .MILLI., .METRE. ) );
#641 = ORIENTED_EDGE ( 'NONE', *, *, #523, .F. ) ;
#642 = ORIENTED_EDGE ( 'NONE', *, *, #365, .F. ) ;
#643 = DIRECTION ( 'NONE',  ( 1.000000000000000000, 0.000000000000000000, 0.000000000000000000 ) ) ;
#644 = LINE ( 'NONE', #1271, #410 ) ;
#645 = CARTESIAN_POINT ( 'NONE',  ( 1626.047306793000189, -1374.000000000000000, 123.9638762100000093 ) ) ;
#646 =( GEOMETRIC_REPRESENTATION_CONTEXT ( 3 ) GLOBAL_UNCERTAINTY_ASSIGNED_CONTEXT ( ( #498 ) ) GLOBAL_UNIT_ASSIGNED_CONTEXT ( ( #745, #1165, #637 ) ) REPRESENTATION_CONTEXT ( 'NONE', 'WORKASPACE' ) );
#647 = AXIS2_PLACEMENT_3D ( 'NONE', #23, #660, #344 ) ;
#648 = VERTEX_POINT ( 'NONE', #964 ) ;
#649 = CIRCLE ( 'NONE', #778, 6.000000000000005329 ) ;
#650 = ADVANCED_FACE ( 'NONE', ( #438 ), #1073, .F. ) ;
#651 = ORIENTED_EDGE ( 'NONE', *, *, #805, .F. ) ;
#652 = DIRECTION ( 'NONE',  ( -0.000000000000000000, -0.000000000000000000, 1.000000000000000000 ) ) ;
#653 = LINE ( 'NONE', #970, #1293 ) ;
#654 = CARTESIAN_POINT ( 'NONE',  ( 1603.797306792999734, -948.5000000000001137, 153.9638762099999951 ) ) ;
#655 = ORIENTED_EDGE ( 'NONE', *, *, #489, .F. ) ;
#656 = ORIENTED_EDGE ( 'NONE', *, *, #1269, .T. ) ;
#657 = DIRECTION ( 'NONE',  ( 1.000000000000000000, 0.000000000000000000, 0.000000000000000000 ) ) ;
#658 = LINE ( 'NONE', #104, #824 ) ;
#659 = ADVANCED_FACE ( 'NONE', ( #1283 ), #238, .F. ) ;
#660 = DIRECTION ( 'NONE',  ( 0.000000000000000000, 1.000000000000000000, 0.000000000000000000 ) ) ;
#661 = ORIENTED_EDGE ( 'NONE', *, *, #771, .F. ) ;
#662 = VERTEX_POINT ( 'NONE', #27 ) ;
#663 = LINE ( 'NONE', #369, #296 ) ;
#664 = CARTESIAN_POINT ( 'NONE',  ( 1610.000000000000000, -580.7799999999999727, 158.9638762099999951 ) ) ;
#665 = EDGE_CURVE ( 'NONE', #218, #1346, #658, .T. ) ;
#666 = DIRECTION ( 'NONE',  ( -1.000000000000000000, 0.000000000000000000, 0.000000000000000000 ) ) ;
#667 = VERTEX_POINT ( 'NONE', #125 ) ;
#668 = PRESENTATION_LAYER_ASSIGNMENT (  '', '', ( #318 ) ) ;
#669 = EDGE_LOOP ( 'NONE', ( #676, #303, #767, #1265 ) ) ;
#670 = CARTESIAN_POINT ( 'NONE',  ( 1579.047306793000189, -1347.000000000000000, 124.9638762100000093 ) ) ;
#671 = AXIS2_PLACEMENT_3D ( 'NONE', #41, #141, #559 ) ;
#672 = AXIS2_PLACEMENT_3D ( 'NONE', #1210, #245, #666 ) ;
#673 = PLANE ( 'NONE',  #623 ) ;
#674 = CARTESIAN_POINT ( 'NONE',  ( 1620.047306793000189, -1347.000000000000000, 155.9638762099999951 ) ) ;
#675 = ORIENTED_EDGE ( 'NONE', *, *, #1310, .F. ) ;
#676 = ORIENTED_EDGE ( 'NONE', *, *, #583, .T. ) ;
#677 = DIRECTION ( 'NONE',  ( 0.000000000000000000, 1.000000000000000000, 0.000000000000000000 ) ) ;
#678 = FACE_OUTER_BOUND ( 'NONE', #988, .T. ) ;
#679 = CARTESIAN_POINT ( 'NONE',  ( 1621.047306884669752, -50.00000000000000000, 121.9638762100000093 ) ) ;
#680 = ORIENTED_EDGE ( 'NONE', *, *, #328, .T. ) ;
#681 = EDGE_CURVE ( 'NONE', #750, #591, #1357, .T. ) ;
#682 = PLANE ( 'NONE',  #934 ) ;
#683 = SURFACE_STYLE_USAGE ( .BOTH. , #1093 ) ;
#684 = CARTESIAN_POINT ( 'NONE',  ( 1610.000000000000000, -533.0000000000000000, 155.9638762099999951 ) ) ;
#685 = ORIENTED_EDGE ( 'NONE', *, *, #1334, .F. ) ;
#686 = VERTEX_POINT ( 'NONE', #232 ) ;
#687 = EDGE_CURVE ( 'NONE', #1331, #783, #653, .T. ) ;
#688 = FACE_OUTER_BOUND ( 'NONE', #451, .T. ) ;
#689 = AXIS2_PLACEMENT_3D ( 'NONE', #457, #1069, #1263 ) ;
#690 = ORIENTED_EDGE ( 'NONE', *, *, #996, .T. ) ;
#691 = PLANE ( 'NONE',  #146 ) ;
#692 = LINE ( 'NONE', #262, #820 ) ;
#693 = ORIENTED_EDGE ( 'NONE', *, *, #1194, .T. ) ;
#694 = DIRECTION ( 'NONE',  ( -1.000000000000000000, 0.000000000000000000, 0.000000000000000000 ) ) ;
#695 = ORIENTED_EDGE ( 'NONE', *, *, #189, .T. ) ;
#696 = LINE ( 'NONE', #800, #14 ) ;
#697 = EDGE_CURVE ( 'NONE', #1064, #11, #1222, .T. ) ;
#698 = DIRECTION ( 'NONE',  ( 0.000000000000000000, 0.000000000000000000, -1.000000000000000000 ) ) ;
#699 = ORIENTED_EDGE ( 'NONE', *, *, #781, .F. ) ;
#700 = DIRECTION ( 'NONE',  ( 0.000000000000000000, 1.000000000000000000, 0.000000000000000000 ) ) ;
#701 = ORIENTED_EDGE ( 'NONE', *, *, #1273, .T. ) ;
#702 = CARTESIAN_POINT ( 'NONE',  ( 1620.047306793000189, -50.00000000000000000, 158.9638762099999951 ) ) ;
#703 = EDGE_CURVE ( 'NONE', #331, #1033, #838, .T. ) ;
#704 = CYLINDRICAL_SURFACE ( 'NONE', #793, 6.000000000000005329 ) ;
#705 = CARTESIAN_POINT ( 'NONE',  ( 1579.047306793000189, -50.00000000000000000, 152.9638762099999951 ) ) ;
#706 = ORIENTED_EDGE ( 'NONE', *, *, #794, .F. ) ;
#707 = CYLINDRICAL_SURFACE ( 'NONE', #360, 6.000000000000005329 ) ;
#708 = VECTOR ( 'NONE', #1282, 1000.000000000000000 ) ;
#709 = VERTEX_POINT ( 'NONE', #466 ) ;
#710 = CARTESIAN_POINT ( 'NONE',  ( 1582.047306793000189, -1347.000000000000000, 118.9638762099999951 ) ) ;
#711 = MECHANICAL_DESIGN_GEOMETRIC_PRESENTATION_REPRESENTATION (  '', ( #981 ), #475 ) ;
#712 = DIRECTION ( 'NONE',  ( 0.000000000000000000, 1.000000000000000000, 0.000000000000000000 ) ) ;
#713 = DIRECTION ( 'NONE',  ( 1.000000000000000000, 0.000000000000000000, 0.000000000000000000 ) ) ;
#714 = VERTEX_POINT ( 'NONE', #1322 ) ;
#715 = EDGE_CURVE ( 'NONE', #551, #1133, #799, .T. ) ;
#716 = DIRECTION ( 'NONE',  ( 0.000000000000000000, -1.000000000000000000, 0.000000000000000000 ) ) ;
#717 = ORIENTED_EDGE ( 'NONE', *, *, #614, .T. ) ;
#718 = CARTESIAN_POINT ( 'NONE',  ( 1601.047305942000094, -1347.000000000000000, 158.9638762099999951 ) ) ;
#719 = DIRECTION ( 'NONE',  ( 0.000000000000000000, 0.000000000000000000, -1.000000000000000000 ) ) ;
#720 = DIRECTION ( 'NONE',  ( -0.000000000000000000, -0.000000000000000000, 1.000000000000000000 ) ) ;
#721 = EDGE_LOOP ( 'NONE', ( #1091, #974, #108, #1158, #577, #1186, #269, #959, #308, #857, #1362, #1019 ) ) ;
#722 = EDGE_CURVE ( 'NONE', #648, #1331, #991, .T. ) ;
#723 = DIRECTION ( 'NONE',  ( -1.000000000000000000, 0.000000000000000000, 0.000000000000000000 ) ) ;
#724 = ORIENTED_EDGE ( 'NONE', *, *, #288, .T. ) ;
#725 = CARTESIAN_POINT ( 'NONE',  ( 1595.047305942000094, -1347.000000000000000, 158.9638762099999951 ) ) ;
#726 = FACE_OUTER_BOUND ( 'NONE', #874, .T. ) ;
#727 = CARTESIAN_POINT ( 'NONE',  ( 1582.047305090999998, -1347.000000000000000, 158.9638762099999951 ) ) ;
#728 = ORIENTED_EDGE ( 'NONE', *, *, #1213, .T. ) ;
#729 = EDGE_CURVE ( 'NONE', #806, #508, #561, .T. ) ;
#730 = FACE_OUTER_BOUND ( 'NONE', #1025, .T. ) ;
#731 = STYLED_ITEM ( 'NONE', ( #48 ), #827 ) ;
#732 = DIRECTION ( 'NONE',  ( 1.000000000000000000, 0.000000000000000000, 0.000000000000000000 ) ) ;
#733 = CIRCLE ( 'NONE', #1175, 2.000000000000001776 ) ;
#734 = DIRECTION ( 'NONE',  ( 0.000000000000000000, 1.000000000000000000, 0.000000000000000000 ) ) ;
#735 = CIRCLE ( 'NONE', #956, 6.000000000000005329 ) ;
#736 = ORIENTED_EDGE ( 'NONE', *, *, #328, .F. ) ;
#737 = DIRECTION ( 'NONE',  ( 0.000000000000000000, 0.000000000000000000, 1.000000000000000000 ) ) ;
#738 = ORIENTED_EDGE ( 'NONE', *, *, #447, .F. ) ;
#739 = DIRECTION ( 'NONE',  ( 0.000000000000000000, 0.000000000000000000, 1.000000000000000000 ) ) ;
#740 = CARTESIAN_POINT ( 'NONE',  ( 1601.047305942000094, -50.00000000000000000, 118.9638762099999951 ) ) ;
#741 =( LENGTH_UNIT ( ) NAMED_UNIT ( * ) SI_UNIT ( .MILLI., .METRE. ) );
#742 = EDGE_CURVE ( 'NONE', #1346, #44, #976, .T. ) ;
#743 = VERTEX_POINT ( 'NONE', #61 ) ;
#744 = ORIENTED_EDGE ( 'NONE', *, *, #614, .F. ) ;
#745 =( LENGTH_UNIT ( ) NAMED_UNIT ( * ) SI_UNIT ( .MILLI., .METRE. ) );
#746 = DIRECTION ( 'NONE',  ( 0.000000000000000000, 0.000000000000000000, 1.000000000000000000 ) ) ;
#747 = LINE ( 'NONE', #10, #57 ) ;
#748 = VECTOR ( 'NONE', #93, 1000.000000000000000 ) ;
#749 =( GEOMETRIC_REPRESENTATION_CONTEXT ( 3 ) GLOBAL_UNCERTAINTY_ASSIGNED_CONTEXT ( ( #829 ) ) GLOBAL_UNIT_ASSIGNED_CONTEXT ( ( #193, #1360, #106 ) ) REPRESENTATION_CONTEXT ( 'NONE', 'WORKASPACE' ) );
#750 = VERTEX_POINT ( 'NONE', #375 ) ;
#751 = VECTOR ( 'NONE', #476, 1000.000000000000000 ) ;
#752 = AXIS2_PLACEMENT_3D ( 'NONE', #445, #419, #632 ) ;
#753 = ORIENTED_EDGE ( 'NONE', *, *, #1096, .T. ) ;
#754 = EDGE_CURVE ( 'NONE', #1315, #264, #891, .T. ) ;
#755 = LINE ( 'NONE', #1208, #1089 ) ;
#756 = CARTESIAN_POINT ( 'NONE',  ( 1607.047305942000094, -1347.000000000000000, 155.9638762099999951 ) ) ;
#757 = SURFACE_STYLE_FILL_AREA ( #233 ) ;
#758 = SURFACE_STYLE_USAGE ( .BOTH. , #1292 ) ;
#759 = ORIENTED_EDGE ( 'NONE', *, *, #616, .F. ) ;
#760 = EDGE_LOOP ( 'NONE', ( #412, #571, #1002, #1275 ) ) ;
#761 = DIRECTION ( 'NONE',  ( 0.000000000000000000, 1.000000000000000000, 0.000000000000000000 ) ) ;
#762 = ADVANCED_FACE ( 'NONE', ( #1099 ), #474, .F. ) ;
#763 = LINE ( 'NONE', #1203, #226 ) ;
#764 = CARTESIAN_POINT ( 'NONE',  ( 1607.047305942000094, -50.00000000000000000, 118.9638762099999951 ) ) ;
#765 = PRESENTATION_STYLE_ASSIGNMENT (( #758 ) ) ;
#766 = ORIENTED_EDGE ( 'NONE', *, *, #1013, .F. ) ;
#767 = ORIENTED_EDGE ( 'NONE', *, *, #771, .T. ) ;
#768 = DIRECTION ( 'NONE',  ( 0.000000000000000000, -1.000000000000000000, 0.000000000000000000 ) ) ;
#769 = FACE_BOUND ( 'NONE', #558, .T. ) ;
#770 = CARTESIAN_POINT ( 'NONE',  ( 1576.047306793000189, -50.00000000000000000, 124.9638762100000093 ) ) ;
#771 = EDGE_CURVE ( 'NONE', #1353, #822, #763, .T. ) ;
#772 = CARTESIAN_POINT ( 'NONE',  ( 1610.000000000000000, -533.0000000000000000, 158.9638762099999951 ) ) ;
#773 = VECTOR ( 'NONE', #1008, 1000.000000000000000 ) ;
#774 = ORIENTED_EDGE ( 'NONE', *, *, #162, .T. ) ;
#775 = CIRCLE ( 'NONE', #672, 6.000000000000005329 ) ;
#776 = CARTESIAN_POINT ( 'NONE',  ( 1626.047306793000189, -50.00000000000000000, 152.9638762099999951 ) ) ;
#777 = CIRCLE ( 'NONE', #671, 6.000000000000005329 ) ;
#778 = AXIS2_PLACEMENT_3D ( 'NONE', #176, #920, #610 ) ;
#779 = FACE_BOUND ( 'NONE', #82, .T. ) ;
#780 = LINE ( 'NONE', #147, #797 ) ;
#781 = EDGE_CURVE ( 'NONE', #1243, #994, #1214, .T. ) ;
#782 = ORIENTED_EDGE ( 'NONE', *, *, #607, .F. ) ;
#783 = VERTEX_POINT ( 'NONE', #1005 ) ;
#784 = FACE_OUTER_BOUND ( 'NONE', #788, .T. ) ;
#785 = DIRECTION ( 'NONE',  ( 0.000000000000000000, 0.000000000000000000, 1.000000000000000000 ) ) ;
#786 = CARTESIAN_POINT ( 'NONE',  ( 1582.047306793000189, -1374.000000000000000, 152.9638762099999951 ) ) ;
#787 = ORIENTED_EDGE ( 'NONE', *, *, #1031, .T. ) ;
#788 = EDGE_LOOP ( 'NONE', ( #782, #973, #500, #1235 ) ) ;
#789 = CARTESIAN_POINT ( 'NONE',  ( 1601.047306792999962, -448.5000000000001137, 153.9638762099999951 ) ) ;
#790 = CARTESIAN_POINT ( 'NONE',  ( 1598.297306792999962, -448.5000000000001137, 158.9638762099999951 ) ) ;
#791 = LINE ( 'NONE', #1028, #1087 ) ;
#792 = ORIENTED_EDGE ( 'NONE', *, *, #114, .T. ) ;
#793 = AXIS2_PLACEMENT_3D ( 'NONE', #515, #1124, #90 ) ;
#794 = EDGE_CURVE ( 'NONE', #950, #396, #1188, .T. ) ;
#795 = VECTOR ( 'NONE', #453, 1000.000000000000000 ) ;
#796 = DIRECTION ( 'NONE',  ( 0.000000000000000000, 0.000000000000000000, -1.000000000000000000 ) ) ;
#797 = VECTOR ( 'NONE', #158, 1000.000000000000000 ) ;
#798 = ORIENTED_EDGE ( 'NONE', *, *, #155, .T. ) ;
#799 = CIRCLE ( 'NONE', #1112, 2.000000000000001776 ) ;
#800 = CARTESIAN_POINT ( 'NONE',  ( 1626.047306793000189, -1347.000000000000000, 124.9638762100000093 ) ) ;
#801 = AXIS2_PLACEMENT_3D ( 'NONE', #929, #1136, #826 ) ;
#802 = ORIENTED_EDGE ( 'NONE', *, *, #530, .F. ) ;
#803 = ORIENTED_EDGE ( 'NONE', *, *, #432, .T. ) ;
#804 = DIRECTION ( 'NONE',  ( 0.000000000000000000, -1.000000000000000000, 0.000000000000000000 ) ) ;
#805 = EDGE_CURVE ( 'NONE', #235, #1353, #1309, .T. ) ;
#806 = VERTEX_POINT ( 'NONE', #461 ) ;
#807 = LINE ( 'NONE', #1327, #363 ) ;
#808 = CARTESIAN_POINT ( 'NONE',  ( 1620.047306793000189, -1347.000000000000000, 158.9638762099999951 ) ) ;
#809 = VERTEX_POINT ( 'NONE', #137 ) ;
#810 = CARTESIAN_POINT ( 'NONE',  ( 1601.047305942000094, -1347.000000000000000, 155.9638762099999951 ) ) ;
#811 = ORIENTED_EDGE ( 'NONE', *, *, #1065, .T. ) ;
#812 = PRODUCT_DEFINITION ( '未知', '', #468, #416 ) ;
#813 = PRESENTATION_STYLE_ASSIGNMENT (( #1349 ) ) ;
#814 = APPLICATION_CONTEXT ( 'automotive_design' ) ;
#815 = EDGE_CURVE ( 'NONE', #1139, #686, #883, .T. ) ;
#816 = CARTESIAN_POINT ( 'NONE',  ( 1601.047306792999962, -1228.500000000000227, 158.9638762099999951 ) ) ;
#817 = ORIENTED_EDGE ( 'NONE', *, *, #196, .T. ) ;
#818 = DIRECTION ( 'NONE',  ( 0.000000000000000000, 1.000000000000000000, 0.000000000000000000 ) ) ;
#819 = VECTOR ( 'NONE', #652, 1000.000000000000000 ) ;
#820 = VECTOR ( 'NONE', #987, 1000.000000000000000 ) ;
#821 = VECTOR ( 'NONE', #572, 1000.000000000000000 ) ;
#822 = VERTEX_POINT ( 'NONE', #361 ) ;
#823 = VECTOR ( 'NONE', #1256, 1000.000000000000000 ) ;
#824 = VECTOR ( 'NONE', #746, 1000.000000000000000 ) ;
#825 = CARTESIAN_POINT ( 'NONE',  ( 1576.047306793000189, -1347.000000000000000, 152.9638762099999951 ) ) ;
#826 = DIRECTION ( 'NONE',  ( 1.000000000000000000, 0.000000000000000000, 0.000000000000000000 ) ) ;
#827 = ADVANCED_FACE ( 'NONE', ( #349, #1304, #354, #769, #779, #1193 ), #673, .T. ) ;
#828 = ORIENTED_EDGE ( 'NONE', *, *, #996, .F. ) ;
#829 = UNCERTAINTY_MEASURE_WITH_UNIT (LENGTH_MEASURE( 1.000000000000000082E-05 ), #193, 'distance_accuracy_value', 'NONE');
#830 = CARTESIAN_POINT ( 'NONE',  ( 1607.047305942000094, -50.00000000000000000, 118.9638762099999951 ) ) ;
#831 = ORIENTED_EDGE ( 'NONE', *, *, #622, .F. ) ;
#832 = CARTESIAN_POINT ( 'NONE',  ( 1607.047305942000094, -1347.000000000000000, 118.9638762099999951 ) ) ;
#833 = CARTESIAN_POINT ( 'NONE',  ( 1491.047306793000189, -50.00000000000000000, 182.9638762099999951 ) ) ;
#834 = DIRECTION ( 'NONE',  ( -1.000000000000000000, 0.000000000000000000, 0.000000000000000000 ) ) ;
#835 = EDGE_LOOP ( 'NONE', ( #864, #89, #675, #926, #63, #378, #619, #333, #1076, #651, #247, #221 ) ) ;
#836 = EDGE_CURVE ( 'NONE', #218, #1300, #180, .T. ) ;
#837 = DIRECTION ( 'NONE',  ( 1.000000000000000000, 0.000000000000000000, 0.000000000000000000 ) ) ;
#838 = LINE ( 'NONE', #1262, #430 ) ;
#839 = CARTESIAN_POINT ( 'NONE',  ( 1626.047306793000189, -1347.000000000000000, 124.9638762100000093 ) ) ;
#840 = CARTESIAN_POINT ( 'NONE',  ( 1607.047305942000094, -1347.000000000000000, 158.9638762099999951 ) ) ;
#841 = ORIENTED_EDGE ( 'NONE', *, *, #715, .F. ) ;
#842 = CARTESIAN_POINT ( 'NONE',  ( 1601.047306792999962, -1228.500000000000227, 158.9638762099999951 ) ) ;
#843 = EDGE_CURVE ( 'NONE', #159, #44, #1335, .T. ) ;
#844 = CARTESIAN_POINT ( 'NONE',  ( 1582.047306793000189, -1347.000000000000000, 121.9638762100000093 ) ) ;
#845 = CIRCLE ( 'NONE', #383, 2.749999999999808153 ) ;
#846 = CIRCLE ( 'NONE', #13, 2.749999999999808153 ) ;
#847 = PRESENTATION_LAYER_ASSIGNMENT (  '', '', ( #981 ) ) ;
#848 = CARTESIAN_POINT ( 'NONE',  ( 1595.047305942000094, -50.00000000000000000, 121.9638762100000093 ) ) ;
#849 = VECTOR ( 'NONE', #1092, 1000.000000000000000 ) ;
#850 = AXIS2_PLACEMENT_3D ( 'NONE', #62, #1299, #350 ) ;
#851 = VERTEX_POINT ( 'NONE', #302 ) ;
#852 = CARTESIAN_POINT ( 'NONE',  ( 1598.297306793000189, -948.5000000000001137, 153.9638762099999951 ) ) ;
#853 = CARTESIAN_POINT ( 'NONE',  ( 1582.047306793000189, -1347.000000000000000, 124.9638762100000093 ) ) ;
#854 = EDGE_CURVE ( 'NONE', #783, #1139, #608, .T. ) ;
#855 = DIRECTION ( 'NONE',  ( -0.9999999999999991118, 4.400000000000000357E-08, 0.000000000000000000 ) ) ;
#856 = DIRECTION ( 'NONE',  ( 0.000000000000000000, 0.000000000000000000, 1.000000000000000000 ) ) ;
#857 = ORIENTED_EDGE ( 'NONE', *, *, #432, .F. ) ;
#858 = ORIENTED_EDGE ( 'NONE', *, *, #288, .F. ) ;
#859 = DIRECTION ( 'NONE',  ( 0.000000000000000000, 0.000000000000000000, -1.000000000000000000 ) ) ;
#860 = CARTESIAN_POINT ( 'NONE',  ( 1582.047306793000189, -1347.000000000000000, 118.9638762099999951 ) ) ;
#861 = EDGE_CURVE ( 'NONE', #994, #218, #1016, .T. ) ;
#862 = DIRECTION ( 'NONE',  ( 0.000000000000000000, 0.000000000000000000, -1.000000000000000000 ) ) ;
#863 = ADVANCED_FACE ( 'NONE', ( #81 ), #499, .T. ) ;
#864 = ORIENTED_EDGE ( 'NONE', *, *, #1102, .F. ) ;
#865 = ORIENTED_EDGE ( 'NONE', *, *, #1145, .T. ) ;
#866 = CARTESIAN_POINT ( 'NONE',  ( 1620.047306793000189, -1347.000000000000000, 158.9638762099999951 ) ) ;
#867 = DIRECTION ( 'NONE',  ( 1.000000000000000000, 0.000000000000000000, 0.000000000000000000 ) ) ;
#868 = PRODUCT_CONTEXT ( 'NONE', #814, 'mechanical' ) ;
#869 = AXIS2_PLACEMENT_3D ( 'NONE', #842, #739, #1267 ) ;
#870 = STYLED_ITEM ( 'NONE', ( #634 ), #237 ) ;
#871 = EDGE_LOOP ( 'NONE', ( #393, #923, #209, #744, #728, #841, #811, #930, #1075, #479, #540, #169 ) ) ;
#872 = CIRCLE ( 'NONE', #689, 3.000000000000002665 ) ;
#873 = ADVANCED_FACE ( 'NONE', ( #912 ), #1340, .F. ) ;
#874 = EDGE_LOOP ( 'NONE', ( #368, #738, #935, #506 ) ) ;
#875 = LINE ( 'NONE', #670, #849 ) ;
#876 = DIRECTION ( 'NONE',  ( 0.000000000000000000, -1.000000000000000000, 0.000000000000000000 ) ) ;
#877 = CYLINDRICAL_SURFACE ( 'NONE', #850, 2.749999999999808153 ) ;
#878 = UNCERTAINTY_MEASURE_WITH_UNIT (LENGTH_MEASURE( 1.000000000000000082E-05 ), #53, 'distance_accuracy_value', 'NONE');
#879 = ORIENTED_EDGE ( 'NONE', *, *, #607, .T. ) ;
#880 = EDGE_CURVE ( 'NONE', #980, #1228, #394, .T. ) ;
#881 = ORIENTED_EDGE ( 'NONE', *, *, #1088, .F. ) ;
#882 = CARTESIAN_POINT ( 'NONE',  ( 1603.797306792999734, -948.5000000000001137, 155.9638762099999951 ) ) ;
#883 = LINE ( 'NONE', #1298, #472 ) ;
#884 = DIRECTION ( 'NONE',  ( 0.000000000000000000, -1.000000000000000000, 0.000000000000000000 ) ) ;
#885 = DIRECTION ( 'NONE',  ( 0.000000000000000000, 0.000000000000000000, -1.000000000000000000 ) ) ;
#886 = EDGE_LOOP ( 'NONE', ( #241, #606, #1190, #909 ) ) ;
#887 = DIRECTION ( 'NONE',  ( -0.000000000000000000, -0.000000000000000000, 1.000000000000000000 ) ) ;
#888 = CARTESIAN_POINT ( 'NONE',  ( 1601.047306792999962, -948.5000000000001137, 158.9638762099999951 ) ) ;
#889 = CARTESIAN_POINT ( 'NONE',  ( 1579.047306793000189, -1224.000000000000000, 123.9638762100000093 ) ) ;
#890 = CARTESIAN_POINT ( 'NONE',  ( 1601.047306792999962, -448.5000000000001137, 155.9638762099999951 ) ) ;
#891 = CIRCLE ( 'NONE', #955, 2.749999999999808153 ) ;
#892 = CLOSED_SHELL ( 'NONE', ( #659, #1350, #1313, #337, #177, #1169, #1180, #971, #650, #1020, #423, #1341, #131, #827, #873, #314, #373, #863, #928, #280, #477, #542, #7, #573, #203, #138, #237, #1105, #910, #406, #762, #228, #148, #633, #1126, #937 ) ) ;
#893 = AXIS2_PLACEMENT_3D ( 'NONE', #1317, #887, #358 ) ;
#894 = ORIENTED_EDGE ( 'NONE', *, *, #1205, .F. ) ;
#895 = CIRCLE ( 'NONE', #1221, 6.000000000000005329 ) ;
#896 = LINE ( 'NONE', #460, #626 ) ;
#897 =( NAMED_UNIT ( * ) PLANE_ANGLE_UNIT ( ) SI_UNIT ( $, .RADIAN. ) );
#898 = DIRECTION ( 'NONE',  ( 1.000000000000000000, 0.000000000000000000, 0.000000000000000000 ) ) ;
#899 = CARTESIAN_POINT ( 'NONE',  ( 1582.047306793000189, -1347.000000000000000, 152.9638762099999951 ) ) ;
#900 = ORIENTED_EDGE ( 'NONE', *, *, #189, .F. ) ;
#901 = CARTESIAN_POINT ( 'NONE',  ( 1582.047305699999924, -1347.000000000000000, 155.9638762099999951 ) ) ;
#902 = DIRECTION ( 'NONE',  ( 0.000000000000000000, -1.000000000000000000, 0.000000000000000000 ) ) ;
#903 = CARTESIAN_POINT ( 'NONE',  ( 1626.047306793000189, -50.00000000000000000, 124.9638762100000093 ) ) ;
#904 = EDGE_CURVE ( 'NONE', #1170, #613, #294, .T. ) ;
#905 = EDGE_LOOP ( 'NONE', ( #403, #699, #685, #503 ) ) ;
#906 = DIRECTION ( 'NONE',  ( 0.000000000000000000, -1.000000000000000000, 0.000000000000000000 ) ) ;
#907 = PLANE ( 'NONE',  #1245 ) ;
#908 = EDGE_LOOP ( 'NONE', ( #693, #139, #695, #71 ) ) ;
#909 = ORIENTED_EDGE ( 'NONE', *, *, #105, .T. ) ;
#910 = ADVANCED_FACE ( 'NONE', ( #402 ), #1032, .F. ) ;
#911 = AXIS2_PLACEMENT_3D ( 'NONE', #1029, #85, #1051 ) ;
#912 = FACE_OUTER_BOUND ( 'NONE', #278, .T. ) ;
#913 = AXIS2_PLACEMENT_3D ( 'NONE', #957, #862, #1195 ) ;
#914 = EDGE_LOOP ( 'NONE', ( #655, #717, #641, #94 ) ) ;
#915 = FILL_AREA_STYLE_COLOUR ( '', #1244 ) ;
#916 = CARTESIAN_POINT ( 'NONE',  ( 1603.797306792999734, -948.5000000000001137, 158.9638762099999951 ) ) ;
#917 = VERTEX_POINT ( 'NONE', #65 ) ;
#918 = DIRECTION ( 'NONE',  ( 0.000000000000000000, -1.000000000000000000, 0.000000000000000000 ) ) ;
#919 = ORIENTED_EDGE ( 'NONE', *, *, #1334, .T. ) ;
#920 = DIRECTION ( 'NONE',  ( 0.000000000000000000, 0.000000000000000000, 1.000000000000000000 ) ) ;
#921 = DIRECTION ( 'NONE',  ( 0.000000000000000000, 0.000000000000000000, -1.000000000000000000 ) ) ;
#922 = DIRECTION ( 'NONE',  ( 0.000000000000000000, 0.000000000000000000, 1.000000000000000000 ) ) ;
#923 = ORIENTED_EDGE ( 'NONE', *, *, #447, .T. ) ;
#924 = UNCERTAINTY_MEASURE_WITH_UNIT (LENGTH_MEASURE( 1.000000000000000082E-05 ), #640, 'distance_accuracy_value', 'NONE');
#925 = DIRECTION ( 'NONE',  ( -1.000000000000000000, 0.000000000000000000, 0.000000000000000000 ) ) ;
#926 = ORIENTED_EDGE ( 'NONE', *, *, #88, .F. ) ;
#927 =( NAMED_UNIT ( * ) SI_UNIT ( $, .STERADIAN. ) SOLID_ANGLE_UNIT ( ) );
#928 = ADVANCED_FACE ( 'NONE', ( #1236 ), #190, .T. ) ;
#929 = CARTESIAN_POINT ( 'NONE',  ( 1601.047306792999962, -948.5000000000001137, 153.9638762099999951 ) ) ;
#930 = ORIENTED_EDGE ( 'NONE', *, *, #588, .T. ) ;
#931 = CARTESIAN_POINT ( 'NONE',  ( 1621.047306792999962, -50.00000000000000000, 121.9638762100000093 ) ) ;
#932 =( GEOMETRIC_REPRESENTATION_CONTEXT ( 3 ) GLOBAL_UNCERTAINTY_ASSIGNED_CONTEXT ( ( #878 ) ) GLOBAL_UNIT_ASSIGNED_CONTEXT ( ( #53, #897, #491 ) ) REPRESENTATION_CONTEXT ( 'NONE', 'WORKASPACE' ) );
#933 = VECTOR ( 'NONE', #1344, 1000.000000000000000 ) ;
#934 = AXIS2_PLACEMENT_3D ( 'NONE', #1104, #768, #496 ) ;
#935 = ORIENTED_EDGE ( 'NONE', *, *, #505, .T. ) ;
#936 = CIRCLE ( 'NONE', #1003, 6.000000000000005329 ) ;
#937 = ADVANCED_FACE ( 'NONE', ( #485 ), #707, .F. ) ;
#938 = DIRECTION ( 'NONE',  ( -1.000000000000000000, 0.000000000000000000, 0.000000000000000000 ) ) ;
#939 = DIRECTION ( 'NONE',  ( 1.000000000000000000, 0.000000000000000000, 0.000000000000000000 ) ) ;
#940 = EDGE_LOOP ( 'NONE', ( #135, #792, #1119, #982 ) ) ;
#941 = LINE ( 'NONE', #307, #999 ) ;
#942 = DIRECTION ( 'NONE',  ( 0.000000000000000000, -1.000000000000000000, 0.000000000000000000 ) ) ;
#943 = LINE ( 'NONE', #825, #210 ) ;
#944 = DIRECTION ( 'NONE',  ( -1.000000000000000000, 0.000000000000000000, 0.000000000000000000 ) ) ;
#945 = ORIENTED_EDGE ( 'NONE', *, *, #951, .T. ) ;
#946 = DIRECTION ( 'NONE',  ( -1.000000000000000000, 0.000000000000000000, 0.000000000000000000 ) ) ;
#947 = CARTESIAN_POINT ( 'NONE',  ( 1601.047305942000094, -1347.000000000000000, 118.9638762099999951 ) ) ;
#948 = DIRECTION ( 'NONE',  ( 0.000000000000000000, 0.000000000000000000, 1.000000000000000000 ) ) ;
#949 = SHAPE_DEFINITION_REPRESENTATION ( #362, #332 ) ;
#950 = VERTEX_POINT ( 'NONE', #1246 ) ;
#951 = EDGE_CURVE ( 'NONE', #950, #1070, #978, .T. ) ;
#952 = CARTESIAN_POINT ( 'NONE',  ( 1601.047306792999962, -448.5000000000001137, 158.9638762099999951 ) ) ;
#953 = DIRECTION ( 'NONE',  ( 1.000000000000000000, 0.000000000000000000, 0.000000000000000000 ) ) ;
#954 = VECTOR ( 'NONE', #1018, 1000.000000000000000 ) ;
#955 = AXIS2_PLACEMENT_3D ( 'NONE', #888, #785, #32 ) ;
#956 = AXIS2_PLACEMENT_3D ( 'NONE', #126, #965, #117 ) ;
#957 = CARTESIAN_POINT ( 'NONE',  ( 1601.047305942000094, -50.00000000000000000, 158.9638762099999951 ) ) ;
#958 = CIRCLE ( 'NONE', #1178, 2.999999999999891642 ) ;
#959 = ORIENTED_EDGE ( 'NONE', *, *, #121, .T. ) ;
#960 = VECTOR ( 'NONE', #713, 1000.000000000000000 ) ;
#961 = VERTEX_POINT ( 'NONE', #509 ) ;
#962 = DIRECTION ( 'NONE',  ( -1.000000000000000000, 0.000000000000000000, 0.000000000000000000 ) ) ;
#963 = EDGE_CURVE ( 'NONE', #60, #201, #411, .T. ) ;
#964 = CARTESIAN_POINT ( 'NONE',  ( 1582.047305699999924, -1347.000000000000000, 155.9638762099999951 ) ) ;
#965 = DIRECTION ( 'NONE',  ( 0.000000000000000000, -1.000000000000000000, 0.000000000000000000 ) ) ;
#966 =( NAMED_UNIT ( * ) PLANE_ANGLE_UNIT ( ) SI_UNIT ( $, .RADIAN. ) );
#967 = VERTEX_POINT ( 'NONE', #830 ) ;
#968 = ORIENTED_EDGE ( 'NONE', *, *, #439, .F. ) ;
#969 = CARTESIAN_POINT ( 'NONE',  ( 1603.797306792999962, -448.5000000000001137, 153.9638762099999951 ) ) ;
#970 = CARTESIAN_POINT ( 'NONE',  ( 1582.047306136999850, -50.00000000000000000, 155.9638762099999951 ) ) ;
#971 = ADVANCED_FACE ( 'NONE', ( #688 ), #1114, .T. ) ;
#972 = APPLICATION_PROTOCOL_DEFINITION ( 'draft international standard', 'automotive_design', 1998, #814 ) ;
#973 = ORIENTED_EDGE ( 'NONE', *, *, #588, .F. ) ;
#974 = ORIENTED_EDGE ( 'NONE', *, *, #173, .T. ) ;
#975 = LINE ( 'NONE', #31, #795 ) ;
#976 = LINE ( 'NONE', #664, #254 ) ;
#977 = CARTESIAN_POINT ( 'NONE',  ( 1576.047306793000189, -1347.000000000000000, 152.9638762099999951 ) ) ;
#978 = CIRCLE ( 'NONE', #1172, 2.750000000000030198 ) ;
#979 = EDGE_CURVE ( 'NONE', #264, #1315, #846, .T. ) ;
#980 = VERTEX_POINT ( 'NONE', #541 ) ;
#981 = STYLED_ITEM ( 'NONE', ( #813 ), #448 ) ;
#982 = ORIENTED_EDGE ( 'NONE', *, *, #742, .T. ) ;
#983 = COLOUR_RGB ( '',0.6509803921568627638, 0.6196078431372549211, 0.5882352941176470784 ) ;
#984 = CARTESIAN_POINT ( 'NONE',  ( 1623.047306792999962, -1347.000000000000000, 123.9638762100000093 ) ) ;
#985 = DIRECTION ( 'NONE',  ( 0.000000000000000000, 0.000000000000000000, -1.000000000000000000 ) ) ;
#986 = DIRECTION ( 'NONE',  ( 1.000000000000000000, 0.000000000000000000, 0.000000000000000000 ) ) ;
#987 = DIRECTION ( 'NONE',  ( 1.000000000000000000, 0.000000000000000000, 0.000000000000000000 ) ) ;
#988 = EDGE_LOOP ( 'NONE', ( #802, #352, #486, #803 ) ) ;
#989 = EDGE_CURVE ( 'NONE', #667, #961, #26, .T. ) ;
#990 = DIRECTION ( 'NONE',  ( -0.000000000000000000, -0.000000000000000000, 1.000000000000000000 ) ) ;
#991 = LINE ( 'NONE', #901, #213 ) ;
#992 = FACE_OUTER_BOUND ( 'NONE', #1052, .T. ) ;
#993 = DIRECTION ( 'NONE',  ( -3.643324160880932362E-07, 0.000000000000000000, 0.9999999999999334976 ) ) ;
#994 = VERTEX_POINT ( 'NONE', #1072 ) ;
#995 = CARTESIAN_POINT ( 'NONE',  ( 1626.047306793000189, -50.00000000000000000, 152.9638762099999951 ) ) ;
#996 = EDGE_CURVE ( 'NONE', #967, #980, #8, .T. ) ;
#997 = DIRECTION ( 'NONE',  ( 1.000000000000000000, 0.000000000000000000, 0.000000000000000000 ) ) ;
#998 = ORIENTED_EDGE ( 'NONE', *, *, #1251, .T. ) ;
#999 = VECTOR ( 'NONE', #723, 1000.000000000000000 ) ;
#1000 = CIRCLE ( 'NONE', #249, 3.000000000000007550 ) ;
#1001 = AXIS2_PLACEMENT_3D ( 'NONE', #1182, #761, #151 ) ;
#1002 = ORIENTED_EDGE ( 'NONE', *, *, #365, .T. ) ;
#1003 = AXIS2_PLACEMENT_3D ( 'NONE', #1116, #261, #376 ) ;
#1004 = FACE_OUTER_BOUND ( 'NONE', #721, .T. ) ;
#1005 = CARTESIAN_POINT ( 'NONE',  ( 1595.047305942000094, -50.00000000000000000, 155.9638762099999951 ) ) ;
#1006 = DIRECTION ( 'NONE',  ( -0.000000000000000000, -0.000000000000000000, 1.000000000000000000 ) ) ;
#1007 = EDGE_CURVE ( 'NONE', #662, #1338, #1197, .T. ) ;
#1008 = DIRECTION ( 'NONE',  ( 0.000000000000000000, 0.000000000000000000, -1.000000000000000000 ) ) ;
#1009 = ORIENTED_EDGE ( 'NONE', *, *, #505, .F. ) ;
#1010 = CARTESIAN_POINT ( 'NONE',  ( 1601.047306792999962, -1228.500000000000227, 153.9638762099999951 ) ) ;
#1011 = VERTEX_POINT ( 'NONE', #1059 ) ;
#1012 = LINE ( 'NONE', #274, #298 ) ;
#1013 = EDGE_CURVE ( 'NONE', #1011, #396, #600, .T. ) ;
#1014 = ORIENTED_EDGE ( 'NONE', *, *, #1102, .T. ) ;
#1015 = ORIENTED_EDGE ( 'NONE', *, *, #220, .T. ) ;
#1016 = LINE ( 'NONE', #1023, #1086 ) ;
#1017 =( NAMED_UNIT ( * ) PLANE_ANGLE_UNIT ( ) SI_UNIT ( $, .RADIAN. ) );
#1018 = DIRECTION ( 'NONE',  ( 0.000000000000000000, 1.000000000000000000, 0.000000000000000000 ) ) ;
#1019 = ORIENTED_EDGE ( 'NONE', *, *, #555, .F. ) ;
#1020 = ADVANCED_FACE ( 'NONE', ( #1171 ), #431, .T. ) ;
#1021 = VECTOR ( 'NONE', #481, 1000.000000000000000 ) ;
#1022 = CIRCLE ( 'NONE', #211, 2.749999999999808153 ) ;
#1023 = CARTESIAN_POINT ( 'NONE',  ( 1619.047302333000061, -580.7799999999999727, 155.9638762099999951 ) ) ;
#1024 = AXIS2_PLACEMENT_3D ( 'NONE', #740, #223, #1160 ) ;
#1025 = EDGE_LOOP ( 'NONE', ( #179, #1081, #1015, #1062 ) ) ;
#1026 = LINE ( 'NONE', #282, #823 ) ;
#1027 = AXIS2_PLACEMENT_3D ( 'NONE', #290, #311, #91 ) ;
#1028 = CARTESIAN_POINT ( 'NONE',  ( 1595.047305942000094, -1347.000000000000000, 118.9638762099999951 ) ) ;
#1029 = CARTESIAN_POINT ( 'NONE',  ( 1582.047306793000189, -50.00000000000000000, 152.9638762099999951 ) ) ;
#1030 = ORIENTED_EDGE ( 'NONE', *, *, #330, .T. ) ;
#1031 = EDGE_CURVE ( 'NONE', #396, #1011, #272, .T. ) ;
#1032 = CYLINDRICAL_SURFACE ( 'NONE', #536, 2.749999999999808153 ) ;
#1033 = VERTEX_POINT ( 'NONE', #444 ) ;
#1034 = FACE_OUTER_BOUND ( 'NONE', #1168, .T. ) ;
#1035 = DIRECTION ( 'NONE',  ( -0.000000000000000000, -0.000000000000000000, 1.000000000000000000 ) ) ;
#1036 = FACE_OUTER_BOUND ( 'NONE', #305, .T. ) ;
#1037 = ORIENTED_EDGE ( 'NONE', *, *, #1007, .F. ) ;
#1038 = DIRECTION ( 'NONE',  ( 0.000000000000000000, 0.000000000000000000, -1.000000000000000000 ) ) ;
#1039 = EDGE_LOOP ( 'NONE', ( #1014, #1103, #680, #273 ) ) ;
#1040 =( LENGTH_UNIT ( ) NAMED_UNIT ( * ) SI_UNIT ( .MILLI., .METRE. ) );
#1041 = CARTESIAN_POINT ( 'NONE',  ( 1601.047306792999962, -1228.500000000000227, 155.9638762099999951 ) ) ;
#1042 = LINE ( 'NONE', #808, #166 ) ;
#1043 = ORIENTED_EDGE ( 'NONE', *, *, #781, .T. ) ;
#1044 = CARTESIAN_POINT ( 'NONE',  ( 1603.797306792999962, -168.5000000000000853, 153.9638762099999951 ) ) ;
#1045 = AXIS2_PLACEMENT_3D ( 'NONE', #115, #20, #837 ) ;
#1046 = PRESENTATION_LAYER_ASSIGNMENT (  '', '', ( #870 ) ) ;
#1047 = LINE ( 'NONE', #413, #102 ) ;
#1048 = MECHANICAL_DESIGN_GEOMETRIC_PRESENTATION_REPRESENTATION (  '', ( #870 ), #628 ) ;
#1049 = EDGE_CURVE ( 'NONE', #1353, #1331, #534, .T. ) ;
#1050 = CARTESIAN_POINT ( 'NONE',  ( 1620.047306793000189, -1224.000000000000000, 152.9638762099999951 ) ) ;
#1051 = DIRECTION ( 'NONE',  ( -3.700743415417185102E-14, 0.000000000000000000, 1.000000000000000000 ) ) ;
#1052 = EDGE_LOOP ( 'NONE', ( #127, #1296, #642, #1207 ) ) ;
#1053 = PRESENTATION_STYLE_ASSIGNMENT (( #1151 ) ) ;
#1054 = PLANE ( 'NONE',  #603 ) ;
#1055 = CARTESIAN_POINT ( 'NONE',  ( 1603.797306792999734, -1228.500000000000227, 153.9638762099999951 ) ) ;
#1056 = LINE ( 'NONE', #421, #320 ) ;
#1057 = EDGE_CURVE ( 'NONE', #1286, #264, #1144, .T. ) ;
#1058 = ORIENTED_EDGE ( 'NONE', *, *, #794, .T. ) ;
#1059 = CARTESIAN_POINT ( 'NONE',  ( 1603.797306792999962, -448.5000000000001137, 158.9638762099999951 ) ) ;
#1060 = CARTESIAN_POINT ( 'NONE',  ( 1601.047306792999962, -168.5000000000000853, 158.9638762099999951 ) ) ;
#1061 = DIRECTION ( 'NONE',  ( -0.000000000000000000, -0.000000000000000000, 1.000000000000000000 ) ) ;
#1062 = ORIENTED_EDGE ( 'NONE', *, *, #88, .T. ) ;
#1063 = EDGE_CURVE ( 'NONE', #1070, #1011, #334, .T. ) ;
#1064 = VERTEX_POINT ( 'NONE', #866 ) ;
#1065 = EDGE_CURVE ( 'NONE', #551, #714, #941, .T. ) ;
#1066 = CARTESIAN_POINT ( 'NONE',  ( 1582.047306793000189, -50.00000000000029843, 152.9638762099999951 ) ) ;
#1067 = AXIS2_PLACEMENT_3D ( 'NONE', #531, #222, #129 ) ;
#1068 = CARTESIAN_POINT ( 'NONE',  ( 1603.797306792999962, -168.5000000000000853, 158.9638762099999951 ) ) ;
#1069 = DIRECTION ( 'NONE',  ( 0.000000000000000000, 1.000000000000000000, 0.000000000000000000 ) ) ;
#1070 = VERTEX_POINT ( 'NONE', #202 ) ;
#1071 = ORIENTED_EDGE ( 'NONE', *, *, #697, .T. ) ;
#1072 = CARTESIAN_POINT ( 'NONE',  ( 1619.047302332750178, -580.7799999999999727, 155.9638762099999951 ) ) ;
#1073 = CYLINDRICAL_SURFACE ( 'NONE', #364, 3.000000000000002665 ) ;
#1074 = PLANE ( 'NONE',  #1176 ) ;
#1075 = ORIENTED_EDGE ( 'NONE', *, *, #514, .T. ) ;
#1076 = ORIENTED_EDGE ( 'NONE', *, *, #1049, .F. ) ;
#1077 = CARTESIAN_POINT ( 'NONE',  ( 1620.047306793000189, -1347.000000000000000, 118.9638762099999951 ) ) ;
#1078 = CARTESIAN_POINT ( 'NONE',  ( 1621.047306792999962, -1347.000000000000000, 123.9638762100000093 ) ) ;
#1079 = FILL_AREA_STYLE ('',( #345 ) ) ;
#1080 = ORIENTED_EDGE ( 'NONE', *, *, #398, .F. ) ;
#1081 = ORIENTED_EDGE ( 'NONE', *, *, #185, .F. ) ;
#1082 = DIRECTION ( 'NONE',  ( -1.000000000000000000, 0.000000000000000000, 0.000000000000000000 ) ) ;
#1083 = CARTESIAN_POINT ( 'NONE',  ( 1598.297306792999962, -448.5000000000001137, 153.9638762099999951 ) ) ;
#1084 = CYLINDRICAL_SURFACE ( 'NONE', #212, 2.749999999999808153 ) ;
#1085 =( GEOMETRIC_REPRESENTATION_CONTEXT ( 3 ) GLOBAL_UNCERTAINTY_ASSIGNED_CONTEXT ( ( #924 ) ) GLOBAL_UNIT_ASSIGNED_CONTEXT ( ( #640, #133, #554 ) ) REPRESENTATION_CONTEXT ( 'NONE', 'WORKASPACE' ) );
#1086 = VECTOR ( 'NONE', #925, 1000.000000000000000 ) ;
#1087 = VECTOR ( 'NONE', #1035, 1000.000000000000000 ) ;
#1088 = EDGE_CURVE ( 'NONE', #565, #597, #620, .T. ) ;
#1089 = VECTOR ( 'NONE', #265, 1000.000000000000000 ) ;
#1090 = CARTESIAN_POINT ( 'NONE',  ( 1626.047306793000189, -1347.000000000000000, 152.9638762099999951 ) ) ;
#1091 = ORIENTED_EDGE ( 'NONE', *, *, #616, .T. ) ;
#1092 = DIRECTION ( 'NONE',  ( 0.000000000000000000, 0.000000000000000000, 1.000000000000000000 ) ) ;
#1093 = SURFACE_SIDE_STYLE ('',( #266 ) ) ;
#1094 = DIRECTION ( 'NONE',  ( 1.000000000000000000, 0.000000000000000000, 0.000000000000000000 ) ) ;
#1095 = CARTESIAN_POINT ( 'NONE',  ( 1576.047306793000189, -50.00000000000000000, 152.9638762099999951 ) ) ;
#1096 = EDGE_CURVE ( 'NONE', #980, #6, #777, .T. ) ;
#1097 = VERTEX_POINT ( 'NONE', #995 ) ;
#1098 = LINE ( 'NONE', #156, #821 ) ;
#1099 = FACE_OUTER_BOUND ( 'NONE', #409, .T. ) ;
#1100 = DIRECTION ( 'NONE',  ( 0.000000000000000000, -1.000000000000000000, 0.000000000000000000 ) ) ;
#1101 = DIRECTION ( 'NONE',  ( 0.000000000000000000, 0.000000000000000000, -1.000000000000000000 ) ) ;
#1102 = EDGE_CURVE ( 'NONE', #150, #234, #896, .T. ) ;
#1103 = ORIENTED_EDGE ( 'NONE', *, *, #379, .T. ) ;
#1104 = CARTESIAN_POINT ( 'NONE',  ( 1612.971767865999936, -580.7799999999999727, 155.5638762100000179 ) ) ;
#1105 = ADVANCED_FACE ( 'NONE', ( #52 ), #682, .F. ) ;
#1106 = DIRECTION ( 'NONE',  ( -1.110223024625155531E-13, 0.000000000000000000, -1.000000000000000000 ) ) ;
#1107 = DIRECTION ( 'NONE',  ( 0.000000000000000000, 0.000000000000000000, 1.000000000000000000 ) ) ;
#1108 = CARTESIAN_POINT ( 'NONE',  ( 1576.047306793000189, -50.00000000000000000, 152.9638762099999951 ) ) ;
#1109 = VECTOR ( 'NONE', #818, 1000.000000000000000 ) ;
#1110 = AXIS2_PLACEMENT_3D ( 'NONE', #435, #329, #732 ) ;
#1111 = EDGE_LOOP ( 'NONE', ( #293, #336, #99, #881 ) ) ;
#1112 = AXIS2_PLACEMENT_3D ( 'NONE', #1078, #1209, #1106 ) ;
#1113 = STYLED_ITEM ( 'NONE', ( #765 ), #332 ) ;
#1114 = PLANE ( 'NONE',  #1352 ) ;
#1115 = EDGE_CURVE ( 'NONE', #648, #1170, #161, .T. ) ;
#1116 = CARTESIAN_POINT ( 'NONE',  ( 1601.047305942000094, -50.00000000000000000, 121.9638762100000093 ) ) ;
#1117 = DIRECTION ( 'NONE',  ( 0.000000000000000000, 0.000000000000000000, -1.000000000000000000 ) ) ;
#1118 = VERTEX_POINT ( 'NONE', #882 ) ;
#1119 = ORIENTED_EDGE ( 'NONE', *, *, #1273, .F. ) ;
#1120 = CARTESIAN_POINT ( 'NONE',  ( 1621.047306884669752, -1347.000000000000000, 121.9638762100000093 ) ) ;
#1121 = ORIENTED_EDGE ( 'NONE', *, *, #880, .T. ) ;
#1122 = CARTESIAN_POINT ( 'NONE',  ( 1610.000000000000000, -580.7799999999999727, 155.9638762099999951 ) ) ;
#1123 = ORIENTED_EDGE ( 'NONE', *, *, #1319, .T. ) ;
#1124 = DIRECTION ( 'NONE',  ( -0.000000000000000000, -0.000000000000000000, 1.000000000000000000 ) ) ;
#1125 = CARTESIAN_POINT ( 'NONE',  ( 1610.000000000000000, -533.0000000000000000, 155.9638762099999951 ) ) ;
#1126 = ADVANCED_FACE ( 'NONE', ( #784 ), #259, .F. ) ;
#1127 = VERTEX_POINT ( 'NONE', #1302 ) ;
#1128 = AXIS2_PLACEMENT_3D ( 'NONE', #952, #229, #643 ) ;
#1129 = VECTOR ( 'NONE', #594, 1000.000000000000000 ) ;
#1130 = VECTOR ( 'NONE', #1308, 1000.000000000000000 ) ;
#1131 = DIRECTION ( 'NONE',  ( -0.000000000000000000, -0.000000000000000000, 1.000000000000000000 ) ) ;
#1132 = CIRCLE ( 'NONE', #277, 2.750000000000030198 ) ;
#1133 = VERTEX_POINT ( 'NONE', #984 ) ;
#1134 = DIRECTION ( 'NONE',  ( 0.000000000000000000, -1.000000000000000000, 0.000000000000000000 ) ) ;
#1135 = DIRECTION ( 'NONE',  ( 0.000000000000000000, 0.000000000000000000, 1.000000000000000000 ) ) ;
#1136 = DIRECTION ( 'NONE',  ( -0.000000000000000000, -0.000000000000000000, 1.000000000000000000 ) ) ;
#1137 = ORIENTED_EDGE ( 'NONE', *, *, #687, .T. ) ;
#1138 = CARTESIAN_POINT ( 'NONE',  ( 1601.047306792999962, -448.5000000000001137, 155.9638762099999951 ) ) ;
#1139 = VERTEX_POINT ( 'NONE', #1192 ) ;
#1140 = DIRECTION ( 'NONE',  ( 1.000000000000000000, 0.000000000000000000, 0.000000000000000000 ) ) ;
#1141 = FACE_BOUND ( 'NONE', #187, .T. ) ;
#1142 = DIRECTION ( 'NONE',  ( -1.000000000000000000, 0.000000000000000000, 0.000000000000000000 ) ) ;
#1143 = ORIENTED_EDGE ( 'NONE', *, *, #1303, .F. ) ;
#1144 = LINE ( 'NONE', #852, #708 ) ;
#1145 = EDGE_CURVE ( 'NONE', #917, #150, #663, .T. ) ;
#1146 = VERTEX_POINT ( 'NONE', #471 ) ;
#1147 = CARTESIAN_POINT ( 'NONE',  ( 1582.047306793000189, -1347.000000000000000, 124.9638762100000093 ) ) ;
#1148 = PLANE ( 'NONE',  #33 ) ;
#1149 = CARTESIAN_POINT ( 'NONE',  ( 1626.047306793000189, -50.00000000000000000, 124.9638762100000093 ) ) ;
#1150 = EDGE_LOOP ( 'NONE', ( #1342, #753, #900, #225 ) ) ;
#1151 = SURFACE_STYLE_USAGE ( .BOTH. , #1276 ) ;
#1152 = AXIS2_PLACEMENT_3D ( 'NONE', #890, #1117, #463 ) ;
#1153 = CIRCLE ( 'NONE', #145, 6.000000000000005329 ) ;
#1154 = DIRECTION ( 'NONE',  ( 1.000000000000000000, 0.000000000000000000, 0.000000000000000000 ) ) ;
#1155 = EDGE_CURVE ( 'NONE', #809, #591, #755, .T. ) ;
#1156 = LINE ( 'NONE', #1055, #538 ) ;
#1157 = DIRECTION ( 'NONE',  ( 1.000000000000000000, 0.000000000000000000, 0.000000000000000000 ) ) ;
#1158 = ORIENTED_EDGE ( 'NONE', *, *, #681, .F. ) ;
#1159 = SURFACE_STYLE_FILL_AREA ( #313 ) ;
#1160 = DIRECTION ( 'NONE',  ( 1.000000000000000000, 0.000000000000000000, 0.000000000000000000 ) ) ;
#1161 = EDGE_CURVE ( 'NONE', #546, #1307, #578, .T. ) ;
#1162 = FACE_OUTER_BOUND ( 'NONE', #908, .T. ) ;
#1163 = EDGE_CURVE ( 'NONE', #750, #822, #875, .T. ) ;
#1164 = ORIENTED_EDGE ( 'NONE', *, *, #299, .T. ) ;
#1165 =( NAMED_UNIT ( * ) PLANE_ANGLE_UNIT ( ) SI_UNIT ( $, .RADIAN. ) );
#1166 = CYLINDRICAL_SURFACE ( 'NONE', #1024, 6.000000000000005329 ) ;
#1167 = DIRECTION ( 'NONE',  ( -0.000000000000000000, -0.000000000000000000, 1.000000000000000000 ) ) ;
#1168 = EDGE_LOOP ( 'NONE', ( #865, #24, #690, #1121, #1237, #879, #759, #609 ) ) ;
#1169 = ADVANCED_FACE ( 'NONE', ( #1004 ), #75, .F. ) ;
#1170 = VERTEX_POINT ( 'NONE', #1187 ) ;
#1171 = FACE_OUTER_BOUND ( 'NONE', #300, .T. ) ;
#1172 = AXIS2_PLACEMENT_3D ( 'NONE', #1138, #1038, #694 ) ;
#1173 = DIRECTION ( 'NONE',  ( -1.000000000000000000, 0.000000000000000000, 0.000000000000000000 ) ) ;
#1174 = AXIS2_PLACEMENT_3D ( 'NONE', #367, #1101, #1320 ) ;
#1175 = AXIS2_PLACEMENT_3D ( 'NONE', #1288, #677, #657 ) ;
#1176 = AXIS2_PLACEMENT_3D ( 'NONE', #36, #855, #1177 ) ;
#1177 = DIRECTION ( 'NONE',  ( -4.400000000000000357E-08, -0.9999999999999991118, 0.000000000000000000 ) ) ;
#1178 = AXIS2_PLACEMENT_3D ( 'NONE', #425, #942, #1154 ) ;
#1179 = EDGE_LOOP ( 'NONE', ( #766, #1321 ) ) ;
#1180 = ADVANCED_FACE ( 'NONE', ( #236 ), #46, .F. ) ;
#1181 = EDGE_LOOP ( 'NONE', ( #181, #774, #40, #1123 ) ) ;
#1182 = CARTESIAN_POINT ( 'NONE',  ( 1491.047306793000189, -1347.000000000000000, 182.9638762099999951 ) ) ;
#1183 = FACE_OUTER_BOUND ( 'NONE', #886, .T. ) ;
#1184 =( NAMED_UNIT ( * ) SI_UNIT ( $, .STERADIAN. ) SOLID_ANGLE_UNIT ( ) );
#1185 = ORIENTED_EDGE ( 'NONE', *, *, #417, .T. ) ;
#1186 = ORIENTED_EDGE ( 'NONE', *, *, #96, .F. ) ;
#1187 = CARTESIAN_POINT ( 'NONE',  ( 1595.047305942000094, -1347.000000000000000, 155.9638762099999951 ) ) ;
#1188 = LINE ( 'NONE', #1083, #557 ) ;
#1189 = CYLINDRICAL_SURFACE ( 'NONE', #1272, 2.000000000000001776 ) ;
#1190 = ORIENTED_EDGE ( 'NONE', *, *, #989, .T. ) ;
#1191 = ORIENTED_EDGE ( 'NONE', *, *, #1278, .F. ) ;
#1192 = CARTESIAN_POINT ( 'NONE',  ( 1595.047305942000094, -50.00000000000000000, 158.9638762099999383 ) ) ;
#1193 = FACE_BOUND ( 'NONE', #905, .T. ) ;
#1194 = EDGE_CURVE ( 'NONE', #1097, #11, #242, .T. ) ;
#1195 = DIRECTION ( 'NONE',  ( -1.000000000000000000, 0.000000000000000000, 0.000000000000000000 ) ) ;
#1196 = CIRCLE ( 'NONE', #1174, 6.000000000000005329 ) ;
#1197 = CIRCLE ( 'NONE', #869, 2.749999999999808153 ) ;
#1198 = DIRECTION ( 'NONE',  ( 0.000000000000000000, 0.000000000000000000, -1.000000000000000000 ) ) ;
#1199 = VECTOR ( 'NONE', #9, 1000.000000000000000 ) ;
#1200 = ORIENTED_EDGE ( 'NONE', *, *, #371, .F. ) ;
#1201 = AXIS2_PLACEMENT_3D ( 'NONE', #1234, #944, #1258 ) ;
#1202 = DIRECTION ( 'NONE',  ( 0.000000000000000000, -1.000000000000000000, 0.000000000000000000 ) ) ;
#1203 = CARTESIAN_POINT ( 'NONE',  ( 1579.047306793000189, -50.00000000000000000, 152.9638762099999951 ) ) ;
#1204 = DIRECTION ( 'NONE',  ( 0.000000000000000000, 0.000000000000000000, 1.000000000000000000 ) ) ;
#1205 = EDGE_CURVE ( 'NONE', #508, #60, #733, .T. ) ;
#1206 = DIRECTION ( 'NONE',  ( -1.000000000000000000, 0.000000000000000000, 0.000000000000000000 ) ) ;
#1207 = ORIENTED_EDGE ( 'NONE', *, *, #1205, .T. ) ;
#1208 = CARTESIAN_POINT ( 'NONE',  ( 1621.047307068000009, -1347.000000000000000, 121.9638762100000093 ) ) ;
#1209 = DIRECTION ( 'NONE',  ( 0.000000000000000000, -1.000000000000000000, 0.000000000000000000 ) ) ;
#1210 = CARTESIAN_POINT ( 'NONE',  ( 1582.047306793000189, -1347.000000000000000, 152.9638762099999951 ) ) ;
#1211 = EDGE_LOOP ( 'NONE', ( #428, #1164, #459, #30, #528, #1009, #347, #1030 ) ) ;
#1212 = ORIENTED_EDGE ( 'NONE', *, *, #742, .F. ) ;
#1213 = EDGE_CURVE ( 'NONE', #122, #1133, #1098, .T. ) ;
#1214 = LINE ( 'NONE', #581, #142 ) ;
#1215 = ORIENTED_EDGE ( 'NONE', *, *, #843, .T. ) ;
#1216 = LINE ( 'NONE', #764, #1332 ) ;
#1217 = ORIENTED_EDGE ( 'NONE', *, *, #114, .F. ) ;
#1218 = VECTOR ( 'NONE', #1356, 1000.000000000000000 ) ;
#1219 = VECTOR ( 'NONE', #149, 1000.000000000000000 ) ;
#1220 = ORIENTED_EDGE ( 'NONE', *, *, #979, .T. ) ;
#1221 = AXIS2_PLACEMENT_3D ( 'NONE', #562, #1204, #986 ) ;
#1222 = CIRCLE ( 'NONE', #752, 6.000000000000005329 ) ;
#1223 = EDGE_CURVE ( 'NONE', #994, #497, #552, .T. ) ;
#1224 = DIRECTION ( 'NONE',  ( -1.000000000000000000, 0.000000000000000000, 0.000000000000000000 ) ) ;
#1225 = ORIENTED_EDGE ( 'NONE', *, *, #596, .F. ) ;
#1226 = CARTESIAN_POINT ( 'NONE',  ( 1611.047306792999962, -1374.000000000000000, 118.9638762099999951 ) ) ;
#1227 = ORIENTED_EDGE ( 'NONE', *, *, #596, .T. ) ;
#1228 = VERTEX_POINT ( 'NONE', #1077 ) ;
#1229 = CARTESIAN_POINT ( 'NONE',  ( 1595.047305942000094, -50.00000000000000000, 118.9638762099999951 ) ) ;
#1230 = ORIENTED_EDGE ( 'NONE', *, *, #1319, .F. ) ;
#1231 = CARTESIAN_POINT ( 'NONE',  ( 1620.047306793000189, -1374.000000000000000, 124.9638762100000093 ) ) ;
#1232 = EDGE_CURVE ( 'NONE', #470, #851, #975, .T. ) ;
#1233 = DIRECTION ( 'NONE',  ( 0.000000000000000000, 0.000000000000000000, -1.000000000000000000 ) ) ;
#1234 = CARTESIAN_POINT ( 'NONE',  ( 1623.047306792999962, -1224.000000000000000, 123.9638762100000093 ) ) ;
#1235 = ORIENTED_EDGE ( 'NONE', *, *, #173, .F. ) ;
#1236 = FACE_OUTER_BOUND ( 'NONE', #1358, .T. ) ;
#1237 = ORIENTED_EDGE ( 'NONE', *, *, #514, .F. ) ;
#1238 = DIRECTION ( 'NONE',  ( 0.000000000000000000, 0.000000000000000000, 1.000000000000000000 ) ) ;
#1239 = AXIS2_PLACEMENT_3D ( 'NONE', #527, #856, #544 ) ;
#1240 = EDGE_CURVE ( 'NONE', #1064, #1301, #1042, .T. ) ;
#1241 = PLANE ( 'NONE',  #144 ) ;
#1242 = DIRECTION ( 'NONE',  ( -1.000000000000000000, 0.000000000000000000, 0.000000000000000000 ) ) ;
#1243 = VERTEX_POINT ( 'NONE', #627 ) ;
#1244 = COLOUR_RGB ( '',0.6274509803921568540, 0.6274509803921568540, 0.6431372549019607199 ) ;
#1245 = AXIS2_PLACEMENT_3D ( 'NONE', #1226, #621, #1134 ) ;
#1246 = CARTESIAN_POINT ( 'NONE',  ( 1598.297306792999962, -448.5000000000001137, 155.9638762099999951 ) ) ;
#1247 = ORIENTED_EDGE ( 'NONE', *, *, #323, .T. ) ;
#1248 = CARTESIAN_POINT ( 'NONE',  ( 1603.797306792999734, -1228.500000000000227, 155.9638762099999951 ) ) ;
#1249 = FACE_BOUND ( 'NONE', #1179, .T. ) ;
#1250 = DIRECTION ( 'NONE',  ( 0.000000000000000000, 0.000000000000000000, 1.000000000000000000 ) ) ;
#1251 = EDGE_CURVE ( 'NONE', #1286, #1118, #1022, .T. ) ;
#1252 = ORIENTED_EDGE ( 'NONE', *, *, #244, .F. ) ;
#1253 = EDGE_CURVE ( 'NONE', #686, #64, #384, .T. ) ;
#1254 = CARTESIAN_POINT ( 'NONE',  ( 1601.047305942000094, -50.00000000000000000, 118.9638762099999951 ) ) ;
#1255 = VERTEX_POINT ( 'NONE', #112 ) ;
#1256 = DIRECTION ( 'NONE',  ( 0.000000000000000000, -1.000000000000000000, 0.000000000000000000 ) ) ;
#1257 = FACE_BOUND ( 'NONE', #940, .T. ) ;
#1258 = DIRECTION ( 'NONE',  ( 0.000000000000000000, 0.000000000000000000, 1.000000000000000000 ) ) ;
#1259 = ORIENTED_EDGE ( 'NONE', *, *, #1194, .F. ) ;
#1260 = EDGE_CURVE ( 'NONE', #709, #1228, #1153, .T. ) ;
#1261 = CARTESIAN_POINT ( 'NONE',  ( 1607.047305942000094, -50.00000000000000000, 118.9638762099999951 ) ) ;
#1262 = CARTESIAN_POINT ( 'NONE',  ( 1598.297306792999962, -168.5000000000000853, 153.9638762099999951 ) ) ;
#1263 = DIRECTION ( 'NONE',  ( 0.000000000000000000, 0.000000000000000000, 1.000000000000000000 ) ) ;
#1264 = DIRECTION ( 'NONE',  ( 0.000000000000000000, -1.000000000000000000, 0.000000000000000000 ) ) ;
#1265 = ORIENTED_EDGE ( 'NONE', *, *, #1163, .F. ) ;
#1266 = AXIS2_PLACEMENT_3D ( 'NONE', #469, #174, #386 ) ;
#1267 = DIRECTION ( 'NONE',  ( -1.000000000000000000, 0.000000000000000000, 0.000000000000000000 ) ) ;
#1268 = VECTOR ( 'NONE', #598, 1000.000000000000000 ) ;
#1269 = EDGE_CURVE ( 'NONE', #204, #662, #1056, .T. ) ;
#1270 = MECHANICAL_DESIGN_GEOMETRIC_PRESENTATION_REPRESENTATION (  '', ( #580 ), #749 ) ;
#1271 = CARTESIAN_POINT ( 'NONE',  ( 1579.047306793000189, -1347.000000000000000, 124.9638762100000093 ) ) ;
#1272 = AXIS2_PLACEMENT_3D ( 'NONE', #49, #884, #1312 ) ;
#1273 = EDGE_CURVE ( 'NONE', #1346, #497, #522, .T. ) ;
#1274 = FACE_OUTER_BOUND ( 'NONE', #871, .T. ) ;
#1275 = ORIENTED_EDGE ( 'NONE', *, *, #1213, .F. ) ;
#1276 = SURFACE_SIDE_STYLE ('',( #1159 ) ) ;
#1277 = DIRECTION ( 'NONE',  ( -0.000000000000000000, -0.000000000000000000, 1.000000000000000000 ) ) ;
#1278 = EDGE_CURVE ( 'NONE', #6, #1097, #400, .T. ) ;
#1279 = CARTESIAN_POINT ( 'NONE',  ( 1610.000000000000000, -580.7799999999999727, 155.9638762099999951 ) ) ;
#1280 = EDGE_LOOP ( 'NONE', ( #483, #240 ) ) ;
#1281 = EDGE_LOOP ( 'NONE', ( #154, #998, #227, #86 ) ) ;
#1282 = DIRECTION ( 'NONE',  ( -0.000000000000000000, -0.000000000000000000, 1.000000000000000000 ) ) ;
#1283 = FACE_OUTER_BOUND ( 'NONE', #1111, .T. ) ;
#1284 = SURFACE_STYLE_USAGE ( .BOTH. , #549 ) ;
#1285 = APPLICATION_PROTOCOL_DEFINITION ( 'draft international standard', 'automotive_design', 1998, #5 ) ;
#1286 = VERTEX_POINT ( 'NONE', #414 ) ;
#1287 = ORIENTED_EDGE ( 'NONE', *, *, #722, .F. ) ;
#1288 = CARTESIAN_POINT ( 'NONE',  ( 1621.047306792999962, -50.00000000000029843, 123.9638762100000093 ) ) ;
#1289 = VECTOR ( 'NONE', #906, 1000.000000000000000 ) ;
#1290 = DIRECTION ( 'NONE',  ( 0.000000000000000000, 0.000000000000000000, -1.000000000000000000 ) ) ;
#1291 = DIRECTION ( 'NONE',  ( -1.000000000000000000, 0.000000000000000000, 0.000000000000000000 ) ) ;
#1292 = SURFACE_SIDE_STYLE ('',( #441 ) ) ;
#1293 = VECTOR ( 'NONE', #520, 1000.000000000000000 ) ;
#1294 = PRESENTATION_LAYER_ASSIGNMENT (  '', '', ( #1113 ) ) ;
#1295 = ORIENTED_EDGE ( 'NONE', *, *, #162, .F. ) ;
#1296 = ORIENTED_EDGE ( 'NONE', *, *, #715, .T. ) ;
#1297 = DIRECTION ( 'NONE',  ( 0.000000000000000000, 1.000000000000000000, 0.000000000000000000 ) ) ;
#1298 = CARTESIAN_POINT ( 'NONE',  ( 1620.047306792989957, -50.00000000000000000, 158.9638762099999951 ) ) ;
#1299 = DIRECTION ( 'NONE',  ( -0.000000000000000000, -0.000000000000000000, 1.000000000000000000 ) ) ;
#1300 = VERTEX_POINT ( 'NONE', #1125 ) ;
#1301 = VERTEX_POINT ( 'NONE', #840 ) ;
#1302 = CARTESIAN_POINT ( 'NONE',  ( 1595.047305942000094, -1347.000000000000000, 118.9638762099999951 ) ) ;
#1303 = EDGE_CURVE ( 'NONE', #449, #667, #317, .T. ) ;
#1304 = FACE_BOUND ( 'NONE', #381, .T. ) ;
#1305 = FACE_OUTER_BOUND ( 'NONE', #38, .T. ) ;
#1306 = LINE ( 'NONE', #1108, #773 ) ;
#1307 = VERTEX_POINT ( 'NONE', #727 ) ;
#1308 = DIRECTION ( 'NONE',  ( 1.000000000000000000, 0.000000000000000000, 0.000000000000000000 ) ) ;
#1309 = LINE ( 'NONE', #157, #208 ) ;
#1310 = EDGE_CURVE ( 'NONE', #470, #917, #256, .T. ) ;
#1311 = AXIS2_PLACEMENT_3D ( 'NONE', #1066, #12, #962 ) ;
#1312 = DIRECTION ( 'NONE',  ( 0.000000000000000000, 0.000000000000000000, -1.000000000000000000 ) ) ;
#1313 = ADVANCED_FACE ( 'NONE', ( #200 ), #635, .F. ) ;
#1314 = VECTOR ( 'NONE', #123, 1000.000000000000000 ) ;
#1315 = VERTEX_POINT ( 'NONE', #916 ) ;
#1316 = ORIENTED_EDGE ( 'NONE', *, *, #323, .F. ) ;
#1317 = CARTESIAN_POINT ( 'NONE',  ( 1601.047305942000094, -1347.000000000000000, 118.9638762099999951 ) ) ;
#1318 = DIRECTION ( 'NONE',  ( 0.000000000000000000, 1.000000000000000000, 0.000000000000000000 ) ) ;
#1319 = EDGE_CURVE ( 'NONE', #1338, #662, #214, .T. ) ;
#1320 = DIRECTION ( 'NONE',  ( -1.000000000000000000, 0.000000000000000000, 0.000000000000000000 ) ) ;
#1321 = ORIENTED_EDGE ( 'NONE', *, *, #1031, .F. ) ;
#1322 = CARTESIAN_POINT ( 'NONE',  ( 1607.047305942000094, -1347.000000000000000, 121.9638762100000093 ) ) ;
#1323 = CARTESIAN_POINT ( 'NONE',  ( 1598.297306792999962, -168.5000000000000853, 155.9638762099999951 ) ) ;
#1324 = DIRECTION ( 'NONE',  ( 1.000000000000000000, 0.000000000000000000, 0.000000000000000000 ) ) ;
#1325 = ORIENTED_EDGE ( 'NONE', *, *, #1013, .T. ) ;
#1326 = DIRECTION ( 'NONE',  ( 1.000000000000000000, 0.000000000000000000, 0.000000000000000000 ) ) ;
#1327 = CARTESIAN_POINT ( 'NONE',  ( 1623.047306792999962, -1347.000000000000000, 152.9638762099999951 ) ) ;
#1328 = ORIENTED_EDGE ( 'NONE', *, *, #96, .T. ) ;
#1329 = AXIS2_PLACEMENT_3D ( 'NONE', #618, #604, #283 ) ;
#1330 = VECTOR ( 'NONE', #1082, 1000.000000000000000 ) ;
#1331 = VERTEX_POINT ( 'NONE', #516 ) ;
#1332 = VECTOR ( 'NONE', #589, 1000.000000000000000 ) ;
#1333 = MECHANICAL_DESIGN_GEOMETRIC_PRESENTATION_REPRESENTATION (  '', ( #1113 ), #1085 ) ;
#1334 = EDGE_CURVE ( 'NONE', #1300, #1243, #1337, .T. ) ;
#1335 = LINE ( 'NONE', #380, #1268 ) ;
#1336 = SURFACE_STYLE_USAGE ( .BOTH. , #611 ) ;
#1337 = LINE ( 'NONE', #107, #960 ) ;
#1338 = VERTEX_POINT ( 'NONE', #392 ) ;
#1339 = UNCERTAINTY_MEASURE_WITH_UNIT (LENGTH_MEASURE( 1.000000000000000082E-05 ), #741, 'distance_accuracy_value', 'NONE');
#1340 = CYLINDRICAL_SURFACE ( 'NONE', #163, 3.000000000000002665 ) ;
#1341 = ADVANCED_FACE ( 'NONE', ( #194 ), #184, .T. ) ;
#1342 = ORIENTED_EDGE ( 'NONE', *, *, #880, .F. ) ;
#1343 = DIRECTION ( 'NONE',  ( 1.000000000000000000, 0.000000000000000000, 0.000000000000000000 ) ) ;
#1344 = DIRECTION ( 'NONE',  ( -0.000000000000000000, -0.000000000000000000, 1.000000000000000000 ) ) ;
#1345 = CARTESIAN_POINT ( 'NONE',  ( 1582.047306793000189, -50.00000000000000000, 124.9638762100000093 ) ) ;
#1346 = VERTEX_POINT ( 'NONE', #612 ) ;
#1347 = DIRECTION ( 'NONE',  ( 0.000000000000000000, 0.000000000000000000, -1.000000000000000000 ) ) ;
#1348 = ORIENTED_EDGE ( 'NONE', *, *, #1057, .T. ) ;
#1349 = SURFACE_STYLE_USAGE ( .BOTH. , #309 ) ;
#1350 = ADVANCED_FACE ( 'NONE', ( #1036 ), #4, .F. ) ;
#1351 =( LENGTH_UNIT ( ) NAMED_UNIT ( * ) SI_UNIT ( .MILLI., .METRE. ) );
#1352 = AXIS2_PLACEMENT_3D ( 'NONE', #631, #1, #859 ) ;
#1353 = VERTEX_POINT ( 'NONE', #705 ) ;
#1354 = AXIS2_PLACEMENT_3D ( 'NONE', #348, #1297, #465 ) ;
#1355 = VECTOR ( 'NONE', #1107, 1000.000000000000000 ) ;
#1356 = DIRECTION ( 'NONE',  ( -1.000000000000000000, 0.000000000000000000, 0.000000000000000000 ) ) ;
#1357 = CIRCLE ( 'NONE', #343, 2.999999999999891642 ) ;
#1358 = EDGE_LOOP ( 'NONE', ( #587, #1071, #1259, #724 ) ) ;
#1359 = DIRECTION ( 'NONE',  ( 0.000000000000000000, 0.000000000000000000, 1.000000000000000000 ) ) ;
#1360 =( NAMED_UNIT ( * ) PLANE_ANGLE_UNIT ( ) SI_UNIT ( $, .RADIAN. ) );
#1361 = CARTESIAN_POINT ( 'NONE',  ( 1620.047306792989957, -50.00000000000000000, 158.9638762099999951 ) ) ;
#1362 = ORIENTED_EDGE ( 'NONE', *, *, #185, .T. ) ;
ENDSEC;
END-ISO-10303-21;
