ISO-10303-21;
HEADER;
FILE_DESCRIPTION (( 'STEP AP214' ),
    '1' );
FILE_NAME ('XH-YJ38-LJ-001-A0-底盘方通A.STEP',
    '2026-06-04T09:57:10',
    ( 'Microsoft' ),
    ( 'Microsoft' ),
    'SwSTEP 2.0',
    'SolidWorks 2020',
    '' );
FILE_SCHEMA (( 'AUTOMOTIVE_DESIGN' ));
ENDSEC;

DATA;
#1 = CARTESIAN_POINT ( 'NONE',  ( 1580.919884014999980, -5.960665795000000600, 152.9638762099999951 ) ) ;
#2 = ORIENTED_EDGE ( 'NONE', *, *, #376, .F. ) ;
#3 = DIRECTION ( 'NONE',  ( 1.000000000000000000, 0.000000000000000000, 0.000000000000000000 ) ) ;
#4 = CARTESIAN_POINT ( 'NONE',  ( 475.9198840150000365, -5.960665795000000600, 155.9638762099999951 ) ) ;
#5 = FACE_OUTER_BOUND ( 'NONE', #155, .T. ) ;
#6 = ORIENTED_EDGE ( 'NONE', *, *, #583, .T. ) ;
#7 = CARTESIAN_POINT ( 'NONE',  ( 1576.919884014999980, 0.03933420500000000403, 124.9638762100000093 ) ) ;
#8 = PLANE ( 'NONE',  #305 ) ;
#9 = ADVANCED_FACE ( 'NONE', ( #65 ), #966, .F. ) ;
#10 = VECTOR ( 'NONE', #279, 1000.000000000000000 ) ;
#11 = CARTESIAN_POINT ( 'NONE',  ( 1449.169884015000434, -24.96066579499999705, 155.9638762099999951 ) ) ;
#12 = AXIS2_PLACEMENT_3D ( 'NONE', #741, #28, #748 ) ;
#13 = VERTEX_POINT ( 'NONE', #593 ) ;
#14 = DIRECTION ( 'NONE',  ( -0.000000000000000000, -0.000000000000000000, 1.000000000000000000 ) ) ;
#15 = AXIS2_PLACEMENT_3D ( 'NONE', #941, #847, #1041 ) ;
#16 = CIRCLE ( 'NONE', #666, 2.750000000000030198 ) ;
#17 = CARTESIAN_POINT ( 'NONE',  ( 1576.919884014999980, -5.960665795000000600, 155.9638762099999951 ) ) ;
#18 = CARTESIAN_POINT ( 'NONE',  ( 475.9198840150000365, 0.03933420499999812359, 144.9638762099999951 ) ) ;
#19 = ORIENTED_EDGE ( 'NONE', *, *, #806, .F. ) ;
#20 = CARTESIAN_POINT ( 'NONE',  ( 886.4198840150002070, -24.96066579499999705, 158.9638762099999951 ) ) ;
#21 = LINE ( 'NONE', #459, #10 ) ;
#22 = CARTESIAN_POINT ( 'NONE',  ( 1576.919884014999980, 0.03933420499999812359, 132.9638762099999099 ) ) ;
#23 = ORIENTED_EDGE ( 'NONE', *, *, #1038, .F. ) ;
#24 = EDGE_CURVE ( 'NONE', #473, #973, #987, .T. ) ;
#25 = CARTESIAN_POINT ( 'NONE',  ( 1576.919884014999980, -46.96066579500000415, 124.9638762100000093 ) ) ;
#26 = DIRECTION ( 'NONE',  ( 0.000000000000000000, 0.000000000000000000, 1.000000000000000000 ) ) ;
#27 = VERTEX_POINT ( 'NONE', #548 ) ;
#28 = DIRECTION ( 'NONE',  ( -0.000000000000000000, -0.000000000000000000, 1.000000000000000000 ) ) ;
#29 = VECTOR ( 'NONE', #948, 1000.000000000000000 ) ;
#30 = CIRCLE ( 'NONE', #727, 3.000000000000002665 ) ;
#31 = LINE ( 'NONE', #197, #69 ) ;
#32 = VECTOR ( 'NONE', #753, 1000.000000000000000 ) ;
#33 = VECTOR ( 'NONE', #827, 1000.000000000000000 ) ;
#34 = EDGE_CURVE ( 'NONE', #165, #1114, #1111, .T. ) ;
#35 = CARTESIAN_POINT ( 'NONE',  ( 1166.419884015000207, -24.96066579499999705, 158.9638762099999951 ) ) ;
#36 = ORIENTED_EDGE ( 'NONE', *, *, #150, .T. ) ;
#37 = LINE ( 'NONE', #491, #32 ) ;
#38 = EDGE_LOOP ( 'NONE', ( #715, #749, #775, #597 ) ) ;
#39 = DIRECTION ( 'NONE',  ( 0.000000000000000000, 0.000000000000000000, -1.000000000000000000 ) ) ;
#40 = EDGE_CURVE ( 'NONE', #1078, #497, #109, .T. ) ;
#41 = DIRECTION ( 'NONE',  ( -0.000000000000000000, -1.000000000000000000, -0.000000000000000000 ) ) ;
#42 = EDGE_LOOP ( 'NONE', ( #612, #324, #321, #824 ) ) ;
#43 = LINE ( 'NONE', #124, #472 ) ;
#44 = VERTEX_POINT ( 'NONE', #114 ) ;
#45 = CARTESIAN_POINT ( 'NONE',  ( 1443.669884014999980, -24.96066579499999705, 155.9638762099999951 ) ) ;
#46 = DIRECTION ( 'NONE',  ( 0.000000000000000000, 1.000000000000000000, 0.000000000000000000 ) ) ;
#47 = ADVANCED_FACE ( 'NONE', ( #265 ), #378, .T. ) ;
#48 = EDGE_LOOP ( 'NONE', ( #296, #288, #300, #861, #158, #579, #974, #525 ) ) ;
#49 = DIRECTION ( 'NONE',  ( -0.000000000000000000, -0.000000000000000000, 1.000000000000000000 ) ) ;
#50 = EDGE_CURVE ( 'NONE', #1148, #81, #260, .T. ) ;
#51 = ORIENTED_EDGE ( 'NONE', *, *, #936, .T. ) ;
#52 = LINE ( 'NONE', #239, #989 ) ;
#53 = AXIS2_PLACEMENT_3D ( 'NONE', #771, #1135, #318 ) ;
#54 = VECTOR ( 'NONE', #945, 1000.000000000000000 ) ;
#55 = EDGE_LOOP ( 'NONE', ( #1062, #170, #6, #765, #400, #870, #996, #1024 ) ) ;
#56 = DIRECTION ( 'NONE',  ( -1.000000000000000000, 0.000000000000000000, 0.000000000000000000 ) ) ;
#57 = ORIENTED_EDGE ( 'NONE', *, *, #193, .T. ) ;
#58 = EDGE_CURVE ( 'NONE', #1078, #248, #780, .T. ) ;
#59 = CARTESIAN_POINT ( 'NONE',  ( 1576.919884014999980, -46.96066579500000415, 124.9638762100000093 ) ) ;
#60 = PRODUCT_DEFINITION_SHAPE ( 'NONE', 'NONE',  #576 ) ;
#61 = ORIENTED_EDGE ( 'NONE', *, *, #944, .T. ) ;
#62 = DIRECTION ( 'NONE',  ( 0.000000000000000000, 0.000000000000000000, -1.000000000000000000 ) ) ;
#63 = DIRECTION ( 'NONE',  ( 0.000000000000000000, 0.000000000000000000, -1.000000000000000000 ) ) ;
#64 = ADVANCED_FACE ( 'NONE', ( #357 ), #90, .T. ) ;
#65 = FACE_OUTER_BOUND ( 'NONE', #407, .T. ) ;
#66 = CARTESIAN_POINT ( 'NONE',  ( 603.6698840150000933, -24.96066579499999705, 155.9638762099999951 ) ) ;
#67 = ORIENTED_EDGE ( 'NONE', *, *, #34, .T. ) ;
#68 = DIRECTION ( 'NONE',  ( 0.000000000000000000, 0.000000000000000000, -1.000000000000000000 ) ) ;
#69 = VECTOR ( 'NONE', #377, 1000.000000000000000 ) ;
#70 = LINE ( 'NONE', #311, #350 ) ;
#71 = AXIS2_PLACEMENT_3D ( 'NONE', #543, #905, #640 ) ;
#72 = CIRCLE ( 'NONE', #784, 6.000000000000088818 ) ;
#73 = EDGE_CURVE ( 'NONE', #699, #1132, #1001, .T. ) ;
#74 = VECTOR ( 'NONE', #194, 1000.000000000000000 ) ;
#75 = ORIENTED_EDGE ( 'NONE', *, *, #227, .F. ) ;
#76 = VERTEX_POINT ( 'NONE', #199 ) ;
#77 = LINE ( 'NONE', #716, #269 ) ;
#78 = CARTESIAN_POINT ( 'NONE',  ( 475.9198840150000365, -49.96066579499999705, 124.9638762100000093 ) ) ;
#79 = EDGE_CURVE ( 'NONE', #501, #353, #290, .T. ) ;
#80 = ORIENTED_EDGE ( 'NONE', *, *, #278, .T. ) ;
#81 = VERTEX_POINT ( 'NONE', #532 ) ;
#82 = DIRECTION ( 'NONE',  ( 0.000000000000000000, 0.000000000000000000, -1.000000000000000000 ) ) ;
#83 = CARTESIAN_POINT ( 'NONE',  ( 1446.419884015000207, -24.96066579499999705, 153.9638762099999951 ) ) ;
#84 = VERTEX_POINT ( 'NONE', #615 ) ;
#85 = ORIENTED_EDGE ( 'NONE', *, *, #250, .F. ) ;
#86 = DIRECTION ( 'NONE',  ( 0.000000000000000000, 0.000000000000000000, -1.000000000000000000 ) ) ;
#87 = EDGE_CURVE ( 'NONE', #392, #789, #908, .T. ) ;
#88 = CYLINDRICAL_SURFACE ( 'NONE', #856, 2.750000000000252243 ) ;
#89 = VECTOR ( 'NONE', #100, 1000.000000000000000 ) ;
#90 = PLANE ( 'NONE',  #591 ) ;
#91 = PRESENTATION_STYLE_ASSIGNMENT (( #1056 ) ) ;
#92 = VECTOR ( 'NONE', #822, 1000.000000000000000 ) ;
#93 = VERTEX_POINT ( 'NONE', #11 ) ;
#94 = CARTESIAN_POINT ( 'NONE',  ( 475.9198840150000365, -43.96066579499999705, 124.9638762100000093 ) ) ;
#95 = EDGE_CURVE ( 'NONE', #115, #13, #270, .T. ) ;
#96 = PLANE ( 'NONE',  #642 ) ;
#97 = DIRECTION ( 'NONE',  ( -0.000000000000000000, -0.000000000000000000, 1.000000000000000000 ) ) ;
#98 = ORIENTED_EDGE ( 'NONE', *, *, #927, .T. ) ;
#99 =( NAMED_UNIT ( * ) SI_UNIT ( $, .STERADIAN. ) SOLID_ANGLE_UNIT ( ) );
#100 = DIRECTION ( 'NONE',  ( 0.000000000000000000, 0.000000000000000000, -1.000000000000000000 ) ) ;
#101 = ADVANCED_FACE ( 'NONE', ( #903 ), #919, .F. ) ;
#102 = EDGE_CURVE ( 'NONE', #132, #302, #813, .T. ) ;
#103 = DIRECTION ( 'NONE',  ( 0.000000000000000000, 0.000000000000000000, 1.000000000000000000 ) ) ;
#104 = ORIENTED_EDGE ( 'NONE', *, *, #1027, .T. ) ;
#105 = FILL_AREA_STYLE_COLOUR ( '', #327 ) ;
#106 = DIRECTION ( 'NONE',  ( 0.000000000000000000, 0.000000000000000000, 1.000000000000000000 ) ) ;
#107 = ADVANCED_FACE ( 'NONE', ( #5 ), #719, .T. ) ;
#108 = AXIS2_PLACEMENT_3D ( 'NONE', #1137, #226, #475 ) ;
#109 = LINE ( 'NONE', #988, #626 ) ;
#110 = VECTOR ( 'NONE', #427, 1000.000000000000000 ) ;
#111 = ORIENTED_EDGE ( 'NONE', *, *, #503, .F. ) ;
#112 = DIRECTION ( 'NONE',  ( 0.000000000000000000, 0.000000000000000000, 1.000000000000000000 ) ) ;
#113 = CARTESIAN_POINT ( 'NONE',  ( 1430.919884014999980, -46.96066579500000415, 123.9638762100000093 ) ) ;
#114 = CARTESIAN_POINT ( 'NONE',  ( 475.9198840150000365, -4.960665795000000600, 121.9638762100000093 ) ) ;
#115 = VERTEX_POINT ( 'NONE', #18 ) ;
#116 = DIRECTION ( 'NONE',  ( -0.000000000000000000, -0.000000000000000000, 1.000000000000000000 ) ) ;
#117 = CYLINDRICAL_SURFACE ( 'NONE', #562, 3.000000000000002665 ) ;
#118 = DIRECTION ( 'NONE',  ( 0.000000000000000000, 0.000000000000000000, 1.000000000000000000 ) ) ;
#119 = ORIENTED_EDGE ( 'NONE', *, *, #932, .F. ) ;
#120 = EDGE_CURVE ( 'NONE', #735, #520, #541, .T. ) ;
#121 = CARTESIAN_POINT ( 'NONE',  ( 1576.919884014999980, -49.96066579499999705, 152.9638762099999951 ) ) ;
#122 = CARTESIAN_POINT ( 'NONE',  ( 475.9198840150000365, 0.03933420499999812359, 132.9638762100000235 ) ) ;
#123 = ORIENTED_EDGE ( 'NONE', *, *, #157, .T. ) ;
#124 = CARTESIAN_POINT ( 'NONE',  ( 889.1698840150000933, -24.96066579499999705, 153.9638762099999951 ) ) ;
#125 = VECTOR ( 'NONE', #1054, 1000.000000000000000 ) ;
#126 = AXIS2_PLACEMENT_3D ( 'NONE', #313, #658, #776 ) ;
#127 = FACE_OUTER_BOUND ( 'NONE', #1116, .T. ) ;
#128 = EDGE_CURVE ( 'NONE', #654, #385, #457, .T. ) ;
#129 = FACE_OUTER_BOUND ( 'NONE', #709, .T. ) ;
#130 = ORIENTED_EDGE ( 'NONE', *, *, #679, .F. ) ;
#131 = FACE_OUTER_BOUND ( 'NONE', #758, .T. ) ;
#132 = VERTEX_POINT ( 'NONE', #374 ) ;
#133 = DIRECTION ( 'NONE',  ( -1.000000000000000000, 0.000000000000000000, 0.000000000000000000 ) ) ;
#134 = DIRECTION ( 'NONE',  ( 1.000000000000000000, 0.000000000000000000, 0.000000000000000000 ) ) ;
#135 = EDGE_CURVE ( 'NONE', #385, #497, #1100, .T. ) ;
#136 = ORIENTED_EDGE ( 'NONE', *, *, #651, .T. ) ;
#137 = DIRECTION ( 'NONE',  ( -1.000000000000000000, 0.000000000000000000, 0.000000000000000000 ) ) ;
#138 = ORIENTED_EDGE ( 'NONE', *, *, #869, .F. ) ;
#139 = DIRECTION ( 'NONE',  ( 1.000000000000000000, 0.000000000000000000, 0.000000000000000000 ) ) ;
#140 = FACE_BOUND ( 'NONE', #413, .T. ) ;
#141 = EDGE_CURVE ( 'NONE', #1155, #980, #860, .T. ) ;
#142 = ORIENTED_EDGE ( 'NONE', *, *, #87, .T. ) ;
#143 = CARTESIAN_POINT ( 'NONE',  ( 886.4198840150002070, -24.96066579499999705, 155.9638762099999951 ) ) ;
#144 = ORIENTED_EDGE ( 'NONE', *, *, #50, .F. ) ;
#145 = DIRECTION ( 'NONE',  ( 0.000000000000000000, 0.000000000000000000, -1.000000000000000000 ) ) ;
#146 = AXIS2_PLACEMENT_3D ( 'NONE', #421, #787, #3 ) ;
#147 = VECTOR ( 'NONE', #223, 1000.000000000000000 ) ;
#148 = ORIENTED_EDGE ( 'NONE', *, *, #264, .F. ) ;
#149 = LINE ( 'NONE', #233, #236 ) ;
#150 = EDGE_CURVE ( 'NONE', #1114, #647, #477, .T. ) ;
#151 = ORIENTED_EDGE ( 'NONE', *, *, #431, .T. ) ;
#152 = FACE_OUTER_BOUND ( 'NONE', #1036, .T. ) ;
#153 = ORIENTED_EDGE ( 'NONE', *, *, #1060, .T. ) ;
#154 = CARTESIAN_POINT ( 'NONE',  ( 475.9198840150000365, -5.960665795000000600, 152.9638762099999951 ) ) ;
#155 = EDGE_LOOP ( 'NONE', ( #85, #819, #505, #246 ) ) ;
#156 = CARTESIAN_POINT ( 'NONE',  ( 1576.919884014999980, 0.03933420499999812359, 138.9638762099999951 ) ) ;
#157 = EDGE_CURVE ( 'NONE', #93, #480, #1118, .T. ) ;
#158 = ORIENTED_EDGE ( 'NONE', *, *, #162, .F. ) ;
#159 = ORIENTED_EDGE ( 'NONE', *, *, #316, .F. ) ;
#160 = DIRECTION ( 'NONE',  ( 0.000000000000000000, -1.000000000000000000, 0.000000000000000000 ) ) ;
#161 = DIRECTION ( 'NONE',  ( 1.000000000000000000, 0.000000000000000000, 0.000000000000000000 ) ) ;
#162 = EDGE_CURVE ( 'NONE', #513, #721, #184, .T. ) ;
#163 = CIRCLE ( 'NONE', #972, 2.749999999999919176 ) ;
#164 = CIRCLE ( 'NONE', #1031, 6.000000000000000000 ) ;
#165 = VERTEX_POINT ( 'NONE', #858 ) ;
#166 = VERTEX_POINT ( 'NONE', #122 ) ;
#167 = FACE_OUTER_BOUND ( 'NONE', #865, .T. ) ;
#168 = LINE ( 'NONE', #881, #1143 ) ;
#169 = ADVANCED_FACE ( 'NONE', ( #483, #552, #140, #204, #129 ), #850, .T. ) ;
#170 = ORIENTED_EDGE ( 'NONE', *, *, #503, .T. ) ;
#171 = ORIENTED_EDGE ( 'NONE', *, *, #467, .F. ) ;
#172 = LINE ( 'NONE', #526, #763 ) ;
#173 = DIRECTION ( 'NONE',  ( 0.000000000000000000, 1.000000000000000000, 0.000000000000000000 ) ) ;
#174 = CARTESIAN_POINT ( 'NONE',  ( 1580.919884014999980, -5.960665795000000600, 124.9638762100000093 ) ) ;
#175 = SURFACE_STYLE_FILL_AREA ( #689 ) ;
#176 = EDGE_CURVE ( 'NONE', #302, #863, #756, .T. ) ;
#177 = EDGE_LOOP ( 'NONE', ( #261, #585, #319, #242 ) ) ;
#178 = CARTESIAN_POINT ( 'NONE',  ( 1576.919884014999980, -2.960665794999999711, 138.9638762099999951 ) ) ;
#179 = FACE_OUTER_BOUND ( 'NONE', #1123, .T. ) ;
#180 = VECTOR ( 'NONE', #1133, 1000.000000000000000 ) ;
#181 = AXIS2_PLACEMENT_3D ( 'NONE', #433, #258, #613 ) ;
#182 = DIRECTION ( 'NONE',  ( 0.000000000000000000, 0.000000000000000000, -1.000000000000000000 ) ) ;
#183 = CIRCLE ( 'NONE', #53, 2.750000000000252243 ) ;
#184 = CIRCLE ( 'NONE', #879, 6.000000000000088818 ) ;
#185 = ORIENTED_EDGE ( 'NONE', *, *, #817, .T. ) ;
#186 = EDGE_CURVE ( 'NONE', #27, #854, #16, .T. ) ;
#187 = FACE_OUTER_BOUND ( 'NONE', #205, .T. ) ;
#188 = DIRECTION ( 'NONE',  ( 0.000000000000000000, 0.000000000000000000, 1.000000000000000000 ) ) ;
#189 = CARTESIAN_POINT ( 'NONE',  ( 475.9198840150000365, -46.96066579500000415, 124.9638762100000093 ) ) ;
#190 = VERTEX_POINT ( 'NONE', #557 ) ;
#191 = CARTESIAN_POINT ( 'NONE',  ( 1576.919884014999980, -2.960665794999999711, 152.9638762099999951 ) ) ;
#192 = CARTESIAN_POINT ( 'NONE',  ( 475.9198840150000365, -134.9606657950000113, 182.9638762099999951 ) ) ;
#193 = EDGE_CURVE ( 'NONE', #452, #735, #837, .T. ) ;
#194 = DIRECTION ( 'NONE',  ( 0.000000000000000000, 1.000000000000000000, 0.000000000000000000 ) ) ;
#195 = ORIENTED_EDGE ( 'NONE', *, *, #696, .T. ) ;
#196 = LINE ( 'NONE', #201, #1048 ) ;
#197 = CARTESIAN_POINT ( 'NONE',  ( 475.9198840150000365, -43.96066579499999705, 158.9638762099999951 ) ) ;
#198 = AXIS2_PLACEMENT_3D ( 'NONE', #494, #864, #39 ) ;
#199 = CARTESIAN_POINT ( 'NONE',  ( 475.9198840150000365, -2.960665794999999711, 123.9638762100000093 ) ) ;
#200 = ORIENTED_EDGE ( 'NONE', *, *, #150, .F. ) ;
#201 = CARTESIAN_POINT ( 'NONE',  ( 1443.669884014999980, -24.96066579499999705, 153.9638762099999951 ) ) ;
#202 = AXIS2_PLACEMENT_3D ( 'NONE', #665, #393, #474 ) ;
#203 = DIRECTION ( 'NONE',  ( 0.000000000000000000, 0.000000000000000000, 1.000000000000000000 ) ) ;
#204 = FACE_BOUND ( 'NONE', #747, .T. ) ;
#205 = EDGE_LOOP ( 'NONE', ( #200, #151, #153, #1058 ) ) ;
#206 = LINE ( 'NONE', #282, #348 ) ;
#207 = CARTESIAN_POINT ( 'NONE',  ( 1576.919884014999980, -5.960665795000000600, 118.9638762099999951 ) ) ;
#208 = CARTESIAN_POINT ( 'NONE',  ( 1449.169884015000434, -24.96066579499999705, 153.9638762099999951 ) ) ;
#209 = VERTEX_POINT ( 'NONE', #465 ) ;
#210 = DIRECTION ( 'NONE',  ( 1.000000000000000000, 0.000000000000000000, 0.000000000000000000 ) ) ;
#211 = EDGE_CURVE ( 'NONE', #1045, #721, #1015, .T. ) ;
#212 = VERTEX_POINT ( 'NONE', #751 ) ;
#213 = LINE ( 'NONE', #121, #251 ) ;
#214 = DIRECTION ( 'NONE',  ( 0.000000000000000000, 0.000000000000000000, -1.000000000000000000 ) ) ;
#215 = AXIS2_PLACEMENT_3D ( 'NONE', #268, #807, #971 ) ;
#216 = ORIENTED_EDGE ( 'NONE', *, *, #823, .F. ) ;
#217 = DIRECTION ( 'NONE',  ( 1.000000000000000000, 0.000000000000000000, 0.000000000000000000 ) ) ;
#218 = EDGE_CURVE ( 'NONE', #209, #115, #844, .T. ) ;
#219 = CIRCLE ( 'NONE', #589, 5.999999999999977796 ) ;
#220 = ORIENTED_EDGE ( 'NONE', *, *, #936, .F. ) ;
#221 = LINE ( 'NONE', #778, #180 ) ;
#222 = AXIS2_PLACEMENT_3D ( 'NONE', #983, #619, #280 ) ;
#223 = DIRECTION ( 'NONE',  ( 1.000000000000000000, 0.000000000000000000, 0.000000000000000000 ) ) ;
#224 = ORIENTED_EDGE ( 'NONE', *, *, #1112, .T. ) ;
#225 = CARTESIAN_POINT ( 'NONE',  ( 475.9198840150000365, -49.96066579499999705, 132.9638762100000235 ) ) ;
#226 = DIRECTION ( 'NONE',  ( 1.000000000000000000, 0.000000000000000000, 0.000000000000000000 ) ) ;
#227 = EDGE_CURVE ( 'NONE', #392, #497, #1072, .T. ) ;
#228 = LINE ( 'NONE', #304, #645 ) ;
#229 = EDGE_LOOP ( 'NONE', ( #940, #426, #685, #19, #560, #885, #702, #946, #942, #2, #620, #772 ) ) ;
#230 = CARTESIAN_POINT ( 'NONE',  ( 606.4198840150000933, -24.96066579499999705, 158.9638762099999951 ) ) ;
#231 = CYLINDRICAL_SURFACE ( 'NONE', #345, 5.999999999999977796 ) ;
#232 = EDGE_LOOP ( 'NONE', ( #1040, #914 ) ) ;
#233 = CARTESIAN_POINT ( 'NONE',  ( 1576.919884014999980, -5.960665795000000600, 158.9638762099999951 ) ) ;
#234 = PLANE ( 'NONE',  #1009 ) ;
#235 = CIRCLE ( 'NONE', #896, 2.749999999999919176 ) ;
#236 = VECTOR ( 'NONE', #295, 1000.000000000000000 ) ;
#237 = CARTESIAN_POINT ( 'NONE',  ( 1576.919884014999980, -43.96066579499999705, 124.9638762100000093 ) ) ;
#238 = ORIENTED_EDGE ( 'NONE', *, *, #73, .F. ) ;
#239 = CARTESIAN_POINT ( 'NONE',  ( 1576.919884014999980, -49.96066579499999705, 152.9638762099999951 ) ) ;
#240 = ORIENTED_EDGE ( 'NONE', *, *, #211, .F. ) ;
#241 = CARTESIAN_POINT ( 'NONE',  ( 1576.919884014999980, 0.03933420499999812359, 138.9638762099999951 ) ) ;
#242 = ORIENTED_EDGE ( 'NONE', *, *, #79, .T. ) ;
#243 = ADVANCED_FACE ( 'NONE', ( #924 ), #764, .F. ) ;
#244 = DIRECTION ( 'NONE',  ( 0.000000000000000000, -1.000000000000000000, 0.000000000000000000 ) ) ;
#245 = DIRECTION ( 'NONE',  ( 1.000000000000000000, 0.000000000000000000, 0.000000000000000000 ) ) ;
#246 = ORIENTED_EDGE ( 'NONE', *, *, #482, .T. ) ;
#247 = DIRECTION ( 'NONE',  ( 1.000000000000000000, 0.000000000000000000, 0.000000000000000000 ) ) ;
#248 = VERTEX_POINT ( 'NONE', #1129 ) ;
#249 = CARTESIAN_POINT ( 'NONE',  ( 1576.919884014999980, -49.96066579499999705, 132.9638762099999099 ) ) ;
#250 = EDGE_CURVE ( 'NONE', #1034, #398, #70, .T. ) ;
#251 = VECTOR ( 'NONE', #742, 1000.000000000000000 ) ;
#252 = CARTESIAN_POINT ( 'NONE',  ( 475.9198840150000365, -49.96066579499999705, 124.9638762100000093 ) ) ;
#253 = AXIS2_PLACEMENT_3D ( 'NONE', #178, #244, #600 ) ;
#254 = CIRCLE ( 'NONE', #441, 2.750000000000030198 ) ;
#255 = ORIENTED_EDGE ( 'NONE', *, *, #718, .F. ) ;
#256 = CARTESIAN_POINT ( 'NONE',  ( 0.000000000000000000, 0.000000000000000000, 0.000000000000000000 ) ) ;
#257 = ORIENTED_EDGE ( 'NONE', *, *, #912, .F. ) ;
#258 = DIRECTION ( 'NONE',  ( 1.000000000000000000, 0.000000000000000000, 0.000000000000000000 ) ) ;
#259 = FACE_OUTER_BOUND ( 'NONE', #317, .T. ) ;
#260 = LINE ( 'NONE', #189, #328 ) ;
#261 = ORIENTED_EDGE ( 'NONE', *, *, #463, .F. ) ;
#262 = CARTESIAN_POINT ( 'NONE',  ( 1576.919884014999980, 0.03933420499999812359, 144.9638762100000804 ) ) ;
#263 = CARTESIAN_POINT ( 'NONE',  ( 606.4198840150000933, -24.96066579499999705, 158.9638762099999951 ) ) ;
#264 = EDGE_CURVE ( 'NONE', #166, #342, #228, .T. ) ;
#265 = FACE_OUTER_BOUND ( 'NONE', #754, .T. ) ;
#266 = VERTEX_POINT ( 'NONE', #577 ) ;
#267 = CARTESIAN_POINT ( 'NONE',  ( 1576.919884014999980, -49.96066579499999705, 152.9638762099999951 ) ) ;
#268 = CARTESIAN_POINT ( 'NONE',  ( 1580.919884014999980, -43.96066579499999705, 124.9638762100000093 ) ) ;
#269 = VECTOR ( 'NONE', #691, 1000.000000000000000 ) ;
#270 = LINE ( 'NONE', #729, #686 ) ;
#271 = ORIENTED_EDGE ( 'NONE', *, *, #732, .T. ) ;
#272 = DIRECTION ( 'NONE',  ( 0.000000000000000000, 0.000000000000000000, -1.000000000000000000 ) ) ;
#273 = EDGE_CURVE ( 'NONE', #863, #248, #424, .T. ) ;
#274 = DIRECTION ( 'NONE',  ( 0.000000000000000000, 1.000000000000000000, 0.000000000000000000 ) ) ;
#275 = CARTESIAN_POINT ( 'NONE',  ( 886.4198840150002070, -24.96066579499999705, 153.9638762099999951 ) ) ;
#276 = ORIENTED_EDGE ( 'NONE', *, *, #1144, .F. ) ;
#277 = CARTESIAN_POINT ( 'NONE',  ( 1576.919884014999980, -43.96066579499999705, 118.9638762099999951 ) ) ;
#278 = EDGE_CURVE ( 'NONE', #1132, #872, #805, .T. ) ;
#279 = DIRECTION ( 'NONE',  ( 1.000000000000000000, 0.000000000000000000, 0.000000000000000000 ) ) ;
#280 = DIRECTION ( 'NONE',  ( -1.000000000000000000, 0.000000000000000000, 0.000000000000000000 ) ) ;
#281 = ORIENTED_EDGE ( 'NONE', *, *, #718, .T. ) ;
#282 = CARTESIAN_POINT ( 'NONE',  ( 1576.919884014999980, -4.960665795000000600, 121.9638762100000093 ) ) ;
#283 = DIRECTION ( 'NONE',  ( 0.000000000000000000, 0.000000000000000000, -1.000000000000000000 ) ) ;
#284 = EDGE_CURVE ( 'NONE', #418, #398, #982, .T. ) ;
#285 = AXIS2_PLACEMENT_3D ( 'NONE', #544, #750, #274 ) ;
#286 = DIRECTION ( 'NONE',  ( 0.000000000000000000, 0.000000000000000000, 1.000000000000000000 ) ) ;
#287 = VECTOR ( 'NONE', #399, 1000.000000000000000 ) ;
#288 = ORIENTED_EDGE ( 'NONE', *, *, #176, .T. ) ;
#289 =( LENGTH_UNIT ( ) NAMED_UNIT ( * ) SI_UNIT ( .MILLI., .METRE. ) );
#290 = CIRCLE ( 'NONE', #1092, 5.999999999999998224 ) ;
#291 = CARTESIAN_POINT ( 'NONE',  ( 475.9198840150000365, 0.03933420499999812359, 138.9638762099999951 ) ) ;
#292 = ADVANCED_FACE ( 'NONE', ( #179 ), #360, .F. ) ;
#293 = DIRECTION ( 'NONE',  ( 1.000000000000000000, 0.000000000000000000, 0.000000000000000000 ) ) ;
#294 = ORIENTED_EDGE ( 'NONE', *, *, #732, .F. ) ;
#295 = DIRECTION ( 'NONE',  ( 0.000000000000000000, -1.000000000000000000, 0.000000000000000000 ) ) ;
#296 = ORIENTED_EDGE ( 'NONE', *, *, #1138, .F. ) ;
#297 = LINE ( 'NONE', #933, #623 ) ;
#298 = CARTESIAN_POINT ( 'NONE',  ( 1576.919884014999980, 0.03933420499999812359, 144.9638762100000804 ) ) ;
#299 = EDGE_CURVE ( 'NONE', #507, #973, #511, .T. ) ;
#300 = ORIENTED_EDGE ( 'NONE', *, *, #273, .T. ) ;
#301 = DIRECTION ( 'NONE',  ( 0.000000000000000000, 0.000000000000000000, 1.000000000000000000 ) ) ;
#302 = VERTEX_POINT ( 'NONE', #717 ) ;
#303 = DIRECTION ( 'NONE',  ( 0.000000000000000000, 0.000000000000000000, -1.000000000000000000 ) ) ;
#304 = CARTESIAN_POINT ( 'NONE',  ( 475.9198840150000365, 0.03933420499999812359, 132.9638762100000235 ) ) ;
#305 = AXIS2_PLACEMENT_3D ( 'NONE', #738, #381, #203 ) ;
#306 = ORIENTED_EDGE ( 'NONE', *, *, #812, .F. ) ;
#307 = CARTESIAN_POINT ( 'NONE',  ( 1169.169884015000207, -24.96066579499999705, 155.9638762099999951 ) ) ;
#308 =( GEOMETRIC_REPRESENTATION_CONTEXT ( 3 ) GLOBAL_UNCERTAINTY_ASSIGNED_CONTEXT ( ( #1099 ) ) GLOBAL_UNIT_ASSIGNED_CONTEXT ( ( #963, #876, #790 ) ) REPRESENTATION_CONTEXT ( 'NONE', 'WORKASPACE' ) );
#309 = ADVANCED_FACE ( 'NONE', ( #799 ), #96, .F. ) ;
#310 = CARTESIAN_POINT ( 'NONE',  ( 475.9198840150000365, -49.96066579499999705, 152.9638762099999951 ) ) ;
#311 = CARTESIAN_POINT ( 'NONE',  ( 475.9198840150000365, -5.960665795000000600, 118.9638762099999951 ) ) ;
#312 = ORIENTED_EDGE ( 'NONE', *, *, #898, .T. ) ;
#313 = CARTESIAN_POINT ( 'NONE',  ( 475.9198840150000365, -4.960665795000000600, 123.9638762100000093 ) ) ;
#314 = ORIENTED_EDGE ( 'NONE', *, *, #1057, .F. ) ;
#315 = CARTESIAN_POINT ( 'NONE',  ( 475.9198840150000365, -43.96066579499999705, 155.9638762099999951 ) ) ;
#316 = EDGE_CURVE ( 'NONE', #44, #507, #692, .T. ) ;
#317 = EDGE_LOOP ( 'NONE', ( #138, #1082, #123, #195 ) ) ;
#318 = DIRECTION ( 'NONE',  ( 1.000000000000000000, 0.000000000000000000, 0.000000000000000000 ) ) ;
#319 = ORIENTED_EDGE ( 'NONE', *, *, #476, .F. ) ;
#320 = DIRECTION ( 'NONE',  ( 0.000000000000000000, 1.000000000000000000, 0.000000000000000000 ) ) ;
#321 = ORIENTED_EDGE ( 'NONE', *, *, #250, .T. ) ;
#322 = DIRECTION ( 'NONE',  ( 0.000000000000000000, 1.000000000000000000, 0.000000000000000000 ) ) ;
#323 = AXIS2_PLACEMENT_3D ( 'NONE', #174, #913, #1086 ) ;
#324 = ORIENTED_EDGE ( 'NONE', *, *, #643, .T. ) ;
#325 = DIRECTION ( 'NONE',  ( -1.000000000000000000, 0.000000000000000000, 0.000000000000000000 ) ) ;
#326 = VECTOR ( 'NONE', #303, 1000.000000000000000 ) ;
#327 = COLOUR_RGB ( '',0.6509803921568627638, 0.6196078431372549211, 0.5882352941176470784 ) ;
#328 = VECTOR ( 'NONE', #627, 1000.000000000000000 ) ;
#329 = EDGE_CURVE ( 'NONE', #839, #166, #894, .T. ) ;
#330 = ORIENTED_EDGE ( 'NONE', *, *, #970, .T. ) ;
#331 = ORIENTED_EDGE ( 'NONE', *, *, #1125, .T. ) ;
#332 = DIRECTION ( 'NONE',  ( 0.000000000000000000, 0.000000000000000000, -1.000000000000000000 ) ) ;
#333 = CYLINDRICAL_SURFACE ( 'NONE', #802, 2.750000000000252243 ) ;
#334 = VERTEX_POINT ( 'NONE', #707 ) ;
#335 = ADVANCED_FACE ( 'NONE', ( #259 ), #88, .F. ) ;
#336 = ORIENTED_EDGE ( 'NONE', *, *, #812, .T. ) ;
#337 = LINE ( 'NONE', #1079, #1108 ) ;
#338 = ADVANCED_FACE ( 'NONE', ( #713 ), #517, .T. ) ;
#339 = LINE ( 'NONE', #252, #455 ) ;
#340 = ORIENTED_EDGE ( 'NONE', *, *, #73, .T. ) ;
#341 = CARTESIAN_POINT ( 'NONE',  ( 1166.419884015000207, -24.96066579499999705, 155.9638762099999951 ) ) ;
#342 = VERTEX_POINT ( 'NONE', #887 ) ;
#343 = LINE ( 'NONE', #886, #405 ) ;
#344 = EDGE_CURVE ( 'NONE', #385, #549, #723, .T. ) ;
#345 = AXIS2_PLACEMENT_3D ( 'NONE', #769, #499, #868 ) ;
#346 = CARTESIAN_POINT ( 'NONE',  ( 1576.919884014999980, 0.03933420499999700642, 152.9638762099999951 ) ) ;
#347 = PRODUCT_DEFINITION_CONTEXT ( 'detailed design', #979, 'design' ) ;
#348 = VECTOR ( 'NONE', #1008, 1000.000000000000000 ) ;
#349 = STYLED_ITEM ( 'NONE', ( #91 ), #586 ) ;
#350 = VECTOR ( 'NONE', #564, 1000.000000000000000 ) ;
#351 = VERTEX_POINT ( 'NONE', #78 ) ;
#352 = FACE_OUTER_BOUND ( 'NONE', #968, .T. ) ;
#353 = VERTEX_POINT ( 'NONE', #428 ) ;
#354 = DIRECTION ( 'NONE',  ( 0.000000000000000000, 1.000000000000000000, 0.000000000000000000 ) ) ;
#355 = DIRECTION ( 'NONE',  ( 0.000000000000000000, -1.000000000000000000, 0.000000000000000000 ) ) ;
#356 = EDGE_CURVE ( 'NONE', #1003, #351, #624, .T. ) ;
#357 = FACE_OUTER_BOUND ( 'NONE', #55, .T. ) ;
#358 = ORIENTED_EDGE ( 'NONE', *, *, #1138, .T. ) ;
#359 = CARTESIAN_POINT ( 'NONE',  ( 1576.919884014999980, 0.03933420499999812359, 132.9638762099999099 ) ) ;
#360 = CYLINDRICAL_SURFACE ( 'NONE', #935, 2.750000000000030198 ) ;
#361 = EDGE_CURVE ( 'NONE', #647, #711, #366, .T. ) ;
#362 = DIRECTION ( 'NONE',  ( 0.000000000000000000, -1.000000000000000000, 0.000000000000000000 ) ) ;
#363 = ORIENTED_EDGE ( 'NONE', *, *, #141, .F. ) ;
#364 = CARTESIAN_POINT ( 'NONE',  ( 475.9198840150000365, -2.960665794999999711, 138.9638762099999951 ) ) ;
#365 = FACE_BOUND ( 'NONE', #1126, .T. ) ;
#366 = CIRCLE ( 'NONE', #382, 2.750000000000030198 ) ;
#367 = AXIS2_PLACEMENT_3D ( 'NONE', #386, #116, #915 ) ;
#368 = CARTESIAN_POINT ( 'NONE',  ( 1576.919884014999980, -43.96066579499999705, 152.9638762099999951 ) ) ;
#369 = AXIS2_PLACEMENT_3D ( 'NONE', #488, #1113, #571 ) ;
#370 = EDGE_CURVE ( 'NONE', #334, #973, #168, .T. ) ;
#371 = ORIENTED_EDGE ( 'NONE', *, *, #583, .F. ) ;
#372 = DIRECTION ( 'NONE',  ( 1.000000000000000000, 0.000000000000000000, 0.000000000000000000 ) ) ;
#373 = DIRECTION ( 'NONE',  ( -1.000000000000000000, 0.000000000000000000, 0.000000000000000000 ) ) ;
#374 = CARTESIAN_POINT ( 'NONE',  ( 475.9198840150000365, -49.96066579499999705, 144.9638762099999951 ) ) ;
#375 = ORIENTED_EDGE ( 'NONE', *, *, #667, .T. ) ;
#376 = EDGE_CURVE ( 'NONE', #418, #266, #1029, .T. ) ;
#377 = DIRECTION ( 'NONE',  ( 1.000000000000000000, 0.000000000000000000, 0.000000000000000000 ) ) ;
#378 = CYLINDRICAL_SURFACE ( 'NONE', #957, 6.000000000000005329 ) ;
#379 = ORIENTED_EDGE ( 'NONE', *, *, #218, .T. ) ;
#380 = CYLINDRICAL_SURFACE ( 'NONE', #12, 2.750000000000030198 ) ;
#381 = DIRECTION ( 'NONE',  ( -1.000000000000000000, 0.000000000000000000, 0.000000000000000000 ) ) ;
#382 = AXIS2_PLACEMENT_3D ( 'NONE', #263, #188, #906 ) ;
#383 = DIRECTION ( 'NONE',  ( 0.000000000000000000, 1.000000000000000000, 0.000000000000000000 ) ) ;
#384 = CIRCLE ( 'NONE', #588, 2.000000000000001776 ) ;
#385 = VERTEX_POINT ( 'NONE', #4 ) ;
#386 = CARTESIAN_POINT ( 'NONE',  ( 606.4198840150000933, -24.96066579499999705, 153.9638762099999951 ) ) ;
#387 = VECTOR ( 'NONE', #173, 1000.000000000000000 ) ;
#388 = DIRECTION ( 'NONE',  ( 0.000000000000000000, 0.000000000000000000, -1.000000000000000000 ) ) ;
#389 = ADVANCED_FACE ( 'NONE', ( #788 ), #333, .F. ) ;
#390 = DIRECTION ( 'NONE',  ( 0.000000000000000000, 0.000000000000000000, -1.000000000000000000 ) ) ;
#391 = EDGE_CURVE ( 'NONE', #351, #266, #339, .T. ) ;
#392 = VERTEX_POINT ( 'NONE', #1159 ) ;
#393 = DIRECTION ( 'NONE',  ( 0.000000000000000000, 0.000000000000000000, -1.000000000000000000 ) ) ;
#394 = VERTEX_POINT ( 'NONE', #346 ) ;
#395 = FACE_OUTER_BOUND ( 'NONE', #951, .T. ) ;
#396 = DIRECTION ( 'NONE',  ( 0.000000000000000000, 0.000000000000000000, 1.000000000000000000 ) ) ;
#397 = ADVANCED_FACE ( 'NONE', ( #1022 ), #641, .T. ) ;
#398 = VERTEX_POINT ( 'NONE', #207 ) ;
#399 = DIRECTION ( 'NONE',  ( -0.000000000000000000, -0.000000000000000000, 1.000000000000000000 ) ) ;
#400 = ORIENTED_EDGE ( 'NONE', *, *, #798, .F. ) ;
#401 = CARTESIAN_POINT ( 'NONE',  ( 1576.919884014999980, -2.960665794999999711, 132.9638762099999099 ) ) ;
#402 = DIRECTION ( 'NONE',  ( -0.000000000000000000, -0.000000000000000000, 1.000000000000000000 ) ) ;
#403 = EDGE_LOOP ( 'NONE', ( #447, #1101, #224, #897 ) ) ;
#404 = CARTESIAN_POINT ( 'NONE',  ( 475.9198840150000365, -49.96066579499999705, 138.9638762099999951 ) ) ;
#405 = VECTOR ( 'NONE', #82, 1000.000000000000000 ) ;
#406 =( GEOMETRIC_REPRESENTATION_CONTEXT ( 3 ) GLOBAL_UNCERTAINTY_ASSIGNED_CONTEXT ( ( #1000 ) ) GLOBAL_UNIT_ASSIGNED_CONTEXT ( ( #783, #514, #710 ) ) REPRESENTATION_CONTEXT ( 'NONE', 'WORKASPACE' ) );
#407 = EDGE_LOOP ( 'NONE', ( #238, #61, #104, #420 ) ) ;
#408 = VECTOR ( 'NONE', #46, 1000.000000000000000 ) ;
#409 = CARTESIAN_POINT ( 'NONE',  ( 475.9198840150000365, -43.96066579499999705, 118.9638762099999951 ) ) ;
#410 = ORIENTED_EDGE ( 'NONE', *, *, #95, .F. ) ;
#411 = DIRECTION ( 'NONE',  ( 0.000000000000000000, 0.000000000000000000, -1.000000000000000000 ) ) ;
#412 = DIRECTION ( 'NONE',  ( 0.000000000000000000, 0.000000000000000000, 1.000000000000000000 ) ) ;
#413 = EDGE_LOOP ( 'NONE', ( #276, #363 ) ) ;
#414 = DIRECTION ( 'NONE',  ( -1.000000000000000000, 0.000000000000000000, 0.000000000000000000 ) ) ;
#415 = ORIENTED_EDGE ( 'NONE', *, *, #40, .F. ) ;
#416 = DIRECTION ( 'NONE',  ( 1.000000000000000000, 0.000000000000000000, 0.000000000000000000 ) ) ;
#417 = EDGE_CURVE ( 'NONE', #13, #394, #21, .T. ) ;
#418 = VERTEX_POINT ( 'NONE', #733 ) ;
#419 = CARTESIAN_POINT ( 'NONE',  ( 1163.669884015000207, -24.96066579499999705, 155.9638762099999951 ) ) ;
#420 = ORIENTED_EDGE ( 'NONE', *, *, #845, .T. ) ;
#421 = CARTESIAN_POINT ( 'NONE',  ( 1446.419884015000207, -24.96066579499999705, 158.9638762099999951 ) ) ;
#422 = AXIS2_PLACEMENT_3D ( 'NONE', #618, #986, #793 ) ;
#423 = CIRCLE ( 'NONE', #181, 6.000000000000005329 ) ;
#424 = LINE ( 'NONE', #1033, #147 ) ;
#425 = VERTEX_POINT ( 'NONE', #636 ) ;
#426 = ORIENTED_EDGE ( 'NONE', *, *, #120, .T. ) ;
#427 = DIRECTION ( 'NONE',  ( 0.000000000000000000, 1.000000000000000000, 0.000000000000000000 ) ) ;
#428 = CARTESIAN_POINT ( 'NONE',  ( 1576.919884014999980, -43.96066579499999705, 158.9638762099999951 ) ) ;
#429 = ORIENTED_EDGE ( 'NONE', *, *, #58, .T. ) ;
#430 = APPLICATION_PROTOCOL_DEFINITION ( 'draft international standard', 'automotive_design', 1998, #979 ) ;
#431 = EDGE_CURVE ( 'NONE', #1114, #165, #506, .T. ) ;
#432 = ORIENTED_EDGE ( 'NONE', *, *, #135, .T. ) ;
#433 = CARTESIAN_POINT ( 'NONE',  ( 475.9198840150000365, -43.96066579499999705, 152.9638762099999951 ) ) ;
#434 = DIRECTION ( 'NONE',  ( -0.000000000000000000, -0.000000000000000000, 1.000000000000000000 ) ) ;
#435 = ORIENTED_EDGE ( 'NONE', *, *, #40, .T. ) ;
#436 = ORIENTED_EDGE ( 'NONE', *, *, #493, .F. ) ;
#437 = ADVANCED_FACE ( 'NONE', ( #826 ), #8, .T. ) ;
#438 = CARTESIAN_POINT ( 'NONE',  ( 1580.919884014999980, -49.96066579499999705, 123.9638762100000093 ) ) ;
#439 = CARTESIAN_POINT ( 'NONE',  ( 1446.419884015000207, -24.96066579499999705, 153.9638762099999951 ) ) ;
#440 = VECTOR ( 'NONE', #462, 1000.000000000000000 ) ;
#441 = AXIS2_PLACEMENT_3D ( 'NONE', #341, #1052, #801 ) ;
#442 = CARTESIAN_POINT ( 'NONE',  ( 1576.919884014999980, -43.96066579499999705, 152.9638762099999951 ) ) ;
#443 = ORIENTED_EDGE ( 'NONE', *, *, #637, .T. ) ;
#444 = LINE ( 'NONE', #1158, #1145 ) ;
#445 = DIRECTION ( 'NONE',  ( -0.000000000000000000, -0.000000000000000000, 1.000000000000000000 ) ) ;
#446 = CARTESIAN_POINT ( 'NONE',  ( 883.6698840150002070, -24.96066579499999705, 153.9638762099999951 ) ) ;
#447 = ORIENTED_EDGE ( 'NONE', *, *, #1038, .T. ) ;
#448 = SURFACE_SIDE_STYLE ('',( #736 ) ) ;
#449 = DIRECTION ( 'NONE',  ( 0.000000000000000000, -1.000000000000000000, 0.000000000000000000 ) ) ;
#450 = ADVANCED_FACE ( 'NONE', ( #918 ), #117, .F. ) ;
#451 = DIRECTION ( 'NONE',  ( 0.000000000000000000, 0.000000000000000000, -1.000000000000000000 ) ) ;
#452 = VERTEX_POINT ( 'NONE', #1005 ) ;
#453 = DIRECTION ( 'NONE',  ( -0.000000000000000000, -0.000000000000000000, 1.000000000000000000 ) ) ;
#454 = CARTESIAN_POINT ( 'NONE',  ( 475.9198840150000365, -43.96066579499999705, 121.9638762100000093 ) ) ;
#455 = VECTOR ( 'NONE', #609, 1000.000000000000000 ) ;
#456 = AXIS2_PLACEMENT_3D ( 'NONE', #931, #485, #1046 ) ;
#457 = LINE ( 'NONE', #1006, #92 ) ;
#458 = ORIENTED_EDGE ( 'NONE', *, *, #970, .F. ) ;
#459 = CARTESIAN_POINT ( 'NONE',  ( 475.9198840150000365, 0.03933420499999990688, 152.9638762099999951 ) ) ;
#460 = DIRECTION ( 'NONE',  ( 1.000000000000000000, 0.000000000000000000, 0.000000000000000000 ) ) ;
#461 = ORIENTED_EDGE ( 'NONE', *, *, #760, .F. ) ;
#462 = DIRECTION ( 'NONE',  ( 0.000000000000000000, 0.000000000000000000, 1.000000000000000000 ) ) ;
#463 = EDGE_CURVE ( 'NONE', #190, #353, #31, .T. ) ;
#464 = CARTESIAN_POINT ( 'NONE',  ( 1576.919884014999980, 0.03933420499999812359, 132.9638762099999099 ) ) ;
#465 = CARTESIAN_POINT ( 'NONE',  ( 475.9198840150000365, -2.960665795000009926, 144.9638762099999951 ) ) ;
#466 = ORIENTED_EDGE ( 'NONE', *, *, #944, .F. ) ;
#467 = EDGE_CURVE ( 'NONE', #513, #777, #923, .T. ) ;
#468 = FACE_OUTER_BOUND ( 'NONE', #38, .T. ) ;
#469 = AXIS2_PLACEMENT_3D ( 'NONE', #368, #739, #536 ) ;
#470 = AXIS2_PLACEMENT_3D ( 'NONE', #755, #325, #687 ) ;
#471 = CARTESIAN_POINT ( 'NONE',  ( 1166.419884015000207, -24.96066579499999705, 155.9638762099999951 ) ) ;
#472 = VECTOR ( 'NONE', #49, 1000.000000000000000 ) ;
#473 = VERTEX_POINT ( 'NONE', #25 ) ;
#474 = DIRECTION ( 'NONE',  ( -1.000000000000000000, 0.000000000000000000, 0.000000000000000000 ) ) ;
#475 = DIRECTION ( 'NONE',  ( 0.000000000000000000, 0.000000000000000000, -1.000000000000000000 ) ) ;
#476 = EDGE_CURVE ( 'NONE', #501, #628, #213, .T. ) ;
#477 = LINE ( 'NONE', #650, #54 ) ;
#478 = ORIENTED_EDGE ( 'NONE', *, *, #774, .F. ) ;
#479 = CARTESIAN_POINT ( 'NONE',  ( 475.9198840150000365, -5.960665795000000600, 118.9638762099999951 ) ) ;
#480 = VERTEX_POINT ( 'NONE', #561 ) ;
#481 = LINE ( 'NONE', #1127, #701 ) ;
#482 = EDGE_CURVE ( 'NONE', #671, #398, #681, .T. ) ;
#483 = FACE_BOUND ( 'NONE', #495, .T. ) ;
#484 = VERTEX_POINT ( 'NONE', #1109 ) ;
#485 = DIRECTION ( 'NONE',  ( 0.000000000000000000, 0.000000000000000000, 1.000000000000000000 ) ) ;
#486 = ORIENTED_EDGE ( 'NONE', *, *, #120, .F. ) ;
#487 = CARTESIAN_POINT ( 'NONE',  ( 603.6698840150000933, -24.96066579499999705, 158.9638762099999951 ) ) ;
#488 = CARTESIAN_POINT ( 'NONE',  ( 1430.919884014999980, -14.96066579499999882, 155.9638762099999951 ) ) ;
#489 = VECTOR ( 'NONE', #355, 1000.000000000000000 ) ;
#490 = ORIENTED_EDGE ( 'NONE', *, *, #817, .F. ) ;
#491 = CARTESIAN_POINT ( 'NONE',  ( 1576.919884014999980, -46.96066579500000415, 124.9638762100000093 ) ) ;
#492 = AXIS2_PLACEMENT_3D ( 'NONE', #364, #1090, #272 ) ;
#493 = EDGE_CURVE ( 'NONE', #166, #115, #954, .T. ) ;
#494 = CARTESIAN_POINT ( 'NONE',  ( 1430.919884014999980, -43.96066579499999705, 124.9638762100000093 ) ) ;
#495 = EDGE_LOOP ( 'NONE', ( #892, #542 ) ) ;
#496 = LINE ( 'NONE', #559, #287 ) ;
#497 = VERTEX_POINT ( 'NONE', #17 ) ;
#498 = ADVANCED_FACE ( 'NONE', ( #1093, #365, #928, #539, #468 ), #816, .F. ) ;
#499 = DIRECTION ( 'NONE',  ( -0.000000000000000000, -1.000000000000000000, -0.000000000000000000 ) ) ;
#500 = ORIENTED_EDGE ( 'NONE', *, *, #774, .T. ) ;
#501 = VERTEX_POINT ( 'NONE', #1117 ) ;
#502 = CARTESIAN_POINT ( 'NONE',  ( 1576.919884014999980, -49.96066579499999705, 138.9638762099999951 ) ) ;
#503 = EDGE_CURVE ( 'NONE', #342, #76, #297, .T. ) ;
#504 = ADVANCED_FACE ( 'NONE', ( #632 ), #999, .T. ) ;
#505 = ORIENTED_EDGE ( 'NONE', *, *, #757, .F. ) ;
#506 = CIRCLE ( 'NONE', #563, 2.750000000000030198 ) ;
#507 = VERTEX_POINT ( 'NONE', #454 ) ;
#508 = DIRECTION ( 'NONE',  ( 0.000000000000000000, 0.000000000000000000, -1.000000000000000000 ) ) ;
#509 = VECTOR ( 'NONE', #137, 1000.000000000000000 ) ;
#510 = PRODUCT_DEFINITION_FORMATION_WITH_SPECIFIED_SOURCE ( '任何', '', #680, .NOT_KNOWN. ) ;
#511 = LINE ( 'NONE', #522, #531 ) ;
#512 = EDGE_CURVE ( 'NONE', #721, #248, #821, .T. ) ;
#513 = VERTEX_POINT ( 'NONE', #1028 ) ;
#514 =( NAMED_UNIT ( * ) PLANE_ANGLE_UNIT ( ) SI_UNIT ( $, .RADIAN. ) );
#515 = ORIENTED_EDGE ( 'NONE', *, *, #737, .T. ) ;
#516 = DIRECTION ( 'NONE',  ( 0.000000000000000000, -1.000000000000000000, 0.000000000000000000 ) ) ;
#517 = CYLINDRICAL_SURFACE ( 'NONE', #215, 6.000000000000005329 ) ;
#518 = ORIENTED_EDGE ( 'NONE', *, *, #1019, .F. ) ;
#519 = DIRECTION ( 'NONE',  ( 0.000000000000000000, 0.000000000000000000, 1.000000000000000000 ) ) ;
#520 = VERTEX_POINT ( 'NONE', #401 ) ;
#521 = CYLINDRICAL_SURFACE ( 'NONE', #1091, 6.000000000000088818 ) ;
#522 = CARTESIAN_POINT ( 'NONE',  ( 475.9198840150000365, -43.96066579499999705, 121.9638762100000093 ) ) ;
#523 = DIRECTION ( 'NONE',  ( -0.000000000000000000, -1.000000000000000000, -0.000000000000000000 ) ) ;
#524 = DIRECTION ( 'NONE',  ( 1.000000000000000000, 0.000000000000000000, 0.000000000000000000 ) ) ;
#525 = ORIENTED_EDGE ( 'NONE', *, *, #50, .T. ) ;
#526 = CARTESIAN_POINT ( 'NONE',  ( 475.9198840150000365, 0.03933420499999812359, 132.9638762100000235 ) ) ;
#527 = AXIS2_PLACEMENT_3D ( 'NONE', #113, #1103, #556 ) ;
#528 = DIRECTION ( 'NONE',  ( -0.000000000000000000, -0.000000000000000000, 1.000000000000000000 ) ) ;
#529 = AXIS2_PLACEMENT_3D ( 'NONE', #653, #62, #414 ) ;
#530 = VECTOR ( 'NONE', #672, 1000.000000000000000 ) ;
#531 = VECTOR ( 'NONE', #245, 1000.000000000000000 ) ;
#532 = CARTESIAN_POINT ( 'NONE',  ( 475.9198840150000365, -46.96066579500000415, 132.9638762100000235 ) ) ;
#533 = EDGE_LOOP ( 'NONE', ( #652, #330, #611, #461 ) ) ;
#534 = EDGE_CURVE ( 'NONE', #1034, #839, #820, .T. ) ;
#535 = DIRECTION ( 'NONE',  ( 0.000000000000000000, -1.000000000000000000, 0.000000000000000000 ) ) ;
#536 = DIRECTION ( 'NONE',  ( 0.000000000000000000, 0.000000000000000000, 1.000000000000000000 ) ) ;
#537 = ORIENTED_EDGE ( 'NONE', *, *, #128, .T. ) ;
#538 = DIRECTION ( 'NONE',  ( 1.000000000000000000, 0.000000000000000000, 0.000000000000000000 ) ) ;
#539 = FACE_BOUND ( 'NONE', #770, .T. ) ;
#540 = EDGE_CURVE ( 'NONE', #520, #1164, #592, .T. ) ;
#541 = LINE ( 'NONE', #22, #1142 ) ;
#542 = ORIENTED_EDGE ( 'NONE', *, *, #431, .F. ) ;
#543 = CARTESIAN_POINT ( 'NONE',  ( 1430.919884014999980, -14.96066579499999882, 121.9638762100000093 ) ) ;
#544 = CARTESIAN_POINT ( 'NONE',  ( 1576.919884014999980, -5.960665795000000600, 124.9638762100000093 ) ) ;
#545 = VECTOR ( 'NONE', #63, 1000.000000000000000 ) ;
#546 = CIRCLE ( 'NONE', #202, 2.750000000000252243 ) ;
#547 = AXIS2_PLACEMENT_3D ( 'NONE', #646, #939, #656 ) ;
#548 = CARTESIAN_POINT ( 'NONE',  ( 1163.669884015000207, -24.96066579499999705, 158.9638762099999951 ) ) ;
#549 = VERTEX_POINT ( 'NONE', #762 ) ;
#550 = FACE_OUTER_BOUND ( 'NONE', #909, .T. ) ;
#551 = DIRECTION ( 'NONE',  ( 1.000000000000000000, 0.000000000000000000, 0.000000000000000000 ) ) ;
#552 = FACE_BOUND ( 'NONE', #693, .T. ) ;
#553 = EDGE_CURVE ( 'NONE', #549, #209, #1037, .T. ) ;
#554 = ORIENTED_EDGE ( 'NONE', *, *, #211, .T. ) ;
#555 = CARTESIAN_POINT ( 'NONE',  ( 475.9198840150000365, -46.96066579500000415, 152.9638762099999951 ) ) ;
#556 = DIRECTION ( 'NONE',  ( -1.000000000000000000, 0.000000000000000000, 0.000000000000000000 ) ) ;
#557 = CARTESIAN_POINT ( 'NONE',  ( 475.9198840150000365, -43.96066579499999705, 158.9638762099999951 ) ) ;
#558 = ORIENTED_EDGE ( 'NONE', *, *, #643, .F. ) ;
#559 = CARTESIAN_POINT ( 'NONE',  ( 1163.669884015000207, -24.96066579499999705, 153.9638762099999951 ) ) ;
#560 = ORIENTED_EDGE ( 'NONE', *, *, #370, .T. ) ;
#561 = CARTESIAN_POINT ( 'NONE',  ( 1449.169884015000434, -24.96066579499999705, 158.9638762099999951 ) ) ;
#562 = AXIS2_PLACEMENT_3D ( 'NONE', #1098, #551, #655 ) ;
#563 = AXIS2_PLACEMENT_3D ( 'NONE', #1011, #283, #373 ) ;
#564 = DIRECTION ( 'NONE',  ( 1.000000000000000000, 0.000000000000000000, 0.000000000000000000 ) ) ;
#565 = CIRCLE ( 'NONE', #836, 5.999999999999998224 ) ;
#566 = ORIENTED_EDGE ( 'NONE', *, *, #651, .F. ) ;
#567 = CARTESIAN_POINT ( 'NONE',  ( 1576.919884014999980, -43.96066579499999705, 121.9638762100000093 ) ) ;
#568 = VECTOR ( 'NONE', #451, 1000.000000000000000 ) ;
#569 = CARTESIAN_POINT ( 'NONE',  ( 475.9198840150000365, -5.960665795000009481, 158.9638762099999951 ) ) ;
#570 = ADVANCED_FACE ( 'NONE', ( #152 ), #1043, .F. ) ;
#571 = DIRECTION ( 'NONE',  ( -1.000000000000000000, 0.000000000000000000, 0.000000000000000000 ) ) ;
#572 = ORIENTED_EDGE ( 'NONE', *, *, #675, .T. ) ;
#573 = CARTESIAN_POINT ( 'NONE',  ( 1576.919884014999980, -49.96066579499999705, 144.9638762100000804 ) ) ;
#574 = ORIENTED_EDGE ( 'NONE', *, *, #476, .T. ) ;
#575 = LINE ( 'NONE', #569, #125 ) ;
#576 = PRODUCT_DEFINITION ( '未知', '', #510, #347 ) ;
#577 = CARTESIAN_POINT ( 'NONE',  ( 1576.919884014999980, -49.96066579499999705, 124.9638762100000093 ) ) ;
#578 = ADVANCED_FACE ( 'NONE', ( #395 ), #231, .F. ) ;
#579 = ORIENTED_EDGE ( 'NONE', *, *, #1087, .F. ) ;
#580 = DIRECTION ( 'NONE',  ( 1.000000000000000000, 0.000000000000000000, 0.000000000000000000 ) ) ;
#581 = ORIENTED_EDGE ( 'NONE', *, *, #344, .T. ) ;
#582 = CARTESIAN_POINT ( 'NONE',  ( 1580.919884014999980, 0.03933420500000000403, 123.9638762100000093 ) ) ;
#583 = EDGE_CURVE ( 'NONE', #76, #1164, #481, .T. ) ;
#584 = AXIS2_PLACEMENT_3D ( 'NONE', #943, #953, #139 ) ;
#585 = ORIENTED_EDGE ( 'NONE', *, *, #823, .T. ) ;
#586 = ADVANCED_BREP_SHAPE_REPRESENTATION ( 'XH-YJ38-LJ-001-A0-底盘方通A', ( #889, #1162 ), #406 ) ;
#587 = DIRECTION ( 'NONE',  ( 0.000000000000000000, 0.000000000000000000, -1.000000000000000000 ) ) ;
#588 = AXIS2_PLACEMENT_3D ( 'NONE', #969, #797, #508 ) ;
#589 = AXIS2_PLACEMENT_3D ( 'NONE', #967, #694, #871 ) ;
#590 = ORIENTED_EDGE ( 'NONE', *, *, #851, .F. ) ;
#591 = AXIS2_PLACEMENT_3D ( 'NONE', #734, #638, #103 ) ;
#592 = LINE ( 'NONE', #669, #545 ) ;
#593 = CARTESIAN_POINT ( 'NONE',  ( 475.9198840150000365, 0.03933420499999700642, 152.9638762099999951 ) ) ;
#594 = DIRECTION ( 'NONE',  ( 0.000000000000000000, 0.000000000000000000, -1.000000000000000000 ) ) ;
#595 = ORIENTED_EDGE ( 'NONE', *, *, #949, .T. ) ;
#596 = CARTESIAN_POINT ( 'NONE',  ( 886.4198840150002070, -24.96066579499999705, 155.9638762099999951 ) ) ;
#597 = ORIENTED_EDGE ( 'NONE', *, *, #631, .T. ) ;
#598 = CYLINDRICAL_SURFACE ( 'NONE', #877, 6.000000000000088818 ) ;
#599 = ORIENTED_EDGE ( 'NONE', *, *, #760, .T. ) ;
#600 = DIRECTION ( 'NONE',  ( 0.000000000000000000, 0.000000000000000000, -1.000000000000000000 ) ) ;
#601 = EDGE_CURVE ( 'NONE', #473, #1148, #221, .T. ) ;
#602 = DIRECTION ( 'NONE',  ( 0.000000000000000000, 0.000000000000000000, 1.000000000000000000 ) ) ;
#603 = EDGE_LOOP ( 'NONE', ( #657, #281, #590, #639 ) ) ;
#604 = APPLICATION_PROTOCOL_DEFINITION ( 'draft international standard', 'automotive_design', 1998, #1002 ) ;
#605 = VECTOR ( 'NONE', #830, 1000.000000000000000 ) ;
#606 = ORIENTED_EDGE ( 'NONE', *, *, #193, .F. ) ;
#607 = CARTESIAN_POINT ( 'NONE',  ( 475.9198840150000365, -43.96066579499999705, 152.9638762099999951 ) ) ;
#608 = AXIS2_PLACEMENT_3D ( 'NONE', #438, #354, #68 ) ;
#609 = DIRECTION ( 'NONE',  ( 1.000000000000000000, 0.000000000000000000, 0.000000000000000000 ) ) ;
#610 = ADVANCED_FACE ( 'NONE', ( #127 ), #234, .F. ) ;
#611 = ORIENTED_EDGE ( 'NONE', *, *, #186, .T. ) ;
#612 = ORIENTED_EDGE ( 'NONE', *, *, #851, .T. ) ;
#613 = DIRECTION ( 'NONE',  ( 0.000000000000000000, 0.000000000000000000, 1.000000000000000000 ) ) ;
#614 = CARTESIAN_POINT ( 'NONE',  ( 475.9198840150000365, 0.03933420499999120551, 124.9638762100000093 ) ) ;
#615 = CARTESIAN_POINT ( 'NONE',  ( 1576.919884014999980, -5.960665795000000600, 158.9638762099999951 ) ) ;
#616 = ORIENTED_EDGE ( 'NONE', *, *, #1112, .F. ) ;
#617 = DIRECTION ( 'NONE',  ( -0.000000000000000000, -1.000000000000000000, -0.000000000000000000 ) ) ;
#618 = CARTESIAN_POINT ( 'NONE',  ( 1576.919884014999980, -43.96066579499999705, 124.9638762100000093 ) ) ;
#619 = DIRECTION ( 'NONE',  ( 0.000000000000000000, 0.000000000000000000, -1.000000000000000000 ) ) ;
#620 = ORIENTED_EDGE ( 'NONE', *, *, #284, .T. ) ;
#621 = DIRECTION ( 'NONE',  ( -1.000000000000000000, 0.000000000000000000, 0.000000000000000000 ) ) ;
#622 = AXIS2_PLACEMENT_3D ( 'NONE', #1076, #1139, #682 ) ;
#623 = VECTOR ( 'NONE', #725, 1000.000000000000000 ) ;
#624 = LINE ( 'NONE', #994, #89 ) ;
#625 = PRESENTATION_LAYER_ASSIGNMENT (  '', '', ( #992 ) ) ;
#626 = VECTOR ( 'NONE', #995, 1000.000000000000000 ) ;
#627 = DIRECTION ( 'NONE',  ( 0.000000000000000000, 0.000000000000000000, 1.000000000000000000 ) ) ;
#628 = VERTEX_POINT ( 'NONE', #310 ) ;
#629 = ADVANCED_FACE ( 'NONE', ( #855 ), #773, .F. ) ;
#630 = LINE ( 'NONE', #191, #509 ) ;
#631 = EDGE_CURVE ( 'NONE', #425, #190, #575, .T. ) ;
#632 = FACE_OUTER_BOUND ( 'NONE', #1105, .T. ) ;
#633 = CARTESIAN_POINT ( 'NONE',  ( 475.9198840150000365, 0.03933420499999812359, 144.9638762099999951 ) ) ;
#634 = EDGE_LOOP ( 'NONE', ( #761, #730 ) ) ;
#635 = FACE_OUTER_BOUND ( 'NONE', #852, .T. ) ;
#636 = CARTESIAN_POINT ( 'NONE',  ( 475.9198840150000365, -5.960665795000000600, 158.9638762099999951 ) ) ;
#637 = EDGE_CURVE ( 'NONE', #854, #27, #1107, .T. ) ;
#638 = DIRECTION ( 'NONE',  ( 0.000000000000000000, -1.000000000000000000, 0.000000000000000000 ) ) ;
#639 = ORIENTED_EDGE ( 'NONE', *, *, #376, .T. ) ;
#640 = DIRECTION ( 'NONE',  ( 0.000000000000000000, 1.000000000000000000, 0.000000000000000000 ) ) ;
#641 = PLANE ( 'NONE',  #527 ) ;
#642 = AXIS2_PLACEMENT_3D ( 'NONE', #698, #1084, #602 ) ;
#643 = EDGE_CURVE ( 'NONE', #212, #1034, #1121, .T. ) ;
#644 = VECTOR ( 'NONE', #1004, 1000.000000000000000 ) ;
#645 = VECTOR ( 'NONE', #41, 1000.000000000000000 ) ;
#646 = CARTESIAN_POINT ( 'NONE',  ( 1576.919884014999980, -5.960665795000000600, 152.9638762099999951 ) ) ;
#647 = VERTEX_POINT ( 'NONE', #487 ) ;
#648 = CARTESIAN_POINT ( 'NONE',  ( 606.4198840150000933, -24.96066579499999705, 153.9638762099999951 ) ) ;
#649 = DIRECTION ( 'NONE',  ( 0.000000000000000000, -1.000000000000000000, 0.000000000000000000 ) ) ;
#650 = CARTESIAN_POINT ( 'NONE',  ( 603.6698840150000933, -24.96066579499999705, 153.9638762099999951 ) ) ;
#651 = EDGE_CURVE ( 'NONE', #501, #1045, #52, .T. ) ;
#652 = ORIENTED_EDGE ( 'NONE', *, *, #1144, .T. ) ;
#653 = CARTESIAN_POINT ( 'NONE',  ( 1446.419884015000207, -24.96066579499999705, 155.9638762099999951 ) ) ;
#654 = VERTEX_POINT ( 'NONE', #315 ) ;
#655 = DIRECTION ( 'NONE',  ( 0.000000000000000000, 0.000000000000000000, -1.000000000000000000 ) ) ;
#656 = DIRECTION ( 'NONE',  ( 0.000000000000000000, 1.000000000000000000, 0.000000000000000000 ) ) ;
#657 = ORIENTED_EDGE ( 'NONE', *, *, #391, .F. ) ;
#658 = DIRECTION ( 'NONE',  ( -1.000000000000000000, 0.000000000000000000, 0.000000000000000000 ) ) ;
#659 = ORIENTED_EDGE ( 'NONE', *, *, #907, .T. ) ;
#660 = CARTESIAN_POINT ( 'NONE',  ( 1576.919884014999980, 0.03933420499999700642, 124.9638762100000093 ) ) ;
#661 = CIRCLE ( 'NONE', #126, 2.000000000000000000 ) ;
#662 = DIRECTION ( 'NONE',  ( 0.000000000000000000, 1.000000000000000000, 0.000000000000000000 ) ) ;
#663 = MECHANICAL_DESIGN_GEOMETRIC_PRESENTATION_REPRESENTATION (  '', ( #349 ), #308 ) ;
#664 = ORIENTED_EDGE ( 'NONE', *, *, #128, .F. ) ;
#665 = CARTESIAN_POINT ( 'NONE',  ( 1446.419884015000207, -24.96066579499999705, 155.9638762099999951 ) ) ;
#666 = AXIS2_PLACEMENT_3D ( 'NONE', #35, #286, #134 ) ;
#667 = EDGE_CURVE ( 'NONE', #1078, #654, #674, .T. ) ;
#668 = VERTEX_POINT ( 'NONE', #849 ) ;
#669 = CARTESIAN_POINT ( 'NONE',  ( 1576.919884014999980, -2.960665794999999711, 152.9638762099999951 ) ) ;
#670 = CARTESIAN_POINT ( 'NONE',  ( 1576.919884014999980, 0.03933420499999812359, 138.9638762099999951 ) ) ;
#671 = VERTEX_POINT ( 'NONE', #660 ) ;
#672 = DIRECTION ( 'NONE',  ( -0.000000000000000000, -0.000000000000000000, 1.000000000000000000 ) ) ;
#673 = ORIENTED_EDGE ( 'NONE', *, *, #391, .T. ) ;
#674 = LINE ( 'NONE', #678, #781 ) ;
#675 = EDGE_CURVE ( 'NONE', #484, #699, #235, .T. ) ;
#676 = VERTEX_POINT ( 'NONE', #45 ) ;
#677 = CARTESIAN_POINT ( 'NONE',  ( 1430.919884014999980, -4.960665795000000600, 123.9638762100000093 ) ) ;
#678 = CARTESIAN_POINT ( 'NONE',  ( 1576.919884014999980, -43.96066579499999705, 155.9638762099999951 ) ) ;
#679 = EDGE_CURVE ( 'NONE', #84, #425, #337, .T. ) ;
#680 = PRODUCT ( 'XH-YJ38-LJ-001-A0-底盘方通A', 'XH-YJ38-LJ-001-A0-底盘方通A', '', ( #795 ) ) ;
#681 = CIRCLE ( 'NONE', #285, 6.000000000000000000 ) ;
#682 = DIRECTION ( 'NONE',  ( 1.000000000000000000, 0.000000000000000000, 0.000000000000000000 ) ) ;
#683 = CIRCLE ( 'NONE', #146, 2.750000000000252243 ) ;
#684 = CIRCLE ( 'NONE', #1071, 2.750000000000030198 ) ;
#685 = ORIENTED_EDGE ( 'NONE', *, *, #540, .T. ) ;
#686 = VECTOR ( 'NONE', #1094, 1000.000000000000000 ) ;
#687 = DIRECTION ( 'NONE',  ( 0.000000000000000000, 0.000000000000000000, 1.000000000000000000 ) ) ;
#688 = ORIENTED_EDGE ( 'NONE', *, *, #1125, .F. ) ;
#689 = FILL_AREA_STYLE ('',( #1063 ) ) ;
#690 = EDGE_LOOP ( 'NONE', ( #572, #340, #80, #740 ) ) ;
#691 = DIRECTION ( 'NONE',  ( -0.000000000000000000, -0.000000000000000000, 1.000000000000000000 ) ) ;
#692 = LINE ( 'NONE', #1150, #489 ) ;
#693 = EDGE_LOOP ( 'NONE', ( #803, #466 ) ) ;
#694 = DIRECTION ( 'NONE',  ( 0.000000000000000000, 1.000000000000000000, 0.000000000000000000 ) ) ;
#695 = ORIENTED_EDGE ( 'NONE', *, *, #553, .F. ) ;
#696 = EDGE_CURVE ( 'NONE', #480, #668, #683, .T. ) ;
#697 = CYLINDRICAL_SURFACE ( 'NONE', #917, 3.000000000000002665 ) ;
#698 = CARTESIAN_POINT ( 'NONE',  ( 1576.919884014999980, -134.9606657950000113, 182.9638762099999951 ) ) ;
#699 = VERTEX_POINT ( 'NONE', #873 ) ;
#700 = DIRECTION ( 'NONE',  ( -0.000000000000000000, -1.000000000000000000, -0.000000000000000000 ) ) ;
#701 = VECTOR ( 'NONE', #416, 1000.000000000000000 ) ;
#702 = ORIENTED_EDGE ( 'NONE', *, *, #1087, .T. ) ;
#703 = CARTESIAN_POINT ( 'NONE',  ( 1430.919884014999980, -5.960665795000000600, 152.9638762099999951 ) ) ;
#704 = AXIS2_PLACEMENT_3D ( 'NONE', #648, #14, #372 ) ;
#705 = AXIS2_PLACEMENT_3D ( 'NONE', #947, #210, #1120 ) ;
#706 = VECTOR ( 'NONE', #662, 1000.000000000000000 ) ;
#707 = CARTESIAN_POINT ( 'NONE',  ( 1576.919884014999980, -4.960665795000000600, 121.9638762100000093 ) ) ;
#708 = ADVANCED_FACE ( 'NONE', ( #1153 ), #521, .F. ) ;
#709 = EDGE_LOOP ( 'NONE', ( #432, #415, #375, #537 ) ) ;
#710 =( NAMED_UNIT ( * ) SI_UNIT ( $, .STERADIAN. ) SOLID_ANGLE_UNIT ( ) );
#711 = VERTEX_POINT ( 'NONE', #804 ) ;
#712 = DIRECTION ( 'NONE',  ( 1.000000000000000000, 0.000000000000000000, 0.000000000000000000 ) ) ;
#713 = FACE_OUTER_BOUND ( 'NONE', #603, .T. ) ;
#714 = DIRECTION ( 'NONE',  ( -1.000000000000000000, 0.000000000000000000, 0.000000000000000000 ) ) ;
#715 = ORIENTED_EDGE ( 'NONE', *, *, #463, .T. ) ;
#716 = CARTESIAN_POINT ( 'NONE',  ( 1169.169884015000207, -24.96066579499999705, 153.9638762099999951 ) ) ;
#717 = CARTESIAN_POINT ( 'NONE',  ( 475.9198840150000365, -46.96066579499998994, 144.9638762099999951 ) ) ;
#718 = EDGE_CURVE ( 'NONE', #351, #212, #565, .T. ) ;
#719 = CYLINDRICAL_SURFACE ( 'NONE', #323, 6.000000000000005329 ) ;
#720 = ADVANCED_FACE ( 'NONE', ( #1149 ), #697, .F. ) ;
#721 = VERTEX_POINT ( 'NONE', #899 ) ;
#722 = LINE ( 'NONE', #7, #440 ) ;
#723 = CIRCLE ( 'NONE', #1085, 3.000000000000002665 ) ;
#724 = AXIS2_PLACEMENT_3D ( 'NONE', #20, #112, #538 ) ;
#725 = DIRECTION ( 'NONE',  ( 0.000000000000000000, 0.000000000000000000, -1.000000000000000000 ) ) ;
#726 = UNCERTAINTY_MEASURE_WITH_UNIT (LENGTH_MEASURE( 1.000000000000000082E-05 ), #289, 'distance_accuracy_value', 'NONE');
#727 = AXIS2_PLACEMENT_3D ( 'NONE', #607, #975, #880 ) ;
#728 = AXIS2_PLACEMENT_3D ( 'NONE', #471, #1018, #950 ) ;
#729 = CARTESIAN_POINT ( 'NONE',  ( 475.9198840150000365, 0.03933420499999120551, 124.9638762100000093 ) ) ;
#730 = ORIENTED_EDGE ( 'NONE', *, *, #186, .F. ) ;
#731 = CARTESIAN_POINT ( 'NONE',  ( 889.1698840150000933, -24.96066579499999705, 158.9638762099999951 ) ) ;
#732 = EDGE_CURVE ( 'NONE', #789, #452, #1165, .T. ) ;
#733 = CARTESIAN_POINT ( 'NONE',  ( 1576.919884014999980, -43.96066579499999705, 118.9638762099999951 ) ) ;
#734 = CARTESIAN_POINT ( 'NONE',  ( 1430.919884014999980, -2.960665794999999711, 123.9638762100000093 ) ) ;
#735 = VERTEX_POINT ( 'NONE', #359 ) ;
#736 = SURFACE_STYLE_FILL_AREA ( #926 ) ;
#737 = EDGE_CURVE ( 'NONE', #81, #1003, #172, .T. ) ;
#738 = CARTESIAN_POINT ( 'NONE',  ( 475.9198840150000365, -134.9606657950000113, 182.9638762099999951 ) ) ;
#739 = DIRECTION ( 'NONE',  ( 1.000000000000000000, 0.000000000000000000, 0.000000000000000000 ) ) ;
#740 = ORIENTED_EDGE ( 'NONE', *, *, #1027, .F. ) ;
#741 = CARTESIAN_POINT ( 'NONE',  ( 1166.419884015000207, -24.96066579499999705, 153.9638762099999951 ) ) ;
#742 = DIRECTION ( 'NONE',  ( -1.000000000000000000, 0.000000000000000000, 0.000000000000000000 ) ) ;
#743 = VECTOR ( 'NONE', #320, 1000.000000000000000 ) ;
#744 = AXIS2_PLACEMENT_3D ( 'NONE', #677, #217, #866 ) ;
#745 = CIRCLE ( 'NONE', #15, 6.000000000000005329 ) ;
#746 = DIRECTION ( 'NONE',  ( 0.000000000000000000, -1.000000000000000000, 0.000000000000000000 ) ) ;
#747 = EDGE_LOOP ( 'NONE', ( #23, #518 ) ) ;
#748 = DIRECTION ( 'NONE',  ( 1.000000000000000000, 0.000000000000000000, 0.000000000000000000 ) ) ;
#749 = ORIENTED_EDGE ( 'NONE', *, *, #949, .F. ) ;
#750 = DIRECTION ( 'NONE',  ( -1.000000000000000000, 0.000000000000000000, 0.000000000000000000 ) ) ;
#751 = CARTESIAN_POINT ( 'NONE',  ( 475.9198840150000365, -43.96066579499999705, 118.9638762099999951 ) ) ;
#752 = ORIENTED_EDGE ( 'NONE', *, *, #898, .F. ) ;
#753 = DIRECTION ( 'NONE',  ( 0.000000000000000000, 0.000000000000000000, 1.000000000000000000 ) ) ;
#754 = EDGE_LOOP ( 'NONE', ( #846, #331, #130, #990 ) ) ;
#755 = CARTESIAN_POINT ( 'NONE',  ( 1576.919884014999980, -134.9606657950000113, 182.9638762099999951 ) ) ;
#756 = LINE ( 'NONE', #1104, #1032 ) ;
#757 = EDGE_CURVE ( 'NONE', #671, #839, #444, .T. ) ;
#758 = EDGE_LOOP ( 'NONE', ( #1069, #1151, #371, #51 ) ) ;
#759 = CARTESIAN_POINT ( 'NONE',  ( 609.1698840150002070, -24.96066579499999705, 153.9638762099999951 ) ) ;
#760 = EDGE_CURVE ( 'NONE', #980, #854, #77, .T. ) ;
#761 = ORIENTED_EDGE ( 'NONE', *, *, #637, .F. ) ;
#762 = CARTESIAN_POINT ( 'NONE',  ( 475.9198840150000365, -2.960665794999999711, 152.9638762099999951 ) ) ;
#763 = VECTOR ( 'NONE', #617, 1000.000000000000000 ) ;
#764 = CYLINDRICAL_SURFACE ( 'NONE', #1013, 5.999999999999977796 ) ;
#765 = ORIENTED_EDGE ( 'NONE', *, *, #540, .F. ) ;
#766 = FACE_OUTER_BOUND ( 'NONE', #177, .T. ) ;
#767 = ORIENTED_EDGE ( 'NONE', *, *, #417, .T. ) ;
#768 = ADVANCED_FACE ( 'NONE', ( #167 ), #1074, .F. ) ;
#769 = CARTESIAN_POINT ( 'NONE',  ( 475.9198840150000365, 0.03933420499999812359, 138.9638762099999951 ) ) ;
#770 = EDGE_LOOP ( 'NONE', ( #1073, #616 ) ) ;
#771 = CARTESIAN_POINT ( 'NONE',  ( 1446.419884015000207, -24.96066579499999705, 158.9638762099999951 ) ) ;
#772 = ORIENTED_EDGE ( 'NONE', *, *, #482, .F. ) ;
#773 = PLANE ( 'NONE',  #470 ) ;
#774 = EDGE_CURVE ( 'NONE', #1045, #777, #72, .T. ) ;
#775 = ORIENTED_EDGE ( 'NONE', *, *, #679, .T. ) ;
#776 = DIRECTION ( 'NONE',  ( 0.000000000000000000, 1.000000000000000000, 0.000000000000000000 ) ) ;
#777 = VERTEX_POINT ( 'NONE', #249 ) ;
#778 = CARTESIAN_POINT ( 'NONE',  ( 1576.919884014999980, -46.96066579500000415, 124.9638762100000093 ) ) ;
#779 = EDGE_CURVE ( 'NONE', #777, #266, #1083, .T. ) ;
#780 = CIRCLE ( 'NONE', #469, 3.000000000000002665 ) ;
#781 = VECTOR ( 'NONE', #1047, 1000.000000000000000 ) ;
#782 = ORIENTED_EDGE ( 'NONE', *, *, #667, .F. ) ;
#783 =( LENGTH_UNIT ( ) NAMED_UNIT ( * ) SI_UNIT ( .MILLI., .METRE. ) );
#784 = AXIS2_PLACEMENT_3D ( 'NONE', #502, #160, #965 ) ;
#785 = ORIENTED_EDGE ( 'NONE', *, *, #601, .F. ) ;
#786 = VECTOR ( 'NONE', #293, 1000.000000000000000 ) ;
#787 = DIRECTION ( 'NONE',  ( 0.000000000000000000, 0.000000000000000000, 1.000000000000000000 ) ) ;
#788 = FACE_OUTER_BOUND ( 'NONE', #403, .T. ) ;
#789 = VERTEX_POINT ( 'NONE', #1059 ) ;
#790 =( NAMED_UNIT ( * ) SI_UNIT ( $, .STERADIAN. ) SOLID_ANGLE_UNIT ( ) );
#791 = ORIENTED_EDGE ( 'NONE', *, *, #176, .F. ) ;
#792 = DIRECTION ( 'NONE',  ( 1.000000000000000000, 0.000000000000000000, 0.000000000000000000 ) ) ;
#793 = DIRECTION ( 'NONE',  ( 0.000000000000000000, 0.000000000000000000, -1.000000000000000000 ) ) ;
#794 = ORIENTED_EDGE ( 'NONE', *, *, #95, .T. ) ;
#795 = PRODUCT_CONTEXT ( 'NONE', #1002, 'mechanical' ) ;
#796 = EDGE_LOOP ( 'NONE', ( #119, #984, #1136, #581 ) ) ;
#797 = DIRECTION ( 'NONE',  ( 1.000000000000000000, 0.000000000000000000, 0.000000000000000000 ) ) ;
#798 = EDGE_CURVE ( 'NONE', #789, #520, #955, .T. ) ;
#799 = FACE_OUTER_BOUND ( 'NONE', #828, .T. ) ;
#800 = EDGE_LOOP ( 'NONE', ( #148, #1064, #904, #558, #255, #883, #1020, #144, #960, #159, #220, #111 ) ) ;
#801 = DIRECTION ( 'NONE',  ( -1.000000000000000000, 0.000000000000000000, 0.000000000000000000 ) ) ;
#802 = AXIS2_PLACEMENT_3D ( 'NONE', #83, #434, #161 ) ;
#803 = ORIENTED_EDGE ( 'NONE', *, *, #675, .F. ) ;
#804 = CARTESIAN_POINT ( 'NONE',  ( 609.1698840150002070, -24.96066579499999705, 158.9638762099999951 ) ) ;
#805 = CIRCLE ( 'NONE', #901, 2.749999999999919176 ) ;
#806 = EDGE_CURVE ( 'NONE', #334, #1164, #384, .T. ) ;
#807 = DIRECTION ( 'NONE',  ( 1.000000000000000000, 0.000000000000000000, 0.000000000000000000 ) ) ;
#808 = DIRECTION ( 'NONE',  ( 1.000000000000000000, 0.000000000000000000, 0.000000000000000000 ) ) ;
#809 = ORIENTED_EDGE ( 'NONE', *, *, #329, .T. ) ;
#810 = DIRECTION ( 'NONE',  ( -1.000000000000000000, 0.000000000000000000, 0.000000000000000000 ) ) ;
#811 = DIRECTION ( 'NONE',  ( 1.000000000000000000, 0.000000000000000000, 0.000000000000000000 ) ) ;
#812 = EDGE_CURVE ( 'NONE', #863, #654, #30, .T. ) ;
#813 = LINE ( 'NONE', #633, #74 ) ;
#814 = ORIENTED_EDGE ( 'NONE', *, *, #299, .T. ) ;
#815 = CARTESIAN_POINT ( 'NONE',  ( 1169.169884015000207, -24.96066579499999705, 158.9638762099999951 ) ) ;
#816 = PLANE ( 'NONE',  #835 ) ;
#817 = EDGE_CURVE ( 'NONE', #628, #132, #343, .T. ) ;
#818 = DIRECTION ( 'NONE',  ( 0.000000000000000000, -1.000000000000000000, 0.000000000000000000 ) ) ;
#819 = ORIENTED_EDGE ( 'NONE', *, *, #534, .T. ) ;
#820 = CIRCLE ( 'NONE', #108, 6.000000000000005329 ) ;
#821 = LINE ( 'NONE', #59, #29 ) ;
#822 = DIRECTION ( 'NONE',  ( 0.000000000000000000, 1.000000000000000000, 0.000000000000000000 ) ) ;
#823 = EDGE_CURVE ( 'NONE', #190, #628, #423, .T. ) ;
#824 = ORIENTED_EDGE ( 'NONE', *, *, #284, .F. ) ;
#825 = LINE ( 'NONE', #1102, #644 ) ;
#826 = FACE_OUTER_BOUND ( 'NONE', #800, .T. ) ;
#827 = DIRECTION ( 'NONE',  ( -0.000000000000000000, -0.000000000000000000, 1.000000000000000000 ) ) ;
#828 = EDGE_LOOP ( 'NONE', ( #136, #554, #1156, #878, #435, #75, #142, #271, #312, #314, #595, #1130 ) ) ;
#829 = FACE_OUTER_BOUND ( 'NONE', #533, .T. ) ;
#830 = DIRECTION ( 'NONE',  ( -0.000000000000000000, -1.000000000000000000, -0.000000000000000000 ) ) ;
#831 = CARTESIAN_POINT ( 'NONE',  ( 886.4198840150002070, -24.96066579499999705, 158.9638762099999951 ) ) ;
#832 = ORIENTED_EDGE ( 'NONE', *, *, #1060, .F. ) ;
#833 = CYLINDRICAL_SURFACE ( 'NONE', #367, 2.750000000000030198 ) ;
#834 = CARTESIAN_POINT ( 'NONE',  ( 1580.919884014999980, -14.96066579499999882, 158.9638762099999951 ) ) ;
#835 = AXIS2_PLACEMENT_3D ( 'NONE', #834, #388, #449 ) ;
#836 = AXIS2_PLACEMENT_3D ( 'NONE', #94, #792, #516 ) ;
#837 = CIRCLE ( 'NONE', #1163, 6.000000000000088818 ) ;
#838 = CARTESIAN_POINT ( 'NONE',  ( 1576.919884014999980, -46.96066579500000415, 138.9638762099999951 ) ) ;
#839 = VERTEX_POINT ( 'NONE', #981 ) ;
#840 = CARTESIAN_POINT ( 'NONE',  ( 1576.919884014999980, -43.96066579499999705, 155.9638762099999951 ) ) ;
#841 = ORIENTED_EDGE ( 'NONE', *, *, #631, .F. ) ;
#842 = DIRECTION ( 'NONE',  ( 0.000000000000000000, 0.000000000000000000, -1.000000000000000000 ) ) ;
#843 = ADVANCED_FACE ( 'NONE', ( #550 ), #1115, .T. ) ;
#844 = LINE ( 'NONE', #929, #706 ) ;
#845 = EDGE_CURVE ( 'NONE', #872, #1132, #1030, .T. ) ;
#846 = ORIENTED_EDGE ( 'NONE', *, *, #417, .F. ) ;
#847 = DIRECTION ( 'NONE',  ( -1.000000000000000000, 0.000000000000000000, 0.000000000000000000 ) ) ;
#848 = ORIENTED_EDGE ( 'NONE', *, *, #493, .T. ) ;
#849 = CARTESIAN_POINT ( 'NONE',  ( 1443.669884014999980, -24.96066579499999705, 158.9638762099999951 ) ) ;
#850 = PLANE ( 'NONE',  #369 ) ;
#851 = EDGE_CURVE ( 'NONE', #418, #212, #991, .T. ) ;
#852 = EDGE_LOOP ( 'NONE', ( #67, #36, #1055, #832 ) ) ;
#853 = CYLINDRICAL_SURFACE ( 'NONE', #744, 2.000000000000001776 ) ;
#854 = VERTEX_POINT ( 'NONE', #815 ) ;
#855 = FACE_OUTER_BOUND ( 'NONE', #229, .T. ) ;
#856 = AXIS2_PLACEMENT_3D ( 'NONE', #439, #445, #811 ) ;
#857 =( GEOMETRIC_REPRESENTATION_CONTEXT ( 3 ) GLOBAL_UNCERTAINTY_ASSIGNED_CONTEXT ( ( #726 ) ) GLOBAL_UNIT_ASSIGNED_CONTEXT ( ( #289, #922, #99 ) ) REPRESENTATION_CONTEXT ( 'NONE', 'WORKASPACE' ) );
#858 = CARTESIAN_POINT ( 'NONE',  ( 609.1698840150002070, -24.96066579499999705, 155.9638762099999951 ) ) ;
#859 = AXIS2_PLACEMENT_3D ( 'NONE', #862, #56, #411 ) ;
#860 = CIRCLE ( 'NONE', #728, 2.750000000000030198 ) ;
#861 = ORIENTED_EDGE ( 'NONE', *, *, #512, .F. ) ;
#862 = CARTESIAN_POINT ( 'NONE',  ( 475.9198840150000365, -43.96066579499999705, 124.9638762100000093 ) ) ;
#863 = VERTEX_POINT ( 'NONE', #555 ) ;
#864 = DIRECTION ( 'NONE',  ( 1.000000000000000000, 0.000000000000000000, 0.000000000000000000 ) ) ;
#865 = EDGE_LOOP ( 'NONE', ( #185, #1095, #1007, #673, #1147, #478, #566, #574 ) ) ;
#866 = DIRECTION ( 'NONE',  ( 0.000000000000000000, 0.000000000000000000, -1.000000000000000000 ) ) ;
#867 = ORIENTED_EDGE ( 'NONE', *, *, #798, .T. ) ;
#868 = DIRECTION ( 'NONE',  ( 0.000000000000000000, 0.000000000000000000, -1.000000000000000000 ) ) ;
#869 = EDGE_CURVE ( 'NONE', #676, #668, #196, .T. ) ;
#870 = ORIENTED_EDGE ( 'NONE', *, *, #87, .F. ) ;
#871 = DIRECTION ( 'NONE',  ( 0.000000000000000000, 0.000000000000000000, 1.000000000000000000 ) ) ;
#872 = VERTEX_POINT ( 'NONE', #731 ) ;
#873 = CARTESIAN_POINT ( 'NONE',  ( 883.6698840150002070, -24.96066579499999705, 155.9638762099999951 ) ) ;
#874 = ADVANCED_FACE ( 'NONE', ( #187 ), #997, .F. ) ;
#875 = EDGE_LOOP ( 'NONE', ( #515, #1051, #1152, #358 ) ) ;
#876 =( NAMED_UNIT ( * ) PLANE_ANGLE_UNIT ( ) SI_UNIT ( $, .RADIAN. ) );
#877 = AXIS2_PLACEMENT_3D ( 'NONE', #241, #700, #594 ) ;
#878 = ORIENTED_EDGE ( 'NONE', *, *, #58, .F. ) ;
#879 = AXIS2_PLACEMENT_3D ( 'NONE', #838, #383, #118 ) ;
#880 = DIRECTION ( 'NONE',  ( 0.000000000000000000, -1.000000000000000000, 0.000000000000000000 ) ) ;
#881 = CARTESIAN_POINT ( 'NONE',  ( 1576.919884014999980, -4.960665795000000600, 121.9638762100000093 ) ) ;
#882 = PRODUCT_RELATED_PRODUCT_CATEGORY ( 'part', '', ( #680 ) ) ;
#883 = ORIENTED_EDGE ( 'NONE', *, *, #356, .F. ) ;
#884 = SURFACE_SIDE_STYLE ('',( #175 ) ) ;
#885 = ORIENTED_EDGE ( 'NONE', *, *, #24, .F. ) ;
#886 = CARTESIAN_POINT ( 'NONE',  ( 475.9198840150000365, -49.96066579499999705, 152.9638762099999951 ) ) ;
#887 = CARTESIAN_POINT ( 'NONE',  ( 475.9198840150000365, -2.960665794999999711, 132.9638762100000235 ) ) ;
#888 = ORIENTED_EDGE ( 'NONE', *, *, #299, .F. ) ;
#889 = MANIFOLD_SOLID_BREP ( '切除-拉伸2', #1146 ) ;
#890 = SHAPE_DEFINITION_REPRESENTATION ( #60, #586 ) ;
#891 = ADVANCED_FACE ( 'NONE', ( #635 ), #833, .F. ) ;
#892 = ORIENTED_EDGE ( 'NONE', *, *, #34, .F. ) ;
#893 = DIRECTION ( 'NONE',  ( -0.000000000000000000, -1.000000000000000000, -0.000000000000000000 ) ) ;
#894 = LINE ( 'NONE', #614, #1088 ) ;
#895 = DIRECTION ( 'NONE',  ( 1.000000000000000000, 0.000000000000000000, 0.000000000000000000 ) ) ;
#896 = AXIS2_PLACEMENT_3D ( 'NONE', #596, #842, #133 ) ;
#897 = ORIENTED_EDGE ( 'NONE', *, *, #157, .F. ) ;
#898 = EDGE_CURVE ( 'NONE', #452, #394, #825, .T. ) ;
#899 = CARTESIAN_POINT ( 'NONE',  ( 1576.919884014999980, -46.96066579500000415, 144.9638762100000804 ) ) ;
#900 = AXIS2_PLACEMENT_3D ( 'NONE', #404, #1021, #1035 ) ;
#901 = AXIS2_PLACEMENT_3D ( 'NONE', #831, #26, #976 ) ;
#902 = CARTESIAN_POINT ( 'NONE',  ( 1166.419884015000207, -24.96066579499999705, 153.9638762099999951 ) ) ;
#903 = FACE_OUTER_BOUND ( 'NONE', #690, .T. ) ;
#904 = ORIENTED_EDGE ( 'NONE', *, *, #534, .F. ) ;
#905 = DIRECTION ( 'NONE',  ( 0.000000000000000000, -0.000000000000000000, 1.000000000000000000 ) ) ;
#906 = DIRECTION ( 'NONE',  ( 1.000000000000000000, 0.000000000000000000, 0.000000000000000000 ) ) ;
#907 = EDGE_CURVE ( 'NONE', #334, #44, #206, .T. ) ;
#908 = LINE ( 'NONE', #1081, #568 ) ;
#909 = EDGE_LOOP ( 'NONE', ( #659, #1119, #814, #962 ) ) ;
#910 = SURFACE_STYLE_USAGE ( .BOTH. , #448 ) ;
#911 = DIRECTION ( 'NONE',  ( -1.000000000000000000, 0.000000000000000000, 0.000000000000000000 ) ) ;
#912 = EDGE_CURVE ( 'NONE', #671, #735, #722, .T. ) ;
#913 = DIRECTION ( 'NONE',  ( 1.000000000000000000, 0.000000000000000000, 0.000000000000000000 ) ) ;
#914 = ORIENTED_EDGE ( 'NONE', *, *, #361, .F. ) ;
#915 = DIRECTION ( 'NONE',  ( 1.000000000000000000, 0.000000000000000000, 0.000000000000000000 ) ) ;
#916 = AXIS2_PLACEMENT_3D ( 'NONE', #291, #649, #1017 ) ;
#917 = AXIS2_PLACEMENT_3D ( 'NONE', #703, #712, #332 ) ;
#918 = FACE_OUTER_BOUND ( 'NONE', #1016, .T. ) ;
#919 = CYLINDRICAL_SURFACE ( 'NONE', #993, 2.749999999999919176 ) ;
#920 = ADVANCED_FACE ( 'NONE', ( #829 ), #380, .F. ) ;
#921 = ORIENTED_EDGE ( 'NONE', *, *, #344, .F. ) ;
#922 =( NAMED_UNIT ( * ) PLANE_ANGLE_UNIT ( ) SI_UNIT ( $, .RADIAN. ) );
#923 = LINE ( 'NONE', #464, #605 ) ;
#924 = FACE_OUTER_BOUND ( 'NONE', #875, .T. ) ;
#925 = ORIENTED_EDGE ( 'NONE', *, *, #218, .F. ) ;
#926 = FILL_AREA_STYLE ('',( #105 ) ) ;
#927 = EDGE_CURVE ( 'NONE', #342, #209, #1010, .T. ) ;
#928 = FACE_BOUND ( 'NONE', #634, .T. ) ;
#929 = CARTESIAN_POINT ( 'NONE',  ( 475.9198840150000365, 0.03933420499999812359, 144.9638762099999951 ) ) ;
#930 = ORIENTED_EDGE ( 'NONE', *, *, #1097, .T. ) ;
#931 = CARTESIAN_POINT ( 'NONE',  ( 1580.919884014999980, -14.96066579499999882, 118.9638762099999951 ) ) ;
#932 = EDGE_CURVE ( 'NONE', #392, #549, #630, .T. ) ;
#933 = CARTESIAN_POINT ( 'NONE',  ( 475.9198840150000365, -2.960665795000009926, 152.9638762099999951 ) ) ;
#934 = VECTOR ( 'NONE', #402, 1000.000000000000000 ) ;
#935 = AXIS2_PLACEMENT_3D ( 'NONE', #902, #528, #1061 ) ;
#936 = EDGE_CURVE ( 'NONE', #76, #44, #661, .T. ) ;
#937 = VECTOR ( 'NONE', #985, 1000.000000000000000 ) ;
#938 = AXIS2_PLACEMENT_3D ( 'NONE', #237, #895, #818 ) ;
#939 = DIRECTION ( 'NONE',  ( 1.000000000000000000, 0.000000000000000000, 0.000000000000000000 ) ) ;
#940 = ORIENTED_EDGE ( 'NONE', *, *, #912, .T. ) ;
#941 = CARTESIAN_POINT ( 'NONE',  ( 1576.919884014999980, -5.960665795000000600, 152.9638762099999951 ) ) ;
#942 = ORIENTED_EDGE ( 'NONE', *, *, #779, .T. ) ;
#943 = CARTESIAN_POINT ( 'NONE',  ( 1166.419884015000207, -24.96066579499999705, 158.9638762099999951 ) ) ;
#944 = EDGE_CURVE ( 'NONE', #699, #484, #163, .T. ) ;
#945 = DIRECTION ( 'NONE',  ( -0.000000000000000000, -0.000000000000000000, 1.000000000000000000 ) ) ;
#946 = ORIENTED_EDGE ( 'NONE', *, *, #467, .T. ) ;
#947 = CARTESIAN_POINT ( 'NONE',  ( 1580.919884014999980, -43.96066579499999705, 152.9638762099999951 ) ) ;
#948 = DIRECTION ( 'NONE',  ( 0.000000000000000000, 0.000000000000000000, 1.000000000000000000 ) ) ;
#949 = EDGE_CURVE ( 'NONE', #84, #353, #149, .T. ) ;
#950 = DIRECTION ( 'NONE',  ( -1.000000000000000000, 0.000000000000000000, 0.000000000000000000 ) ) ;
#951 = EDGE_LOOP ( 'NONE', ( #977, #98, #379, #436 ) ) ;
#952 = CYLINDRICAL_SURFACE ( 'NONE', #705, 6.000000000000005329 ) ;
#953 = DIRECTION ( 'NONE',  ( 0.000000000000000000, 0.000000000000000000, 1.000000000000000000 ) ) ;
#954 = CIRCLE ( 'NONE', #916, 5.999999999999977796 ) ;
#955 = CIRCLE ( 'NONE', #253, 6.000000000000088818 ) ;
#956 = CIRCLE ( 'NONE', #859, 3.000000000000002665 ) ;
#957 = AXIS2_PLACEMENT_3D ( 'NONE', #1, #460, #182 ) ;
#958 = ORIENTED_EDGE ( 'NONE', *, *, #24, .T. ) ;
#959 = FACE_OUTER_BOUND ( 'NONE', #42, .T. ) ;
#960 = ORIENTED_EDGE ( 'NONE', *, *, #1097, .F. ) ;
#961 = CARTESIAN_POINT ( 'NONE',  ( 475.9198840150000365, -2.960665795000009926, 152.9638762099999951 ) ) ;
#962 = ORIENTED_EDGE ( 'NONE', *, *, #370, .F. ) ;
#963 =( LENGTH_UNIT ( ) NAMED_UNIT ( * ) SI_UNIT ( .MILLI., .METRE. ) );
#964 = ORIENTED_EDGE ( 'NONE', *, *, #757, .T. ) ;
#965 = DIRECTION ( 'NONE',  ( 0.000000000000000000, 0.000000000000000000, -1.000000000000000000 ) ) ;
#966 = CYLINDRICAL_SURFACE ( 'NONE', #622, 2.749999999999919176 ) ;
#967 = CARTESIAN_POINT ( 'NONE',  ( 475.9198840150000365, -46.96066579500000415, 138.9638762099999951 ) ) ;
#968 = EDGE_LOOP ( 'NONE', ( #1089, #240, #500, #171 ) ) ;
#969 = CARTESIAN_POINT ( 'NONE',  ( 1576.919884014999980, -4.960665795000000600, 123.9638762100000093 ) ) ;
#970 = EDGE_CURVE ( 'NONE', #1155, #27, #496, .T. ) ;
#971 = DIRECTION ( 'NONE',  ( 0.000000000000000000, 0.000000000000000000, -1.000000000000000000 ) ) ;
#972 = AXIS2_PLACEMENT_3D ( 'NONE', #143, #587, #1124 ) ;
#973 = VERTEX_POINT ( 'NONE', #567 ) ;
#974 = ORIENTED_EDGE ( 'NONE', *, *, #601, .T. ) ;
#975 = DIRECTION ( 'NONE',  ( -1.000000000000000000, 0.000000000000000000, 0.000000000000000000 ) ) ;
#976 = DIRECTION ( 'NONE',  ( 1.000000000000000000, 0.000000000000000000, 0.000000000000000000 ) ) ;
#977 = ORIENTED_EDGE ( 'NONE', *, *, #264, .T. ) ;
#978 = CARTESIAN_POINT ( 'NONE',  ( 883.6698840150002070, -24.96066579499999705, 158.9638762099999951 ) ) ;
#979 = APPLICATION_CONTEXT ( 'automotive_design' ) ;
#980 = VERTEX_POINT ( 'NONE', #307 ) ;
#981 = CARTESIAN_POINT ( 'NONE',  ( 475.9198840150000365, 0.03933420499999700642, 124.9638762100000093 ) ) ;
#982 = LINE ( 'NONE', #1154, #387 ) ;
#983 = CARTESIAN_POINT ( 'NONE',  ( 606.4198840150000933, -24.96066579499999705, 155.9638762099999951 ) ) ;
#984 = ORIENTED_EDGE ( 'NONE', *, *, #227, .T. ) ;
#985 = DIRECTION ( 'NONE',  ( 0.000000000000000000, 0.000000000000000000, -1.000000000000000000 ) ) ;
#986 = DIRECTION ( 'NONE',  ( -1.000000000000000000, 0.000000000000000000, 0.000000000000000000 ) ) ;
#987 = CIRCLE ( 'NONE', #938, 3.000000000000002665 ) ;
#988 = CARTESIAN_POINT ( 'NONE',  ( 1576.919884014999980, -43.96066579499999705, 155.9638762099999951 ) ) ;
#989 = VECTOR ( 'NONE', #145, 1000.000000000000000 ) ;
#990 = ORIENTED_EDGE ( 'NONE', *, *, #1057, .T. ) ;
#991 = LINE ( 'NONE', #277, #1068 ) ;
#992 = STYLED_ITEM ( 'NONE', ( #1106 ), #889 ) ;
#993 = AXIS2_PLACEMENT_3D ( 'NONE', #275, #97, #808 ) ;
#994 = CARTESIAN_POINT ( 'NONE',  ( 475.9198840150000365, -49.96066579499999705, 152.9638762099999951 ) ) ;
#995 = DIRECTION ( 'NONE',  ( 0.000000000000000000, 1.000000000000000000, 0.000000000000000000 ) ) ;
#996 = ORIENTED_EDGE ( 'NONE', *, *, #932, .T. ) ;
#997 = CYLINDRICAL_SURFACE ( 'NONE', #704, 2.750000000000030198 ) ;
#998 = ADVANCED_FACE ( 'NONE', ( #959 ), #1025, .F. ) ;
#999 = PLANE ( 'NONE',  #1067 ) ;
#1000 = UNCERTAINTY_MEASURE_WITH_UNIT (LENGTH_MEASURE( 1.000000000000000082E-05 ), #783, 'distance_accuracy_value', 'NONE');
#1001 = LINE ( 'NONE', #446, #33 ) ;
#1002 = APPLICATION_CONTEXT ( 'automotive_design' ) ;
#1003 = VERTEX_POINT ( 'NONE', #225 ) ;
#1004 = DIRECTION ( 'NONE',  ( 0.000000000000000000, 0.000000000000000000, 1.000000000000000000 ) ) ;
#1005 = CARTESIAN_POINT ( 'NONE',  ( 1576.919884014999980, 0.03933420500000000403, 144.9638762100000804 ) ) ;
#1006 = CARTESIAN_POINT ( 'NONE',  ( 475.9198840150000365, -43.96066579499999705, 155.9638762099999951 ) ) ;
#1007 = ORIENTED_EDGE ( 'NONE', *, *, #356, .T. ) ;
#1008 = DIRECTION ( 'NONE',  ( -1.000000000000000000, 0.000000000000000000, 0.000000000000000000 ) ) ;
#1009 = AXIS2_PLACEMENT_3D ( 'NONE', #582, #1141, #412 ) ;
#1010 = CIRCLE ( 'NONE', #492, 5.999999999999977796 ) ;
#1011 = CARTESIAN_POINT ( 'NONE',  ( 606.4198840150000933, -24.96066579499999705, 155.9638762099999951 ) ) ;
#1012 = PRESENTATION_LAYER_ASSIGNMENT (  '', '', ( #349 ) ) ;
#1013 = AXIS2_PLACEMENT_3D ( 'NONE', #1023, #1122, #214 ) ;
#1014 = ADVANCED_FACE ( 'NONE', ( #131 ), #853, .F. ) ;
#1015 = LINE ( 'NONE', #298, #408 ) ;
#1016 = EDGE_LOOP ( 'NONE', ( #782, #429, #1026, #336 ) ) ;
#1017 = DIRECTION ( 'NONE',  ( 0.000000000000000000, 0.000000000000000000, -1.000000000000000000 ) ) ;
#1018 = DIRECTION ( 'NONE',  ( 0.000000000000000000, 0.000000000000000000, -1.000000000000000000 ) ) ;
#1019 = EDGE_CURVE ( 'NONE', #676, #93, #1160, .T. ) ;
#1020 = ORIENTED_EDGE ( 'NONE', *, *, #737, .F. ) ;
#1021 = DIRECTION ( 'NONE',  ( 0.000000000000000000, -1.000000000000000000, 0.000000000000000000 ) ) ;
#1022 = FACE_OUTER_BOUND ( 'NONE', #48, .T. ) ;
#1023 = CARTESIAN_POINT ( 'NONE',  ( 475.9198840150000365, 0.03933420499999812359, 138.9638762099999951 ) ) ;
#1024 = ORIENTED_EDGE ( 'NONE', *, *, #553, .T. ) ;
#1025 = PLANE ( 'NONE',  #456 ) ;
#1026 = ORIENTED_EDGE ( 'NONE', *, *, #273, .F. ) ;
#1027 = EDGE_CURVE ( 'NONE', #484, #872, #43, .T. ) ;
#1028 = CARTESIAN_POINT ( 'NONE',  ( 1576.919884014999980, -46.96066579500000415, 132.9638762099999099 ) ) ;
#1029 = CIRCLE ( 'NONE', #422, 6.000000000000005329 ) ;
#1030 = CIRCLE ( 'NONE', #724, 2.749999999999919176 ) ;
#1031 = AXIS2_PLACEMENT_3D ( 'NONE', #154, #524, #322 ) ;
#1032 = VECTOR ( 'NONE', #396, 1000.000000000000000 ) ;
#1033 = CARTESIAN_POINT ( 'NONE',  ( 475.9198840150000365, -46.96066579500000415, 152.9638762099999951 ) ) ;
#1034 = VERTEX_POINT ( 'NONE', #479 ) ;
#1035 = DIRECTION ( 'NONE',  ( 0.000000000000000000, 0.000000000000000000, -1.000000000000000000 ) ) ;
#1036 = EDGE_LOOP ( 'NONE', ( #785, #958, #888, #930 ) ) ;
#1037 = LINE ( 'NONE', #961, #326 ) ;
#1038 = EDGE_CURVE ( 'NONE', #93, #676, #546, .T. ) ;
#1039 = CARTESIAN_POINT ( 'NONE',  ( 475.9198840150000365, -5.960665795000000600, 155.9638762099999951 ) ) ;
#1040 = ORIENTED_EDGE ( 'NONE', *, *, #1096, .F. ) ;
#1041 = DIRECTION ( 'NONE',  ( 0.000000000000000000, 0.000000000000000000, 1.000000000000000000 ) ) ;
#1042 = ORIENTED_EDGE ( 'NONE', *, *, #102, .F. ) ;
#1043 = CYLINDRICAL_SURFACE ( 'NONE', #198, 3.000000000000002665 ) ;
#1044 = EDGE_CURVE ( 'NONE', #1003, #132, #1049, .T. ) ;
#1045 = VERTEX_POINT ( 'NONE', #573 ) ;
#1046 = DIRECTION ( 'NONE',  ( 1.000000000000000000, 0.000000000000000000, 0.000000000000000000 ) ) ;
#1047 = DIRECTION ( 'NONE',  ( -1.000000000000000000, 0.000000000000000000, 0.000000000000000000 ) ) ;
#1048 = VECTOR ( 'NONE', #453, 1000.000000000000000 ) ;
#1049 = CIRCLE ( 'NONE', #900, 5.999999999999977796 ) ;
#1050 = ADVANCED_FACE ( 'NONE', ( #766 ), #952, .T. ) ;
#1051 = ORIENTED_EDGE ( 'NONE', *, *, #1044, .T. ) ;
#1052 = DIRECTION ( 'NONE',  ( 0.000000000000000000, 0.000000000000000000, -1.000000000000000000 ) ) ;
#1053 = EDGE_LOOP ( 'NONE', ( #606, #294, #867, #486 ) ) ;
#1054 = DIRECTION ( 'NONE',  ( 0.000000000000000000, -1.000000000000000000, 0.000000000000000000 ) ) ;
#1055 = ORIENTED_EDGE ( 'NONE', *, *, #361, .T. ) ;
#1056 = SURFACE_STYLE_USAGE ( .BOTH. , #884 ) ;
#1057 = EDGE_CURVE ( 'NONE', #84, #394, #745, .T. ) ;
#1058 = ORIENTED_EDGE ( 'NONE', *, *, #1096, .T. ) ;
#1059 = CARTESIAN_POINT ( 'NONE',  ( 1576.919884014999980, -2.960665794999998823, 144.9638762100000804 ) ) ;
#1060 = EDGE_CURVE ( 'NONE', #165, #711, #1131, .T. ) ;
#1061 = DIRECTION ( 'NONE',  ( 1.000000000000000000, 0.000000000000000000, 0.000000000000000000 ) ) ;
#1062 = ORIENTED_EDGE ( 'NONE', *, *, #927, .F. ) ;
#1063 = FILL_AREA_STYLE_COLOUR ( '', #1110 ) ;
#1064 = ORIENTED_EDGE ( 'NONE', *, *, #329, .F. ) ;
#1065 = DIRECTION ( 'NONE',  ( -1.000000000000000000, 0.000000000000000000, 0.000000000000000000 ) ) ;
#1066 = DIRECTION ( 'NONE',  ( 0.000000000000000000, 0.000000000000000000, 1.000000000000000000 ) ) ;
#1067 = AXIS2_PLACEMENT_3D ( 'NONE', #192, #911, #106 ) ;
#1068 = VECTOR ( 'NONE', #621, 1000.000000000000000 ) ;
#1069 = ORIENTED_EDGE ( 'NONE', *, *, #907, .F. ) ;
#1070 = CARTESIAN_POINT ( 'NONE',  ( 1576.919884014999980, -2.960665794999999711, 123.9638762100000093 ) ) ;
#1071 = AXIS2_PLACEMENT_3D ( 'NONE', #230, #301, #580 ) ;
#1072 = CIRCLE ( 'NONE', #547, 3.000000000000000000 ) ;
#1073 = ORIENTED_EDGE ( 'NONE', *, *, #696, .F. ) ;
#1074 = PLANE ( 'NONE',  #608 ) ;
#1075 = CARTESIAN_POINT ( 'NONE',  ( 475.9198840150000365, -5.960665795000000600, 152.9638762099999951 ) ) ;
#1076 = CARTESIAN_POINT ( 'NONE',  ( 886.4198840150002070, -24.96066579499999705, 153.9638762099999951 ) ) ;
#1077 = CARTESIAN_POINT ( 'NONE',  ( 475.9198840150000365, -46.96066579500000415, 124.9638762100000093 ) ) ;
#1078 = VERTEX_POINT ( 'NONE', #840 ) ;
#1079 = CARTESIAN_POINT ( 'NONE',  ( 1576.919884014999980, -5.960665795000000600, 158.9638762099999951 ) ) ;
#1080 = DIRECTION ( 'NONE',  ( 0.000000000000000000, 0.000000000000000000, 1.000000000000000000 ) ) ;
#1081 = CARTESIAN_POINT ( 'NONE',  ( 1576.919884014999980, -2.960665794999999711, 152.9638762099999951 ) ) ;
#1082 = ORIENTED_EDGE ( 'NONE', *, *, #1019, .T. ) ;
#1083 = LINE ( 'NONE', #267, #937 ) ;
#1084 = DIRECTION ( 'NONE',  ( -1.000000000000000000, 0.000000000000000000, 0.000000000000000000 ) ) ;
#1085 = AXIS2_PLACEMENT_3D ( 'NONE', #1075, #1166, #1080 ) ;
#1086 = DIRECTION ( 'NONE',  ( 0.000000000000000000, 0.000000000000000000, -1.000000000000000000 ) ) ;
#1087 = EDGE_CURVE ( 'NONE', #473, #513, #37, .T. ) ;
#1088 = VECTOR ( 'NONE', #1066, 1000.000000000000000 ) ;
#1089 = ORIENTED_EDGE ( 'NONE', *, *, #162, .T. ) ;
#1090 = DIRECTION ( 'NONE',  ( 0.000000000000000000, -1.000000000000000000, 0.000000000000000000 ) ) ;
#1091 = AXIS2_PLACEMENT_3D ( 'NONE', #156, #893, #86 ) ;
#1092 = AXIS2_PLACEMENT_3D ( 'NONE', #442, #714, #362 ) ;
#1093 = FACE_BOUND ( 'NONE', #232, .T. ) ;
#1094 = DIRECTION ( 'NONE',  ( 0.000000000000000000, 0.000000000000000000, 1.000000000000000000 ) ) ;
#1095 = ORIENTED_EDGE ( 'NONE', *, *, #1044, .F. ) ;
#1096 = EDGE_CURVE ( 'NONE', #711, #647, #684, .T. ) ;
#1097 = EDGE_CURVE ( 'NONE', #507, #1148, #956, .T. ) ;
#1098 = CARTESIAN_POINT ( 'NONE',  ( 1430.919884014999980, -43.96066579499999705, 152.9638762099999951 ) ) ;
#1099 = UNCERTAINTY_MEASURE_WITH_UNIT (LENGTH_MEASURE( 1.000000000000000082E-05 ), #963, 'distance_accuracy_value', 'NONE');
#1100 = LINE ( 'NONE', #1039, #786 ) ;
#1101 = ORIENTED_EDGE ( 'NONE', *, *, #869, .T. ) ;
#1102 = CARTESIAN_POINT ( 'NONE',  ( 1576.919884014999980, 0.03933420500000000403, 124.9638762100000093 ) ) ;
#1103 = DIRECTION ( 'NONE',  ( 0.000000000000000000, 1.000000000000000000, 0.000000000000000000 ) ) ;
#1104 = CARTESIAN_POINT ( 'NONE',  ( 475.9198840150000365, -46.96066579500000415, 124.9638762100000093 ) ) ;
#1105 = EDGE_LOOP ( 'NONE', ( #1042, #490, #216, #841, #688, #410, #925, #695, #921, #664, #306, #791 ) ) ;
#1106 = PRESENTATION_STYLE_ASSIGNMENT (( #910 ) ) ;
#1107 = CIRCLE ( 'NONE', #584, 2.750000000000030198 ) ;
#1108 = VECTOR ( 'NONE', #810, 1000.000000000000000 ) ;
#1109 = CARTESIAN_POINT ( 'NONE',  ( 889.1698840150000933, -24.96066579499999705, 155.9638762099999951 ) ) ;
#1110 = COLOUR_RGB ( '',0.6509803921568627638, 0.6196078431372549211, 0.5882352941176470784 ) ;
#1111 = CIRCLE ( 'NONE', #222, 2.750000000000030198 ) ;
#1112 = EDGE_CURVE ( 'NONE', #668, #480, #183, .T. ) ;
#1113 = DIRECTION ( 'NONE',  ( 0.000000000000000000, 0.000000000000000000, -1.000000000000000000 ) ) ;
#1114 = VERTEX_POINT ( 'NONE', #66 ) ;
#1115 = PLANE ( 'NONE',  #71 ) ;
#1116 = EDGE_LOOP ( 'NONE', ( #809, #848, #794, #767, #752, #57, #257, #964 ) ) ;
#1117 = CARTESIAN_POINT ( 'NONE',  ( 1576.919884014999980, -49.96066579499999705, 152.9638762099999951 ) ) ;
#1118 = LINE ( 'NONE', #208, #934 ) ;
#1119 = ORIENTED_EDGE ( 'NONE', *, *, #316, .T. ) ;
#1120 = DIRECTION ( 'NONE',  ( 0.000000000000000000, 0.000000000000000000, -1.000000000000000000 ) ) ;
#1121 = LINE ( 'NONE', #409, #743 ) ;
#1122 = DIRECTION ( 'NONE',  ( -0.000000000000000000, -1.000000000000000000, -0.000000000000000000 ) ) ;
#1123 = EDGE_LOOP ( 'NONE', ( #458, #1140, #599, #443 ) ) ;
#1124 = DIRECTION ( 'NONE',  ( -1.000000000000000000, 0.000000000000000000, 0.000000000000000000 ) ) ;
#1125 = EDGE_CURVE ( 'NONE', #13, #425, #164, .T. ) ;
#1126 = EDGE_LOOP ( 'NONE', ( #1134, #1161 ) ) ;
#1127 = CARTESIAN_POINT ( 'NONE',  ( 475.9198840150000365, -2.960665794999999711, 123.9638762100000093 ) ) ;
#1128 = MECHANICAL_DESIGN_GEOMETRIC_PRESENTATION_REPRESENTATION (  '', ( #992 ), #857 ) ;
#1129 = CARTESIAN_POINT ( 'NONE',  ( 1576.919884014999980, -46.96066579500000415, 152.9638762099999951 ) ) ;
#1130 = ORIENTED_EDGE ( 'NONE', *, *, #79, .F. ) ;
#1131 = LINE ( 'NONE', #759, #530 ) ;
#1132 = VERTEX_POINT ( 'NONE', #978 ) ;
#1133 = DIRECTION ( 'NONE',  ( -1.000000000000000000, 0.000000000000000000, 0.000000000000000000 ) ) ;
#1134 = ORIENTED_EDGE ( 'NONE', *, *, #845, .F. ) ;
#1135 = DIRECTION ( 'NONE',  ( 0.000000000000000000, 0.000000000000000000, 1.000000000000000000 ) ) ;
#1136 = ORIENTED_EDGE ( 'NONE', *, *, #135, .F. ) ;
#1137 = CARTESIAN_POINT ( 'NONE',  ( 475.9198840150000365, -5.960665795000000600, 124.9638762100000093 ) ) ;
#1138 = EDGE_CURVE ( 'NONE', #302, #81, #219, .T. ) ;
#1139 = DIRECTION ( 'NONE',  ( -0.000000000000000000, -0.000000000000000000, 1.000000000000000000 ) ) ;
#1140 = ORIENTED_EDGE ( 'NONE', *, *, #141, .T. ) ;
#1141 = DIRECTION ( 'NONE',  ( 0.000000000000000000, -1.000000000000000000, 0.000000000000000000 ) ) ;
#1142 = VECTOR ( 'NONE', #523, 1000.000000000000000 ) ;
#1143 = VECTOR ( 'NONE', #535, 1000.000000000000000 ) ;
#1144 = EDGE_CURVE ( 'NONE', #980, #1155, #254, .T. ) ;
#1145 = VECTOR ( 'NONE', #1065, 1000.000000000000000 ) ;
#1146 = CLOSED_SHELL ( 'NONE', ( #891, #101, #920, #389, #437, #629, #570, #843, #1014, #64, #720, #169, #450, #397, #338, #1050, #498, #47, #610, #107, #998, #504, #768, #309, #335, #292, #9, #874, #708, #1157, #243, #578 ) ) ;
#1147 = ORIENTED_EDGE ( 'NONE', *, *, #779, .F. ) ;
#1148 = VERTEX_POINT ( 'NONE', #1077 ) ;
#1149 = FACE_OUTER_BOUND ( 'NONE', #796, .T. ) ;
#1150 = CARTESIAN_POINT ( 'NONE',  ( 475.9198840150000365, -4.960665795000009481, 121.9638762100000093 ) ) ;
#1151 = ORIENTED_EDGE ( 'NONE', *, *, #806, .T. ) ;
#1152 = ORIENTED_EDGE ( 'NONE', *, *, #102, .T. ) ;
#1153 = FACE_OUTER_BOUND ( 'NONE', #1053, .T. ) ;
#1154 = CARTESIAN_POINT ( 'NONE',  ( 1576.919884014999980, -43.96066579499999705, 118.9638762099999951 ) ) ;
#1155 = VERTEX_POINT ( 'NONE', #419 ) ;
#1156 = ORIENTED_EDGE ( 'NONE', *, *, #512, .T. ) ;
#1157 = ADVANCED_FACE ( 'NONE', ( #352 ), #598, .F. ) ;
#1158 = CARTESIAN_POINT ( 'NONE',  ( 1576.919884014999980, 0.03933420499999990688, 124.9638762100000093 ) ) ;
#1159 = CARTESIAN_POINT ( 'NONE',  ( 1576.919884014999980, -2.960665794999999711, 152.9638762099999951 ) ) ;
#1160 = CIRCLE ( 'NONE', #529, 2.750000000000252243 ) ;
#1161 = ORIENTED_EDGE ( 'NONE', *, *, #278, .F. ) ;
#1162 = AXIS2_PLACEMENT_3D ( 'NONE', #256, #519, #247 ) ;
#1163 = AXIS2_PLACEMENT_3D ( 'NONE', #670, #746, #390 ) ;
#1164 = VERTEX_POINT ( 'NONE', #1070 ) ;
#1165 = LINE ( 'NONE', #262, #110 ) ;
#1166 = DIRECTION ( 'NONE',  ( -1.000000000000000000, 0.000000000000000000, 0.000000000000000000 ) ) ;
ENDSEC;
END-ISO-10303-21;
