ISO-10303-21;
HEADER;
FILE_DESCRIPTION (( 'STEP AP214' ),
    '1' );
FILE_NAME ('XH-YJ38-LJ-006-A0-底盘方通-立柱.STEP',
    '2026-06-04T10:00:15',
    ( 'Microsoft' ),
    ( 'Microsoft' ),
    'SwSTEP 2.0',
    'SolidWorks 2020',
    '' );
FILE_SCHEMA (( 'AUTOMOTIVE_DESIGN' ));
ENDSEC;

DATA;
#1 = CARTESIAN_POINT ( 'NONE',  ( 1626.047305909999977, -1271.981088425999815, 18.96383356200000136 ) ) ;
#2 = ORIENTED_EDGE ( 'NONE', *, *, #379, .F. ) ;
#3 = EDGE_CURVE ( 'NONE', #809, #69, #932, .T. ) ;
#4 = DIRECTION ( 'NONE',  ( 0.000000000000000000, 0.000000000000000000, -1.000000000000000000 ) ) ;
#5 = CARTESIAN_POINT ( 'NONE',  ( 1584.047305909999977, -1278.981088426000042, 168.9638335619999907 ) ) ;
#6 = ORIENTED_EDGE ( 'NONE', *, *, #833, .F. ) ;
#7 = DIRECTION ( 'NONE',  ( 0.000000000000000000, 0.000000000000000000, 1.000000000000000000 ) ) ;
#8 = CARTESIAN_POINT ( 'NONE',  ( 1584.047305909999977, -1278.981088426000042, 118.9638335620000049 ) ) ;
#9 = ORIENTED_EDGE ( 'NONE', *, *, #485, .F. ) ;
#10 = DIRECTION ( 'NONE',  ( 0.000000000000000000, 0.000000000000000000, -1.000000000000000000 ) ) ;
#11 = DIRECTION ( 'NONE',  ( 1.000000000000000000, 0.000000000000000000, 0.000000000000000000 ) ) ;
#12 = COLOUR_RGB ( '',0.6509803921568627638, 0.6196078431372549211, 0.5882352941176470784 ) ;
#13 = CLOSED_SHELL ( 'NONE', ( #166, #457, #307, #931, #898, #416, #925, #599, #117, #735, #76, #624, #671, #209, #17, #489, #65, #587, #214, #471, #871, #524, #579, #617, #665, #637 ) ) ;
#14 = VERTEX_POINT ( 'NONE', #544 ) ;
#15 =( NAMED_UNIT ( * ) PLANE_ANGLE_UNIT ( ) SI_UNIT ( $, .RADIAN. ) );
#16 = CARTESIAN_POINT ( 'NONE',  ( 1584.047305909999977, -1240.981088426000042, 28.96383356200000136 ) ) ;
#17 = ADVANCED_FACE ( 'NONE', ( #122 ), #282, .F. ) ;
#18 = EDGE_LOOP ( 'NONE', ( #106, #738, #549, #151 ) ) ;
#19 =( LENGTH_UNIT ( ) NAMED_UNIT ( * ) SI_UNIT ( .MILLI., .METRE. ) );
#20 = CARTESIAN_POINT ( 'NONE',  ( 1601.047305909999977, -1236.981088426000042, 28.96383356200000136 ) ) ;
#21 = CARTESIAN_POINT ( 'NONE',  ( 1584.047305909999977, -1286.981088426000042, 118.9638335620000049 ) ) ;
#22 = ORIENTED_EDGE ( 'NONE', *, *, #797, .T. ) ;
#23 = EDGE_CURVE ( 'NONE', #716, #866, #469, .T. ) ;
#24 =( NAMED_UNIT ( * ) PLANE_ANGLE_UNIT ( ) SI_UNIT ( $, .RADIAN. ) );
#25 = CARTESIAN_POINT ( 'NONE',  ( 1618.047305909999977, -1278.981088426000042, 18.96383356200000136 ) ) ;
#26 = CARTESIAN_POINT ( 'NONE',  ( 1584.047305909999977, -1286.981088426000042, 28.96383356200000136 ) ) ;
#27 = AXIS2_PLACEMENT_3D ( 'NONE', #253, #243, #35 ) ;
#28 = EDGE_LOOP ( 'NONE', ( #474, #130, #91, #136, #918, #490, #352, #791, #429 ) ) ;
#29 = AXIS2_PLACEMENT_3D ( 'NONE', #475, #131, #707 ) ;
#30 = CARTESIAN_POINT ( 'NONE',  ( 1618.047305909999977, -1278.981088426000042, 168.9638335619999907 ) ) ;
#31 = CIRCLE ( 'NONE', #367, 6.000000000000102141 ) ;
#32 = ORIENTED_EDGE ( 'NONE', *, *, #33, .F. ) ;
#33 = EDGE_CURVE ( 'NONE', #356, #657, #191, .T. ) ;
#34 = AXIS2_PLACEMENT_3D ( 'NONE', #822, #172, #319 ) ;
#35 = DIRECTION ( 'NONE',  ( 1.000000000000000000, 0.000000000000000000, 0.000000000000000000 ) ) ;
#36 = LINE ( 'NONE', #325, #244 ) ;
#37 = ORIENTED_EDGE ( 'NONE', *, *, #909, .T. ) ;
#38 = SURFACE_STYLE_USAGE ( .BOTH. , #663 ) ;
#39 = CYLINDRICAL_SURFACE ( 'NONE', #432, 6.000000000000095923 ) ;
#40 = EDGE_CURVE ( 'NONE', #591, #42, #922, .T. ) ;
#41 = CARTESIAN_POINT ( 'NONE',  ( 1622.047305909999977, -1244.981088426000042, 118.9638335620000049 ) ) ;
#42 = VERTEX_POINT ( 'NONE', #418 ) ;
#43 = VERTEX_POINT ( 'NONE', #634 ) ;
#44 = DIRECTION ( 'NONE',  ( -1.000000000000000000, 0.000000000000000000, 0.000000000000000000 ) ) ;
#45 = DIRECTION ( 'NONE',  ( 0.000000000000000000, 0.000000000000000000, -1.000000000000000000 ) ) ;
#46 = DIRECTION ( 'NONE',  ( 1.000000000000000000, 0.000000000000000000, 0.000000000000000000 ) ) ;
#47 = PRODUCT_DEFINITION_CONTEXT ( 'detailed design', #330, 'design' ) ;
#48 = VECTOR ( 'NONE', #430, 1000.000000000000000 ) ;
#49 = CARTESIAN_POINT ( 'NONE',  ( 1607.047305909999977, -1236.981088426000042, 118.9638335620000049 ) ) ;
#50 = DIRECTION ( 'NONE',  ( 0.000000000000000000, 0.000000000000000000, 1.000000000000000000 ) ) ;
#51 = EDGE_CURVE ( 'NONE', #173, #716, #510, .T. ) ;
#52 = CARTESIAN_POINT ( 'NONE',  ( 1576.047305909999977, -1271.981088425999815, 18.96383356200000136 ) ) ;
#53 = VERTEX_POINT ( 'NONE', #622 ) ;
#54 = CARTESIAN_POINT ( 'NONE',  ( 1584.047305909999977, -1278.981088426000042, 118.9638335620000049 ) ) ;
#55 = CARTESIAN_POINT ( 'NONE',  ( 1601.047305909999977, -1236.981088426000042, 28.96383356200000136 ) ) ;
#56 = CARTESIAN_POINT ( 'NONE',  ( 1584.047305909999977, -1244.981088426000042, 168.9638335619999907 ) ) ;
#57 = VERTEX_POINT ( 'NONE', #694 ) ;
#58 = EDGE_CURVE ( 'NONE', #62, #706, #770, .T. ) ;
#59 = DIRECTION ( 'NONE',  ( 0.000000000000000000, 0.000000000000000000, -1.000000000000000000 ) ) ;
#60 =( NAMED_UNIT ( * ) PLANE_ANGLE_UNIT ( ) SI_UNIT ( $, .RADIAN. ) );
#61 = DIRECTION ( 'NONE',  ( 0.000000000000000000, 1.000000000000000000, 0.000000000000000000 ) ) ;
#62 = VERTEX_POINT ( 'NONE', #861 ) ;
#63 = AXIS2_PLACEMENT_3D ( 'NONE', #25, #538, #838 ) ;
#64 = CARTESIAN_POINT ( 'NONE',  ( 1580.047305909999977, -1271.981088425999815, 168.9638335619999907 ) ) ;
#65 = ADVANCED_FACE ( 'NONE', ( #208 ), #714, .F. ) ;
#66 = AXIS2_PLACEMENT_3D ( 'NONE', #226, #867, #219 ) ;
#67 = AXIS2_PLACEMENT_3D ( 'NONE', #72, #802, #301 ) ;
#68 = DIRECTION ( 'NONE',  ( 0.000000000000000000, 1.000000000000000000, 0.000000000000000000 ) ) ;
#69 = VERTEX_POINT ( 'NONE', #275 ) ;
#70 = CARTESIAN_POINT ( 'NONE',  ( 1584.047305909999977, -1236.981088426000042, 28.96383356200000136 ) ) ;
#71 = EDGE_CURVE ( 'NONE', #247, #779, #420, .T. ) ;
#72 = CARTESIAN_POINT ( 'NONE',  ( 1584.047305909999977, -1244.981088426000042, 28.96383356200000136 ) ) ;
#73 = ORIENTED_EDGE ( 'NONE', *, *, #642, .F. ) ;
#74 = CARTESIAN_POINT ( 'NONE',  ( 1595.047305909999977, -1236.981088426000042, 118.9638335620000049 ) ) ;
#75 = DIRECTION ( 'NONE',  ( 0.000000000000000000, 0.000000000000000000, -1.000000000000000000 ) ) ;
#76 = ADVANCED_FACE ( 'NONE', ( #336 ), #705, .F. ) ;
#77 = VERTEX_POINT ( 'NONE', #492 ) ;
#78 = DIRECTION ( 'NONE',  ( 1.000000000000000000, 0.000000000000000000, 0.000000000000000000 ) ) ;
#79 =( GEOMETRIC_REPRESENTATION_CONTEXT ( 3 ) GLOBAL_UNCERTAINTY_ASSIGNED_CONTEXT ( ( #286 ) ) GLOBAL_UNIT_ASSIGNED_CONTEXT ( ( #203, #60, #621 ) ) REPRESENTATION_CONTEXT ( 'NONE', 'WORKASPACE' ) );
#80 = AXIS2_PLACEMENT_3D ( 'NONE', #296, #87, #216 ) ;
#81 = CIRCLE ( 'NONE', #602, 4.000000000000003553 ) ;
#82 = DIRECTION ( 'NONE',  ( 0.000000000000000000, 0.000000000000000000, -1.000000000000000000 ) ) ;
#83 = ORIENTED_EDGE ( 'NONE', *, *, #58, .T. ) ;
#84 = LINE ( 'NONE', #870, #495 ) ;
#85 = CARTESIAN_POINT ( 'NONE',  ( 1618.047305909999977, -1240.981088426000042, 28.96383356200000136 ) ) ;
#86 = EDGE_LOOP ( 'NONE', ( #863, #537, #689, #288, #264, #233, #37, #338, #643, #6, #676, #177 ) ) ;
#87 = DIRECTION ( 'NONE',  ( 0.000000000000000000, -1.000000000000000000, 0.000000000000000000 ) ) ;
#88 = EDGE_CURVE ( 'NONE', #763, #69, #169, .T. ) ;
#89 = PRODUCT_DEFINITION_SHAPE ( 'NONE', 'NONE',  #281 ) ;
#90 = DIRECTION ( 'NONE',  ( 0.000000000000000000, 0.000000000000000000, 1.000000000000000000 ) ) ;
#91 = ORIENTED_EDGE ( 'NONE', *, *, #631, .F. ) ;
#92 = LINE ( 'NONE', #292, #228 ) ;
#93 = DIRECTION ( 'NONE',  ( 0.000000000000000000, 1.000000000000000000, 0.000000000000000000 ) ) ;
#94 = AXIS2_PLACEMENT_3D ( 'NONE', #794, #298, #11 ) ;
#95 = VERTEX_POINT ( 'NONE', #790 ) ;
#96 = LINE ( 'NONE', #819, #318 ) ;
#97 = PLANE ( 'NONE',  #835 ) ;
#98 = DIRECTION ( 'NONE',  ( 0.000000000000000000, 0.000000000000000000, -1.000000000000000000 ) ) ;
#99 = EDGE_CURVE ( 'NONE', #134, #355, #422, .T. ) ;
#100 = ORIENTED_EDGE ( 'NONE', *, *, #358, .F. ) ;
#101 = CARTESIAN_POINT ( 'NONE',  ( 1576.047305909999977, -1278.981088426000042, 28.96383356200000136 ) ) ;
#102 = CARTESIAN_POINT ( 'NONE',  ( 1584.047305909999977, -1282.981088426000042, 28.96383356200000136 ) ) ;
#103 = EDGE_CURVE ( 'NONE', #591, #356, #142, .T. ) ;
#104 = EDGE_LOOP ( 'NONE', ( #813, #542, #806, #32, #192, #893, #73, #346, #237, #213, #566, #393 ) ) ;
#105 = PLANE ( 'NONE',  #837 ) ;
#106 = ORIENTED_EDGE ( 'NONE', *, *, #40, .F. ) ;
#107 = CARTESIAN_POINT ( 'NONE',  ( 1611.047305910000205, -1282.981088426000042, 168.9638335619999907 ) ) ;
#108 = LINE ( 'NONE', #748, #279 ) ;
#109 = AXIS2_PLACEMENT_3D ( 'NONE', #171, #179, #390 ) ;
#110 = ORIENTED_EDGE ( 'NONE', *, *, #914, .T. ) ;
#111 = VECTOR ( 'NONE', #158, 1000.000000000000000 ) ;
#112 =( LENGTH_UNIT ( ) NAMED_UNIT ( * ) SI_UNIT ( .MILLI., .METRE. ) );
#113 = LINE ( 'NONE', #165, #557 ) ;
#114 = DIRECTION ( 'NONE',  ( 1.000000000000000000, 0.000000000000000000, 0.000000000000000000 ) ) ;
#115 = ORIENTED_EDGE ( 'NONE', *, *, #266, .F. ) ;
#116 = LINE ( 'NONE', #815, #402 ) ;
#117 = ADVANCED_FACE ( 'NONE', ( #808 ), #718, .F. ) ;
#118 = DIRECTION ( 'NONE',  ( -1.000000000000000000, 0.000000000000000000, 0.000000000000000000 ) ) ;
#119 = DIRECTION ( 'NONE',  ( 0.000000000000000000, 0.000000000000000000, 1.000000000000000000 ) ) ;
#120 = DIRECTION ( 'NONE',  ( 0.000000000000000000, 0.000000000000000000, 1.000000000000000000 ) ) ;
#121 = FACE_OUTER_BOUND ( 'NONE', #104, .T. ) ;
#122 = FACE_OUTER_BOUND ( 'NONE', #558, .T. ) ;
#123 = AXIS2_PLACEMENT_3D ( 'NONE', #741, #670, #93 ) ;
#124 = AXIS2_PLACEMENT_3D ( 'NONE', #164, #677, #520 ) ;
#125 = ORIENTED_EDGE ( 'NONE', *, *, #701, .T. ) ;
#126 = CARTESIAN_POINT ( 'NONE',  ( 1618.047305909999977, -1240.981088426000042, 118.9638335620000049 ) ) ;
#127 = AXIS2_PLACEMENT_3D ( 'NONE', #1, #573, #220 ) ;
#128 = LINE ( 'NONE', #626, #678 ) ;
#129 = CARTESIAN_POINT ( 'NONE',  ( 1618.047305909999977, -1278.981088426000042, 28.96383356200000136 ) ) ;
#130 = ORIENTED_EDGE ( 'NONE', *, *, #512, .F. ) ;
#131 = DIRECTION ( 'NONE',  ( 0.000000000000000000, 0.000000000000000000, 1.000000000000000000 ) ) ;
#132 = ORIENTED_EDGE ( 'NONE', *, *, #394, .T. ) ;
#133 = EDGE_CURVE ( 'NONE', #77, #271, #881, .T. ) ;
#134 = VERTEX_POINT ( 'NONE', #224 ) ;
#135 = CARTESIAN_POINT ( 'NONE',  ( 1601.047305909999977, -1236.981088426000042, 118.9638335620000049 ) ) ;
#136 = ORIENTED_EDGE ( 'NONE', *, *, #875, .T. ) ;
#137 = VERTEX_POINT ( 'NONE', #503 ) ;
#138 = EDGE_CURVE ( 'NONE', #516, #779, #154, .T. ) ;
#139 = DIRECTION ( 'NONE',  ( -0.000000000000000000, -1.000000000000000000, -0.000000000000000000 ) ) ;
#140 = EDGE_CURVE ( 'NONE', #14, #271, #733, .T. ) ;
#141 = AXIS2_PLACEMENT_3D ( 'NONE', #563, #59, #551 ) ;
#142 = CIRCLE ( 'NONE', #761, 8.000000000000007105 ) ;
#143 = DIRECTION ( 'NONE',  ( 0.000000000000000000, 1.000000000000000000, 0.000000000000000000 ) ) ;
#144 = ORIENTED_EDGE ( 'NONE', *, *, #452, .F. ) ;
#145 = CARTESIAN_POINT ( 'NONE',  ( 1595.047305909999977, -1236.981088426000042, 28.96383356200000136 ) ) ;
#146 = EDGE_CURVE ( 'NONE', #188, #241, #580, .T. ) ;
#147 = CARTESIAN_POINT ( 'NONE',  ( 1618.047305909999977, -1282.981088426000042, 118.9638335620000049 ) ) ;
#148 = ORIENTED_EDGE ( 'NONE', *, *, #88, .F. ) ;
#149 = LINE ( 'NONE', #427, #111 ) ;
#150 = CARTESIAN_POINT ( 'NONE',  ( 1601.047305909999977, -1236.981088426000042, 118.9638335620000049 ) ) ;
#151 = ORIENTED_EDGE ( 'NONE', *, *, #655, .T. ) ;
#152 = CARTESIAN_POINT ( 'NONE',  ( 1626.047305909999977, -1244.981088426000042, 28.96383356200000136 ) ) ;
#153 = CIRCLE ( 'NONE', #123, 8.000000000000007105 ) ;
#154 = LINE ( 'NONE', #147, #699 ) ;
#155 = MECHANICAL_DESIGN_GEOMETRIC_PRESENTATION_REPRESENTATION (  '', ( #939 ), #79 ) ;
#156 = EDGE_CURVE ( 'NONE', #283, #723, #431, .T. ) ;
#157 = ORIENTED_EDGE ( 'NONE', *, *, #337, .T. ) ;
#158 = DIRECTION ( 'NONE',  ( 0.000000000000000000, 0.000000000000000000, -1.000000000000000000 ) ) ;
#159 = DIRECTION ( 'NONE',  ( 0.000000000000000000, 0.000000000000000000, -1.000000000000000000 ) ) ;
#160 = ORIENTED_EDGE ( 'NONE', *, *, #273, .F. ) ;
#161 = CARTESIAN_POINT ( 'NONE',  ( 1601.047305909999977, -1240.981088426000042, 118.9638335620000049 ) ) ;
#162 = LINE ( 'NONE', #899, #852 ) ;
#163 = EDGE_LOOP ( 'NONE', ( #374, #465, #534, #441 ) ) ;
#164 = CARTESIAN_POINT ( 'NONE',  ( 0.000000000000000000, 0.000000000000000000, 0.000000000000000000 ) ) ;
#165 = CARTESIAN_POINT ( 'NONE',  ( 1607.047305909999977, -1236.981088426000042, 118.9638335620000049 ) ) ;
#166 = ADVANCED_FACE ( 'NONE', ( #511 ), #879, .F. ) ;
#167 = AXIS2_PLACEMENT_3D ( 'NONE', #135, #280, #860 ) ;
#168 = PLANE ( 'NONE',  #805 ) ;
#169 = CIRCLE ( 'NONE', #293, 6.000000000000092371 ) ;
#170 = ORIENTED_EDGE ( 'NONE', *, *, #757, .F. ) ;
#171 = CARTESIAN_POINT ( 'NONE',  ( 1618.047305909999977, -1278.981088426000042, 28.96383356200000136 ) ) ;
#172 = DIRECTION ( 'NONE',  ( 0.000000000000000000, 0.000000000000000000, -1.000000000000000000 ) ) ;
#173 = VERTEX_POINT ( 'NONE', #362 ) ;
#174 = LINE ( 'NONE', #478, #759 ) ;
#175 = CARTESIAN_POINT ( 'NONE',  ( 1584.047305909999977, -1282.981088426000042, 28.96383356200000136 ) ) ;
#176 = LINE ( 'NONE', #688, #682 ) ;
#177 = ORIENTED_EDGE ( 'NONE', *, *, #371, .F. ) ;
#178 = ORIENTED_EDGE ( 'NONE', *, *, #445, .F. ) ;
#179 = DIRECTION ( 'NONE',  ( 0.000000000000000000, 0.000000000000000000, 1.000000000000000000 ) ) ;
#180 = DIRECTION ( 'NONE',  ( 0.000000000000000000, 0.000000000000000000, 1.000000000000000000 ) ) ;
#181 = VECTOR ( 'NONE', #906, 1000.000000000000000 ) ;
#182 = ORIENTED_EDGE ( 'NONE', *, *, #740, .F. ) ;
#183 = VECTOR ( 'NONE', #800, 1000.000000000000000 ) ;
#184 = EDGE_CURVE ( 'NONE', #516, #619, #497, .T. ) ;
#185 = CIRCLE ( 'NONE', #321, 6.000000000000102141 ) ;
#186 = CARTESIAN_POINT ( 'NONE',  ( 1618.047305909999977, -1282.981088426000042, 118.9638335620000049 ) ) ;
#187 = DIRECTION ( 'NONE',  ( 0.000000000000000000, 0.000000000000000000, -1.000000000000000000 ) ) ;
#188 = VERTEX_POINT ( 'NONE', #935 ) ;
#189 = DIRECTION ( 'NONE',  ( 0.000000000000000000, 0.000000000000000000, -1.000000000000000000 ) ) ;
#190 = CARTESIAN_POINT ( 'NONE',  ( 1584.047305909999977, -1236.981088426000042, 28.96383356200000136 ) ) ;
#191 = LINE ( 'NONE', #341, #305 ) ;
#192 = ORIENTED_EDGE ( 'NONE', *, *, #103, .F. ) ;
#193 = CYLINDRICAL_SURFACE ( 'NONE', #462, 8.000000000000007105 ) ;
#194 = EDGE_CURVE ( 'NONE', #295, #672, #320, .T. ) ;
#195 = PRESENTATION_STYLE_ASSIGNMENT (( #334 ) ) ;
#196 = DIRECTION ( 'NONE',  ( 1.000000000000000000, 0.000000000000000000, 0.000000000000000000 ) ) ;
#197 = AXIS2_PLACEMENT_3D ( 'NONE', #268, #118, #616 ) ;
#198 = CIRCLE ( 'NONE', #365, 6.000000000000102141 ) ;
#199 = ORIENTED_EDGE ( 'NONE', *, *, #862, .T. ) ;
#200 = VECTOR ( 'NONE', #114, 1000.000000000000000 ) ;
#201 = CARTESIAN_POINT ( 'NONE',  ( 1580.047305909999977, -1244.981088426000042, 118.9638335620000049 ) ) ;
#202 = PRESENTATION_LAYER_ASSIGNMENT (  '', '', ( #939 ) ) ;
#203 =( LENGTH_UNIT ( ) NAMED_UNIT ( * ) SI_UNIT ( .MILLI., .METRE. ) );
#204 = EDGE_CURVE ( 'NONE', #581, #723, #876, .T. ) ;
#205 = ORIENTED_EDGE ( 'NONE', *, *, #354, .T. ) ;
#206 = ORIENTED_EDGE ( 'NONE', *, *, #138, .T. ) ;
#207 = DIRECTION ( 'NONE',  ( -1.000000000000000000, 0.000000000000000000, 0.000000000000000000 ) ) ;
#208 = FACE_OUTER_BOUND ( 'NONE', #28, .T. ) ;
#209 = ADVANCED_FACE ( 'NONE', ( #290 ), #306, .T. ) ;
#210 = ORIENTED_EDGE ( 'NONE', *, *, #847, .T. ) ;
#211 = CARTESIAN_POINT ( 'NONE',  ( 1601.047305909999977, -1282.981088426000042, 112.9638335619999054 ) ) ;
#212 = CARTESIAN_POINT ( 'NONE',  ( 1584.047305909999977, -1244.981088426000042, 18.96383356200000136 ) ) ;
#213 = ORIENTED_EDGE ( 'NONE', *, *, #297, .F. ) ;
#214 = ADVANCED_FACE ( 'NONE', ( #868 ), #217, .F. ) ;
#215 = CIRCLE ( 'NONE', #29, 8.000000000000007105 ) ;
#216 = DIRECTION ( 'NONE',  ( 1.000000000000000000, 0.000000000000000000, 0.000000000000000000 ) ) ;
#217 = PLANE ( 'NONE',  #127 ) ;
#218 = ORIENTED_EDGE ( 'NONE', *, *, #728, .T. ) ;
#219 = DIRECTION ( 'NONE',  ( 0.000000000000000000, 1.000000000000000000, 0.000000000000000000 ) ) ;
#220 = DIRECTION ( 'NONE',  ( 0.000000000000000000, 0.000000000000000000, -1.000000000000000000 ) ) ;
#221 = ORIENTED_EDGE ( 'NONE', *, *, #223, .F. ) ;
#222 = CARTESIAN_POINT ( 'NONE',  ( 1584.047305909999977, -1236.981088426000042, 28.96383356200000136 ) ) ;
#223 = EDGE_CURVE ( 'NONE', #706, #57, #31, .T. ) ;
#224 = CARTESIAN_POINT ( 'NONE',  ( 1595.047305909999977, -1286.981088426000042, 28.96383356200000136 ) ) ;
#225 = ORIENTED_EDGE ( 'NONE', *, *, #885, .T. ) ;
#226 = CARTESIAN_POINT ( 'NONE',  ( 1584.047305909999977, -1244.981088426000042, 118.9638335620000049 ) ) ;
#227 = VECTOR ( 'NONE', #848, 1000.000000000000000 ) ;
#228 = VECTOR ( 'NONE', #514, 1000.000000000000000 ) ;
#229 = AXIS2_PLACEMENT_3D ( 'NONE', #627, #68, #479 ) ;
#230 = PRODUCT ( 'XH-YJ38-LJ-006-A0-底盘方通-立柱', 'XH-YJ38-LJ-006-A0-底盘方通-立柱', '', ( #528 ) ) ;
#231 = DIRECTION ( 'NONE',  ( -0.000000000000000000, -1.000000000000000000, -0.000000000000000000 ) ) ;
#232 = EDGE_CURVE ( 'NONE', #908, #95, #387, .T. ) ;
#233 = ORIENTED_EDGE ( 'NONE', *, *, #242, .F. ) ;
#234 = CARTESIAN_POINT ( 'NONE',  ( 1576.047305909999977, -1244.981088426000042, 118.9638335620000049 ) ) ;
#235 = DIRECTION ( 'NONE',  ( -1.000000000000000000, 0.000000000000000000, 0.000000000000000000 ) ) ;
#236 = EDGE_CURVE ( 'NONE', #247, #619, #675, .T. ) ;
#237 = ORIENTED_EDGE ( 'NONE', *, *, #194, .F. ) ;
#238 = DIRECTION ( 'NONE',  ( 0.000000000000000000, 0.000000000000000000, -1.000000000000000000 ) ) ;
#239 = ORIENTED_EDGE ( 'NONE', *, *, #33, .T. ) ;
#240 = CARTESIAN_POINT ( 'NONE',  ( 1552.047305910000205, -1151.981088426000042, 28.96383356200000136 ) ) ;
#241 = VERTEX_POINT ( 'NONE', #816 ) ;
#242 = EDGE_CURVE ( 'NONE', #385, #53, #81, .T. ) ;
#243 = DIRECTION ( 'NONE',  ( 0.000000000000000000, 0.000000000000000000, -1.000000000000000000 ) ) ;
#244 = VECTOR ( 'NONE', #608, 1000.000000000000000 ) ;
#245 = DIRECTION ( 'NONE',  ( 0.000000000000000000, 1.000000000000000000, 0.000000000000000000 ) ) ;
#246 = VECTOR ( 'NONE', #196, 1000.000000000000000 ) ;
#247 = VERTEX_POINT ( 'NONE', #396 ) ;
#248 = LINE ( 'NONE', #601, #582 ) ;
#249 = CARTESIAN_POINT ( 'NONE',  ( 1601.047305909999977, -1240.981088426000042, 118.9638335620000049 ) ) ;
#250 = EDGE_LOOP ( 'NONE', ( #828, #504, #225, #527 ) ) ;
#251 = FILL_AREA_STYLE_COLOUR ( '', #12 ) ;
#252 = ORIENTED_EDGE ( 'NONE', *, *, #452, .T. ) ;
#253 = CARTESIAN_POINT ( 'NONE',  ( 1584.047305909999977, -1278.981088426000042, 18.96383356200000136 ) ) ;
#254 = CARTESIAN_POINT ( 'NONE',  ( 1622.047305909999977, -1278.981088426000042, 28.96383356200000136 ) ) ;
#255 = EDGE_CURVE ( 'NONE', #411, #397, #329, .T. ) ;
#256 = ORIENTED_EDGE ( 'NONE', *, *, #781, .T. ) ;
#257 = FACE_OUTER_BOUND ( 'NONE', #326, .T. ) ;
#258 = DIRECTION ( 'NONE',  ( 0.000000000000000000, 0.000000000000000000, -1.000000000000000000 ) ) ;
#259 = CIRCLE ( 'NONE', #801, 6.000000000000102141 ) ;
#260 = ORIENTED_EDGE ( 'NONE', *, *, #404, .F. ) ;
#261 = VECTOR ( 'NONE', #366, 1000.000000000000000 ) ;
#262 = DIRECTION ( 'NONE',  ( 0.000000000000000000, -1.000000000000000000, 0.000000000000000000 ) ) ;
#263 = CARTESIAN_POINT ( 'NONE',  ( 1584.047305909999977, -1240.981088426000042, 118.9638335620000049 ) ) ;
#264 = ORIENTED_EDGE ( 'NONE', *, *, #793, .T. ) ;
#265 = ORIENTED_EDGE ( 'NONE', *, *, #552, .F. ) ;
#266 = EDGE_CURVE ( 'NONE', #723, #845, #604, .T. ) ;
#267 = CARTESIAN_POINT ( 'NONE',  ( 1580.047305909999977, -1278.981088426000042, 118.9638335620000049 ) ) ;
#268 = CARTESIAN_POINT ( 'NONE',  ( 1622.047305909999977, -1271.981088425999815, 168.9638335619999907 ) ) ;
#269 =( NAMED_UNIT ( * ) SI_UNIT ( $, .STERADIAN. ) SOLID_ANGLE_UNIT ( ) );
#270 = VERTEX_POINT ( 'NONE', #827 ) ;
#271 = VERTEX_POINT ( 'NONE', #16 ) ;
#272 = CARTESIAN_POINT ( 'NONE',  ( 1601.047305909999977, -1286.981088426000042, 118.9638335620000049 ) ) ;
#273 = EDGE_CURVE ( 'NONE', #581, #291, #755, .T. ) ;
#274 = CARTESIAN_POINT ( 'NONE',  ( 1595.047305909999977, -1282.981088426000042, 118.9638335620000049 ) ) ;
#275 = CARTESIAN_POINT ( 'NONE',  ( 1607.047305909999977, -1282.981088426000042, 28.96383356200000136 ) ) ;
#276 = AXIS2_PLACEMENT_3D ( 'NONE', #595, #451, #892 ) ;
#277 = VECTOR ( 'NONE', #409, 1000.000000000000000 ) ;
#278 = ORIENTED_EDGE ( 'NONE', *, *, #23, .F. ) ;
#279 = VECTOR ( 'NONE', #310, 1000.000000000000000 ) ;
#280 = DIRECTION ( 'NONE',  ( -0.000000000000000000, -1.000000000000000000, -0.000000000000000000 ) ) ;
#281 = PRODUCT_DEFINITION ( '未知', '', #647, #47 ) ;
#282 = PLANE ( 'NONE',  #926 ) ;
#283 = VERTEX_POINT ( 'NONE', #21 ) ;
#284 = CARTESIAN_POINT ( 'NONE',  ( 1595.047305909999977, -1236.981088426000042, 118.9638335620000049 ) ) ;
#285 = ORIENTED_EDGE ( 'NONE', *, *, #512, .T. ) ;
#286 = UNCERTAINTY_MEASURE_WITH_UNIT (LENGTH_MEASURE( 1.000000000000000082E-05 ), #203, 'distance_accuracy_value', 'NONE');
#287 = EDGE_CURVE ( 'NONE', #672, #685, #176, .T. ) ;
#288 = ORIENTED_EDGE ( 'NONE', *, *, #133, .F. ) ;
#289 = CARTESIAN_POINT ( 'NONE',  ( 1626.047305909999977, -1278.981088426000042, 118.9638335620000049 ) ) ;
#290 = FACE_OUTER_BOUND ( 'NONE', #629, .T. ) ;
#291 = VERTEX_POINT ( 'NONE', #447 ) ;
#292 = CARTESIAN_POINT ( 'NONE',  ( 1607.047305909999977, -1236.981088426000042, 28.96383356200000136 ) ) ;
#293 = AXIS2_PLACEMENT_3D ( 'NONE', #586, #737, #90 ) ;
#294 = DIRECTION ( 'NONE',  ( -1.000000000000000000, 0.000000000000000000, 0.000000000000000000 ) ) ;
#295 = VERTEX_POINT ( 'NONE', #41 ) ;
#296 = CARTESIAN_POINT ( 'NONE',  ( 1611.047305910000205, -1236.981088426000042, 18.96383356200000136 ) ) ;
#297 = EDGE_CURVE ( 'NONE', #619, #295, #108, .T. ) ;
#298 = DIRECTION ( 'NONE',  ( 0.000000000000000000, 0.000000000000000000, 1.000000000000000000 ) ) ;
#299 = EDGE_LOOP ( 'NONE', ( #507, #414, #501, #115, #360, #454, #182, #865, #377, #570, #635, #886 ) ) ;
#300 = DIRECTION ( 'NONE',  ( 0.000000000000000000, 0.000000000000000000, -1.000000000000000000 ) ) ;
#301 = DIRECTION ( 'NONE',  ( -1.000000000000000000, 0.000000000000000000, 0.000000000000000000 ) ) ;
#302 = ORIENTED_EDGE ( 'NONE', *, *, #485, .T. ) ;
#303 = CARTESIAN_POINT ( 'NONE',  ( 1584.047305909999977, -1236.981088426000042, 118.9638335620000049 ) ) ;
#304 = VECTOR ( 'NONE', #78, 1000.000000000000000 ) ;
#305 = VECTOR ( 'NONE', #349, 1000.000000000000000 ) ;
#306 = CYLINDRICAL_SURFACE ( 'NONE', #775, 8.000000000000007105 ) ;
#307 = ADVANCED_FACE ( 'NONE', ( #884 ), #168, .T. ) ;
#308 = ORIENTED_EDGE ( 'NONE', *, *, #531, .F. ) ;
#309 = DIRECTION ( 'NONE',  ( 1.000000000000000000, 0.000000000000000000, 0.000000000000000000 ) ) ;
#310 = DIRECTION ( 'NONE',  ( 0.000000000000000000, 1.000000000000000000, 0.000000000000000000 ) ) ;
#311 = EDGE_CURVE ( 'NONE', #716, #397, #185, .T. ) ;
#312 = VERTEX_POINT ( 'NONE', #684 ) ;
#313 = DIRECTION ( 'NONE',  ( 0.000000000000000000, 0.000000000000000000, 1.000000000000000000 ) ) ;
#314 = DIRECTION ( 'NONE',  ( 0.000000000000000000, 0.000000000000000000, 1.000000000000000000 ) ) ;
#315 = EDGE_LOOP ( 'NONE', ( #100, #221, #426, #342 ) ) ;
#316 = CARTESIAN_POINT ( 'NONE',  ( 1622.047305909999977, -1244.981088426000042, 28.96383356200000136 ) ) ;
#317 = VECTOR ( 'NONE', #348, 1000.000000000000000 ) ;
#318 = VECTOR ( 'NONE', #606, 1000.000000000000000 ) ;
#319 = DIRECTION ( 'NONE',  ( 0.000000000000000000, 1.000000000000000000, 0.000000000000000000 ) ) ;
#320 = CIRCLE ( 'NONE', #94, 4.000000000000003553 ) ;
#321 = AXIS2_PLACEMENT_3D ( 'NONE', #392, #245, #314 ) ;
#322 = ORIENTED_EDGE ( 'NONE', *, *, #466, .F. ) ;
#323 = DIRECTION ( 'NONE',  ( 1.000000000000000000, 0.000000000000000000, 0.000000000000000000 ) ) ;
#324 = CARTESIAN_POINT ( 'NONE',  ( 1552.047305910000205, -1151.981088426000042, 28.96383356200000136 ) ) ;
#325 = CARTESIAN_POINT ( 'NONE',  ( 1618.047305909999977, -1240.981088426000042, 28.96383356200000136 ) ) ;
#326 = EDGE_LOOP ( 'NONE', ( #412, #830, #869, #596 ) ) ;
#327 = FACE_OUTER_BOUND ( 'NONE', #618, .T. ) ;
#328 = DIRECTION ( 'NONE',  ( 0.000000000000000000, 0.000000000000000000, -1.000000000000000000 ) ) ;
#329 = LINE ( 'NONE', #762, #200 ) ;
#330 = APPLICATION_CONTEXT ( 'automotive_design' ) ;
#331 = ORIENTED_EDGE ( 'NONE', *, *, #810, .T. ) ;
#332 = ORIENTED_EDGE ( 'NONE', *, *, #223, .T. ) ;
#333 = LINE ( 'NONE', #530, #789 ) ;
#334 = SURFACE_STYLE_USAGE ( .BOTH. , #547 ) ;
#335 = VECTOR ( 'NONE', #7, 1000.000000000000000 ) ;
#336 = FACE_OUTER_BOUND ( 'NONE', #742, .T. ) ;
#337 = EDGE_CURVE ( 'NONE', #270, #137, #36, .T. ) ;
#338 = ORIENTED_EDGE ( 'NONE', *, *, #592, .T. ) ;
#339 = CARTESIAN_POINT ( 'NONE',  ( 1626.047305909999977, -1278.981088426000042, 118.9638335620000049 ) ) ;
#340 = DIRECTION ( 'NONE',  ( -1.000000000000000000, 0.000000000000000000, 0.000000000000000000 ) ) ;
#341 = CARTESIAN_POINT ( 'NONE',  ( 1626.047305909999977, -1244.981088426000042, 118.9638335620000049 ) ) ;
#342 = ORIENTED_EDGE ( 'NONE', *, *, #379, .T. ) ;
#343 = DIRECTION ( 'NONE',  ( -1.000000000000000000, 0.000000000000000000, 0.000000000000000000 ) ) ;
#344 = CARTESIAN_POINT ( 'NONE',  ( 1584.047305909999977, -1282.981088426000042, 118.9638335620000049 ) ) ;
#345 = ORIENTED_EDGE ( 'NONE', *, *, #71, .F. ) ;
#346 = ORIENTED_EDGE ( 'NONE', *, *, #287, .F. ) ;
#347 = CARTESIAN_POINT ( 'NONE',  ( 1595.047305909999977, -1286.981088426000042, 118.9638335620000049 ) ) ;
#348 = DIRECTION ( 'NONE',  ( 0.000000000000000000, 0.000000000000000000, 1.000000000000000000 ) ) ;
#349 = DIRECTION ( 'NONE',  ( 0.000000000000000000, -1.000000000000000000, 0.000000000000000000 ) ) ;
#350 = AXIS2_PLACEMENT_3D ( 'NONE', #904, #515, #98 ) ;
#351 = AXIS2_PLACEMENT_3D ( 'NONE', #584, #578, #502 ) ;
#352 = ORIENTED_EDGE ( 'NONE', *, *, #885, .F. ) ;
#353 = DIRECTION ( 'NONE',  ( 1.000000000000000000, 0.000000000000000000, -0.000000000000000000 ) ) ;
#354 = EDGE_CURVE ( 'NONE', #57, #484, #539, .T. ) ;
#355 = VERTEX_POINT ( 'NONE', #26 ) ;
#356 = VERTEX_POINT ( 'NONE', #812 ) ;
#357 = LINE ( 'NONE', #49, #277 ) ;
#358 = EDGE_CURVE ( 'NONE', #57, #690, #162, .T. ) ;
#359 = CARTESIAN_POINT ( 'NONE',  ( 1576.047305909999977, -1278.981088426000042, 28.96383356200000136 ) ) ;
#360 = ORIENTED_EDGE ( 'NONE', *, *, #156, .F. ) ;
#361 = CARTESIAN_POINT ( 'NONE',  ( 1618.047305909999977, -1240.981088426000042, 28.96383356200000136 ) ) ;
#362 = CARTESIAN_POINT ( 'NONE',  ( 1607.047305909999977, -1282.981088426000042, 118.9638335620000049 ) ) ;
#363 = ORIENTED_EDGE ( 'NONE', *, *, #140, .F. ) ;
#364 = CIRCLE ( 'NONE', #34, 4.000000000000003553 ) ;
#365 = AXIS2_PLACEMENT_3D ( 'NONE', #161, #438, #300 ) ;
#366 = DIRECTION ( 'NONE',  ( -1.000000000000000000, 0.000000000000000000, 0.000000000000000000 ) ) ;
#367 = AXIS2_PLACEMENT_3D ( 'NONE', #150, #428, #726 ) ;
#368 = AXIS2_PLACEMENT_3D ( 'NONE', #20, #139, #864 ) ;
#369 = CARTESIAN_POINT ( 'NONE',  ( 1618.047305909999977, -1286.981088426000042, 28.96383356200000136 ) ) ;
#370 = ORIENTED_EDGE ( 'NONE', *, *, #914, .F. ) ;
#371 = EDGE_CURVE ( 'NONE', #639, #291, #153, .T. ) ;
#372 = LINE ( 'NONE', #938, #48 ) ;
#373 = DIRECTION ( 'NONE',  ( -1.000000000000000000, 0.000000000000000000, 0.000000000000000000 ) ) ;
#374 = ORIENTED_EDGE ( 'NONE', *, *, #236, .T. ) ;
#375 = CARTESIAN_POINT ( 'NONE',  ( 1601.047305909999977, -1286.981088426000042, 28.96383356200000136 ) ) ;
#376 = DIRECTION ( 'NONE',  ( 0.000000000000000000, -1.000000000000000000, 0.000000000000000000 ) ) ;
#377 = ORIENTED_EDGE ( 'NONE', *, *, #667, .F. ) ;
#378 = LINE ( 'NONE', #74, #743 ) ;
#379 = EDGE_CURVE ( 'NONE', #188, #690, #645, .T. ) ;
#380 = VECTOR ( 'NONE', #652, 1000.000000000000000 ) ;
#381 = DIRECTION ( 'NONE',  ( 0.000000000000000000, -1.000000000000000000, 0.000000000000000000 ) ) ;
#382 = ORIENTED_EDGE ( 'NONE', *, *, #768, .T. ) ;
#383 = FACE_OUTER_BOUND ( 'NONE', #250, .T. ) ;
#384 = DIRECTION ( 'NONE',  ( -0.000000000000000000, -1.000000000000000000, -0.000000000000000000 ) ) ;
#385 = VERTEX_POINT ( 'NONE', #102 ) ;
#386 = CYLINDRICAL_SURFACE ( 'NONE', #63, 8.000000000000007105 ) ;
#387 = LINE ( 'NONE', #590, #895 ) ;
#388 = ORIENTED_EDGE ( 'NONE', *, *, #404, .T. ) ;
#389 = EDGE_CURVE ( 'NONE', #137, #14, #603, .T. ) ;
#390 = DIRECTION ( 'NONE',  ( 0.000000000000000000, -1.000000000000000000, 0.000000000000000000 ) ) ;
#391 = CIRCLE ( 'NONE', #662, 4.000000000000003553 ) ;
#392 = CARTESIAN_POINT ( 'NONE',  ( 1601.047305909999977, -1282.981088426000042, 118.9638335620000049 ) ) ;
#393 = ORIENTED_EDGE ( 'NONE', *, *, #439, .F. ) ;
#394 = EDGE_CURVE ( 'NONE', #270, #513, #364, .T. ) ;
#395 = FACE_OUTER_BOUND ( 'NONE', #638, .T. ) ;
#396 = CARTESIAN_POINT ( 'NONE',  ( 1622.047305909999977, -1278.981088426000042, 28.96383356200000136 ) ) ;
#397 = VERTEX_POINT ( 'NONE', #274 ) ;
#398 = DIRECTION ( 'NONE',  ( 0.000000000000000000, 1.000000000000000000, 0.000000000000000000 ) ) ;
#399 = EDGE_CURVE ( 'NONE', #730, #43, #598, .T. ) ;
#400 = DIRECTION ( 'NONE',  ( 0.000000000000000000, 0.000000000000000000, -1.000000000000000000 ) ) ;
#401 = DIRECTION ( 'NONE',  ( -0.000000000000000000, -1.000000000000000000, -0.000000000000000000 ) ) ;
#402 = VECTOR ( 'NONE', #826, 1000.000000000000000 ) ;
#403 = CARTESIAN_POINT ( 'NONE',  ( 1552.047305910000205, -1151.981088426000042, 118.9638335620000049 ) ) ;
#404 = EDGE_CURVE ( 'NONE', #734, #53, #128, .T. ) ;
#405 =( GEOMETRIC_REPRESENTATION_CONTEXT ( 3 ) GLOBAL_UNCERTAINTY_ASSIGNED_CONTEXT ( ( #628 ) ) GLOBAL_UNIT_ASSIGNED_CONTEXT ( ( #19, #24, #269 ) ) REPRESENTATION_CONTEXT ( 'NONE', 'WORKASPACE' ) );
#406 = MANIFOLD_SOLID_BREP ( '切除-拉伸2', #13 ) ;
#407 = ORIENTED_EDGE ( 'NONE', *, *, #571, .T. ) ;
#408 = ORIENTED_EDGE ( 'NONE', *, *, #499, .T. ) ;
#409 = DIRECTION ( 'NONE',  ( 0.000000000000000000, 1.000000000000000000, 0.000000000000000000 ) ) ;
#410 = DIRECTION ( 'NONE',  ( 0.000000000000000000, 0.000000000000000000, -1.000000000000000000 ) ) ;
#411 = VERTEX_POINT ( 'NONE', #344 ) ;
#412 = ORIENTED_EDGE ( 'NONE', *, *, #797, .F. ) ;
#413 = FACE_OUTER_BOUND ( 'NONE', #315, .T. ) ;
#414 = ORIENTED_EDGE ( 'NONE', *, *, #58, .F. ) ;
#415 = ORIENTED_EDGE ( 'NONE', *, *, #232, .F. ) ;
#416 = ADVANCED_FACE ( 'NONE', ( #776 ), #704, .T. ) ;
#417 = FACE_OUTER_BOUND ( 'NONE', #18, .T. ) ;
#418 = CARTESIAN_POINT ( 'NONE',  ( 1618.047305909999977, -1236.981088426000042, 28.96383356200000136 ) ) ;
#419 = ORIENTED_EDGE ( 'NONE', *, *, #847, .F. ) ;
#420 = CIRCLE ( 'NONE', #648, 4.000000000000003553 ) ;
#421 = CARTESIAN_POINT ( 'NONE',  ( 1611.047305910000205, -1240.981088426000042, 168.9638335619999907 ) ) ;
#422 = LINE ( 'NONE', #369, #380 ) ;
#423 = ORIENTED_EDGE ( 'NONE', *, *, #612, .F. ) ;
#424 = CARTESIAN_POINT ( 'NONE',  ( 1595.047305909999977, -1282.981088426000042, 28.96383356200000136 ) ) ;
#425 = DIRECTION ( 'NONE',  ( 0.000000000000000000, 0.000000000000000000, -1.000000000000000000 ) ) ;
#426 = ORIENTED_EDGE ( 'NONE', *, *, #787, .T. ) ;
#427 = CARTESIAN_POINT ( 'NONE',  ( 1576.047305909999977, -1244.981088426000042, 118.9638335620000049 ) ) ;
#428 = DIRECTION ( 'NONE',  ( 0.000000000000000000, -1.000000000000000000, 0.000000000000000000 ) ) ;
#429 = ORIENTED_EDGE ( 'NONE', *, *, #564, .T. ) ;
#430 = DIRECTION ( 'NONE',  ( 0.000000000000000000, -1.000000000000000000, 0.000000000000000000 ) ) ;
#431 = CIRCLE ( 'NONE', #912, 8.000000000000007105 ) ;
#432 = AXIS2_PLACEMENT_3D ( 'NONE', #746, #607, #328 ) ;
#433 = CARTESIAN_POINT ( 'NONE',  ( 1618.047305909999977, -1244.981088426000042, 118.9638335620000049 ) ) ;
#434 = ORIENTED_EDGE ( 'NONE', *, *, #936, .F. ) ;
#435 = LINE ( 'NONE', #361, #335 ) ;
#436 = CARTESIAN_POINT ( 'NONE',  ( 1618.047305909999977, -1278.981088426000042, 118.9638335620000049 ) ) ;
#437 = ORIENTED_EDGE ( 'NONE', *, *, #445, .T. ) ;
#438 = DIRECTION ( 'NONE',  ( 0.000000000000000000, -1.000000000000000000, 0.000000000000000000 ) ) ;
#439 = EDGE_CURVE ( 'NONE', #173, #516, #921, .T. ) ;
#440 = DIRECTION ( 'NONE',  ( 0.000000000000000000, 0.000000000000000000, 1.000000000000000000 ) ) ;
#441 = ORIENTED_EDGE ( 'NONE', *, *, #499, .F. ) ;
#442 = FILL_AREA_STYLE ('',( #251 ) ) ;
#443 = AXIS2_PLACEMENT_3D ( 'NONE', #559, #696, #207 ) ;
#444 = LINE ( 'NONE', #517, #181 ) ;
#445 = EDGE_CURVE ( 'NONE', #241, #271, #468, .T. ) ;
#446 = VECTOR ( 'NONE', #646, 1000.000000000000000 ) ;
#447 = CARTESIAN_POINT ( 'NONE',  ( 1576.047305909999977, -1244.981088426000042, 28.96383356200000136 ) ) ;
#448 = ORIENTED_EDGE ( 'NONE', *, *, #242, .T. ) ;
#449 = ORIENTED_EDGE ( 'NONE', *, *, #287, .T. ) ;
#450 = LINE ( 'NONE', #175, #712 ) ;
#451 = DIRECTION ( 'NONE',  ( 0.000000000000000000, -1.000000000000000000, 0.000000000000000000 ) ) ;
#452 = EDGE_CURVE ( 'NONE', #639, #62, #693, .T. ) ;
#453 = ORIENTED_EDGE ( 'NONE', *, *, #3, .T. ) ;
#454 = ORIENTED_EDGE ( 'NONE', *, *, #875, .F. ) ;
#455 = CARTESIAN_POINT ( 'NONE',  ( 1601.047305909999977, -1286.981088426000042, 118.9638335620000049 ) ) ;
#456 = CARTESIAN_POINT ( 'NONE',  ( 1584.047305909999977, -1278.981088426000042, 28.96383356200000136 ) ) ;
#457 = ADVANCED_FACE ( 'NONE', ( #927 ), #611, .F. ) ;
#458 = VERTEX_POINT ( 'NONE', #472 ) ;
#459 = SURFACE_STYLE_FILL_AREA ( #442 ) ;
#460 = PLANE ( 'NONE',  #521 ) ;
#461 = AXIS2_PLACEMENT_3D ( 'NONE', #249, #888, #238 ) ;
#462 = AXIS2_PLACEMENT_3D ( 'NONE', #843, #189, #470 ) ;
#463 = DIRECTION ( 'NONE',  ( 0.000000000000000000, 0.000000000000000000, -1.000000000000000000 ) ) ;
#464 = AXIS2_PLACEMENT_3D ( 'NONE', #5, #656, #506 ) ;
#465 = ORIENTED_EDGE ( 'NONE', *, *, #297, .T. ) ;
#466 = EDGE_CURVE ( 'NONE', #283, #355, #840, .T. ) ;
#467 = DIRECTION ( 'NONE',  ( -0.000000000000000000, -1.000000000000000000, -0.000000000000000000 ) ) ;
#468 = LINE ( 'NONE', #263, #227 ) ;
#469 = LINE ( 'NONE', #766, #715 ) ;
#470 = DIRECTION ( 'NONE',  ( 1.000000000000000000, 0.000000000000000000, 0.000000000000000000 ) ) ;
#471 = ADVANCED_FACE ( 'NONE', ( #121 ), #541, .T. ) ;
#472 = CARTESIAN_POINT ( 'NONE',  ( 1580.047305909999977, -1244.981088426000042, 118.9638335620000049 ) ) ;
#473 = CARTESIAN_POINT ( 'NONE',  ( 1618.047305909999977, -1236.981088426000042, 118.9638335620000049 ) ) ;
#474 = ORIENTED_EDGE ( 'NONE', *, *, #842, .T. ) ;
#475 = CARTESIAN_POINT ( 'NONE',  ( 1618.047305909999977, -1244.981088426000042, 28.96383356200000136 ) ) ;
#476 = FILL_AREA_STYLE ('',( #632 ) ) ;
#477 = AXIS2_PLACEMENT_3D ( 'NONE', #64, #353, #120 ) ;
#478 = CARTESIAN_POINT ( 'NONE',  ( 1584.047305909999977, -1236.981088426000042, 28.96383356200000136 ) ) ;
#479 = DIRECTION ( 'NONE',  ( -1.000000000000000000, 0.000000000000000000, 0.000000000000000000 ) ) ;
#480 = VECTOR ( 'NONE', #180, 1000.000000000000000 ) ;
#481 = AXIS2_PLACEMENT_3D ( 'NONE', #272, #717, #780 ) ;
#482 = ORIENTED_EDGE ( 'NONE', *, *, #194, .T. ) ;
#483 = DIRECTION ( 'NONE',  ( 0.000000000000000000, -1.000000000000000000, 0.000000000000000000 ) ) ;
#484 = VERTEX_POINT ( 'NONE', #902 ) ;
#485 = EDGE_CURVE ( 'NONE', #385, #411, #450, .T. ) ;
#486 = EDGE_LOOP ( 'NONE', ( #83, #332, #205, #382, #851, #370, #937, #719, #252 ) ) ;
#487 = PLANE ( 'NONE',  #477 ) ;
#488 = DIRECTION ( 'NONE',  ( -0.000000000000000000, -1.000000000000000000, -0.000000000000000000 ) ) ;
#489 = ADVANCED_FACE ( 'NONE', ( #610 ), #891, .T. ) ;
#490 = ORIENTED_EDGE ( 'NONE', *, *, #99, .F. ) ;
#491 = DIRECTION ( 'NONE',  ( 0.000000000000000000, 0.000000000000000000, -1.000000000000000000 ) ) ;
#492 = CARTESIAN_POINT ( 'NONE',  ( 1580.047305909999977, -1244.981088426000042, 28.96383356200000136 ) ) ;
#493 = UNCERTAINTY_MEASURE_WITH_UNIT (LENGTH_MEASURE( 1.000000000000000082E-05 ), #112, 'distance_accuracy_value', 'NONE');
#494 = STYLED_ITEM ( 'NONE', ( #829 ), #692 ) ;
#495 = VECTOR ( 'NONE', #878, 1000.000000000000000 ) ;
#496 = ORIENTED_EDGE ( 'NONE', *, *, #71, .T. ) ;
#497 = CIRCLE ( 'NONE', #585, 4.000000000000003553 ) ;
#498 = CARTESIAN_POINT ( 'NONE',  ( 1618.047305909999977, -1286.981088426000042, 118.9638335620000049 ) ) ;
#499 = EDGE_CURVE ( 'NONE', #247, #513, #523, .T. ) ;
#500 = CARTESIAN_POINT ( 'NONE',  ( 1601.047305909999977, -1236.981088426000042, 118.9638335620000049 ) ) ;
#501 = ORIENTED_EDGE ( 'NONE', *, *, #728, .F. ) ;
#502 = DIRECTION ( 'NONE',  ( -1.000000000000000000, 0.000000000000000000, 0.000000000000000000 ) ) ;
#503 = CARTESIAN_POINT ( 'NONE',  ( 1607.047305909999977, -1240.981088426000042, 28.96383356200000136 ) ) ;
#504 = ORIENTED_EDGE ( 'NONE', *, *, #3, .F. ) ;
#505 = PLANE ( 'NONE',  #80 ) ;
#506 = DIRECTION ( 'NONE',  ( 1.000000000000000000, 0.000000000000000000, 0.000000000000000000 ) ) ;
#507 = ORIENTED_EDGE ( 'NONE', *, *, #787, .F. ) ;
#508 = CIRCLE ( 'NONE', #109, 8.000000000000007105 ) ;
#509 = LINE ( 'NONE', #575, #774 ) ;
#510 = CIRCLE ( 'NONE', #745, 6.000000000000102141 ) ;
#511 = FACE_OUTER_BOUND ( 'NONE', #877, .T. ) ;
#512 = EDGE_CURVE ( 'NONE', #866, #312, #259, .T. ) ;
#513 = VERTEX_POINT ( 'NONE', #316 ) ;
#514 = DIRECTION ( 'NONE',  ( 0.000000000000000000, 1.000000000000000000, 0.000000000000000000 ) ) ;
#515 = DIRECTION ( 'NONE',  ( 0.000000000000000000, -1.000000000000000000, 0.000000000000000000 ) ) ;
#516 = VERTEX_POINT ( 'NONE', #186 ) ;
#517 = CARTESIAN_POINT ( 'NONE',  ( 1618.047305909999977, -1286.981088426000042, 28.96383356200000136 ) ) ;
#518 = CARTESIAN_POINT ( 'NONE',  ( 1552.047305910000205, -1151.981088426000042, 118.9638335620000049 ) ) ;
#519 = ORIENTED_EDGE ( 'NONE', *, *, #757, .T. ) ;
#520 = DIRECTION ( 'NONE',  ( 1.000000000000000000, 0.000000000000000000, 0.000000000000000000 ) ) ;
#521 = AXIS2_PLACEMENT_3D ( 'NONE', #324, #313, #897 ) ;
#522 =( GEOMETRIC_REPRESENTATION_CONTEXT ( 3 ) GLOBAL_UNCERTAINTY_ASSIGNED_CONTEXT ( ( #493 ) ) GLOBAL_UNIT_ASSIGNED_CONTEXT ( ( #112, #15, #589 ) ) REPRESENTATION_CONTEXT ( 'NONE', 'WORKASPACE' ) );
#523 = LINE ( 'NONE', #821, #553 ) ;
#524 = ADVANCED_FACE ( 'NONE', ( #395 ), #460, .F. ) ;
#525 = AXIS2_PLACEMENT_3D ( 'NONE', #500, #231, #159 ) ;
#526 = DIRECTION ( 'NONE',  ( -1.000000000000000000, 0.000000000000000000, 0.000000000000000000 ) ) ;
#527 = ORIENTED_EDGE ( 'NONE', *, *, #592, .F. ) ;
#528 = PRODUCT_CONTEXT ( 'NONE', #856, 'mechanical' ) ;
#529 = ORIENTED_EDGE ( 'NONE', *, *, #204, .T. ) ;
#530 = CARTESIAN_POINT ( 'NONE',  ( 1622.047305909999977, -1244.981088426000042, 118.9638335620000049 ) ) ;
#531 = EDGE_CURVE ( 'NONE', #545, #95, #508, .T. ) ;
#532 = DIRECTION ( 'NONE',  ( 0.000000000000000000, -1.000000000000000000, 0.000000000000000000 ) ) ;
#533 = ORIENTED_EDGE ( 'NONE', *, *, #909, .F. ) ;
#534 = ORIENTED_EDGE ( 'NONE', *, *, #612, .T. ) ;
#535 = DIRECTION ( 'NONE',  ( 0.000000000000000000, 0.000000000000000000, 1.000000000000000000 ) ) ;
#536 = CARTESIAN_POINT ( 'NONE',  ( 1576.047305909999977, -1278.981088426000042, 118.9638335620000049 ) ) ;
#537 = ORIENTED_EDGE ( 'NONE', *, *, #747, .T. ) ;
#538 = DIRECTION ( 'NONE',  ( 0.000000000000000000, 0.000000000000000000, -1.000000000000000000 ) ) ;
#539 = CIRCLE ( 'NONE', #350, 6.000000000000102141 ) ;
#540 = VECTOR ( 'NONE', #401, 1000.000000000000000 ) ;
#541 = PLANE ( 'NONE',  #857 ) ;
#542 = ORIENTED_EDGE ( 'NONE', *, *, #842, .F. ) ;
#543 = DIRECTION ( 'NONE',  ( 0.000000000000000000, 0.000000000000000000, 1.000000000000000000 ) ) ;
#544 = CARTESIAN_POINT ( 'NONE',  ( 1595.047305909999977, -1240.981088426000042, 28.96383356200000136 ) ) ;
#545 = VERTEX_POINT ( 'NONE', #911 ) ;
#546 = LINE ( 'NONE', #145, #727 ) ;
#547 = SURFACE_SIDE_STYLE ('',( #765 ) ) ;
#548 = FACE_OUTER_BOUND ( 'NONE', #86, .T. ) ;
#549 = ORIENTED_EDGE ( 'NONE', *, *, #810, .F. ) ;
#550 = ORIENTED_EDGE ( 'NONE', *, *, #23, .T. ) ;
#551 = DIRECTION ( 'NONE',  ( 1.000000000000000000, 0.000000000000000000, 0.000000000000000000 ) ) ;
#552 = EDGE_CURVE ( 'NONE', #77, #458, #116, .T. ) ;
#553 = VECTOR ( 'NONE', #760, 1000.000000000000000 ) ;
#554 = VECTOR ( 'NONE', #10, 1000.000000000000000 ) ;
#555 = ORIENTED_EDGE ( 'NONE', *, *, #236, .F. ) ;
#556 = VECTOR ( 'NONE', #832, 1000.000000000000000 ) ;
#557 = VECTOR ( 'NONE', #594, 1000.000000000000000 ) ;
#558 = EDGE_LOOP ( 'NONE', ( #519, #160, #529, #915 ) ) ;
#559 = CARTESIAN_POINT ( 'NONE',  ( 1584.047305909999977, -1244.981088426000042, 118.9638335620000049 ) ) ;
#560 = EDGE_CURVE ( 'NONE', #312, #173, #113, .T. ) ;
#561 = ORIENTED_EDGE ( 'NONE', *, *, #631, .T. ) ;
#562 = EDGE_LOOP ( 'NONE', ( #2, #574, #437, #363, #795, #577, #679, #449, #771 ) ) ;
#563 = CARTESIAN_POINT ( 'NONE',  ( 1618.047305909999977, -1278.981088426000042, 118.9638335620000049 ) ) ;
#564 = EDGE_CURVE ( 'NONE', #545, #823, #754, .T. ) ;
#565 = DIRECTION ( 'NONE',  ( 0.000000000000000000, 1.000000000000000000, 0.000000000000000000 ) ) ;
#566 = ORIENTED_EDGE ( 'NONE', *, *, #184, .F. ) ;
#567 = CARTESIAN_POINT ( 'NONE',  ( 1618.047305909999977, -1286.981088426000042, 118.9638335620000049 ) ) ;
#568 = DIRECTION ( 'NONE',  ( 0.000000000000000000, 0.000000000000000000, -1.000000000000000000 ) ) ;
#569 = AXIS2_PLACEMENT_3D ( 'NONE', #375, #658, #644 ) ;
#570 = ORIENTED_EDGE ( 'NONE', *, *, #701, .F. ) ;
#571 = EDGE_CURVE ( 'NONE', #545, #809, #444, .T. ) ;
#572 = DIRECTION ( 'NONE',  ( 0.000000000000000000, 0.000000000000000000, 1.000000000000000000 ) ) ;
#573 = DIRECTION ( 'NONE',  ( -1.000000000000000000, 0.000000000000000000, 0.000000000000000000 ) ) ;
#574 = ORIENTED_EDGE ( 'NONE', *, *, #146, .T. ) ;
#575 = CARTESIAN_POINT ( 'NONE',  ( 1626.047305909999977, -1244.981088426000042, 28.96383356200000136 ) ) ;
#576 = DIRECTION ( 'NONE',  ( 1.000000000000000000, 0.000000000000000000, 0.000000000000000000 ) ) ;
#577 = ORIENTED_EDGE ( 'NONE', *, *, #337, .F. ) ;
#578 = DIRECTION ( 'NONE',  ( 0.000000000000000000, 0.000000000000000000, 1.000000000000000000 ) ) ;
#579 = ADVANCED_FACE ( 'NONE', ( #674 ), #39, .F. ) ;
#580 = LINE ( 'NONE', #798, #854 ) ;
#581 = VERTEX_POINT ( 'NONE', #101 ) ;
#582 = VECTOR ( 'NONE', #467, 1000.000000000000000 ) ;
#583 = CIRCLE ( 'NONE', #443, 8.000000000000007105 ) ;
#584 = CARTESIAN_POINT ( 'NONE',  ( 1584.047305909999977, -1278.981088426000042, 28.96383356200000136 ) ) ;
#585 = AXIS2_PLACEMENT_3D ( 'NONE', #436, #722, #659 ) ;
#586 = CARTESIAN_POINT ( 'NONE',  ( 1601.047305909999977, -1282.981088426000042, 28.96383356200000136 ) ) ;
#587 = ADVANCED_FACE ( 'NONE', ( #257 ), #386, .T. ) ;
#588 = ORIENTED_EDGE ( 'NONE', *, *, #184, .T. ) ;
#589 =( NAMED_UNIT ( * ) SI_UNIT ( $, .STERADIAN. ) SOLID_ANGLE_UNIT ( ) );
#590 = CARTESIAN_POINT ( 'NONE',  ( 1626.047305909999977, -1244.981088426000042, 28.96383356200000136 ) ) ;
#591 = VERTEX_POINT ( 'NONE', #691 ) ;
#592 = EDGE_CURVE ( 'NONE', #763, #134, #248, .T. ) ;
#593 = DIRECTION ( 'NONE',  ( 1.000000000000000000, 0.000000000000000000, 0.000000000000000000 ) ) ;
#594 = DIRECTION ( 'NONE',  ( 0.000000000000000000, 1.000000000000000000, 0.000000000000000000 ) ) ;
#595 = CARTESIAN_POINT ( 'NONE',  ( 1601.047305909999977, -1240.981088426000042, 28.96383356200000136 ) ) ;
#596 = ORIENTED_EDGE ( 'NONE', *, *, #531, .T. ) ;
#597 = CYLINDRICAL_SURFACE ( 'NONE', #713, 4.000000000000003553 ) ;
#598 = CIRCLE ( 'NONE', #772, 6.000000000000095923 ) ;
#599 = ADVANCED_FACE ( 'NONE', ( #764 ), #97, .T. ) ;
#600 = CIRCLE ( 'NONE', #66, 4.000000000000003553 ) ;
#601 = CARTESIAN_POINT ( 'NONE',  ( 1595.047305909999977, -1236.981088426000042, 28.96383356200000136 ) ) ;
#602 = AXIS2_PLACEMENT_3D ( 'NONE', #456, #463, #532 ) ;
#603 = CIRCLE ( 'NONE', #276, 6.000000000000095923 ) ;
#604 = LINE ( 'NONE', #536, #729 ) ;
#605 = ORIENTED_EDGE ( 'NONE', *, *, #51, .F. ) ;
#606 = DIRECTION ( 'NONE',  ( 1.000000000000000000, 0.000000000000000000, 0.000000000000000000 ) ) ;
#607 = DIRECTION ( 'NONE',  ( -0.000000000000000000, -1.000000000000000000, -0.000000000000000000 ) ) ;
#608 = DIRECTION ( 'NONE',  ( -1.000000000000000000, 0.000000000000000000, 0.000000000000000000 ) ) ;
#609 = ORIENTED_EDGE ( 'NONE', *, *, #358, .T. ) ;
#610 = FACE_OUTER_BOUND ( 'NONE', #929, .T. ) ;
#611 = CYLINDRICAL_SURFACE ( 'NONE', #661, 6.000000000000102141 ) ;
#612 = EDGE_CURVE ( 'NONE', #295, #513, #333, .T. ) ;
#613 = EDGE_LOOP ( 'NONE', ( #9, #448, #260, #818 ) ) ;
#614 = DIRECTION ( 'NONE',  ( 0.000000000000000000, 0.000000000000000000, -1.000000000000000000 ) ) ;
#615 = PRESENTATION_LAYER_ASSIGNMENT (  '', '', ( #494 ) ) ;
#616 = DIRECTION ( 'NONE',  ( 0.000000000000000000, -1.000000000000000000, 0.000000000000000000 ) ) ;
#617 = ADVANCED_FACE ( 'NONE', ( #383 ), #669, .F. ) ;
#618 = EDGE_LOOP ( 'NONE', ( #555, #496, #623, #588 ) ) ;
#619 = VERTEX_POINT ( 'NONE', #620 ) ;
#620 = CARTESIAN_POINT ( 'NONE',  ( 1622.047305909999977, -1278.981088426000042, 118.9638335620000049 ) ) ;
#621 =( NAMED_UNIT ( * ) SI_UNIT ( $, .STERADIAN. ) SOLID_ANGLE_UNIT ( ) );
#622 = CARTESIAN_POINT ( 'NONE',  ( 1580.047305909999977, -1278.981088426000042, 28.96383356200000136 ) ) ;
#623 = ORIENTED_EDGE ( 'NONE', *, *, #138, .F. ) ;
#624 = ADVANCED_FACE ( 'NONE', ( #853 ), #625, .T. ) ;
#625 = PLANE ( 'NONE',  #777 ) ;
#626 = CARTESIAN_POINT ( 'NONE',  ( 1580.047305909999977, -1278.981088426000042, 118.9638335620000049 ) ) ;
#627 = CARTESIAN_POINT ( 'NONE',  ( 1611.047305910000205, -1286.981088426000042, 18.96383356200000136 ) ) ;
#628 = UNCERTAINTY_MEASURE_WITH_UNIT (LENGTH_MEASURE( 1.000000000000000082E-05 ), #19, 'distance_accuracy_value', 'NONE');
#629 = EDGE_LOOP ( 'NONE', ( #170, #218, #144, #668 ) ) ;
#630 = LINE ( 'NONE', #201, #697 ) ;
#631 = EDGE_CURVE ( 'NONE', #695, #866, #896, .T. ) ;
#632 = FILL_AREA_STYLE_COLOUR ( '', #817 ) ;
#633 = CIRCLE ( 'NONE', #141, 8.000000000000007105 ) ;
#634 = CARTESIAN_POINT ( 'NONE',  ( 1595.047305909999977, -1236.981088426000042, 28.96383356200000136 ) ) ;
#635 = ORIENTED_EDGE ( 'NONE', *, *, #862, .F. ) ;
#636 = DIRECTION ( 'NONE',  ( 0.000000000000000000, 0.000000000000000000, 1.000000000000000000 ) ) ;
#637 = ADVANCED_FACE ( 'NONE', ( #703 ), #846, .F. ) ;
#638 = EDGE_LOOP ( 'NONE', ( #407, #453, #782, #345, #408, #919, #157, #210, #110, #905, #710, #308 ) ) ;
#639 = VERTEX_POINT ( 'NONE', #70 ) ;
#640 = DIRECTION ( 'NONE',  ( -0.000000000000000000, -1.000000000000000000, -0.000000000000000000 ) ) ;
#641 = DIRECTION ( 'NONE',  ( 1.000000000000000000, 0.000000000000000000, 0.000000000000000000 ) ) ;
#642 = EDGE_CURVE ( 'NONE', #685, #484, #357, .T. ) ;
#643 = ORIENTED_EDGE ( 'NONE', *, *, #99, .T. ) ;
#644 = DIRECTION ( 'NONE',  ( 0.000000000000000000, 0.000000000000000000, -1.000000000000000000 ) ) ;
#645 = CIRCLE ( 'NONE', #461, 6.000000000000102141 ) ;
#646 = DIRECTION ( 'NONE',  ( 0.000000000000000000, 0.000000000000000000, 1.000000000000000000 ) ) ;
#647 = PRODUCT_DEFINITION_FORMATION_WITH_SPECIFIED_SOURCE ( '任何', '', #230, .NOT_KNOWN. ) ;
#648 = AXIS2_PLACEMENT_3D ( 'NONE', #129, #400, #46 ) ;
#649 = EDGE_LOOP ( 'NONE', ( #841, #609, #256, #825 ) ) ;
#650 = AXIS2_PLACEMENT_3D ( 'NONE', #56, #82, #576 ) ;
#651 = CYLINDRICAL_SURFACE ( 'NONE', #880, 4.000000000000003553 ) ;
#652 = DIRECTION ( 'NONE',  ( -1.000000000000000000, 0.000000000000000000, 0.000000000000000000 ) ) ;
#653 = ORIENTED_EDGE ( 'NONE', *, *, #833, .T. ) ;
#654 = DIRECTION ( 'NONE',  ( -0.000000000000000000, -1.000000000000000000, -0.000000000000000000 ) ) ;
#655 = EDGE_CURVE ( 'NONE', #908, #42, #215, .T. ) ;
#656 = DIRECTION ( 'NONE',  ( 0.000000000000000000, 0.000000000000000000, -1.000000000000000000 ) ) ;
#657 = VERTEX_POINT ( 'NONE', #339 ) ;
#658 = DIRECTION ( 'NONE',  ( 0.000000000000000000, -1.000000000000000000, 0.000000000000000000 ) ) ;
#659 = DIRECTION ( 'NONE',  ( 0.000000000000000000, -1.000000000000000000, 0.000000000000000000 ) ) ;
#660 = ORIENTED_EDGE ( 'NONE', *, *, #740, .T. ) ;
#661 = AXIS2_PLACEMENT_3D ( 'NONE', #907, #698, #45 ) ;
#662 = AXIS2_PLACEMENT_3D ( 'NONE', #54, #636, #343 ) ;
#663 = SURFACE_SIDE_STYLE ('',( #459 ) ) ;
#664 = VECTOR ( 'NONE', #913, 1000.000000000000000 ) ;
#665 = ADVANCED_FACE ( 'NONE', ( #413 ), #920, .F. ) ;
#666 = CARTESIAN_POINT ( 'NONE',  ( 1576.047305909999977, -1278.981088426000042, 28.96383356200000136 ) ) ;
#667 = EDGE_CURVE ( 'NONE', #734, #411, #391, .T. ) ;
#668 = ORIENTED_EDGE ( 'NONE', *, *, #371, .T. ) ;
#669 = CYLINDRICAL_SURFACE ( 'NONE', #368, 6.000000000000095923 ) ;
#670 = DIRECTION ( 'NONE',  ( 0.000000000000000000, 0.000000000000000000, 1.000000000000000000 ) ) ;
#671 = ADVANCED_FACE ( 'NONE', ( #417 ), #193, .T. ) ;
#672 = VERTEX_POINT ( 'NONE', #126 ) ;
#673 = DIRECTION ( 'NONE',  ( 0.000000000000000000, 0.000000000000000000, 1.000000000000000000 ) ) ;
#674 = FACE_OUTER_BOUND ( 'NONE', #799, .T. ) ;
#675 = LINE ( 'NONE', #254, #480 ) ;
#676 = ORIENTED_EDGE ( 'NONE', *, *, #273, .T. ) ;
#677 = DIRECTION ( 'NONE',  ( 0.000000000000000000, 0.000000000000000000, 1.000000000000000000 ) ) ;
#678 = VECTOR ( 'NONE', #187, 1000.000000000000000 ) ;
#679 = ORIENTED_EDGE ( 'NONE', *, *, #803, .T. ) ;
#680 = VECTOR ( 'NONE', #593, 1000.000000000000000 ) ;
#681 = DIRECTION ( 'NONE',  ( 0.000000000000000000, 0.000000000000000000, -1.000000000000000000 ) ) ;
#682 = VECTOR ( 'NONE', #235, 1000.000000000000000 ) ;
#683 = VECTOR ( 'NONE', #750, 1000.000000000000000 ) ;
#684 = CARTESIAN_POINT ( 'NONE',  ( 1607.047305909999977, -1286.981088426000042, 118.9638335620000049 ) ) ;
#685 = VERTEX_POINT ( 'NONE', #767 ) ;
#686 = CARTESIAN_POINT ( 'NONE',  ( 1618.047305909999977, -1286.981088426000042, 28.96383356200000136 ) ) ;
#687 = EDGE_CURVE ( 'NONE', #657, #823, #633, .T. ) ;
#688 = CARTESIAN_POINT ( 'NONE',  ( 1618.047305909999977, -1240.981088426000042, 118.9638335620000049 ) ) ;
#689 = ORIENTED_EDGE ( 'NONE', *, *, #140, .T. ) ;
#690 = VERTEX_POINT ( 'NONE', #788 ) ;
#691 = CARTESIAN_POINT ( 'NONE',  ( 1618.047305909999977, -1236.981088426000042, 118.9638335620000049 ) ) ;
#692 = ADVANCED_BREP_SHAPE_REPRESENTATION ( 'XH-YJ38-LJ-006-A0-底盘方通-立柱', ( #406, #124 ), #405 ) ;
#693 = LINE ( 'NONE', #190, #317 ) ;
#694 = CARTESIAN_POINT ( 'NONE',  ( 1601.047305909999977, -1236.981088426000042, 112.9638335619999054 ) ) ;
#695 = VERTEX_POINT ( 'NONE', #347 ) ;
#696 = DIRECTION ( 'NONE',  ( 0.000000000000000000, 0.000000000000000000, -1.000000000000000000 ) ) ;
#697 = VECTOR ( 'NONE', #483, 1000.000000000000000 ) ;
#698 = DIRECTION ( 'NONE',  ( -0.000000000000000000, -1.000000000000000000, -0.000000000000000000 ) ) ;
#699 = VECTOR ( 'NONE', #425, 1000.000000000000000 ) ;
#700 = ORIENTED_EDGE ( 'NONE', *, *, #311, .F. ) ;
#701 = EDGE_CURVE ( 'NONE', #458, #734, #630, .T. ) ;
#702 = ORIENTED_EDGE ( 'NONE', *, *, #204, .F. ) ;
#703 = FACE_OUTER_BOUND ( 'NONE', #933, .T. ) ;
#704 = PLANE ( 'NONE',  #197 ) ;
#705 = CYLINDRICAL_SURFACE ( 'NONE', #650, 4.000000000000003553 ) ;
#706 = VERTEX_POINT ( 'NONE', #711 ) ;
#707 = DIRECTION ( 'NONE',  ( 1.000000000000000000, 0.000000000000000000, 0.000000000000000000 ) ) ;
#708 = CARTESIAN_POINT ( 'NONE',  ( 1584.047305909999977, -1282.981088426000042, 118.9638335620000049 ) ) ;
#709 = EDGE_LOOP ( 'NONE', ( #605, #923, #206, #434, #148, #533, #302, #858, #700 ) ) ;
#710 = ORIENTED_EDGE ( 'NONE', *, *, #232, .T. ) ;
#711 = CARTESIAN_POINT ( 'NONE',  ( 1595.047305909999977, -1236.981088426000042, 118.9638335620000049 ) ) ;
#712 = VECTOR ( 'NONE', #535, 1000.000000000000000 ) ;
#713 = AXIS2_PLACEMENT_3D ( 'NONE', #30, #824, #323 ) ;
#714 = PLANE ( 'NONE',  #229 ) ;
#715 = VECTOR ( 'NONE', #488, 1000.000000000000000 ) ;
#716 = VERTEX_POINT ( 'NONE', #211 ) ;
#717 = DIRECTION ( 'NONE',  ( 0.000000000000000000, -1.000000000000000000, 0.000000000000000000 ) ) ;
#718 = CYLINDRICAL_SURFACE ( 'NONE', #464, 4.000000000000003553 ) ;
#719 = ORIENTED_EDGE ( 'NONE', *, *, #903, .F. ) ;
#720 = CARTESIAN_POINT ( 'NONE',  ( 1618.047305909999977, -1282.981088426000042, 28.96383356200000136 ) ) ;
#721 = PRODUCT_RELATED_PRODUCT_CATEGORY ( 'part', '', ( #230 ) ) ;
#722 = DIRECTION ( 'NONE',  ( 0.000000000000000000, 0.000000000000000000, 1.000000000000000000 ) ) ;
#723 = VERTEX_POINT ( 'NONE', #924 ) ;
#724 = LINE ( 'NONE', #498, #261 ) ;
#725 = VECTOR ( 'NONE', #855, 1000.000000000000000 ) ;
#726 = DIRECTION ( 'NONE',  ( 0.000000000000000000, 0.000000000000000000, -1.000000000000000000 ) ) ;
#727 = VECTOR ( 'NONE', #732, 1000.000000000000000 ) ;
#728 = EDGE_CURVE ( 'NONE', #845, #62, #583, .T. ) ;
#729 = VECTOR ( 'NONE', #751, 1000.000000000000000 ) ;
#730 = VERTEX_POINT ( 'NONE', #916 ) ;
#731 = VECTOR ( 'NONE', #258, 1000.000000000000000 ) ;
#732 = DIRECTION ( 'NONE',  ( -0.000000000000000000, -1.000000000000000000, -0.000000000000000000 ) ) ;
#733 = LINE ( 'NONE', #85, #839 ) ;
#734 = VERTEX_POINT ( 'NONE', #267 ) ;
#735 = ADVANCED_FACE ( 'NONE', ( #784 ), #487, .T. ) ;
#736 = FACE_OUTER_BOUND ( 'NONE', #486, .T. ) ;
#737 = DIRECTION ( 'NONE',  ( 0.000000000000000000, 1.000000000000000000, 0.000000000000000000 ) ) ;
#738 = ORIENTED_EDGE ( 'NONE', *, *, #103, .T. ) ;
#739 = CARTESIAN_POINT ( 'NONE',  ( 1607.047305909999977, -1286.981088426000042, 28.96383356200000136 ) ) ;
#740 = EDGE_CURVE ( 'NONE', #397, #695, #930, .T. ) ;
#741 = CARTESIAN_POINT ( 'NONE',  ( 1584.047305909999977, -1244.981088426000042, 28.96383356200000136 ) ) ;
#742 = EDGE_LOOP ( 'NONE', ( #265, #756, #178, #199 ) ) ;
#743 = VECTOR ( 'NONE', #654, 1000.000000000000000 ) ;
#744 = APPLICATION_PROTOCOL_DEFINITION ( 'draft international standard', 'automotive_design', 1998, #856 ) ;
#745 = AXIS2_PLACEMENT_3D ( 'NONE', #928, #565, #119 ) ;
#746 = CARTESIAN_POINT ( 'NONE',  ( 1601.047305909999977, -1236.981088426000042, 28.96383356200000136 ) ) ;
#747 = EDGE_CURVE ( 'NONE', #43, #14, #546, .T. ) ;
#748 = CARTESIAN_POINT ( 'NONE',  ( 1622.047305909999977, -1278.981088426000042, 118.9638335620000049 ) ) ;
#749 = ORIENTED_EDGE ( 'NONE', *, *, #51, .T. ) ;
#750 = DIRECTION ( 'NONE',  ( 0.000000000000000000, 0.000000000000000000, 1.000000000000000000 ) ) ;
#751 = DIRECTION ( 'NONE',  ( 0.000000000000000000, 1.000000000000000000, 0.000000000000000000 ) ) ;
#752 = EDGE_LOOP ( 'NONE', ( #331, #239, #22, #415 ) ) ;
#753 = ORIENTED_EDGE ( 'NONE', *, *, #552, .T. ) ;
#754 = LINE ( 'NONE', #686, #683 ) ;
#755 = LINE ( 'NONE', #666, #556 ) ;
#756 = ORIENTED_EDGE ( 'NONE', *, *, #133, .T. ) ;
#757 = EDGE_CURVE ( 'NONE', #845, #291, #149, .T. ) ;
#758 = ORIENTED_EDGE ( 'NONE', *, *, #389, .T. ) ;
#759 = VECTOR ( 'NONE', #309, 1000.000000000000000 ) ;
#760 = DIRECTION ( 'NONE',  ( 0.000000000000000000, 1.000000000000000000, 0.000000000000000000 ) ) ;
#761 = AXIS2_PLACEMENT_3D ( 'NONE', #433, #872, #143 ) ;
#762 = CARTESIAN_POINT ( 'NONE',  ( 1584.047305909999977, -1282.981088426000042, 118.9638335620000049 ) ) ;
#763 = VERTEX_POINT ( 'NONE', #424 ) ;
#764 = FACE_OUTER_BOUND ( 'NONE', #709, .T. ) ;
#765 = SURFACE_STYLE_FILL_AREA ( #476 ) ;
#766 = CARTESIAN_POINT ( 'NONE',  ( 1601.047305909999977, -1236.981088426000042, 112.9638335619999054 ) ) ;
#767 = CARTESIAN_POINT ( 'NONE',  ( 1607.047305909999977, -1240.981088426000042, 118.9638335620000049 ) ) ;
#768 = EDGE_CURVE ( 'NONE', #484, #591, #811, .T. ) ;
#769 = CARTESIAN_POINT ( 'NONE',  ( 1584.047305909999977, -1286.981088426000042, 118.9638335620000049 ) ) ;
#770 = LINE ( 'NONE', #850, #246 ) ;
#771 = ORIENTED_EDGE ( 'NONE', *, *, #781, .F. ) ;
#772 = AXIS2_PLACEMENT_3D ( 'NONE', #55, #917, #410 ) ;
#773 = CARTESIAN_POINT ( 'NONE',  ( 1601.047305909999977, -1236.981088426000042, 118.9638335620000049 ) ) ;
#774 = VECTOR ( 'NONE', #572, 1000.000000000000000 ) ;
#775 = AXIS2_PLACEMENT_3D ( 'NONE', #212, #568, #641 ) ;
#776 = FACE_OUTER_BOUND ( 'NONE', #163, .T. ) ;
#777 = AXIS2_PLACEMENT_3D ( 'NONE', #421, #262, #543 ) ;
#778 = DIRECTION ( 'NONE',  ( 1.000000000000000000, 0.000000000000000000, 0.000000000000000000 ) ) ;
#779 = VERTEX_POINT ( 'NONE', #720 ) ;
#780 = DIRECTION ( 'NONE',  ( 0.000000000000000000, 0.000000000000000000, -1.000000000000000000 ) ) ;
#781 = EDGE_CURVE ( 'NONE', #690, #685, #198, .T. ) ;
#782 = ORIENTED_EDGE ( 'NONE', *, *, #936, .T. ) ;
#783 = EDGE_LOOP ( 'NONE', ( #889, #132, #423, #482 ) ) ;
#784 = FACE_OUTER_BOUND ( 'NONE', #873, .T. ) ;
#785 = CARTESIAN_POINT ( 'NONE',  ( 1607.047305909999977, -1236.981088426000042, 28.96383356200000136 ) ) ;
#786 = ORIENTED_EDGE ( 'NONE', *, *, #793, .F. ) ;
#787 = EDGE_CURVE ( 'NONE', #706, #188, #378, .T. ) ;
#788 = CARTESIAN_POINT ( 'NONE',  ( 1601.047305909999977, -1240.981088426000042, 112.9638335619999054 ) ) ;
#789 = VECTOR ( 'NONE', #614, 1000.000000000000000 ) ;
#790 = CARTESIAN_POINT ( 'NONE',  ( 1626.047305909999977, -1278.981088426000042, 28.96383356200000136 ) ) ;
#791 = ORIENTED_EDGE ( 'NONE', *, *, #571, .F. ) ;
#792 = FACE_OUTER_BOUND ( 'NONE', #783, .T. ) ;
#793 = EDGE_CURVE ( 'NONE', #77, #53, #372, .T. ) ;
#794 = CARTESIAN_POINT ( 'NONE',  ( 1618.047305909999977, -1244.981088426000042, 118.9638335620000049 ) ) ;
#795 = ORIENTED_EDGE ( 'NONE', *, *, #389, .F. ) ;
#796 = CARTESIAN_POINT ( 'NONE',  ( 1618.047305909999977, -1244.981088426000042, 168.9638335619999907 ) ) ;
#797 = EDGE_CURVE ( 'NONE', #657, #95, #934, .T. ) ;
#798 = CARTESIAN_POINT ( 'NONE',  ( 1618.047305909999977, -1240.981088426000042, 118.9638335620000049 ) ) ;
#799 = EDGE_LOOP ( 'NONE', ( #834, #419, #758, #882 ) ) ;
#800 = DIRECTION ( 'NONE',  ( 1.000000000000000000, 0.000000000000000000, 0.000000000000000000 ) ) ;
#801 = AXIS2_PLACEMENT_3D ( 'NONE', #455, #831, #681 ) ;
#802 = DIRECTION ( 'NONE',  ( 0.000000000000000000, 0.000000000000000000, -1.000000000000000000 ) ) ;
#803 = EDGE_CURVE ( 'NONE', #270, #672, #435, .T. ) ;
#804 = AXIS2_PLACEMENT_3D ( 'NONE', #773, #640, #491 ) ;
#805 = AXIS2_PLACEMENT_3D ( 'NONE', #518, #440, #526 ) ;
#806 = ORIENTED_EDGE ( 'NONE', *, *, #687, .F. ) ;
#807 = CARTESIAN_POINT ( 'NONE',  ( 1601.047305909999977, -1286.981088426000042, 112.9638335619999054 ) ) ;
#808 = FACE_OUTER_BOUND ( 'NONE', #613, .T. ) ;
#809 = VERTEX_POINT ( 'NONE', #739 ) ;
#810 = EDGE_CURVE ( 'NONE', #908, #356, #509, .T. ) ;
#811 = LINE ( 'NONE', #303, #304 ) ;
#812 = CARTESIAN_POINT ( 'NONE',  ( 1626.047305909999977, -1244.981088426000042, 118.9638335620000049 ) ) ;
#813 = ORIENTED_EDGE ( 'NONE', *, *, #560, .F. ) ;
#814 = LINE ( 'NONE', #887, #680 ) ;
#815 = CARTESIAN_POINT ( 'NONE',  ( 1580.047305909999977, -1244.981088426000042, 28.96383356200000136 ) ) ;
#816 = CARTESIAN_POINT ( 'NONE',  ( 1584.047305909999977, -1240.981088426000042, 118.9638335620000049 ) ) ;
#817 = COLOUR_RGB ( '',0.6509803921568627638, 0.6196078431372549211, 0.5882352941176470784 ) ;
#818 = ORIENTED_EDGE ( 'NONE', *, *, #667, .T. ) ;
#819 = CARTESIAN_POINT ( 'NONE',  ( 1584.047305909999977, -1282.981088426000042, 28.96383356200000136 ) ) ;
#820 = VECTOR ( 'NONE', #61, 1000.000000000000000 ) ;
#821 = CARTESIAN_POINT ( 'NONE',  ( 1622.047305909999977, -1278.981088426000042, 28.96383356200000136 ) ) ;
#822 = CARTESIAN_POINT ( 'NONE',  ( 1618.047305909999977, -1244.981088426000042, 28.96383356200000136 ) ) ;
#823 = VERTEX_POINT ( 'NONE', #567 ) ;
#824 = DIRECTION ( 'NONE',  ( 0.000000000000000000, 0.000000000000000000, -1.000000000000000000 ) ) ;
#825 = ORIENTED_EDGE ( 'NONE', *, *, #642, .T. ) ;
#826 = DIRECTION ( 'NONE',  ( 0.000000000000000000, 0.000000000000000000, 1.000000000000000000 ) ) ;
#827 = CARTESIAN_POINT ( 'NONE',  ( 1618.047305909999977, -1240.981088426000042, 28.96383356200000136 ) ) ;
#828 = ORIENTED_EDGE ( 'NONE', *, *, #88, .T. ) ;
#829 = PRESENTATION_STYLE_ASSIGNMENT (( #38 ) ) ;
#830 = ORIENTED_EDGE ( 'NONE', *, *, #687, .T. ) ;
#831 = DIRECTION ( 'NONE',  ( 0.000000000000000000, -1.000000000000000000, 0.000000000000000000 ) ) ;
#832 = DIRECTION ( 'NONE',  ( 0.000000000000000000, 1.000000000000000000, 0.000000000000000000 ) ) ;
#833 = EDGE_CURVE ( 'NONE', #581, #355, #894, .T. ) ;
#834 = ORIENTED_EDGE ( 'NONE', *, *, #399, .F. ) ;
#835 = AXIS2_PLACEMENT_3D ( 'NONE', #107, #398, #44 ) ;
#836 = ORIENTED_EDGE ( 'NONE', *, *, #156, .T. ) ;
#837 = AXIS2_PLACEMENT_3D ( 'NONE', #240, #673, #849 ) ;
#838 = DIRECTION ( 'NONE',  ( 1.000000000000000000, 0.000000000000000000, 0.000000000000000000 ) ) ;
#839 = VECTOR ( 'NONE', #294, 1000.000000000000000 ) ;
#840 = LINE ( 'NONE', #769, #731 ) ;
#841 = ORIENTED_EDGE ( 'NONE', *, *, #354, .F. ) ;
#842 = EDGE_CURVE ( 'NONE', #823, #312, #84, .T. ) ;
#843 = CARTESIAN_POINT ( 'NONE',  ( 1618.047305909999977, -1244.981088426000042, 18.96383356200000136 ) ) ;
#844 = DIRECTION ( 'NONE',  ( 0.000000000000000000, 1.000000000000000000, 0.000000000000000000 ) ) ;
#845 = VERTEX_POINT ( 'NONE', #234 ) ;
#846 = CYLINDRICAL_SURFACE ( 'NONE', #804, 6.000000000000102141 ) ;
#847 = EDGE_CURVE ( 'NONE', #137, #730, #92, .T. ) ;
#848 = DIRECTION ( 'NONE',  ( 0.000000000000000000, 0.000000000000000000, -1.000000000000000000 ) ) ;
#849 = DIRECTION ( 'NONE',  ( -1.000000000000000000, 0.000000000000000000, 0.000000000000000000 ) ) ;
#850 = CARTESIAN_POINT ( 'NONE',  ( 1584.047305909999977, -1236.981088426000042, 118.9638335620000049 ) ) ;
#851 = ORIENTED_EDGE ( 'NONE', *, *, #40, .T. ) ;
#852 = VECTOR ( 'NONE', #384, 1000.000000000000000 ) ;
#853 = FACE_OUTER_BOUND ( 'NONE', #562, .T. ) ;
#854 = VECTOR ( 'NONE', #373, 1000.000000000000000 ) ;
#855 = DIRECTION ( 'NONE',  ( 1.000000000000000000, 0.000000000000000000, 0.000000000000000000 ) ) ;
#856 = APPLICATION_CONTEXT ( 'automotive_design' ) ;
#857 = AXIS2_PLACEMENT_3D ( 'NONE', #403, #50, #340 ) ;
#858 = ORIENTED_EDGE ( 'NONE', *, *, #255, .T. ) ;
#859 = ORIENTED_EDGE ( 'NONE', *, *, #560, .T. ) ;
#860 = DIRECTION ( 'NONE',  ( 0.000000000000000000, 0.000000000000000000, -1.000000000000000000 ) ) ;
#861 = CARTESIAN_POINT ( 'NONE',  ( 1584.047305909999977, -1236.981088426000042, 118.9638335620000049 ) ) ;
#862 = EDGE_CURVE ( 'NONE', #241, #458, #600, .T. ) ;
#863 = ORIENTED_EDGE ( 'NONE', *, *, #903, .T. ) ;
#864 = DIRECTION ( 'NONE',  ( 0.000000000000000000, 0.000000000000000000, -1.000000000000000000 ) ) ;
#865 = ORIENTED_EDGE ( 'NONE', *, *, #255, .F. ) ;
#866 = VERTEX_POINT ( 'NONE', #807 ) ;
#867 = DIRECTION ( 'NONE',  ( 0.000000000000000000, 0.000000000000000000, 1.000000000000000000 ) ) ;
#868 = FACE_OUTER_BOUND ( 'NONE', #752, .T. ) ;
#869 = ORIENTED_EDGE ( 'NONE', *, *, #564, .F. ) ;
#870 = CARTESIAN_POINT ( 'NONE',  ( 1618.047305909999977, -1286.981088426000042, 118.9638335620000049 ) ) ;
#871 = ADVANCED_FACE ( 'NONE', ( #736 ), #505, .F. ) ;
#872 = DIRECTION ( 'NONE',  ( 0.000000000000000000, 0.000000000000000000, -1.000000000000000000 ) ) ;
#873 = EDGE_LOOP ( 'NONE', ( #388, #786, #753, #125 ) ) ;
#874 = LINE ( 'NONE', #222, #183 ) ;
#875 = EDGE_CURVE ( 'NONE', #695, #283, #724, .T. ) ;
#876 = LINE ( 'NONE', #359, #446 ) ;
#877 = EDGE_LOOP ( 'NONE', ( #749, #550, #285, #859 ) ) ;
#878 = DIRECTION ( 'NONE',  ( -1.000000000000000000, 0.000000000000000000, 0.000000000000000000 ) ) ;
#879 = CYLINDRICAL_SURFACE ( 'NONE', #525, 6.000000000000102141 ) ;
#880 = AXIS2_PLACEMENT_3D ( 'NONE', #796, #4, #883 ) ;
#881 = CIRCLE ( 'NONE', #67, 4.000000000000003553 ) ;
#882 = ORIENTED_EDGE ( 'NONE', *, *, #747, .F. ) ;
#883 = DIRECTION ( 'NONE',  ( 1.000000000000000000, 0.000000000000000000, 0.000000000000000000 ) ) ;
#884 = FACE_OUTER_BOUND ( 'NONE', #299, .T. ) ;
#885 = EDGE_CURVE ( 'NONE', #809, #134, #910, .T. ) ;
#886 = ORIENTED_EDGE ( 'NONE', *, *, #146, .F. ) ;
#887 = CARTESIAN_POINT ( 'NONE',  ( 1584.047305909999977, -1282.981088426000042, 28.96383356200000136 ) ) ;
#888 = DIRECTION ( 'NONE',  ( 0.000000000000000000, -1.000000000000000000, 0.000000000000000000 ) ) ;
#889 = ORIENTED_EDGE ( 'NONE', *, *, #803, .F. ) ;
#890 = APPLICATION_PROTOCOL_DEFINITION ( 'draft international standard', 'automotive_design', 1998, #330 ) ;
#891 = CYLINDRICAL_SURFACE ( 'NONE', #27, 8.000000000000007105 ) ;
#892 = DIRECTION ( 'NONE',  ( 0.000000000000000000, 0.000000000000000000, -1.000000000000000000 ) ) ;
#893 = ORIENTED_EDGE ( 'NONE', *, *, #768, .F. ) ;
#894 = CIRCLE ( 'NONE', #351, 8.000000000000007105 ) ;
#895 = VECTOR ( 'NONE', #381, 1000.000000000000000 ) ;
#896 = CIRCLE ( 'NONE', #481, 6.000000000000102141 ) ;
#897 = DIRECTION ( 'NONE',  ( -1.000000000000000000, 0.000000000000000000, 0.000000000000000000 ) ) ;
#898 = ADVANCED_FACE ( 'NONE', ( #792 ), #651, .F. ) ;
#899 = CARTESIAN_POINT ( 'NONE',  ( 1601.047305909999977, -1236.981088426000042, 112.9638335619999054 ) ) ;
#900 = ORIENTED_EDGE ( 'NONE', *, *, #311, .T. ) ;
#901 = SHAPE_DEFINITION_REPRESENTATION ( #89, #692 ) ;
#902 = CARTESIAN_POINT ( 'NONE',  ( 1607.047305909999977, -1236.981088426000042, 118.9638335620000049 ) ) ;
#903 = EDGE_CURVE ( 'NONE', #639, #43, #874, .T. ) ;
#904 = CARTESIAN_POINT ( 'NONE',  ( 1601.047305909999977, -1236.981088426000042, 118.9638335620000049 ) ) ;
#905 = ORIENTED_EDGE ( 'NONE', *, *, #655, .F. ) ;
#906 = DIRECTION ( 'NONE',  ( -1.000000000000000000, 0.000000000000000000, 0.000000000000000000 ) ) ;
#907 = CARTESIAN_POINT ( 'NONE',  ( 1601.047305909999977, -1236.981088426000042, 118.9638335620000049 ) ) ;
#908 = VERTEX_POINT ( 'NONE', #152 ) ;
#909 = EDGE_CURVE ( 'NONE', #385, #763, #814, .T. ) ;
#910 = CIRCLE ( 'NONE', #569, 6.000000000000095923 ) ;
#911 = CARTESIAN_POINT ( 'NONE',  ( 1618.047305909999977, -1286.981088426000042, 28.96383356200000136 ) ) ;
#912 = AXIS2_PLACEMENT_3D ( 'NONE', #8, #75, #376 ) ;
#913 = DIRECTION ( 'NONE',  ( 0.000000000000000000, 0.000000000000000000, -1.000000000000000000 ) ) ;
#914 = EDGE_CURVE ( 'NONE', #730, #42, #174, .T. ) ;
#915 = ORIENTED_EDGE ( 'NONE', *, *, #266, .T. ) ;
#916 = CARTESIAN_POINT ( 'NONE',  ( 1607.047305909999977, -1236.981088426000042, 28.96383356200000136 ) ) ;
#917 = DIRECTION ( 'NONE',  ( 0.000000000000000000, -1.000000000000000000, 0.000000000000000000 ) ) ;
#918 = ORIENTED_EDGE ( 'NONE', *, *, #466, .T. ) ;
#919 = ORIENTED_EDGE ( 'NONE', *, *, #394, .F. ) ;
#920 = CYLINDRICAL_SURFACE ( 'NONE', #167, 6.000000000000102141 ) ;
#921 = LINE ( 'NONE', #708, #725 ) ;
#922 = LINE ( 'NONE', #473, #664 ) ;
#923 = ORIENTED_EDGE ( 'NONE', *, *, #439, .T. ) ;
#924 = CARTESIAN_POINT ( 'NONE',  ( 1576.047305909999977, -1278.981088426000042, 118.9638335620000049 ) ) ;
#925 = ADVANCED_FACE ( 'NONE', ( #327 ), #597, .F. ) ;
#926 = AXIS2_PLACEMENT_3D ( 'NONE', #52, #778, #844 ) ;
#927 = FACE_OUTER_BOUND ( 'NONE', #649, .T. ) ;
#928 = CARTESIAN_POINT ( 'NONE',  ( 1601.047305909999977, -1282.981088426000042, 118.9638335620000049 ) ) ;
#929 = EDGE_LOOP ( 'NONE', ( #322, #836, #702, #653 ) ) ;
#930 = LINE ( 'NONE', #284, #540 ) ;
#931 = ADVANCED_FACE ( 'NONE', ( #548 ), #105, .F. ) ;
#932 = LINE ( 'NONE', #785, #820 ) ;
#933 = EDGE_LOOP ( 'NONE', ( #278, #900, #660, #561 ) ) ;
#934 = LINE ( 'NONE', #289, #554 ) ;
#935 = CARTESIAN_POINT ( 'NONE',  ( 1595.047305909999977, -1240.981088426000042, 118.9638335620000049 ) ) ;
#936 = EDGE_CURVE ( 'NONE', #69, #779, #96, .T. ) ;
#937 = ORIENTED_EDGE ( 'NONE', *, *, #399, .T. ) ;
#938 = CARTESIAN_POINT ( 'NONE',  ( 1580.047305909999977, -1244.981088426000042, 28.96383356200000136 ) ) ;
#939 = STYLED_ITEM ( 'NONE', ( #195 ), #406 ) ;
#940 = MECHANICAL_DESIGN_GEOMETRIC_PRESENTATION_REPRESENTATION (  '', ( #494 ), #522 ) ;
ENDSEC;
END-ISO-10303-21;
