ISO-10303-21;
HEADER;
FILE_DESCRIPTION (( 'STEP AP214' ),
    '1' );
FILE_NAME ('XH-YJ38-LJ-027-A0-延长架方通.STEP',
    '2026-06-05T00:56:48',
    ( 'Microsoft' ),
    ( 'Microsoft' ),
    'SwSTEP 2.0',
    'SolidWorks 2020',
    '' );
FILE_SCHEMA (( 'AUTOMOTIVE_DESIGN' ));
ENDSEC;

DATA;
#1 = DIRECTION ( 'NONE',  ( 0.000000000000000000, 0.000000000000000000, -1.000000000000000000 ) ) ;
#2 = ORIENTED_EDGE ( 'NONE', *, *, #333, .F. ) ;
#3 = CARTESIAN_POINT ( 'NONE',  ( 1620.867891824000026, -1347.000000000000000, 1184.848012079000000 ) ) ;
#4 = VECTOR ( 'NONE', #229, 1000.000000000000000 ) ;
#5 = PLANE ( 'NONE',  #525 ) ;
#6 = ORIENTED_EDGE ( 'NONE', *, *, #439, .F. ) ;
#7 = VECTOR ( 'NONE', #449, 1000.000000000000000 ) ;
#8 = ORIENTED_EDGE ( 'NONE', *, *, #492, .T. ) ;
#9 = AXIS2_PLACEMENT_3D ( 'NONE', #27, #257, #500 ) ;
#10 = EDGE_CURVE ( 'NONE', #120, #225, #619, .T. ) ;
#11 = CARTESIAN_POINT ( 'NONE',  ( 1606.867891824000026, -1347.000000000000000, 1130.848012078999773 ) ) ;
#12 = FILL_AREA_STYLE_COLOUR ( '', #301 ) ;
#13 = ORIENTED_EDGE ( 'NONE', *, *, #564, .T. ) ;
#14 = DIRECTION ( 'NONE',  ( 1.000000000000000000, 0.000000000000000000, 0.000000000000000000 ) ) ;
#15 = LINE ( 'NONE', #185, #76 ) ;
#16 = CARTESIAN_POINT ( 'NONE',  ( 1620.867891980999957, -50.00000000000000000, 1184.848012079000000 ) ) ;
#17 = CARTESIAN_POINT ( 'NONE',  ( 1592.867892186000063, -1347.000000000000000, 1184.848012079000000 ) ) ;
#18 = EDGE_CURVE ( 'NONE', #182, #682, #131, .T. ) ;
#19 = CARTESIAN_POINT ( 'NONE',  ( 1721.867891824000026, -1347.000000000000000, 1211.848012078999773 ) ) ;
#20 = CARTESIAN_POINT ( 'NONE',  ( 1620.867891824000026, -1176.500000000000000, 1181.848012078999773 ) ) ;
#21 = DIRECTION ( 'NONE',  ( 0.000000000000000000, 1.000000000000000000, 0.000000000000000000 ) ) ;
#22 = VERTEX_POINT ( 'NONE', #247 ) ;
#23 = ORIENTED_EDGE ( 'NONE', *, *, #263, .F. ) ;
#24 = EDGE_CURVE ( 'NONE', #631, #506, #318, .T. ) ;
#25 = PLANE ( 'NONE',  #64 ) ;
#26 = LINE ( 'NONE', #255, #31 ) ;
#27 = CARTESIAN_POINT ( 'NONE',  ( 1721.867891824000026, -50.00000000000000000, 1211.848012078999773 ) ) ;
#28 = CARTESIAN_POINT ( 'NONE',  ( 1620.867891824000026, -1347.000000000000000, 1127.848012079000000 ) ) ;
#29 = SHAPE_DEFINITION_REPRESENTATION ( #505, #429 ) ;
#30 = STYLED_ITEM ( 'NONE', ( #737 ), #429 ) ;
#31 = VECTOR ( 'NONE', #498, 1000.000000000000000 ) ;
#32 = ADVANCED_FACE ( 'NONE', ( #91 ), #753, .T. ) ;
#33 = LINE ( 'NONE', #328, #51 ) ;
#34 = LINE ( 'NONE', #83, #581 ) ;
#35 = EDGE_CURVE ( 'NONE', #297, #520, #368, .T. ) ;
#36 = VERTEX_POINT ( 'NONE', #625 ) ;
#37 = FILL_AREA_STYLE_COLOUR ( '', #687 ) ;
#38 = CYLINDRICAL_SURFACE ( 'NONE', #161, 6.000000000000005329 ) ;
#39 = STYLED_ITEM ( 'NONE', ( #612 ), #363 ) ;
#40 = CIRCLE ( 'NONE', #476, 6.000000000000005329 ) ;
#41 = VECTOR ( 'NONE', #389, 1000.000000000000000 ) ;
#42 = ORIENTED_EDGE ( 'NONE', *, *, #198, .T. ) ;
#43 = PLANE ( 'NONE',  #187 ) ;
#44 = LINE ( 'NONE', #641, #669 ) ;
#45 = ORIENTED_EDGE ( 'NONE', *, *, #174, .T. ) ;
#46 = EDGE_CURVE ( 'NONE', #682, #596, #736, .T. ) ;
#47 = VECTOR ( 'NONE', #482, 1000.000000000000000 ) ;
#48 = LINE ( 'NONE', #456, #400 ) ;
#49 = ORIENTED_EDGE ( 'NONE', *, *, #251, .T. ) ;
#50 = LINE ( 'NONE', #100, #583 ) ;
#51 = VECTOR ( 'NONE', #735, 1000.000000000000000 ) ;
#52 = ORIENTED_EDGE ( 'NONE', *, *, #676, .T. ) ;
#53 = VECTOR ( 'NONE', #599, 1000.000000000000000 ) ;
#54 = DIRECTION ( 'NONE',  ( 0.000000000000000000, -1.000000000000000000, 0.000000000000000000 ) ) ;
#55 = ORIENTED_EDGE ( 'NONE', *, *, #35, .F. ) ;
#56 = EDGE_LOOP ( 'NONE', ( #228, #319, #744, #218 ) ) ;
#57 = DIRECTION ( 'NONE',  ( -1.000000000000000000, 0.000000000000000000, 0.000000000000000000 ) ) ;
#58 = DIRECTION ( 'NONE',  ( 0.000000000000000000, 0.000000000000000000, 1.000000000000000000 ) ) ;
#59 = ORIENTED_EDGE ( 'NONE', *, *, #392, .F. ) ;
#60 = EDGE_CURVE ( 'NONE', #274, #190, #139, .T. ) ;
#61 = EDGE_CURVE ( 'NONE', #356, #533, #638, .T. ) ;
#62 = DIRECTION ( 'NONE',  ( -1.000000000000000000, 0.000000000000000000, 0.000000000000000000 ) ) ;
#63 = VERTEX_POINT ( 'NONE', #430 ) ;
#64 = AXIS2_PLACEMENT_3D ( 'NONE', #475, #542, #62 ) ;
#65 = AXIS2_PLACEMENT_3D ( 'NONE', #731, #135, #57 ) ;
#66 = VECTOR ( 'NONE', #501, 1000.000000000000000 ) ;
#67 = CARTESIAN_POINT ( 'NONE',  ( 1626.867891824000026, -1347.000000000000000, 1181.848012078999773 ) ) ;
#68 = SURFACE_STYLE_USAGE ( .BOTH. , #370 ) ;
#69 = EDGE_LOOP ( 'NONE', ( #178, #362, #545, #8 ) ) ;
#70 = CARTESIAN_POINT ( 'NONE',  ( 1589.867891823999798, -1347.000000000000000, 1181.848012078999773 ) ) ;
#71 = EDGE_CURVE ( 'NONE', #208, #283, #495, .T. ) ;
#72 = CARTESIAN_POINT ( 'NONE',  ( 1620.867891824000026, -49.99999999999990052, 1127.848012079000000 ) ) ;
#73 = DIRECTION ( 'NONE',  ( 0.000000000000000000, 0.000000000000000000, -1.000000000000000000 ) ) ;
#74 = ADVANCED_FACE ( 'NONE', ( #627 ), #38, .F. ) ;
#75 = DIRECTION ( 'NONE',  ( 1.000000000000000000, 0.000000000000000000, 0.000000000000000000 ) ) ;
#76 = VECTOR ( 'NONE', #77, 1000.000000000000000 ) ;
#77 = DIRECTION ( 'NONE',  ( -1.000000000000000000, 0.000000000000000000, 0.000000000000000000 ) ) ;
#78 = CARTESIAN_POINT ( 'NONE',  ( 1586.867891824000026, -49.99999999999990052, 1133.848012079000000 ) ) ;
#79 = ORIENTED_EDGE ( 'NONE', *, *, #82, .T. ) ;
#80 = CARTESIAN_POINT ( 'NONE',  ( 1620.867891824000026, -50.00000000000020606, 1181.848012078999773 ) ) ;
#81 = CARTESIAN_POINT ( 'NONE',  ( 1626.867891824000026, -49.99999999999990052, 1181.848012078999773 ) ) ;
#82 = EDGE_CURVE ( 'NONE', #93, #413, #560, .T. ) ;
#83 = CARTESIAN_POINT ( 'NONE',  ( 1626.867891824000026, -49.99999999999990052, 1181.848012078999773 ) ) ;
#84 = VERTEX_POINT ( 'NONE', #138 ) ;
#85 =( NAMED_UNIT ( * ) PLANE_ANGLE_UNIT ( ) SI_UNIT ( $, .RADIAN. ) );
#86 = LINE ( 'NONE', #694, #66 ) ;
#87 = AXIS2_PLACEMENT_3D ( 'NONE', #104, #591, #95 ) ;
#88 = DIRECTION ( 'NONE',  ( 1.000000000000000000, 0.000000000000000000, -0.000000000000000000 ) ) ;
#89 = ORIENTED_EDGE ( 'NONE', *, *, #230, .T. ) ;
#90 = CARTESIAN_POINT ( 'NONE',  ( 1586.867891824000026, -1026.500000000000000, 1152.848012079000000 ) ) ;
#91 = FACE_OUTER_BOUND ( 'NONE', #69, .T. ) ;
#92 = EDGE_CURVE ( 'NONE', #367, #646, #605, .T. ) ;
#93 = VERTEX_POINT ( 'NONE', #377 ) ;
#94 = DIRECTION ( 'NONE',  ( 0.000000000000000000, 0.000000000000000000, -1.000000000000000000 ) ) ;
#95 = DIRECTION ( 'NONE',  ( -1.000000000000000000, 0.000000000000000000, 0.000000000000000000 ) ) ;
#96 = VECTOR ( 'NONE', #383, 1000.000000000000000 ) ;
#97 =( GEOMETRIC_REPRESENTATION_CONTEXT ( 3 ) GLOBAL_UNCERTAINTY_ASSIGNED_CONTEXT ( ( #616 ) ) GLOBAL_UNIT_ASSIGNED_CONTEXT ( ( #428, #189, #118 ) ) REPRESENTATION_CONTEXT ( 'NONE', 'WORKASPACE' ) );
#98 = ORIENTED_EDGE ( 'NONE', *, *, #624, .T. ) ;
#99 = CARTESIAN_POINT ( 'NONE',  ( 1606.867891824000026, -49.99999999999990052, 1137.848012079000000 ) ) ;
#100 = CARTESIAN_POINT ( 'NONE',  ( 1592.867891824000026, -49.99999999999990052, 1187.848012078999773 ) ) ;
#101 = ORIENTED_EDGE ( 'NONE', *, *, #563, .F. ) ;
#102 = CARTESIAN_POINT ( 'NONE',  ( 1592.867891824000026, -1347.000000000000000, 1127.848012079000000 ) ) ;
#103 = PRODUCT_DEFINITION ( '未知', '', #653, #123 ) ;
#104 = CARTESIAN_POINT ( 'NONE',  ( 1592.867891824000026, -50.00000000000000000, 1181.848012078999773 ) ) ;
#105 = ORIENTED_EDGE ( 'NONE', *, *, #534, .F. ) ;
#106 = AXIS2_PLACEMENT_3D ( 'NONE', #184, #369, #420 ) ;
#107 = DIRECTION ( 'NONE',  ( 0.000000000000000000, 0.000000000000000000, 1.000000000000000000 ) ) ;
#108 = FACE_OUTER_BOUND ( 'NONE', #726, .T. ) ;
#109 = VECTOR ( 'NONE', #345, 1000.000000000000000 ) ;
#110 = EDGE_LOOP ( 'NONE', ( #549, #279, #652, #105 ) ) ;
#111 = CARTESIAN_POINT ( 'NONE',  ( 1623.867891824000026, -1347.000000000000000, 1133.848012079000000 ) ) ;
#112 = DIRECTION ( 'NONE',  ( -1.000000000000000000, 0.000000000000000000, 0.000000000000000000 ) ) ;
#113 = ADVANCED_FACE ( 'NONE', ( #311 ), #381, .T. ) ;
#114 = VERTEX_POINT ( 'NONE', #425 ) ;
#115 = EDGE_CURVE ( 'NONE', #190, #241, #674, .T. ) ;
#116 = ORIENTED_EDGE ( 'NONE', *, *, #690, .F. ) ;
#117 = CARTESIAN_POINT ( 'NONE',  ( 1620.867892536999989, -1347.000000000000000, 1187.848012078999773 ) ) ;
#118 =( NAMED_UNIT ( * ) SI_UNIT ( $, .STERADIAN. ) SOLID_ANGLE_UNIT ( ) );
#119 = VECTOR ( 'NONE', #728, 1000.000000000000000 ) ;
#120 = VERTEX_POINT ( 'NONE', #78 ) ;
#121 = VERTEX_POINT ( 'NONE', #562 ) ;
#122 = FACE_OUTER_BOUND ( 'NONE', #233, .T. ) ;
#123 = PRODUCT_DEFINITION_CONTEXT ( 'detailed design', #598, 'design' ) ;
#124 = PLANE ( 'NONE',  #559 ) ;
#125 = EDGE_LOOP ( 'NONE', ( #126, #266, #186, #693 ) ) ;
#126 = ORIENTED_EDGE ( 'NONE', *, *, #305, .T. ) ;
#127 = EDGE_CURVE ( 'NONE', #120, #725, #26, .T. ) ;
#128 = CARTESIAN_POINT ( 'NONE',  ( 1589.867891823999798, -50.00000000000000000, 1181.848012078999773 ) ) ;
#129 = SURFACE_STYLE_USAGE ( .BOTH. , #419 ) ;
#130 = VERTEX_POINT ( 'NONE', #220 ) ;
#131 = LINE ( 'NONE', #81, #609 ) ;
#132 = DIRECTION ( 'NONE',  ( 0.000000000000000000, 0.000000000000000000, -1.000000000000000000 ) ) ;
#133 = FILL_AREA_STYLE_COLOUR ( '', #717 ) ;
#134 = CARTESIAN_POINT ( 'NONE',  ( 1591.867891721999968, -50.00000000000000000, 1130.848012078999773 ) ) ;
#135 = DIRECTION ( 'NONE',  ( 0.000000000000000000, 0.000000000000000000, -1.000000000000000000 ) ) ;
#136 = FACE_OUTER_BOUND ( 'NONE', #403, .T. ) ;
#137 =( GEOMETRIC_REPRESENTATION_CONTEXT ( 3 ) GLOBAL_UNCERTAINTY_ASSIGNED_CONTEXT ( ( #575 ) ) GLOBAL_UNIT_ASSIGNED_CONTEXT ( ( #622, #310, #673 ) ) REPRESENTATION_CONTEXT ( 'NONE', 'WORKASPACE' ) );
#138 = CARTESIAN_POINT ( 'NONE',  ( 1623.867891824000026, -1347.000000000000000, 1133.848012079000000 ) ) ;
#139 = CIRCLE ( 'NONE', #580, 6.000000000000005329 ) ;
#140 = AXIS2_PLACEMENT_3D ( 'NONE', #467, #231, #112 ) ;
#141 = DIRECTION ( 'NONE',  ( 0.000000000000000000, 1.000000000000000000, 0.000000000000000000 ) ) ;
#142 = ADVANCED_FACE ( 'NONE', ( #588 ), #296, .T. ) ;
#143 = DIRECTION ( 'NONE',  ( 0.000000000000000000, 1.000000000000000000, 0.000000000000000000 ) ) ;
#144 = LINE ( 'NONE', #437, #670 ) ;
#145 = APPLICATION_PROTOCOL_DEFINITION ( 'draft international standard', 'automotive_design', 1998, #317 ) ;
#146 = CARTESIAN_POINT ( 'NONE',  ( 1591.867891823999798, -1347.000000000000000, 1130.848012078999773 ) ) ;
#147 = VECTOR ( 'NONE', #698, 1000.000000000000000 ) ;
#148 = EDGE_LOOP ( 'NONE', ( #469, #602, #292, #45 ) ) ;
#149 = AXIS2_PLACEMENT_3D ( 'NONE', #478, #418, #73 ) ;
#150 =( GEOMETRIC_REPRESENTATION_CONTEXT ( 3 ) GLOBAL_UNCERTAINTY_ASSIGNED_CONTEXT ( ( #267 ) ) GLOBAL_UNIT_ASSIGNED_CONTEXT ( ( #568, #496, #442 ) ) REPRESENTATION_CONTEXT ( 'NONE', 'WORKASPACE' ) );
#151 = ADVANCED_FACE ( 'NONE', ( #108 ), #5, .F. ) ;
#152 = FACE_OUTER_BOUND ( 'NONE', #56, .T. ) ;
#153 = ORIENTED_EDGE ( 'NONE', *, *, #601, .T. ) ;
#154 = DIRECTION ( 'NONE',  ( 0.000000000000000000, -1.000000000000000000, 0.000000000000000000 ) ) ;
#155 = CARTESIAN_POINT ( 'NONE',  ( 1612.867891824000026, -1347.000000000000000, 1137.848012079000000 ) ) ;
#156 = ORIENTED_EDGE ( 'NONE', *, *, #447, .T. ) ;
#157 = CARTESIAN_POINT ( 'NONE',  ( 1592.867891824000026, -1347.000000000000000, 1187.848012078999773 ) ) ;
#158 = DIRECTION ( 'NONE',  ( 1.000000000000000000, 0.000000000000000000, 0.000000000000000000 ) ) ;
#159 = ORIENTED_EDGE ( 'NONE', *, *, #115, .T. ) ;
#160 = CARTESIAN_POINT ( 'NONE',  ( 1626.867891824000026, -1347.000000000000000, 1133.848012079000000 ) ) ;
#161 = AXIS2_PLACEMENT_3D ( 'NONE', #733, #679, #269 ) ;
#162 = CARTESIAN_POINT ( 'NONE',  ( 1620.867891824000026, -1347.000000000000000, 1181.848012078999773 ) ) ;
#163 = MECHANICAL_DESIGN_GEOMETRIC_PRESENTATION_REPRESENTATION (  '', ( #39 ), #97 ) ;
#164 = EDGE_CURVE ( 'NONE', #763, #121, #747, .T. ) ;
#165 = ORIENTED_EDGE ( 'NONE', *, *, #24, .T. ) ;
#166 = DIRECTION ( 'NONE',  ( 1.000000000000000000, 0.000000000000000000, -0.000000000000000000 ) ) ;
#167 = DIRECTION ( 'NONE',  ( 0.000000000000000000, 0.000000000000000000, -1.000000000000000000 ) ) ;
#168 = ORIENTED_EDGE ( 'NONE', *, *, #275, .T. ) ;
#169 = DIRECTION ( 'NONE',  ( -1.000000000000000000, 0.000000000000000000, 0.000000000000000000 ) ) ;
#170 = CARTESIAN_POINT ( 'NONE',  ( 1626.867891824000026, -49.99999999999990052, 1181.848012078999773 ) ) ;
#171 = ORIENTED_EDGE ( 'NONE', *, *, #164, .T. ) ;
#172 = VECTOR ( 'NONE', #597, 1000.000000000000000 ) ;
#173 = ORIENTED_EDGE ( 'NONE', *, *, #523, .T. ) ;
#174 = EDGE_CURVE ( 'NONE', #22, #84, #338, .T. ) ;
#175 = FILL_AREA_STYLE ('',( #37 ) ) ;
#176 = DIRECTION ( 'NONE',  ( 0.000000000000000000, 1.000000000000000000, 0.000000000000000000 ) ) ;
#177 = AXIS2_PLACEMENT_3D ( 'NONE', #252, #436, #379 ) ;
#178 = ORIENTED_EDGE ( 'NONE', *, *, #734, .F. ) ;
#179 = ORIENTED_EDGE ( 'NONE', *, *, #474, .F. ) ;
#180 = DIRECTION ( 'NONE',  ( 0.000000000000000000, 1.000000000000000000, 0.000000000000000000 ) ) ;
#181 = CARTESIAN_POINT ( 'NONE',  ( 1592.867891824000026, -49.99999999999990052, 1187.848012078999773 ) ) ;
#182 = VERTEX_POINT ( 'NONE', #170 ) ;
#183 = VERTEX_POINT ( 'NONE', #593 ) ;
#184 = CARTESIAN_POINT ( 'NONE',  ( 1620.867891824000026, -50.00000000000000000, 1133.848012079000000 ) ) ;
#185 = CARTESIAN_POINT ( 'NONE',  ( 1620.867891980999957, -50.00000000000000000, 1184.848012079000000 ) ) ;
#186 = ORIENTED_EDGE ( 'NONE', *, *, #594, .T. ) ;
#187 = AXIS2_PLACEMENT_3D ( 'NONE', #644, #166, #337 ) ;
#188 = CARTESIAN_POINT ( 'NONE',  ( 1592.867891824000026, -1176.500000000000000, 1181.848012078999773 ) ) ;
#189 =( NAMED_UNIT ( * ) PLANE_ANGLE_UNIT ( ) SI_UNIT ( $, .RADIAN. ) );
#190 = VERTEX_POINT ( 'NONE', #656 ) ;
#191 = VECTOR ( 'NONE', #558, 1000.000000000000000 ) ;
#192 = EDGE_CURVE ( 'NONE', #356, #631, #299, .T. ) ;
#193 = CYLINDRICAL_SURFACE ( 'NONE', #630, 2.999999999999891642 ) ;
#194 = CARTESIAN_POINT ( 'NONE',  ( 1592.867891824000026, -49.99999999999990052, 1187.848012078999773 ) ) ;
#195 = DIRECTION ( 'NONE',  ( 0.000000000000000000, 0.000000000000000000, 1.000000000000000000 ) ) ;
#196 = ORIENTED_EDGE ( 'NONE', *, *, #192, .T. ) ;
#197 = CIRCLE ( 'NONE', #372, 2.000000000000001776 ) ;
#198 = EDGE_CURVE ( 'NONE', #697, #114, #232, .T. ) ;
#199 = LINE ( 'NONE', #323, #41 ) ;
#200 = EDGE_CURVE ( 'NONE', #120, #283, #246, .T. ) ;
#201 = DIRECTION ( 'NONE',  ( 0.000000000000000000, 0.000000000000000000, -1.000000000000000000 ) ) ;
#202 = VECTOR ( 'NONE', #261, 1000.000000000000000 ) ;
#203 = ORIENTED_EDGE ( 'NONE', *, *, #71, .T. ) ;
#204 = UNCERTAINTY_MEASURE_WITH_UNIT (LENGTH_MEASURE( 1.000000000000000082E-05 ), #527, 'distance_accuracy_value', 'NONE');
#205 = CARTESIAN_POINT ( 'NONE',  ( 1601.867891823999798, -1176.500000000000000, 1184.848012079000000 ) ) ;
#206 = DIRECTION ( 'NONE',  ( 0.000000000000000000, 1.000000000000000000, 0.000000000000000000 ) ) ;
#207 = CARTESIAN_POINT ( 'NONE',  ( 1620.867891824000026, -1347.000000000000000, 1130.848012078999773 ) ) ;
#208 = VERTEX_POINT ( 'NONE', #715 ) ;
#209 = DIRECTION ( 'NONE',  ( 0.000000000000000000, 0.000000000000000000, -1.000000000000000000 ) ) ;
#210 = CARTESIAN_POINT ( 'NONE',  ( 1626.867891824000026, -1347.000000000000000, 1181.848012078999773 ) ) ;
#211 = ORIENTED_EDGE ( 'NONE', *, *, #343, .T. ) ;
#212 = DIRECTION ( 'NONE',  ( 0.000000000000000000, 1.000000000000000000, 0.000000000000000000 ) ) ;
#213 = DIRECTION ( 'NONE',  ( 0.000000000000000000, -1.000000000000000000, 0.000000000000000000 ) ) ;
#214 = ORIENTED_EDGE ( 'NONE', *, *, #164, .F. ) ;
#215 = CARTESIAN_POINT ( 'NONE',  ( 1600.867891824000026, -1347.000000000000000, 1130.848012078999773 ) ) ;
#216 = EDGE_CURVE ( 'NONE', #464, #682, #572, .T. ) ;
#217 = DIRECTION ( 'NONE',  ( 0.000000000000000000, 0.000000000000000000, 1.000000000000000000 ) ) ;
#218 = ORIENTED_EDGE ( 'NONE', *, *, #677, .T. ) ;
#219 = LINE ( 'NONE', #347, #528 ) ;
#220 = CARTESIAN_POINT ( 'NONE',  ( 1620.867891824000026, -1347.000000000000000, 1127.848012079000000 ) ) ;
#221 = EDGE_LOOP ( 'NONE', ( #52, #288, #539, #720 ) ) ;
#222 = CARTESIAN_POINT ( 'NONE',  ( 1592.867891824000026, -1347.000000000000000, 1127.848012079000000 ) ) ;
#223 = LINE ( 'NONE', #585, #53 ) ;
#224 = ORIENTED_EDGE ( 'NONE', *, *, #82, .F. ) ;
#225 = VERTEX_POINT ( 'NONE', #291 ) ;
#226 = CARTESIAN_POINT ( 'NONE',  ( 1591.867891823999798, -50.00000000000000000, 1132.848012078999773 ) ) ;
#227 = DIRECTION ( 'NONE',  ( 0.000000000000000000, 0.000000000000000000, -1.000000000000000000 ) ) ;
#228 = ORIENTED_EDGE ( 'NONE', *, *, #390, .T. ) ;
#229 = DIRECTION ( 'NONE',  ( 0.000000000000000000, 0.000000000000000000, 1.000000000000000000 ) ) ;
#230 = EDGE_CURVE ( 'NONE', #130, #631, #223, .T. ) ;
#231 = DIRECTION ( 'NONE',  ( 0.000000000000000000, 0.000000000000000000, -1.000000000000000000 ) ) ;
#232 = CIRCLE ( 'NONE', #259, 6.000000000000005329 ) ;
#233 = EDGE_LOOP ( 'NONE', ( #465, #582, #289, #643 ) ) ;
#234 =( LENGTH_UNIT ( ) NAMED_UNIT ( * ) SI_UNIT ( .MILLI., .METRE. ) );
#235 = ORIENTED_EDGE ( 'NONE', *, *, #423, .F. ) ;
#236 = ORIENTED_EDGE ( 'NONE', *, *, #452, .T. ) ;
#237 = CARTESIAN_POINT ( 'NONE',  ( 1612.867891824000026, -1347.000000000000000, 1127.848012079000000 ) ) ;
#238 = FACE_OUTER_BOUND ( 'NONE', #502, .T. ) ;
#239 = ORIENTED_EDGE ( 'NONE', *, *, #198, .F. ) ;
#240 = EDGE_CURVE ( 'NONE', #297, #63, #50, .T. ) ;
#241 = VERTEX_POINT ( 'NONE', #645 ) ;
#242 =( GEOMETRIC_REPRESENTATION_CONTEXT ( 3 ) GLOBAL_UNCERTAINTY_ASSIGNED_CONTEXT ( ( #204 ) ) GLOBAL_UNIT_ASSIGNED_CONTEXT ( ( #527, #764, #451 ) ) REPRESENTATION_CONTEXT ( 'NONE', 'WORKASPACE' ) );
#243 = DIRECTION ( 'NONE',  ( 0.000000000000000000, 1.000000000000000000, 0.000000000000000000 ) ) ;
#244 = AXIS2_PLACEMENT_3D ( 'NONE', #295, #243, #610 ) ;
#245 = SURFACE_STYLE_FILL_AREA ( #661 ) ;
#246 = CIRCLE ( 'NONE', #741, 6.000000000000005329 ) ;
#247 = CARTESIAN_POINT ( 'NONE',  ( 1623.867891824000026, -50.00000000000000000, 1133.848012079000000 ) ) ;
#248 = DIRECTION ( 'NONE',  ( 0.000000000000000000, 1.000000000000000000, 0.000000000000000000 ) ) ;
#249 = DIRECTION ( 'NONE',  ( 0.000000000000000000, 1.000000000000000000, 0.000000000000000000 ) ) ;
#250 = DIRECTION ( 'NONE',  ( 0.000000000000000000, -1.000000000000000000, 0.000000000000000000 ) ) ;
#251 = EDGE_CURVE ( 'NONE', #93, #274, #44, .T. ) ;
#252 = CARTESIAN_POINT ( 'NONE',  ( 0.000000000000000000, 0.000000000000000000, 0.000000000000000000 ) ) ;
#253 = ADVANCED_FACE ( 'NONE', ( #519 ), #755, .F. ) ;
#254 = CARTESIAN_POINT ( 'NONE',  ( 1623.867891824000026, -50.00000000000000000, 1181.848012078999773 ) ) ;
#255 = CARTESIAN_POINT ( 'NONE',  ( 1586.867891824000026, -49.99999999999990052, 1133.848012079000000 ) ) ;
#256 = EDGE_CURVE ( 'NONE', #183, #190, #707, .T. ) ;
#257 = DIRECTION ( 'NONE',  ( 0.000000000000000000, -1.000000000000000000, 0.000000000000000000 ) ) ;
#258 = AXIS2_PLACEMENT_3D ( 'NONE', #509, #213, #453 ) ;
#259 = AXIS2_PLACEMENT_3D ( 'NONE', #711, #700, #532 ) ;
#260 = AXIS2_PLACEMENT_3D ( 'NONE', #80, #154, #432 ) ;
#261 = DIRECTION ( 'NONE',  ( 0.000000000000000000, 1.000000000000000000, 0.000000000000000000 ) ) ;
#262 = AXIS2_PLACEMENT_3D ( 'NONE', #517, #143, #201 ) ;
#263 = EDGE_CURVE ( 'NONE', #646, #416, #48, .T. ) ;
#264 = PRODUCT_CONTEXT ( 'NONE', #317, 'mechanical' ) ;
#265 = DIRECTION ( 'NONE',  ( 1.000000000000000000, 0.000000000000000000, 0.000000000000000000 ) ) ;
#266 = ORIENTED_EDGE ( 'NONE', *, *, #263, .T. ) ;
#267 = UNCERTAINTY_MEASURE_WITH_UNIT (LENGTH_MEASURE( 1.000000000000000082E-05 ), #568, 'distance_accuracy_value', 'NONE');
#268 = CARTESIAN_POINT ( 'NONE',  ( 1620.867892299329924, -1347.000000000000000, 1187.848012078999773 ) ) ;
#269 = DIRECTION ( 'NONE',  ( -1.000000000000000000, 0.000000000000000000, 0.000000000000000000 ) ) ;
#270 = ORIENTED_EDGE ( 'NONE', *, *, #632, .T. ) ;
#271 = AXIS2_PLACEMENT_3D ( 'NONE', #729, #249, #604 ) ;
#272 = LINE ( 'NONE', #516, #385 ) ;
#273 = ORIENTED_EDGE ( 'NONE', *, *, #699, .F. ) ;
#274 = VERTEX_POINT ( 'NONE', #405 ) ;
#275 = EDGE_CURVE ( 'NONE', #454, #696, #445, .T. ) ;
#276 = DIRECTION ( 'NONE',  ( 0.000000000000000000, 1.000000000000000000, 0.000000000000000000 ) ) ;
#277 = EDGE_CURVE ( 'NONE', #550, #356, #463, .T. ) ;
#278 = DIRECTION ( 'NONE',  ( 1.000000000000000000, 0.000000000000000000, 0.000000000000000000 ) ) ;
#279 = ORIENTED_EDGE ( 'NONE', *, *, #256, .F. ) ;
#280 = CYLINDRICAL_SURFACE ( 'NONE', #331, 2.000000000000001776 ) ;
#281 = DIRECTION ( 'NONE',  ( 1.000000000000000000, 0.000000000000000000, 0.000000000000000000 ) ) ;
#282 = VECTOR ( 'NONE', #107, 1000.000000000000000 ) ;
#283 = VERTEX_POINT ( 'NONE', #286 ) ;
#284 = PLANE ( 'NONE',  #678 ) ;
#285 = VECTOR ( 'NONE', #332, 1000.000000000000000 ) ;
#286 = CARTESIAN_POINT ( 'NONE',  ( 1592.867891824000026, -49.99999999999990052, 1127.848012079000000 ) ) ;
#287 = EDGE_CURVE ( 'NONE', #713, #696, #529, .T. ) ;
#288 = ORIENTED_EDGE ( 'NONE', *, *, #10, .F. ) ;
#289 = ORIENTED_EDGE ( 'NONE', *, *, #127, .F. ) ;
#290 = CARTESIAN_POINT ( 'NONE',  ( 1591.867891823999798, -1176.500000000000000, 1132.848012078999773 ) ) ;
#291 = CARTESIAN_POINT ( 'NONE',  ( 1586.867891824000026, -49.99999999999990052, 1181.848012078999773 ) ) ;
#292 = ORIENTED_EDGE ( 'NONE', *, *, #650, .F. ) ;
#293 = ADVANCED_FACE ( 'NONE', ( #238 ), #25, .T. ) ;
#294 = ORIENTED_EDGE ( 'NONE', *, *, #390, .F. ) ;
#295 = CARTESIAN_POINT ( 'NONE',  ( 1592.867891824000026, -1026.500000000000000, 1133.848012079000000 ) ) ;
#296 = CYLINDRICAL_SURFACE ( 'NONE', #727, 6.000000000000005329 ) ;
#297 = VERTEX_POINT ( 'NONE', #181 ) ;
#298 = ORIENTED_EDGE ( 'NONE', *, *, #523, .F. ) ;
#299 = CIRCLE ( 'NONE', #140, 6.000000000000005329 ) ;
#300 = EDGE_LOOP ( 'NONE', ( #49, #450, #203, #336, #760, #468, #535, #595, #716, #239, #530, #757, #159, #589, #339, #6, #211, #214, #723, #334 ) ) ;
#301 = COLOUR_RGB ( '',0.6274509803921568540, 0.6274509803921568540, 0.6431372549019607199 ) ;
#302 = ORIENTED_EDGE ( 'NONE', *, *, #192, .F. ) ;
#303 = CLOSED_SHELL ( 'NONE', ( #750, #471, #709, #554, #574, #293, #253, #547, #151, #642, #384, #667, #316, #113, #32, #515, #142, #375, #626, #74 ) ) ;
#304 = CARTESIAN_POINT ( 'NONE',  ( 1620.867891928670133, -1347.000000000000000, 1184.848012079000000 ) ) ;
#305 = EDGE_CURVE ( 'NONE', #763, #646, #306, .T. ) ;
#306 = LINE ( 'NONE', #483, #191 ) ;
#307 = ORIENTED_EDGE ( 'NONE', *, *, #46, .T. ) ;
#308 = ORIENTED_EDGE ( 'NONE', *, *, #277, .T. ) ;
#309 = FACE_OUTER_BOUND ( 'NONE', #738, .T. ) ;
#310 =( NAMED_UNIT ( * ) PLANE_ANGLE_UNIT ( ) SI_UNIT ( $, .RADIAN. ) );
#311 = FACE_OUTER_BOUND ( 'NONE', #481, .T. ) ;
#312 = VECTOR ( 'NONE', #606, 1000.000000000000000 ) ;
#313 = CARTESIAN_POINT ( 'NONE',  ( 1620.867891824000026, -1347.000000000000000, 1133.848012079000000 ) ) ;
#314 = CARTESIAN_POINT ( 'NONE',  ( 1591.867891823999798, -1347.000000000000000, 1132.848012078999773 ) ) ;
#315 = PRESENTATION_LAYER_ASSIGNMENT (  '', '', ( #30 ) ) ;
#316 = ADVANCED_FACE ( 'NONE', ( #548 ), #124, .F. ) ;
#317 = APPLICATION_CONTEXT ( 'automotive_design' ) ;
#318 = LINE ( 'NONE', #155, #739 ) ;
#319 = ORIENTED_EDGE ( 'NONE', *, *, #343, .F. ) ;
#320 = PLANE ( 'NONE',  #557 ) ;
#321 = DIRECTION ( 'NONE',  ( 0.000000000000000000, -1.000000000000000000, 0.000000000000000000 ) ) ;
#322 =( NAMED_UNIT ( * ) SI_UNIT ( $, .STERADIAN. ) SOLID_ANGLE_UNIT ( ) );
#323 = CARTESIAN_POINT ( 'NONE',  ( 1620.867891824000026, -49.99999999999990052, 1127.848012079000000 ) ) ;
#324 = DIRECTION ( 'NONE',  ( 0.000000000000000000, 0.000000000000000000, 1.000000000000000000 ) ) ;
#325 = DIRECTION ( 'NONE',  ( 5.233332286044090929E-08, 0.000000000000000000, 0.9999999999999986677 ) ) ;
#326 = SURFACE_SIDE_STYLE ('',( #373 ) ) ;
#327 = DIRECTION ( 'NONE',  ( 0.000000000000000000, 1.000000000000000000, 0.000000000000000000 ) ) ;
#328 = CARTESIAN_POINT ( 'NONE',  ( 1592.867892366999968, -1347.000000000000000, 1184.848012079000000 ) ) ;
#329 = ORIENTED_EDGE ( 'NONE', *, *, #61, .F. ) ;
#330 = CARTESIAN_POINT ( 'NONE',  ( 1592.867891824000026, -1347.000000000000000, 1133.848012079000000 ) ) ;
#331 = AXIS2_PLACEMENT_3D ( 'NONE', #290, #404, #395 ) ;
#332 = DIRECTION ( 'NONE',  ( 0.000000000000000000, 0.000000000000000000, 1.000000000000000000 ) ) ;
#333 = EDGE_CURVE ( 'NONE', #416, #413, #411, .T. ) ;
#334 = ORIENTED_EDGE ( 'NONE', *, *, #564, .F. ) ;
#335 = CIRCLE ( 'NONE', #271, 6.000000000000005329 ) ;
#336 = ORIENTED_EDGE ( 'NONE', *, *, #200, .F. ) ;
#337 = DIRECTION ( 'NONE',  ( 0.000000000000000000, 0.000000000000000000, 1.000000000000000000 ) ) ;
#338 = LINE ( 'NONE', #758, #473 ) ;
#339 = ORIENTED_EDGE ( 'NONE', *, *, #650, .T. ) ;
#340 = DIRECTION ( 'NONE',  ( -1.000000000000000000, 0.000000000000000000, 0.000000000000000000 ) ) ;
#341 = ORIENTED_EDGE ( 'NONE', *, *, #699, .T. ) ;
#342 = STYLED_ITEM ( 'NONE', ( #521 ), #547 ) ;
#343 = EDGE_CURVE ( 'NONE', #713, #121, #15, .T. ) ;
#344 = DIRECTION ( 'NONE',  ( 1.000000000000000000, 0.000000000000000000, 0.000000000000000000 ) ) ;
#345 = DIRECTION ( 'NONE',  ( -0.000000000000000000, -0.000000000000000000, -1.000000000000000000 ) ) ;
#346 = ORIENTED_EDGE ( 'NONE', *, *, #24, .F. ) ;
#347 = CARTESIAN_POINT ( 'NONE',  ( 1600.867891824000026, -50.00000000000000000, 1137.848012079000000 ) ) ;
#348 = AXIS2_PLACEMENT_3D ( 'NONE', #703, #402, #281 ) ;
#349 = CARTESIAN_POINT ( 'NONE',  ( 1601.867891823999798, -1026.500000000000000, 1187.848012078999773 ) ) ;
#350 = ORIENTED_EDGE ( 'NONE', *, *, #92, .T. ) ;
#351 = VERTEX_POINT ( 'NONE', #360 ) ;
#352 = LINE ( 'NONE', #706, #618 ) ;
#353 = CARTESIAN_POINT ( 'NONE',  ( 1592.867891824000026, -50.00000000000020606, 1133.848012079000000 ) ) ;
#354 = ORIENTED_EDGE ( 'NONE', *, *, #484, .T. ) ;
#355 = CYLINDRICAL_SURFACE ( 'NONE', #394, 2.999999999999891642 ) ;
#356 = VERTEX_POINT ( 'NONE', #607 ) ;
#357 = EDGE_CURVE ( 'NONE', #596, #130, #335, .T. ) ;
#358 = ORIENTED_EDGE ( 'NONE', *, *, #499, .T. ) ;
#359 = CYLINDRICAL_SURFACE ( 'NONE', #244, 6.000000000000005329 ) ;
#360 = CARTESIAN_POINT ( 'NONE',  ( 1620.867891824000026, -1347.000000000000000, 1130.848012078999773 ) ) ;
#361 = VECTOR ( 'NONE', #75, 1000.000000000000000 ) ;
#362 = ORIENTED_EDGE ( 'NONE', *, *, #216, .T. ) ;
#363 = MANIFOLD_SOLID_BREP ( '切除-拉伸1', #303 ) ;
#364 = ORIENTED_EDGE ( 'NONE', *, *, #484, .F. ) ;
#365 = CYLINDRICAL_SURFACE ( 'NONE', #149, 6.000000000000005329 ) ;
#366 = FILL_AREA_STYLE ('',( #12 ) ) ;
#367 = VERTEX_POINT ( 'NONE', #17 ) ;
#368 = LINE ( 'NONE', #194, #543 ) ;
#369 = DIRECTION ( 'NONE',  ( 0.000000000000000000, 1.000000000000000000, 0.000000000000000000 ) ) ;
#370 = SURFACE_SIDE_STYLE ('',( #245 ) ) ;
#371 = DIRECTION ( 'NONE',  ( 0.000000000000000000, 0.000000000000000000, 1.000000000000000000 ) ) ;
#372 = AXIS2_PLACEMENT_3D ( 'NONE', #226, #466, #94 ) ;
#373 = SURFACE_STYLE_FILL_AREA ( #685 ) ;
#374 = SURFACE_STYLE_FILL_AREA ( #366 ) ;
#375 = ADVANCED_FACE ( 'NONE', ( #136 ), #320, .T. ) ;
#376 = VECTOR ( 'NONE', #494, 1000.000000000000000 ) ;
#377 = CARTESIAN_POINT ( 'NONE',  ( 1591.867891789999931, -50.00000000000000000, 1130.848012078999773 ) ) ;
#378 = ORIENTED_EDGE ( 'NONE', *, *, #61, .T. ) ;
#379 = DIRECTION ( 'NONE',  ( 1.000000000000000000, 0.000000000000000000, 0.000000000000000000 ) ) ;
#380 = PLANE ( 'NONE',  #570 ) ;
#381 = PLANE ( 'NONE',  #704 ) ;
#382 = SURFACE_STYLE_USAGE ( .BOTH. , #326 ) ;
#383 = DIRECTION ( 'NONE',  ( 1.000000000000000000, 0.000000000000000000, 0.000000000000000000 ) ) ;
#384 = ADVANCED_FACE ( 'NONE', ( #387 ), #380, .F. ) ;
#385 = VECTOR ( 'NONE', #212, 1000.000000000000000 ) ;
#386 = PLANE ( 'NONE',  #541 ) ;
#387 = FACE_OUTER_BOUND ( 'NONE', #221, .T. ) ;
#388 = ORIENTED_EDGE ( 'NONE', *, *, #452, .F. ) ;
#389 = DIRECTION ( 'NONE',  ( 0.000000000000000000, -1.000000000000000000, 0.000000000000000000 ) ) ;
#390 = EDGE_CURVE ( 'NONE', #367, #121, #33, .T. ) ;
#391 = DIRECTION ( 'NONE',  ( 0.000000000000000000, 0.000000000000000000, -1.000000000000000000 ) ) ;
#392 = EDGE_CURVE ( 'NONE', #182, #114, #34, .T. ) ;
#393 = ORIENTED_EDGE ( 'NONE', *, *, #684, .T. ) ;
#394 = AXIS2_PLACEMENT_3D ( 'NONE', #188, #551, #132 ) ;
#395 = DIRECTION ( 'NONE',  ( 0.000000000000000000, 0.000000000000000000, -1.000000000000000000 ) ) ;
#396 = DIRECTION ( 'NONE',  ( 0.000000000000000000, -1.000000000000000000, 0.000000000000000000 ) ) ;
#397 = EDGE_CURVE ( 'NONE', #36, #520, #634, .T. ) ;
#398 = VERTEX_POINT ( 'NONE', #686 ) ;
#399 = VECTOR ( 'NONE', #579, 1000.000000000000000 ) ;
#400 = VECTOR ( 'NONE', #167, 1000.000000000000000 ) ;
#401 = LINE ( 'NONE', #157, #689 ) ;
#402 = DIRECTION ( 'NONE',  ( 0.000000000000000000, -1.000000000000000000, 0.000000000000000000 ) ) ;
#403 = EDGE_LOOP ( 'NONE', ( #59, #600, #307, #173 ) ) ;
#404 = DIRECTION ( 'NONE',  ( 0.000000000000000000, 1.000000000000000000, 0.000000000000000000 ) ) ;
#405 = CARTESIAN_POINT ( 'NONE',  ( 1600.867891824000026, -50.00000000000000000, 1130.848012078999773 ) ) ;
#406 = ORIENTED_EDGE ( 'NONE', *, *, #92, .F. ) ;
#407 = CARTESIAN_POINT ( 'NONE',  ( 1620.867891824000026, -1176.500000000000000, 1133.848012079000000 ) ) ;
#408 = ORIENTED_EDGE ( 'NONE', *, *, #752, .F. ) ;
#409 = ORIENTED_EDGE ( 'NONE', *, *, #447, .F. ) ;
#410 = SURFACE_STYLE_FILL_AREA ( #175 ) ;
#411 = CIRCLE ( 'NONE', #511, 2.000000000000001776 ) ;
#412 = DIRECTION ( 'NONE',  ( 0.000000000000000000, 0.000000000000000000, -1.000000000000000000 ) ) ;
#413 = VERTEX_POINT ( 'NONE', #503 ) ;
#414 = DIRECTION ( 'NONE',  ( 0.000000000000000000, 0.000000000000000000, 1.000000000000000000 ) ) ;
#415 = PRESENTATION_STYLE_ASSIGNMENT (( #129 ) ) ;
#416 = VERTEX_POINT ( 'NONE', #743 ) ;
#417 = VERTEX_POINT ( 'NONE', #254 ) ;
#418 = DIRECTION ( 'NONE',  ( 0.000000000000000000, 1.000000000000000000, 0.000000000000000000 ) ) ;
#419 = SURFACE_SIDE_STYLE ('',( #374 ) ) ;
#420 = DIRECTION ( 'NONE',  ( 1.000000000000000000, 0.000000000000000000, 0.000000000000000000 ) ) ;
#421 = ORIENTED_EDGE ( 'NONE', *, *, #333, .T. ) ;
#422 = ORIENTED_EDGE ( 'NONE', *, *, #594, .F. ) ;
#423 = EDGE_CURVE ( 'NONE', #533, #725, #446, .T. ) ;
#424 = LINE ( 'NONE', #615, #312 ) ;
#425 = CARTESIAN_POINT ( 'NONE',  ( 1626.867891824000026, -49.99999999999990052, 1133.848012079000000 ) ) ;
#426 = CARTESIAN_POINT ( 'NONE',  ( 1586.867891824000026, -1347.000000000000000, 1133.848012079000000 ) ) ;
#427 = CIRCLE ( 'NONE', #504, 6.000000000000005329 ) ;
#428 =( LENGTH_UNIT ( ) NAMED_UNIT ( * ) SI_UNIT ( .MILLI., .METRE. ) );
#429 = ADVANCED_BREP_SHAPE_REPRESENTATION ( 'XH-YJ38-LJ-027-A0-延长架方通', ( #363, #177 ), #489 ) ;
#430 = CARTESIAN_POINT ( 'NONE',  ( 1620.867892299329924, -49.99999999999990052, 1187.848012078999773 ) ) ;
#431 = FILL_AREA_STYLE_COLOUR ( '', #666 ) ;
#432 = DIRECTION ( 'NONE',  ( 1.000000000000000000, 0.000000000000000000, 0.000000000000000000 ) ) ;
#433 = VECTOR ( 'NONE', #321, 1000.000000000000000 ) ;
#434 = PRESENTATION_LAYER_ASSIGNMENT (  '', '', ( #39 ) ) ;
#435 = CARTESIAN_POINT ( 'NONE',  ( 1606.867891824000026, -49.99999999999990052, 1130.848012078999773 ) ) ;
#436 = DIRECTION ( 'NONE',  ( 0.000000000000000000, 0.000000000000000000, 1.000000000000000000 ) ) ;
#437 = CARTESIAN_POINT ( 'NONE',  ( 1626.867891824000026, -1347.000000000000000, 1133.848012079000000 ) ) ;
#438 = EDGE_LOOP ( 'NONE', ( #308, #196, #165, #393 ) ) ;
#439 = EDGE_CURVE ( 'NONE', #713, #417, #680, .T. ) ;
#440 = DIRECTION ( 'NONE',  ( -1.000000000000000000, 0.000000000000000000, 0.000000000000000000 ) ) ;
#441 = AXIS2_PLACEMENT_3D ( 'NONE', #99, #710, #169 ) ;
#442 =( NAMED_UNIT ( * ) SI_UNIT ( $, .STERADIAN. ) SOLID_ANGLE_UNIT ( ) );
#443 = DIRECTION ( 'NONE',  ( 0.000000000000000000, 1.000000000000000000, 0.000000000000000000 ) ) ;
#444 = EDGE_LOOP ( 'NONE', ( #538, #270, #409, #341 ) ) ;
#445 = CIRCLE ( 'NONE', #348, 2.999999999999891642 ) ;
#446 = CIRCLE ( 'NONE', #621, 6.000000000000005329 ) ;
#447 = EDGE_CURVE ( 'NONE', #351, #241, #497, .T. ) ;
#448 = DIRECTION ( 'NONE',  ( 0.000000000000000000, 1.000000000000000000, 0.000000000000000000 ) ) ;
#449 = DIRECTION ( 'NONE',  ( -1.000000000000000000, 0.000000000000000000, 0.000000000000000000 ) ) ;
#450 = ORIENTED_EDGE ( 'NONE', *, *, #534, .T. ) ;
#451 =( NAMED_UNIT ( * ) SI_UNIT ( $, .STERADIAN. ) SOLID_ANGLE_UNIT ( ) );
#452 = EDGE_CURVE ( 'NONE', #413, #550, #691, .T. ) ;
#453 = DIRECTION ( 'NONE',  ( 0.000000000000000000, 0.000000000000000000, 1.000000000000000000 ) ) ;
#454 = VERTEX_POINT ( 'NONE', #569 ) ;
#455 = FACE_OUTER_BOUND ( 'NONE', #125, .T. ) ;
#456 = CARTESIAN_POINT ( 'NONE',  ( 1589.867891823999798, -1347.000000000000000, 1181.848012078999773 ) ) ;
#457 = ORIENTED_EDGE ( 'NONE', *, *, #676, .F. ) ;
#458 = MECHANICAL_DESIGN_GEOMETRIC_PRESENTATION_REPRESENTATION (  '', ( #30 ), #150 ) ;
#459 = FACE_OUTER_BOUND ( 'NONE', #148, .T. ) ;
#460 = DIRECTION ( 'NONE',  ( 0.000000000000000000, 1.000000000000000000, 0.000000000000000000 ) ) ;
#461 = ORIENTED_EDGE ( 'NONE', *, *, #357, .T. ) ;
#462 = DIRECTION ( 'NONE',  ( 1.000000000000000000, 0.000000000000000000, 0.000000000000000000 ) ) ;
#463 = LINE ( 'NONE', #648, #109 ) ;
#464 = VERTEX_POINT ( 'NONE', #268 ) ;
#465 = ORIENTED_EDGE ( 'NONE', *, *, #601, .F. ) ;
#466 = DIRECTION ( 'NONE',  ( 0.000000000000000000, 1.000000000000000000, 0.000000000000000000 ) ) ;
#467 = CARTESIAN_POINT ( 'NONE',  ( 1606.867891824000026, -1347.000000000000000, 1127.848012079000000 ) ) ;
#468 = ORIENTED_EDGE ( 'NONE', *, *, #759, .F. ) ;
#469 = ORIENTED_EDGE ( 'NONE', *, *, #587, .T. ) ;
#470 = VECTOR ( 'NONE', #391, 1000.000000000000000 ) ;
#471 = ADVANCED_FACE ( 'NONE', ( #152 ), #386, .T. ) ;
#472 = LINE ( 'NONE', #117, #663 ) ;
#473 = VECTOR ( 'NONE', #396, 1000.000000000000000 ) ;
#474 = EDGE_CURVE ( 'NONE', #454, #417, #578, .T. ) ;
#475 = CARTESIAN_POINT ( 'NONE',  ( 1601.867891823999798, -1176.500000000000000, 1130.848012078999773 ) ) ;
#476 = AXIS2_PLACEMENT_3D ( 'NONE', #536, #718, #414 ) ;
#477 = ORIENTED_EDGE ( 'NONE', *, *, #46, .F. ) ;
#478 = CARTESIAN_POINT ( 'NONE',  ( 1592.867891824000026, -1026.500000000000000, 1181.848012078999773 ) ) ;
#479 = CARTESIAN_POINT ( 'NONE',  ( 1620.867891980999957, -50.00000000000000000, 1184.848012079000000 ) ) ;
#480 = EDGE_LOOP ( 'NONE', ( #636, #408, #101, #358, #89, #302, #378, #153 ) ) ;
#481 = EDGE_LOOP ( 'NONE', ( #592, #388, #2, #23, #406, #518, #487, #659, #273, #364, #346, #658, #708, #477, #712, #510, #695, #116, #235, #329 ) ) ;
#482 = DIRECTION ( 'NONE',  ( -1.000000000000000000, 0.000000000000000000, 0.000000000000000000 ) ) ;
#483 = CARTESIAN_POINT ( 'NONE',  ( 1589.867891823999798, -50.00000000000000000, 1181.848012078999773 ) ) ;
#484 = EDGE_CURVE ( 'NONE', #506, #351, #86, .T. ) ;
#485 = EDGE_LOOP ( 'NONE', ( #639, #754, #179, #168 ) ) ;
#486 = PRESENTATION_LAYER_ASSIGNMENT (  '', '', ( #342 ) ) ;
#487 = ORIENTED_EDGE ( 'NONE', *, *, #275, .F. ) ;
#488 = CARTESIAN_POINT ( 'NONE',  ( 1586.867891824000026, -1347.000000000000000, 1133.848012079000000 ) ) ;
#489 =( GEOMETRIC_REPRESENTATION_CONTEXT ( 3 ) GLOBAL_UNCERTAINTY_ASSIGNED_CONTEXT ( ( #552 ) ) GLOBAL_UNIT_ASSIGNED_CONTEXT ( ( #234, #85, #322 ) ) REPRESENTATION_CONTEXT ( 'NONE', 'WORKASPACE' ) );
#490 = AXIS2_PLACEMENT_3D ( 'NONE', #407, #460, #1 ) ;
#491 = DIRECTION ( 'NONE',  ( 0.000000000000000000, -1.000000000000000000, 0.000000000000000000 ) ) ;
#492 = EDGE_CURVE ( 'NONE', #182, #63, #749, .T. ) ;
#493 = DIRECTION ( 'NONE',  ( 0.000000000000000000, 0.000000000000000000, -1.000000000000000000 ) ) ;
#494 = DIRECTION ( 'NONE',  ( 0.000000000000000000, -1.000000000000000000, 0.000000000000000000 ) ) ;
#495 = LINE ( 'NONE', #72, #399 ) ;
#496 =( NAMED_UNIT ( * ) PLANE_ANGLE_UNIT ( ) SI_UNIT ( $, .RADIAN. ) );
#497 = LINE ( 'NONE', #207, #512 ) ;
#498 = DIRECTION ( 'NONE',  ( 0.000000000000000000, -1.000000000000000000, 0.000000000000000000 ) ) ;
#499 = EDGE_CURVE ( 'NONE', #697, #130, #199, .T. ) ;
#500 = DIRECTION ( 'NONE',  ( 0.000000000000000000, 0.000000000000000000, 1.000000000000000000 ) ) ;
#501 = DIRECTION ( 'NONE',  ( 1.000000000000000000, 0.000000000000000000, 0.000000000000000000 ) ) ;
#502 = EDGE_LOOP ( 'NONE', ( #586, #620, #79, #236, #649, #354, #156, #664 ) ) ;
#503 = CARTESIAN_POINT ( 'NONE',  ( 1591.867891789999931, -1347.000000000000000, 1130.848012078999773 ) ) ;
#504 = AXIS2_PLACEMENT_3D ( 'NONE', #11, #195, #14 ) ;
#505 = PRODUCT_DEFINITION_SHAPE ( 'NONE', 'NONE',  #103 ) ;
#506 = VERTEX_POINT ( 'NONE', #681 ) ;
#507 = MECHANICAL_DESIGN_GEOMETRIC_PRESENTATION_REPRESENTATION (  '', ( #342 ), #242 ) ;
#508 = CARTESIAN_POINT ( 'NONE',  ( 1626.867891824000026, -698.0583743550000690, 1157.874048555999934 ) ) ;
#509 = CARTESIAN_POINT ( 'NONE',  ( 1592.867891824000026, -1347.000000000000000, 1181.848012078999773 ) ) ;
#510 = ORIENTED_EDGE ( 'NONE', *, *, #624, .F. ) ;
#511 = AXIS2_PLACEMENT_3D ( 'NONE', #314, #719, #617 ) ;
#512 = VECTOR ( 'NONE', #141, 1000.000000000000000 ) ;
#513 = STYLED_ITEM ( 'NONE', ( #415 ), #375 ) ;
#514 = AXIS2_PLACEMENT_3D ( 'NONE', #576, #448, #325 ) ;
#515 = ADVANCED_FACE ( 'NONE', ( #637 ), #566, .F. ) ;
#516 = CARTESIAN_POINT ( 'NONE',  ( 1589.867891823999798, -1347.000000000000000, 1132.848012078999773 ) ) ;
#517 = CARTESIAN_POINT ( 'NONE',  ( 1620.867891824000026, -1026.500000000000000, 1181.848012078999773 ) ) ;
#518 = ORIENTED_EDGE ( 'NONE', *, *, #677, .F. ) ;
#519 = FACE_OUTER_BOUND ( 'NONE', #444, .T. ) ;
#520 = VERTEX_POINT ( 'NONE', #740 ) ;
#521 = PRESENTATION_STYLE_ASSIGNMENT (( #590 ) ) ;
#522 = DIRECTION ( 'NONE',  ( 1.000000000000000000, 0.000000000000000000, 0.000000000000000000 ) ) ;
#523 = EDGE_CURVE ( 'NONE', #596, #114, #144, .T. ) ;
#524 = ORIENTED_EDGE ( 'NONE', *, *, #759, .T. ) ;
#525 = AXIS2_PLACEMENT_3D ( 'NONE', #349, #227, #522 ) ;
#526 = AXIS2_PLACEMENT_3D ( 'NONE', #162, #176, #58 ) ;
#527 =( LENGTH_UNIT ( ) NAMED_UNIT ( * ) SI_UNIT ( .MILLI., .METRE. ) );
#528 = VECTOR ( 'NONE', #751, 1000.000000000000000 ) ;
#529 = LINE ( 'NONE', #479, #376 ) ;
#530 = ORIENTED_EDGE ( 'NONE', *, *, #563, .T. ) ;
#531 = DIRECTION ( 'NONE',  ( -1.000000000000000000, 0.000000000000000000, 0.000000000000000000 ) ) ;
#532 = DIRECTION ( 'NONE',  ( 0.000000000000000000, 0.000000000000000000, -1.000000000000000000 ) ) ;
#533 = VERTEX_POINT ( 'NONE', #102 ) ;
#534 = EDGE_CURVE ( 'NONE', #274, #208, #219, .T. ) ;
#535 = ORIENTED_EDGE ( 'NONE', *, *, #240, .T. ) ;
#536 = CARTESIAN_POINT ( 'NONE',  ( 1592.867891824000026, -50.00000000000020606, 1181.848012078999773 ) ) ;
#537 = CARTESIAN_POINT ( 'NONE',  ( 1612.867891824000026, -50.00000000000000000, 1137.848012079000000 ) ) ;
#538 = ORIENTED_EDGE ( 'NONE', *, *, #174, .F. ) ;
#539 = ORIENTED_EDGE ( 'NONE', *, *, #127, .T. ) ;
#540 = LINE ( 'NONE', #3, #47 ) ;
#541 = AXIS2_PLACEMENT_3D ( 'NONE', #205, #633, #629 ) ;
#542 = DIRECTION ( 'NONE',  ( 0.000000000000000000, 0.000000000000000000, 1.000000000000000000 ) ) ;
#543 = VECTOR ( 'NONE', #567, 1000.000000000000000 ) ;
#544 = ORIENTED_EDGE ( 'NONE', *, *, #240, .F. ) ;
#545 = ORIENTED_EDGE ( 'NONE', *, *, #18, .F. ) ;
#546 = DIRECTION ( 'NONE',  ( 0.000000000000000000, -1.000000000000000000, 0.000000000000000000 ) ) ;
#547 = ADVANCED_FACE ( 'NONE', ( #459 ), #284, .F. ) ;
#548 = FACE_OUTER_BOUND ( 'NONE', #480, .T. ) ;
#549 = ORIENTED_EDGE ( 'NONE', *, *, #60, .T. ) ;
#550 = VERTEX_POINT ( 'NONE', #215 ) ;
#551 = DIRECTION ( 'NONE',  ( 0.000000000000000000, 1.000000000000000000, 0.000000000000000000 ) ) ;
#552 = UNCERTAINTY_MEASURE_WITH_UNIT (LENGTH_MEASURE( 1.000000000000000082E-05 ), #234, 'distance_accuracy_value', 'NONE');
#553 = DIRECTION ( 'NONE',  ( 0.000000000000000000, -0.000000000000000000, 1.000000000000000000 ) ) ;
#554 = ADVANCED_FACE ( 'NONE', ( #455 ), #43, .T. ) ;
#555 = CARTESIAN_POINT ( 'NONE',  ( 1586.867891824000026, -49.99999999999990052, 1133.848012079000000 ) ) ;
#556 = FACE_OUTER_BOUND ( 'NONE', #485, .T. ) ;
#557 = AXIS2_PLACEMENT_3D ( 'NONE', #508, #265, #327 ) ;
#558 = DIRECTION ( 'NONE',  ( 0.000000000000000000, -1.000000000000000000, 0.000000000000000000 ) ) ;
#559 = AXIS2_PLACEMENT_3D ( 'NONE', #732, #553, #21 ) ;
#560 = LINE ( 'NONE', #746, #433 ) ;
#561 = PRODUCT ( 'XH-YJ38-LJ-027-A0-延长架方通', 'XH-YJ38-LJ-027-A0-延长架方通', '', ( #264 ) ) ;
#562 = CARTESIAN_POINT ( 'NONE',  ( 1592.867892186000063, -50.00000000000000000, 1184.848012079000000 ) ) ;
#563 = EDGE_CURVE ( 'NONE', #697, #183, #352, .T. ) ;
#564 = EDGE_CURVE ( 'NONE', #93, #398, #197, .T. ) ;
#565 = AXIS2_PLACEMENT_3D ( 'NONE', #313, #546, #724 ) ;
#566 = PLANE ( 'NONE',  #9 ) ;
#567 = DIRECTION ( 'NONE',  ( 0.000000000000000000, -1.000000000000000000, 0.000000000000000000 ) ) ;
#568 =( LENGTH_UNIT ( ) NAMED_UNIT ( * ) SI_UNIT ( .MILLI., .METRE. ) );
#569 = CARTESIAN_POINT ( 'NONE',  ( 1623.867891824000026, -1347.000000000000000, 1181.848012078999773 ) ) ;
#570 = AXIS2_PLACEMENT_3D ( 'NONE', #90, #88, #742 ) ;
#571 = AXIS2_PLACEMENT_3D ( 'NONE', #635, #443, #440 ) ;
#572 = CIRCLE ( 'NONE', #526, 6.000000000000005329 ) ;
#573 = DIRECTION ( 'NONE',  ( 0.000000000000000000, 0.000000000000000000, -1.000000000000000000 ) ) ;
#574 = ADVANCED_FACE ( 'NONE', ( #655 ), #280, .F. ) ;
#575 = UNCERTAINTY_MEASURE_WITH_UNIT (LENGTH_MEASURE( 1.000000000000000082E-05 ), #622, 'distance_accuracy_value', 'NONE');
#576 = CARTESIAN_POINT ( 'NONE',  ( 1620.867891824000026, -50.00000000000000000, 1181.848012078999773 ) ) ;
#577 = ORIENTED_EDGE ( 'NONE', *, *, #305, .F. ) ;
#578 = LINE ( 'NONE', #745, #202 ) ;
#579 = DIRECTION ( 'NONE',  ( -1.000000000000000000, 0.000000000000000000, 0.000000000000000000 ) ) ;
#580 = AXIS2_PLACEMENT_3D ( 'NONE', #435, #371, #613 ) ;
#581 = VECTOR ( 'NONE', #573, 1000.000000000000000 ) ;
#582 = ORIENTED_EDGE ( 'NONE', *, *, #423, .T. ) ;
#583 = VECTOR ( 'NONE', #158, 1000.000000000000000 ) ;
#584 = CYLINDRICAL_SURFACE ( 'NONE', #441, 6.000000000000005329 ) ;
#585 = CARTESIAN_POINT ( 'NONE',  ( 1620.867891824000026, -1347.000000000000000, 1127.848012079000000 ) ) ;
#586 = ORIENTED_EDGE ( 'NONE', *, *, #60, .F. ) ;
#587 = EDGE_CURVE ( 'NONE', #84, #454, #647, .T. ) ;
#588 = FACE_OUTER_BOUND ( 'NONE', #748, .T. ) ;
#589 = ORIENTED_EDGE ( 'NONE', *, *, #632, .F. ) ;
#590 = SURFACE_STYLE_USAGE ( .BOTH. , #714 ) ;
#591 = DIRECTION ( 'NONE',  ( 0.000000000000000000, 1.000000000000000000, 0.000000000000000000 ) ) ;
#592 = ORIENTED_EDGE ( 'NONE', *, *, #277, .F. ) ;
#593 = CARTESIAN_POINT ( 'NONE',  ( 1612.867891824000026, -50.00000000000000000, 1127.848012079000000 ) ) ;
#594 = EDGE_CURVE ( 'NONE', #416, #398, #272, .T. ) ;
#595 = ORIENTED_EDGE ( 'NONE', *, *, #492, .F. ) ;
#596 = VERTEX_POINT ( 'NONE', #160 ) ;
#597 = DIRECTION ( 'NONE',  ( 0.000000000000000000, 0.000000000000000000, -1.000000000000000000 ) ) ;
#598 = APPLICATION_CONTEXT ( 'automotive_design' ) ;
#599 = DIRECTION ( 'NONE',  ( -1.000000000000000000, 0.000000000000000000, 0.000000000000000000 ) ) ;
#600 = ORIENTED_EDGE ( 'NONE', *, *, #18, .T. ) ;
#601 = EDGE_CURVE ( 'NONE', #533, #283, #761, .T. ) ;
#602 = ORIENTED_EDGE ( 'NONE', *, *, #474, .T. ) ;
#603 = CARTESIAN_POINT ( 'NONE',  ( 1589.867891823999798, -50.00000000000000000, 1181.848012078999773 ) ) ;
#604 = DIRECTION ( 'NONE',  ( 1.000000000000000000, 0.000000000000000000, 0.000000000000000000 ) ) ;
#605 = CIRCLE ( 'NONE', #258, 2.999999999999891642 ) ;
#606 = DIRECTION ( 'NONE',  ( 0.000000000000000000, 1.000000000000000000, 0.000000000000000000 ) ) ;
#607 = CARTESIAN_POINT ( 'NONE',  ( 1600.867891824000026, -1347.000000000000000, 1127.848012079000000 ) ) ;
#608 = PRESENTATION_LAYER_ASSIGNMENT (  '', '', ( #513 ) ) ;
#609 = VECTOR ( 'NONE', #250, 1000.000000000000000 ) ;
#610 = DIRECTION ( 'NONE',  ( 0.000000000000000000, 0.000000000000000000, -1.000000000000000000 ) ) ;
#611 = PRODUCT_RELATED_PRODUCT_CATEGORY ( 'part', '', ( #561 ) ) ;
#612 = PRESENTATION_STYLE_ASSIGNMENT (( #68 ) ) ;
#613 = DIRECTION ( 'NONE',  ( 1.000000000000000000, 0.000000000000000000, 0.000000000000000000 ) ) ;
#614 = CIRCLE ( 'NONE', #565, 2.999999999999891642 ) ;
#615 = CARTESIAN_POINT ( 'NONE',  ( 1586.867891824000026, -1347.000000000000000, 1181.848012078999773 ) ) ;
#616 = UNCERTAINTY_MEASURE_WITH_UNIT (LENGTH_MEASURE( 1.000000000000000082E-05 ), #428, 'distance_accuracy_value', 'NONE');
#617 = DIRECTION ( 'NONE',  ( -1.000000000000000000, 0.000000000000000000, 0.000000000000000000 ) ) ;
#618 = VECTOR ( 'NONE', #531, 1000.000000000000000 ) ;
#619 = LINE ( 'NONE', #555, #285 ) ;
#620 = ORIENTED_EDGE ( 'NONE', *, *, #251, .F. ) ;
#621 = AXIS2_PLACEMENT_3D ( 'NONE', #330, #206, #209 ) ;
#622 =( LENGTH_UNIT ( ) NAMED_UNIT ( * ) SI_UNIT ( .MILLI., .METRE. ) );
#623 = MECHANICAL_DESIGN_GEOMETRIC_PRESENTATION_REPRESENTATION (  '', ( #513 ), #137 ) ;
#624 = EDGE_CURVE ( 'NONE', #520, #464, #401, .T. ) ;
#625 = CARTESIAN_POINT ( 'NONE',  ( 1586.867891824000026, -1347.000000000000000, 1181.848012078999773 ) ) ;
#626 = ADVANCED_FACE ( 'NONE', ( #640 ), #584, .F. ) ;
#627 = FACE_OUTER_BOUND ( 'NONE', #438, .T. ) ;
#628 = APPLICATION_PROTOCOL_DEFINITION ( 'draft international standard', 'automotive_design', 1998, #598 ) ;
#629 = DIRECTION ( 'NONE',  ( 0.000000000000000000, -1.000000000000000000, 0.000000000000000000 ) ) ;
#630 = AXIS2_PLACEMENT_3D ( 'NONE', #20, #248, #493 ) ;
#631 = VERTEX_POINT ( 'NONE', #237 ) ;
#632 = EDGE_CURVE ( 'NONE', #22, #241, #688, .T. ) ;
#633 = DIRECTION ( 'NONE',  ( 0.000000000000000000, 0.000000000000000000, -1.000000000000000000 ) ) ;
#634 = CIRCLE ( 'NONE', #571, 6.000000000000005329 ) ;
#635 = CARTESIAN_POINT ( 'NONE',  ( 1592.867891824000026, -1347.000000000000000, 1181.848012078999773 ) ) ;
#636 = ORIENTED_EDGE ( 'NONE', *, *, #71, .F. ) ;
#637 = FACE_OUTER_BOUND ( 'NONE', #300, .T. ) ;
#638 = LINE ( 'NONE', #28, #7 ) ;
#639 = ORIENTED_EDGE ( 'NONE', *, *, #287, .F. ) ;
#640 = FACE_OUTER_BOUND ( 'NONE', #110, .T. ) ;
#641 = CARTESIAN_POINT ( 'NONE',  ( 1591.867891721999968, -50.00000000000000000, 1130.848012078999773 ) ) ;
#642 = ADVANCED_FACE ( 'NONE', ( #668 ), #365, .T. ) ;
#643 = ORIENTED_EDGE ( 'NONE', *, *, #200, .T. ) ;
#644 = CARTESIAN_POINT ( 'NONE',  ( 1589.867891823999798, -1176.500000000000000, 1152.848012079000000 ) ) ;
#645 = CARTESIAN_POINT ( 'NONE',  ( 1620.867891824000026, -50.00000000000000000, 1130.848012078999773 ) ) ;
#646 = VERTEX_POINT ( 'NONE', #70 ) ;
#647 = LINE ( 'NONE', #111, #282 ) ;
#648 = CARTESIAN_POINT ( 'NONE',  ( 1600.867891824000026, -1347.000000000000000, 1137.848012079000000 ) ) ;
#649 = ORIENTED_EDGE ( 'NONE', *, *, #684, .F. ) ;
#650 = EDGE_CURVE ( 'NONE', #22, #417, #721, .T. ) ;
#651 = DIRECTION ( 'NONE',  ( 0.000000000000000000, 1.000000000000000000, 0.000000000000000000 ) ) ;
#652 = ORIENTED_EDGE ( 'NONE', *, *, #752, .T. ) ;
#653 = PRODUCT_DEFINITION_FORMATION_WITH_SPECIFIED_SOURCE ( '任何', '', #561, .NOT_KNOWN. ) ;
#654 = EDGE_LOOP ( 'NONE', ( #224, #13, #422, #421 ) ) ;
#655 = FACE_OUTER_BOUND ( 'NONE', #654, .T. ) ;
#656 = CARTESIAN_POINT ( 'NONE',  ( 1612.867891824000026, -50.00000000000000000, 1130.848012078999773 ) ) ;
#657 = EDGE_CURVE ( 'NONE', #763, #398, #665, .T. ) ;
#658 = ORIENTED_EDGE ( 'NONE', *, *, #230, .F. ) ;
#659 = ORIENTED_EDGE ( 'NONE', *, *, #587, .F. ) ;
#660 = CARTESIAN_POINT ( 'NONE',  ( 1623.867891824000026, -49.99999999999990052, 1133.848012079000000 ) ) ;
#661 = FILL_AREA_STYLE ('',( #133 ) ) ;
#662 = ORIENTED_EDGE ( 'NONE', *, *, #734, .T. ) ;
#663 = VECTOR ( 'NONE', #180, 1000.000000000000000 ) ;
#664 = ORIENTED_EDGE ( 'NONE', *, *, #115, .F. ) ;
#665 = LINE ( 'NONE', #128, #172 ) ;
#666 = COLOUR_RGB ( '',1.000000000000000000, 1.000000000000000000, 1.000000000000000000 ) ;
#667 = ADVANCED_FACE ( 'NONE', ( #122 ), #359, .T. ) ;
#668 = FACE_OUTER_BOUND ( 'NONE', #701, .T. ) ;
#669 = VECTOR ( 'NONE', #278, 1000.000000000000000 ) ;
#670 = VECTOR ( 'NONE', #683, 1000.000000000000000 ) ;
#671 = ORIENTED_EDGE ( 'NONE', *, *, #397, .T. ) ;
#672 = LINE ( 'NONE', #426, #119 ) ;
#673 =( NAMED_UNIT ( * ) SI_UNIT ( $, .STERADIAN. ) SOLID_ANGLE_UNIT ( ) );
#674 = LINE ( 'NONE', #134, #361 ) ;
#675 = CARTESIAN_POINT ( 'NONE',  ( 1620.867891824000026, -49.99999999999990052, 1127.848012079000000 ) ) ;
#676 = EDGE_CURVE ( 'NONE', #36, #225, #424, .T. ) ;
#677 = EDGE_CURVE ( 'NONE', #696, #367, #540, .T. ) ;
#678 = AXIS2_PLACEMENT_3D ( 'NONE', #702, #344, #276 ) ;
#679 = DIRECTION ( 'NONE',  ( -0.000000000000000000, -0.000000000000000000, -1.000000000000000000 ) ) ;
#680 = CIRCLE ( 'NONE', #514, 2.999999999999895639 ) ;
#681 = CARTESIAN_POINT ( 'NONE',  ( 1612.867891824000026, -1347.000000000000000, 1130.848012078999773 ) ) ;
#682 = VERTEX_POINT ( 'NONE', #67 ) ;
#683 = DIRECTION ( 'NONE',  ( 0.000000000000000000, 1.000000000000000000, 0.000000000000000000 ) ) ;
#684 = EDGE_CURVE ( 'NONE', #506, #550, #427, .T. ) ;
#685 = FILL_AREA_STYLE ('',( #431 ) ) ;
#686 = CARTESIAN_POINT ( 'NONE',  ( 1589.867891823999798, -50.00000000000000000, 1132.848012078999773 ) ) ;
#687 = COLOUR_RGB ( '',0.6274509803921568540, 0.6274509803921568540, 0.6431372549019607199 ) ;
#688 = CIRCLE ( 'NONE', #106, 2.999999999999891642 ) ;
#689 = VECTOR ( 'NONE', #462, 1000.000000000000000 ) ;
#690 = EDGE_CURVE ( 'NONE', #725, #36, #672, .T. ) ;
#691 = LINE ( 'NONE', #146, #96 ) ;
#692 = VECTOR ( 'NONE', #217, 1000.000000000000000 ) ;
#693 = ORIENTED_EDGE ( 'NONE', *, *, #657, .F. ) ;
#694 = CARTESIAN_POINT ( 'NONE',  ( 1591.867891823999798, -1347.000000000000000, 1130.848012078999773 ) ) ;
#695 = ORIENTED_EDGE ( 'NONE', *, *, #397, .F. ) ;
#696 = VERTEX_POINT ( 'NONE', #304 ) ;
#697 = VERTEX_POINT ( 'NONE', #675 ) ;
#698 = DIRECTION ( 'NONE',  ( 0.000000000000000000, 1.000000000000000000, 0.000000000000000000 ) ) ;
#699 = EDGE_CURVE ( 'NONE', #351, #84, #614, .T. ) ;
#700 = DIRECTION ( 'NONE',  ( 0.000000000000000000, -1.000000000000000000, 0.000000000000000000 ) ) ;
#701 = EDGE_LOOP ( 'NONE', ( #457, #671, #55, #524 ) ) ;
#702 = CARTESIAN_POINT ( 'NONE',  ( 1623.867891824000026, -698.0583743550000690, 1157.874048555999934 ) ) ;
#703 = CARTESIAN_POINT ( 'NONE',  ( 1620.867891824000026, -1347.000000000000000, 1181.848012078999773 ) ) ;
#704 = AXIS2_PLACEMENT_3D ( 'NONE', #19, #491, #730 ) ;
#705 = ORIENTED_EDGE ( 'NONE', *, *, #499, .F. ) ;
#706 = CARTESIAN_POINT ( 'NONE',  ( 1620.867891824000026, -49.99999999999990052, 1127.848012079000000 ) ) ;
#707 = LINE ( 'NONE', #537, #692 ) ;
#708 = ORIENTED_EDGE ( 'NONE', *, *, #357, .F. ) ;
#709 = ADVANCED_FACE ( 'NONE', ( #309 ), #355, .F. ) ;
#710 = DIRECTION ( 'NONE',  ( -0.000000000000000000, -0.000000000000000000, -1.000000000000000000 ) ) ;
#711 = CARTESIAN_POINT ( 'NONE',  ( 1620.867891824000026, -50.00000000000020606, 1133.848012079000000 ) ) ;
#712 = ORIENTED_EDGE ( 'NONE', *, *, #216, .F. ) ;
#713 = VERTEX_POINT ( 'NONE', #16 ) ;
#714 = SURFACE_SIDE_STYLE ('',( #410 ) ) ;
#715 = CARTESIAN_POINT ( 'NONE',  ( 1600.867891824000026, -50.00000000000000000, 1127.848012079000000 ) ) ;
#716 = ORIENTED_EDGE ( 'NONE', *, *, #392, .T. ) ;
#717 = COLOUR_RGB ( '',0.4901960784313725283, 0.4901960784313725283, 0.5254901960784313930 ) ;
#718 = DIRECTION ( 'NONE',  ( 0.000000000000000000, -1.000000000000000000, 0.000000000000000000 ) ) ;
#719 = DIRECTION ( 'NONE',  ( 0.000000000000000000, -1.000000000000000000, 0.000000000000000000 ) ) ;
#720 = ORIENTED_EDGE ( 'NONE', *, *, #690, .T. ) ;
#721 = LINE ( 'NONE', #660, #4 ) ;
#722 = ORIENTED_EDGE ( 'NONE', *, *, #35, .T. ) ;
#723 = ORIENTED_EDGE ( 'NONE', *, *, #657, .T. ) ;
#724 = DIRECTION ( 'NONE',  ( 0.000000000000000000, 0.000000000000000000, -1.000000000000000000 ) ) ;
#725 = VERTEX_POINT ( 'NONE', #488 ) ;
#726 = EDGE_LOOP ( 'NONE', ( #662, #544, #722, #98 ) ) ;
#727 = AXIS2_PLACEMENT_3D ( 'NONE', #762, #651, #412 ) ;
#728 = DIRECTION ( 'NONE',  ( 0.000000000000000000, 0.000000000000000000, 1.000000000000000000 ) ) ;
#729 = CARTESIAN_POINT ( 'NONE',  ( 1620.867891824000026, -1347.000000000000000, 1133.848012079000000 ) ) ;
#730 = DIRECTION ( 'NONE',  ( 0.000000000000000000, 0.000000000000000000, 1.000000000000000000 ) ) ;
#731 = CARTESIAN_POINT ( 'NONE',  ( 1606.867891824000026, -49.99999999999990052, 1127.848012079000000 ) ) ;
#732 = CARTESIAN_POINT ( 'NONE',  ( 1601.867891823999798, -1026.500000000000000, 1127.848012079000000 ) ) ;
#733 = CARTESIAN_POINT ( 'NONE',  ( 1606.867891824000026, -1347.000000000000000, 1137.848012079000000 ) ) ;
#734 = EDGE_CURVE ( 'NONE', #464, #63, #472, .T. ) ;
#735 = DIRECTION ( 'NONE',  ( 0.000000000000000000, 1.000000000000000000, 0.000000000000000000 ) ) ;
#736 = LINE ( 'NONE', #210, #470 ) ;
#737 = PRESENTATION_STYLE_ASSIGNMENT (( #382 ) ) ;
#738 = EDGE_LOOP ( 'NONE', ( #577, #171, #294, #350 ) ) ;
#739 = VECTOR ( 'NONE', #324, 1000.000000000000000 ) ;
#740 = CARTESIAN_POINT ( 'NONE',  ( 1592.867891824000026, -1347.000000000000000, 1187.848012078999773 ) ) ;
#741 = AXIS2_PLACEMENT_3D ( 'NONE', #353, #54, #340 ) ;
#742 = DIRECTION ( 'NONE',  ( 0.000000000000000000, 0.000000000000000000, 1.000000000000000000 ) ) ;
#743 = CARTESIAN_POINT ( 'NONE',  ( 1589.867891823999798, -1347.000000000000000, 1132.848012078999773 ) ) ;
#744 = ORIENTED_EDGE ( 'NONE', *, *, #287, .T. ) ;
#745 = CARTESIAN_POINT ( 'NONE',  ( 1623.867891824000026, -1347.000000000000000, 1181.848012078999773 ) ) ;
#746 = CARTESIAN_POINT ( 'NONE',  ( 1591.867891823999798, -50.00000000000000000, 1130.848012078999773 ) ) ;
#747 = CIRCLE ( 'NONE', #87, 2.999999999999891642 ) ;
#748 = EDGE_LOOP ( 'NONE', ( #298, #461, #705, #42 ) ) ;
#749 = CIRCLE ( 'NONE', #260, 6.000000000000005329 ) ;
#750 = ADVANCED_FACE ( 'NONE', ( #556 ), #193, .F. ) ;
#751 = DIRECTION ( 'NONE',  ( -0.000000000000000000, -0.000000000000000000, -1.000000000000000000 ) ) ;
#752 = EDGE_CURVE ( 'NONE', #183, #208, #756, .T. ) ;
#753 = CYLINDRICAL_SURFACE ( 'NONE', #262, 6.000000000000005329 ) ;
#754 = ORIENTED_EDGE ( 'NONE', *, *, #439, .T. ) ;
#755 = CYLINDRICAL_SURFACE ( 'NONE', #490, 2.999999999999891642 ) ;
#756 = CIRCLE ( 'NONE', #65, 6.000000000000005329 ) ;
#757 = ORIENTED_EDGE ( 'NONE', *, *, #256, .T. ) ;
#758 = CARTESIAN_POINT ( 'NONE',  ( 1623.867891824000026, -50.00000000000000000, 1133.848012079000000 ) ) ;
#759 = EDGE_CURVE ( 'NONE', #297, #225, #40, .T. ) ;
#760 = ORIENTED_EDGE ( 'NONE', *, *, #10, .T. ) ;
#761 = LINE ( 'NONE', #222, #147 ) ;
#762 = CARTESIAN_POINT ( 'NONE',  ( 1620.867891824000026, -1026.500000000000000, 1133.848012079000000 ) ) ;
#763 = VERTEX_POINT ( 'NONE', #603 ) ;
#764 =( NAMED_UNIT ( * ) PLANE_ANGLE_UNIT ( ) SI_UNIT ( $, .RADIAN. ) );
ENDSEC;
END-ISO-10303-21;
